<svg id="svg" version="1.1" xmlns="http://www.w3.org/2000/svg" xmlns:xlink="http://www.w3.org/1999/xlink" width="400" height="400" viewBox="0, 0, 400,400"><g id="svgg"><path id="path0" d="M174.400 0.400 C 174.400 0.643,172.616 0.800,169.847 0.800 C 165.630 0.800,165.278 0.859,165.084 1.600 C 164.893 2.330,164.538 2.400,161.037 2.400 C 157.467 2.400,157.200 2.456,157.200 3.200 C 157.200 3.933,156.933 4.000,154.000 4.000 C 151.067 4.000,150.800 4.067,150.800 4.800 C 150.800 5.533,150.533 5.600,147.600 5.600 C 144.667 5.600,144.400 5.667,144.400 6.400 C 144.400 7.111,144.133 7.200,142.000 7.200 C 139.867 7.200,139.600 7.289,139.600 8.000 C 139.600 8.711,139.333 8.800,137.200 8.800 C 135.067 8.800,134.800 8.889,134.800 9.600 C 134.800 10.311,134.533 10.400,132.400 10.400 C 130.267 10.400,130.000 10.489,130.000 11.200 C 130.000 11.911,129.733 12.000,127.600 12.000 C 125.467 12.000,125.200 12.089,125.200 12.800 C 125.200 13.511,124.933 13.600,122.800 13.600 C 120.667 13.600,120.400 13.689,120.400 14.400 C 120.400 15.067,120.133 15.200,118.800 15.200 C 117.467 15.200,117.200 15.333,117.200 16.000 C 117.200 16.667,116.933 16.800,115.600 16.800 C 114.267 16.800,114.000 16.933,114.000 17.600 C 114.000 18.267,113.733 18.400,112.400 18.400 C 111.067 18.400,110.800 18.533,110.800 19.200 C 110.800 19.867,110.533 20.000,109.200 20.000 C 107.867 20.000,107.600 20.133,107.600 20.800 C 107.600 21.467,107.333 21.600,106.000 21.600 C 104.933 21.600,104.133 21.867,103.600 22.400 C 103.160 22.840,102.440 23.200,102.000 23.200 C 101.467 23.200,101.200 23.467,101.200 24.000 C 101.200 24.652,100.933 24.800,99.763 24.800 C 98.662 24.800,98.276 24.987,98.116 25.600 C 98.000 26.043,97.570 26.400,97.153 26.400 C 96.667 26.400,96.400 26.683,96.400 27.200 C 96.400 27.867,96.133 28.000,94.800 28.000 C 93.467 28.000,93.200 28.133,93.200 28.800 C 93.200 29.322,92.933 29.600,92.433 29.600 C 91.241 29.600,90.400 30.031,90.400 30.643 C 90.400 30.970,89.988 31.200,89.400 31.200 C 88.667 31.200,88.400 31.413,88.400 32.000 C 88.400 32.652,88.133 32.800,86.963 32.800 C 85.862 32.800,85.476 32.987,85.316 33.600 C 85.200 34.043,84.770 34.400,84.353 34.400 C 83.867 34.400,83.600 34.683,83.600 35.200 C 83.600 35.733,83.333 36.000,82.800 36.000 C 82.267 36.000,82.000 36.267,82.000 36.800 C 82.000 37.442,81.733 37.600,80.647 37.600 C 79.630 37.600,79.241 37.799,79.084 38.400 C 78.959 38.879,78.538 39.200,78.037 39.200 C 77.467 39.200,77.200 39.455,77.200 40.000 C 77.200 40.533,76.933 40.800,76.400 40.800 C 75.867 40.800,75.600 41.067,75.600 41.600 C 75.600 42.242,75.333 42.400,74.247 42.400 C 73.230 42.400,72.841 42.599,72.684 43.200 C 72.559 43.679,72.138 44.000,71.637 44.000 C 71.067 44.000,70.800 44.255,70.800 44.800 C 70.800 45.333,70.533 45.600,70.000 45.600 C 69.467 45.600,69.200 45.867,69.200 46.400 C 69.200 46.933,68.933 47.200,68.400 47.200 C 67.867 47.200,67.600 47.467,67.600 48.000 C 67.600 48.533,67.333 48.800,66.800 48.800 C 66.267 48.800,66.000 49.067,66.000 49.600 C 66.000 50.097,65.733 50.400,65.296 50.400 C 64.909 50.400,64.368 50.760,64.093 51.200 C 63.818 51.640,63.326 52.000,63.000 52.000 C 62.674 52.000,62.182 52.360,61.907 52.800 C 61.632 53.240,61.091 53.600,60.704 53.600 C 60.317 53.600,60.000 53.887,60.000 54.237 C 60.000 54.588,59.640 54.969,59.200 55.084 C 58.760 55.199,58.400 55.559,58.400 55.884 C 58.400 56.209,58.040 56.569,57.600 56.684 C 57.160 56.799,56.800 57.159,56.800 57.484 C 56.800 57.809,56.440 58.169,56.000 58.284 C 55.560 58.399,55.200 58.759,55.200 59.084 C 55.200 59.409,54.840 59.769,54.400 59.884 C 53.957 60.000,53.600 60.430,53.600 60.847 C 53.600 61.261,53.324 61.600,52.987 61.600 C 52.651 61.600,52.262 61.915,52.123 62.300 C 51.985 62.685,51.541 63.322,51.136 63.716 C 50.731 64.109,50.400 64.784,50.400 65.216 C 50.400 65.733,50.128 66.000,49.600 66.000 C 49.067 66.000,48.800 66.267,48.800 66.800 C 48.800 67.333,48.533 67.600,48.000 67.600 C 47.467 67.600,47.200 67.867,47.200 68.400 C 47.200 68.933,46.933 69.200,46.400 69.200 C 45.867 69.200,45.600 69.467,45.600 70.000 C 45.600 70.533,45.333 70.800,44.800 70.800 C 44.283 70.800,44.000 71.067,44.000 71.553 C 44.000 71.970,43.643 72.400,43.200 72.516 C 42.760 72.631,42.400 73.062,42.400 73.474 C 42.400 73.885,42.040 74.530,41.600 74.907 C 41.160 75.284,40.800 75.954,40.800 76.396 C 40.800 76.933,40.535 77.200,40.000 77.200 C 39.483 77.200,39.200 77.467,39.200 77.953 C 39.200 78.370,38.843 78.800,38.400 78.916 C 37.787 79.076,37.600 79.462,37.600 80.563 C 37.600 81.733,37.452 82.000,36.800 82.000 C 36.267 82.000,36.000 82.267,36.000 82.800 C 36.000 83.333,35.733 83.600,35.200 83.600 C 34.683 83.600,34.400 83.867,34.400 84.353 C 34.400 84.770,34.043 85.200,33.600 85.316 C 32.987 85.476,32.800 85.862,32.800 86.963 C 32.800 88.133,32.652 88.400,32.000 88.400 C 31.471 88.400,31.200 88.667,31.200 89.186 C 31.200 89.618,30.840 90.165,30.400 90.400 C 29.876 90.680,29.600 91.238,29.600 92.014 C 29.600 92.933,29.420 93.200,28.800 93.200 C 28.133 93.200,28.000 93.467,28.000 94.800 C 28.000 96.133,27.867 96.400,27.200 96.400 C 26.703 96.400,26.400 96.667,26.400 97.104 C 26.400 97.491,26.040 98.032,25.600 98.307 C 25.090 98.626,24.800 99.240,24.800 100.003 C 24.800 100.933,24.622 101.200,24.000 101.200 C 23.333 101.200,23.200 101.467,23.200 102.800 C 23.200 104.133,23.067 104.400,22.400 104.400 C 21.733 104.400,21.600 104.667,21.600 106.000 C 21.600 107.333,21.467 107.600,20.800 107.600 C 20.133 107.600,20.000 107.867,20.000 109.200 C 20.000 110.533,19.867 110.800,19.200 110.800 C 18.533 110.800,18.400 111.067,18.400 112.400 C 18.400 113.733,18.267 114.000,17.600 114.000 C 16.937 114.000,16.800 114.267,16.800 115.553 C 16.800 116.770,16.627 117.152,16.000 117.316 C 15.394 117.475,15.200 117.862,15.200 118.916 C 15.200 119.970,15.006 120.357,14.400 120.516 C 13.720 120.694,13.600 121.062,13.600 122.963 C 13.600 124.933,13.505 125.200,12.800 125.200 C 12.107 125.200,12.000 125.467,12.000 127.197 C 12.000 128.760,11.826 129.302,11.200 129.693 C 10.646 130.039,10.400 130.626,10.400 131.600 C 10.400 132.574,10.154 133.161,9.600 133.507 C 8.978 133.896,8.800 134.440,8.800 135.957 C 8.800 137.570,8.662 137.943,8.000 138.116 C 7.302 138.298,7.200 138.662,7.200 140.959 C 7.200 143.160,7.068 143.675,6.400 144.093 C 5.728 144.512,5.600 145.026,5.600 147.293 C 5.600 149.560,5.472 150.073,4.800 150.493 C 4.129 150.912,4.000 151.426,4.000 153.682 C 4.000 155.962,3.878 156.437,3.200 156.800 C 2.510 157.169,2.400 157.638,2.400 160.214 C 2.400 162.667,2.257 163.343,1.600 164.000 C 0.885 164.715,0.800 165.333,0.800 169.800 C 0.800 172.867,0.645 174.800,0.400 174.800 C 0.138 174.800,0.000 183.467,0.000 200.000 C 0.000 216.533,0.138 225.200,0.400 225.200 C 0.645 225.200,0.800 227.133,0.800 230.200 C 0.800 234.667,0.885 235.285,1.600 236.000 C 2.258 236.658,2.400 237.333,2.400 239.800 C 2.400 242.267,2.542 242.942,3.200 243.600 C 3.822 244.222,4.000 244.933,4.000 246.800 C 4.000 248.667,4.178 249.378,4.800 250.000 C 5.422 250.622,5.600 251.333,5.600 253.200 C 5.600 255.067,5.778 255.778,6.400 256.400 C 7.022 257.022,7.200 257.733,7.200 259.600 C 7.200 261.733,7.289 262.000,8.000 262.000 C 8.693 262.000,8.800 262.267,8.800 263.997 C 8.800 265.560,8.974 266.102,9.600 266.493 C 10.154 266.839,10.400 267.426,10.400 268.400 C 10.400 269.374,10.646 269.961,11.200 270.307 C 11.826 270.698,12.000 271.240,12.000 272.803 C 12.000 274.533,12.107 274.800,12.800 274.800 C 13.505 274.800,13.600 275.067,13.600 277.037 C 13.600 278.938,13.720 279.306,14.400 279.484 C 15.006 279.643,15.200 280.030,15.200 281.084 C 15.200 282.138,15.394 282.525,16.000 282.684 C 16.627 282.848,16.800 283.230,16.800 284.447 C 16.800 285.733,16.937 286.000,17.600 286.000 C 18.267 286.000,18.400 286.267,18.400 287.600 C 18.400 288.933,18.533 289.200,19.200 289.200 C 19.867 289.200,20.000 289.467,20.000 290.800 C 20.000 292.133,20.133 292.400,20.800 292.400 C 21.467 292.400,21.600 292.667,21.600 294.000 C 21.600 295.333,21.733 295.600,22.400 295.600 C 23.067 295.600,23.200 295.867,23.200 297.200 C 23.200 298.533,23.333 298.800,24.000 298.800 C 24.622 298.800,24.800 299.067,24.800 299.997 C 24.800 300.760,25.090 301.374,25.600 301.693 C 26.040 301.968,26.400 302.509,26.400 302.896 C 26.400 303.333,26.703 303.600,27.200 303.600 C 27.867 303.600,28.000 303.867,28.000 305.200 C 28.000 306.533,28.133 306.800,28.800 306.800 C 29.420 306.800,29.600 307.067,29.600 307.986 C 29.600 308.762,29.876 309.320,30.400 309.600 C 30.840 309.835,31.200 310.382,31.200 310.814 C 31.200 311.333,31.471 311.600,32.000 311.600 C 32.652 311.600,32.800 311.867,32.800 313.037 C 32.800 314.138,32.987 314.524,33.600 314.684 C 34.043 314.800,34.400 315.230,34.400 315.647 C 34.400 316.133,34.683 316.400,35.200 316.400 C 35.733 316.400,36.000 316.667,36.000 317.200 C 36.000 317.733,36.267 318.000,36.800 318.000 C 37.452 318.000,37.600 318.267,37.600 319.437 C 37.600 320.538,37.787 320.924,38.400 321.084 C 38.843 321.200,39.200 321.630,39.200 322.047 C 39.200 322.533,39.483 322.800,40.000 322.800 C 40.535 322.800,40.800 323.067,40.800 323.604 C 40.800 324.046,41.160 324.716,41.600 325.093 C 42.040 325.470,42.400 326.115,42.400 326.526 C 42.400 326.938,42.760 327.369,43.200 327.484 C 43.643 327.600,44.000 328.030,44.000 328.447 C 44.000 328.933,44.283 329.200,44.800 329.200 C 45.333 329.200,45.600 329.467,45.600 330.000 C 45.600 330.533,45.867 330.800,46.400 330.800 C 46.933 330.800,47.200 331.067,47.200 331.600 C 47.200 332.133,47.467 332.400,48.000 332.400 C 48.533 332.400,48.800 332.667,48.800 333.200 C 48.800 333.733,49.067 334.000,49.600 334.000 C 50.128 334.000,50.400 334.267,50.400 334.784 C 50.400 335.216,50.731 335.891,51.136 336.284 C 51.541 336.678,51.985 337.315,52.123 337.700 C 52.262 338.085,52.651 338.400,52.987 338.400 C 53.324 338.400,53.600 338.739,53.600 339.153 C 53.600 339.570,53.957 340.000,54.400 340.116 C 54.840 340.231,55.200 340.612,55.200 340.963 C 55.200 341.313,55.474 341.600,55.810 341.600 C 56.145 341.600,56.591 342.050,56.800 342.600 C 57.009 343.150,57.455 343.600,57.790 343.600 C 58.126 343.600,58.400 343.858,58.400 344.173 C 58.400 344.488,58.760 344.860,59.200 345.000 C 59.640 345.140,60.000 345.512,60.000 345.827 C 60.000 346.142,60.360 346.400,60.800 346.400 C 61.256 346.400,61.600 346.667,61.600 347.021 C 61.600 347.362,62.144 347.831,62.808 348.063 C 63.473 348.295,64.199 348.825,64.423 349.242 C 64.646 349.659,65.092 350.000,65.414 350.000 C 65.736 350.000,66.000 350.270,66.000 350.600 C 66.000 350.933,66.356 351.200,66.800 351.200 C 67.333 351.200,67.600 351.467,67.600 352.000 C 67.600 352.533,67.867 352.800,68.400 352.800 C 68.933 352.800,69.200 353.067,69.200 353.600 C 69.200 354.133,69.467 354.400,70.000 354.400 C 70.533 354.400,70.800 354.667,70.800 355.200 C 70.800 355.717,71.067 356.000,71.553 356.000 C 71.970 356.000,72.400 356.357,72.516 356.800 C 72.631 357.240,73.059 357.600,73.466 357.600 C 73.874 357.600,74.432 357.960,74.707 358.400 C 74.990 358.852,75.640 359.200,76.203 359.200 C 76.933 359.200,77.200 359.414,77.200 360.000 C 77.200 360.517,77.467 360.800,77.953 360.800 C 78.370 360.800,78.800 361.157,78.916 361.600 C 79.076 362.213,79.462 362.400,80.563 362.400 C 81.733 362.400,82.000 362.548,82.000 363.200 C 82.000 363.733,82.267 364.000,82.800 364.000 C 83.333 364.000,83.600 364.267,83.600 364.800 C 83.600 365.376,83.867 365.600,84.553 365.600 C 85.170 365.600,85.581 365.882,85.716 366.400 C 85.868 366.983,86.262 367.200,87.163 367.200 C 88.133 367.200,88.400 367.372,88.400 368.000 C 88.400 368.622,88.667 368.800,89.597 368.800 C 90.360 368.800,90.974 369.090,91.293 369.600 C 91.568 370.040,92.088 370.400,92.450 370.400 C 92.811 370.400,93.201 370.760,93.316 371.200 C 93.476 371.813,93.862 372.000,94.963 372.000 C 96.133 372.000,96.400 372.148,96.400 372.800 C 96.400 373.422,96.667 373.600,97.597 373.600 C 98.360 373.600,98.974 373.890,99.293 374.400 C 99.568 374.840,100.088 375.200,100.450 375.200 C 100.811 375.200,101.201 375.560,101.316 376.000 C 101.476 376.613,101.862 376.800,102.963 376.800 C 104.133 376.800,104.400 376.948,104.400 377.600 C 104.400 378.267,104.667 378.400,106.000 378.400 C 107.333 378.400,107.600 378.533,107.600 379.200 C 107.600 379.867,107.867 380.000,109.200 380.000 C 110.533 380.000,110.800 380.133,110.800 380.800 C 110.800 381.467,111.067 381.600,112.400 381.600 C 113.733 381.600,114.000 381.733,114.000 382.400 C 114.000 383.067,114.267 383.200,115.600 383.200 C 116.933 383.200,117.200 383.333,117.200 384.000 C 117.200 384.667,117.467 384.800,118.800 384.800 C 120.133 384.800,120.400 384.933,120.400 385.600 C 120.400 386.311,120.667 386.400,122.800 386.400 C 124.933 386.400,125.200 386.489,125.200 387.200 C 125.200 387.848,125.467 388.000,126.600 388.000 C 127.467 388.000,128.305 388.305,128.800 388.800 C 129.357 389.357,130.133 389.600,131.353 389.600 C 132.770 389.600,133.147 389.753,133.316 390.400 C 133.494 391.080,133.862 391.200,135.763 391.200 C 137.733 391.200,138.000 391.295,138.000 392.000 C 138.000 392.711,138.267 392.800,140.400 392.800 C 142.533 392.800,142.800 392.889,142.800 393.600 C 142.800 394.332,143.067 394.400,145.953 394.400 C 148.770 394.400,149.129 394.485,149.316 395.200 C 149.506 395.927,149.862 396.000,153.200 396.000 C 156.538 396.000,156.894 396.073,157.084 396.800 C 157.275 397.528,157.630 397.600,161.047 397.600 C 164.267 397.600,164.914 397.714,165.600 398.400 C 166.324 399.124,166.933 399.200,172.000 399.200 C 175.467 399.200,177.600 399.352,177.600 399.600 C 177.600 399.862,185.333 400.000,200.000 400.000 C 214.667 400.000,222.400 399.862,222.400 399.600 C 222.400 399.352,224.533 399.200,228.000 399.200 C 233.067 399.200,233.676 399.124,234.400 398.400 C 235.089 397.711,235.733 397.600,239.037 397.600 C 242.538 397.600,242.893 397.530,243.084 396.800 C 243.274 396.075,243.630 396.000,246.884 396.000 C 250.138 396.000,250.494 395.925,250.684 395.200 C 250.871 394.485,251.230 394.400,254.047 394.400 C 256.933 394.400,257.200 394.332,257.200 393.600 C 257.200 392.889,257.467 392.800,259.600 392.800 C 261.733 392.800,262.000 392.711,262.000 392.000 C 262.000 391.295,262.267 391.200,264.237 391.200 C 266.138 391.200,266.506 391.080,266.684 390.400 C 266.853 389.753,267.230 389.600,268.647 389.600 C 269.867 389.600,270.643 389.357,271.200 388.800 C 271.695 388.305,272.533 388.000,273.400 388.000 C 274.533 388.000,274.800 387.848,274.800 387.200 C 274.800 386.489,275.067 386.400,277.200 386.400 C 279.333 386.400,279.600 386.311,279.600 385.600 C 279.600 384.933,279.867 384.800,281.200 384.800 C 282.533 384.800,282.800 384.667,282.800 384.000 C 282.800 383.333,283.067 383.200,284.400 383.200 C 285.733 383.200,286.000 383.067,286.000 382.400 C 286.000 381.733,286.267 381.600,287.600 381.600 C 288.933 381.600,289.200 381.467,289.200 380.800 C 289.200 380.133,289.467 380.000,290.800 380.000 C 292.133 380.000,292.400 379.867,292.400 379.200 C 292.400 378.533,292.667 378.400,294.000 378.400 C 295.333 378.400,295.600 378.267,295.600 377.600 C 295.600 376.948,295.867 376.800,297.037 376.800 C 298.138 376.800,298.524 376.613,298.684 376.000 C 298.799 375.560,299.189 375.200,299.550 375.200 C 299.912 375.200,300.432 374.840,300.707 374.400 C 301.026 373.890,301.640 373.600,302.403 373.600 C 303.333 373.600,303.600 373.422,303.600 372.800 C 303.600 372.148,303.867 372.000,305.037 372.000 C 306.138 372.000,306.524 371.813,306.684 371.200 C 306.799 370.760,307.189 370.400,307.550 370.400 C 307.912 370.400,308.432 370.040,308.707 369.600 C 309.026 369.090,309.640 368.800,310.403 368.800 C 311.333 368.800,311.600 368.622,311.600 368.000 C 311.600 367.372,311.867 367.200,312.837 367.200 C 313.738 367.200,314.132 366.983,314.284 366.400 C 314.419 365.882,314.830 365.600,315.447 365.600 C 316.133 365.600,316.400 365.376,316.400 364.800 C 316.400 364.267,316.667 364.000,317.200 364.000 C 317.733 364.000,318.000 363.733,318.000 363.200 C 318.000 362.548,318.267 362.400,319.437 362.400 C 320.538 362.400,320.924 362.213,321.084 361.600 C 321.200 361.157,321.630 360.800,322.047 360.800 C 322.533 360.800,322.800 360.517,322.800 360.000 C 322.800 359.414,323.067 359.200,323.797 359.200 C 324.360 359.200,325.010 358.852,325.293 358.400 C 325.568 357.960,326.126 357.600,326.534 357.600 C 326.941 357.600,327.369 357.240,327.484 356.800 C 327.600 356.357,328.030 356.000,328.447 356.000 C 328.933 356.000,329.200 355.717,329.200 355.200 C 329.200 354.667,329.467 354.400,330.000 354.400 C 330.533 354.400,330.800 354.133,330.800 353.600 C 330.800 353.067,331.067 352.800,331.600 352.800 C 332.133 352.800,332.400 352.533,332.400 352.000 C 332.400 351.467,332.667 351.200,333.200 351.200 C 333.644 351.200,334.000 350.933,334.000 350.600 C 334.000 350.270,334.204 350.000,334.454 350.000 C 334.704 350.000,335.320 349.595,335.823 349.100 C 337.190 347.756,339.069 346.400,339.563 346.400 C 339.803 346.400,340.000 346.130,340.000 345.800 C 340.000 345.470,340.162 345.200,340.360 345.200 C 340.829 345.200,343.600 342.429,343.600 341.960 C 343.600 341.762,343.870 341.600,344.200 341.600 C 344.530 341.600,344.800 341.313,344.800 340.963 C 344.800 340.612,345.160 340.231,345.600 340.116 C 346.040 340.001,346.400 339.664,346.400 339.367 C 346.400 339.071,346.745 338.643,347.167 338.417 C 347.590 338.191,348.050 337.483,348.190 336.844 C 348.339 336.167,348.770 335.596,349.223 335.478 C 349.650 335.366,350.000 334.988,350.000 334.637 C 350.000 334.287,350.270 334.000,350.600 334.000 C 350.933 334.000,351.200 333.644,351.200 333.200 C 351.200 332.667,351.467 332.400,352.000 332.400 C 352.533 332.400,352.800 332.133,352.800 331.600 C 352.800 331.067,353.067 330.800,353.600 330.800 C 354.133 330.800,354.400 330.533,354.400 330.000 C 354.400 329.467,354.667 329.200,355.200 329.200 C 355.717 329.200,356.000 328.933,356.000 328.447 C 356.000 328.030,356.357 327.600,356.800 327.484 C 357.413 327.324,357.600 326.938,357.600 325.837 C 357.600 324.667,357.748 324.400,358.400 324.400 C 358.933 324.400,359.200 324.133,359.200 323.600 C 359.200 323.067,359.467 322.800,360.000 322.800 C 360.517 322.800,360.800 322.533,360.800 322.047 C 360.800 321.630,361.157 321.200,361.600 321.084 C 362.213 320.924,362.400 320.538,362.400 319.437 C 362.400 318.267,362.548 318.000,363.200 318.000 C 363.733 318.000,364.000 317.733,364.000 317.200 C 364.000 316.667,364.267 316.400,364.800 316.400 C 365.317 316.400,365.600 316.133,365.600 315.647 C 365.600 315.230,365.957 314.800,366.400 314.684 C 367.013 314.524,367.200 314.138,367.200 313.037 C 367.200 311.867,367.348 311.600,368.000 311.600 C 368.529 311.600,368.800 311.333,368.800 310.814 C 368.800 310.382,369.160 309.835,369.600 309.600 C 370.124 309.320,370.400 308.762,370.400 307.986 C 370.400 307.067,370.580 306.800,371.200 306.800 C 371.867 306.800,372.000 306.533,372.000 305.200 C 372.000 303.867,372.133 303.600,372.800 303.600 C 373.297 303.600,373.600 303.333,373.600 302.896 C 373.600 302.509,373.960 301.968,374.400 301.693 C 374.910 301.374,375.200 300.760,375.200 299.997 C 375.200 299.067,375.378 298.800,376.000 298.800 C 376.667 298.800,376.800 298.533,376.800 297.200 C 376.800 295.867,376.933 295.600,377.600 295.600 C 378.267 295.600,378.400 295.333,378.400 294.000 C 378.400 292.667,378.533 292.400,379.200 292.400 C 379.867 292.400,380.000 292.133,380.000 290.800 C 380.000 289.467,380.133 289.200,380.800 289.200 C 381.467 289.200,381.600 288.933,381.600 287.600 C 381.600 286.267,381.733 286.000,382.400 286.000 C 383.063 286.000,383.200 285.733,383.200 284.447 C 383.200 283.230,383.373 282.848,384.000 282.684 C 384.606 282.525,384.800 282.138,384.800 281.084 C 384.800 280.030,384.994 279.643,385.600 279.484 C 386.280 279.306,386.400 278.938,386.400 277.037 C 386.400 275.067,386.495 274.800,387.200 274.800 C 387.893 274.800,388.000 274.533,388.000 272.803 C 388.000 271.240,388.174 270.698,388.800 270.307 C 389.354 269.961,389.600 269.374,389.600 268.400 C 389.600 267.426,389.846 266.839,390.400 266.493 C 391.026 266.102,391.200 265.560,391.200 263.997 C 391.200 262.267,391.307 262.000,392.000 262.000 C 392.724 262.000,392.800 261.733,392.800 259.203 C 392.800 256.840,392.924 256.329,393.600 255.907 C 394.271 255.488,394.400 254.974,394.400 252.718 C 394.400 250.438,394.522 249.963,395.200 249.600 C 395.882 249.235,396.000 248.762,396.000 246.400 C 396.000 244.038,396.118 243.565,396.800 243.200 C 397.513 242.818,397.600 242.362,397.600 239.013 C 397.600 235.605,397.675 235.230,398.400 235.000 C 399.141 234.765,399.200 234.395,399.200 229.973 C 399.200 227.058,399.356 225.200,399.600 225.200 C 399.862 225.200,400.000 216.533,400.000 200.000 C 400.000 183.467,399.862 174.800,399.600 174.800 C 399.356 174.800,399.200 172.942,399.200 170.027 C 399.200 165.605,399.141 165.235,398.400 165.000 C 397.674 164.770,397.600 164.395,397.600 160.973 C 397.600 157.733,397.487 157.087,396.800 156.400 C 396.178 155.778,396.000 155.067,396.000 153.200 C 396.000 151.333,395.822 150.622,395.200 150.000 C 394.578 149.378,394.400 148.667,394.400 146.800 C 394.400 144.933,394.222 144.222,393.600 143.600 C 392.991 142.991,392.800 142.267,392.800 140.563 C 392.800 138.662,392.680 138.294,392.000 138.116 C 391.338 137.943,391.200 137.570,391.200 135.957 C 391.200 134.440,391.022 133.896,390.400 133.507 C 389.846 133.161,389.600 132.574,389.600 131.600 C 389.600 130.626,389.354 130.039,388.800 129.693 C 388.174 129.302,388.000 128.760,388.000 127.197 C 388.000 125.467,387.893 125.200,387.200 125.200 C 386.495 125.200,386.400 124.933,386.400 122.963 C 386.400 121.062,386.280 120.694,385.600 120.516 C 384.994 120.357,384.800 119.970,384.800 118.916 C 384.800 117.862,384.606 117.475,384.000 117.316 C 383.373 117.152,383.200 116.770,383.200 115.553 C 383.200 114.267,383.063 114.000,382.400 114.000 C 381.733 114.000,381.600 113.733,381.600 112.400 C 381.600 111.067,381.467 110.800,380.800 110.800 C 380.133 110.800,380.000 110.533,380.000 109.200 C 380.000 107.867,379.867 107.600,379.200 107.600 C 378.533 107.600,378.400 107.333,378.400 106.000 C 378.400 104.667,378.267 104.400,377.600 104.400 C 376.933 104.400,376.800 104.133,376.800 102.800 C 376.800 101.467,376.667 101.200,376.000 101.200 C 375.378 101.200,375.200 100.933,375.200 100.003 C 375.200 99.240,374.910 98.626,374.400 98.307 C 373.960 98.032,373.600 97.491,373.600 97.104 C 373.600 96.667,373.297 96.400,372.800 96.400 C 372.133 96.400,372.000 96.133,372.000 94.800 C 372.000 93.467,371.867 93.200,371.200 93.200 C 370.580 93.200,370.400 92.933,370.400 92.014 C 370.400 91.238,370.124 90.680,369.600 90.400 C 369.160 90.165,368.800 89.618,368.800 89.186 C 368.800 88.667,368.529 88.400,368.000 88.400 C 367.348 88.400,367.200 88.133,367.200 86.963 C 367.200 85.862,367.013 85.476,366.400 85.316 C 365.957 85.200,365.600 84.770,365.600 84.353 C 365.600 83.867,365.317 83.600,364.800 83.600 C 364.267 83.600,364.000 83.333,364.000 82.800 C 364.000 82.267,363.733 82.000,363.200 82.000 C 362.548 82.000,362.400 81.733,362.400 80.563 C 362.400 79.462,362.213 79.076,361.600 78.916 C 361.157 78.800,360.800 78.370,360.800 77.953 C 360.800 77.467,360.517 77.200,360.000 77.200 C 359.465 77.200,359.200 76.933,359.200 76.396 C 359.200 75.954,358.840 75.284,358.400 74.907 C 357.960 74.530,357.600 73.885,357.600 73.474 C 357.600 73.062,357.240 72.631,356.800 72.516 C 356.357 72.400,356.000 71.970,356.000 71.553 C 356.000 71.067,355.717 70.800,355.200 70.800 C 354.667 70.800,354.400 70.533,354.400 70.000 C 354.400 69.467,354.133 69.200,353.600 69.200 C 353.067 69.200,352.800 68.933,352.800 68.400 C 352.800 67.867,352.533 67.600,352.000 67.600 C 351.467 67.600,351.200 67.333,351.200 66.800 C 351.200 66.356,350.933 66.000,350.600 66.000 C 350.270 66.000,350.000 65.755,350.000 65.455 C 350.000 65.155,349.581 64.480,349.068 63.955 C 348.556 63.430,348.021 62.685,347.881 62.300 C 347.740 61.915,347.349 61.600,347.013 61.600 C 346.667 61.600,346.400 61.252,346.400 60.800 C 346.400 60.335,346.133 60.000,345.763 60.000 C 345.412 60.000,345.031 59.640,344.916 59.200 C 344.801 58.760,344.470 58.400,344.180 58.400 C 343.891 58.400,343.540 58.040,343.400 57.600 C 343.260 57.160,342.900 56.800,342.600 56.800 C 342.300 56.800,341.940 56.440,341.800 56.000 C 341.660 55.560,341.271 55.200,340.936 55.200 C 340.600 55.200,340.231 54.840,340.116 54.400 C 340.001 53.960,339.589 53.600,339.200 53.600 C 338.811 53.600,338.399 53.240,338.284 52.800 C 338.132 52.217,337.738 52.000,336.837 52.000 C 335.867 52.000,335.600 51.828,335.600 51.200 C 335.600 50.667,335.333 50.400,334.800 50.400 C 334.267 50.400,334.000 50.133,334.000 49.600 C 334.000 49.067,333.733 48.800,333.200 48.800 C 332.667 48.800,332.400 48.533,332.400 48.000 C 332.400 47.467,332.133 47.200,331.600 47.200 C 331.067 47.200,330.800 46.933,330.800 46.400 C 330.800 45.867,330.533 45.600,330.000 45.600 C 329.467 45.600,329.200 45.333,329.200 44.800 C 329.200 44.213,328.933 44.000,328.200 44.000 C 327.467 44.000,327.200 43.787,327.200 43.200 C 327.200 42.552,326.933 42.400,325.800 42.400 C 324.667 42.400,324.400 42.248,324.400 41.600 C 324.400 41.067,324.133 40.800,323.600 40.800 C 323.067 40.800,322.800 40.533,322.800 40.000 C 322.800 39.455,322.533 39.200,321.963 39.200 C 321.462 39.200,321.041 38.879,320.916 38.400 C 320.759 37.799,320.370 37.600,319.353 37.600 C 318.267 37.600,318.000 37.442,318.000 36.800 C 318.000 36.267,317.733 36.000,317.200 36.000 C 316.667 36.000,316.400 35.733,316.400 35.200 C 316.400 34.683,316.133 34.400,315.647 34.400 C 315.230 34.400,314.800 34.043,314.684 33.600 C 314.524 32.987,314.138 32.800,313.037 32.800 C 311.867 32.800,311.600 32.652,311.600 32.000 C 311.600 31.434,311.333 31.200,310.689 31.200 C 310.188 31.200,309.470 30.840,309.093 30.400 C 308.716 29.960,308.046 29.600,307.604 29.600 C 307.067 29.600,306.800 29.335,306.800 28.800 C 306.800 28.133,306.533 28.000,305.200 28.000 C 303.867 28.000,303.600 27.867,303.600 27.200 C 303.600 26.683,303.333 26.400,302.847 26.400 C 302.430 26.400,302.000 26.043,301.884 25.600 C 301.724 24.987,301.338 24.800,300.237 24.800 C 299.067 24.800,298.800 24.652,298.800 24.000 C 298.800 23.467,298.533 23.200,298.000 23.200 C 297.560 23.200,296.840 22.840,296.400 22.400 C 295.867 21.867,295.067 21.600,294.000 21.600 C 292.667 21.600,292.400 21.467,292.400 20.800 C 292.400 20.133,292.133 20.000,290.800 20.000 C 289.467 20.000,289.200 19.867,289.200 19.200 C 289.200 18.533,288.933 18.400,287.600 18.400 C 286.267 18.400,286.000 18.267,286.000 17.600 C 286.000 16.933,285.733 16.800,284.400 16.800 C 283.067 16.800,282.800 16.667,282.800 16.000 C 282.800 15.333,282.533 15.200,281.200 15.200 C 279.867 15.200,279.600 15.067,279.600 14.400 C 279.600 13.689,279.333 13.600,277.200 13.600 C 275.067 13.600,274.800 13.511,274.800 12.800 C 274.800 12.089,274.533 12.000,272.400 12.000 C 270.267 12.000,270.000 11.911,270.000 11.200 C 270.000 10.489,269.733 10.400,267.600 10.400 C 265.467 10.400,265.200 10.311,265.200 9.600 C 265.200 8.889,264.933 8.800,262.800 8.800 C 260.667 8.800,260.400 8.711,260.400 8.000 C 260.400 7.289,260.133 7.200,258.000 7.200 C 255.867 7.200,255.600 7.111,255.600 6.400 C 255.600 5.672,255.333 5.600,252.627 5.600 C 250.005 5.600,249.624 5.505,249.400 4.800 C 249.176 4.095,248.795 4.000,246.200 4.000 C 243.605 4.000,243.224 3.905,243.000 3.200 C 242.769 2.474,242.395 2.400,238.936 2.400 C 235.462 2.400,235.107 2.329,234.916 1.600 C 234.722 0.859,234.370 0.800,230.153 0.800 C 227.384 0.800,225.600 0.643,225.600 0.400 C 225.600 0.138,216.800 0.000,200.000 0.000 C 183.200 0.000,174.400 0.138,174.400 0.400 M107.400 125.590 C 120.219 127.498,129.794 137.141,131.196 149.555 C 131.429 151.619,131.718 153.467,131.837 153.659 C 131.956 153.852,132.118 163.008,132.198 174.007 C 132.368 197.457,132.367 197.448,134.656 202.290 C 137.358 208.006,136.928 210.341,132.600 213.465 C 126.095 218.159,123.220 218.263,119.547 213.937 C 117.958 212.066,117.544 211.433,116.109 208.685 C 115.503 207.526,114.326 207.488,113.402 208.599 C 103.744 220.198,79.659 222.590,67.730 213.136 C 59.068 206.271,55.496 189.154,60.815 180.000 C 61.007 179.670,61.720 178.443,62.401 177.273 C 64.211 174.159,68.921 169.593,72.200 167.772 C 81.453 162.633,90.989 161.686,107.494 164.268 C 113.114 165.147,112.906 165.397,112.735 157.982 C 112.655 154.518,112.419 151.892,112.158 151.561 C 111.915 151.252,111.511 150.392,111.261 149.648 C 110.480 147.329,107.669 144.305,105.223 143.152 C 101.539 141.415,90.492 140.905,84.894 142.214 C 80.629 143.212,77.006 144.302,75.800 144.950 C 75.140 145.305,74.330 145.602,74.000 145.611 C 73.670 145.620,72.680 145.975,71.800 146.400 C 66.301 149.056,64.068 146.721,64.506 138.772 C 64.844 132.631,66.444 131.289,77.600 127.790 C 78.810 127.410,80.700 126.768,81.800 126.364 C 85.616 124.960,100.205 124.519,107.400 125.590 M308.414 125.576 C 310.072 125.787,311.962 126.237,312.614 126.577 C 313.266 126.917,314.340 127.197,315.000 127.200 C 315.660 127.203,316.650 127.436,317.200 127.718 C 317.750 128.000,319.056 128.554,320.103 128.950 C 324.356 130.556,326.000 133.302,326.000 138.800 C 326.000 145.255,323.486 147.366,318.794 144.853 C 318.027 144.443,316.770 143.973,316.000 143.809 C 315.230 143.645,314.327 143.271,313.993 142.978 C 311.386 140.688,293.858 140.393,289.600 142.569 C 285.876 144.471,284.270 146.426,283.799 149.628 C 283.267 153.251,285.397 156.884,289.047 158.580 C 289.901 158.977,290.870 159.532,291.200 159.814 C 291.530 160.095,292.610 160.540,293.600 160.802 C 294.590 161.064,295.580 161.422,295.800 161.597 C 296.020 161.772,297.190 162.186,298.400 162.518 C 305.347 164.419,310.948 166.260,313.800 167.579 C 320.582 170.716,321.047 171.010,324.085 174.087 C 329.519 179.592,331.094 184.496,330.547 194.200 C 330.377 197.210,330.074 199.042,329.588 200.000 C 329.198 200.770,328.389 202.390,327.790 203.600 C 326.542 206.121,323.222 210.217,321.276 211.635 C 320.548 212.166,319.709 212.822,319.411 213.093 C 315.161 216.970,299.284 220.648,291.400 219.583 C 279.175 217.931,277.114 217.530,272.892 215.979 C 269.264 214.647,267.002 213.321,265.475 211.630 L 264.000 209.998 264.000 205.232 C 264.000 199.759,264.093 199.379,265.629 198.585 C 267.636 197.547,268.832 197.752,276.000 200.361 C 289.897 205.419,304.284 204.492,309.940 198.173 C 313.590 194.095,312.653 188.488,307.761 185.127 C 305.324 183.453,296.485 180.159,291.231 178.966 C 289.818 178.646,288.468 178.233,288.231 178.049 C 287.994 177.866,286.942 177.506,285.892 177.250 C 276.291 174.908,267.057 166.137,265.570 157.948 C 262.832 142.866,269.305 132.691,285.600 126.460 C 289.634 124.917,300.043 124.514,308.414 125.576 M153.981 127.456 C 157.115 128.083,158.246 130.289,160.619 140.400 C 161.213 142.930,161.837 145.180,162.006 145.400 C 162.175 145.620,162.532 146.880,162.800 148.200 C 163.068 149.520,163.459 150.813,163.670 151.073 C 163.880 151.333,164.224 152.773,164.434 154.273 C 164.644 155.773,165.077 157.557,165.397 158.238 C 165.717 158.918,166.098 160.538,166.245 161.838 C 166.391 163.137,166.741 164.657,167.022 165.215 C 167.303 165.774,167.708 167.124,167.922 168.215 C 168.136 169.307,168.803 172.000,169.404 174.200 C 170.004 176.400,170.723 179.190,171.002 180.400 C 171.280 181.610,171.799 183.673,172.154 184.984 C 172.509 186.295,172.800 187.634,172.800 187.958 C 172.800 188.283,173.204 188.978,173.698 189.504 L 174.595 190.460 175.056 187.730 C 175.978 182.258,177.760 174.695,178.808 171.800 C 179.207 170.700,179.655 168.900,179.804 167.800 C 179.954 166.700,180.314 165.228,180.606 164.529 C 180.897 163.829,181.250 162.209,181.391 160.929 C 181.532 159.648,181.895 157.880,182.199 157.000 C 182.502 156.120,183.211 153.330,183.774 150.800 C 184.336 148.270,185.268 144.220,185.844 141.800 C 186.420 139.380,187.145 136.259,187.456 134.864 C 188.956 128.128,190.084 127.400,199.031 127.400 L 205.862 127.400 207.335 128.523 C 209.213 129.956,210.261 132.023,210.791 135.345 C 211.023 136.794,211.383 138.429,211.592 138.979 C 211.801 139.528,212.435 142.098,213.002 144.689 C 213.568 147.280,214.465 151.290,214.995 153.600 C 215.525 155.910,216.235 159.288,216.572 161.106 C 216.909 162.924,217.435 164.904,217.741 165.506 C 218.046 166.108,218.419 167.500,218.569 168.600 C 218.719 169.700,219.182 171.680,219.598 173.000 C 220.575 176.104,221.890 181.361,222.197 183.400 C 223.193 189.996,224.908 191.213,226.143 186.200 C 226.468 184.880,227.402 181.280,228.217 178.200 C 229.032 175.120,229.921 171.610,230.192 170.400 C 230.463 169.190,230.980 167.182,231.342 165.938 C 231.704 164.695,232.000 163.216,232.000 162.653 C 232.000 162.091,232.349 160.678,232.776 159.515 C 233.202 158.352,233.741 156.340,233.972 155.045 C 234.204 153.750,234.567 152.481,234.779 152.225 C 234.991 151.970,235.282 150.959,235.425 149.980 C 235.568 149.001,236.107 146.850,236.622 145.200 C 237.137 143.550,238.120 140.040,238.806 137.400 C 241.340 127.652,242.021 127.087,250.997 127.271 L 257.268 127.400 258.434 128.706 C 260.013 130.476,259.893 132.696,257.870 139.132 C 257.547 140.159,256.916 142.260,256.467 143.800 C 256.019 145.340,255.360 147.500,255.003 148.600 C 254.647 149.700,254.180 151.294,253.966 152.142 C 253.752 152.990,253.334 154.160,253.037 154.742 C 252.740 155.324,252.290 156.778,252.037 157.973 C 251.784 159.168,251.378 160.385,251.135 160.679 C 250.891 160.972,250.456 162.154,250.167 163.306 C 249.407 166.335,246.165 177.390,245.213 180.200 C 244.766 181.520,244.394 182.870,244.386 183.200 C 244.379 183.530,244.025 184.520,243.600 185.400 C 243.175 186.280,242.817 187.360,242.805 187.800 C 242.792 188.240,242.446 189.341,242.035 190.246 C 241.624 191.152,241.168 192.502,241.022 193.246 C 240.876 193.991,240.510 195.230,240.207 196.000 C 239.905 196.770,238.926 199.830,238.033 202.800 C 233.684 217.258,233.739 217.202,224.174 217.198 C 216.177 217.195,214.244 216.371,213.228 212.533 C 212.986 211.617,212.521 210.357,212.196 209.733 C 211.871 209.110,211.606 208.150,211.608 207.600 C 211.610 207.050,211.268 205.430,210.849 204.000 C 209.589 199.706,208.467 195.003,206.830 187.155 C 205.976 183.060,204.990 179.154,204.639 178.475 C 204.287 177.795,204.000 176.685,204.000 176.007 C 204.000 175.329,203.655 173.745,203.234 172.487 C 202.813 171.229,202.280 169.169,202.050 167.910 C 201.819 166.650,201.367 165.109,201.044 164.485 C 200.721 163.860,200.333 162.257,200.182 160.922 C 200.031 159.587,199.601 157.800,199.227 156.952 L 198.546 155.410 197.837 158.005 C 197.448 159.432,196.943 161.500,196.715 162.600 C 196.488 163.700,195.890 166.040,195.387 167.800 C 194.883 169.560,193.988 173.160,193.398 175.800 C 192.808 178.440,192.068 181.590,191.755 182.800 C 191.441 184.010,190.915 186.439,190.584 188.197 C 190.254 189.956,189.794 192.026,189.562 192.797 C 188.837 195.212,187.575 200.475,186.972 203.600 C 186.653 205.250,186.139 207.140,185.830 207.800 C 185.520 208.460,185.137 209.720,184.979 210.600 C 184.037 215.849,182.196 216.956,174.100 217.136 C 164.549 217.349,164.331 217.173,160.760 206.318 C 159.682 203.041,158.800 200.120,158.800 199.826 C 158.800 199.532,158.531 198.776,158.202 198.146 C 157.873 197.516,157.498 196.370,157.367 195.600 C 157.237 194.830,156.804 193.300,156.407 192.200 C 156.009 191.100,155.498 189.480,155.272 188.600 C 155.045 187.720,154.194 184.840,153.380 182.200 C 150.754 173.686,150.336 172.241,149.790 169.797 C 149.494 168.475,148.972 166.855,148.629 166.197 C 148.286 165.538,148.004 164.547,148.002 163.994 C 148.001 163.441,147.663 162.360,147.252 161.592 C 146.840 160.824,146.374 159.433,146.217 158.500 C 146.059 157.567,145.784 156.714,145.605 156.603 C 145.427 156.493,145.068 155.457,144.809 154.301 C 144.550 153.146,144.008 151.390,143.605 150.400 C 143.202 149.410,142.316 146.335,141.637 143.567 C 140.958 140.798,140.042 137.485,139.601 136.204 C 138.085 131.796,138.835 127.959,141.308 127.481 C 142.770 127.199,152.597 127.179,153.981 127.456 M92.000 177.556 C 90.570 177.698,89.040 178.016,88.600 178.261 C 88.160 178.506,87.009 178.838,86.041 178.999 C 78.744 180.208,75.789 194.998,81.748 200.486 C 86.428 204.796,96.475 204.452,104.770 199.698 C 110.087 196.652,112.599 191.685,112.599 184.217 L 112.600 179.435 111.400 179.156 C 104.595 177.574,97.603 176.998,92.000 177.556 M337.178 236.701 C 343.134 238.820,343.923 240.501,343.498 250.172 C 343.291 254.889,341.935 261.364,340.602 264.000 C 340.324 264.550,339.964 265.614,339.802 266.365 C 339.074 269.743,332.980 281.082,329.679 285.200 C 320.282 296.925,313.428 293.184,319.787 279.800 C 321.913 275.326,323.199 271.596,323.202 269.898 C 323.204 269.184,323.491 268.060,323.841 267.400 C 325.977 263.367,327.328 254.460,326.094 252.544 C 324.576 250.187,310.528 249.055,300.200 250.457 C 286.249 252.351,281.136 249.025,288.897 243.106 C 291.185 241.361,298.022 238.567,304.000 236.934 C 305.210 236.603,307.100 236.084,308.200 235.781 C 309.749 235.353,312.859 235.259,322.000 235.364 L 333.800 235.500 337.178 236.701 M57.282 243.734 C 58.447 244.505,60.660 245.803,62.200 246.619 C 69.300 250.381,70.944 251.200,71.396 251.200 C 71.663 251.200,72.673 251.620,73.640 252.134 C 74.608 252.648,76.660 253.568,78.200 254.179 C 79.740 254.790,82.648 256.072,84.663 257.028 C 86.678 257.984,88.838 258.888,89.463 259.037 C 90.770 259.348,94.925 260.974,96.400 261.753 C 97.513 262.340,99.869 263.133,108.400 265.791 C 111.590 266.785,114.830 267.852,115.600 268.163 C 116.370 268.473,118.800 269.134,121.000 269.632 C 123.200 270.129,125.720 270.796,126.600 271.113 C 130.039 272.356,151.022 276.249,158.400 277.014 C 159.610 277.139,162.220 277.493,164.200 277.801 C 184.008 280.874,208.115 280.663,233.800 277.193 C 237.100 276.747,241.060 276.214,242.600 276.009 C 247.932 275.298,251.015 274.781,254.400 274.030 C 256.270 273.615,259.240 272.976,261.000 272.610 C 264.489 271.884,269.502 270.590,271.400 269.925 C 272.060 269.694,273.615 269.277,274.856 268.999 C 278.834 268.107,290.425 264.309,292.687 263.156 C 293.502 262.740,294.446 262.392,294.785 262.383 C 295.821 262.354,300.455 260.625,303.200 259.242 C 310.553 255.537,314.531 255.881,316.921 260.428 C 318.460 263.357,314.663 269.466,310.096 271.408 C 308.760 271.976,305.446 274.026,302.600 276.044 C 300.905 277.246,289.974 282.773,285.600 284.640 C 284.170 285.250,282.550 286.055,282.000 286.429 C 280.730 287.292,278.309 288.336,276.000 289.016 C 275.010 289.308,271.818 290.449,268.906 291.552 C 265.995 292.655,262.665 293.733,261.506 293.949 C 260.348 294.164,258.050 294.832,256.400 295.433 C 254.750 296.034,252.410 296.758,251.200 297.041 C 249.990 297.325,247.560 297.938,245.800 298.403 C 240.992 299.673,233.743 301.082,229.330 301.604 C 227.169 301.859,224.320 302.307,223.000 302.600 C 213.112 304.793,170.814 304.788,163.600 302.593 C 162.610 302.292,160.540 301.927,159.000 301.783 C 155.673 301.471,145.825 299.552,141.600 298.392 C 139.950 297.939,137.276 297.311,135.657 296.997 C 134.038 296.683,132.508 296.261,132.257 296.059 C 132.006 295.857,131.171 295.558,130.402 295.393 C 129.632 295.228,128.462 294.861,127.802 294.576 C 126.453 293.996,124.175 293.250,119.245 291.775 C 115.732 290.724,109.354 288.135,104.600 285.830 C 103.060 285.083,100.720 283.978,99.400 283.374 C 98.080 282.771,95.164 281.224,92.921 279.938 C 90.678 278.652,88.746 277.600,88.629 277.600 C 88.511 277.600,86.108 276.295,83.289 274.700 C 80.470 273.105,77.518 271.468,76.729 271.062 C 75.940 270.657,74.441 269.620,73.398 268.758 C 72.355 267.896,70.939 266.923,70.251 266.596 C 69.563 266.269,68.341 265.416,67.536 264.701 C 63.694 261.286,62.342 260.235,59.000 258.061 C 54.327 255.023,46.639 247.553,46.275 245.700 C 45.303 240.743,51.174 239.694,57.282 243.734 " stroke="none" fill="#242c3c" fill-rule="evenodd"></path><path id="path1" d="M90.000 127.006 C 80.221 128.102,70.024 131.670,67.458 134.895 C 65.110 137.845,65.765 145.200,68.376 145.200 C 68.809 145.200,71.197 144.473,73.682 143.584 C 76.167 142.695,78.830 141.814,79.600 141.627 C 80.370 141.440,82.080 140.993,83.400 140.635 C 93.504 137.892,105.842 139.755,110.492 144.726 C 115.756 150.354,116.852 168.465,111.841 167.020 C 110.888 166.745,102.219 165.390,97.400 164.764 C 84.040 163.026,69.317 169.124,63.594 178.766 C 58.244 187.779,59.617 201.748,66.618 209.535 C 76.873 220.941,100.893 219.437,112.770 206.644 C 114.760 204.500,115.921 205.145,119.354 210.301 C 123.312 216.243,124.937 216.512,130.956 212.216 C 135.340 209.088,135.500 208.469,133.176 203.639 C 130.185 197.424,130.279 198.315,129.967 173.400 C 129.675 150.125,129.587 148.822,127.989 144.200 C 123.412 130.968,109.765 124.791,90.000 127.006 M293.889 126.846 C 274.878 128.792,263.239 142.792,267.745 158.292 C 270.639 168.245,275.944 172.258,293.200 177.546 C 309.854 182.649,313.815 185.550,313.758 192.600 C 313.655 205.167,293.168 209.542,272.825 201.340 C 267.047 199.011,265.678 199.755,265.623 205.251 C 265.555 211.945,271.718 215.221,288.196 217.253 C 311.822 220.166,328.725 209.376,328.893 191.274 C 329.007 178.977,323.164 172.425,307.600 167.396 C 287.800 160.999,285.109 159.646,282.941 155.000 C 276.798 141.836,296.126 134.458,316.931 142.025 C 323.593 144.448,324.400 144.107,324.400 138.871 C 324.400 133.432,322.779 131.630,315.949 129.475 C 308.783 127.214,300.237 126.196,293.889 126.846 M141.600 129.492 C 140.159 130.040,140.032 131.882,141.190 135.400 C 141.624 136.720,142.428 139.330,142.976 141.200 C 143.523 143.070,145.246 148.830,146.803 154.000 C 148.360 159.170,150.094 164.930,150.656 166.800 C 151.218 168.670,152.010 171.280,152.416 172.600 C 152.822 173.920,153.510 176.170,153.945 177.600 C 154.379 179.030,155.454 182.540,156.333 185.400 C 157.778 190.102,158.744 193.356,161.853 204.000 C 165.006 214.796,165.429 215.200,173.566 215.200 C 181.197 215.200,182.069 214.655,183.548 208.967 C 184.560 205.073,187.200 193.997,188.402 188.600 C 188.892 186.400,189.622 183.430,190.024 182.000 C 190.426 180.570,191.052 178.140,191.414 176.600 C 191.776 175.060,192.397 172.450,192.794 170.800 C 193.190 169.150,194.257 164.560,195.163 160.600 C 197.897 148.651,199.420 147.910,201.575 157.479 C 203.577 166.371,205.698 175.159,206.430 177.600 C 206.860 179.030,207.370 181.010,207.565 182.000 C 207.760 182.990,208.225 185.060,208.597 186.600 C 208.969 188.140,209.986 192.370,210.857 196.000 C 215.751 216.397,214.803 214.923,223.156 215.141 C 231.617 215.362,232.374 214.863,234.592 207.600 C 235.163 205.730,236.333 202.040,237.192 199.400 C 238.051 196.760,239.290 192.800,239.946 190.600 C 242.084 183.426,246.768 168.297,248.183 164.000 C 249.611 159.660,253.341 147.509,255.612 139.800 C 256.325 137.380,257.082 135.180,257.293 134.912 C 257.885 134.161,257.877 130.518,257.281 129.921 C 256.457 129.093,246.539 128.964,244.643 129.756 C 243.036 130.428,241.508 133.153,241.002 136.249 C 240.863 137.102,240.497 138.520,240.188 139.400 C 239.880 140.280,238.448 145.680,237.007 151.400 C 235.565 157.120,233.486 165.220,232.385 169.400 C 231.285 173.580,230.042 178.350,229.622 180.000 C 224.088 201.788,224.294 201.784,219.361 180.200 C 218.356 175.800,217.176 170.760,216.741 169.000 C 216.305 167.240,215.619 164.360,215.215 162.600 C 213.901 156.872,213.167 153.837,212.603 151.800 C 212.298 150.700,211.923 149.080,211.770 148.200 C 211.617 147.320,210.817 143.900,209.994 140.600 C 209.170 137.300,208.383 133.957,208.243 133.170 C 208.096 132.336,207.482 131.253,206.770 130.570 L 205.550 129.400 199.673 129.273 C 190.633 129.077,190.295 129.480,187.175 144.200 C 186.942 145.300,185.949 149.530,184.969 153.600 C 182.027 165.819,178.982 178.876,177.027 187.654 C 175.379 195.050,174.797 196.243,173.303 195.278 C 172.876 195.001,170.901 188.006,168.935 179.800 C 168.619 178.480,168.159 176.770,167.914 176.000 C 167.668 175.230,167.243 173.610,166.970 172.400 C 166.696 171.190,165.008 164.530,163.219 157.600 C 161.429 150.670,159.634 143.650,159.230 142.000 C 156.065 129.063,156.173 129.181,147.540 129.232 C 144.603 129.249,141.930 129.366,141.600 129.492 M109.333 176.542 C 114.142 177.388,114.574 177.861,114.717 182.442 C 115.155 196.484,106.352 205.000,91.400 205.000 C 81.250 205.000,77.152 201.404,76.509 191.934 C 75.614 178.747,88.229 172.832,109.333 176.542 " stroke="none" fill="#edeff0" fill-rule="evenodd"></path><path id="path2" d="M311.200 237.610 C 300.244 238.897,286.860 245.380,289.240 248.249 C 289.784 248.904,295.387 248.985,299.872 248.402 C 304.255 247.833,319.411 247.809,322.071 248.368 C 328.403 249.698,330.034 255.276,326.991 265.200 C 326.417 267.070,325.758 269.320,325.525 270.200 C 324.205 275.193,322.455 280.146,321.427 281.800 C 318.857 285.934,319.195 290.362,321.992 289.203 C 331.445 285.288,344.310 254.373,341.179 243.098 C 339.842 238.287,326.399 235.826,311.200 237.610 M49.667 244.266 C 48.582 246.204,51.713 249.901,59.200 255.524 C 61.730 257.424,65.150 260.066,66.800 261.396 C 68.450 262.726,70.700 264.329,71.800 264.960 C 72.900 265.590,74.250 266.516,74.800 267.018 C 78.156 270.077,102.230 282.740,112.250 286.717 C 148.946 301.280,188.402 305.760,227.600 299.813 C 234.123 298.823,251.287 295.031,255.400 293.671 C 256.720 293.234,259.240 292.418,261.000 291.857 C 277.639 286.550,296.265 278.148,304.892 272.057 C 305.832 271.394,307.545 270.287,308.700 269.597 C 312.447 267.357,315.200 264.535,315.200 262.934 C 315.200 258.896,311.697 257.792,306.527 260.201 C 304.250 261.262,295.364 264.692,289.800 266.658 C 278.826 270.536,258.551 275.655,246.400 277.617 C 243.870 278.025,240.180 278.621,238.200 278.941 C 234.858 279.481,233.210 279.696,224.000 280.793 C 218.204 281.484,198.600 282.071,190.200 281.805 C 180.140 281.486,165.051 280.491,163.202 280.024 C 162.431 279.829,160.540 279.547,159.000 279.396 C 156.487 279.150,153.761 278.693,138.800 276.009 C 132.843 274.940,129.248 274.128,124.628 272.809 C 122.413 272.176,118.890 271.189,116.800 270.615 C 111.899 269.270,96.722 264.398,96.200 264.003 C 95.980 263.836,93.190 262.705,90.000 261.490 C 85.015 259.590,81.798 258.230,72.600 254.134 C 71.096 253.464,67.177 251.477,56.451 245.946 C 51.705 243.499,50.292 243.149,49.667 244.266 " stroke="none" fill="#e69417" fill-rule="evenodd"></path><path id="path3" d="M94.700 125.095 C 95.855 125.176,97.745 125.176,98.900 125.095 C 100.055 125.014,99.110 124.948,96.800 124.948 C 94.490 124.948,93.545 125.014,94.700 125.095 M296.912 125.095 C 297.964 125.177,299.584 125.176,300.512 125.092 C 301.440 125.008,300.580 124.941,298.600 124.942 C 296.620 124.943,295.860 125.012,296.912 125.095 M88.105 125.487 C 88.714 125.579,89.614 125.577,90.105 125.482 C 90.597 125.387,90.100 125.311,89.000 125.314 C 87.900 125.317,87.497 125.395,88.105 125.487 M103.305 125.487 C 103.914 125.579,104.814 125.577,105.305 125.482 C 105.797 125.387,105.300 125.311,104.200 125.314 C 103.100 125.317,102.697 125.395,103.305 125.487 M291.305 125.487 C 291.914 125.579,292.814 125.577,293.305 125.482 C 293.797 125.387,293.300 125.311,292.200 125.314 C 291.100 125.317,290.697 125.395,291.305 125.487 M304.300 125.482 C 304.795 125.578,305.605 125.578,306.100 125.482 C 306.595 125.387,306.190 125.309,305.200 125.309 C 304.210 125.309,303.805 125.387,304.300 125.482 M81.800 126.422 C 80.069 127.241,80.433 127.489,82.274 126.745 C 82.893 126.495,84.030 126.155,84.800 125.991 L 86.200 125.692 84.800 125.678 C 84.030 125.671,82.680 126.005,81.800 126.422 M108.000 125.991 C 108.770 126.155,109.907 126.495,110.526 126.745 C 112.436 127.517,112.704 127.230,110.856 126.391 C 109.897 125.956,108.547 125.621,107.856 125.646 L 106.600 125.692 108.000 125.991 M285.800 126.422 C 283.914 127.314,284.523 127.452,286.692 126.624 C 287.521 126.307,288.560 125.968,289.000 125.870 C 289.504 125.758,289.356 125.688,288.600 125.679 C 287.940 125.671,286.680 126.005,285.800 126.422 M308.800 125.956 C 309.570 126.138,310.740 126.426,311.400 126.595 C 312.300 126.826,312.492 126.788,312.169 126.441 C 311.933 126.187,310.763 125.899,309.569 125.802 C 307.812 125.658,307.666 125.688,308.800 125.956 M76.200 128.208 C 73.033 129.463,73.909 129.468,77.431 128.215 C 78.954 127.673,79.840 127.236,79.400 127.243 C 78.960 127.250,77.520 127.684,76.200 128.208 M114.850 128.145 C 116.088 128.654,118.068 129.658,119.250 130.375 C 120.433 131.093,121.130 131.399,120.800 131.055 C 119.974 130.194,114.113 127.198,113.278 127.209 C 112.905 127.215,113.613 127.636,114.850 128.145 M144.918 127.498 C 146.633 127.573,149.333 127.572,150.918 127.497 C 152.503 127.421,151.100 127.359,147.800 127.360 C 144.500 127.361,143.203 127.422,144.918 127.498 M192.400 127.489 C 190.541 128.187,187.412 131.945,188.110 132.643 C 188.200 132.734,188.605 132.076,189.009 131.180 C 190.368 128.167,191.281 127.831,198.800 127.577 L 205.400 127.354 199.200 127.309 C 195.790 127.284,192.730 127.365,192.400 127.489 M243.776 127.830 C 243.349 128.176,243.270 128.311,243.600 128.130 C 243.930 127.948,246.990 127.701,250.400 127.580 L 256.600 127.360 250.576 127.280 C 245.607 127.214,244.417 127.310,243.776 127.830 M282.176 127.822 C 281.412 128.434,281.413 128.438,282.200 128.076 C 282.640 127.874,283.270 127.608,283.600 127.486 C 284.118 127.293,284.115 127.259,283.576 127.232 C 283.234 127.214,282.604 127.480,282.176 127.822 M155.000 128.266 C 155.660 128.614,156.615 129.372,157.121 129.950 C 157.889 130.825,157.972 130.855,157.622 130.128 C 157.139 129.126,155.134 127.592,154.338 127.616 C 154.042 127.625,154.340 127.917,155.000 128.266 M206.154 128.124 C 206.568 128.386,207.468 129.022,208.154 129.538 C 208.971 130.153,208.861 129.981,207.833 129.038 C 206.972 128.247,206.072 127.611,205.833 127.624 C 205.595 127.636,205.739 127.861,206.154 128.124 M257.853 128.544 C 258.656 129.235,259.024 130.014,259.222 131.444 L 259.493 133.400 259.547 131.731 C 259.599 130.086,258.152 127.600,257.142 127.600 C 256.929 127.600,257.249 128.025,257.853 128.544 M278.600 129.468 C 276.085 130.764,272.991 133.374,270.743 136.097 C 269.556 137.534,270.082 137.119,272.403 134.788 C 274.720 132.461,276.690 130.906,278.600 129.900 C 280.140 129.088,281.220 128.426,281.000 128.430 C 280.780 128.434,279.700 128.901,278.600 129.468 M321.198 129.838 C 322.188 130.403,323.223 131.053,323.498 131.282 C 323.774 131.511,324.000 131.582,324.000 131.440 C 324.000 131.096,320.358 128.799,319.822 128.805 C 319.590 128.807,320.209 129.272,321.198 129.838 M68.700 131.029 C 68.095 131.357,67.600 131.714,67.600 131.823 C 67.600 131.932,68.095 131.771,68.700 131.465 C 69.305 131.160,70.070 130.809,70.400 130.686 C 70.933 130.488,70.933 130.461,70.400 130.448 C 70.070 130.439,69.305 130.701,68.700 131.029 M209.459 131.600 C 209.617 132.150,209.987 133.410,210.280 134.400 L 210.814 136.200 210.594 134.452 C 210.474 133.490,210.104 132.230,209.773 131.652 L 209.171 130.600 209.459 131.600 M122.687 132.809 C 123.395 133.551,124.042 134.078,124.125 133.979 C 124.208 133.881,123.629 133.273,122.838 132.629 L 121.400 131.458 122.687 132.809 M65.871 133.414 C 65.251 134.192,64.832 135.047,64.940 135.314 C 65.058 135.607,65.149 135.541,65.168 135.149 C 65.186 134.791,65.480 134.266,65.822 133.982 C 66.395 133.507,67.377 132.000,67.114 132.000 C 67.051 132.000,66.492 132.636,65.871 133.414 M158.461 133.200 C 158.461 133.530,158.703 134.430,159.000 135.200 C 159.297 135.970,159.539 136.330,159.539 136.000 C 159.539 135.670,159.297 134.770,159.000 134.000 C 158.703 133.230,158.461 132.870,158.461 133.200 M239.233 135.833 C 238.975 136.859,238.839 137.772,238.931 137.864 C 239.022 137.956,239.309 137.192,239.567 136.167 C 239.825 135.141,239.961 134.228,239.869 134.136 C 239.778 134.044,239.491 134.808,239.233 135.833 M186.867 137.467 C 186.596 138.479,186.445 139.379,186.532 139.465 C 186.619 139.552,186.919 138.803,187.200 137.800 C 187.481 136.797,187.631 135.898,187.535 135.801 C 187.438 135.705,187.137 136.454,186.867 137.467 M64.546 140.600 C 64.547 142.800,64.614 143.649,64.695 142.487 C 64.776 141.324,64.776 139.524,64.693 138.487 C 64.611 137.449,64.545 138.400,64.546 140.600 M210.848 137.400 C 210.854 138.364,212.338 142.857,212.368 142.000 C 212.379 141.670,212.041 140.320,211.616 139.000 C 211.191 137.680,210.845 136.960,210.848 137.400 M238.098 139.897 C 237.489 142.028,237.069 144.236,237.318 144.000 C 237.625 143.709,238.874 138.740,238.687 138.553 C 238.599 138.466,238.335 139.071,238.098 139.897 M129.228 143.084 C 129.881 144.844,130.584 147.346,130.792 148.642 L 131.170 151.000 130.983 148.428 C 130.881 147.013,130.330 144.673,129.758 143.228 C 128.252 139.421,127.829 139.306,129.228 143.084 M299.100 140.693 C 300.035 140.777,301.565 140.777,302.500 140.693 C 303.435 140.609,302.670 140.540,300.800 140.540 C 298.930 140.540,298.165 140.609,299.100 140.693 M88.456 141.232 C 86.617 141.409,84.997 141.672,84.856 141.816 C 84.715 141.960,85.590 141.969,86.800 141.838 C 90.327 141.454,96.356 141.385,99.600 141.692 L 102.600 141.975 99.600 141.418 C 96.265 140.799,93.435 140.751,88.456 141.232 M256.325 143.096 C 255.954 144.355,255.711 145.444,255.785 145.518 C 255.999 145.733,257.279 141.637,257.133 141.203 C 257.060 140.986,256.696 141.838,256.325 143.096 M292.307 141.360 C 291.046 141.631,289.876 142.004,289.707 142.190 C 289.538 142.376,289.733 142.408,290.139 142.261 C 290.546 142.115,292.166 141.797,293.739 141.556 C 295.313 141.314,296.675 141.045,296.767 140.958 C 297.094 140.647,294.560 140.876,292.307 141.360 M305.795 141.225 C 306.453 141.421,308.073 141.673,309.395 141.784 L 311.800 141.986 309.000 141.425 C 305.819 140.787,303.932 140.669,305.795 141.225 M185.632 142.216 C 185.614 142.665,185.325 144.089,184.988 145.381 C 184.652 146.672,184.437 147.912,184.512 148.135 C 184.586 148.359,184.970 147.170,185.365 145.494 C 185.759 143.818,185.988 142.212,185.873 141.924 C 185.752 141.623,185.650 141.747,185.632 142.216 M266.465 142.617 C 265.795 144.088,265.923 144.402,266.647 143.065 C 266.986 142.440,267.188 141.854,267.096 141.763 C 267.005 141.671,266.721 142.056,266.465 142.617 M80.400 143.025 C 79.518 143.359,79.296 143.557,79.800 143.559 C 80.240 143.562,81.140 143.317,81.800 143.014 C 83.327 142.315,82.255 142.323,80.400 143.025 M104.400 142.590 C 104.400 142.824,106.639 144.001,107.080 143.999 C 107.256 143.998,106.811 143.638,106.090 143.199 C 104.751 142.382,104.400 142.256,104.400 142.590 M287.400 143.410 C 286.520 143.952,285.959 144.397,286.153 144.398 C 286.563 144.400,289.200 142.816,289.200 142.567 C 289.200 142.313,289.121 142.351,287.400 143.410 M314.061 143.018 C 314.424 143.389,314.940 143.620,315.206 143.531 C 315.473 143.442,315.175 143.139,314.545 142.856 C 313.473 142.376,313.442 142.386,314.061 143.018 M212.439 143.400 C 212.427 143.840,212.758 145.460,213.173 147.000 C 213.588 148.540,213.936 149.530,213.947 149.200 C 213.958 148.870,213.627 147.250,213.213 145.600 C 212.798 143.950,212.450 142.960,212.439 143.400 M141.834 144.400 C 141.982 145.170,142.538 147.060,143.070 148.600 C 143.602 150.140,144.190 151.940,144.377 152.600 C 144.696 153.721,144.721 153.734,144.757 152.800 C 144.778 152.250,144.513 151.260,144.169 150.600 C 143.825 149.940,143.273 148.236,142.942 146.813 C 142.284 143.977,141.370 141.987,141.834 144.400 M325.200 143.571 C 325.200 145.140,321.442 145.760,319.143 144.571 C 318.473 144.224,317.846 144.021,317.749 144.118 C 317.651 144.216,318.190 144.589,318.946 144.948 C 320.906 145.877,323.795 145.805,324.800 144.800 C 325.543 144.057,325.864 143.200,325.400 143.200 C 325.290 143.200,325.200 143.367,325.200 143.571 M75.000 144.858 C 73.658 145.523,73.588 145.610,74.567 145.401 C 75.210 145.263,76.105 144.892,76.556 144.575 C 77.708 143.769,76.901 143.915,75.000 144.858 M107.600 144.233 C 107.600 144.627,110.550 147.983,110.735 147.798 C 110.835 147.698,110.171 146.807,109.258 145.817 C 108.346 144.828,107.600 144.115,107.600 144.233 M236.274 146.309 C 235.901 147.349,235.618 148.650,235.644 149.200 C 235.684 150.010,235.727 150.048,235.872 149.400 C 235.971 148.960,236.328 147.733,236.666 146.674 C 237.470 144.158,237.151 143.862,236.274 146.309 M64.812 145.100 C 64.797 145.736,66.244 147.200,66.889 147.200 C 67.158 147.200,66.983 146.924,66.501 146.586 C 66.018 146.248,65.444 145.663,65.224 145.286 C 64.997 144.896,64.819 144.816,64.812 145.100 M71.376 146.187 C 70.366 146.951,70.804 146.959,72.254 146.202 C 72.884 145.874,73.119 145.604,72.776 145.602 C 72.434 145.601,71.804 145.864,71.376 146.187 M265.052 147.700 C 264.737 148.875,264.804 154.328,265.148 155.557 C 265.295 156.083,265.412 154.328,265.408 151.657 C 265.399 146.361,265.402 146.394,265.052 147.700 M254.715 148.610 C 254.592 149.045,254.369 149.760,254.220 150.200 C 254.071 150.640,254.242 150.494,254.600 149.876 C 254.958 149.258,255.181 148.542,255.095 148.286 C 255.010 148.030,254.839 148.176,254.715 148.610 M183.460 152.060 C 183.063 153.826,182.813 155.346,182.903 155.437 C 182.994 155.528,183.398 154.161,183.800 152.400 C 184.202 150.639,184.453 149.119,184.357 149.023 C 184.260 148.927,183.857 150.294,183.460 152.060 M214.036 150.718 C 213.982 151.492,215.322 156.637,215.461 156.188 C 215.527 155.975,215.241 154.540,214.826 153.000 C 214.412 151.460,214.056 150.433,214.036 150.718 M163.218 150.820 C 163.227 150.919,163.500 151.900,163.824 153.000 L 164.413 155.000 164.238 153.252 C 164.142 152.290,163.869 151.309,163.632 151.072 C 163.394 150.834,163.208 150.721,163.218 150.820 M131.494 171.476 C 131.604 194.868,131.803 197.208,134.076 201.927 C 134.958 203.757,135.739 205.194,135.812 205.122 C 135.885 205.049,135.261 203.552,134.427 201.795 C 132.403 197.534,132.370 197.132,132.171 174.103 C 132.076 163.156,131.864 153.604,131.699 152.876 C 131.535 152.148,131.442 160.518,131.494 171.476 M253.600 151.973 C 253.600 152.251,253.306 153.098,252.948 153.854 C 252.589 154.610,252.390 155.323,252.505 155.439 C 252.621 155.554,253.030 154.824,253.415 153.815 C 253.800 152.807,254.000 151.866,253.858 151.724 C 253.716 151.583,253.600 151.694,253.600 151.973 M234.411 152.971 C 234.185 153.565,234.009 154.445,234.019 154.926 C 234.031 155.476,234.264 155.156,234.647 154.061 C 235.305 152.183,235.090 151.186,234.411 152.971 M144.816 154.274 C 144.792 154.986,145.594 156.940,145.817 156.716 C 145.925 156.609,145.747 155.909,145.422 155.161 C 145.097 154.412,144.824 154.013,144.816 154.274 M198.211 154.900 C 197.678 156.522,196.814 160.548,196.967 160.700 C 197.066 160.799,197.349 160.098,197.595 159.140 C 198.602 155.227,198.577 155.258,199.274 157.023 C 199.617 157.890,200.025 159.648,200.181 160.929 C 200.337 162.209,200.806 164.009,201.224 164.929 C 202.115 166.891,202.260 166.295,201.423 164.108 C 201.106 163.279,200.651 161.278,200.413 159.662 C 199.873 155.991,198.691 153.437,198.211 154.900 M285.216 155.895 C 285.726 156.608,286.786 157.614,287.572 158.131 C 290.974 160.372,291.911 160.827,291.392 159.987 C 291.252 159.760,290.319 159.190,289.318 158.720 C 288.318 158.249,286.777 157.130,285.894 156.232 C 284.521 154.837,284.423 154.788,285.216 155.895 M112.862 159.851 C 112.784 164.945,112.628 165.128,108.932 164.447 C 105.893 163.887,105.125 164.085,107.762 164.749 C 112.886 166.039,113.668 165.240,113.192 159.200 L 112.924 155.800 112.862 159.851 M182.046 157.239 C 181.801 157.943,181.612 158.898,181.627 159.360 C 181.642 159.822,181.896 159.300,182.192 158.200 C 182.804 155.921,182.714 155.324,182.046 157.239 M164.800 157.674 C 164.800 157.803,165.079 158.514,165.420 159.254 C 166.037 160.595,166.039 160.596,165.791 159.400 C 165.577 158.364,164.800 157.011,164.800 157.674 M251.330 159.071 C 251.071 159.908,250.931 160.664,251.018 160.752 C 251.271 161.004,252.045 158.723,251.916 158.106 C 251.852 157.800,251.588 158.234,251.330 159.071 M232.613 159.961 C 232.245 161.068,232.020 162.475,232.112 163.087 C 232.272 164.145,232.283 164.137,232.340 162.908 C 232.373 162.198,232.693 160.885,233.050 159.991 C 233.408 159.098,233.606 158.273,233.491 158.157 C 233.376 158.042,232.981 158.854,232.613 159.961 M146.416 159.424 C 146.407 159.876,146.664 160.596,146.987 161.024 C 147.742 162.021,147.752 161.642,147.016 159.946 C 146.585 158.953,146.427 158.816,146.416 159.424 M266.033 159.916 C 265.950 161.214,269.022 166.051,271.674 168.800 C 274.164 171.381,278.596 174.738,278.991 174.342 C 279.088 174.245,278.234 173.555,277.094 172.808 C 272.865 170.040,268.888 165.582,267.046 161.547 C 266.507 160.366,266.051 159.632,266.033 159.916 M294.361 161.422 C 295.109 161.747,295.809 161.925,295.916 161.817 C 296.140 161.594,294.186 160.792,293.474 160.816 C 293.213 160.824,293.612 161.097,294.361 161.422 M299.184 163.009 C 300.165 163.315,301.029 163.504,301.104 163.429 C 301.309 163.224,298.777 162.396,298.040 162.427 C 297.688 162.441,298.203 162.704,299.184 163.009 M90.700 163.096 C 92.075 163.174,94.325 163.174,95.700 163.096 C 97.075 163.018,95.950 162.954,93.200 162.954 C 90.450 162.954,89.325 163.018,90.700 163.096 M85.700 163.476 C 86.085 163.576,86.715 163.576,87.100 163.476 C 87.485 163.375,87.170 163.293,86.400 163.293 C 85.630 163.293,85.315 163.375,85.700 163.476 M103.300 163.876 C 103.685 163.976,104.315 163.976,104.700 163.876 C 105.085 163.775,104.770 163.693,104.000 163.693 C 103.230 163.693,102.915 163.775,103.300 163.876 M180.446 164.839 C 180.201 165.543,180.013 166.318,180.028 166.560 C 180.044 166.802,180.314 166.296,180.630 165.435 C 180.945 164.574,181.133 163.800,181.048 163.715 C 180.962 163.629,180.692 164.135,180.446 164.839 M249.646 164.067 C 249.621 164.434,249.496 165.064,249.370 165.467 C 249.152 166.162,249.163 166.163,249.597 165.487 C 249.848 165.096,249.973 164.466,249.873 164.087 C 249.711 163.468,249.688 163.466,249.646 164.067 M79.600 164.600 C 78.830 164.897,78.470 165.139,78.800 165.139 C 79.130 165.139,80.030 164.897,80.800 164.600 C 81.570 164.303,81.930 164.061,81.600 164.061 C 81.270 164.061,80.370 164.303,79.600 164.600 M304.000 164.600 C 304.770 164.897,305.670 165.139,306.000 165.139 C 306.330 165.139,305.970 164.897,305.200 164.600 C 304.430 164.303,303.530 164.061,303.200 164.061 C 302.870 164.061,303.230 164.303,304.000 164.600 M166.414 164.454 C 166.406 164.594,166.663 165.314,166.984 166.054 C 167.306 166.794,167.569 167.130,167.570 166.800 C 167.572 166.224,166.443 163.934,166.414 164.454 M231.038 166.914 C 230.644 168.371,230.415 169.797,230.529 170.082 C 230.645 170.370,230.751 170.232,230.768 169.771 C 230.786 169.315,231.086 168.103,231.435 167.078 C 231.785 166.052,232.000 165.000,231.913 164.739 C 231.826 164.479,231.432 165.457,231.038 166.914 M217.214 164.854 C 217.206 164.994,217.463 165.714,217.784 166.454 C 218.106 167.194,218.369 167.530,218.370 167.200 C 218.372 166.624,217.243 164.334,217.214 164.854 M308.200 165.844 C 310.707 166.798,311.560 166.889,309.800 166.015 C 308.920 165.578,307.840 165.224,307.400 165.228 C 306.939 165.232,307.279 165.493,308.200 165.844 M75.200 166.200 C 74.650 166.514,74.380 166.772,74.600 166.772 C 74.820 166.772,75.450 166.514,76.000 166.200 C 76.550 165.886,76.820 165.628,76.600 165.628 C 76.380 165.628,75.750 165.886,75.200 166.200 M202.221 168.519 C 202.350 169.575,202.705 171.015,203.012 171.719 C 203.796 173.524,203.712 172.668,202.783 169.400 C 202.073 166.901,202.012 166.806,202.221 168.519 M312.988 167.594 C 313.845 168.031,314.619 168.314,314.710 168.223 C 314.928 168.005,312.579 166.800,311.935 166.800 C 311.658 166.800,312.132 167.157,312.988 167.594 M70.505 168.826 C 67.815 170.584,63.842 174.719,62.429 177.234 C 61.160 179.492,61.708 179.163,63.168 176.790 C 64.767 174.192,69.089 169.877,71.141 168.830 C 72.466 168.154,73.625 167.200,73.120 167.200 C 73.050 167.200,71.874 167.932,70.505 168.826 M248.036 169.236 C 247.766 170.139,247.618 170.952,247.708 171.042 C 247.798 171.132,248.093 170.466,248.364 169.564 C 248.634 168.661,248.782 167.848,248.692 167.758 C 248.602 167.668,248.307 168.334,248.036 169.236 M316.568 169.214 C 317.431 169.645,318.223 169.910,318.330 169.804 C 318.527 169.606,315.878 168.387,315.313 168.416 C 315.141 168.425,315.706 168.784,316.568 169.214 M168.061 170.400 C 168.061 170.730,168.303 171.630,168.600 172.400 C 168.897 173.170,169.139 173.530,169.139 173.200 C 169.139 172.870,168.897 171.970,168.600 171.200 C 168.303 170.430,168.061 170.070,168.061 170.400 M178.865 171.417 C 178.195 172.888,178.323 173.202,179.047 171.865 C 179.386 171.240,179.588 170.654,179.496 170.563 C 179.405 170.471,179.121 170.856,178.865 171.417 M320.326 171.118 C 320.836 171.493,321.787 172.295,322.440 172.900 C 323.093 173.505,323.756 173.999,323.914 173.998 C 324.071 173.997,323.308 173.187,322.217 172.198 C 321.126 171.209,320.046 170.408,319.817 170.418 C 319.588 170.428,319.817 170.743,320.326 171.118 M193.822 172.222 C 193.672 173.025,193.628 173.762,193.726 173.860 C 193.824 173.957,194.027 173.381,194.178 172.578 C 194.328 171.775,194.372 171.038,194.274 170.940 C 194.176 170.843,193.973 171.419,193.822 172.222 M229.910 171.800 C 229.770 172.460,229.551 173.360,229.422 173.800 C 229.294 174.240,229.470 173.994,229.814 173.253 C 230.159 172.512,230.378 171.612,230.303 171.253 C 230.223 170.875,230.057 171.106,229.910 171.800 M246.436 174.836 C 246.166 175.739,246.018 176.552,246.108 176.642 C 246.198 176.732,246.493 176.066,246.764 175.164 C 247.034 174.261,247.182 173.448,247.092 173.358 C 247.002 173.268,246.707 173.934,246.436 174.836 M280.176 175.013 C 280.604 175.336,281.133 175.600,281.353 175.600 C 281.573 175.600,281.404 175.336,280.976 175.013 C 280.549 174.690,280.020 174.425,279.800 174.425 C 279.580 174.425,279.749 174.690,280.176 175.013 M151.248 175.200 C 151.242 175.530,151.483 176.340,151.786 177.000 C 152.493 178.545,152.503 177.826,151.800 176.000 C 151.503 175.230,151.255 174.870,151.248 175.200 M204.046 175.849 C 204.021 176.536,204.344 177.886,204.765 178.849 C 205.186 179.812,206.026 183.166,206.631 186.301 C 207.236 189.437,207.809 191.925,207.904 191.830 C 208.196 191.538,206.366 182.381,205.380 179.200 C 204.869 177.550,204.370 175.840,204.272 175.400 C 204.157 174.885,204.076 175.046,204.046 175.849 M326.411 177.100 C 327.323 178.475,328.155 179.600,328.258 179.600 C 328.573 179.600,327.213 177.481,325.948 176.000 C 325.099 175.007,325.233 175.326,326.411 177.100 M177.298 177.042 C 177.043 177.899,176.733 179.410,176.608 180.400 C 176.435 181.772,176.577 181.499,177.207 179.250 C 177.661 177.627,177.972 176.116,177.897 175.892 C 177.822 175.667,177.553 176.185,177.298 177.042 M283.400 176.393 C 284.280 176.825,285.270 177.177,285.600 177.174 C 286.273 177.168,284.274 176.234,282.774 175.854 C 282.238 175.718,282.520 175.961,283.400 176.393 M169.661 176.600 C 169.661 177.040,169.903 178.030,170.200 178.800 C 170.539 179.681,170.739 179.903,170.739 179.400 C 170.739 178.960,170.497 177.970,170.200 177.200 C 169.861 176.319,169.661 176.097,169.661 176.600 M220.583 178.000 C 220.930 180.305,221.943 183.528,221.967 182.400 C 221.979 181.850,221.625 180.320,221.181 179.000 C 220.653 177.434,220.446 177.086,220.583 178.000 M91.107 177.490 C 91.826 177.579,92.906 177.577,93.507 177.486 C 94.108 177.395,93.520 177.322,92.200 177.324 C 90.880 177.326,90.388 177.401,91.107 177.490 M100.100 177.491 C 100.925 177.578,102.275 177.578,103.100 177.491 C 103.925 177.405,103.250 177.334,101.600 177.334 C 99.950 177.334,99.275 177.405,100.100 177.491 M87.600 178.200 C 87.022 178.530,86.853 178.772,87.200 178.772 C 87.530 178.772,88.250 178.514,88.800 178.200 C 89.378 177.870,89.547 177.628,89.200 177.628 C 88.870 177.628,88.150 177.886,87.600 178.200 M107.000 178.178 C 107.880 178.486,109.083 178.752,109.674 178.769 C 110.265 178.786,111.255 178.991,111.874 179.225 C 112.684 179.531,112.880 179.529,112.571 179.216 C 112.190 178.830,110.494 178.431,106.600 177.810 C 105.672 177.662,105.763 177.746,107.000 178.178 M192.200 179.200 C 192.046 180.110,192.004 180.938,192.107 181.040 C 192.210 181.143,192.413 180.477,192.560 179.560 C 192.707 178.643,192.748 177.815,192.653 177.720 C 192.558 177.624,192.354 178.290,192.200 179.200 M245.142 179.307 C 244.145 181.873,241.818 189.097,241.376 191.000 C 241.274 191.440,241.548 191.080,241.985 190.200 C 242.422 189.320,242.790 188.240,242.803 187.800 C 242.816 187.360,243.175 186.280,243.600 185.400 C 244.025 184.520,244.379 183.492,244.386 183.115 C 244.394 182.738,244.767 181.499,245.215 180.361 C 245.664 179.223,245.979 178.140,245.915 177.953 C 245.852 177.767,245.504 178.376,245.142 179.307 M288.220 177.972 C 288.429 178.176,289.140 178.455,289.800 178.591 C 290.996 178.839,290.995 178.837,289.654 178.220 C 288.119 177.513,287.672 177.435,288.220 177.972 M60.811 179.787 C 60.543 180.109,60.393 180.580,60.477 180.832 C 60.561 181.084,60.845 180.820,61.107 180.245 C 61.640 179.074,61.537 178.912,60.811 179.787 M294.400 179.800 C 294.950 180.114,295.670 180.371,296.000 180.370 C 296.330 180.369,295.994 180.106,295.254 179.784 C 293.551 179.045,293.094 179.053,294.400 179.800 M112.944 183.600 C 112.944 185.690,113.012 186.545,113.094 185.500 C 113.176 184.455,113.176 182.745,113.094 181.700 C 113.012 180.655,112.944 181.510,112.944 183.600 M80.634 182.840 C 78.962 185.064,78.476 186.000,78.992 186.000 C 79.097 186.000,79.546 185.325,79.989 184.500 C 80.433 183.675,81.269 182.415,81.849 181.700 C 82.428 180.985,82.805 180.400,82.685 180.400 C 82.566 180.400,81.643 181.498,80.634 182.840 M299.200 181.400 C 299.750 181.714,300.470 181.971,300.800 181.970 C 301.130 181.969,300.794 181.706,300.054 181.384 C 298.351 180.645,297.894 180.653,299.200 181.400 M328.814 181.254 C 328.806 181.394,329.063 182.114,329.384 182.854 C 329.706 183.594,329.969 183.930,329.970 183.600 C 329.972 183.024,328.843 180.734,328.814 181.254 M191.055 184.166 C 190.649 185.586,190.411 186.984,190.526 187.274 C 190.647 187.575,190.750 187.446,190.768 186.971 C 190.786 186.515,191.086 185.303,191.435 184.278 C 191.785 183.252,192.009 182.226,191.933 181.998 C 191.857 181.770,191.462 182.746,191.055 184.166 M171.237 182.600 C 171.223 182.820,171.467 183.810,171.779 184.800 C 172.091 185.790,172.345 186.240,172.343 185.800 C 172.339 184.966,171.279 181.900,171.237 182.600 M175.600 184.600 C 175.309 185.812,175.161 186.895,175.271 187.005 C 175.381 187.115,175.697 186.200,175.971 184.971 C 176.246 183.743,176.394 182.661,176.300 182.567 C 176.206 182.473,175.891 183.388,175.600 184.600 M303.600 183.000 C 304.150 183.314,304.780 183.572,305.000 183.572 C 305.220 183.572,304.950 183.314,304.400 183.000 C 303.850 182.686,303.220 182.428,303.000 182.428 C 302.780 182.428,303.050 182.686,303.600 183.000 M59.235 184.497 C 58.963 185.320,58.823 186.310,58.924 186.697 C 59.059 187.215,59.119 187.157,59.154 186.474 C 59.179 185.964,59.392 185.189,59.626 184.752 C 59.860 184.314,59.980 183.741,59.891 183.478 C 59.803 183.215,59.508 183.674,59.235 184.497 M222.046 184.264 C 222.021 184.740,222.358 186.270,222.795 187.664 C 223.232 189.059,223.592 190.594,223.595 191.076 C 223.608 193.299,225.268 191.550,225.756 188.800 C 225.932 187.804,225.901 187.635,225.647 188.214 C 224.544 190.727,223.438 189.412,222.272 184.200 C 222.105 183.456,222.090 183.460,222.046 184.264 M154.041 184.400 C 154.045 185.094,155.544 188.801,155.577 188.200 C 155.589 187.980,155.248 186.900,154.818 185.800 C 154.389 184.700,154.039 184.070,154.041 184.400 M308.400 185.325 C 308.400 185.394,308.985 185.979,309.700 186.625 L 311.000 187.800 309.825 186.500 C 308.730 185.288,308.400 185.016,308.400 185.325 M78.493 187.600 C 78.493 188.370,78.575 188.685,78.676 188.300 C 78.776 187.915,78.776 187.285,78.676 186.900 C 78.575 186.515,78.493 186.830,78.493 187.600 M174.893 188.800 C 174.893 189.570,174.975 189.885,175.076 189.500 C 175.176 189.115,175.176 188.485,175.076 188.100 C 174.975 187.715,174.893 188.030,174.893 188.800 M112.453 188.600 C 112.289 190.919,108.778 197.216,107.341 197.767 C 107.043 197.882,106.800 198.192,106.800 198.457 C 106.800 199.125,108.661 197.330,109.969 195.400 C 111.490 193.157,112.880 189.704,112.678 188.670 C 112.525 187.882,112.504 187.875,112.453 188.600 M58.542 191.800 C 58.541 193.780,58.608 194.640,58.692 193.712 C 58.776 192.784,58.777 191.164,58.695 190.112 C 58.612 189.060,58.543 189.820,58.542 191.800 M330.524 190.600 C 330.526 191.920,330.601 192.412,330.690 191.693 C 330.779 190.974,330.777 189.894,330.686 189.293 C 330.595 188.692,330.522 189.280,330.524 190.600 M172.800 189.373 C 172.800 189.764,173.250 190.619,173.800 191.273 C 174.793 192.453,174.800 192.454,174.800 191.500 C 174.800 190.972,174.350 190.117,173.800 189.600 C 172.926 188.779,172.800 188.751,172.800 189.373 M155.628 189.800 C 155.624 190.240,155.978 191.320,156.415 192.200 C 157.289 193.960,157.198 193.107,156.244 190.600 C 155.893 189.679,155.632 189.339,155.628 189.800 M312.128 192.800 C 312.128 194.230,312.201 194.815,312.289 194.100 C 312.378 193.385,312.378 192.215,312.289 191.500 C 312.201 190.785,312.128 191.370,312.128 192.800 M189.236 192.436 C 188.966 193.339,188.835 194.169,188.946 194.279 C 189.057 194.390,189.351 193.724,189.600 192.800 C 190.189 190.611,189.877 190.299,189.236 192.436 M78.470 193.600 C 78.354 198.467,83.078 203.765,87.350 203.559 C 87.976 203.529,87.884 203.436,87.000 203.207 C 81.950 201.896,79.374 198.943,78.793 193.800 L 78.522 191.400 78.470 193.600 M208.068 193.000 C 208.062 193.440,208.211 194.160,208.400 194.600 C 208.838 195.619,208.838 194.568,208.400 193.200 C 208.143 192.396,208.077 192.357,208.068 193.000 M240.283 194.463 C 240.129 195.047,239.901 195.857,239.776 196.263 C 239.651 196.668,239.842 196.495,240.199 195.877 C 240.557 195.259,240.785 194.449,240.707 194.077 C 240.606 193.602,240.480 193.717,240.283 194.463 M157.348 195.400 C 157.583 196.858,158.362 198.972,158.582 198.751 C 158.670 198.663,158.385 197.603,157.948 196.396 C 157.511 195.188,157.241 194.740,157.348 195.400 M208.856 196.000 C 208.856 196.330,209.011 196.960,209.200 197.400 C 209.417 197.904,209.544 197.978,209.544 197.600 C 209.544 197.270,209.389 196.640,209.200 196.200 C 208.983 195.696,208.856 195.622,208.856 196.000 M311.600 195.948 C 311.600 196.530,308.697 199.660,307.040 200.866 C 306.182 201.490,305.652 202.000,305.862 202.000 C 306.533 202.000,308.622 200.261,310.337 198.276 C 311.838 196.538,312.351 195.600,311.800 195.600 C 311.690 195.600,311.600 195.757,311.600 195.948 M330.064 197.211 C 330.029 197.987,329.712 199.034,329.359 199.537 C 329.007 200.040,328.813 200.547,328.930 200.663 C 329.374 201.107,330.440 198.290,330.287 197.075 L 330.128 195.800 330.064 197.211 M58.864 197.800 C 58.849 198.460,59.100 199.540,59.422 200.200 C 59.918 201.215,59.972 201.246,59.769 200.400 C 59.638 199.850,59.387 198.770,59.211 198.000 C 58.896 196.617,58.892 196.615,58.864 197.800 M265.527 198.614 C 264.531 199.155,263.683 200.617,264.115 201.049 C 264.219 201.152,264.413 200.802,264.547 200.269 C 264.811 199.217,266.163 198.519,268.400 198.278 C 269.783 198.130,269.781 198.127,268.200 198.080 C 267.320 198.054,266.117 198.294,265.527 198.614 M105.000 199.600 C 104.340 200.037,103.980 200.392,104.200 200.388 C 104.601 200.382,106.776 198.823,106.400 198.812 C 106.290 198.808,105.660 199.163,105.000 199.600 M187.400 199.600 C 187.250 200.073,187.217 200.550,187.327 200.660 C 187.437 200.770,187.650 200.473,187.800 200.000 C 187.950 199.527,187.983 199.050,187.873 198.940 C 187.763 198.830,187.550 199.127,187.400 199.600 M238.491 200.100 C 237.810 201.984,237.904 202.494,238.626 200.830 C 238.953 200.077,239.166 199.299,239.101 199.102 C 239.035 198.905,238.760 199.354,238.491 200.100 M272.400 199.366 C 272.950 199.660,273.850 200.012,274.400 200.149 C 274.950 200.286,274.680 200.052,273.800 199.629 C 271.990 198.758,270.868 198.548,272.400 199.366 M99.800 201.826 C 97.820 202.579,95.750 203.220,95.200 203.252 C 94.244 203.306,94.240 203.317,95.111 203.484 C 96.045 203.663,103.059 201.352,103.437 200.741 C 103.699 200.316,104.034 200.216,99.800 201.826 M277.200 201.200 C 278.190 201.615,279.270 201.955,279.600 201.955 C 279.930 201.955,279.390 201.615,278.400 201.200 C 277.410 200.785,276.330 200.445,276.000 200.445 C 275.670 200.445,276.210 200.785,277.200 201.200 M210.027 201.240 C 209.996 201.977,210.824 204.509,211.029 204.304 C 211.104 204.229,210.915 203.365,210.609 202.384 C 210.304 201.403,210.041 200.888,210.027 201.240 M159.234 201.600 C 159.237 202.339,160.322 204.777,160.368 204.146 C 160.385 203.896,160.137 203.086,159.816 202.346 C 159.494 201.606,159.232 201.270,159.234 201.600 M60.030 201.874 C 59.781 205.757,70.923 217.395,74.687 217.182 C 74.859 217.173,74.280 216.792,73.400 216.337 C 67.075 213.066,62.878 208.585,60.531 202.600 C 60.273 201.940,60.047 201.613,60.030 201.874 M302.200 202.475 C 301.540 202.698,300.280 203.034,299.400 203.222 L 297.800 203.563 299.600 203.395 C 301.751 203.194,305.867 202.051,304.400 202.061 C 303.850 202.065,302.860 202.252,302.200 202.475 M237.040 204.640 C 236.653 205.867,236.409 206.942,236.497 207.030 C 236.585 207.118,236.973 206.187,237.360 204.960 C 237.747 203.733,237.991 202.658,237.903 202.570 C 237.815 202.482,237.427 203.413,237.040 204.640 M327.266 203.861 C 325.028 208.224,320.279 212.549,314.837 215.182 C 313.285 215.933,312.084 216.618,312.170 216.703 C 312.369 216.903,318.685 213.757,319.406 213.099 C 319.706 212.824,320.548 212.167,321.276 211.638 C 323.654 209.911,328.840 203.106,328.237 202.504 C 328.137 202.404,327.701 203.015,327.266 203.861 M186.288 204.888 C 186.167 205.609,185.932 206.545,185.766 206.966 C 185.565 207.474,185.609 207.641,185.897 207.464 C 186.350 207.184,187.017 204.083,186.694 203.761 C 186.592 203.659,186.410 204.166,186.288 204.888 M211.655 207.600 C 211.639 208.150,211.975 209.320,212.400 210.200 C 212.825 211.080,213.179 211.563,213.186 211.274 C 213.194 210.984,212.989 210.354,212.731 209.874 C 212.472 209.393,212.131 208.460,211.971 207.800 C 211.709 206.713,211.679 206.694,211.655 207.600 M111.692 209.534 C 108.870 212.139,104.588 214.837,101.004 216.270 C 99.682 216.798,99.140 217.123,99.800 216.991 C 102.771 216.397,111.358 211.105,113.402 208.607 C 114.379 207.413,115.502 207.524,116.213 208.885 C 116.591 209.608,117.154 210.682,117.464 211.270 C 118.231 212.724,122.221 216.801,122.874 216.797 C 123.163 216.796,122.929 216.481,122.353 216.097 C 120.905 215.133,119.286 213.156,117.395 210.043 C 115.335 206.652,114.860 206.610,111.692 209.534 M235.222 210.660 C 234.356 213.303,232.994 215.221,231.099 216.465 C 231.044 216.501,228.030 216.646,224.400 216.788 L 217.800 217.047 223.774 217.124 C 232.159 217.231,233.578 216.487,235.591 210.929 C 236.083 209.570,236.422 208.281,236.343 208.065 C 236.264 207.848,235.760 209.016,235.222 210.660 M264.025 209.299 C 263.969 210.855,270.028 215.696,271.889 215.581 C 272.060 215.570,271.171 215.030,269.914 214.381 C 267.490 213.130,264.972 210.883,264.397 209.458 C 264.121 208.775,264.046 208.742,264.025 209.299 M162.428 211.400 C 162.428 211.620,162.686 212.250,163.000 212.800 C 163.314 213.350,163.572 213.620,163.572 213.400 C 163.572 213.180,163.314 212.550,163.000 212.000 C 162.686 211.450,162.428 211.180,162.428 211.400 M183.757 213.171 C 183.099 214.646,182.529 215.250,181.157 215.930 C 180.191 216.408,179.649 216.800,179.953 216.800 C 181.627 216.801,185.208 212.905,184.723 211.611 C 184.656 211.430,184.221 212.132,183.757 213.171 M213.387 213.000 C 213.664 214.378,216.047 216.809,217.094 216.782 C 217.515 216.772,217.182 216.439,216.269 215.957 C 215.250 215.419,214.472 214.589,213.942 213.475 C 213.277 212.075,213.185 211.997,213.387 213.000 M131.515 213.733 C 130.555 214.466,129.416 215.270,128.985 215.521 C 128.553 215.771,128.400 215.981,128.645 215.988 C 128.890 215.995,129.741 215.505,130.536 214.900 C 131.331 214.295,132.391 213.493,132.891 213.118 C 133.391 212.743,133.679 212.428,133.531 212.418 C 133.382 212.408,132.476 213.000,131.515 213.733 M163.971 214.661 C 164.900 216.587,167.331 217.207,173.626 217.124 L 179.400 217.048 173.200 216.824 C 166.786 216.592,165.720 216.310,164.078 214.406 C 163.637 213.894,163.620 213.933,163.971 214.661 M274.000 216.366 C 274.330 216.554,275.230 216.817,276.000 216.951 L 277.400 217.193 276.000 216.627 C 274.374 215.970,272.987 215.789,274.000 216.366 M124.305 217.083 C 124.802 217.179,125.522 217.175,125.905 217.075 C 126.287 216.975,125.880 216.896,125.000 216.901 C 124.120 216.905,123.807 216.987,124.305 217.083 M279.400 217.809 C 280.500 218.092,281.850 218.322,282.400 218.321 C 282.950 218.319,282.320 218.074,281.000 217.776 C 277.976 217.094,276.718 217.120,279.400 217.809 M77.000 218.000 C 77.440 218.189,78.160 218.338,78.600 218.332 C 79.243 218.323,79.204 218.257,78.400 218.000 C 77.032 217.562,75.981 217.562,77.000 218.000 M306.800 218.000 C 305.996 218.257,305.957 218.323,306.600 218.332 C 307.040 218.338,307.760 218.189,308.200 218.000 C 309.219 217.562,308.168 217.562,306.800 218.000 M85.911 219.093 C 86.851 219.178,88.291 219.177,89.111 219.091 C 89.930 219.005,89.160 218.936,87.400 218.937 C 85.640 218.939,84.970 219.009,85.911 219.093 M290.100 219.476 C 290.485 219.576,291.115 219.576,291.500 219.476 C 291.885 219.375,291.570 219.293,290.800 219.293 C 290.030 219.293,289.715 219.375,290.100 219.476 M298.705 219.483 C 299.202 219.579,299.922 219.575,300.305 219.475 C 300.687 219.375,300.280 219.296,299.400 219.301 C 298.520 219.305,298.207 219.387,298.705 219.483 M294.705 219.883 C 295.202 219.979,295.922 219.975,296.305 219.875 C 296.687 219.775,296.280 219.696,295.400 219.701 C 294.520 219.705,294.207 219.787,294.705 219.883 M308.200 235.781 C 307.100 236.084,305.210 236.603,304.000 236.934 C 298.022 238.567,291.185 241.361,288.897 243.106 C 281.136 249.025,286.249 252.351,300.200 250.457 C 310.528 249.055,324.576 250.187,326.094 252.544 C 327.328 254.460,325.977 263.367,323.841 267.400 C 323.491 268.060,323.204 269.184,323.202 269.898 C 323.199 271.596,321.913 275.326,319.787 279.800 C 313.428 293.184,320.282 296.925,329.679 285.200 C 332.980 281.082,339.074 269.743,339.802 266.365 C 339.964 265.614,340.324 264.550,340.602 264.000 C 341.935 261.364,343.291 254.889,343.498 250.172 C 343.923 240.501,343.134 238.820,337.178 236.701 L 333.800 235.500 322.000 235.364 C 312.859 235.259,309.749 235.353,308.200 235.781 M330.800 237.620 C 339.552 239.015,341.593 240.872,341.598 247.448 C 341.608 260.139,333.658 278.668,324.543 287.193 C 319.358 292.044,317.518 289.395,321.180 282.352 C 322.694 279.440,324.183 275.277,325.525 270.200 C 325.758 269.320,326.417 267.070,326.991 265.200 C 330.034 255.276,328.403 249.698,322.071 248.368 C 319.411 247.809,304.255 247.833,299.872 248.402 C 292.406 249.372,286.995 248.753,288.262 247.073 C 293.439 240.209,315.825 235.234,330.800 237.620 M49.074 241.236 C 46.844 241.847,45.835 243.456,46.275 245.700 C 46.639 247.553,54.327 255.023,59.000 258.061 C 62.342 260.235,63.694 261.286,67.536 264.701 C 68.341 265.416,69.563 266.269,70.251 266.596 C 70.939 266.923,72.355 267.896,73.398 268.758 C 74.441 269.620,75.940 270.657,76.729 271.062 C 77.518 271.468,80.470 273.105,83.289 274.700 C 86.108 276.295,88.511 277.600,88.629 277.600 C 88.746 277.600,90.678 278.652,92.921 279.938 C 95.164 281.224,98.080 282.771,99.400 283.374 C 100.720 283.978,103.060 285.083,104.600 285.830 C 109.354 288.135,115.732 290.724,119.245 291.775 C 124.175 293.250,126.453 293.996,127.802 294.576 C 128.462 294.861,129.632 295.228,130.402 295.393 C 131.171 295.558,132.006 295.857,132.257 296.059 C 132.508 296.261,134.038 296.683,135.657 296.997 C 137.276 297.311,139.950 297.939,141.600 298.392 C 145.825 299.552,155.673 301.471,159.000 301.783 C 160.540 301.927,162.610 302.292,163.600 302.593 C 170.814 304.788,213.112 304.793,223.000 302.600 C 224.320 302.307,227.169 301.859,229.330 301.604 C 233.743 301.082,240.992 299.673,245.800 298.403 C 247.560 297.938,249.990 297.325,251.200 297.041 C 252.410 296.758,254.750 296.034,256.400 295.433 C 258.050 294.832,260.348 294.164,261.506 293.949 C 262.665 293.733,265.995 292.655,268.906 291.552 C 271.818 290.449,275.010 289.308,276.000 289.016 C 278.309 288.336,280.730 287.292,282.000 286.429 C 282.550 286.055,284.170 285.250,285.600 284.640 C 289.974 282.773,300.905 277.246,302.600 276.044 C 305.446 274.026,308.760 271.976,310.096 271.408 C 314.663 269.466,318.460 263.357,316.921 260.428 C 314.531 255.881,310.553 255.537,303.200 259.242 C 300.455 260.625,295.821 262.354,294.785 262.383 C 294.446 262.392,293.502 262.740,292.687 263.156 C 290.425 264.309,278.834 268.107,274.856 268.999 C 273.615 269.277,272.060 269.694,271.400 269.925 C 269.502 270.590,264.489 271.884,261.000 272.610 C 259.240 272.976,256.270 273.615,254.400 274.030 C 251.015 274.781,247.932 275.298,242.600 276.009 C 241.060 276.214,237.100 276.747,233.800 277.193 C 208.115 280.663,184.008 280.874,164.200 277.801 C 162.220 277.493,159.610 277.139,158.400 277.014 C 151.022 276.249,130.039 272.356,126.600 271.113 C 125.720 270.796,123.200 270.129,121.000 269.632 C 118.800 269.134,116.370 268.473,115.600 268.163 C 114.830 267.852,111.590 266.785,108.400 265.791 C 99.869 263.133,97.513 262.340,96.400 261.753 C 94.925 260.974,90.770 259.348,89.463 259.037 C 88.838 258.888,86.678 257.984,84.663 257.028 C 82.648 256.072,79.740 254.790,78.200 254.179 C 76.660 253.568,74.608 252.648,73.640 252.134 C 72.673 251.620,71.663 251.200,71.396 251.200 C 70.944 251.200,69.300 250.381,62.200 246.619 C 60.660 245.803,58.447 244.505,57.282 243.734 C 54.702 242.028,50.668 240.800,49.074 241.236 M57.200 246.347 C 66.539 251.161,71.079 253.456,72.600 254.134 C 81.798 258.230,85.015 259.590,90.000 261.490 C 93.190 262.705,95.980 263.836,96.200 264.003 C 96.722 264.398,111.899 269.270,116.800 270.615 C 118.890 271.189,122.413 272.176,124.628 272.809 C 129.248 274.128,132.843 274.940,138.800 276.009 C 153.761 278.693,156.487 279.150,159.000 279.396 C 160.540 279.547,162.431 279.829,163.202 280.024 C 165.051 280.491,180.140 281.486,190.200 281.805 C 198.600 282.071,218.204 281.484,224.000 280.793 C 233.210 279.696,234.858 279.481,238.200 278.941 C 240.180 278.621,243.870 278.025,246.400 277.617 C 258.551 275.655,278.826 270.536,289.800 266.658 C 295.364 264.692,304.250 261.262,306.527 260.201 C 311.697 257.792,315.200 258.896,315.200 262.934 C 315.200 264.535,312.447 267.357,308.700 269.597 C 307.545 270.287,305.832 271.394,304.892 272.057 C 296.265 278.148,277.639 286.550,261.000 291.857 C 259.240 292.418,256.720 293.234,255.400 293.671 C 251.287 295.031,234.123 298.823,227.600 299.813 C 188.402 305.760,148.946 301.280,112.250 286.717 C 102.280 282.760,78.232 270.118,74.800 267.029 C 74.250 266.534,72.810 265.539,71.600 264.817 C 70.390 264.095,68.146 262.491,66.614 261.252 C 65.081 260.013,61.904 257.560,59.552 255.800 C 50.653 249.140,47.561 245.544,49.217 243.782 C 50.183 242.754,50.308 242.794,57.200 246.347 " stroke="none" fill="#6c5532" fill-rule="evenodd"></path><path id="path4" d="M87.678 125.630 C 85.851 125.806,83.601 126.218,82.678 126.546 C 81.755 126.873,79.200 127.708,77.000 128.402 C 65.903 131.901,65.062 132.697,64.867 139.898 L 64.735 144.796 65.937 145.998 C 67.349 147.411,68.611 147.523,70.956 146.444 C 80.924 141.858,91.382 140.026,99.800 141.391 C 108.860 142.859,112.331 147.063,113.101 157.499 C 113.691 165.488,113.062 166.271,107.373 164.632 C 100.293 162.591,86.658 162.774,79.489 165.004 C 76.379 165.972,75.174 166.513,71.174 168.736 C 67.126 170.987,61.437 178.276,60.143 182.872 C 58.819 187.577,58.732 188.336,58.935 193.400 C 59.207 200.178,60.187 203.164,63.925 208.600 C 73.070 221.899,97.527 222.365,111.769 209.511 C 114.966 206.625,115.336 206.661,117.396 210.047 C 122.361 218.211,124.338 218.608,132.548 213.089 C 136.798 210.232,137.214 207.899,134.417 202.600 C 131.789 197.621,131.603 195.762,131.602 174.398 C 131.599 148.828,130.996 144.634,126.268 137.292 C 120.100 127.716,107.017 123.762,87.678 125.630 M291.400 125.615 C 278.369 127.039,266.954 136.875,265.520 147.913 C 263.672 162.144,271.189 172.182,287.600 177.403 C 305.377 183.057,307.994 184.194,310.617 187.395 C 314.391 192.000,311.435 200.416,305.474 202.039 C 304.553 202.290,302.967 202.751,301.949 203.063 C 299.965 203.673,289.906 203.905,287.000 203.410 C 282.319 202.611,277.851 201.483,275.000 200.382 C 265.875 196.855,264.000 197.648,264.000 205.034 C 264.000 213.093,269.330 216.195,287.675 218.811 C 305.249 221.316,321.722 214.980,327.455 203.510 C 327.925 202.570,328.728 200.990,329.239 200.000 C 330.673 197.223,330.663 186.230,329.222 182.400 C 327.138 176.860,322.534 171.908,317.291 169.567 C 316.251 169.103,314.860 168.454,314.200 168.124 C 312.701 167.376,309.552 166.264,305.400 165.017 C 299.419 163.220,291.066 160.330,290.031 159.700 C 285.056 156.669,283.596 154.698,283.609 151.031 C 283.630 145.256,287.049 142.146,294.631 141.003 C 301.039 140.037,309.849 140.812,314.400 142.741 C 324.165 146.880,325.781 146.278,325.767 138.506 C 325.761 134.612,325.702 134.330,324.564 132.710 C 320.883 127.473,305.164 124.110,291.400 125.615 M101.831 126.823 C 116.097 128.205,124.354 133.690,127.989 144.200 C 129.587 148.822,129.675 150.125,129.967 173.400 C 130.279 198.315,130.185 197.424,133.176 203.639 C 135.500 208.469,135.340 209.088,130.956 212.216 C 124.937 216.512,123.312 216.243,119.354 210.301 C 115.921 205.145,114.760 204.500,112.770 206.644 C 100.893 219.437,76.873 220.941,66.618 209.535 C 59.617 201.748,58.244 187.779,63.594 178.766 C 69.317 169.124,84.040 163.026,97.400 164.764 C 102.219 165.390,110.888 166.745,111.841 167.020 C 116.852 168.465,115.756 150.354,110.492 144.726 C 105.842 139.755,93.504 137.892,83.400 140.635 C 82.080 140.993,80.370 141.440,79.600 141.627 C 78.830 141.814,76.167 142.695,73.682 143.584 C 71.197 144.473,68.809 145.200,68.376 145.200 C 65.765 145.200,65.110 137.845,67.458 134.895 C 70.024 131.670,80.221 128.102,90.000 127.006 C 96.003 126.333,96.667 126.323,101.831 126.823 M307.400 127.444 C 319.899 129.305,324.400 132.330,324.400 138.871 C 324.400 144.107,323.593 144.448,316.931 142.025 C 296.126 134.458,276.798 141.836,282.941 155.000 C 285.109 159.646,287.800 160.999,307.600 167.396 C 323.164 172.425,329.007 178.977,328.893 191.274 C 328.725 209.376,311.822 220.166,288.196 217.253 C 271.718 215.221,265.555 211.945,265.623 205.251 C 265.678 199.755,267.047 199.011,272.825 201.340 C 293.168 209.542,313.655 205.167,313.758 192.600 C 313.815 185.550,309.854 182.649,293.200 177.546 C 275.944 172.258,270.639 168.245,267.745 158.292 C 261.942 138.332,280.992 123.514,307.400 127.444 M140.102 128.500 C 138.247 130.493,138.434 131.879,142.190 144.000 C 142.497 144.990,142.870 146.430,143.019 147.200 C 143.169 147.970,143.630 149.355,144.045 150.278 C 144.460 151.201,144.800 152.251,144.800 152.611 C 144.800 152.971,145.626 155.816,146.636 158.933 C 147.646 162.050,148.808 165.770,149.217 167.200 C 151.154 173.965,154.720 185.727,156.250 190.400 C 156.574 191.390,157.092 193.208,157.401 194.441 C 157.710 195.673,158.137 197.113,158.349 197.641 C 158.562 198.168,159.215 200.220,159.802 202.200 C 164.109 216.739,164.167 216.800,173.618 216.800 C 181.437 216.800,184.769 214.877,184.796 210.350 C 184.798 209.993,185.081 208.913,185.424 207.950 C 185.767 206.988,186.380 204.670,186.786 202.800 C 188.003 197.195,189.108 192.662,189.516 191.600 C 189.728 191.050,190.029 189.610,190.186 188.400 C 190.343 187.190,190.795 185.030,191.190 183.600 C 191.585 182.170,192.306 179.200,192.793 177.000 C 193.280 174.800,194.123 171.470,194.667 169.600 C 195.210 167.730,195.827 165.300,196.039 164.200 C 198.156 153.177,199.173 152.244,200.566 160.049 C 201.119 163.146,204.191 175.270,205.724 180.400 C 206.085 181.610,206.760 184.670,207.224 187.200 C 207.997 191.416,209.036 195.934,210.673 202.200 C 211.018 203.520,211.536 205.590,211.824 206.800 C 212.112 208.010,212.705 210.021,213.143 211.269 C 214.938 216.388,215.731 216.800,223.797 216.800 C 232.093 216.800,233.481 216.007,235.350 210.200 C 236.807 205.673,240.528 193.666,241.797 189.400 C 242.386 187.420,243.112 185.170,243.411 184.400 C 243.709 183.630,244.068 182.550,244.209 182.000 C 244.349 181.450,244.793 180.100,245.195 179.000 C 245.597 177.900,246.329 175.560,246.823 173.800 C 248.500 167.814,250.080 162.605,250.828 160.600 C 251.238 159.500,251.785 157.700,252.044 156.600 C 252.303 155.500,252.645 154.420,252.804 154.200 C 253.168 153.695,254.507 149.527,256.210 143.600 C 256.937 141.070,257.828 138.190,258.191 137.200 C 259.531 133.542,259.490 130.228,258.087 128.825 L 256.862 127.600 250.811 127.600 C 242.015 127.600,241.661 127.880,239.393 136.638 C 238.601 139.697,237.581 143.460,237.126 145.000 C 236.329 147.699,235.552 150.632,234.046 156.628 C 233.656 158.184,233.206 159.667,233.046 159.925 C 232.887 160.183,232.578 161.520,232.360 162.897 C 232.142 164.274,231.703 166.300,231.385 167.400 C 231.068 168.500,230.526 170.480,230.181 171.800 C 229.837 173.120,229.130 175.820,228.610 177.800 C 228.090 179.780,227.126 183.507,226.468 186.081 C 225.066 191.566,223.600 194.145,223.600 191.125 C 223.600 190.717,223.247 189.082,222.817 187.492 C 221.912 184.152,220.954 180.115,220.187 176.400 C 219.362 172.409,218.455 168.842,217.594 166.200 C 217.163 164.880,216.524 162.270,216.174 160.400 C 215.824 158.530,215.214 155.740,214.818 154.200 C 214.423 152.660,213.696 149.510,213.202 147.200 C 212.709 144.890,211.980 141.830,211.584 140.400 C 211.187 138.970,210.750 137.080,210.612 136.200 C 209.447 128.774,207.875 127.600,199.102 127.600 C 190.906 127.600,188.663 128.987,187.841 134.564 C 187.708 135.464,187.247 137.550,186.817 139.200 C 186.386 140.850,185.643 144.000,185.164 146.200 C 184.686 148.400,183.847 151.910,183.299 154.000 C 182.751 156.090,181.980 159.420,181.585 161.400 C 181.191 163.380,180.697 165.450,180.489 166.000 C 180.280 166.550,179.977 167.900,179.815 169.000 C 179.653 170.100,179.328 171.360,179.092 171.800 C 178.856 172.240,178.343 174.130,177.952 176.000 C 177.561 177.870,176.799 181.300,176.259 183.622 C 175.719 185.945,175.150 188.860,174.995 190.101 L 174.713 192.358 173.757 191.221 C 173.230 190.596,172.800 189.780,172.800 189.408 C 172.800 189.036,172.154 186.272,171.364 183.266 C 170.574 180.260,169.700 176.810,169.421 175.600 C 168.598 172.028,167.957 169.552,167.193 167.000 C 166.798 165.680,166.345 163.700,166.185 162.600 C 166.026 161.500,165.652 159.970,165.354 159.200 C 165.056 158.430,164.557 156.630,164.246 155.200 C 163.934 153.770,163.282 151.160,162.795 149.400 C 161.999 146.518,160.482 140.827,158.585 133.602 C 157.192 128.294,155.965 127.639,147.370 127.617 C 141.205 127.601,140.905 127.637,140.102 128.500 M154.157 129.806 C 156.271 130.809,156.809 132.103,159.230 142.000 C 159.634 143.650,161.429 150.670,163.219 157.600 C 165.008 164.530,166.696 171.190,166.970 172.400 C 167.243 173.610,167.668 175.230,167.914 176.000 C 168.159 176.770,168.619 178.480,168.935 179.800 C 170.901 188.006,172.876 195.001,173.303 195.278 C 174.797 196.243,175.379 195.050,177.027 187.654 C 178.982 178.876,182.027 165.819,184.969 153.600 C 185.949 149.530,186.942 145.300,187.175 144.200 C 190.295 129.480,190.633 129.077,199.673 129.273 L 205.550 129.400 206.770 130.570 C 207.482 131.253,208.096 132.336,208.243 133.170 C 208.383 133.957,209.170 137.300,209.994 140.600 C 210.817 143.900,211.617 147.320,211.770 148.200 C 211.923 149.080,212.298 150.700,212.603 151.800 C 213.167 153.837,213.901 156.872,215.215 162.600 C 215.619 164.360,216.305 167.240,216.741 169.000 C 217.176 170.760,218.356 175.800,219.361 180.200 C 224.294 201.784,224.088 201.788,229.622 180.000 C 230.042 178.350,231.285 173.580,232.385 169.400 C 233.486 165.220,235.565 157.120,237.007 151.400 C 238.448 145.680,239.880 140.280,240.188 139.400 C 240.497 138.520,240.863 137.102,241.002 136.249 C 241.508 133.153,243.036 130.428,244.643 129.756 C 246.539 128.964,256.457 129.093,257.281 129.921 C 257.877 130.518,257.885 134.161,257.293 134.912 C 257.082 135.180,256.325 137.380,255.612 139.800 C 253.341 147.509,249.611 159.660,248.183 164.000 C 246.768 168.297,242.084 183.426,239.946 190.600 C 239.290 192.800,238.051 196.760,237.192 199.400 C 236.333 202.040,235.163 205.730,234.592 207.600 C 232.374 214.863,231.617 215.362,223.156 215.141 C 214.803 214.923,215.751 216.397,210.857 196.000 C 209.986 192.370,208.969 188.140,208.597 186.600 C 208.225 185.060,207.760 182.990,207.565 182.000 C 207.370 181.010,206.860 179.030,206.430 177.600 C 205.698 175.159,203.577 166.371,201.575 157.479 C 199.420 147.910,197.897 148.651,195.163 160.600 C 194.257 164.560,193.190 169.150,192.794 170.800 C 192.397 172.450,191.776 175.060,191.414 176.600 C 191.052 178.140,190.426 180.570,190.024 182.000 C 189.622 183.430,188.892 186.400,188.402 188.600 C 187.200 193.997,184.560 205.073,183.548 208.967 C 182.069 214.655,181.197 215.200,173.566 215.200 C 165.429 215.200,165.006 214.796,161.853 204.000 C 158.744 193.356,157.778 190.102,156.333 185.400 C 155.454 182.540,154.379 179.030,153.945 177.600 C 153.510 176.170,152.822 173.920,152.416 172.600 C 152.010 171.280,151.218 168.670,150.656 166.800 C 150.094 164.930,148.360 159.170,146.803 154.000 C 145.246 148.830,143.523 143.070,142.976 141.200 C 142.428 139.330,141.624 136.720,141.190 135.400 C 140.032 131.882,140.159 130.040,141.600 129.492 C 143.019 128.951,152.876 129.198,154.157 129.806 M88.139 176.367 C 78.498 178.986,74.269 187.162,77.389 197.149 C 80.733 207.855,101.420 207.965,110.289 197.324 C 114.559 192.201,116.570 180.152,113.533 177.888 C 110.919 175.940,93.543 174.899,88.139 176.367 M105.600 177.587 C 106.590 177.773,108.480 178.120,109.800 178.358 C 112.852 178.907,113.201 179.401,113.198 183.176 C 113.193 189.633,111.676 193.960,108.214 197.400 C 101.331 204.237,86.259 205.984,81.124 200.541 C 75.500 194.580,78.447 180.635,85.723 178.780 C 86.426 178.601,87.720 178.180,88.600 177.845 C 90.402 177.158,102.362 176.977,105.600 177.587 M49.258 243.738 C 48.192 244.873,48.153 246.240,49.172 246.785 C 49.884 247.166,49.916 247.103,49.593 245.977 C 49.313 245.000,49.396 244.604,50.007 243.993 C 50.427 243.573,50.624 243.138,50.444 243.027 C 50.264 242.916,49.730 243.236,49.258 243.738 M288.430 246.900 C 287.678 248.105,287.669 248.060,288.755 248.462 C 289.525 248.747,289.625 248.713,289.272 248.287 C 289.031 247.996,288.937 247.363,289.063 246.879 C 289.357 245.755,289.141 245.762,288.430 246.900 M319.306 288.600 C 319.381 289.553,319.606 289.823,320.400 289.911 C 321.288 290.009,321.319 289.972,320.674 289.577 C 320.275 289.332,319.783 288.742,319.581 288.266 C 319.256 287.501,319.224 287.540,319.306 288.600 " stroke="none" fill="#757c84" fill-rule="evenodd"></path></g></svg>