<svg id="svg" version="1.1" xmlns="http://www.w3.org/2000/svg" xmlns:xlink="http://www.w3.org/1999/xlink" width="400" height="400" viewBox="0, 0, 400,400"><g id="svgg"><path id="path0" d="M152.800 131.870 C 135.726 132.687,116.185 142.685,107.986 154.800 C 107.465 155.570,106.918 156.290,106.771 156.400 C 103.800 158.622,97.261 173.351,96.028 180.600 C 95.766 182.140,95.382 184.269,95.176 185.331 C 94.696 187.794,94.683 212.133,95.159 214.680 C 95.357 215.736,95.740 217.860,96.011 219.400 C 98.592 234.057,108.523 248.989,121.602 257.879 C 123.198 258.964,124.019 259.456,127.045 261.146 C 130.720 263.198,137.860 265.836,142.200 266.744 C 147.680 267.891,149.227 268.044,155.346 268.044 C 161.407 268.044,164.679 267.732,168.400 266.798 C 169.170 266.605,170.700 266.240,171.800 265.987 C 173.768 265.533,174.311 265.356,176.500 264.454 C 177.105 264.204,178.050 263.820,178.600 263.600 C 182.021 262.232,182.182 262.156,184.755 260.716 C 185.550 260.270,186.678 259.567,187.262 259.153 C 187.846 258.739,188.512 258.400,188.741 258.400 C 190.789 258.400,193.800 253.423,193.800 250.039 C 193.800 242.382,186.862 238.930,179.600 242.973 C 161.848 252.857,143.156 252.387,129.971 241.725 C 121.051 234.511,116.016 226.562,113.550 215.800 C 113.142 214.020,113.000 209.938,113.000 200.000 C 113.000 190.062,113.142 185.980,113.550 184.200 C 117.383 167.472,128.799 155.537,145.200 151.114 C 149.030 150.081,159.445 149.662,162.780 150.406 C 169.279 151.857,172.568 153.125,178.195 156.352 C 183.031 159.125,185.261 159.593,188.118 158.433 C 195.659 155.373,195.943 145.753,188.615 141.601 C 187.837 141.161,186.559 140.437,185.774 139.992 C 184.990 139.548,183.955 138.931,183.474 138.621 C 177.558 134.809,162.171 131.423,152.800 131.870 M241.015 154.823 C 237.345 156.654,236.151 158.689,234.813 165.400 C 234.550 166.720,234.173 168.520,233.976 169.400 C 233.779 170.280,233.412 172.112,233.162 173.471 L 232.707 175.943 227.054 176.137 C 216.899 176.486,213.520 178.749,213.520 185.200 C 213.520 191.220,216.910 193.867,225.141 194.272 L 228.882 194.457 228.614 196.328 C 228.466 197.358,228.191 198.830,228.001 199.600 C 227.811 200.370,227.438 202.023,227.171 203.273 L 226.685 205.547 220.443 205.729 C 211.514 205.990,209.703 206.599,207.355 210.132 C 205.859 212.384,205.733 217.717,207.141 219.228 C 207.613 219.736,208.000 220.276,208.000 220.428 C 208.000 222.153,213.725 224.000,219.072 224.000 L 222.904 224.000 222.658 225.700 C 222.523 226.635,222.225 228.300,221.996 229.400 C 219.998 238.980,220.980 242.729,226.143 245.223 C 232.051 248.078,237.418 244.240,239.012 236.020 C 239.668 232.636,240.181 230.134,240.945 226.600 L 241.463 224.200 250.404 224.092 C 255.321 224.033,259.476 224.123,259.636 224.292 C 259.915 224.586,259.597 226.877,258.734 230.800 C 258.093 233.710,257.856 239.616,258.359 240.119 C 258.601 240.361,258.800 240.830,258.800 241.161 C 258.800 242.002,262.280 245.200,263.197 245.200 C 263.613 245.200,264.064 245.380,264.200 245.600 C 264.650 246.327,268.324 246.039,270.304 245.122 C 273.267 243.749,274.814 241.642,275.682 237.800 C 276.707 233.264,277.588 228.710,277.865 226.517 C 278.162 224.165,278.351 224.089,284.401 223.873 C 291.775 223.609,295.951 222.262,296.009 220.129 C 296.014 219.948,296.370 219.350,296.800 218.800 C 298.598 216.501,296.849 208.000,294.577 208.000 C 294.328 208.000,293.814 207.658,293.436 207.240 C 292.670 206.393,291.073 206.077,285.882 205.745 L 282.363 205.519 282.630 203.660 C 282.777 202.637,283.235 200.193,283.649 198.228 C 284.062 196.264,284.400 194.607,284.400 194.547 C 284.400 194.487,287.235 194.364,290.700 194.273 C 301.668 193.985,305.000 191.871,305.000 185.200 C 305.000 179.006,301.726 176.592,292.600 176.058 C 290.180 175.916,288.222 175.661,288.249 175.490 C 288.730 172.476,289.765 167.128,290.040 166.240 C 292.945 156.874,281.501 149.931,274.949 157.083 C 273.763 158.379,272.000 162.850,272.000 164.565 C 272.000 164.973,271.833 165.958,271.628 166.754 C 271.424 167.549,271.051 169.280,270.800 170.600 C 270.549 171.920,270.168 173.678,269.954 174.507 L 269.563 176.015 260.482 175.907 L 251.400 175.800 251.531 174.200 C 251.603 173.320,252.008 170.988,252.431 169.019 C 253.452 164.263,253.432 161.223,252.364 159.130 C 250.109 154.709,245.074 152.798,241.015 154.823 M265.734 194.700 C 265.912 194.994,264.292 203.862,263.850 205.014 C 263.661 205.505,262.128 205.600,254.363 205.600 L 245.100 205.600 245.398 204.300 C 245.561 203.585,245.845 202.190,246.027 201.200 C 246.938 196.256,247.171 195.170,247.399 194.801 C 247.689 194.332,265.452 194.234,265.734 194.700 " stroke="none" fill="#fafafb" fill-rule="evenodd"></path><path id="path1" d="M179.400 0.477 C 177.420 0.663,174.405 0.916,172.700 1.038 C 170.995 1.161,169.600 1.427,169.600 1.630 C 169.600 1.834,168.610 2.000,167.400 2.000 C 166.190 2.000,165.200 2.180,165.200 2.400 C 165.200 2.620,164.221 2.800,163.024 2.800 C 161.827 2.800,160.736 2.980,160.600 3.200 C 160.464 3.420,159.654 3.600,158.800 3.600 C 157.946 3.600,157.136 3.780,157.000 4.000 C 156.864 4.220,156.043 4.400,155.176 4.400 C 154.309 4.400,153.600 4.580,153.600 4.800 C 153.600 5.020,152.790 5.200,151.800 5.200 C 150.810 5.200,150.000 5.380,150.000 5.600 C 150.000 5.820,149.471 6.000,148.824 6.000 C 148.177 6.000,147.536 6.180,147.400 6.400 C 147.264 6.620,146.634 6.800,146.000 6.800 C 145.366 6.800,144.736 6.980,144.600 7.200 C 144.464 7.420,143.823 7.600,143.176 7.600 C 142.529 7.600,142.000 7.780,142.000 8.000 C 142.000 8.220,141.458 8.400,140.795 8.400 C 140.132 8.400,139.277 8.567,138.895 8.770 C 138.134 9.176,134.557 10.378,133.600 10.549 C 133.270 10.608,132.640 10.796,132.200 10.966 C 131.760 11.137,130.410 11.656,129.200 12.120 C 127.990 12.584,126.563 13.187,126.029 13.461 C 125.494 13.735,124.909 13.868,124.729 13.756 C 124.548 13.644,124.400 13.743,124.400 13.976 C 124.400 14.209,123.950 14.400,123.400 14.400 C 122.850 14.400,122.400 14.580,122.400 14.800 C 122.400 15.020,122.128 15.200,121.795 15.200 C 121.462 15.200,120.877 15.359,120.495 15.554 C 117.212 17.228,114.596 18.400,114.144 18.400 C 113.845 18.400,113.600 18.580,113.600 18.800 C 113.600 19.020,113.240 19.200,112.800 19.200 C 112.360 19.200,112.000 19.380,112.000 19.600 C 112.000 19.820,111.640 20.000,111.200 20.000 C 110.760 20.000,110.399 20.135,110.399 20.300 C 110.398 20.465,109.408 21.050,108.200 21.600 C 106.992 22.150,106.002 22.735,106.001 22.900 C 106.001 23.065,105.640 23.200,105.200 23.200 C 104.760 23.200,104.400 23.380,104.400 23.600 C 104.400 23.820,104.040 24.000,103.600 24.000 C 103.160 24.000,102.800 24.180,102.800 24.400 C 102.800 24.620,102.530 24.800,102.200 24.800 C 101.870 24.800,101.600 24.936,101.600 25.102 C 101.600 25.269,101.015 25.656,100.300 25.963 C 98.459 26.754,92.745 30.247,90.600 31.893 C 90.380 32.062,89.523 32.557,88.695 32.994 C 87.867 33.430,86.750 34.195,86.212 34.694 C 85.675 35.192,84.946 35.600,84.594 35.600 C 84.241 35.600,84.064 35.780,84.200 36.000 C 84.336 36.220,84.167 36.400,83.824 36.400 C 83.481 36.400,83.200 36.550,83.200 36.732 C 83.200 36.915,82.705 37.319,82.100 37.630 C 80.728 38.334,79.600 39.540,79.600 40.302 C 79.600 40.621,77.746 43.608,75.480 46.941 C 71.226 53.197,71.005 53.551,67.256 60.100 C 66.847 60.815,65.975 62.305,65.319 63.411 C 64.663 64.516,63.530 66.676,62.801 68.211 C 62.072 69.745,60.550 72.890,59.418 75.200 C 58.287 77.510,56.947 80.480,56.442 81.800 C 55.936 83.120,55.376 84.560,55.199 85.000 C 52.595 91.439,50.921 96.259,49.156 102.400 C 48.682 104.050,48.034 106.210,47.716 107.200 C 47.176 108.877,46.504 111.821,44.973 119.200 C 44.631 120.850,44.193 122.830,43.999 123.600 C 42.656 128.930,40.803 151.038,40.797 161.802 C 40.789 176.348,43.917 198.547,47.871 212.000 C 48.421 213.870,49.035 215.985,49.235 216.700 C 49.436 217.415,49.764 218.585,49.965 219.300 C 50.166 220.015,51.080 222.670,51.995 225.200 C 52.911 227.730,53.805 230.250,53.981 230.800 C 54.157 231.350,54.618 232.520,55.006 233.400 C 55.394 234.280,55.850 235.360,56.019 235.800 C 57.378 239.327,64.642 254.267,66.716 257.800 C 67.103 258.460,67.946 259.900,68.590 261.000 C 71.110 265.309,77.507 274.823,80.769 279.113 C 82.656 281.594,84.684 284.261,85.275 285.038 C 91.242 292.878,106.190 307.735,115.854 315.431 C 121.952 320.287,133.651 328.393,138.700 331.261 C 139.415 331.668,140.675 332.379,141.500 332.843 C 142.325 333.306,143.180 333.831,143.401 334.009 C 144.845 335.177,161.932 343.259,167.000 345.172 C 168.320 345.670,169.760 346.230,170.200 346.415 C 170.640 346.600,172.170 347.141,173.600 347.617 C 175.030 348.093,176.560 348.626,177.000 348.801 C 178.870 349.545,180.505 350.053,185.800 351.534 C 192.117 353.301,192.901 353.495,200.500 355.176 C 203.666 355.877,208.490 356.687,213.800 357.410 C 230.777 359.722,248.471 359.717,267.142 357.395 C 271.684 356.830,275.640 356.285,275.933 356.184 C 276.429 356.013,280.006 355.242,287.200 353.756 C 288.850 353.415,291.325 352.790,292.700 352.368 C 295.599 351.478,299.901 350.194,302.200 349.534 C 303.789 349.077,308.241 347.442,316.104 344.426 C 326.556 340.416,342.126 332.049,353.055 324.568 C 356.451 322.244,359.447 320.416,359.713 320.504 C 360.261 320.687,362.776 318.068,362.791 317.300 C 362.796 317.025,362.950 316.800,363.132 316.800 C 363.315 316.800,363.720 316.305,364.032 315.700 C 364.344 315.095,364.701 314.510,364.826 314.400 C 365.381 313.911,367.600 310.414,367.600 310.028 C 367.600 309.793,367.750 309.600,367.932 309.600 C 368.115 309.600,368.520 309.105,368.832 308.500 C 369.144 307.895,369.514 307.310,369.655 307.200 C 370.148 306.816,375.200 298.129,375.200 297.667 C 375.200 297.410,375.380 297.200,375.600 297.200 C 375.820 297.200,376.000 296.840,376.000 296.400 C 376.000 295.960,376.180 295.600,376.400 295.600 C 376.620 295.600,376.800 295.240,376.800 294.800 C 376.800 294.360,376.980 294.000,377.200 294.000 C 377.420 294.000,377.600 293.640,377.600 293.200 C 377.600 292.760,377.736 292.400,377.902 292.400 C 378.069 292.400,378.459 291.815,378.770 291.100 C 379.081 290.385,379.440 289.710,379.568 289.600 C 380.040 289.194,380.800 287.592,380.800 287.005 C 380.800 286.672,380.980 286.400,381.200 286.400 C 381.420 286.400,381.600 286.040,381.600 285.600 C 381.600 285.160,381.780 284.800,382.000 284.800 C 382.220 284.800,382.400 284.564,382.400 284.275 C 382.400 283.986,382.824 282.861,383.343 281.775 C 383.862 280.689,384.597 279.080,384.977 278.200 C 385.357 277.320,385.832 276.287,386.034 275.905 C 386.235 275.523,386.400 274.936,386.400 274.600 C 386.400 274.264,386.565 273.677,386.766 273.295 C 388.180 270.615,391.600 260.476,391.600 258.966 C 391.600 258.392,391.774 258.060,392.000 258.200 C 392.238 258.347,392.400 257.871,392.400 257.024 C 392.400 256.241,392.580 255.600,392.800 255.600 C 393.020 255.600,393.200 254.981,393.200 254.224 C 393.200 253.467,393.380 252.736,393.600 252.600 C 393.820 252.464,394.000 251.834,394.000 251.200 C 394.000 250.566,394.180 249.936,394.400 249.800 C 394.620 249.664,394.800 248.843,394.800 247.976 C 394.800 247.109,394.980 246.400,395.200 246.400 C 395.420 246.400,395.600 245.691,395.600 244.824 C 395.600 243.957,395.780 243.136,396.000 243.000 C 396.220 242.864,396.400 242.054,396.400 241.200 C 396.400 240.346,396.580 239.536,396.800 239.400 C 397.020 239.264,397.200 238.173,397.200 236.976 C 397.200 235.779,397.380 234.800,397.600 234.800 C 397.820 234.800,398.000 233.810,398.000 232.600 C 398.000 231.390,398.166 230.400,398.370 230.400 C 398.573 230.400,398.835 229.005,398.953 227.300 C 399.070 225.595,399.336 222.400,399.543 220.200 C 400.030 215.029,400.032 185.006,399.546 179.800 C 399.341 177.600,399.075 174.540,398.955 173.000 C 398.835 171.460,398.572 170.029,398.369 169.820 C 398.166 169.611,398.000 168.486,398.000 167.320 C 398.000 166.154,397.820 165.200,397.600 165.200 C 397.380 165.200,397.200 164.210,397.200 163.000 C 397.200 161.790,397.020 160.800,396.800 160.800 C 396.580 160.800,396.400 160.001,396.400 159.024 C 396.400 158.047,396.220 157.136,396.000 157.000 C 395.780 156.864,395.600 156.043,395.600 155.176 C 395.600 154.309,395.420 153.600,395.200 153.600 C 394.980 153.600,394.800 152.891,394.800 152.024 C 394.800 151.157,394.620 150.336,394.400 150.200 C 394.180 150.064,394.000 149.333,394.000 148.576 C 394.000 147.819,393.820 147.200,393.600 147.200 C 393.380 147.200,393.200 146.671,393.200 146.024 C 393.200 145.377,393.020 144.736,392.800 144.600 C 392.580 144.464,392.400 143.823,392.400 143.176 C 392.400 142.529,392.220 142.000,392.000 142.000 C 391.780 142.000,391.600 141.545,391.600 140.989 C 391.600 140.433,391.126 138.498,390.547 136.689 C 389.442 133.234,389.387 133.081,388.043 129.647 C 387.579 128.462,387.200 127.247,387.200 126.947 C 387.200 126.646,387.020 126.400,386.800 126.400 C 386.580 126.400,386.400 125.961,386.400 125.424 C 386.400 124.887,386.220 124.336,386.000 124.200 C 385.780 124.064,385.600 123.603,385.600 123.176 C 385.600 122.749,385.420 122.400,385.200 122.400 C 384.980 122.400,384.800 122.128,384.800 121.795 C 384.800 121.462,384.641 120.877,384.446 120.495 C 382.772 117.212,381.600 114.596,381.600 114.144 C 381.600 113.845,381.420 113.600,381.200 113.600 C 380.980 113.600,380.800 113.240,380.800 112.800 C 380.800 112.360,380.620 112.000,380.400 112.000 C 380.180 112.000,380.000 111.640,380.000 111.200 C 380.000 110.760,379.854 110.400,379.675 110.400 C 379.496 110.400,379.102 109.770,378.800 109.000 C 378.498 108.230,378.104 107.600,377.925 107.600 C 377.746 107.600,377.600 107.240,377.600 106.800 C 377.600 106.360,377.420 106.000,377.200 106.000 C 376.980 106.000,376.800 105.640,376.800 105.200 C 376.800 104.760,376.620 104.400,376.400 104.400 C 376.180 104.400,376.000 104.040,376.000 103.600 C 376.000 103.160,375.820 102.800,375.600 102.800 C 375.380 102.800,375.200 102.606,375.200 102.369 C 375.200 101.798,370.617 93.972,369.586 92.784 C 369.142 92.272,368.674 91.436,368.546 90.926 C 368.418 90.417,368.153 90.000,367.957 90.000 C 367.760 90.000,367.600 89.730,367.600 89.400 C 367.600 89.070,367.420 88.800,367.200 88.800 C 366.980 88.800,366.799 88.575,366.798 88.300 C 366.797 88.025,366.257 87.225,365.598 86.522 C 364.939 85.819,364.400 85.088,364.400 84.897 C 364.400 84.707,364.085 84.198,363.700 83.766 C 363.315 83.334,362.379 82.085,361.620 80.991 C 360.861 79.896,359.950 78.730,359.595 78.400 C 359.240 78.070,358.396 76.990,357.720 76.000 C 357.044 75.010,355.933 73.570,355.252 72.800 C 354.570 72.030,354.010 71.283,354.006 71.141 C 354.003 70.998,353.145 69.981,352.100 68.880 C 350.124 66.800,348.963 65.494,347.100 63.259 C 346.495 62.533,346.000 62.058,346.000 62.204 C 346.000 62.350,343.358 59.754,340.129 56.435 C 336.900 53.116,334.082 50.400,333.867 50.400 C 333.652 50.400,332.829 49.725,332.038 48.900 C 331.246 48.075,329.789 46.775,328.800 46.010 C 327.810 45.246,326.868 44.436,326.706 44.210 C 326.530 43.964,326.410 43.956,326.406 44.189 C 326.403 44.403,326.120 44.178,325.777 43.689 C 325.435 43.200,324.972 42.800,324.749 42.800 C 324.526 42.800,324.108 42.566,323.822 42.279 C 323.535 41.993,322.537 41.138,321.604 40.379 C 320.670 39.621,319.670 38.775,319.382 38.500 C 319.093 38.225,318.664 38.000,318.429 38.000 C 318.193 38.000,318.000 37.820,318.000 37.600 C 318.000 37.380,317.730 37.200,317.400 37.200 C 317.070 37.200,316.800 37.050,316.800 36.868 C 316.800 36.685,316.305 36.280,315.700 35.968 C 315.095 35.655,314.060 34.906,313.400 34.302 C 312.740 33.698,311.997 33.203,311.749 33.202 C 311.501 33.201,311.076 32.932,310.804 32.604 C 310.532 32.277,310.150 32.107,309.955 32.228 C 309.760 32.349,309.600 32.287,309.600 32.091 C 309.600 31.895,309.105 31.480,308.500 31.168 C 307.895 30.856,307.310 30.488,307.200 30.349 C 306.815 29.863,300.895 26.400,300.449 26.400 C 300.202 26.400,300.000 26.220,300.000 26.000 C 300.000 25.780,299.640 25.600,299.200 25.600 C 298.760 25.600,298.400 25.420,298.400 25.200 C 298.400 24.980,298.130 24.800,297.800 24.800 C 297.470 24.800,297.200 24.620,297.200 24.400 C 297.200 24.180,296.840 24.000,296.400 24.000 C 295.960 24.000,295.600 23.820,295.600 23.600 C 295.600 23.380,295.240 23.200,294.800 23.200 C 294.360 23.200,294.000 23.020,294.000 22.800 C 294.000 22.580,293.640 22.400,293.200 22.400 C 292.760 22.400,292.400 22.264,292.400 22.098 C 292.400 21.931,291.815 21.541,291.100 21.230 C 290.385 20.919,289.710 20.560,289.600 20.432 C 289.194 19.960,287.592 19.200,287.005 19.200 C 286.672 19.200,286.400 19.020,286.400 18.800 C 286.400 18.580,286.040 18.400,285.600 18.400 C 285.160 18.400,284.800 18.220,284.800 18.000 C 284.800 17.780,284.564 17.600,284.275 17.600 C 283.784 17.600,281.071 16.454,279.505 15.585 C 279.123 15.373,278.538 15.200,278.205 15.200 C 277.872 15.200,277.600 15.020,277.600 14.800 C 277.600 14.580,277.150 14.400,276.600 14.400 C 276.050 14.400,275.600 14.209,275.600 13.976 C 275.600 13.743,275.453 13.644,275.273 13.755 C 275.093 13.866,274.011 13.525,272.870 12.996 C 269.586 11.474,260.191 8.400,258.825 8.400 C 258.371 8.400,258.000 8.220,258.000 8.000 C 258.000 7.780,257.370 7.600,256.600 7.600 C 255.830 7.600,255.200 7.420,255.200 7.200 C 255.200 6.980,254.671 6.800,254.024 6.800 C 253.377 6.800,252.736 6.620,252.600 6.400 C 252.464 6.180,251.834 6.000,251.200 6.000 C 250.566 6.000,249.936 5.820,249.800 5.600 C 249.664 5.380,248.843 5.200,247.976 5.200 C 247.109 5.200,246.400 5.020,246.400 4.800 C 246.400 4.580,245.691 4.400,244.824 4.400 C 243.957 4.400,243.136 4.220,243.000 4.000 C 242.864 3.780,241.953 3.600,240.976 3.600 C 239.999 3.600,239.200 3.420,239.200 3.200 C 239.200 2.980,238.210 2.800,237.000 2.800 C 235.790 2.800,234.800 2.637,234.800 2.437 C 234.800 2.237,233.855 1.971,232.700 1.845 C 231.545 1.719,229.070 1.430,227.200 1.202 C 225.330 0.975,222.090 0.629,220.000 0.434 C 215.224 -0.011,184.232 0.022,179.400 0.477 M210.800 30.218 C 215.530 30.543,220.030 30.900,220.800 31.012 C 234.381 32.984,234.734 33.071,238.028 35.255 C 247.435 41.492,246.116 55.928,235.704 60.696 C 232.485 62.169,229.694 62.237,221.200 61.046 C 217.130 60.475,210.290 59.822,206.000 59.594 C 195.303 59.026,192.977 58.349,189.599 54.821 C 181.587 46.452,185.221 33.283,196.400 30.172 C 198.776 29.511,200.588 29.517,210.800 30.218 M286.200 53.226 C 299.985 59.608,325.503 82.426,337.168 98.800 C 349.483 116.087,357.807 132.840,363.202 151.200 C 363.686 152.850,364.227 154.650,364.403 155.200 C 365.087 157.335,366.973 165.844,367.596 169.600 C 367.869 171.250,368.251 173.230,368.444 174.000 C 371.929 187.894,355.025 198.245,344.287 188.793 C 341.118 186.003,339.845 183.212,338.819 176.800 C 338.555 175.150,338.181 173.080,337.989 172.200 C 337.797 171.320,337.423 169.610,337.160 168.400 C 336.211 164.043,333.486 154.752,332.410 152.200 C 332.224 151.760,331.233 149.240,330.207 146.600 C 320.552 121.749,296.373 92.876,275.467 81.231 C 268.372 77.278,265.417 72.755,265.667 66.229 C 266.069 55.707,276.834 48.890,286.200 53.226 M162.800 131.608 C 168.579 132.346,174.824 134.028,179.800 136.185 C 182.518 137.363,184.212 138.171,184.400 138.379 C 184.750 138.766,186.974 140.041,187.700 140.271 C 188.085 140.393,188.400 140.652,188.400 140.847 C 188.400 141.041,188.658 141.200,188.974 141.200 C 189.819 141.200,194.000 145.527,194.000 146.402 C 194.000 146.815,194.180 147.264,194.400 147.400 C 194.620 147.536,194.800 148.706,194.800 150.000 C 194.800 151.294,194.620 152.464,194.400 152.600 C 194.180 152.736,194.000 153.208,194.000 153.650 C 194.000 154.693,189.893 158.800,188.850 158.800 C 188.408 158.800,187.936 158.980,187.800 159.200 C 187.495 159.694,183.444 159.730,182.495 159.247 C 182.113 159.052,181.260 158.652,180.600 158.357 C 179.940 158.062,178.318 157.186,176.995 156.410 C 151.703 141.579,119.762 156.105,114.130 185.000 C 113.634 187.543,113.763 213.072,114.284 215.600 C 115.701 222.475,119.823 231.080,123.423 234.680 C 123.706 234.964,124.267 235.608,124.669 236.111 C 125.300 236.902,129.752 240.758,131.627 242.139 C 132.752 242.967,134.570 244.011,136.100 244.706 C 136.925 245.082,137.600 245.526,137.600 245.694 C 137.600 245.862,137.872 246.000,138.205 246.000 C 138.538 246.000,139.123 246.159,139.505 246.353 C 146.701 250.014,161.978 250.440,169.500 247.189 C 169.995 246.975,170.805 246.643,171.300 246.451 C 172.661 245.922,176.173 244.239,176.400 244.005 C 176.685 243.712,178.338 242.788,180.200 241.880 C 181.080 241.451,182.113 240.942,182.495 240.750 C 183.448 240.269,187.496 240.308,187.800 240.800 C 187.936 241.020,188.408 241.200,188.850 241.200 C 189.893 241.200,194.000 245.307,194.000 246.350 C 194.000 246.792,194.180 247.264,194.400 247.400 C 194.620 247.536,194.800 248.706,194.800 250.000 C 194.800 251.294,194.620 252.464,194.400 252.600 C 194.180 252.736,194.000 253.185,194.000 253.597 C 194.000 254.498,189.873 258.800,189.009 258.800 C 188.674 258.800,188.400 258.980,188.400 259.200 C 188.400 259.420,188.207 259.600,187.972 259.600 C 187.737 259.600,186.792 260.102,185.872 260.716 C 184.313 261.756,181.387 263.240,179.300 264.051 C 178.805 264.243,177.995 264.556,177.500 264.746 C 177.005 264.937,176.150 265.285,175.600 265.520 C 167.525 268.969,151.973 269.801,141.600 267.339 C 130.895 264.799,120.382 258.958,112.400 251.115 C 106.365 245.185,100.316 235.909,98.177 229.305 C 97.837 228.257,97.404 227.040,97.213 226.600 C 96.861 225.786,96.648 225.051,95.941 222.200 C 93.588 212.714,93.495 187.109,95.781 178.400 C 96.703 174.887,96.926 174.117,97.225 173.400 C 97.409 172.960,97.836 171.746,98.175 170.702 C 98.942 168.331,101.730 162.746,103.252 160.528 C 103.884 159.608,104.400 158.748,104.400 158.616 C 104.400 158.315,108.292 153.281,109.384 152.171 C 109.833 151.715,110.740 150.719,111.400 149.959 C 112.060 149.198,113.770 147.592,115.200 146.388 C 116.630 145.185,117.860 144.065,117.933 143.900 C 118.007 143.735,118.307 143.600,118.600 143.600 C 118.893 143.600,119.193 143.451,119.267 143.270 C 120.231 140.880,134.741 134.164,142.200 132.655 C 143.960 132.299,146.210 131.845,147.200 131.647 C 149.634 131.159,159.099 131.135,162.800 131.608 M248.103 154.185 C 253.216 156.321,254.937 161.118,253.233 168.485 C 252.812 170.308,252.341 172.655,252.188 173.700 L 251.909 175.600 260.472 175.600 L 269.035 175.600 269.548 173.100 C 269.830 171.725,270.243 169.700,270.465 168.600 C 270.688 167.500,271.034 165.949,271.235 165.154 C 271.436 164.358,271.600 163.314,271.600 162.834 C 271.600 162.354,271.960 161.216,272.400 160.306 C 272.840 159.395,273.200 158.489,273.200 158.294 C 273.200 157.643,276.473 154.780,277.897 154.185 C 282.128 152.418,290.000 155.409,290.000 158.784 C 290.000 159.145,290.193 159.633,290.430 159.870 C 290.936 160.376,290.699 166.379,290.053 169.400 C 289.818 170.500,289.472 172.345,289.285 173.500 L 288.943 175.600 293.648 175.600 C 296.353 175.600,298.458 175.770,298.600 176.000 C 298.736 176.220,299.287 176.400,299.824 176.400 C 300.361 176.400,300.800 176.580,300.800 176.800 C 300.800 177.020,300.979 177.200,301.197 177.200 C 303.184 177.200,305.636 181.598,305.647 185.185 C 305.658 188.769,303.198 193.200,301.197 193.200 C 300.979 193.200,300.800 193.336,300.800 193.503 C 300.800 194.311,297.219 194.800,291.306 194.800 L 285.000 194.801 284.092 199.500 C 283.593 202.085,283.188 204.425,283.192 204.700 C 283.198 205.061,284.174 205.202,286.700 205.206 C 291.358 205.214,294.079 206.216,296.265 208.728 C 297.893 210.598,298.974 214.291,298.363 215.897 C 298.163 216.422,298.000 217.204,298.000 217.635 C 298.000 221.714,292.769 224.385,284.764 224.394 L 279.328 224.400 278.880 225.900 C 278.634 226.725,278.329 228.030,278.201 228.800 C 278.074 229.570,277.787 231.100,277.565 232.200 C 277.342 233.300,277.060 234.920,276.939 235.800 C 276.817 236.680,276.556 237.571,276.359 237.780 C 276.162 237.989,276.000 238.563,276.000 239.056 C 276.000 239.549,275.820 240.064,275.600 240.200 C 275.380 240.336,275.200 240.761,275.200 241.145 C 275.200 244.362,265.762 248.322,263.496 246.056 C 263.245 245.805,262.786 245.600,262.476 245.600 C 261.849 245.600,258.898 242.676,258.066 241.230 C 256.945 239.282,257.046 235.925,258.433 229.000 C 258.653 227.900,258.936 226.411,259.061 225.692 L 259.289 224.384 250.545 224.492 L 241.800 224.600 241.689 226.200 C 241.628 227.080,241.415 228.160,241.214 228.600 C 241.014 229.040,240.756 230.030,240.641 230.800 C 240.527 231.570,240.259 233.100,240.047 234.200 C 239.834 235.300,239.532 236.969,239.376 237.910 C 239.220 238.850,238.936 239.716,238.746 239.833 C 238.556 239.951,238.400 240.356,238.400 240.732 C 238.400 244.107,229.026 248.386,226.709 246.069 C 226.451 245.811,225.957 245.600,225.611 245.600 C 221.749 245.600,219.302 238.766,220.743 232.000 C 220.954 231.010,221.308 229.210,221.531 228.000 C 221.754 226.790,222.060 225.485,222.211 225.100 C 222.463 224.459,222.112 224.400,218.036 224.400 C 209.934 224.400,205.200 220.937,205.200 215.012 C 205.200 208.119,209.665 205.200,220.206 205.200 L 226.400 205.200 226.400 203.880 C 226.400 203.154,226.563 202.389,226.761 202.180 C 226.960 201.971,227.224 200.990,227.349 200.000 C 227.473 199.010,227.689 197.435,227.829 196.500 L 228.084 194.800 224.066 194.800 C 221.818 194.800,219.938 194.624,219.800 194.400 C 219.664 194.180,219.290 194.000,218.968 194.000 C 216.263 194.000,212.722 189.010,212.722 185.200 C 212.722 178.631,217.046 175.616,226.485 175.606 L 231.969 175.600 232.352 174.100 C 232.563 173.275,232.860 171.790,233.011 170.800 C 235.238 156.262,240.145 150.860,248.103 154.185 M1.502 170.200 C 1.397 170.750,1.466 171.200,1.655 171.200 C 1.845 171.200,2.000 170.750,2.000 170.200 C 2.000 169.650,1.931 169.200,1.847 169.200 C 1.762 169.200,1.607 169.650,1.502 170.200 M247.697 196.394 C 247.424 197.270,247.200 198.452,247.200 199.020 C 247.200 199.588,247.045 200.356,246.855 200.726 C 246.666 201.097,246.399 202.255,246.263 203.300 L 246.015 205.200 254.556 205.200 L 263.096 205.200 263.516 203.500 C 263.747 202.565,264.120 200.810,264.345 199.600 C 264.569 198.390,264.867 196.815,265.008 196.100 L 265.264 194.800 256.729 194.800 L 248.195 194.800 247.697 196.394 M229.000 398.400 C 228.864 398.620,229.113 398.800,229.553 398.800 C 229.993 398.800,230.464 398.620,230.600 398.400 C 230.736 398.180,230.487 398.000,230.047 398.000 C 229.607 398.000,229.136 398.180,229.000 398.400 " stroke="none" fill="#8b53d3" fill-rule="evenodd"></path><path id="path2" d="M196.400 30.172 C 185.221 33.283,181.587 46.452,189.599 54.821 C 192.977 58.349,195.303 59.026,206.000 59.594 C 210.290 59.822,217.130 60.475,221.200 61.046 C 229.694 62.237,232.485 62.169,235.704 60.696 C 246.116 55.928,247.435 41.492,238.028 35.255 C 234.734 33.071,234.381 32.984,220.800 31.012 C 213.789 29.994,198.883 29.481,196.400 30.172 M276.576 52.349 C 262.413 56.034,261.739 73.584,275.467 81.231 C 296.373 92.876,320.552 121.749,330.207 146.600 C 331.233 149.240,332.224 151.760,332.410 152.200 C 333.486 154.752,336.211 164.043,337.160 168.400 C 337.423 169.610,337.797 171.320,337.989 172.200 C 338.181 173.080,338.555 175.150,338.819 176.800 C 340.542 187.571,345.105 192.199,354.000 192.199 C 363.901 192.199,370.822 183.479,368.444 174.000 C 368.251 173.230,367.869 171.250,367.596 169.600 C 366.973 165.844,365.087 157.335,364.403 155.200 C 364.227 154.650,363.686 152.850,363.202 151.200 C 357.807 132.840,349.483 116.087,337.168 98.800 C 326.886 84.368,310.501 68.922,293.600 57.729 C 285.525 52.380,281.430 51.087,276.576 52.349 M147.800 131.615 C 147.044 131.818,147.562 131.854,149.200 131.715 C 150.630 131.593,151.875 131.428,151.967 131.347 C 152.270 131.080,149.022 131.289,147.800 131.615 M158.705 131.483 C 159.202 131.579,159.922 131.575,160.305 131.475 C 160.687 131.375,160.280 131.296,159.400 131.301 C 158.520 131.305,158.207 131.387,158.705 131.483 M161.900 131.882 C 162.395 131.978,163.205 131.978,163.700 131.882 C 164.195 131.787,163.790 131.709,162.800 131.709 C 161.810 131.709,161.405 131.787,161.900 131.882 M166.400 132.382 C 166.730 132.605,167.345 132.791,167.767 132.794 C 168.790 132.802,168.471 132.573,167.000 132.244 C 166.124 132.048,165.962 132.085,166.400 132.382 M114.175 147.300 L 113.000 148.600 114.300 147.425 C 115.512 146.330,115.784 146.000,115.475 146.000 C 115.406 146.000,114.821 146.585,114.175 147.300 M194.200 150.000 C 194.200 151.498,194.335 152.640,194.500 152.538 C 194.665 152.436,194.800 151.294,194.800 150.000 C 194.800 148.706,194.665 147.564,194.500 147.462 C 194.335 147.360,194.200 148.502,194.200 150.000 M154.705 150.283 C 155.202 150.379,155.922 150.375,156.305 150.275 C 156.687 150.175,156.280 150.096,155.400 150.101 C 154.520 150.105,154.207 150.187,154.705 150.283 M147.700 151.076 C 148.085 151.176,148.715 151.176,149.100 151.076 C 149.485 150.975,149.170 150.893,148.400 150.893 C 147.630 150.893,147.315 150.975,147.700 151.076 M282.833 153.744 C 282.925 153.823,283.540 154.008,284.200 154.156 C 285.076 154.352,285.238 154.315,284.800 154.018 C 284.260 153.653,282.432 153.398,282.833 153.744 M250.000 155.325 C 250.000 155.394,250.585 155.979,251.300 156.625 L 252.600 157.800 251.425 156.500 C 250.330 155.288,250.000 155.016,250.000 155.325 M235.579 159.455 C 235.358 160.036,235.252 160.585,235.343 160.676 C 235.433 160.767,235.699 160.292,235.933 159.620 C 236.453 158.128,236.139 157.982,235.579 159.455 M271.849 161.415 C 271.712 161.773,271.615 162.366,271.634 162.733 C 271.653 163.100,271.827 162.869,272.021 162.220 C 272.398 160.958,272.265 160.333,271.849 161.415 M253.422 165.822 C 253.272 166.625,253.228 167.362,253.326 167.460 C 253.424 167.557,253.627 166.981,253.778 166.178 C 253.928 165.375,253.972 164.638,253.874 164.540 C 253.776 164.443,253.573 165.019,253.422 165.822 M297.400 176.000 C 298.501 176.473,298.892 176.473,298.600 176.000 C 298.464 175.780,297.958 175.613,297.476 175.628 C 296.631 175.655,296.629 175.669,297.400 176.000 M94.649 183.815 C 94.512 184.173,94.415 184.766,94.434 185.133 C 94.453 185.500,94.627 185.269,94.821 184.620 C 95.198 183.358,95.065 182.733,94.649 183.815 M114.049 184.200 C 114.016 184.640,113.896 185.450,113.783 186.000 L 113.577 187.000 114.006 186.019 C 114.242 185.479,114.361 184.669,114.272 184.219 C 114.113 183.421,114.107 183.421,114.049 184.200 M113.377 200.000 C 113.377 206.490,113.432 209.145,113.499 205.900 C 113.566 202.655,113.566 197.345,113.499 194.100 C 113.432 190.855,113.377 193.510,113.377 200.000 M94.167 200.000 C 94.167 204.290,94.226 206.045,94.298 203.900 C 94.370 201.755,94.370 198.245,94.298 196.100 C 94.226 193.955,94.167 195.710,94.167 200.000 M297.600 194.400 C 296.776 194.664,296.741 194.726,297.400 194.754 C 297.840 194.773,298.470 194.613,298.800 194.400 C 299.501 193.947,299.014 193.947,297.600 194.400 M247.646 195.267 C 247.621 195.634,247.496 196.264,247.370 196.667 C 247.152 197.362,247.163 197.363,247.597 196.687 C 247.848 196.296,247.973 195.666,247.873 195.287 C 247.711 194.668,247.688 194.666,247.646 195.267 M246.854 199.067 C 246.825 199.544,246.696 200.264,246.570 200.667 C 246.352 201.361,246.364 201.362,246.796 200.688 C 247.047 200.297,247.175 199.577,247.081 199.088 C 246.909 198.201,246.909 198.201,246.854 199.067 M282.854 204.313 C 282.825 204.814,283.025 205.300,283.300 205.392 C 284.214 205.698,291.534 205.805,291.063 205.506 C 290.808 205.344,288.948 205.209,286.928 205.206 C 283.440 205.200,283.247 205.155,283.082 204.300 L 282.909 203.400 282.854 204.313 M216.319 205.498 C 218.144 205.572,221.024 205.572,222.719 205.497 C 224.414 205.422,222.920 205.361,219.400 205.362 C 215.880 205.362,214.494 205.424,216.319 205.498 M250.522 205.499 C 252.899 205.570,256.679 205.569,258.922 205.498 C 261.165 205.427,259.220 205.369,254.600 205.369 C 249.980 205.370,248.145 205.428,250.522 205.499 M296.009 208.607 C 296.014 208.823,296.370 209.450,296.800 210.000 C 297.230 210.550,297.600 211.270,297.623 211.600 C 297.649 211.985,297.733 212.028,297.859 211.719 C 297.966 211.454,297.592 210.557,297.027 209.726 C 296.462 208.894,296.004 208.391,296.009 208.607 M113.862 214.600 C 113.996 215.480,114.172 216.275,114.253 216.367 C 114.556 216.710,114.329 214.568,113.981 213.800 C 113.729 213.242,113.693 213.485,113.862 214.600 M205.238 214.800 C 205.224 215.790,205.370 216.849,205.563 217.154 C 205.779 217.495,205.841 216.958,205.724 215.754 C 205.460 213.045,205.268 212.667,205.238 214.800 M94.406 215.033 C 94.409 215.455,94.595 216.070,94.818 216.400 C 95.115 216.838,95.152 216.676,94.956 215.800 C 94.627 214.329,94.398 214.010,94.406 215.033 M114.644 218.600 C 114.973 220.071,115.202 220.390,115.194 219.367 C 115.191 218.945,115.005 218.330,114.782 218.000 C 114.485 217.562,114.448 217.724,114.644 218.600 M221.800 226.400 C 221.648 227.091,221.607 227.741,221.709 227.842 C 221.811 227.944,222.009 227.453,222.150 226.750 C 222.291 226.047,222.331 225.398,222.241 225.308 C 222.150 225.217,221.952 225.709,221.800 226.400 M278.046 228.467 C 278.021 228.834,277.896 229.464,277.770 229.867 C 277.552 230.562,277.563 230.563,277.997 229.887 C 278.248 229.496,278.373 228.866,278.273 228.487 C 278.111 227.868,278.088 227.866,278.046 228.467 M257.849 231.415 C 257.712 231.773,257.615 232.366,257.634 232.733 C 257.653 233.100,257.827 232.869,258.021 232.220 C 258.398 230.958,258.265 230.333,257.849 231.415 M277.246 232.467 C 277.221 232.834,277.096 233.464,276.970 233.867 C 276.752 234.562,276.763 234.563,277.197 233.887 C 277.448 233.496,277.573 232.866,277.473 232.487 C 277.311 231.868,277.288 231.866,277.246 232.467 M220.128 236.800 C 220.128 238.230,220.201 238.815,220.289 238.100 C 220.378 237.385,220.378 236.215,220.289 235.500 C 220.201 234.785,220.128 235.370,220.128 236.800 M239.429 235.829 C 239.281 236.415,239.238 236.972,239.332 237.066 C 239.427 237.160,239.624 236.758,239.771 236.171 C 239.919 235.585,239.962 235.028,239.868 234.934 C 239.773 234.840,239.576 235.242,239.429 235.829 M257.324 237.000 C 257.326 238.320,257.401 238.812,257.490 238.093 C 257.579 237.374,257.577 236.294,257.486 235.693 C 257.395 235.092,257.322 235.680,257.324 237.000 M125.600 237.325 C 125.600 237.394,126.185 237.979,126.900 238.625 L 128.200 239.800 127.025 238.500 C 125.930 237.288,125.600 237.016,125.600 237.325 M182.662 240.700 C 182.560 240.865,183.702 241.000,185.200 241.000 C 186.698 241.000,187.840 240.865,187.738 240.700 C 187.636 240.535,186.494 240.400,185.200 240.400 C 183.906 240.400,182.764 240.535,182.662 240.700 M221.600 242.258 C 221.600 242.474,222.185 243.179,222.900 243.825 L 224.200 245.000 223.000 243.602 C 222.340 242.833,221.755 242.128,221.700 242.035 C 221.645 241.943,221.600 242.043,221.600 242.258 M236.175 243.700 L 235.000 245.000 236.300 243.825 C 237.015 243.179,237.600 242.594,237.600 242.525 C 237.600 242.216,237.270 242.488,236.175 243.700 M194.200 250.000 C 194.200 251.498,194.335 252.640,194.500 252.538 C 194.665 252.436,194.800 251.294,194.800 250.000 C 194.800 248.706,194.665 247.564,194.500 247.462 C 194.335 247.360,194.200 248.502,194.200 250.000 M146.400 248.782 C 146.730 249.005,147.345 249.191,147.767 249.194 C 148.790 249.202,148.471 248.973,147.000 248.644 C 146.124 248.448,145.962 248.485,146.400 248.782 M158.500 249.476 C 158.885 249.576,159.515 249.576,159.900 249.476 C 160.285 249.375,159.970 249.293,159.200 249.293 C 158.430 249.293,158.115 249.375,158.500 249.476 M153.900 249.889 C 154.615 249.978,155.785 249.978,156.500 249.889 C 157.215 249.801,156.630 249.728,155.200 249.728 C 153.770 249.728,153.185 249.801,153.900 249.889 M114.800 253.400 C 115.546 254.170,116.247 254.800,116.357 254.800 C 116.467 254.800,115.946 254.170,115.200 253.400 C 114.454 252.630,113.753 252.000,113.643 252.000 C 113.533 252.000,114.054 252.630,114.800 253.400 M171.800 266.400 C 170.693 266.682,170.677 266.709,171.600 266.747 C 172.150 266.769,172.870 266.613,173.200 266.400 C 173.881 265.960,173.529 265.960,171.800 266.400 M146.500 268.276 C 146.885 268.376,147.515 268.376,147.900 268.276 C 148.285 268.175,147.970 268.093,147.200 268.093 C 146.430 268.093,146.115 268.175,146.500 268.276 M162.500 268.287 C 163.105 268.378,164.095 268.378,164.700 268.287 C 165.305 268.195,164.810 268.120,163.600 268.120 C 162.390 268.120,161.895 268.195,162.500 268.287 M149.505 268.683 C 150.002 268.779,150.722 268.775,151.105 268.675 C 151.487 268.575,151.080 268.496,150.200 268.501 C 149.320 268.505,149.007 268.587,149.505 268.683 M158.900 268.676 C 159.285 268.776,159.915 268.776,160.300 268.676 C 160.685 268.575,160.370 268.493,159.600 268.493 C 158.830 268.493,158.515 268.575,158.900 268.676 " stroke="none" fill="#ac6cfb" fill-rule="evenodd"></path><path id="path3" d="M174.800 0.800 C 174.800 1.301,175.224 1.301,176.000 0.800 C 176.485 0.486,176.428 0.411,175.700 0.406 C 175.205 0.403,174.800 0.580,174.800 0.800 M224.000 0.800 C 224.776 1.301,225.200 1.301,225.200 0.800 C 225.200 0.580,224.795 0.403,224.300 0.406 C 223.572 0.411,223.515 0.486,224.000 0.800 M303.600 28.020 C 304.987 28.961,305.778 29.235,304.800 28.436 C 304.250 27.986,303.620 27.617,303.400 27.615 C 303.180 27.613,303.270 27.796,303.600 28.020 M93.017 29.724 C 91.850 30.434,91.088 31.200,91.549 31.200 C 91.773 31.200,92.460 30.756,93.078 30.213 C 94.289 29.147,94.266 28.964,93.017 29.724 M77.700 40.629 C 76.765 41.609,75.994 42.273,75.987 42.105 C 75.979 41.937,75.642 42.197,75.236 42.683 C 74.831 43.169,74.387 43.454,74.250 43.316 C 74.112 43.179,74.000 43.277,74.000 43.533 C 74.000 43.790,73.746 44.000,73.435 44.000 C 73.124 44.000,71.773 45.080,70.432 46.400 C 69.092 47.720,67.822 48.800,67.611 48.800 C 67.207 48.800,58.804 57.056,58.987 57.274 C 59.045 57.343,58.667 57.811,58.146 58.314 C 57.626 58.817,57.200 59.138,57.200 59.028 C 57.200 58.918,55.310 60.718,53.000 63.028 C 50.690 65.338,48.800 67.400,48.800 67.611 C 48.800 67.822,47.720 69.092,46.400 70.432 C 45.080 71.773,44.000 73.124,44.000 73.435 C 44.000 73.746,43.790 74.000,43.533 74.000 C 43.277 74.000,43.179 74.112,43.316 74.250 C 43.454 74.387,43.169 74.851,42.683 75.280 C 42.197 75.710,42.062 75.924,42.382 75.756 C 42.702 75.589,42.027 76.398,40.882 77.555 C 39.737 78.713,38.800 79.876,38.800 80.141 C 38.800 80.407,38.440 80.883,38.000 81.200 C 37.560 81.517,37.200 82.007,37.200 82.288 C 37.200 82.570,37.020 82.800,36.800 82.800 C 36.580 82.800,36.400 83.190,36.400 83.667 C 36.400 84.143,36.289 84.422,36.152 84.286 C 35.819 83.953,34.800 85.006,34.800 85.683 C 34.800 85.980,34.440 86.483,34.000 86.800 C 33.560 87.117,33.200 87.657,33.200 88.000 C 33.200 88.343,32.840 88.883,32.400 89.200 C 31.960 89.517,31.600 90.005,31.600 90.284 C 31.600 90.753,30.921 91.730,29.700 93.016 C 29.425 93.306,29.200 93.824,29.200 94.168 C 29.200 94.512,28.840 95.018,28.400 95.293 C 27.960 95.568,27.600 96.099,27.600 96.473 C 27.600 96.847,27.439 97.253,27.241 97.374 C 26.581 97.782,25.182 100.847,25.454 101.288 C 25.615 101.549,25.538 101.609,25.262 101.438 C 24.986 101.268,24.800 101.411,24.800 101.793 C 24.800 102.145,24.436 102.825,23.990 103.303 C 23.545 103.781,23.263 104.388,23.365 104.653 C 23.466 104.917,23.291 105.233,22.975 105.354 C 22.659 105.476,22.400 105.851,22.400 106.187 C 22.400 106.524,22.220 106.800,22.000 106.800 C 21.780 106.800,21.600 107.160,21.600 107.600 C 21.600 108.040,21.454 108.400,21.275 108.400 C 21.096 108.400,20.702 109.030,20.400 109.800 C 20.098 110.570,19.704 111.200,19.525 111.200 C 19.346 111.200,19.200 111.560,19.200 112.000 C 19.200 112.440,19.020 112.800,18.800 112.800 C 18.580 112.800,18.400 113.149,18.400 113.576 C 18.400 114.003,18.220 114.464,18.000 114.600 C 17.780 114.736,17.600 115.287,17.600 115.824 C 17.600 116.361,17.420 116.800,17.200 116.800 C 16.980 116.800,16.800 117.160,16.800 117.600 C 16.800 118.040,16.620 118.400,16.400 118.400 C 16.180 118.400,16.000 118.760,16.000 119.200 C 16.000 119.640,15.864 120.000,15.697 120.000 C 15.361 120.000,14.400 122.829,14.400 123.817 C 14.400 124.164,14.256 124.358,14.080 124.249 C 13.904 124.140,13.524 124.850,13.236 125.826 C 12.947 126.802,12.552 127.600,12.356 127.600 C 12.160 127.600,12.000 127.962,12.000 128.405 C 12.000 128.848,11.820 129.568,11.600 130.005 C 11.380 130.442,11.020 131.158,10.800 131.595 C 10.580 132.032,10.400 132.716,10.400 133.115 C 10.400 133.514,10.184 134.056,9.920 134.320 C 9.656 134.584,9.558 134.800,9.702 134.800 C 9.846 134.800,9.710 135.520,9.400 136.400 C 9.090 137.280,8.954 138.000,9.098 138.000 C 9.242 138.000,9.144 138.216,8.880 138.480 C 8.616 138.744,8.400 139.464,8.400 140.080 C 8.400 140.696,8.220 141.200,8.000 141.200 C 7.780 141.200,7.600 141.830,7.600 142.600 C 7.600 143.370,7.420 144.000,7.200 144.000 C 6.980 144.000,6.800 144.630,6.800 145.400 C 6.800 146.170,6.620 146.800,6.400 146.800 C 6.180 146.800,6.000 147.430,6.000 148.200 C 6.000 148.970,5.849 149.600,5.665 149.600 C 5.480 149.600,5.304 150.274,5.273 151.097 C 5.242 151.921,5.033 152.656,4.809 152.730 C 4.584 152.805,4.400 153.752,4.400 154.833 C 4.400 156.021,4.222 156.800,3.951 156.800 C 3.658 156.800,3.693 157.036,4.051 157.477 C 4.424 157.937,4.440 158.057,4.100 157.853 C 3.744 157.640,3.600 157.899,3.600 158.753 C 3.600 159.413,3.420 160.064,3.200 160.200 C 2.980 160.336,2.800 161.337,2.800 162.424 C 2.800 163.511,2.649 164.400,2.463 164.400 C 2.278 164.400,2.094 165.341,2.053 166.491 C 2.012 167.640,1.804 168.756,1.589 168.971 C 1.375 169.185,1.218 169.729,1.240 170.180 C 1.274 170.883,1.325 170.857,1.600 170.000 L 1.920 169.000 1.960 170.100 C 1.982 170.705,1.820 171.200,1.600 171.200 C 1.380 171.200,1.200 171.995,1.200 172.967 C 1.200 174.024,0.999 174.800,0.700 174.900 C -0.032 175.144,-0.032 224.856,0.700 225.100 C 1.040 225.213,1.200 226.211,1.200 228.210 C 1.200 229.828,1.380 231.264,1.600 231.400 C 1.820 231.536,2.000 232.537,2.000 233.624 C 2.000 234.711,2.180 235.600,2.400 235.600 C 2.620 235.600,2.800 236.590,2.800 237.800 C 2.800 239.010,2.980 240.000,3.200 240.000 C 3.420 240.000,3.600 240.720,3.600 241.600 C 3.600 242.480,3.780 243.200,4.000 243.200 C 4.220 243.200,4.400 244.100,4.400 245.200 C 4.400 246.300,4.580 247.200,4.800 247.200 C 5.020 247.200,5.200 247.920,5.200 248.800 C 5.200 249.680,5.380 250.400,5.600 250.400 C 5.820 250.400,6.000 251.019,6.000 251.776 C 6.000 252.533,6.180 253.264,6.400 253.400 C 6.620 253.536,6.800 254.177,6.800 254.824 C 6.800 255.471,6.980 256.000,7.200 256.000 C 7.420 256.000,7.600 256.630,7.600 257.400 C 7.600 258.170,7.756 258.800,7.947 258.800 C 8.138 258.800,8.390 259.509,8.506 260.376 C 8.622 261.243,8.997 262.512,9.338 263.196 C 9.680 263.881,9.866 264.684,9.752 264.980 C 9.639 265.277,9.738 265.638,9.973 265.783 C 10.208 265.928,10.400 266.399,10.400 266.829 C 10.400 267.259,10.608 268.013,10.862 268.505 C 11.858 270.431,12.000 270.817,12.000 271.595 C 12.000 272.038,12.180 272.400,12.400 272.400 C 12.620 272.400,12.800 272.749,12.800 273.176 C 12.800 273.603,12.980 274.064,13.200 274.200 C 13.420 274.336,13.600 274.797,13.600 275.224 C 13.600 275.651,13.780 276.000,14.000 276.000 C 14.220 276.000,14.400 276.540,14.400 277.200 C 14.400 277.860,14.580 278.400,14.800 278.400 C 15.020 278.400,15.200 278.760,15.200 279.200 C 15.200 279.640,15.380 280.000,15.600 280.000 C 15.820 280.000,16.000 280.360,16.000 280.800 C 16.000 281.240,16.180 281.600,16.400 281.600 C 16.620 281.600,16.800 281.960,16.800 282.400 C 16.800 282.840,16.980 283.200,17.200 283.200 C 17.420 283.200,17.600 283.639,17.600 284.176 C 17.600 284.713,17.780 285.264,18.000 285.400 C 18.220 285.536,18.400 285.997,18.400 286.424 C 18.400 286.851,18.580 287.200,18.800 287.200 C 19.020 287.200,19.200 287.560,19.200 288.000 C 19.200 288.440,19.346 288.800,19.525 288.800 C 19.704 288.800,20.098 289.430,20.400 290.200 C 20.702 290.970,21.096 291.600,21.275 291.600 C 21.454 291.600,21.600 291.960,21.600 292.400 C 21.600 292.840,21.780 293.200,22.000 293.200 C 22.220 293.200,22.400 293.560,22.400 294.000 C 22.400 294.440,22.580 294.800,22.800 294.800 C 23.020 294.800,23.200 295.120,23.200 295.512 C 23.200 295.903,23.560 296.483,24.000 296.800 C 24.440 297.117,24.800 297.652,24.801 297.988 C 24.802 298.325,25.432 299.644,26.201 300.920 C 26.970 302.196,27.600 303.419,27.600 303.637 C 27.600 303.855,27.960 304.420,28.400 304.892 C 28.840 305.364,29.200 305.987,29.200 306.275 C 29.200 306.564,29.380 306.800,29.600 306.800 C 29.820 306.800,30.000 307.030,30.000 307.312 C 30.000 307.593,30.360 308.083,30.800 308.400 C 31.240 308.717,31.600 309.257,31.600 309.600 C 31.600 309.943,31.960 310.483,32.400 310.800 C 32.840 311.117,33.200 311.657,33.200 312.000 C 33.200 312.343,33.560 312.883,34.000 313.200 C 34.440 313.517,34.800 314.015,34.800 314.306 C 34.800 314.598,35.250 315.286,35.800 315.836 C 36.350 316.386,36.800 317.000,36.800 317.200 C 36.800 317.400,37.250 318.014,37.800 318.564 C 38.350 319.114,38.800 319.752,38.800 319.981 C 38.800 320.211,39.520 321.141,40.400 322.048 C 41.280 322.955,42.000 323.863,42.000 324.067 C 42.000 324.271,42.450 324.855,43.000 325.365 C 43.550 325.875,44.000 326.480,44.000 326.711 C 44.000 326.942,45.080 328.227,46.400 329.568 C 47.720 330.908,48.800 332.190,48.800 332.415 C 48.800 332.731,53.285 337.311,58.100 341.914 C 58.265 342.071,60.370 344.225,62.779 346.700 C 65.187 349.175,67.346 351.200,67.576 351.200 C 67.806 351.200,69.092 352.280,70.432 353.600 C 71.773 354.920,73.040 356.000,73.248 356.000 C 73.456 356.000,74.257 356.630,75.027 357.400 C 75.797 358.170,76.618 358.800,76.853 358.800 C 77.087 358.800,77.783 359.340,78.400 360.000 C 79.017 360.660,79.720 361.200,79.964 361.200 C 80.208 361.200,80.972 361.740,81.663 362.400 C 82.354 363.060,83.122 363.600,83.371 363.600 C 83.620 363.600,84.083 363.960,84.400 364.400 C 84.717 364.840,85.257 365.200,85.600 365.200 C 85.943 365.200,86.483 365.560,86.800 366.000 C 87.117 366.440,87.657 366.800,88.000 366.800 C 88.343 366.800,88.883 367.160,89.200 367.600 C 89.517 368.040,90.057 368.400,90.400 368.400 C 90.743 368.400,91.283 368.760,91.600 369.200 C 91.917 369.640,92.407 370.000,92.688 370.000 C 92.970 370.000,93.200 370.180,93.200 370.400 C 93.200 370.620,93.436 370.800,93.725 370.800 C 94.013 370.800,94.636 371.160,95.108 371.600 C 95.580 372.040,96.167 372.400,96.411 372.400 C 96.656 372.400,97.626 372.930,98.567 373.577 C 99.507 374.224,100.800 374.883,101.439 375.041 C 102.077 375.199,102.891 375.659,103.247 376.064 C 103.603 376.469,104.188 376.800,104.547 376.800 C 104.906 376.800,105.200 376.980,105.200 377.200 C 105.200 377.420,105.560 377.600,106.000 377.600 C 106.440 377.600,106.800 377.780,106.800 378.000 C 106.800 378.220,107.160 378.400,107.600 378.400 C 108.040 378.400,108.400 378.546,108.400 378.725 C 108.400 378.904,109.030 379.298,109.800 379.600 C 110.570 379.902,111.200 380.296,111.200 380.475 C 111.200 380.654,111.560 380.800,112.000 380.800 C 112.440 380.800,112.800 380.980,112.800 381.200 C 112.800 381.420,113.149 381.600,113.576 381.600 C 114.003 381.600,114.464 381.780,114.600 382.000 C 114.736 382.220,115.287 382.400,115.824 382.400 C 116.361 382.400,116.800 382.580,116.800 382.800 C 116.800 383.020,117.160 383.200,117.600 383.200 C 118.040 383.200,118.400 383.380,118.400 383.600 C 118.400 383.820,118.760 384.000,119.200 384.000 C 119.640 384.000,120.000 384.180,120.000 384.400 C 120.000 384.620,120.360 384.800,120.800 384.800 C 121.240 384.800,121.600 384.980,121.600 385.200 C 121.600 385.420,122.140 385.600,122.800 385.600 C 123.460 385.600,124.000 385.780,124.000 386.000 C 124.000 386.220,124.349 386.400,124.776 386.400 C 125.203 386.400,125.664 386.580,125.800 386.800 C 125.936 387.020,126.397 387.200,126.824 387.200 C 127.251 387.200,127.600 387.380,127.600 387.600 C 127.600 387.820,127.962 388.000,128.405 388.000 C 129.183 388.000,129.569 388.142,131.495 389.138 C 131.987 389.392,132.741 389.600,133.171 389.600 C 133.601 389.600,134.064 389.780,134.200 390.000 C 134.336 390.220,134.876 390.400,135.400 390.400 C 135.924 390.400,136.456 390.567,136.583 390.772 C 136.709 390.977,137.800 391.267,139.006 391.418 C 140.213 391.569,141.200 391.851,141.200 392.046 C 141.200 392.241,141.830 392.400,142.600 392.400 C 143.370 392.400,144.000 392.580,144.000 392.800 C 144.000 393.020,144.529 393.200,145.176 393.200 C 145.823 393.200,146.464 393.380,146.600 393.600 C 146.736 393.820,147.467 394.000,148.224 394.000 C 148.981 394.000,149.600 394.180,149.600 394.400 C 149.600 394.620,150.320 394.800,151.200 394.800 C 152.080 394.800,152.800 394.980,152.800 395.200 C 152.800 395.420,153.700 395.600,154.800 395.600 C 155.900 395.600,156.800 395.780,156.800 396.000 C 156.800 396.220,157.520 396.400,158.400 396.400 C 159.280 396.400,160.000 396.580,160.000 396.800 C 160.000 397.020,160.990 397.200,162.200 397.200 C 163.410 397.200,164.400 397.351,164.400 397.535 C 164.400 397.719,165.249 397.902,166.287 397.942 C 167.324 397.981,168.350 398.190,168.567 398.407 C 168.783 398.623,170.259 398.800,171.847 398.800 C 173.800 398.800,174.787 398.962,174.900 399.300 C 175.031 399.693,180.409 399.800,200.000 399.800 C 219.591 399.800,224.969 399.693,225.100 399.300 C 225.199 399.002,225.971 398.800,227.010 398.800 C 227.968 398.800,228.864 398.620,229.000 398.400 C 229.374 397.795,230.908 397.893,230.565 398.500 C 230.339 398.900,230.390 398.900,230.821 398.500 C 231.118 398.225,232.314 398.000,233.480 398.000 C 234.646 398.000,235.600 397.820,235.600 397.600 C 235.600 397.380,236.590 397.200,237.800 397.200 C 239.010 397.200,240.000 397.020,240.000 396.800 C 240.000 396.580,240.540 396.400,241.200 396.400 C 241.860 396.400,242.400 396.220,242.400 396.000 C 242.400 395.778,243.467 395.600,244.800 395.600 C 246.133 395.600,247.200 395.422,247.200 395.200 C 247.200 394.980,247.920 394.800,248.800 394.800 C 249.680 394.800,250.400 394.620,250.400 394.400 C 250.400 394.180,251.030 394.000,251.800 394.000 C 252.570 394.000,253.200 393.820,253.200 393.600 C 253.200 393.380,253.830 393.200,254.600 393.200 C 255.370 393.200,256.000 393.020,256.000 392.800 C 256.000 392.580,256.630 392.400,257.400 392.400 C 258.170 392.400,258.800 392.241,258.800 392.046 C 258.800 391.851,259.787 391.569,260.994 391.418 C 262.200 391.267,263.291 390.977,263.417 390.772 C 263.544 390.567,264.076 390.400,264.600 390.400 C 265.124 390.400,265.664 390.220,265.800 390.000 C 265.936 389.780,266.399 389.600,266.829 389.600 C 267.259 389.600,268.013 389.392,268.505 389.138 C 270.431 388.142,270.817 388.000,271.595 388.000 C 272.038 388.000,272.400 387.820,272.400 387.600 C 272.400 387.380,272.749 387.200,273.176 387.200 C 273.603 387.200,274.064 387.020,274.200 386.800 C 274.336 386.580,274.842 386.397,275.324 386.394 C 276.036 386.389,276.088 386.315,275.600 386.000 C 275.153 385.711,275.376 385.611,276.476 385.606 C 277.288 385.603,278.064 385.420,278.200 385.200 C 278.336 384.980,278.797 384.800,279.224 384.800 C 279.651 384.800,280.000 384.620,280.000 384.400 C 280.000 384.180,280.360 384.000,280.800 384.000 C 281.240 384.000,281.600 383.820,281.600 383.600 C 281.600 383.380,281.960 383.200,282.400 383.200 C 282.840 383.200,283.200 383.020,283.200 382.800 C 283.200 382.580,283.639 382.400,284.176 382.400 C 284.713 382.400,285.264 382.220,285.400 382.000 C 285.536 381.780,285.997 381.600,286.424 381.600 C 286.851 381.600,287.200 381.420,287.200 381.200 C 287.200 380.980,287.560 380.800,288.000 380.800 C 288.440 380.800,288.800 380.654,288.800 380.475 C 288.800 380.296,289.430 379.902,290.200 379.600 C 290.970 379.298,291.600 378.904,291.600 378.725 C 291.600 378.546,291.960 378.400,292.400 378.400 C 292.840 378.400,293.200 378.220,293.200 378.000 C 293.200 377.780,293.560 377.600,294.000 377.600 C 294.440 377.600,294.800 377.420,294.800 377.200 C 294.800 376.980,295.036 376.800,295.325 376.800 C 295.613 376.800,296.236 376.440,296.708 376.000 C 297.180 375.560,297.781 375.200,298.043 375.200 C 298.749 375.200,302.800 373.085,302.800 372.716 C 302.800 372.542,303.078 372.400,303.417 372.400 C 303.756 372.400,304.420 372.040,304.892 371.600 C 305.364 371.160,305.987 370.800,306.275 370.800 C 306.564 370.800,306.800 370.620,306.800 370.400 C 306.800 370.180,307.030 370.000,307.312 370.000 C 307.593 370.000,308.083 369.640,308.400 369.200 C 308.717 368.760,309.257 368.400,309.600 368.400 C 309.943 368.400,310.483 368.040,310.800 367.600 C 311.117 367.160,311.657 366.800,312.000 366.800 C 312.343 366.800,312.883 366.440,313.200 366.000 C 313.517 365.560,314.057 365.200,314.400 365.200 C 314.743 365.200,315.283 364.840,315.600 364.400 C 315.917 363.960,316.407 363.600,316.688 363.600 C 316.970 363.600,317.200 363.420,317.200 363.200 C 317.200 362.980,317.430 362.800,317.712 362.800 C 317.993 362.800,318.483 362.440,318.800 362.000 C 319.117 361.560,319.613 361.200,319.902 361.200 C 320.190 361.200,321.057 360.570,321.827 359.800 C 322.597 359.030,323.470 358.400,323.768 358.400 C 324.066 358.400,324.735 357.862,325.255 357.204 C 325.775 356.546,326.409 356.006,326.665 356.004 C 326.921 356.002,328.227 354.920,329.568 353.600 C 330.908 352.280,332.192 351.200,332.421 351.200 C 333.090 351.200,334.797 349.301,334.832 348.518 C 334.849 348.119,334.951 348.017,335.061 348.288 C 335.217 348.673,335.371 348.673,335.787 348.288 C 336.078 348.020,336.234 347.665,336.134 347.500 C 336.035 347.335,336.153 347.200,336.399 347.200 C 336.644 347.200,337.918 346.075,339.231 344.700 C 342.043 341.754,341.414 342.383,345.475 338.453 C 347.276 336.710,348.641 335.175,348.508 335.042 C 348.375 334.909,348.485 334.800,348.752 334.800 C 349.344 334.800,351.200 332.996,351.200 332.421 C 351.200 332.192,352.280 330.908,353.600 329.568 C 354.920 328.227,356.002 326.921,356.004 326.665 C 356.006 326.409,356.546 325.775,357.204 325.255 C 357.862 324.735,358.400 324.068,358.400 323.773 C 358.400 323.478,358.860 322.777,359.422 322.215 C 360.385 321.251,360.445 320.400,359.549 320.400 C 359.327 320.400,356.386 322.289,353.014 324.597 C 342.126 332.049,326.539 340.423,316.104 344.426 C 308.241 347.442,303.789 349.077,302.200 349.534 C 299.901 350.194,295.599 351.478,292.700 352.368 C 291.325 352.790,288.850 353.415,287.200 353.756 C 280.006 355.242,276.429 356.013,275.933 356.184 C 275.640 356.285,271.684 356.830,267.142 357.395 C 248.471 359.717,230.777 359.722,213.800 357.410 C 208.490 356.687,203.666 355.877,200.500 355.176 C 192.901 353.495,192.117 353.301,185.800 351.534 C 180.505 350.053,178.870 349.545,177.000 348.801 C 176.560 348.626,175.030 348.093,173.600 347.617 C 172.170 347.141,170.640 346.600,170.200 346.415 C 169.760 346.230,168.320 345.670,167.000 345.172 C 161.932 343.259,144.845 335.177,143.401 334.009 C 143.180 333.831,142.325 333.306,141.500 332.843 C 140.675 332.379,139.415 331.668,138.700 331.261 C 133.651 328.393,121.952 320.287,115.854 315.431 C 106.190 307.735,91.242 292.878,85.275 285.038 C 84.684 284.261,82.656 281.594,80.769 279.113 C 77.507 274.823,71.110 265.309,68.590 261.000 C 67.946 259.900,67.103 258.460,66.716 257.800 C 64.642 254.267,57.378 239.327,56.019 235.800 C 55.850 235.360,55.394 234.280,55.006 233.400 C 54.618 232.520,54.157 231.350,53.981 230.800 C 53.805 230.250,52.911 227.730,51.995 225.200 C 51.080 222.670,50.166 220.015,49.965 219.300 C 49.764 218.585,49.436 217.415,49.235 216.700 C 49.035 215.985,48.421 213.870,47.871 212.000 C 43.917 198.547,40.789 176.348,40.797 161.802 C 40.803 151.038,42.656 128.930,43.999 123.600 C 44.193 122.830,44.631 120.850,44.973 119.200 C 46.504 111.821,47.176 108.877,47.716 107.200 C 48.034 106.210,48.682 104.050,49.156 102.400 C 50.921 96.259,52.595 91.439,55.199 85.000 C 55.376 84.560,55.936 83.120,56.442 81.800 C 56.947 80.480,58.287 77.510,59.418 75.200 C 60.550 72.890,62.072 69.745,62.801 68.211 C 63.530 66.676,64.663 64.516,65.319 63.411 C 65.975 62.305,66.847 60.815,67.256 60.100 C 70.995 53.567,71.224 53.201,75.423 47.000 C 80.476 39.539,81.515 36.632,77.700 40.629 M327.709 45.200 C 328.269 45.640,328.857 46.000,329.017 46.000 C 329.177 46.000,328.850 45.640,328.291 45.200 C 327.731 44.760,327.143 44.400,326.983 44.400 C 326.823 44.400,327.150 44.760,327.709 45.200 M332.683 49.551 C 333.605 50.437,334.225 50.687,333.801 50.002 C 333.666 49.783,333.160 49.401,332.678 49.153 L 331.800 48.701 332.683 49.551 M354.000 70.976 C 354.000 71.140,354.360 71.731,354.800 72.291 C 355.240 72.850,355.600 73.131,355.600 72.915 C 355.600 72.699,355.240 72.107,354.800 71.600 C 354.360 71.093,354.000 70.812,354.000 70.976 M357.209 75.046 C 357.221 75.513,358.780 77.500,358.791 77.063 C 358.796 76.878,358.440 76.269,358.000 75.709 C 357.560 75.150,357.204 74.851,357.209 75.046 M368.806 91.471 C 368.818 92.084,369.555 92.978,369.826 92.707 C 369.974 92.559,369.804 92.147,369.448 91.790 C 369.091 91.434,368.803 91.291,368.806 91.471 M371.160 95.000 C 371.834 96.305,372.388 97.028,372.385 96.600 C 372.383 96.380,372.014 95.750,371.564 95.200 C 371.021 94.536,370.885 94.469,371.160 95.000 M398.806 175.100 C 398.824 175.977,399.588 176.559,399.594 175.700 C 399.597 175.205,399.420 174.800,399.200 174.800 C 398.980 174.800,398.803 174.935,398.806 175.100 M399.079 224.157 C 398.915 224.574,398.875 225.009,398.991 225.124 C 399.355 225.489,399.676 224.891,399.524 224.131 C 399.383 223.435,399.362 223.436,399.079 224.157 M371.453 304.500 L 370.733 305.800 371.558 304.800 C 372.289 303.913,372.614 303.200,372.286 303.200 C 372.224 303.200,371.849 303.785,371.453 304.500 " stroke="none" fill="#743cbc" fill-rule="evenodd"></path><path id="path4" d="M150.400 131.589 C 149.358 131.745,151.296 131.858,155.000 131.857 C 159.263 131.856,160.732 131.758,159.400 131.563 C 156.986 131.209,152.858 131.222,150.400 131.589 M144.400 132.400 L 143.400 132.720 144.400 132.737 C 144.950 132.746,146.120 132.605,147.000 132.423 L 148.600 132.092 147.000 132.086 C 146.120 132.083,144.950 132.224,144.400 132.400 M161.633 132.144 C 161.725 132.223,162.970 132.402,164.400 132.540 C 166.149 132.710,166.804 132.665,166.400 132.402 C 165.859 132.051,161.235 131.800,161.633 132.144 M139.600 133.401 C 137.711 133.927,134.418 135.339,135.800 135.030 C 138.312 134.468,143.245 132.860,142.400 132.878 C 141.850 132.890,140.590 133.125,139.600 133.401 M170.600 133.787 C 174.208 134.701,181.834 137.564,183.474 138.621 C 183.955 138.931,184.990 139.548,185.774 139.992 C 186.559 140.437,187.837 141.161,188.615 141.601 C 195.943 145.753,195.659 155.373,188.118 158.433 C 185.261 159.593,183.031 159.125,178.195 156.352 C 172.604 153.147,165.816 150.523,164.075 150.895 C 163.704 150.974,164.688 151.337,166.263 151.700 C 169.733 152.501,173.671 154.167,177.400 156.411 C 179.404 157.617,179.672 157.750,182.549 158.952 C 189.462 161.843,196.892 153.310,193.654 146.200 C 191.812 142.155,180.043 135.512,171.008 133.416 C 166.890 132.461,166.557 132.763,170.600 133.787 M133.200 135.600 C 132.667 135.945,132.667 135.988,133.200 135.988 C 133.530 135.988,134.070 135.813,134.400 135.600 C 134.933 135.255,134.933 135.212,134.400 135.212 C 134.070 135.212,133.530 135.387,133.200 135.600 M127.795 138.113 C 124.076 140.051,118.828 143.436,116.977 145.092 C 116.541 145.481,115.378 146.501,114.392 147.358 C 109.254 151.826,99.016 165.950,100.118 167.051 C 100.212 167.145,100.955 165.931,101.769 164.352 C 103.117 161.741,106.179 156.890,106.789 156.400 C 106.926 156.290,107.465 155.570,107.986 154.800 C 111.640 149.401,121.068 141.880,129.100 137.958 C 132.124 136.481,132.901 135.978,132.100 136.013 C 131.935 136.021,129.998 136.966,127.795 138.113 M148.600 150.422 C 147.864 150.622,148.638 150.663,150.600 150.526 C 152.360 150.403,153.875 150.235,153.967 150.151 C 154.279 149.868,149.805 150.093,148.600 150.422 M158.600 150.418 C 161.446 150.862,163.651 150.852,162.600 150.400 C 162.160 150.211,160.630 150.068,159.200 150.082 L 156.600 150.107 158.600 150.418 M145.000 151.200 L 144.200 151.544 145.000 151.544 C 145.440 151.544,146.160 151.389,146.600 151.200 L 147.400 150.856 146.600 150.856 C 146.160 150.856,145.440 151.011,145.000 151.200 M141.600 152.091 C 141.050 152.332,139.520 152.992,138.200 153.559 C 128.440 157.750,120.178 166.244,116.008 176.375 C 115.335 178.011,114.840 179.519,114.909 179.726 C 114.977 179.932,115.553 178.774,116.188 177.151 C 120.663 165.704,129.840 156.923,142.000 152.451 C 143.210 152.006,143.840 151.644,143.400 151.648 C 142.960 151.651,142.150 151.851,141.600 152.091 M243.905 153.883 C 244.402 153.979,245.122 153.975,245.505 153.875 C 245.887 153.775,245.480 153.696,244.600 153.701 C 243.720 153.705,243.407 153.787,243.905 153.883 M280.705 153.883 C 281.202 153.979,281.922 153.975,282.305 153.875 C 282.687 153.775,282.280 153.696,281.400 153.701 C 280.520 153.705,280.207 153.787,280.705 153.883 M240.200 154.665 C 238.004 155.822,235.491 158.825,236.159 159.493 C 236.279 159.613,236.545 159.281,236.749 158.755 C 237.245 157.477,239.074 155.791,241.015 154.823 C 241.887 154.388,242.330 154.032,242.000 154.032 C 241.670 154.032,240.860 154.317,240.200 154.665 M246.800 154.195 C 246.800 154.302,247.428 154.652,248.196 154.973 C 251.334 156.284,253.180 159.399,253.240 163.484 C 253.269 165.452,253.368 165.925,253.600 165.200 C 254.779 161.519,252.537 156.729,248.716 154.763 C 247.182 153.975,246.800 153.861,246.800 154.195 M277.503 154.551 C 275.674 155.362,273.641 157.643,272.843 159.779 C 271.946 162.183,270.268 170.224,270.521 170.915 C 270.618 171.182,270.818 170.680,270.965 169.800 C 271.112 168.920,271.405 167.549,271.616 166.754 C 271.827 165.958,272.000 164.973,272.000 164.565 C 272.000 161.095,274.970 156.157,277.756 154.993 C 278.550 154.661,279.200 154.302,279.200 154.195 C 279.200 153.908,278.733 154.006,277.503 154.551 M284.985 154.792 C 289.349 157.053,291.429 161.762,290.040 166.240 C 289.759 167.148,288.896 171.601,288.266 175.400 C 288.228 175.634,290.029 175.907,292.600 176.058 C 301.726 176.592,305.000 179.006,305.000 185.200 C 305.000 191.871,301.668 193.985,290.700 194.273 C 287.235 194.364,284.400 194.565,284.399 194.719 C 284.398 195.171,297.650 194.558,299.328 194.029 C 304.021 192.549,306.893 186.391,305.001 181.864 C 303.136 177.400,299.462 175.600,292.218 175.600 L 288.475 175.600 288.811 174.300 C 288.995 173.585,289.351 171.920,289.601 170.600 C 289.852 169.280,290.224 167.549,290.428 166.754 C 291.882 161.097,289.163 155.446,284.400 154.227 C 283.805 154.075,284.042 154.304,284.985 154.792 M235.473 160.553 C 235.323 160.945,235.211 161.566,235.225 161.933 C 235.242 162.375,235.381 162.274,235.637 161.634 C 235.849 161.103,235.961 160.482,235.885 160.254 C 235.809 160.027,235.624 160.161,235.473 160.553 M234.578 164.178 C 234.427 164.981,234.404 165.737,234.526 165.860 C 234.648 165.982,234.872 165.425,235.022 164.622 C 235.173 163.819,235.196 163.063,235.074 162.940 C 234.952 162.818,234.728 163.375,234.578 164.178 M233.819 167.927 C 233.655 168.877,233.617 169.750,233.734 169.868 C 234.026 170.159,234.526 167.373,234.300 166.721 C 234.200 166.435,233.984 166.977,233.819 167.927 M252.238 169.869 C 251.839 171.887,251.596 173.777,251.697 174.069 C 251.799 174.361,252.005 173.790,252.156 172.800 C 252.307 171.810,252.620 170.257,252.853 169.348 C 253.086 168.439,253.207 167.359,253.120 166.948 C 253.034 166.537,252.637 167.851,252.238 169.869 M99.081 168.867 C 97.754 172.043,96.312 176.788,95.638 180.200 C 95.421 181.300,95.053 183.159,94.821 184.331 C 94.264 187.147,94.264 212.853,94.821 215.669 C 95.053 216.841,95.421 218.700,95.638 219.800 C 96.544 224.381,99.345 232.788,99.811 232.322 C 99.902 232.232,99.442 230.784,98.791 229.106 C 95.436 220.468,94.686 214.518,94.917 198.400 C 95.141 182.786,95.694 178.868,98.812 170.840 C 99.957 167.890,100.185 166.226,99.081 168.867 M233.034 171.881 C 232.890 172.717,232.674 173.895,232.555 174.500 L 232.336 175.600 227.374 175.600 C 217.420 175.600,213.082 178.514,213.082 185.200 C 213.082 191.371,217.485 194.800,225.409 194.800 L 228.464 194.800 228.210 196.100 C 226.864 203.012,226.364 204.975,225.870 205.289 C 225.549 205.493,225.602 205.590,226.036 205.594 C 226.488 205.598,226.814 204.935,227.164 203.300 C 227.435 202.035,227.811 200.370,228.001 199.600 C 228.191 198.830,228.466 197.358,228.614 196.328 L 228.882 194.457 225.141 194.272 C 216.910 193.867,213.520 191.220,213.520 185.200 C 213.520 178.747,216.898 176.486,227.060 176.137 L 232.720 175.942 233.209 173.353 C 233.478 171.929,233.607 170.674,233.497 170.563 C 233.386 170.453,233.178 171.046,233.034 171.881 M269.819 173.127 C 269.655 174.077,269.617 174.950,269.734 175.068 C 270.026 175.359,270.526 172.573,270.300 171.921 C 270.200 171.635,269.984 172.177,269.819 173.127 M251.303 175.200 C 251.442 175.711,252.831 175.802,260.633 175.812 L 269.800 175.824 260.819 175.704 C 254.283 175.617,251.742 175.450,251.488 175.092 C 251.235 174.734,251.184 174.764,251.303 175.200 M114.201 181.453 C 114.071 182.084,113.792 183.251,113.582 184.046 C 113.372 184.842,113.225 186.192,113.254 187.046 C 113.290 188.058,113.364 188.251,113.466 187.600 C 113.553 187.050,113.904 185.281,114.246 183.668 C 114.589 182.055,114.772 180.639,114.654 180.521 C 114.536 180.402,114.332 180.822,114.201 181.453 M112.976 200.000 C 112.976 206.270,113.032 208.835,113.099 205.700 C 113.167 202.565,113.167 197.435,113.099 194.300 C 113.032 191.165,112.976 193.730,112.976 200.000 M247.190 195.426 C 246.976 195.990,246.821 196.935,246.847 197.526 C 246.879 198.252,247.023 197.985,247.291 196.700 L 247.687 194.800 256.686 194.800 C 265.095 194.800,265.668 194.846,265.411 195.500 C 265.157 196.147,264.885 197.535,264.045 202.484 C 263.869 203.520,263.494 204.645,263.213 204.984 C 262.851 205.421,262.836 205.600,263.164 205.600 C 263.857 205.600,266.233 195.525,265.734 194.700 C 265.634 194.535,261.509 194.400,256.566 194.400 L 247.580 194.400 247.190 195.426 M283.819 197.127 C 283.655 198.077,283.617 198.950,283.734 199.068 C 284.026 199.359,284.526 196.573,284.300 195.921 C 284.200 195.635,283.984 196.177,283.819 197.127 M246.273 199.353 C 246.123 199.745,246.018 200.636,246.040 201.333 C 246.079 202.567,246.090 202.559,246.449 201.027 C 246.845 199.337,246.724 198.179,246.273 199.353 M282.982 201.382 C 282.829 202.402,282.802 203.335,282.922 203.455 C 283.042 203.575,283.265 202.839,283.418 201.818 C 283.571 200.798,283.598 199.865,283.478 199.745 C 283.358 199.625,283.135 200.361,282.982 201.382 M245.452 203.700 C 245.058 205.172,245.161 205.602,245.900 205.568 C 246.292 205.551,246.387 205.450,246.116 205.340 C 245.810 205.216,245.718 204.710,245.866 203.972 C 246.140 202.601,245.806 202.381,245.452 203.700 M211.659 206.058 C 208.447 206.983,205.555 211.281,205.642 215.000 C 205.721 218.354,206.260 218.530,206.253 215.200 C 206.244 210.548,209.121 206.476,212.491 206.372 C 212.991 206.356,213.760 206.189,214.200 206.000 C 215.371 205.497,213.457 205.541,211.659 206.058 M289.400 206.000 C 289.840 206.189,290.740 206.338,291.400 206.332 C 292.570 206.321,292.575 206.312,291.600 206.000 C 290.133 205.530,288.306 205.530,289.400 206.000 M293.362 207.133 C 293.781 207.610,294.328 208.000,294.577 208.000 C 295.775 208.000,297.599 212.179,297.641 215.019 C 297.677 217.452,297.726 217.625,298.032 216.400 C 298.804 213.309,296.769 208.648,293.942 207.033 L 292.600 206.267 293.362 207.133 M113.236 212.894 C 113.199 214.426,113.825 217.573,114.451 219.000 C 114.692 219.549,114.722 219.361,114.547 218.400 C 114.406 217.630,114.062 215.740,113.782 214.200 C 113.394 212.069,113.264 211.757,113.236 212.894 M296.654 218.973 C 296.294 219.523,296.000 220.081,296.000 220.214 C 296.000 222.240,291.645 223.614,284.401 223.873 C 278.351 224.089,278.162 224.165,277.865 226.517 C 277.588 228.710,276.707 233.264,275.682 237.800 C 274.826 241.589,273.279 243.728,270.400 245.101 C 269.410 245.574,268.832 245.969,269.116 245.980 C 270.791 246.045,275.200 242.366,275.200 240.903 C 275.200 240.621,275.379 240.077,275.599 239.695 C 275.909 239.155,278.800 225.530,278.800 224.609 C 278.800 224.494,281.047 224.400,283.794 224.400 C 291.175 224.400,294.738 223.136,296.810 219.785 C 297.806 218.172,297.664 217.432,296.654 218.973 M206.779 219.500 C 208.821 223.009,212.048 224.353,218.500 224.382 C 221.345 224.395,222.399 224.535,222.398 224.900 C 222.397 225.175,221.947 227.516,221.398 230.101 C 219.833 237.472,220.183 240.505,222.945 243.539 C 223.884 244.570,226.757 246.176,227.082 245.851 C 227.194 245.739,226.682 245.394,225.943 245.085 C 221.096 243.055,220.031 238.823,221.996 229.400 C 222.225 228.300,222.523 226.635,222.658 225.700 L 222.904 224.000 219.072 224.000 C 213.008 224.000,209.079 222.563,207.604 219.807 C 207.307 219.253,206.909 218.800,206.718 218.800 C 206.528 218.800,206.555 219.115,206.779 219.500 M114.800 220.381 C 114.800 220.978,115.534 222.703,117.446 226.600 C 120.333 232.486,123.956 236.860,129.971 241.725 C 132.677 243.914,141.727 248.447,143.243 248.373 C 143.753 248.348,143.104 248.007,141.000 247.195 C 131.988 243.719,123.435 236.655,119.262 229.245 C 118.967 228.720,118.413 227.730,118.032 227.045 C 117.650 226.360,116.829 224.495,116.206 222.900 C 115.122 220.124,114.800 219.547,114.800 220.381 M241.405 224.500 C 241.243 224.974,240.113 230.259,239.715 232.400 C 238.035 241.443,237.220 243.140,233.662 244.993 C 232.638 245.526,232.088 245.971,232.440 245.981 C 233.133 246.002,235.778 244.194,236.885 242.944 C 237.785 241.928,238.854 239.398,239.227 237.400 C 239.782 234.428,240.396 231.409,240.812 229.600 C 241.040 228.610,241.334 227.035,241.465 226.100 L 241.704 224.400 250.592 224.400 L 259.481 224.400 259.105 226.500 C 258.899 227.655,258.558 229.410,258.347 230.400 C 256.244 240.307,259.797 246.928,266.877 246.294 C 268.573 246.142,268.567 246.139,266.524 246.070 C 265.382 246.031,264.336 245.820,264.200 245.600 C 264.064 245.380,263.613 245.200,263.197 245.200 C 262.280 245.200,258.800 242.002,258.800 241.161 C 258.800 240.830,258.601 240.361,258.359 240.119 C 257.856 239.616,258.093 233.710,258.734 230.800 C 259.490 227.360,259.916 224.598,259.735 224.300 C 259.398 223.746,241.595 223.940,241.405 224.500 M100.000 233.016 C 100.000 236.058,109.925 249.034,116.400 254.456 C 121.858 259.028,135.605 266.528,136.637 265.497 C 136.736 265.397,135.959 265.001,134.909 264.618 C 132.912 263.888,128.341 261.870,127.045 261.146 C 124.019 259.456,123.198 258.964,121.602 257.879 C 113.410 252.311,105.340 243.190,101.448 235.100 C 100.456 233.038,100.000 232.382,100.000 233.016 M182.200 241.186 C 179.888 242.156,179.236 242.485,177.400 243.609 C 173.821 245.799,168.777 247.848,165.000 248.645 C 164.340 248.785,164.008 248.976,164.262 249.070 C 165.685 249.598,172.734 246.796,179.600 242.973 C 186.862 238.930,193.800 242.382,193.800 250.039 C 193.800 253.423,190.789 258.400,188.741 258.400 C 188.512 258.400,187.846 258.739,187.262 259.153 C 186.271 259.856,184.314 261.005,182.555 261.916 C 181.382 262.523,178.537 263.688,177.043 264.173 C 176.626 264.308,176.379 264.513,176.494 264.627 C 176.822 264.955,181.953 262.806,184.605 261.229 C 185.928 260.443,187.526 259.532,188.157 259.204 C 196.085 255.089,196.562 245.116,189.000 241.568 C 187.324 240.782,183.655 240.576,182.200 241.186 M228.500 246.287 C 229.105 246.378,230.095 246.378,230.700 246.287 C 231.305 246.195,230.810 246.120,229.600 246.120 C 228.390 246.120,227.895 246.195,228.500 246.287 M144.600 248.800 C 145.784 249.309,147.187 249.309,146.400 248.800 C 146.070 248.587,145.350 248.422,144.800 248.434 C 143.884 248.454,143.867 248.485,144.600 248.800 M148.200 249.600 C 148.860 249.768,150.210 249.906,151.200 249.907 L 153.000 249.908 151.400 249.577 C 150.520 249.395,149.170 249.257,148.400 249.270 L 147.000 249.295 148.200 249.600 M159.000 249.600 C 157.453 249.877,157.473 249.887,159.600 249.903 C 160.810 249.913,162.250 249.776,162.800 249.600 C 164.120 249.177,161.361 249.177,159.000 249.600 M137.600 266.000 C 137.930 266.213,138.560 266.388,139.000 266.388 C 139.662 266.388,139.697 266.321,139.200 266.000 C 138.870 265.787,138.240 265.612,137.800 265.612 C 137.138 265.612,137.103 265.679,137.600 266.000 M171.800 266.000 L 171.000 266.344 171.800 266.344 C 172.240 266.344,172.960 266.189,173.400 266.000 L 174.200 265.656 173.400 265.656 C 172.960 265.656,172.240 265.811,171.800 266.000 M140.600 266.800 C 141.040 266.989,141.760 267.144,142.200 267.144 L 143.000 267.144 142.200 266.800 C 141.760 266.611,141.040 266.456,140.600 266.456 L 139.800 266.456 140.600 266.800 M168.200 266.800 C 167.471 267.113,167.488 267.144,168.400 267.144 C 168.950 267.144,169.760 266.989,170.200 266.800 C 170.929 266.487,170.912 266.456,170.000 266.456 C 169.450 266.456,168.640 266.611,168.200 266.800 M144.000 267.600 C 144.550 267.776,145.630 267.920,146.400 267.920 C 147.667 267.920,147.705 267.890,146.800 267.600 C 146.250 267.424,145.170 267.280,144.400 267.280 C 143.133 267.280,143.095 267.310,144.000 267.600 M164.400 267.600 L 163.000 267.895 164.400 267.919 C 165.170 267.933,166.160 267.789,166.600 267.600 L 167.400 267.256 166.600 267.281 C 166.160 267.294,165.170 267.438,164.400 267.600 M150.200 268.428 C 152.752 268.813,157.228 268.815,159.800 268.432 C 161.131 268.233,159.524 268.132,155.000 268.129 C 150.448 268.127,148.861 268.225,150.200 268.428 " stroke="none" fill="#c4a3ec" fill-rule="evenodd"></path></g></svg>