<svg id="svg" version="1.1" xmlns="http://www.w3.org/2000/svg" xmlns:xlink="http://www.w3.org/1999/xlink" width="400" height="400" viewBox="0, 0, 400,400"><g id="svgg"><path id="path0" d="M179.600 0.463 C 176.410 0.653,173.440 0.973,173.000 1.174 C 172.560 1.374,170.680 1.649,168.822 1.785 C 166.964 1.921,165.254 2.185,165.022 2.371 C 164.790 2.558,163.430 2.841,162.000 3.000 C 160.570 3.159,159.220 3.426,159.000 3.594 C 158.780 3.762,157.700 4.029,156.600 4.187 C 155.500 4.345,154.420 4.616,154.200 4.788 C 153.980 4.960,152.765 5.226,151.500 5.379 C 150.235 5.532,149.200 5.804,149.200 5.983 C 149.200 6.162,148.210 6.432,147.000 6.583 C 145.790 6.734,144.800 7.012,144.800 7.200 C 144.800 7.388,143.810 7.666,142.600 7.817 C 141.390 7.968,140.400 8.240,140.400 8.422 C 140.400 8.603,139.590 8.872,138.600 9.021 C 137.610 9.169,136.800 9.439,136.800 9.621 C 136.800 9.802,135.990 10.072,135.000 10.221 C 134.010 10.369,133.200 10.630,133.200 10.801 C 133.200 10.971,132.570 11.229,131.800 11.374 C 131.030 11.518,130.400 11.788,130.400 11.973 C 130.400 12.158,129.590 12.431,128.600 12.579 C 127.610 12.728,126.800 13.016,126.800 13.220 C 126.800 13.424,126.080 13.706,125.200 13.846 C 124.320 13.987,123.600 14.259,123.600 14.451 C 123.600 14.643,123.402 14.800,123.160 14.800 C 122.919 14.800,122.064 15.094,121.260 15.453 C 120.457 15.812,118.990 16.461,118.000 16.894 C 117.010 17.328,114.906 18.294,113.325 19.041 C 111.743 19.788,110.258 20.400,110.025 20.400 C 109.791 20.400,109.600 20.566,109.600 20.768 C 109.600 20.971,109.060 21.255,108.400 21.400 C 107.740 21.545,107.198 21.784,107.196 21.932 C 107.194 22.079,106.204 22.639,104.996 23.176 C 103.788 23.713,102.800 24.279,102.800 24.433 C 102.800 24.587,102.307 24.837,101.704 24.988 C 101.101 25.140,100.516 25.384,100.404 25.532 C 100.143 25.875,98.881 26.669,97.600 27.295 C 97.050 27.564,96.510 27.877,96.400 27.992 C 96.062 28.344,94.648 29.181,93.700 29.591 C 93.205 29.805,92.800 30.145,92.800 30.347 C 92.800 30.548,92.350 30.826,91.800 30.964 C 91.250 31.102,90.800 31.392,90.800 31.608 C 90.800 31.823,90.613 32.000,90.384 32.000 C 89.910 32.000,87.469 33.645,87.267 34.100 C 87.193 34.265,86.873 34.400,86.554 34.400 C 86.236 34.400,85.871 34.670,85.745 35.000 C 85.618 35.330,85.262 35.600,84.953 35.600 C 84.645 35.600,84.084 35.960,83.707 36.400 C 83.330 36.840,82.875 37.200,82.694 37.200 C 82.514 37.200,82.149 37.382,81.883 37.604 C 81.617 37.827,80.770 38.544,80.000 39.198 C 79.230 39.852,78.479 40.390,78.331 40.394 C 78.183 40.397,77.522 40.940,76.862 41.600 C 76.202 42.260,75.504 42.800,75.312 42.800 C 75.120 42.800,74.521 43.332,73.981 43.983 C 73.442 44.634,72.789 45.174,72.531 45.183 C 72.273 45.192,71.479 45.785,70.766 46.500 C 70.054 47.215,68.915 48.208,68.235 48.706 C 64.587 51.381,50.778 65.163,48.543 68.358 C 48.175 68.884,47.272 69.935,46.537 70.692 C 45.802 71.449,45.192 72.278,45.183 72.534 C 45.174 72.790,44.634 73.442,43.983 73.981 C 43.332 74.521,42.800 75.130,42.800 75.335 C 42.800 75.540,42.350 76.125,41.800 76.635 C 41.250 77.145,40.800 77.725,40.800 77.925 C 40.800 78.125,40.215 78.936,39.500 79.729 C 37.463 81.986,37.200 82.337,37.200 82.796 C 37.200 83.032,36.930 83.329,36.600 83.455 C 36.270 83.582,36.000 83.938,36.000 84.247 C 36.000 84.555,35.640 85.116,35.200 85.493 C 34.760 85.870,34.400 86.393,34.400 86.656 C 34.400 86.918,34.265 87.193,34.100 87.267 C 33.645 87.469,32.000 89.910,32.000 90.384 C 32.000 90.613,31.832 90.800,31.627 90.800 C 31.422 90.800,31.128 91.197,30.974 91.681 C 30.820 92.166,30.493 92.790,30.247 93.067 C 29.153 94.303,28.881 94.715,28.622 95.531 C 28.470 96.009,28.198 96.400,28.016 96.400 C 27.835 96.400,27.568 96.872,27.424 97.448 C 27.279 98.025,26.944 98.739,26.680 99.034 C 25.554 100.296,25.282 100.712,24.996 101.612 C 24.830 102.135,24.448 102.809,24.147 103.110 C 23.846 103.411,23.600 103.914,23.600 104.229 C 23.600 104.543,23.434 104.800,23.232 104.800 C 23.029 104.800,22.745 105.340,22.600 106.000 C 22.455 106.660,22.190 107.200,22.012 107.200 C 21.833 107.200,21.563 107.693,21.412 108.296 C 21.260 108.899,21.013 109.484,20.862 109.596 C 20.504 109.862,17.600 115.892,17.600 116.369 C 17.600 116.570,17.332 117.245,17.005 117.868 C 16.079 119.633,14.800 122.711,14.800 123.178 C 14.800 123.410,14.643 123.600,14.451 123.600 C 14.259 123.600,13.987 124.320,13.846 125.200 C 13.706 126.080,13.458 126.801,13.295 126.803 C 13.133 126.804,12.550 128.243,12.000 130.000 C 11.450 131.757,10.885 133.196,10.745 133.197 C 10.605 133.199,10.369 134.010,10.221 135.000 C 10.072 135.990,9.802 136.800,9.621 136.800 C 9.439 136.800,9.169 137.610,9.021 138.600 C 8.872 139.590,8.599 140.400,8.413 140.400 C 8.227 140.400,7.951 141.300,7.800 142.400 C 7.649 143.499,7.379 144.490,7.200 144.600 C 7.021 144.710,6.751 145.701,6.600 146.800 C 6.449 147.900,6.179 148.800,6.002 148.800 C 5.824 148.800,5.553 149.880,5.400 151.200 C 5.247 152.520,4.980 153.600,4.807 153.600 C 4.635 153.600,4.368 154.768,4.215 156.196 C 4.062 157.623,3.787 158.885,3.602 158.998 C 3.418 159.112,3.141 160.599,2.986 162.303 C 2.831 164.006,2.558 165.583,2.380 165.807 C 2.202 166.030,1.928 167.830,1.771 169.807 C 1.613 171.783,1.348 173.490,1.181 173.600 C -0.306 174.580,-0.295 224.732,1.193 226.600 C 1.368 226.820,1.640 228.665,1.798 230.700 C 1.956 232.735,2.223 234.400,2.391 234.400 C 2.559 234.400,2.822 235.837,2.975 237.593 C 3.128 239.349,3.404 240.879,3.588 240.992 C 3.771 241.106,4.047 242.279,4.200 243.600 C 4.353 244.921,4.623 246.091,4.800 246.200 C 4.977 246.309,5.247 247.479,5.400 248.799 C 5.553 250.120,5.824 251.200,6.002 251.200 C 6.179 251.200,6.449 252.100,6.600 253.200 C 6.751 254.299,7.021 255.290,7.200 255.400 C 7.379 255.510,7.649 256.501,7.800 257.600 C 7.951 258.700,8.227 259.600,8.413 259.600 C 8.599 259.600,8.872 260.410,9.021 261.400 C 9.169 262.390,9.439 263.200,9.621 263.200 C 9.802 263.200,10.072 264.010,10.221 265.000 C 10.369 265.990,10.650 266.800,10.845 266.800 C 11.040 266.800,11.201 267.115,11.202 267.500 C 11.204 267.885,11.467 268.703,11.788 269.317 C 12.108 269.931,12.487 271.056,12.630 271.817 C 12.772 272.578,13.035 273.200,13.213 273.200 C 13.391 273.200,13.664 273.779,13.819 274.487 C 13.975 275.195,14.250 276.050,14.431 276.387 C 14.613 276.724,15.064 277.720,15.434 278.600 C 15.803 279.480,16.427 280.920,16.819 281.800 C 17.211 282.680,17.943 284.390,18.445 285.600 C 18.947 286.810,19.478 287.890,19.625 288.000 C 19.772 288.110,20.031 288.650,20.200 289.200 C 20.369 289.750,20.619 290.290,20.754 290.400 C 21.141 290.714,22.800 294.236,22.800 294.744 C 22.800 294.995,22.980 295.200,23.200 295.200 C 23.420 295.200,23.600 295.457,23.600 295.771 C 23.600 296.086,23.827 296.581,24.105 296.871 C 24.382 297.162,24.831 297.850,25.102 298.400 C 25.711 299.637,26.519 300.934,26.846 301.200 C 26.981 301.310,27.230 301.842,27.399 302.381 C 27.568 302.921,27.952 303.609,28.253 303.910 C 28.554 304.211,28.800 304.695,28.800 304.986 C 28.800 305.277,29.070 305.618,29.400 305.745 C 29.730 305.871,30.000 306.251,30.000 306.587 C 30.000 306.924,30.160 307.200,30.357 307.200 C 30.553 307.200,30.826 307.650,30.964 308.200 C 31.102 308.750,31.392 309.200,31.608 309.200 C 31.823 309.200,32.000 309.387,32.000 309.616 C 32.000 310.090,33.645 312.531,34.100 312.733 C 34.265 312.807,34.400 313.127,34.400 313.446 C 34.400 313.764,34.670 314.129,35.000 314.255 C 35.330 314.382,35.600 314.709,35.600 314.982 C 35.600 315.254,35.915 315.848,36.300 316.301 C 36.685 316.755,37.270 317.519,37.600 318.000 C 37.930 318.481,38.470 319.201,38.800 319.600 C 39.130 319.999,39.670 320.724,40.000 321.210 C 40.330 321.697,41.095 322.600,41.700 323.217 C 42.305 323.834,42.800 324.496,42.800 324.688 C 42.800 324.880,43.332 325.479,43.983 326.019 C 44.634 326.558,45.174 327.211,45.183 327.469 C 45.192 327.727,45.785 328.519,46.500 329.228 C 47.215 329.938,48.078 330.935,48.418 331.444 C 49.019 332.344,53.753 337.567,57.018 340.932 C 59.206 343.188,67.466 350.831,68.491 351.549 C 68.945 351.866,69.935 352.728,70.692 353.463 C 71.449 354.198,72.227 354.800,72.421 354.800 C 72.614 354.800,73.317 355.295,73.984 355.900 C 77.050 358.685,77.642 359.200,77.780 359.200 C 78.000 359.200,84.900 364.289,85.634 364.992 C 85.982 365.327,86.462 365.600,86.700 365.600 C 86.938 365.600,87.193 365.735,87.267 365.900 C 87.469 366.355,89.910 368.000,90.384 368.000 C 90.613 368.000,90.800 368.177,90.800 368.392 C 90.800 368.608,91.250 368.898,91.800 369.036 C 92.350 369.174,92.800 369.406,92.800 369.552 C 92.800 369.697,93.610 370.259,94.600 370.800 C 95.590 371.341,96.400 371.908,96.400 372.060 C 96.400 372.212,96.940 372.455,97.600 372.600 C 98.260 372.745,98.800 372.988,98.800 373.140 C 98.800 373.292,99.652 373.863,100.693 374.408 C 101.734 374.954,102.827 375.625,103.121 375.900 C 103.416 376.175,103.914 376.400,104.229 376.400 C 104.543 376.400,104.800 376.566,104.800 376.768 C 104.800 376.971,105.340 377.255,106.000 377.400 C 106.660 377.545,107.200 377.810,107.200 377.988 C 107.200 378.167,107.693 378.437,108.296 378.588 C 108.899 378.740,109.484 378.989,109.596 379.142 C 109.813 379.438,114.733 381.853,117.400 382.972 C 118.280 383.341,119.450 383.883,120.000 384.176 C 120.550 384.468,121.585 384.833,122.300 384.986 C 123.015 385.138,123.600 385.406,123.600 385.581 C 123.600 385.755,124.320 386.013,125.200 386.154 C 126.080 386.294,126.800 386.572,126.800 386.770 C 126.800 386.968,127.520 387.251,128.400 387.400 C 129.280 387.549,130.000 387.819,130.000 388.000 C 130.000 388.181,130.720 388.451,131.600 388.600 C 132.480 388.749,133.200 389.014,133.200 389.190 C 133.200 389.365,134.010 389.631,135.000 389.779 C 135.990 389.928,136.800 390.198,136.800 390.379 C 136.800 390.561,137.610 390.831,138.600 390.979 C 139.590 391.128,140.400 391.397,140.400 391.578 C 140.400 391.760,141.390 392.032,142.600 392.183 C 143.810 392.334,144.800 392.608,144.800 392.791 C 144.800 392.975,145.700 393.249,146.800 393.400 C 147.899 393.551,148.892 393.825,149.006 394.009 C 149.120 394.193,150.245 394.469,151.506 394.621 C 152.768 394.774,153.998 395.056,154.241 395.249 C 154.483 395.442,155.788 395.716,157.141 395.857 C 158.493 395.998,159.600 396.250,159.600 396.416 C 159.600 396.583,160.905 396.847,162.500 397.004 C 164.095 397.161,165.583 397.436,165.807 397.616 C 166.030 397.796,167.830 398.069,169.807 398.224 C 171.783 398.378,173.580 398.644,173.800 398.814 C 175.764 400.335,224.236 400.335,226.200 398.814 C 226.420 398.644,228.217 398.378,230.193 398.224 C 232.170 398.069,233.970 397.796,234.193 397.616 C 234.417 397.436,235.905 397.161,237.500 397.004 C 239.095 396.847,240.400 396.580,240.400 396.411 C 240.400 396.242,241.660 395.979,243.200 395.827 C 244.740 395.676,246.000 395.406,246.000 395.227 C 246.000 395.049,247.075 394.782,248.388 394.633 C 249.701 394.485,250.869 394.212,250.983 394.028 C 251.097 393.843,251.998 393.571,252.986 393.423 C 253.973 393.275,254.876 393.001,254.991 392.814 C 255.106 392.628,256.100 392.351,257.200 392.200 C 258.300 392.049,259.290 391.778,259.402 391.597 C 259.513 391.417,260.322 391.148,261.200 391.000 C 262.078 390.852,262.888 390.582,263.000 390.400 C 263.112 390.218,263.922 389.948,264.800 389.800 C 265.678 389.652,266.497 389.366,266.622 389.165 C 266.746 388.964,267.152 388.799,267.524 388.798 C 267.896 388.796,268.716 388.526,269.346 388.198 C 269.976 387.869,270.696 387.594,270.946 387.586 C 271.196 387.579,272.120 387.225,273.000 386.800 C 273.880 386.375,274.904 386.021,275.276 386.014 C 275.648 386.006,276.055 385.834,276.181 385.631 C 276.306 385.428,276.992 385.137,277.705 384.985 C 278.417 384.832,279.450 384.466,280.000 384.170 C 280.550 383.875,281.900 383.257,283.000 382.797 C 285.676 381.679,292.548 378.268,292.804 377.932 C 292.916 377.784,293.501 377.540,294.104 377.388 C 294.707 377.237,295.200 376.965,295.200 376.784 C 295.200 376.602,295.605 376.328,296.100 376.173 C 296.595 376.019,297.090 375.781,297.200 375.646 C 297.310 375.511,298.255 374.954,299.300 374.408 C 300.345 373.863,301.200 373.292,301.200 373.140 C 301.200 372.988,301.740 372.745,302.400 372.600 C 303.060 372.455,303.600 372.183,303.600 371.995 C 303.600 371.807,303.997 371.528,304.481 371.374 C 304.966 371.220,305.590 370.893,305.867 370.647 C 307.103 369.553,307.515 369.281,308.331 369.022 C 308.809 368.870,309.200 368.578,309.200 368.373 C 309.200 368.168,309.387 368.000,309.616 368.000 C 310.090 368.000,312.531 366.355,312.733 365.900 C 312.807 365.735,313.113 365.600,313.413 365.600 C 313.714 365.600,314.104 365.375,314.280 365.100 C 314.690 364.459,317.049 362.800,317.550 362.800 C 317.761 362.800,317.993 362.664,318.067 362.498 C 318.179 362.245,319.439 361.217,324.315 357.403 C 324.598 357.181,325.479 356.415,326.271 355.700 C 327.064 354.985,327.917 354.400,328.167 354.400 C 328.417 354.400,329.068 353.905,329.612 353.300 C 330.157 352.695,331.476 351.497,332.544 350.638 C 333.612 349.779,335.336 348.249,336.375 347.238 C 337.415 346.227,339.240 344.500,340.432 343.400 C 342.676 341.330,349.634 333.888,351.252 331.826 C 351.759 331.181,352.765 330.062,353.487 329.340 C 354.209 328.618,354.800 327.847,354.800 327.627 C 354.800 327.407,355.295 326.689,355.900 326.031 C 357.696 324.078,360.274 320.950,361.200 319.600 C 361.530 319.119,362.070 318.391,362.400 317.982 C 363.946 316.066,364.400 315.412,364.400 315.102 C 364.400 314.917,364.583 314.549,364.807 314.283 C 366.423 312.367,366.800 311.818,366.800 311.382 C 366.800 311.109,367.070 310.782,367.400 310.655 C 367.730 310.529,368.000 310.149,368.000 309.813 C 368.000 309.476,368.177 309.200,368.392 309.200 C 368.608 309.200,368.898 308.750,369.036 308.200 C 369.174 307.650,369.447 307.200,369.643 307.200 C 369.840 307.200,370.000 306.924,370.000 306.587 C 370.000 306.251,370.270 305.871,370.600 305.745 C 370.930 305.618,371.200 305.277,371.200 304.986 C 371.200 304.695,371.446 304.211,371.747 303.910 C 372.048 303.609,372.432 302.921,372.601 302.381 C 372.770 301.842,373.019 301.310,373.154 301.200 C 373.484 300.932,374.294 299.628,374.895 298.400 C 375.164 297.850,375.492 297.310,375.624 297.200 C 375.756 297.090,376.300 296.100,376.832 295.000 C 377.364 293.900,377.935 292.940,378.100 292.867 C 378.265 292.793,378.404 292.523,378.409 292.267 C 378.414 292.010,379.314 290.018,380.409 287.840 C 381.504 285.662,382.400 283.637,382.400 283.340 C 382.400 283.043,382.580 282.800,382.800 282.800 C 383.020 282.800,383.200 282.610,383.200 282.378 C 383.200 282.146,383.547 281.195,383.971 280.264 C 384.395 279.334,384.864 278.083,385.014 277.486 C 385.164 276.889,385.424 276.400,385.592 276.400 C 385.760 276.400,386.013 275.680,386.154 274.800 C 386.294 273.920,386.587 273.200,386.805 273.200 C 387.022 273.200,387.201 272.885,387.202 272.500 C 387.204 272.115,387.467 271.297,387.788 270.683 C 388.108 270.069,388.487 268.944,388.630 268.183 C 388.772 267.422,389.029 266.800,389.199 266.800 C 389.370 266.800,389.631 265.990,389.779 265.000 C 389.928 264.010,390.198 263.200,390.379 263.200 C 390.561 263.200,390.831 262.390,390.979 261.400 C 391.128 260.410,391.395 259.600,391.573 259.600 C 391.751 259.600,392.015 258.707,392.160 257.616 C 392.305 256.525,392.581 255.535,392.774 255.416 C 392.967 255.297,393.249 254.299,393.400 253.200 C 393.551 252.100,393.821 251.200,393.998 251.200 C 394.176 251.200,394.447 250.120,394.600 248.799 C 394.753 247.479,395.023 246.309,395.200 246.200 C 395.377 246.091,395.647 244.921,395.800 243.600 C 395.953 242.279,396.226 241.108,396.405 240.997 C 396.585 240.886,396.861 239.401,397.019 237.697 C 397.176 235.994,397.437 234.510,397.598 234.400 C 397.759 234.290,398.090 232.490,398.334 230.400 C 398.577 228.310,398.958 225.430,399.179 224.000 C 400.306 216.717,400.004 174.367,398.820 173.604 C 398.646 173.492,398.373 171.645,398.214 169.500 C 398.055 167.355,397.785 165.600,397.614 165.600 C 397.443 165.600,397.178 164.163,397.025 162.407 C 396.872 160.651,396.596 159.121,396.412 159.008 C 396.229 158.894,395.953 157.721,395.800 156.400 C 395.647 155.079,395.377 153.909,395.200 153.800 C 395.023 153.691,394.753 152.521,394.600 151.201 C 394.447 149.880,394.176 148.800,393.998 148.800 C 393.821 148.800,393.551 147.900,393.400 146.800 C 393.249 145.701,392.979 144.710,392.800 144.600 C 392.621 144.490,392.351 143.499,392.200 142.400 C 392.049 141.300,391.773 140.400,391.587 140.400 C 391.401 140.400,391.128 139.590,390.979 138.600 C 390.831 137.610,390.561 136.800,390.379 136.800 C 390.198 136.800,389.928 135.990,389.779 135.000 C 389.631 134.010,389.350 133.200,389.155 133.200 C 388.960 133.200,388.799 132.885,388.798 132.500 C 388.796 132.115,388.533 131.297,388.212 130.683 C 387.892 130.069,387.513 128.944,387.370 128.183 C 387.228 127.422,386.953 126.800,386.760 126.800 C 386.567 126.800,386.294 126.080,386.154 125.200 C 386.013 124.320,385.760 123.600,385.592 123.600 C 385.424 123.600,385.164 123.111,385.014 122.514 C 384.864 121.917,384.395 120.666,383.971 119.736 C 383.547 118.805,383.200 117.854,383.200 117.622 C 383.200 117.390,383.020 117.200,382.800 117.200 C 382.580 117.200,382.400 116.983,382.400 116.718 C 382.400 116.169,379.551 109.906,379.162 109.600 C 379.022 109.490,378.769 108.950,378.600 108.400 C 378.431 107.850,378.181 107.310,378.046 107.200 C 377.910 107.090,377.364 106.100,376.832 105.000 C 376.300 103.900,375.760 102.910,375.632 102.800 C 375.504 102.690,374.954 101.745,374.408 100.700 C 373.863 99.655,373.292 98.800,373.140 98.800 C 372.988 98.800,372.745 98.260,372.600 97.600 C 372.455 96.940,372.183 96.400,371.995 96.400 C 371.807 96.400,371.528 96.003,371.374 95.519 C 371.220 95.034,370.893 94.410,370.647 94.133 C 369.553 92.897,369.281 92.485,369.022 91.669 C 368.870 91.191,368.578 90.800,368.373 90.800 C 368.168 90.800,368.000 90.524,368.000 90.187 C 368.000 89.851,367.746 89.478,367.436 89.359 C 367.126 89.239,366.763 88.705,366.628 88.171 C 366.494 87.637,366.208 87.200,365.992 87.200 C 365.777 87.200,365.600 86.924,365.600 86.587 C 365.600 86.251,365.330 85.871,365.000 85.745 C 364.670 85.618,364.400 85.292,364.400 85.019 C 364.400 84.747,364.040 84.198,363.600 83.800 C 363.160 83.402,362.800 82.925,362.800 82.741 C 362.800 82.417,361.974 81.359,360.100 79.281 C 359.605 78.732,359.200 78.136,359.200 77.955 C 359.200 77.775,358.705 77.083,358.100 76.416 C 357.495 75.750,356.505 74.657,355.900 73.986 C 355.295 73.316,354.800 72.589,354.800 72.370 C 354.800 72.152,354.190 71.363,353.445 70.618 C 352.699 69.872,351.827 68.888,351.506 68.430 C 349.209 65.151,335.473 51.427,331.765 48.706 C 331.085 48.208,329.946 47.215,329.234 46.500 C 328.521 45.785,327.779 45.200,327.583 45.200 C 327.388 45.200,326.689 44.705,326.031 44.100 C 324.031 42.260,320.920 39.701,319.588 38.800 C 319.101 38.470,318.467 37.975,318.180 37.700 C 317.892 37.425,317.459 37.200,317.216 37.200 C 316.973 37.200,316.674 36.937,316.550 36.615 C 316.427 36.294,315.946 35.910,315.482 35.762 C 315.017 35.615,314.426 35.293,314.168 35.047 C 313.909 34.801,313.295 34.330,312.803 34.000 C 312.310 33.670,311.495 33.085,310.991 32.700 C 310.486 32.315,309.877 32.000,309.637 32.000 C 309.397 32.000,309.200 31.823,309.200 31.608 C 309.200 31.392,308.763 31.106,308.229 30.972 C 307.695 30.837,307.161 30.474,307.041 30.164 C 306.922 29.854,306.549 29.600,306.213 29.600 C 305.876 29.600,305.600 29.432,305.600 29.227 C 305.600 29.022,305.195 28.728,304.700 28.573 C 304.205 28.419,303.710 28.181,303.600 28.046 C 303.490 27.911,302.545 27.354,301.500 26.808 C 300.455 26.263,299.600 25.697,299.600 25.552 C 299.600 25.406,299.107 25.163,298.504 25.012 C 297.901 24.860,297.316 24.603,297.204 24.439 C 297.092 24.275,295.560 23.435,293.800 22.571 C 292.040 21.707,290.510 20.908,290.400 20.794 C 290.068 20.451,284.025 17.600,283.631 17.600 C 283.430 17.600,282.755 17.332,282.132 17.005 C 280.367 16.079,277.289 14.800,276.822 14.800 C 276.590 14.800,276.400 14.643,276.400 14.451 C 276.400 14.259,275.680 13.987,274.800 13.846 C 273.920 13.706,273.200 13.424,273.200 13.220 C 273.200 13.016,272.390 12.728,271.400 12.579 C 270.410 12.431,269.600 12.158,269.600 11.973 C 269.600 11.788,268.970 11.518,268.200 11.374 C 267.430 11.229,266.800 10.971,266.800 10.801 C 266.800 10.630,265.990 10.369,265.000 10.221 C 264.010 10.072,263.200 9.802,263.200 9.621 C 263.200 9.439,262.390 9.169,261.400 9.021 C 260.410 8.872,259.600 8.603,259.600 8.422 C 259.600 8.240,258.610 7.968,257.400 7.817 C 256.190 7.666,255.200 7.388,255.200 7.200 C 255.200 7.012,254.210 6.734,253.000 6.583 C 251.790 6.432,250.800 6.157,250.800 5.974 C 250.800 5.790,249.720 5.518,248.400 5.368 C 247.080 5.219,246.000 4.958,246.000 4.788 C 246.000 4.618,244.920 4.353,243.599 4.200 C 242.279 4.047,241.111 3.780,241.005 3.608 C 240.898 3.435,239.594 3.165,238.106 3.008 C 236.618 2.850,235.210 2.566,234.978 2.377 C 234.746 2.187,233.036 1.921,231.178 1.785 C 229.320 1.649,227.440 1.379,227.000 1.185 C 224.623 0.134,193.153 -0.345,179.600 0.463 M212.200 23.204 C 217.774 23.564,220.916 23.910,227.000 24.833 C 230.711 25.396,235.735 26.302,236.400 26.529 C 236.730 26.641,238.800 27.123,241.000 27.599 C 243.200 28.076,245.450 28.616,246.000 28.801 C 246.550 28.985,248.080 29.439,249.400 29.810 C 262.203 33.408,276.238 39.452,289.600 47.123 C 303.997 55.389,321.560 69.882,332.833 82.800 C 334.465 84.670,335.896 86.290,336.013 86.400 C 338.211 88.469,348.801 103.470,352.672 110.000 C 360.812 123.729,368.449 142.260,371.794 156.400 C 372.081 157.610,372.616 159.860,372.985 161.400 C 373.747 164.582,374.533 168.817,375.174 173.200 C 375.416 174.850,375.783 177.280,375.990 178.600 C 377.251 186.629,377.498 209.722,376.416 218.400 C 374.756 231.708,373.686 237.276,370.610 248.600 C 357.968 295.142,323.586 336.772,279.545 358.863 C 276.105 360.588,273.196 362.000,273.081 362.000 C 272.966 362.000,271.550 362.608,269.936 363.352 C 265.101 365.579,255.782 368.939,249.400 370.757 C 240.163 373.389,233.436 374.823,224.000 376.171 C 201.830 379.340,174.960 377.701,154.200 371.914 C 152.660 371.485,151.040 371.039,150.600 370.923 C 124.393 364.015,95.046 346.698,74.174 325.826 C 55.788 307.440,39.803 282.099,32.398 259.600 C 31.928 258.170,31.379 256.640,31.180 256.200 C 30.827 255.423,29.477 250.902,28.013 245.600 C 26.750 241.025,25.082 232.928,24.181 227.000 C 12.710 151.530,51.059 76.797,119.000 42.219 C 127.904 37.687,133.735 35.170,140.800 32.810 C 142.890 32.111,144.960 31.386,145.400 31.197 C 145.840 31.009,147.640 30.463,149.400 29.985 C 151.160 29.507,153.050 28.963,153.600 28.777 C 157.507 27.456,167.850 25.460,178.400 23.991 C 186.384 22.880,201.668 22.524,212.200 23.204 M225.787 45.100 C 225.926 46.585,226.228 49.023,226.458 50.517 C 226.689 52.012,226.777 53.639,226.652 54.133 C 226.528 54.628,226.236 56.735,226.002 58.816 C 225.365 64.496,222.832 71.359,219.541 76.320 C 218.913 77.266,218.400 78.196,218.400 78.387 C 218.400 78.577,218.265 78.793,218.100 78.867 C 217.935 78.940,217.260 79.803,216.600 80.785 C 215.251 82.792,205.371 92.891,202.000 95.709 C 200.790 96.720,197.730 99.198,195.200 101.214 C 184.549 109.702,179.278 113.934,177.829 115.162 C 175.816 116.866,167.053 125.706,166.093 127.000 C 165.603 127.660,164.572 129.044,163.801 130.076 C 163.031 131.108,162.400 132.056,162.400 132.184 C 162.400 132.312,161.957 133.117,161.416 133.975 C 160.875 134.832,160.310 136.043,160.161 136.667 C 160.012 137.290,159.690 138.053,159.445 138.361 C 158.794 139.182,158.843 150.203,159.500 150.860 C 159.775 151.135,160.000 151.702,160.000 152.120 C 160.000 152.537,160.292 153.536,160.650 154.340 C 161.914 157.181,164.183 161.803,164.411 162.000 C 164.538 162.110,165.077 162.920,165.608 163.800 C 166.140 164.680,166.717 165.580,166.892 165.800 C 167.067 166.020,167.755 166.920,168.421 167.800 C 170.224 170.180,172.020 172.355,173.686 174.176 C 174.503 175.069,175.941 176.700,176.880 177.800 C 178.970 180.248,194.490 195.243,194.708 195.025 C 194.969 194.765,192.894 191.263,189.478 186.200 C 180.947 173.554,178.647 169.916,176.959 166.400 C 175.956 164.310,174.974 162.293,174.775 161.917 C 174.577 161.542,174.297 160.462,174.153 159.517 C 174.009 158.573,173.690 157.547,173.445 157.239 C 172.848 156.485,172.868 145.487,173.469 144.744 C 173.710 144.445,174.030 143.570,174.180 142.800 C 174.656 140.357,179.378 131.532,180.815 130.400 C 180.954 130.290,181.233 129.906,181.434 129.546 C 182.679 127.321,191.694 118.936,202.800 109.672 C 205.181 107.686,214.115 98.838,215.407 97.186 C 215.843 96.629,217.017 95.189,218.016 93.986 C 220.010 91.587,222.800 87.729,222.800 87.372 C 222.800 87.248,223.231 86.574,223.757 85.873 C 225.342 83.764,228.366 77.368,229.427 73.878 C 229.976 72.075,230.611 70.060,230.838 69.400 C 232.274 65.239,231.429 53.333,229.386 48.940 C 229.064 48.246,228.800 47.584,228.800 47.468 C 228.800 47.132,225.926 42.400,225.721 42.400 C 225.620 42.400,225.649 43.615,225.787 45.100 M251.486 101.592 C 248.453 102.639,245.858 103.609,245.719 103.748 C 245.580 103.886,245.182 104.006,244.833 104.014 C 244.485 104.021,243.480 104.375,242.600 104.800 C 241.720 105.225,240.870 105.579,240.711 105.586 C 238.171 105.706,216.822 117.543,214.000 120.398 C 213.890 120.509,212.900 121.315,211.800 122.189 C 197.868 133.260,193.569 147.257,199.695 161.600 C 201.688 166.266,203.465 169.103,208.287 175.322 C 216.453 185.853,216.945 192.340,210.323 202.138 C 208.247 205.208,208.414 205.217,212.414 202.255 C 224.078 193.618,229.252 184.838,227.978 175.844 C 227.372 171.565,225.835 168.697,219.272 159.600 C 206.953 142.523,211.897 129.609,237.189 112.800 C 237.686 112.470,238.836 111.647,239.746 110.971 C 240.656 110.296,241.670 109.616,242.000 109.461 C 242.330 109.306,243.950 108.288,245.600 107.199 C 247.250 106.110,250.670 103.955,253.200 102.411 C 255.730 100.866,257.620 99.622,257.400 99.646 C 257.180 99.669,254.519 100.545,251.486 101.592 " stroke="none" fill="#da531e" fill-rule="evenodd"></path><path id="path1" d="M185.600 23.666 C 171.487 25.104,166.419 26.027,150.600 30.039 C 139.093 32.958,118.928 41.820,107.800 48.850 C 106.480 49.683,104.320 51.042,103.000 51.869 C 75.843 68.884,51.360 97.761,37.438 129.200 C 32.405 140.567,27.856 155.223,25.830 166.600 C 25.478 168.580,25.011 171.100,24.794 172.200 C 24.391 174.237,23.969 177.810,23.167 185.959 C 22.550 192.228,22.913 214.258,23.741 220.800 C 24.959 230.426,27.540 243.176,29.611 249.800 C 32.547 259.193,34.519 264.678,36.800 269.800 C 36.996 270.240,37.546 271.500,38.023 272.600 C 40.053 277.287,44.446 285.752,47.216 290.313 C 48.857 293.016,50.383 295.536,50.606 295.913 C 51.752 297.850,53.780 300.734,57.559 305.800 C 61.347 310.877,62.835 312.730,67.188 317.787 C 70.911 322.113,82.242 333.044,87.400 337.286 C 90.886 340.154,101.568 347.904,104.087 349.394 C 104.464 349.617,106.984 351.143,109.687 352.784 C 114.248 355.554,122.713 359.947,127.400 361.977 C 128.500 362.454,129.760 363.004,130.200 363.200 C 133.676 364.748,134.828 365.200,135.298 365.200 C 135.596 365.200,136.011 365.362,136.220 365.559 C 137.627 366.890,156.421 372.311,166.000 374.149 C 173.310 375.551,175.324 375.834,184.800 376.789 C 189.693 377.282,209.920 377.291,214.600 376.802 C 223.195 375.905,225.920 375.575,227.800 375.205 C 228.900 374.988,231.420 374.522,233.400 374.170 C 240.835 372.846,255.331 368.864,260.200 366.808 C 260.640 366.622,262.080 366.070,263.400 365.581 C 266.440 364.456,266.883 364.276,269.800 362.977 C 271.120 362.389,273.190 361.468,274.400 360.929 C 277.397 359.595,279.360 358.640,279.600 358.400 C 279.710 358.290,280.790 357.708,282.000 357.106 C 285.298 355.466,289.981 352.842,291.920 351.548 C 292.866 350.917,293.710 350.400,293.795 350.400 C 293.946 350.400,296.139 348.922,301.803 345.003 C 318.949 333.139,337.590 313.824,348.131 297.000 C 348.958 295.680,350.317 293.520,351.150 292.200 C 358.163 281.099,367.161 260.611,369.949 249.400 C 370.168 248.520,370.729 246.360,371.195 244.600 C 373.199 237.040,374.813 228.446,375.591 221.200 C 376.750 210.407,376.867 207.967,376.695 198.200 C 376.362 179.356,375.126 170.820,369.805 150.600 C 368.836 146.919,365.797 138.192,364.345 134.922 C 363.935 133.999,363.600 133.086,363.600 132.893 C 363.600 132.700,363.060 131.427,362.400 130.065 C 361.740 128.702,361.200 127.475,361.200 127.338 C 361.200 126.744,354.534 113.882,352.421 110.400 C 345.022 98.206,337.653 88.413,328.800 79.011 C 318.263 67.821,306.793 58.396,293.200 49.760 C 290.406 47.985,289.862 47.663,288.961 47.250 C 288.500 47.039,286.970 46.173,285.561 45.325 C 282.235 43.323,274.857 39.711,269.800 37.609 C 267.600 36.694,265.440 35.780,265.000 35.577 C 262.712 34.521,254.244 31.592,250.000 30.390 C 237.016 26.709,227.816 25.027,212.982 23.619 C 207.844 23.132,190.554 23.161,185.600 23.666 M226.880 43.117 C 235.024 55.679,233.645 71.834,223.053 87.949 C 217.486 96.419,210.350 103.945,197.992 114.379 C 184.370 125.880,174.874 137.378,174.808 142.451 C 174.804 142.809,174.522 143.767,174.183 144.579 C 173.297 146.699,173.320 154.780,174.220 157.878 C 176.412 165.423,178.435 168.988,190.967 187.385 C 193.575 191.214,196.273 196.261,195.906 196.627 C 195.638 196.896,190.121 191.767,182.778 184.423 C 151.962 153.602,150.560 137.989,176.600 115.621 C 177.700 114.676,179.050 113.513,179.600 113.037 C 180.150 112.560,182.805 110.422,185.500 108.285 C 202.306 94.960,202.358 94.916,208.714 88.701 C 222.468 75.253,227.927 61.214,225.395 45.800 C 224.427 39.909,224.598 39.598,226.880 43.117 M259.200 99.103 C 259.200 99.270,257.265 100.560,254.900 101.970 C 250.951 104.325,248.986 105.554,242.800 109.543 C 229.347 118.217,218.919 127.658,215.257 134.478 C 210.527 143.287,211.897 148.127,224.070 165.600 C 233.181 178.679,228.414 192.336,210.598 204.190 C 206.121 207.169,205.106 207.540,206.845 205.561 C 213.218 198.308,215.705 190.303,213.372 184.549 C 211.795 180.660,211.497 180.188,207.363 175.039 C 188.701 151.796,193.973 131.029,222.898 113.844 C 227.094 111.351,237.570 106.000,238.255 106.000 C 238.378 106.000,239.046 105.749,239.740 105.442 C 246.501 102.447,259.200 98.310,259.200 99.103 M283.651 195.453 C 299.430 198.944,306.026 214.315,297.361 227.400 C 291.509 236.237,279.517 243.861,263.400 248.993 C 260.980 249.763,258.468 250.574,257.817 250.793 C 256.583 251.211,255.829 250.898,256.317 250.170 C 256.596 249.753,261.888 246.503,265.000 244.837 C 281.044 236.249,291.698 220.861,288.621 210.720 C 285.639 200.893,276.592 196.923,263.848 199.849 C 262.225 200.221,262.617 199.315,264.719 197.833 C 268.485 195.179,277.367 194.062,283.651 195.453 M162.600 197.600 C 162.736 197.820,162.752 198.000,162.635 198.000 C 162.430 198.000,154.045 200.342,150.400 201.417 C 149.410 201.709,147.610 202.333,146.400 202.804 C 145.190 203.275,143.712 203.812,143.116 203.998 C 139.180 205.223,134.582 208.174,134.387 209.600 C 134.216 210.854,134.443 211.205,135.900 211.936 C 145.069 216.531,187.077 216.486,229.800 211.836 C 232.660 211.525,235.450 211.163,236.000 211.033 C 236.550 210.903,238.440 210.624,240.200 210.413 C 244.490 209.900,250.435 208.995,253.512 208.387 C 257.221 207.655,256.957 208.114,252.342 210.425 C 250.064 211.566,247.300 213.084,246.200 213.799 C 244.990 214.586,243.016 215.364,241.200 215.772 C 239.550 216.142,237.480 216.618,236.600 216.830 C 231.066 218.162,219.957 219.863,210.800 220.781 C 199.957 221.868,197.607 222.043,189.000 222.402 C 147.574 224.132,113.200 219.867,113.200 212.997 C 113.200 209.960,125.208 204.195,139.000 200.611 C 147.622 198.371,161.947 196.543,162.600 197.600 M150.800 230.362 C 150.800 230.561,150.170 231.478,149.400 232.400 C 146.285 236.128,147.881 238.808,154.000 240.127 C 156.751 240.719,159.693 241.023,172.200 242.008 C 188.766 243.311,210.519 241.733,231.336 237.718 L 234.472 237.113 235.736 238.298 C 237.396 239.855,240.878 242.060,243.508 243.220 C 244.668 243.732,245.558 244.327,245.486 244.542 C 245.330 245.011,238.462 246.846,231.800 248.199 C 229.160 248.735,226.190 249.360,225.200 249.586 C 211.119 252.810,181.984 254.196,166.000 252.403 C 132.790 248.677,126.572 239.589,150.700 230.040 C 150.755 230.018,150.800 230.163,150.800 230.362 M157.600 261.779 C 157.600 261.878,157.150 262.444,156.600 263.038 C 153.031 266.889,157.936 269.052,173.400 270.444 C 187.256 271.691,201.468 271.196,214.200 269.024 C 215.960 268.724,219.147 268.201,221.283 267.861 L 225.165 267.245 230.483 269.934 C 233.407 271.412,236.925 273.099,238.300 273.681 C 239.675 274.264,240.800 274.890,240.800 275.072 C 240.800 275.400,231.522 278.904,228.800 279.604 C 228.030 279.802,226.320 280.258,225.000 280.617 C 202.480 286.740,171.066 286.455,155.800 279.990 C 145.046 275.435,142.042 271.253,146.396 266.898 C 148.616 264.678,157.600 260.574,157.600 261.779 M134.767 282.899 C 136.411 283.627,136.018 283.800,131.800 284.204 C 121.644 285.178,108.800 290.563,108.800 293.848 C 108.800 296.244,117.241 299.171,129.800 301.131 C 140.946 302.869,145.377 303.312,159.000 304.047 C 168.631 304.567,214.671 304.248,219.400 303.629 C 221.160 303.398,225.390 303.029,228.800 302.807 C 267.449 300.302,289.199 293.774,284.220 286.174 C 283.348 284.843,283.625 284.577,285.063 285.362 C 292.656 289.512,288.377 295.692,274.456 300.683 C 261.416 305.358,243.611 308.830,222.600 310.796 C 210.278 311.949,207.323 312.126,196.600 312.354 C 169.917 312.920,141.750 311.538,120.800 308.634 C 118.490 308.314,114.620 307.780,112.200 307.448 C 94.142 304.967,88.060 301.919,90.832 296.740 C 93.808 291.180,109.058 284.396,123.400 282.253 C 125.947 281.872,133.403 282.296,134.767 282.899 M301.200 300.525 C 301.200 306.565,288.925 314.885,274.800 318.419 C 264.770 320.927,260.689 321.701,247.356 323.623 C 226.561 326.621,183.849 327.106,158.800 324.628 C 145.297 323.292,134.560 321.049,129.622 318.533 C 128.368 317.893,129.412 317.366,131.095 317.788 C 132.780 318.211,140.469 319.159,145.800 319.601 C 148.440 319.820,152.220 320.183,154.200 320.407 C 164.753 321.604,204.746 321.606,218.600 320.411 C 231.547 319.295,241.237 318.250,246.400 317.415 C 248.490 317.077,251.910 316.524,254.000 316.186 C 265.321 314.357,278.116 311.212,285.600 308.417 C 291.751 306.121,299.057 302.058,300.132 300.337 C 300.759 299.333,301.200 299.411,301.200 300.525 " stroke="none" fill="#ececec" fill-rule="evenodd"></path><path id="path2" d="M273.000 195.439 C 269.740 195.918,265.724 197.411,264.000 198.785 C 262.984 199.595,263.488 199.902,264.737 199.234 C 269.496 196.687,279.747 198.693,284.228 203.048 C 296.558 215.031,287.631 232.373,261.400 247.395 C 256.864 249.993,256.979 249.912,257.321 250.254 C 257.460 250.393,258.075 250.318,258.687 250.086 C 259.299 249.854,260.880 249.349,262.200 248.963 C 264.836 248.193,270.996 245.938,273.200 244.936 C 277.073 243.176,281.810 240.715,283.428 239.623 C 284.425 238.950,285.411 238.400,285.620 238.400 C 285.829 238.400,286.001 238.265,286.003 238.100 C 286.004 237.935,286.678 237.350,287.500 236.800 C 292.214 233.644,296.703 228.486,298.820 223.791 C 299.313 222.696,299.916 221.368,300.159 220.839 C 300.740 219.574,300.732 210.801,300.147 209.561 C 298.367 205.781,297.564 204.502,295.800 202.635 C 290.477 197.000,281.553 194.184,273.000 195.439 M153.961 198.173 C 153.866 198.268,152.171 198.558,150.194 198.818 C 144.372 199.583,134.827 201.870,131.800 203.224 C 131.360 203.421,130.100 203.875,129.000 204.234 C 127.900 204.593,126.190 205.236,125.200 205.665 C 124.210 206.093,123.040 206.590,122.600 206.769 C 111.677 211.208,111.014 214.631,120.514 217.528 C 125.292 218.985,127.270 219.357,138.000 220.815 C 147.525 222.110,177.700 222.845,188.800 222.052 C 192.210 221.809,197.700 221.423,201.000 221.195 C 212.400 220.408,217.039 219.846,229.200 217.780 C 232.370 217.241,233.931 216.932,240.876 215.470 C 242.709 215.084,244.726 214.216,247.276 212.716 C 249.324 211.511,251.810 210.137,252.800 209.663 C 254.920 208.647,254.556 208.606,250.231 209.373 C 236.006 211.894,218.108 213.830,200.200 214.786 C 173.195 216.227,167.010 216.310,153.961 215.408 C 146.123 214.867,144.154 214.620,139.388 213.584 C 134.166 212.448,132.502 210.241,134.990 207.753 C 136.394 206.349,147.195 201.637,151.200 200.682 C 151.750 200.551,153.190 200.145,154.400 199.780 C 155.610 199.415,157.500 198.880,158.600 198.592 L 160.600 198.068 157.367 198.034 C 155.588 198.015,154.056 198.078,153.961 198.173 M148.400 231.487 C 147.630 231.836,146.370 232.382,145.600 232.700 C 136.049 236.648,134.004 241.243,140.000 245.282 C 141.210 246.097,142.740 246.883,143.400 247.028 C 144.060 247.173,144.780 247.424,145.000 247.585 C 145.954 248.284,152.253 249.843,159.600 251.201 C 166.584 252.491,190.379 253.254,198.600 252.452 C 201.020 252.216,204.980 251.836,207.400 251.609 C 213.171 251.066,219.820 250.167,223.800 249.391 C 225.560 249.048,228.350 248.515,230.000 248.206 C 233.150 247.615,236.195 246.898,240.200 245.801 C 241.520 245.439,243.095 245.046,243.700 244.926 C 245.290 244.612,245.073 244.352,241.996 242.884 C 240.479 242.161,238.146 240.748,236.813 239.746 C 233.983 237.619,234.216 237.627,224.800 239.294 C 221.610 239.858,216.750 240.605,214.000 240.953 C 211.250 241.300,207.380 241.789,205.400 242.038 C 198.961 242.847,176.691 242.974,169.349 242.243 C 165.801 241.889,162.079 241.600,161.078 241.600 C 158.704 241.600,151.494 240.173,150.021 239.411 C 146.701 237.694,146.477 235.054,149.364 231.700 C 150.266 230.653,150.246 230.649,148.400 231.487 M155.000 262.800 C 154.864 263.020,154.448 263.200,154.076 263.200 C 149.738 263.202,144.027 268.985,145.321 272.066 C 150.088 283.411,193.530 288.527,221.600 281.049 C 222.810 280.727,224.880 280.171,226.200 279.814 C 227.520 279.456,229.320 278.982,230.200 278.759 C 231.080 278.536,231.971 278.184,232.180 277.977 C 232.389 277.770,232.779 277.600,233.046 277.600 C 234.033 277.600,240.054 275.095,239.733 274.818 C 239.550 274.660,238.410 274.118,237.200 273.615 C 234.899 272.656,230.287 270.408,227.173 268.728 C 225.129 267.624,226.149 267.560,213.800 269.563 C 197.011 272.286,162.601 271.778,159.420 268.760 C 159.211 268.562,158.730 268.400,158.351 268.400 C 156.118 268.400,154.363 265.337,155.600 263.600 C 156.283 262.641,156.333 262.400,155.851 262.400 C 155.519 262.400,155.136 262.580,155.000 262.800 M123.411 282.817 C 117.535 283.482,109.347 285.779,103.322 288.455 C 102.399 288.865,101.550 289.200,101.436 289.200 C 101.110 289.200,95.057 292.910,94.507 293.447 C 94.236 293.712,93.876 293.990,93.707 294.064 C 90.201 295.614,90.350 302.774,93.889 302.802 C 94.060 302.804,94.728 303.080,95.374 303.417 C 98.004 304.789,103.755 305.897,118.000 307.777 C 120.310 308.082,122.740 308.438,123.400 308.568 C 124.060 308.699,126.580 308.982,129.000 309.199 C 131.420 309.415,136.190 309.867,139.600 310.202 C 161.834 312.387,203.910 312.815,216.400 310.983 C 217.170 310.870,220.500 310.514,223.800 310.193 C 233.329 309.263,237.340 308.814,238.200 308.578 C 238.640 308.457,240.710 308.109,242.800 307.804 C 250.372 306.701,264.569 303.649,267.800 302.430 C 268.240 302.264,269.860 301.722,271.400 301.226 C 272.940 300.729,274.767 300.071,275.460 299.762 C 276.154 299.453,276.882 299.200,277.079 299.200 C 278.304 299.200,284.836 295.288,286.500 293.557 C 289.074 290.880,289.130 289.351,286.733 287.139 C 285.253 285.772,283.479 284.839,284.720 286.080 C 285.527 286.887,285.301 289.764,284.334 290.993 C 280.664 295.659,268.404 299.075,245.600 301.786 C 240.899 302.345,233.182 303.016,220.200 303.994 C 171.187 307.689,108.400 301.996,108.400 293.858 C 108.400 290.191,121.446 284.636,132.400 283.637 C 134.008 283.490,134.735 283.291,134.306 283.115 C 133.095 282.617,126.720 282.443,123.411 282.817 M298.800 302.085 C 295.746 304.813,286.452 308.931,277.800 311.391 C 276.480 311.766,274.590 312.312,273.600 312.605 C 272.610 312.897,270.810 313.333,269.600 313.574 C 268.390 313.815,266.140 314.292,264.600 314.633 C 253.289 317.145,239.146 319.129,223.600 320.386 C 220.630 320.626,215.680 321.036,212.600 321.296 C 204.723 321.963,168.478 321.949,160.000 321.276 C 145.350 320.114,137.069 319.291,134.600 318.754 C 130.743 317.913,130.350 318.530,134.000 319.695 C 148.227 324.235,189.583 327.301,214.000 325.627 C 217.850 325.363,224.240 324.986,228.200 324.789 C 266.259 322.893,294.310 314.398,299.931 303.065 C 301.218 300.470,300.909 300.202,298.800 302.085 " stroke="none" fill="#6565f3" fill-rule="evenodd"></path><path id="path3" d="M272.315 195.128 C 271.938 195.278,274.244 195.400,277.439 195.400 C 280.633 195.400,282.832 195.283,282.324 195.140 C 281.092 194.793,273.183 194.784,272.315 195.128 M267.733 196.340 C 264.147 197.580,261.067 200.507,264.100 199.794 C 264.815 199.626,267.110 199.162,269.200 198.762 C 272.634 198.106,272.750 198.057,270.400 198.254 C 268.021 198.453,266.827 198.668,264.000 199.407 L 263.000 199.668 264.000 198.828 C 265.274 197.758,266.947 196.964,269.100 196.408 C 270.035 196.167,270.800 195.886,270.800 195.785 C 270.800 195.443,269.812 195.622,267.733 196.340 M284.401 195.734 C 284.510 195.843,285.817 196.390,287.304 196.950 C 293.120 199.138,298.105 203.941,299.768 208.957 C 299.906 209.374,300.129 209.604,300.263 209.470 C 301.665 208.068,294.221 199.737,289.600 197.536 C 286.929 196.264,283.869 195.203,284.401 195.734 M157.000 197.600 L 155.000 197.874 157.800 197.971 L 160.600 198.068 158.600 198.592 C 157.500 198.880,155.610 199.415,154.400 199.780 C 153.190 200.145,151.750 200.551,151.200 200.682 C 149.033 201.199,139.678 204.909,137.627 206.065 C 132.478 208.967,132.482 211.285,137.640 213.085 C 139.048 213.577,140.650 213.967,141.200 213.953 C 141.750 213.939,141.030 213.614,139.600 213.230 C 135.234 212.058,134.154 211.306,134.387 209.600 C 134.582 208.174,139.180 205.223,143.116 203.998 C 143.712 203.812,145.190 203.275,146.400 202.804 C 147.610 202.333,149.410 201.709,150.400 201.417 C 154.045 200.342,162.430 198.000,162.635 198.000 C 162.752 198.000,162.736 197.820,162.600 197.600 C 162.332 197.166,160.163 197.166,157.000 197.600 M149.040 198.442 C 147.742 198.631,146.572 198.897,146.440 199.033 C 146.155 199.325,150.940 198.852,152.860 198.399 L 154.200 198.082 152.800 198.090 C 152.030 198.094,150.338 198.252,149.040 198.442 M275.439 198.960 C 281.581 200.382,286.750 204.919,288.628 210.537 L 289.184 212.200 288.961 210.633 C 288.237 205.539,280.817 199.080,275.117 198.581 L 273.000 198.396 275.439 198.960 M142.400 199.712 C 141.410 199.946,140.870 200.194,141.200 200.264 C 141.530 200.333,142.790 200.142,144.000 199.839 C 145.210 199.536,145.750 199.288,145.200 199.287 C 144.650 199.286,143.390 199.477,142.400 199.712 M137.824 200.850 C 135.599 201.371,135.446 201.749,137.600 201.401 C 139.447 201.102,141.239 200.395,140.000 200.452 C 139.670 200.468,138.691 200.647,137.824 200.850 M133.600 202.088 C 132.830 202.316,132.405 202.579,132.657 202.671 C 132.908 202.763,133.718 202.574,134.457 202.251 C 136.019 201.570,135.609 201.491,133.600 202.088 M128.800 203.771 C 118.921 207.348,113.200 210.731,113.200 212.997 C 113.200 213.822,115.476 216.400,116.204 216.400 C 116.405 216.400,115.969 215.899,115.235 215.286 C 112.159 212.717,114.432 210.088,122.600 206.769 C 123.040 206.590,124.210 206.091,125.200 205.660 C 126.190 205.229,127.990 204.563,129.200 204.180 C 130.410 203.798,131.571 203.330,131.780 203.142 C 132.394 202.589,131.605 202.756,128.800 203.771 M253.000 208.455 C 251.121 208.895,244.821 209.860,240.000 210.445 C 238.130 210.672,235.970 211.016,235.200 211.210 C 231.963 212.022,242.519 210.730,250.231 209.370 C 254.827 208.559,254.863 208.606,251.146 210.552 C 246.679 212.890,242.921 215.200,243.582 215.200 C 243.876 215.200,245.036 214.592,246.159 213.850 C 247.281 213.107,250.045 211.575,252.300 210.446 C 257.315 207.934,257.503 207.400,253.000 208.455 M300.600 215.200 C 300.600 218.044,300.722 220.062,300.872 219.685 C 301.021 219.308,301.144 217.290,301.144 215.200 C 301.144 213.110,301.021 211.092,300.872 210.715 C 300.722 210.338,300.600 212.356,300.600 215.200 M227.200 212.074 C 225.550 212.277,221.140 212.785,217.400 213.201 C 211.792 213.825,211.301 213.926,214.600 213.773 C 218.382 213.597,226.763 212.736,231.600 212.026 L 233.800 211.703 232.000 211.703 C 231.010 211.704,228.850 211.870,227.200 212.074 M289.328 214.800 C 289.328 216.230,289.401 216.815,289.489 216.100 C 289.578 215.385,289.578 214.215,289.489 213.500 C 289.401 212.785,289.328 213.370,289.328 214.800 M143.400 214.359 C 143.840 214.546,146.090 214.801,148.400 214.924 C 151.797 215.106,152.103 215.082,150.000 214.801 C 145.419 214.189,142.549 213.997,143.400 214.359 M197.000 214.628 L 190.600 215.127 198.000 214.915 C 205.646 214.695,211.972 214.076,206.200 214.111 C 204.660 214.121,200.520 214.353,197.000 214.628 M157.600 215.622 C 161.871 215.997,177.231 215.995,182.800 215.618 C 185.410 215.442,180.790 215.332,170.600 215.329 C 160.657 215.326,155.539 215.441,157.600 215.622 M239.680 215.595 C 238.253 215.932,237.515 216.405,238.433 216.392 C 238.745 216.388,239.900 216.134,241.000 215.828 C 243.107 215.242,241.998 215.046,239.680 215.595 M117.000 216.693 C 117.749 217.460,127.163 219.973,129.367 219.993 C 130.855 220.007,129.674 219.568,127.153 219.170 C 125.023 218.835,120.118 217.520,117.296 216.527 C 116.825 216.361,116.729 216.415,117.000 216.693 M234.045 216.832 C 231.601 217.312,231.376 217.764,233.753 217.419 C 236.022 217.089,237.976 216.437,236.600 216.469 C 236.160 216.479,235.010 216.643,234.045 216.832 M227.226 218.054 C 226.030 218.252,224.950 218.522,224.826 218.652 C 224.539 218.955,229.310 218.421,230.731 217.992 L 231.800 217.669 230.600 217.681 C 229.940 217.688,228.422 217.856,227.226 218.054 M288.610 219.400 C 287.277 226.025,279.871 234.846,270.101 241.445 C 268.287 242.670,266.687 243.859,266.546 244.087 C 265.630 245.570,274.815 238.673,278.854 234.846 C 284.704 229.301,289.740 221.287,289.102 218.534 C 288.996 218.078,288.810 218.405,288.610 219.400 M219.638 219.247 C 215.666 219.708,215.387 220.171,219.297 219.815 C 222.543 219.519,225.639 218.851,223.600 218.886 C 223.050 218.896,221.267 219.058,219.638 219.247 M131.231 220.368 C 131.798 220.547,133.868 220.800,135.831 220.929 C 138.108 221.079,138.893 221.043,138.000 220.828 C 136.100 220.372,129.911 219.951,131.231 220.368 M209.402 220.454 C 207.422 220.644,205.622 220.889,205.402 220.999 C 204.776 221.309,212.828 220.786,214.400 220.413 L 215.800 220.082 214.400 220.095 C 213.630 220.102,211.381 220.264,209.402 220.454 M299.782 221.443 C 298.142 226.694,293.008 233.113,287.500 236.800 C 286.149 237.704,285.297 238.859,286.500 238.155 C 292.018 234.925,301.878 222.544,300.237 220.904 C 300.117 220.784,299.912 221.026,299.782 221.443 M141.800 221.598 C 142.900 221.774,146.590 222.017,150.000 222.137 C 154.435 222.294,155.289 222.262,153.000 222.026 C 148.361 221.549,139.341 221.203,141.800 221.598 M193.664 221.638 C 190.290 221.814,187.320 222.057,187.064 222.179 C 186.410 222.490,198.934 222.010,201.600 221.621 L 203.800 221.300 201.800 221.310 C 200.700 221.315,197.039 221.463,193.664 221.638 M165.100 222.699 C 168.455 222.766,173.945 222.766,177.300 222.699 C 180.655 222.632,177.910 222.578,171.200 222.578 C 164.490 222.578,161.745 222.632,165.100 222.699 M148.200 231.079 C 143.652 232.952,141.479 234.012,141.711 234.245 C 141.840 234.373,142.452 234.200,143.072 233.861 C 143.693 233.521,144.920 232.949,145.800 232.588 C 146.680 232.228,148.030 231.661,148.800 231.329 L 150.200 230.724 149.232 231.760 C 148.699 232.330,148.362 232.895,148.482 233.015 C 148.737 233.270,150.800 230.915,150.800 230.369 C 150.800 230.166,150.755 230.020,150.700 230.045 C 150.645 230.070,149.520 230.535,148.200 231.079 M147.614 234.374 C 145.701 237.948,152.505 241.600,161.078 241.600 C 162.079 241.600,165.801 241.889,169.349 242.243 C 176.691 242.974,198.961 242.847,205.400 242.038 C 207.380 241.789,211.250 241.300,214.000 240.953 C 216.750 240.605,221.610 239.858,224.800 239.294 C 234.216 237.627,233.983 237.619,236.813 239.746 C 238.146 240.748,240.479 242.161,241.996 242.884 C 244.881 244.260,245.412 244.796,243.900 244.806 C 243.405 244.809,242.730 245.003,242.400 245.236 C 241.957 245.549,242.219 245.590,243.397 245.394 C 246.305 244.909,246.326 244.463,243.500 243.216 C 240.877 242.060,237.395 239.854,235.736 238.298 L 234.472 237.113 231.336 237.718 C 210.519 241.733,188.766 243.311,172.200 242.008 C 159.695 241.023,156.754 240.720,154.027 240.130 C 149.083 239.061,147.649 237.773,148.086 234.795 C 148.291 233.401,148.185 233.307,147.614 234.374 M139.299 235.619 C 136.114 237.962,135.237 240.636,136.871 243.021 C 137.747 244.301,141.442 247.091,141.794 246.740 C 141.898 246.636,141.041 245.932,139.891 245.175 C 135.715 242.429,135.531 239.522,139.322 236.205 C 141.705 234.121,141.695 233.858,139.299 235.619 M283.131 239.739 C 282.103 240.432,280.933 241.227,280.531 241.504 C 280.129 241.780,280.700 241.562,281.800 241.018 C 283.862 239.998,286.108 238.395,285.400 238.448 C 285.180 238.464,284.159 239.045,283.131 239.739 M277.690 242.778 C 276.970 243.180,275.468 243.903,274.351 244.383 C 273.235 244.863,272.413 245.346,272.524 245.457 C 272.750 245.683,279.600 242.541,279.600 242.211 C 279.600 241.853,279.055 242.015,277.690 242.778 M264.600 245.066 C 261.951 246.465,256.583 249.773,256.317 250.170 C 255.905 250.785,256.552 251.270,257.367 250.957 C 257.908 250.750,257.948 250.615,257.545 250.366 C 256.877 249.953,256.716 250.077,261.400 247.399 C 265.003 245.339,266.490 244.371,265.980 244.416 C 265.881 244.425,265.260 244.717,264.600 245.066 M239.280 245.995 C 238.554 246.167,237.834 246.439,237.680 246.600 C 237.368 246.927,239.753 246.477,241.000 245.973 C 242.012 245.565,241.043 245.577,239.280 245.995 M268.802 246.659 C 265.985 247.747,265.151 248.268,266.899 247.849 C 268.193 247.538,272.383 245.668,271.800 245.661 C 271.580 245.658,270.231 246.107,268.802 246.659 M142.600 247.143 C 142.820 247.363,143.540 247.669,144.200 247.823 C 145.000 248.010,145.267 247.970,145.000 247.703 C 144.780 247.483,144.060 247.177,143.400 247.023 C 142.600 246.837,142.333 246.877,142.600 247.143 M234.480 247.195 C 233.754 247.367,233.049 247.618,232.913 247.754 C 232.505 248.162,234.095 247.973,235.800 247.411 C 237.537 246.839,236.618 246.688,234.480 247.195 M146.600 248.598 C 147.950 249.235,149.477 249.441,148.400 248.842 C 148.070 248.658,147.260 248.401,146.600 248.270 L 145.400 248.033 146.600 248.598 M228.069 248.483 C 226.897 248.696,226.030 248.963,226.143 249.076 C 226.369 249.303,232.000 248.426,232.000 248.164 C 232.000 247.921,230.475 248.045,228.069 248.483 M263.400 248.588 C 262.520 248.891,261.017 249.344,260.060 249.596 C 259.102 249.847,258.421 250.154,258.545 250.278 C 258.786 250.520,265.600 248.500,265.600 248.187 C 265.600 247.904,265.153 247.985,263.400 248.588 M150.600 249.785 C 152.389 250.404,154.860 250.616,153.400 250.026 C 152.960 249.848,151.790 249.596,150.800 249.467 L 149.000 249.232 150.600 249.785 M222.026 249.654 C 219.047 250.148,218.851 250.567,221.765 250.213 C 224.262 249.910,226.603 249.229,225.000 249.272 C 224.560 249.284,223.222 249.456,222.026 249.654 M154.800 250.756 C 155.130 250.947,156.660 251.210,158.200 251.339 C 161.502 251.617,160.162 251.054,156.600 250.668 C 155.178 250.513,154.444 250.549,154.800 250.756 M213.863 250.823 C 210.009 251.271,209.933 251.742,213.771 251.386 C 217.297 251.060,220.013 250.453,217.800 250.487 C 217.140 250.497,215.368 250.648,213.863 250.823 M162.504 252.014 C 163.112 252.190,165.632 252.432,168.104 252.552 C 170.963 252.691,172.017 252.649,171.000 252.437 C 168.863 251.991,161.082 251.604,162.504 252.014 M202.255 252.036 C 199.645 252.213,197.395 252.478,197.255 252.625 C 196.942 252.955,206.386 252.439,208.600 252.005 L 210.200 251.692 208.600 251.704 C 207.720 251.710,204.865 251.860,202.255 252.036 M174.074 253.008 C 174.345 253.279,195.256 253.278,195.526 253.007 C 195.640 252.893,190.813 252.800,184.800 252.800 C 178.787 252.800,173.960 252.893,174.074 253.008 M154.171 262.566 C 142.066 267.087,141.340 273.383,152.334 278.488 C 156.079 280.226,155.735 279.596,151.901 277.693 C 144.869 274.203,143.131 270.251,147.097 266.769 C 148.648 265.407,152.963 263.201,154.076 263.200 C 154.448 263.200,154.864 263.020,155.000 262.800 C 155.136 262.580,155.519 262.400,155.851 262.400 C 156.333 262.400,156.283 262.641,155.600 263.600 C 154.347 265.360,156.125 268.400,158.407 268.400 C 158.817 268.400,159.251 268.559,159.371 268.753 C 159.599 269.122,165.957 270.176,166.241 269.892 C 166.331 269.802,165.098 269.506,163.502 269.234 C 156.253 267.996,153.934 265.914,156.600 263.038 C 158.239 261.270,157.846 261.193,154.171 262.566 M221.400 267.811 C 219.640 268.103,216.415 268.625,214.233 268.971 C 212.051 269.317,210.161 269.708,210.033 269.839 C 209.731 270.148,213.821 269.674,217.400 268.985 C 224.687 267.583,225.379 267.606,228.400 269.351 C 230.547 270.592,236.748 273.544,239.031 274.412 C 240.441 274.948,240.151 275.160,236.010 276.620 C 234.354 277.204,232.433 277.933,231.740 278.241 C 231.046 278.548,230.146 278.803,229.740 278.806 C 229.333 278.809,228.730 278.987,228.400 279.200 C 226.931 280.150,229.509 279.487,234.998 277.505 C 241.642 275.107,241.648 275.099,238.300 273.681 C 236.925 273.099,233.387 271.402,230.439 269.911 C 227.490 268.420,224.970 267.218,224.839 267.240 C 224.707 267.261,223.160 267.518,221.400 267.811 M169.000 270.371 C 172.259 270.822,180.847 271.230,178.200 270.807 C 177.100 270.632,174.040 270.387,171.400 270.264 C 168.041 270.106,167.321 270.139,169.000 270.371 M202.200 270.632 L 198.200 271.145 202.400 270.934 C 204.710 270.817,207.320 270.580,208.200 270.407 L 209.800 270.092 208.000 270.105 C 207.010 270.113,204.400 270.350,202.200 270.632 M184.700 271.499 C 187.175 271.569,191.225 271.569,193.700 271.499 C 196.175 271.428,194.150 271.371,189.200 271.371 C 184.250 271.371,182.225 271.428,184.700 271.499 M155.790 279.984 C 155.932 280.213,156.283 280.400,156.571 280.400 C 156.860 280.400,158.223 280.760,159.600 281.200 C 160.977 281.640,162.396 281.985,162.752 281.967 C 163.108 281.950,162.070 281.513,160.444 280.997 C 156.226 279.658,155.490 279.498,155.790 279.984 M225.280 279.995 C 223.351 280.451,223.124 280.956,225.000 280.617 C 226.724 280.305,228.336 279.599,227.200 279.653 C 226.870 279.669,226.006 279.823,225.280 279.995 M220.624 281.250 C 218.399 281.771,218.246 282.149,220.400 281.801 C 222.247 281.502,224.039 280.795,222.800 280.852 C 222.470 280.868,221.491 281.047,220.624 281.250 M122.240 282.418 C 118.790 282.956,118.903 283.323,122.400 282.934 C 126.475 282.480,133.315 282.597,134.243 283.136 C 134.858 283.493,134.549 283.583,132.600 283.616 C 131.280 283.638,129.840 283.823,129.400 284.027 C 128.560 284.415,133.896 284.144,135.367 283.723 C 138.712 282.766,127.295 281.631,122.240 282.418 M164.247 282.372 C 164.713 282.572,165.973 282.843,167.047 282.974 C 168.318 283.129,168.720 283.090,168.200 282.862 C 167.760 282.669,166.500 282.398,165.400 282.260 C 164.048 282.091,163.675 282.127,164.247 282.372 M214.261 282.419 C 211.452 282.891,211.378 283.351,214.165 283.013 C 216.856 282.687,218.961 282.034,217.200 282.072 C 216.650 282.084,215.327 282.241,214.261 282.419 M116.296 283.584 C 115.468 283.744,114.658 284.014,114.496 284.183 C 114.154 284.539,117.409 284.056,118.600 283.574 L 119.400 283.251 118.600 283.271 C 118.160 283.283,117.123 283.423,116.296 283.584 M170.400 283.595 C 172.306 284.072,178.096 284.487,176.795 284.054 C 176.242 283.870,174.262 283.613,172.395 283.483 C 170.098 283.322,169.453 283.359,170.400 283.595 M206.045 283.644 C 201.066 284.086,200.731 284.581,205.646 284.232 C 209.283 283.974,213.311 283.238,210.800 283.289 C 210.250 283.301,208.110 283.460,206.045 283.644 M108.600 285.963 C 103.260 287.841,101.046 288.780,101.318 289.051 C 101.430 289.164,102.305 288.908,103.261 288.483 C 105.765 287.370,110.324 285.718,112.300 285.208 C 113.943 284.784,114.530 284.392,113.500 284.407 C 113.225 284.412,111.020 285.111,108.600 285.963 M124.600 284.995 C 111.212 288.626,105.386 293.067,110.046 296.088 C 114.926 299.253,133.214 302.940,148.400 303.822 C 154.941 304.202,153.721 303.743,146.796 303.219 C 143.608 302.977,139.650 302.590,138.000 302.358 C 103.445 297.496,99.722 291.937,126.400 285.041 C 127.610 284.729,128.150 284.468,127.600 284.463 C 127.050 284.457,125.700 284.697,124.600 284.995 M181.600 284.859 C 185.993 285.197,196.371 285.196,199.200 284.857 C 200.410 284.712,196.180 284.594,189.800 284.595 C 182.935 284.596,179.588 284.704,181.600 284.859 M283.600 284.971 C 283.600 285.113,283.893 285.676,284.252 286.223 C 285.687 288.414,284.398 291.214,281.000 293.282 C 277.270 295.552,271.840 297.059,257.600 299.774 L 254.600 300.346 257.000 300.154 C 258.320 300.049,260.660 299.705,262.200 299.390 C 263.740 299.076,265.810 298.653,266.800 298.451 C 275.389 296.703,282.083 293.855,284.334 290.993 C 285.301 289.764,285.527 286.887,284.720 286.080 C 283.479 284.839,285.253 285.772,286.733 287.139 C 289.130 289.351,289.074 290.880,286.500 293.557 C 284.602 295.531,278.824 298.868,276.370 299.407 C 275.731 299.547,275.102 299.835,274.971 300.047 C 274.301 301.131,279.085 299.060,284.133 296.079 C 289.329 293.012,290.227 288.805,286.262 286.104 C 284.808 285.113,283.600 284.599,283.600 284.971 M98.597 290.252 C 91.232 294.133,88.609 298.398,91.612 301.613 C 92.278 302.326,92.931 302.802,93.062 302.671 C 93.193 302.540,92.738 301.959,92.050 301.381 C 89.989 299.647,90.980 295.269,93.707 294.064 C 93.876 293.990,94.236 293.708,94.507 293.439 C 94.778 293.170,96.305 292.176,97.900 291.229 C 100.393 289.750,101.151 289.200,100.697 289.200 C 100.640 289.200,99.695 289.674,98.597 290.252 M300.132 300.337 C 299.040 302.086,291.095 306.450,285.090 308.601 C 281.389 309.926,281.186 310.409,284.850 309.174 C 289.260 307.688,296.896 303.781,298.967 301.952 C 300.891 300.252,300.927 300.239,300.651 301.341 C 300.465 302.082,300.510 302.379,300.784 302.210 C 301.259 301.916,301.358 299.600,300.896 299.600 C 300.729 299.600,300.385 299.932,300.132 300.337 M249.600 300.818 C 248.610 300.993,244.560 301.439,240.600 301.809 C 236.640 302.178,233.310 302.576,233.200 302.693 C 232.737 303.184,247.748 301.754,252.800 300.825 L 254.600 300.495 253.000 300.497 C 252.120 300.499,250.590 300.643,249.600 300.818 M271.000 301.298 C 269.680 301.756,268.330 302.212,268.000 302.312 C 267.629 302.424,267.574 302.559,267.855 302.665 C 268.283 302.826,273.895 301.038,274.332 300.602 C 274.739 300.195,273.339 300.487,271.000 301.298 M93.800 303.110 C 94.020 303.330,94.650 303.641,95.200 303.800 C 95.867 303.993,96.067 303.957,95.800 303.690 C 95.580 303.470,94.950 303.159,94.400 303.000 C 93.733 302.807,93.533 302.843,93.800 303.110 M222.400 303.256 C 220.090 303.445,218.020 303.684,217.800 303.787 C 217.271 304.035,227.083 303.579,230.400 303.201 L 233.000 302.905 229.800 302.908 C 228.040 302.910,224.710 303.066,222.400 303.256 M264.400 303.288 C 263.630 303.516,263.183 303.771,263.406 303.854 C 263.629 303.936,264.619 303.751,265.606 303.441 C 266.593 303.132,267.040 302.878,266.600 302.876 C 266.160 302.874,265.170 303.059,264.400 303.288 M299.399 304.003 C 296.991 308.658,287.869 314.152,277.800 317.012 C 274.508 317.947,273.566 318.337,274.516 318.373 C 277.518 318.486,291.236 312.413,295.245 309.195 C 297.732 307.199,300.778 303.445,300.300 302.966 C 300.167 302.834,299.762 303.300,299.399 304.003 M97.400 304.610 C 98.736 305.227,100.659 305.430,99.600 304.843 C 99.270 304.660,98.370 304.408,97.600 304.283 L 96.200 304.056 97.400 304.610 M156.800 304.477 C 162.040 304.858,205.367 304.881,212.000 304.505 C 215.232 304.323,204.471 304.200,185.200 304.200 C 167.490 304.200,154.710 304.324,156.800 304.477 M258.400 304.793 C 256.750 305.193,254.707 305.640,253.859 305.786 C 253.012 305.932,252.416 306.150,252.536 306.270 C 252.776 306.509,260.778 304.948,262.148 304.395 C 263.673 303.779,261.725 303.986,258.400 304.793 M101.000 305.575 C 101.440 305.753,102.790 306.002,104.000 306.127 L 106.200 306.356 104.200 305.816 C 101.886 305.192,99.636 305.022,101.000 305.575 M107.600 306.747 C 108.150 306.929,109.950 307.187,111.600 307.322 C 113.452 307.472,114.193 307.436,113.536 307.227 C 112.951 307.041,111.151 306.782,109.536 306.653 C 107.789 306.512,107.005 306.551,107.600 306.747 M248.423 306.836 C 245.674 307.375,245.553 307.622,248.165 307.362 C 250.781 307.101,253.046 306.435,251.200 306.469 C 250.650 306.479,249.400 306.644,248.423 306.836 M116.395 307.988 C 118.316 308.470,123.700 308.882,122.371 308.445 C 121.806 308.259,119.916 308.002,118.171 307.873 C 115.987 307.711,115.434 307.747,116.395 307.988 M240.874 308.009 C 239.704 308.180,238.624 308.447,238.474 308.604 C 238.165 308.926,242.259 308.517,244.400 308.012 L 245.800 307.682 244.400 307.691 C 243.630 307.696,242.043 307.839,240.874 308.009 M125.120 309.179 C 125.846 309.359,128.366 309.609,130.720 309.733 C 133.392 309.873,134.399 309.834,133.400 309.629 C 131.215 309.180,123.422 308.756,125.120 309.179 M232.248 309.239 C 230.514 309.422,228.984 309.690,228.848 309.834 C 228.526 310.174,235.279 309.628,236.707 309.198 L 237.800 308.869 236.600 308.888 C 235.940 308.898,233.981 309.056,232.248 309.239 M136.800 310.375 C 137.790 310.555,140.670 310.803,143.200 310.926 C 146.145 311.070,147.072 311.035,145.776 310.828 C 142.976 310.382,134.476 309.954,136.800 310.375 M221.000 310.449 C 219.020 310.636,217.130 310.874,216.800 310.978 C 215.835 311.280,224.842 310.758,226.600 310.409 L 228.200 310.092 226.400 310.100 C 225.410 310.104,222.980 310.261,221.000 310.449 M277.250 311.018 C 273.801 311.995,272.318 312.715,274.800 312.207 C 276.477 311.864,279.886 310.867,281.000 310.394 C 282.524 309.747,280.624 310.063,277.250 311.018 M151.400 311.584 C 152.940 311.756,159.240 311.995,165.400 312.116 C 174.001 312.286,174.929 312.264,169.400 312.023 C 156.264 311.449,148.482 311.260,151.400 311.584 M199.600 311.837 L 189.800 312.337 200.200 312.128 C 205.920 312.014,211.680 311.784,213.000 311.619 L 215.400 311.318 212.400 311.328 C 210.750 311.333,204.990 311.562,199.600 311.837 M270.224 312.850 C 267.906 313.393,267.891 313.747,270.200 313.413 C 272.334 313.105,274.094 312.400,272.600 312.452 C 272.160 312.468,271.091 312.647,270.224 312.850 M265.096 313.984 C 264.268 314.144,263.458 314.414,263.296 314.583 C 262.954 314.939,266.209 314.456,267.400 313.974 L 268.200 313.651 267.400 313.671 C 266.960 313.683,265.923 313.823,265.096 313.984 M259.223 315.236 C 256.462 315.778,256.358 316.022,259.000 315.760 C 261.315 315.530,263.629 314.784,261.800 314.856 C 261.360 314.873,260.200 315.044,259.223 315.236 M252.000 316.453 C 250.790 316.650,249.620 316.898,249.400 317.004 C 248.754 317.315,254.259 316.772,255.483 316.404 L 256.600 316.069 255.400 316.081 C 254.740 316.088,253.210 316.255,252.000 316.453 M244.400 317.653 C 241.055 318.198,241.055 318.418,244.400 318.144 C 247.560 317.886,250.115 317.231,247.800 317.272 C 247.140 317.284,245.610 317.455,244.400 317.653 M129.073 317.861 C 128.573 318.361,132.507 319.956,137.200 321.155 C 139.877 321.840,142.795 322.401,150.000 323.617 C 153.110 324.142,161.892 324.903,162.496 324.700 C 162.773 324.606,160.660 324.306,157.800 324.033 C 145.360 322.843,127.927 319.033,132.000 318.394 L 133.400 318.175 131.800 317.892 C 129.802 317.538,129.399 317.534,129.073 317.861 M134.939 318.789 C 135.566 318.988,137.546 319.247,139.339 319.362 C 141.661 319.512,142.139 319.475,141.000 319.234 C 138.543 318.714,133.555 318.347,134.939 318.789 M234.600 318.843 C 229.719 319.357,229.703 319.579,234.566 319.324 C 239.010 319.091,242.725 318.448,239.400 318.488 C 238.520 318.498,236.360 318.658,234.600 318.843 M271.245 318.832 C 270.279 319.022,269.379 319.297,269.245 319.444 C 268.897 319.824,272.393 319.247,273.162 318.798 C 273.909 318.361,273.619 318.366,271.245 318.832 M145.200 319.990 C 146.190 320.164,149.070 320.409,151.600 320.534 C 154.460 320.675,155.519 320.638,154.400 320.436 C 153.410 320.257,150.530 320.012,148.000 319.892 C 145.203 319.758,144.106 319.797,145.200 319.990 M222.000 320.043 C 219.470 320.224,217.040 320.459,216.600 320.565 C 215.222 320.896,226.515 320.366,228.200 320.020 L 229.800 319.692 228.200 319.703 C 227.320 319.709,224.530 319.862,222.000 320.043 M264.200 320.395 C 256.890 321.886,247.765 323.199,239.000 324.023 C 236.360 324.271,234.111 324.562,234.002 324.668 C 233.738 324.927,241.124 324.418,244.400 323.951 C 245.830 323.748,248.440 323.416,250.200 323.214 C 255.881 322.562,268.244 320.290,268.725 319.809 C 269.054 319.479,268.065 319.608,264.200 320.395 M160.800 321.293 C 165.260 321.863,208.417 321.842,212.000 321.268 C 214.214 320.913,213.799 320.885,209.200 321.080 C 202.225 321.376,173.445 321.380,164.400 321.086 C 158.199 320.885,157.788 320.909,160.800 321.293 M165.600 325.179 C 167.030 325.353,172.250 325.590,177.200 325.705 C 183.109 325.841,184.689 325.807,181.800 325.605 C 175.113 325.138,162.561 324.807,165.600 325.179 M219.000 325.247 C 215.920 325.429,212.950 325.652,212.400 325.742 C 210.877 325.992,226.100 325.530,230.200 325.202 L 233.800 324.914 229.200 324.915 C 226.670 324.916,222.080 325.066,219.000 325.247 M192.700 326.299 C 196.055 326.366,201.545 326.366,204.900 326.299 C 208.255 326.232,205.510 326.178,198.800 326.178 C 192.090 326.178,189.345 326.232,192.700 326.299 " stroke="none" fill="#9595f1" fill-rule="evenodd"></path><path id="path4" d="M195.100 23.099 C 197.575 23.169,201.625 23.169,204.100 23.099 C 206.575 23.028,204.550 22.971,199.600 22.971 C 194.650 22.971,192.625 23.028,195.100 23.099 M181.048 23.639 C 179.314 23.822,177.795 24.071,177.673 24.194 C 177.417 24.450,183.541 24.053,186.800 23.602 L 189.000 23.298 186.600 23.302 C 185.280 23.304,182.781 23.456,181.048 23.639 M212.400 23.570 C 215.472 24.039,222.659 24.404,220.600 23.986 C 219.720 23.808,217.020 23.565,214.600 23.448 C 211.437 23.294,210.818 23.329,212.400 23.570 M171.861 24.819 C 170.794 24.998,169.808 25.259,169.668 25.399 C 169.405 25.662,172.619 25.322,175.400 24.792 L 177.000 24.488 175.400 24.491 C 174.520 24.493,172.927 24.641,171.861 24.819 M224.200 24.762 C 226.856 25.319,230.313 25.625,229.342 25.217 C 228.870 25.019,227.160 24.760,225.542 24.641 C 223.404 24.485,223.037 24.518,224.200 24.762 M165.307 25.976 C 164.377 26.128,163.491 26.376,163.339 26.528 C 163.026 26.840,166.479 26.427,168.000 25.970 L 169.000 25.669 168.000 25.684 C 167.450 25.693,166.238 25.824,165.307 25.976 M231.200 25.941 C 232.647 26.422,236.804 26.863,235.765 26.426 C 235.306 26.232,233.866 25.969,232.565 25.841 C 231.081 25.696,230.572 25.733,231.200 25.941 M158.000 27.616 C 156.350 28.030,154.574 28.474,154.053 28.604 C 153.532 28.733,153.190 28.923,153.293 29.026 C 153.480 29.213,162.052 27.261,162.367 26.960 C 162.723 26.618,160.868 26.897,158.000 27.616 M237.400 27.139 C 237.840 27.328,239.010 27.592,240.000 27.726 C 241.112 27.877,241.494 27.843,241.000 27.636 C 240.560 27.452,239.390 27.188,238.400 27.049 C 237.262 26.890,236.894 26.923,237.400 27.139 M242.600 28.342 C 243.785 28.852,246.731 29.296,246.000 28.853 C 245.670 28.654,244.590 28.379,243.600 28.243 C 242.446 28.085,242.087 28.120,242.600 28.342 M150.000 29.819 L 148.600 30.376 150.200 30.137 C 151.080 30.005,152.070 29.746,152.400 29.561 C 153.420 28.989,151.589 29.185,150.000 29.819 M247.200 29.537 C 247.530 29.741,248.430 30.027,249.200 30.171 C 250.130 30.346,250.399 30.310,250.000 30.063 C 249.670 29.859,248.770 29.573,248.000 29.429 C 247.070 29.254,246.801 29.290,247.200 29.537 M146.600 30.685 C 146.160 30.791,145.620 31.053,145.400 31.267 C 144.945 31.711,147.018 31.305,148.000 30.758 C 148.700 30.369,148.055 30.335,146.600 30.685 M251.400 30.766 C 251.840 30.939,252.740 31.190,253.400 31.324 L 254.600 31.567 253.400 31.002 C 252.740 30.691,251.840 30.439,251.400 30.443 L 250.600 30.451 251.400 30.766 M142.600 32.202 L 141.400 32.767 142.600 32.530 C 143.260 32.399,144.070 32.142,144.400 31.958 C 145.477 31.359,143.950 31.565,142.600 32.202 M255.800 32.214 C 256.460 32.517,257.270 32.757,257.600 32.749 C 257.930 32.742,257.660 32.488,257.000 32.186 C 256.340 31.883,255.530 31.643,255.200 31.651 C 254.870 31.658,255.140 31.912,255.800 32.214 M136.073 34.461 C 133.803 35.351,132.027 36.160,132.126 36.259 C 132.277 36.410,137.900 34.383,140.600 33.204 C 143.120 32.103,139.583 33.086,136.073 34.461 M258.400 32.916 C 258.699 33.239,264.102 35.232,264.257 35.077 C 264.404 34.929,260.775 33.425,259.200 32.982 C 258.650 32.827,258.290 32.798,258.400 32.916 M264.974 35.557 C 265.124 35.801,265.462 36.002,265.724 36.004 C 265.986 36.006,268.257 36.904,270.770 38.000 C 273.284 39.096,275.424 39.909,275.526 39.808 C 275.628 39.706,275.281 39.456,274.755 39.253 C 274.230 39.050,272.180 38.170,270.200 37.298 C 265.773 35.346,264.602 34.956,264.974 35.557 M130.042 36.834 C 129.515 37.045,129.184 37.317,129.307 37.440 C 129.429 37.562,130.040 37.386,130.665 37.047 C 131.921 36.366,131.539 36.235,130.042 36.834 M122.436 40.418 C 119.265 41.951,116.765 43.298,116.879 43.412 C 116.993 43.526,118.776 42.756,120.843 41.701 C 122.909 40.646,125.545 39.377,126.700 38.880 C 128.603 38.063,129.299 37.574,128.500 37.616 C 128.335 37.625,125.606 38.886,122.436 40.418 M276.576 40.613 C 277.004 40.936,277.544 41.194,277.776 41.187 C 278.009 41.180,277.851 40.910,277.424 40.587 C 276.996 40.264,276.456 40.006,276.224 40.013 C 275.991 40.020,276.149 40.290,276.576 40.613 M224.825 41.700 C 224.839 42.195,225.101 43.950,225.407 45.600 L 225.964 48.600 225.765 45.500 C 225.656 43.795,225.643 42.400,225.737 42.400 C 225.931 42.400,228.800 47.147,228.800 47.468 C 228.800 47.584,229.064 48.246,229.386 48.940 C 231.429 53.333,232.274 65.239,230.838 69.400 C 230.611 70.060,229.976 72.075,229.427 73.878 C 228.366 77.368,225.342 83.764,223.757 85.873 C 223.231 86.574,222.800 87.248,222.800 87.372 C 222.800 87.729,220.010 91.587,218.016 93.986 C 217.017 95.189,215.843 96.629,215.407 97.186 C 214.115 98.838,205.181 107.686,202.800 109.672 C 191.694 118.936,182.679 127.321,181.434 129.546 C 181.233 129.906,180.954 130.290,180.815 130.400 C 179.378 131.532,174.656 140.357,174.180 142.800 C 174.030 143.570,173.710 144.445,173.469 144.744 C 172.868 145.487,172.848 156.485,173.445 157.239 C 173.690 157.547,174.009 158.573,174.153 159.517 C 174.297 160.462,174.577 161.542,174.775 161.917 C 174.974 162.293,175.956 164.310,176.959 166.400 C 178.647 169.916,180.947 173.554,189.478 186.200 C 192.894 191.263,194.969 194.765,194.708 195.025 C 194.490 195.243,178.970 180.248,176.880 177.800 C 175.941 176.700,174.503 175.069,173.686 174.176 C 172.020 172.355,170.224 170.180,168.421 167.800 C 167.755 166.920,167.067 166.020,166.892 165.800 C 166.717 165.580,166.140 164.680,165.608 163.800 C 165.077 162.920,164.538 162.110,164.411 162.000 C 164.183 161.803,161.914 157.181,160.650 154.340 C 160.292 153.536,160.000 152.512,160.000 152.063 C 160.000 151.614,159.820 151.136,159.600 151.000 C 158.108 150.078,160.891 156.999,164.191 162.419 C 169.224 170.684,194.542 197.992,195.906 196.627 C 196.273 196.261,193.575 191.214,190.967 187.385 C 178.435 168.988,176.412 165.423,174.220 157.878 C 173.320 154.780,173.297 146.699,174.183 144.579 C 174.522 143.767,174.804 142.809,174.808 142.451 C 174.874 137.378,184.370 125.880,197.992 114.379 C 225.143 91.455,235.998 71.413,231.194 53.073 C 229.586 46.936,224.729 38.262,224.825 41.700 M278.976 41.820 C 279.836 42.462,280.568 42.596,280.230 42.048 C 280.110 41.855,279.605 41.594,279.106 41.468 C 278.232 41.248,278.227 41.260,278.976 41.820 M281.376 43.020 C 282.236 43.662,282.968 43.796,282.630 43.248 C 282.510 43.055,282.005 42.794,281.506 42.668 C 280.632 42.448,280.627 42.460,281.376 43.020 M114.594 44.445 C 107.808 48.041,97.491 54.841,90.436 60.365 C 83.724 65.621,68.871 79.404,69.375 79.908 C 69.462 79.995,71.663 77.924,74.266 75.306 C 82.757 66.768,94.477 57.209,103.000 51.869 C 104.320 51.042,106.509 49.665,107.864 48.810 C 109.219 47.954,111.559 46.587,113.064 45.773 C 115.606 44.396,116.819 43.600,116.374 43.600 C 116.272 43.600,115.471 43.980,114.594 44.445 M283.200 43.733 C 283.200 43.968,288.654 47.200,289.050 47.200 C 289.220 47.200,289.189 47.040,288.980 46.845 C 288.441 46.342,283.200 43.520,283.200 43.733 M289.949 47.735 C 290.251 48.101,290.663 48.400,290.865 48.400 C 291.067 48.400,291.720 48.739,292.316 49.154 C 292.912 49.568,295.380 51.217,297.800 52.817 C 319.808 67.368,339.139 87.784,352.609 110.704 C 352.834 111.087,353.975 113.155,355.144 115.300 C 356.313 117.445,357.338 119.200,357.422 119.200 C 357.689 119.200,357.085 117.862,355.924 115.882 C 355.306 114.828,354.800 113.892,354.800 113.804 C 354.800 112.308,338.903 89.120,336.013 86.400 C 335.896 86.290,334.465 84.670,332.833 82.800 C 323.101 71.648,309.706 60.103,296.400 51.398 C 290.387 47.464,289.143 46.758,289.949 47.735 M226.092 53.000 C 226.095 56.665,226.126 56.829,226.468 54.965 C 226.699 53.703,226.698 52.183,226.465 50.965 C 226.125 49.188,226.090 49.383,226.092 53.000 M225.411 59.900 C 224.327 68.769,218.080 79.544,208.714 88.701 C 202.353 94.921,202.404 94.878,185.600 108.205 C 182.850 110.386,180.150 112.560,179.600 113.037 C 179.050 113.513,177.700 114.676,176.600 115.621 C 173.058 118.664,166.914 125.098,164.411 128.385 C 161.304 132.467,158.013 139.181,159.600 138.200 C 159.820 138.064,160.001 137.648,160.002 137.276 C 160.007 135.906,162.078 132.413,166.093 127.000 C 167.053 125.706,175.816 116.866,177.829 115.162 C 179.278 113.934,184.549 109.702,195.200 101.214 C 197.730 99.198,200.790 96.720,202.000 95.709 C 205.371 92.891,215.251 82.792,216.600 80.785 C 217.260 79.803,217.935 78.940,218.100 78.867 C 218.265 78.793,218.400 78.577,218.400 78.387 C 218.400 78.196,218.913 77.266,219.541 76.320 C 222.540 71.799,225.398 64.450,225.854 60.090 C 226.181 56.958,225.791 56.790,225.411 59.900 M64.966 84.712 C 58.205 92.688,50.455 103.539,47.046 109.800 C 45.814 112.062,46.277 111.476,48.571 107.870 C 54.724 98.193,59.726 91.367,65.695 84.500 C 67.655 82.245,69.110 80.405,68.929 80.412 C 68.748 80.419,66.965 82.354,64.966 84.712 M251.600 101.026 C 245.545 103.100,242.288 104.313,239.740 105.442 C 239.046 105.749,238.378 106.000,238.255 106.000 C 237.570 106.000,227.094 111.351,222.898 113.844 C 210.172 121.405,202.048 129.605,198.490 138.482 C 197.243 141.592,196.318 146.003,197.165 144.800 C 197.398 144.470,197.591 143.796,197.594 143.302 C 197.629 138.196,204.491 127.997,211.800 122.189 C 212.900 121.315,213.890 120.509,214.000 120.398 C 216.822 117.543,238.171 105.706,240.711 105.586 C 240.870 105.579,241.720 105.225,242.600 104.800 C 243.480 104.375,244.427 104.021,244.705 104.014 C 244.983 104.006,245.523 103.828,245.905 103.618 C 246.287 103.407,248.764 102.517,251.410 101.640 C 254.055 100.762,256.575 99.925,257.010 99.779 C 257.444 99.634,255.730 100.798,253.200 102.367 C 250.670 103.936,247.250 106.110,245.600 107.199 C 243.950 108.288,242.330 109.306,242.000 109.461 C 241.670 109.616,240.656 110.296,239.746 110.971 C 238.836 111.647,237.686 112.470,237.189 112.800 C 211.897 129.609,206.953 142.523,219.272 159.600 C 225.834 168.697,227.371 171.564,227.978 175.843 C 229.253 184.838,224.079 193.618,212.414 202.255 C 208.414 205.217,208.247 205.208,210.323 202.138 C 216.945 192.340,216.453 185.853,208.287 175.322 C 201.674 166.794,199.215 162.112,197.403 154.600 L 196.824 152.200 197.034 154.400 C 197.544 159.723,201.646 167.918,207.363 175.039 C 211.497 180.188,211.795 180.660,213.372 184.549 C 215.705 190.304,213.218 198.308,206.842 205.564 C 205.848 206.696,205.987 207.049,207.177 206.412 C 207.642 206.163,207.900 205.761,207.749 205.518 C 207.581 205.245,207.660 205.190,207.957 205.373 C 209.207 206.146,219.742 197.443,223.328 192.677 C 230.282 183.434,230.517 174.855,224.070 165.600 C 211.897 148.127,210.527 143.287,215.257 134.478 C 218.919 127.658,229.347 118.217,242.800 109.543 C 248.986 105.554,250.951 104.325,254.900 101.970 C 261.454 98.062,260.798 97.875,251.600 101.026 M44.704 113.682 C 41.883 118.558,36.236 130.370,36.567 130.700 C 36.665 130.798,37.154 129.915,37.656 128.739 C 39.030 125.513,43.323 116.884,44.764 114.452 C 45.464 113.270,45.960 112.227,45.867 112.133 C 45.774 112.040,45.250 112.737,44.704 113.682 M357.600 119.746 C 357.600 119.826,358.410 121.522,359.400 123.514 C 360.390 125.506,361.200 127.219,361.200 127.320 C 361.200 127.763,363.299 132.035,363.445 131.889 C 363.534 131.799,363.053 130.483,362.375 128.963 C 359.534 122.591,357.600 118.857,357.600 119.746 M35.650 132.250 C 35.386 132.829,35.262 133.395,35.374 133.507 C 35.486 133.619,35.768 133.211,36.000 132.600 C 36.549 131.157,36.273 130.882,35.650 132.250 M363.602 132.833 C 363.604 133.145,363.839 133.850,364.126 134.400 C 364.413 134.950,365.156 136.795,365.777 138.500 C 366.821 141.365,367.603 142.784,366.989 140.700 C 366.051 137.520,363.598 131.821,363.602 132.833 M33.232 138.561 C 32.279 141.131,31.594 143.328,31.709 143.443 C 31.824 143.558,32.230 142.695,32.611 141.526 C 32.992 140.357,33.739 138.348,34.272 137.063 C 34.806 135.777,35.179 134.537,35.102 134.307 C 35.026 134.077,34.184 135.991,33.232 138.561 M158.652 139.700 C 158.327 140.913,158.387 148.826,158.728 149.685 C 158.878 150.062,159.000 147.767,159.000 144.585 C 159.000 141.403,158.976 138.800,158.947 138.800 C 158.917 138.800,158.785 139.205,158.652 139.700 M367.251 142.400 C 367.243 142.730,367.483 143.540,367.786 144.200 C 368.088 144.860,368.342 145.130,368.349 144.800 C 368.357 144.470,368.117 143.660,367.814 143.000 C 367.512 142.340,367.258 142.070,367.251 142.400 M30.800 145.400 C 30.536 146.199,30.415 146.948,30.531 147.064 C 30.647 147.180,30.930 146.593,31.160 145.760 C 31.703 143.792,31.423 143.512,30.800 145.400 M196.540 148.800 C 196.540 150.670,196.609 151.435,196.693 150.500 C 196.777 149.565,196.777 148.035,196.693 147.100 C 196.609 146.165,196.540 146.930,196.540 148.800 M368.451 146.000 C 368.443 146.330,368.683 147.140,368.986 147.800 C 369.288 148.460,369.542 148.730,369.549 148.400 C 369.557 148.070,369.317 147.260,369.014 146.600 C 368.712 145.940,368.458 145.670,368.451 146.000 M29.600 149.200 C 29.351 150.124,29.237 150.971,29.347 151.081 C 29.457 151.191,29.751 150.524,30.000 149.600 C 30.249 148.676,30.363 147.829,30.253 147.719 C 30.143 147.609,29.849 148.276,29.600 149.200 M369.829 150.600 C 369.963 151.480,370.244 152.470,370.454 152.800 C 370.913 153.524,370.486 151.028,369.941 149.800 C 369.698 149.254,369.663 149.508,369.829 150.600 M27.818 155.769 C 27.210 158.062,26.799 160.177,26.905 160.469 C 27.011 160.761,27.226 160.280,27.382 159.400 C 27.538 158.520,27.909 156.990,28.205 156.000 C 28.886 153.724,29.315 151.600,29.093 151.600 C 28.999 151.600,28.425 153.476,27.818 155.769 M371.049 155.000 C 371.442 157.375,372.057 158.591,371.757 156.400 C 371.621 155.410,371.346 154.330,371.147 154.000 C 370.914 153.616,370.879 153.977,371.049 155.000 M372.274 160.000 C 372.408 160.990,372.672 162.160,372.861 162.600 C 373.077 163.106,373.110 162.738,372.951 161.600 C 372.812 160.610,372.548 159.440,372.364 159.000 C 372.157 158.506,372.123 158.888,372.274 160.000 M25.984 163.315 C 25.716 164.512,25.582 165.741,25.685 166.046 C 25.789 166.351,26.079 165.442,26.330 164.026 C 26.893 160.850,26.648 160.346,25.984 163.315 M373.449 165.392 C 373.870 168.504,374.409 169.762,374.138 167.000 C 374.008 165.680,373.740 164.330,373.541 164.000 C 373.316 163.626,373.281 164.149,373.449 165.392 M24.845 169.311 C 24.376 172.002,24.277 173.456,24.583 173.150 C 24.870 172.863,25.695 167.161,25.480 166.947 C 25.376 166.842,25.090 167.906,24.845 169.311 M374.657 172.000 C 375.043 175.617,375.615 177.458,375.349 174.228 C 375.224 172.703,374.964 171.083,374.772 170.628 C 374.547 170.096,374.507 170.587,374.657 172.000 M24.093 174.800 C 24.093 175.570,24.175 175.885,24.276 175.500 C 24.376 175.115,24.376 174.485,24.276 174.100 C 24.175 173.715,24.093 174.030,24.093 174.800 M23.420 179.318 C 23.245 181.033,23.199 182.532,23.316 182.649 C 23.603 182.936,24.126 177.915,23.909 176.958 C 23.815 176.541,23.595 177.603,23.420 179.318 M375.896 181.800 C 376.011 184.000,376.254 186.520,376.436 187.400 C 376.648 188.424,376.690 187.484,376.551 184.788 C 376.432 182.472,376.189 179.952,376.011 179.188 C 375.812 178.340,375.768 179.356,375.896 181.800 M22.914 185.800 C 22.917 186.900,22.995 187.303,23.087 186.695 C 23.179 186.086,23.177 185.186,23.082 184.695 C 22.987 184.203,22.911 184.700,22.914 185.800 M22.300 195.100 C 22.178 199.005,22.210 204.540,22.371 207.400 C 22.615 211.721,22.676 210.520,22.732 200.300 C 22.808 186.528,22.633 184.428,22.300 195.100 M376.973 200.200 C 376.973 205.480,377.030 207.585,377.099 204.877 C 377.168 202.169,377.168 197.849,377.099 195.277 C 377.029 192.705,376.972 194.920,376.973 200.200 M376.241 214.400 C 375.715 220.513,375.622 223.089,375.987 221.400 C 376.421 219.395,376.984 211.600,376.695 211.600 C 376.577 211.600,376.373 212.860,376.241 214.400 M22.920 214.800 C 22.920 216.010,22.995 216.505,23.087 215.900 C 23.178 215.295,23.178 214.305,23.087 213.700 C 22.995 213.095,22.920 213.590,22.920 214.800 M23.275 219.000 C 23.261 220.100,23.494 222.350,23.792 224.000 L 24.333 227.000 24.108 224.000 C 23.984 222.350,23.751 220.100,23.591 219.000 L 23.300 217.000 23.275 219.000 M375.060 225.300 C 374.497 229.453,374.399 231.026,374.774 229.883 C 375.213 228.544,375.778 223.600,375.492 223.600 C 375.381 223.600,375.187 224.365,375.060 225.300 M24.443 228.089 C 24.419 228.687,24.684 230.577,25.031 232.289 C 26.214 238.120,27.272 242.998,27.614 244.200 C 27.801 244.860,28.157 246.183,28.404 247.140 C 28.651 248.098,28.936 248.797,29.039 248.694 C 29.142 248.592,28.784 246.810,28.245 244.735 C 27.706 242.659,26.804 238.630,26.241 235.781 C 24.486 226.897,24.489 226.909,24.443 228.089 M373.809 232.900 C 373.213 236.770,373.167 237.442,373.556 236.565 C 373.994 235.576,374.586 231.200,374.281 231.200 C 374.165 231.200,373.953 231.965,373.809 232.900 M372.625 238.600 C 372.474 239.260,371.988 241.301,371.544 243.135 C 370.856 245.983,370.700 248.302,371.343 246.130 C 372.101 243.573,373.213 238.247,373.070 237.861 C 372.976 237.607,372.775 237.940,372.625 238.600 M370.257 247.900 C 369.763 249.655,369.578 251.380,369.946 250.800 C 370.401 250.083,370.982 247.200,370.671 247.200 C 370.552 247.200,370.365 247.515,370.257 247.900 M29.227 249.458 C 29.212 249.710,29.570 251.150,30.022 252.658 C 31.157 256.444,31.193 256.540,31.418 256.315 C 31.528 256.205,31.231 254.875,30.759 253.358 C 29.712 249.996,29.263 248.853,29.227 249.458 M368.251 254.867 C 367.037 258.640,367.086 259.528,368.319 256.110 C 369.296 253.401,369.765 251.600,369.494 251.600 C 369.388 251.600,368.828 253.070,368.251 254.867 M31.630 257.200 C 31.633 257.530,31.891 258.340,32.202 259.000 L 32.767 260.200 32.530 259.000 C 32.232 257.498,31.621 256.275,31.630 257.200 M365.283 263.215 C 364.357 265.700,363.672 267.805,363.760 267.893 C 363.998 268.131,367.251 259.553,367.097 259.092 C 367.025 258.875,366.208 260.731,365.283 263.215 M32.800 260.725 C 32.800 261.328,34.899 266.434,35.075 266.258 C 35.214 266.119,33.264 260.732,32.966 260.433 C 32.875 260.342,32.800 260.473,32.800 260.725 M35.395 267.586 C 35.943 269.311,37.270 272.064,37.461 271.872 C 37.568 271.765,37.283 270.860,36.828 269.861 C 36.372 268.862,36.000 267.865,36.000 267.646 C 36.000 267.426,35.801 267.124,35.557 266.974 C 35.256 266.788,35.205 266.984,35.395 267.586 M362.850 269.450 C 362.586 270.029,362.462 270.595,362.574 270.707 C 362.686 270.819,362.968 270.411,363.200 269.800 C 363.432 269.189,363.557 268.623,363.476 268.543 C 363.396 268.462,363.114 268.871,362.850 269.450 M361.139 273.254 C 359.123 277.939,353.899 287.849,351.150 292.200 C 350.317 293.520,348.958 295.680,348.131 297.000 C 342.777 305.545,333.426 316.991,324.602 325.800 C 315.702 334.685,307.978 340.966,296.700 348.491 C 294.148 350.194,293.543 350.991,295.900 349.545 C 313.540 338.721,333.499 319.248,346.477 300.200 C 352.529 291.317,363.035 272.102,362.262 271.329 C 362.149 271.215,361.643 272.082,361.139 273.254 M37.600 272.571 C 37.600 273.111,42.027 282.106,42.205 281.928 C 42.315 281.818,41.504 279.908,40.403 277.683 C 39.301 275.459,38.400 273.461,38.400 273.243 C 38.400 273.025,38.220 272.736,38.000 272.600 C 37.780 272.464,37.600 272.451,37.600 272.571 M42.413 282.624 C 42.406 282.856,42.664 283.396,42.987 283.824 C 43.310 284.251,43.580 284.409,43.587 284.176 C 43.594 283.944,43.336 283.404,43.013 282.976 C 42.690 282.549,42.420 282.391,42.413 282.624 M45.049 287.500 C 59.793 314.248,85.752 340.207,112.500 354.951 C 118.503 358.260,114.277 355.471,104.081 349.394 C 101.502 347.856,90.865 340.136,87.400 337.286 C 82.242 333.044,70.911 322.113,67.188 317.787 C 62.835 312.730,61.347 310.877,57.559 305.800 C 53.799 300.759,51.788 297.902,50.606 295.919 C 44.529 285.723,41.740 281.497,45.049 287.500 M291.800 351.582 C 289.857 352.933,285.024 355.637,281.913 357.114 C 280.655 357.711,279.620 358.333,279.613 358.495 C 279.606 358.657,280.455 358.389,281.500 357.899 C 283.769 356.836,294.000 350.850,294.000 350.585 C 294.000 350.208,293.358 350.498,291.800 351.582 M115.770 356.752 C 115.890 356.945,116.395 357.206,116.894 357.332 C 117.768 357.552,117.773 357.540,117.024 356.980 C 116.164 356.338,115.432 356.204,115.770 356.752 M118.000 357.828 C 118.000 358.176,127.265 362.469,127.502 362.231 C 127.617 362.116,127.213 361.833,126.605 361.602 C 125.997 361.371,123.877 360.376,121.895 359.391 C 118.105 357.507,118.000 357.465,118.000 357.828 M277.776 359.380 C 277.027 359.940,277.032 359.952,277.906 359.732 C 278.405 359.606,278.910 359.345,279.030 359.152 C 279.368 358.604,278.636 358.738,277.776 359.380 M273.600 361.254 C 272.170 361.930,270.570 362.650,270.045 362.853 C 269.519 363.056,269.172 363.305,269.274 363.407 C 269.460 363.594,276.219 360.715,276.682 360.251 C 277.226 359.708,276.081 360.080,273.600 361.254 M128.220 362.735 C 128.872 363.309,132.866 364.867,133.096 364.637 C 133.216 364.517,132.974 364.298,132.557 364.150 C 132.141 364.003,131.045 363.549,130.122 363.141 C 128.325 362.347,127.606 362.194,128.220 362.735 M267.242 364.034 C 266.715 364.245,266.375 364.508,266.486 364.620 C 266.720 364.853,268.800 364.125,268.800 363.810 C 268.800 363.521,268.369 363.583,267.242 364.034 M135.579 365.806 C 136.777 366.366,138.217 366.913,138.779 367.020 L 139.800 367.217 138.800 366.741 C 137.005 365.886,135.419 365.268,134.400 365.026 C 133.850 364.895,134.381 365.246,135.579 365.806 M263.200 365.576 C 262.210 365.988,261.059 366.436,260.643 366.572 C 260.226 366.708,259.974 366.907,260.081 367.015 C 260.262 367.195,265.591 365.341,265.967 364.966 C 266.380 364.554,264.837 364.894,263.200 365.576 M140.400 367.569 C 141.626 368.273,150.017 370.860,150.499 370.683 C 150.775 370.582,150.460 370.369,149.800 370.209 C 149.140 370.050,146.750 369.308,144.489 368.560 C 140.347 367.190,139.297 366.935,140.400 367.569 M257.400 367.786 C 256.740 368.088,256.470 368.342,256.800 368.349 C 257.130 368.357,257.940 368.117,258.600 367.814 C 259.260 367.512,259.530 367.258,259.200 367.251 C 258.870 367.243,258.060 367.483,257.400 367.786 M253.800 368.988 C 252.920 369.291,251.417 369.744,250.460 369.996 C 249.502 370.247,248.821 370.554,248.945 370.678 C 249.186 370.920,256.000 368.900,256.000 368.587 C 256.000 368.304,255.553 368.385,253.800 368.988 M151.243 370.963 C 152.057 371.821,170.388 375.799,172.141 375.497 C 172.629 375.413,172.136 375.219,171.000 375.048 C 169.900 374.883,166.840 374.293,164.200 373.737 C 161.560 373.182,158.590 372.564,157.600 372.364 C 156.610 372.163,155.350 371.831,154.800 371.625 C 153.428 371.110,150.945 370.648,151.243 370.963 M245.400 371.424 C 244.300 371.737,242.514 372.176,241.431 372.400 C 239.356 372.827,238.584 373.200,239.773 373.200 C 240.561 373.200,248.083 371.251,248.358 370.975 C 248.677 370.657,247.429 370.846,245.400 371.424 M235.600 373.731 C 234.113 374.026,233.724 374.209,234.400 374.294 C 234.950 374.364,236.210 374.164,237.200 373.850 C 239.332 373.174,238.662 373.124,235.600 373.731 M229.226 374.854 C 226.303 375.339,226.027 375.770,228.859 375.426 C 231.646 375.089,233.996 374.461,232.400 374.481 C 231.850 374.488,230.422 374.656,229.226 374.854 M176.000 376.213 C 177.650 376.508,179.720 376.743,180.600 376.735 L 182.200 376.720 180.800 376.406 C 180.030 376.233,177.960 375.998,176.200 375.884 L 173.000 375.675 176.000 376.213 M221.041 376.039 C 219.304 376.223,217.684 376.455,217.441 376.555 C 216.485 376.949,220.769 376.720,223.600 376.225 C 226.994 375.632,225.758 375.542,221.041 376.039 M185.600 377.317 C 189.465 377.726,210.088 377.724,214.000 377.314 C 215.851 377.120,210.411 377.000,199.800 377.000 C 189.070 377.000,183.728 377.119,185.600 377.317 " stroke="none" fill="#e9ab90" fill-rule="evenodd"></path></g></svg>