<svg id="svg" version="1.1" xmlns="http://www.w3.org/2000/svg" xmlns:xlink="http://www.w3.org/1999/xlink" width="400" height="400" viewBox="0, 0, 400,400"><g id="svgg"><path id="path0" d="M179.200 0.400 C 179.200 0.649,176.882 0.800,173.047 0.800 C 167.230 0.800,166.882 0.844,166.684 1.600 C 166.492 2.333,166.138 2.400,162.470 2.400 C 158.133 2.400,157.200 2.585,157.200 3.443 C 157.200 3.870,156.492 4.000,154.163 4.000 C 151.462 4.000,151.102 4.089,150.916 4.800 C 150.730 5.510,150.370 5.600,147.716 5.600 C 145.062 5.600,144.702 5.690,144.516 6.400 C 144.337 7.086,143.970 7.200,141.953 7.200 C 139.867 7.200,139.600 7.291,139.600 8.000 C 139.600 8.711,139.333 8.800,137.200 8.800 C 135.067 8.800,134.800 8.889,134.800 9.600 C 134.800 10.311,134.533 10.400,132.400 10.400 C 130.267 10.400,130.000 10.489,130.000 11.200 C 130.000 11.893,129.733 12.000,128.003 12.000 C 126.440 12.000,125.898 12.174,125.507 12.800 C 125.151 13.370,124.574 13.600,123.504 13.600 C 122.267 13.600,122.000 13.742,122.000 14.400 C 122.000 15.067,121.733 15.200,120.400 15.200 C 119.067 15.200,118.800 15.333,118.800 16.000 C 118.800 16.667,118.533 16.800,117.200 16.800 C 116.133 16.800,115.333 17.067,114.800 17.600 C 114.357 18.043,113.467 18.400,112.803 18.400 C 112.040 18.400,111.426 18.690,111.107 19.200 C 110.769 19.742,110.174 20.000,109.266 20.000 C 108.262 20.000,107.873 20.201,107.716 20.800 C 107.601 21.240,107.211 21.600,106.850 21.600 C 106.488 21.600,105.968 21.960,105.693 22.400 C 105.374 22.910,104.760 23.200,103.997 23.200 C 103.067 23.200,102.800 23.378,102.800 24.000 C 102.800 24.667,102.533 24.800,101.200 24.800 C 99.867 24.800,99.600 24.933,99.600 25.600 C 99.600 26.267,99.333 26.400,98.000 26.400 C 96.667 26.400,96.400 26.533,96.400 27.200 C 96.400 27.697,96.133 28.000,95.696 28.000 C 95.309 28.000,94.768 28.360,94.493 28.800 C 94.174 29.310,93.560 29.600,92.797 29.600 C 91.867 29.600,91.600 29.778,91.600 30.400 C 91.600 31.052,91.333 31.200,90.163 31.200 C 89.062 31.200,88.676 31.387,88.516 32.000 C 88.400 32.443,87.970 32.800,87.553 32.800 C 87.067 32.800,86.800 33.083,86.800 33.600 C 86.800 34.135,86.533 34.400,85.996 34.400 C 85.554 34.400,84.884 34.760,84.507 35.200 C 84.130 35.640,83.412 36.000,82.911 36.000 C 82.267 36.000,82.000 36.234,82.000 36.800 C 82.000 37.333,81.733 37.600,81.200 37.600 C 80.667 37.600,80.400 37.867,80.400 38.400 C 80.400 39.045,80.133 39.200,79.027 39.200 C 78.005 39.200,77.589 39.405,77.400 40.000 C 77.260 40.440,76.798 40.800,76.373 40.800 C 75.867 40.800,75.600 41.076,75.600 41.600 C 75.600 42.133,75.333 42.400,74.800 42.400 C 74.267 42.400,74.000 42.667,74.000 43.200 C 74.000 43.733,73.733 44.000,73.200 44.000 C 72.667 44.000,72.400 44.267,72.400 44.800 C 72.400 45.445,72.133 45.600,71.027 45.600 C 70.031 45.600,69.588 45.808,69.414 46.357 C 69.282 46.773,68.819 47.206,68.387 47.319 C 67.954 47.433,67.600 47.812,67.600 48.163 C 67.600 48.533,67.265 48.800,66.800 48.800 C 66.267 48.800,66.000 49.067,66.000 49.600 C 66.000 50.133,65.733 50.400,65.200 50.400 C 64.667 50.400,64.400 50.667,64.400 51.200 C 64.400 51.733,64.133 52.000,63.600 52.000 C 63.135 52.000,62.800 52.267,62.800 52.637 C 62.800 52.988,62.440 53.369,62.000 53.484 C 61.560 53.599,61.200 53.930,61.200 54.220 C 61.200 54.509,60.840 54.860,60.400 55.000 C 59.960 55.140,59.600 55.491,59.600 55.780 C 59.600 56.070,59.240 56.401,58.800 56.516 C 58.360 56.631,58.000 56.991,58.000 57.316 C 58.000 57.641,57.640 58.001,57.200 58.116 C 56.760 58.231,56.400 58.612,56.400 58.963 C 56.400 59.313,56.142 59.600,55.827 59.600 C 55.512 59.600,55.140 59.960,55.000 60.400 C 54.860 60.840,54.488 61.200,54.173 61.200 C 53.858 61.200,53.600 61.487,53.600 61.837 C 53.600 62.188,53.240 62.569,52.800 62.684 C 52.357 62.800,52.000 63.230,52.000 63.647 C 52.000 64.133,51.717 64.400,51.200 64.400 C 50.667 64.400,50.400 64.667,50.400 65.200 C 50.400 65.733,50.133 66.000,49.600 66.000 C 49.083 66.000,48.800 66.267,48.800 66.753 C 48.800 67.170,48.443 67.600,48.000 67.716 C 47.560 67.831,47.200 68.200,47.200 68.536 C 47.200 68.871,46.840 69.260,46.400 69.400 C 45.805 69.589,45.600 70.005,45.600 71.027 C 45.600 72.133,45.445 72.400,44.800 72.400 C 44.267 72.400,44.000 72.667,44.000 73.200 C 44.000 73.733,43.733 74.000,43.200 74.000 C 42.667 74.000,42.400 74.267,42.400 74.800 C 42.400 75.333,42.133 75.600,41.600 75.600 C 41.083 75.600,40.800 75.867,40.800 76.353 C 40.800 76.770,40.443 77.200,40.000 77.316 C 39.387 77.476,39.200 77.862,39.200 78.963 C 39.200 80.133,39.052 80.400,38.400 80.400 C 37.867 80.400,37.600 80.667,37.600 81.200 C 37.600 81.733,37.333 82.000,36.800 82.000 C 36.276 82.000,36.000 82.267,36.000 82.773 C 36.000 83.198,35.640 83.660,35.200 83.800 C 34.605 83.989,34.400 84.405,34.400 85.427 C 34.400 86.533,34.245 86.800,33.600 86.800 C 33.083 86.800,32.800 87.067,32.800 87.553 C 32.800 87.970,32.443 88.400,32.000 88.516 C 31.387 88.676,31.200 89.062,31.200 90.163 C 31.200 91.333,31.052 91.600,30.400 91.600 C 29.876 91.600,29.600 91.867,29.600 92.373 C 29.600 92.798,29.240 93.260,28.800 93.400 C 28.205 93.589,28.000 94.005,28.000 95.027 C 28.000 96.133,27.845 96.400,27.200 96.400 C 26.533 96.400,26.400 96.667,26.400 98.000 C 26.400 99.333,26.267 99.600,25.600 99.600 C 24.933 99.600,24.800 99.867,24.800 101.200 C 24.800 102.533,24.667 102.800,24.000 102.800 C 23.483 102.800,23.200 103.067,23.200 103.553 C 23.200 103.970,22.843 104.400,22.400 104.516 C 21.794 104.675,21.600 105.062,21.600 106.116 C 21.600 107.170,21.406 107.557,20.800 107.716 C 20.194 107.875,20.000 108.262,20.000 109.316 C 20.000 110.370,19.806 110.757,19.200 110.916 C 18.594 111.075,18.400 111.462,18.400 112.516 C 18.400 113.570,18.206 113.957,17.600 114.116 C 17.001 114.273,16.800 114.662,16.800 115.666 C 16.800 116.574,16.542 117.169,16.000 117.507 C 15.374 117.898,15.200 118.440,15.200 120.003 C 15.200 121.733,15.093 122.000,14.400 122.000 C 13.737 122.000,13.600 122.267,13.600 123.553 C 13.600 124.770,13.427 125.152,12.800 125.316 C 12.120 125.494,12.000 125.862,12.000 127.763 C 12.000 129.733,11.905 130.000,11.200 130.000 C 10.489 130.000,10.400 130.267,10.400 132.400 C 10.400 134.533,10.311 134.800,9.600 134.800 C 8.889 134.800,8.800 135.067,8.800 137.200 C 8.800 139.333,8.711 139.600,8.000 139.600 C 7.289 139.600,7.200 139.867,7.200 142.000 C 7.200 144.133,7.111 144.400,6.400 144.400 C 5.667 144.400,5.600 144.667,5.600 147.600 C 5.600 150.533,5.533 150.800,4.800 150.800 C 4.067 150.800,4.000 151.067,4.000 154.000 C 4.000 156.933,3.933 157.200,3.200 157.200 C 2.456 157.200,2.400 157.467,2.400 161.037 C 2.400 164.538,2.330 164.893,1.600 165.084 C 0.850 165.280,0.800 165.630,0.800 170.647 C 0.800 173.949,0.647 176.000,0.400 176.000 C 0.138 176.000,0.000 184.267,0.000 200.000 C 0.000 215.733,0.138 224.000,0.400 224.000 C 0.647 224.000,0.800 226.058,0.800 229.373 C 0.800 234.395,0.852 234.763,1.600 235.000 C 2.325 235.230,2.400 235.605,2.400 239.013 C 2.400 242.362,2.487 242.818,3.200 243.200 C 3.890 243.569,4.000 244.038,4.000 246.614 C 4.000 249.067,4.143 249.743,4.800 250.400 C 5.406 251.006,5.600 251.733,5.600 253.400 C 5.600 255.289,5.707 255.600,6.355 255.600 C 7.009 255.600,7.131 255.980,7.270 258.437 C 7.391 260.584,7.597 261.366,8.115 261.656 C 8.602 261.929,8.800 262.555,8.800 263.820 C 8.800 265.067,9.040 265.840,9.600 266.400 C 10.095 266.895,10.400 267.733,10.400 268.600 C 10.400 269.733,10.552 270.000,11.200 270.000 C 11.911 270.000,12.000 270.267,12.000 272.400 C 12.000 274.533,12.089 274.800,12.800 274.800 C 13.467 274.800,13.600 275.067,13.600 276.400 C 13.600 277.733,13.733 278.000,14.400 278.000 C 15.105 278.000,15.200 278.267,15.200 280.237 C 15.200 282.138,15.320 282.506,16.000 282.684 C 16.627 282.848,16.800 283.230,16.800 284.447 C 16.800 285.733,16.937 286.000,17.600 286.000 C 18.267 286.000,18.400 286.267,18.400 287.600 C 18.400 288.933,18.533 289.200,19.200 289.200 C 19.867 289.200,20.000 289.467,20.000 290.800 C 20.000 292.133,20.133 292.400,20.800 292.400 C 21.467 292.400,21.600 292.667,21.600 294.000 C 21.600 295.333,21.733 295.600,22.400 295.600 C 23.052 295.600,23.200 295.867,23.200 297.037 C 23.200 298.138,23.387 298.524,24.000 298.684 C 24.443 298.800,24.800 299.230,24.800 299.647 C 24.800 300.133,25.083 300.400,25.600 300.400 C 26.267 300.400,26.400 300.667,26.400 302.000 C 26.400 303.333,26.533 303.600,27.200 303.600 C 27.852 303.600,28.000 303.867,28.000 305.037 C 28.000 306.138,28.187 306.524,28.800 306.684 C 29.243 306.800,29.600 307.230,29.600 307.647 C 29.600 308.133,29.883 308.400,30.400 308.400 C 31.067 308.400,31.200 308.667,31.200 310.000 C 31.200 311.333,31.333 311.600,32.000 311.600 C 32.533 311.600,32.800 311.867,32.800 312.400 C 32.800 312.933,33.067 313.200,33.600 313.200 C 34.252 313.200,34.400 313.467,34.400 314.637 C 34.400 315.738,34.587 316.124,35.200 316.284 C 35.643 316.400,36.000 316.830,36.000 317.247 C 36.000 317.733,36.283 318.000,36.800 318.000 C 37.420 318.000,37.600 318.267,37.600 319.186 C 37.600 319.962,37.876 320.520,38.400 320.800 C 38.840 321.035,39.200 321.582,39.200 322.014 C 39.200 322.533,39.471 322.800,40.000 322.800 C 40.533 322.800,40.800 323.067,40.800 323.600 C 40.800 324.133,41.067 324.400,41.600 324.400 C 42.133 324.400,42.400 324.667,42.400 325.200 C 42.400 325.733,42.667 326.000,43.200 326.000 C 43.848 326.000,44.000 326.267,44.000 327.400 C 44.000 328.388,44.180 328.800,44.610 328.800 C 44.945 328.800,45.391 329.250,45.600 329.800 C 45.809 330.350,46.255 330.800,46.590 330.800 C 46.933 330.800,47.200 331.150,47.200 331.600 C 47.200 332.133,47.467 332.400,48.000 332.400 C 48.533 332.400,48.800 332.667,48.800 333.200 C 48.800 333.733,49.067 334.000,49.600 334.000 C 50.133 334.000,50.400 334.267,50.400 334.800 C 50.400 335.333,50.667 335.600,51.200 335.600 C 51.733 335.600,52.000 335.867,52.000 336.400 C 52.000 336.840,52.258 337.200,52.573 337.200 C 52.888 337.200,53.260 337.560,53.400 338.000 C 53.540 338.440,53.912 338.800,54.227 338.800 C 54.542 338.800,54.800 339.087,54.800 339.437 C 54.800 339.788,55.160 340.169,55.600 340.284 C 56.040 340.399,56.400 340.759,56.400 341.084 C 56.400 341.409,56.760 341.769,57.200 341.884 C 57.640 341.999,58.000 342.359,58.000 342.684 C 58.000 343.009,58.360 343.369,58.800 343.484 C 59.240 343.599,59.600 343.959,59.600 344.284 C 59.600 344.609,59.960 344.969,60.400 345.084 C 60.840 345.199,61.200 345.559,61.200 345.884 C 61.200 346.209,61.560 346.569,62.000 346.684 C 62.440 346.799,62.800 347.159,62.800 347.484 C 62.800 347.809,63.160 348.169,63.600 348.284 C 64.040 348.399,64.400 348.759,64.400 349.084 C 64.400 349.409,64.760 349.769,65.200 349.884 C 65.640 349.999,66.000 350.342,66.000 350.647 C 66.000 350.951,66.360 351.200,66.800 351.200 C 67.333 351.200,67.600 351.467,67.600 352.000 C 67.600 352.533,67.867 352.800,68.400 352.800 C 68.933 352.800,69.200 353.067,69.200 353.600 C 69.200 354.176,69.467 354.400,70.153 354.400 C 70.770 354.400,71.181 354.682,71.316 355.200 C 71.468 355.783,71.862 356.000,72.763 356.000 C 73.733 356.000,74.000 356.172,74.000 356.800 C 74.000 357.333,74.267 357.600,74.800 357.600 C 75.333 357.600,75.600 357.867,75.600 358.400 C 75.600 358.933,75.867 359.200,76.400 359.200 C 76.933 359.200,77.200 359.467,77.200 360.000 C 77.200 360.545,77.467 360.800,78.037 360.800 C 78.538 360.800,78.959 361.121,79.084 361.600 C 79.241 362.201,79.630 362.400,80.647 362.400 C 81.733 362.400,82.000 362.558,82.000 363.200 C 82.000 363.717,82.267 364.000,82.753 364.000 C 83.170 364.000,83.600 364.357,83.716 364.800 C 83.876 365.413,84.262 365.600,85.363 365.600 C 86.533 365.600,86.800 365.748,86.800 366.400 C 86.800 366.933,87.067 367.200,87.600 367.200 C 88.133 367.200,88.400 367.467,88.400 368.000 C 88.400 368.667,88.667 368.800,90.000 368.800 C 91.333 368.800,91.600 368.933,91.600 369.600 C 91.600 370.117,91.867 370.400,92.353 370.400 C 92.770 370.400,93.200 370.757,93.316 371.200 C 93.476 371.813,93.862 372.000,94.963 372.000 C 96.133 372.000,96.400 372.148,96.400 372.800 C 96.400 373.467,96.667 373.600,98.000 373.600 C 99.333 373.600,99.600 373.733,99.600 374.400 C 99.600 374.917,99.867 375.200,100.353 375.200 C 100.770 375.200,101.200 375.557,101.316 376.000 C 101.476 376.613,101.862 376.800,102.963 376.800 C 104.133 376.800,104.400 376.948,104.400 377.600 C 104.400 378.267,104.667 378.400,106.000 378.400 C 107.333 378.400,107.600 378.533,107.600 379.200 C 107.600 379.867,107.867 380.000,109.200 380.000 C 110.533 380.000,110.800 380.133,110.800 380.800 C 110.800 381.467,111.067 381.600,112.400 381.600 C 113.733 381.600,114.000 381.733,114.000 382.400 C 114.000 383.063,114.267 383.200,115.553 383.200 C 116.770 383.200,117.152 383.373,117.316 384.000 C 117.494 384.680,117.862 384.800,119.763 384.800 C 121.733 384.800,122.000 384.895,122.000 385.600 C 122.000 386.267,122.267 386.400,123.600 386.400 C 124.933 386.400,125.200 386.533,125.200 387.200 C 125.200 387.911,125.467 388.000,127.600 388.000 C 129.733 388.000,130.000 388.089,130.000 388.800 C 130.000 389.511,130.267 389.600,132.400 389.600 C 134.533 389.600,134.800 389.689,134.800 390.400 C 134.800 391.067,135.067 391.200,136.400 391.200 C 137.501 391.200,138.000 391.374,138.000 391.757 C 138.000 392.553,138.908 392.800,141.833 392.800 C 144.133 392.800,144.400 392.883,144.400 393.600 C 144.400 394.333,144.667 394.400,147.600 394.400 C 150.533 394.400,150.800 394.467,150.800 395.200 C 150.800 395.923,151.067 396.000,153.586 396.000 C 155.962 396.000,156.435 396.118,156.800 396.800 C 157.182 397.513,157.638 397.600,160.987 397.600 C 164.395 397.600,164.770 397.675,165.000 398.400 C 165.237 399.148,165.605 399.200,170.627 399.200 C 173.942 399.200,176.000 399.353,176.000 399.600 C 176.000 399.862,184.267 400.000,200.000 400.000 C 215.733 400.000,224.000 399.862,224.000 399.600 C 224.000 399.353,226.051 399.200,229.353 399.200 C 234.370 399.200,234.720 399.150,234.916 398.400 C 235.107 397.670,235.462 397.600,238.963 397.600 C 242.533 397.600,242.800 397.544,242.800 396.800 C 242.800 396.067,243.067 396.000,245.973 396.000 C 248.795 396.000,249.174 395.911,249.400 395.200 C 249.624 394.495,250.005 394.400,252.627 394.400 C 255.333 394.400,255.600 394.328,255.600 393.600 C 255.600 392.889,255.867 392.800,258.000 392.800 C 260.133 392.800,260.400 392.711,260.400 392.000 C 260.400 391.289,260.667 391.200,262.800 391.200 C 264.933 391.200,265.200 391.111,265.200 390.400 C 265.200 389.689,265.467 389.600,267.600 389.600 C 269.733 389.600,270.000 389.511,270.000 388.800 C 270.000 388.095,270.267 388.000,272.237 388.000 C 274.138 388.000,274.506 387.880,274.684 387.200 C 274.848 386.573,275.230 386.400,276.447 386.400 C 277.733 386.400,278.000 386.263,278.000 385.600 C 278.000 384.933,278.267 384.800,279.600 384.800 C 280.933 384.800,281.200 384.667,281.200 384.000 C 281.200 383.307,281.467 383.200,283.197 383.200 C 284.760 383.200,285.302 383.026,285.693 382.400 C 286.031 381.858,286.626 381.600,287.534 381.600 C 288.538 381.600,288.927 381.399,289.084 380.800 C 289.243 380.194,289.630 380.000,290.684 380.000 C 291.738 380.000,292.125 379.806,292.284 379.200 C 292.432 378.634,292.830 378.400,293.643 378.400 C 294.360 378.400,294.981 378.099,295.293 377.600 C 295.568 377.160,296.109 376.800,296.496 376.800 C 296.933 376.800,297.200 376.497,297.200 376.000 C 297.200 375.333,297.467 375.200,298.800 375.200 C 300.133 375.200,300.400 375.067,300.400 374.400 C 300.400 373.733,300.667 373.600,302.000 373.600 C 303.333 373.600,303.600 373.467,303.600 372.800 C 303.600 372.278,303.867 372.000,304.367 372.000 C 305.559 372.000,306.400 371.569,306.400 370.957 C 306.400 370.630,306.812 370.400,307.400 370.400 C 308.133 370.400,308.400 370.187,308.400 369.600 C 308.400 368.948,308.667 368.800,309.837 368.800 C 310.938 368.800,311.324 368.613,311.484 368.000 C 311.600 367.557,312.030 367.200,312.447 367.200 C 312.933 367.200,313.200 366.917,313.200 366.400 C 313.200 365.865,313.467 365.600,314.004 365.600 C 314.446 365.600,315.116 365.240,315.493 364.800 C 315.870 364.360,316.588 364.000,317.089 364.000 C 317.733 364.000,318.000 363.766,318.000 363.200 C 318.000 362.667,318.267 362.400,318.800 362.400 C 319.333 362.400,319.600 362.133,319.600 361.600 C 319.600 360.958,319.867 360.800,320.953 360.800 C 321.970 360.800,322.359 360.601,322.516 360.000 C 322.641 359.521,323.062 359.200,323.563 359.200 C 324.133 359.200,324.400 358.945,324.400 358.400 C 324.400 357.867,324.667 357.600,325.200 357.600 C 325.733 357.600,326.000 357.333,326.000 356.800 C 326.000 356.267,326.267 356.000,326.800 356.000 C 327.333 356.000,327.600 355.733,327.600 355.200 C 327.600 354.552,327.867 354.400,329.000 354.400 C 329.988 354.400,330.400 354.220,330.400 353.790 C 330.400 353.455,330.850 353.009,331.400 352.800 C 331.950 352.591,332.400 352.145,332.400 351.810 C 332.400 351.474,332.676 351.200,333.013 351.200 C 333.349 351.200,333.722 350.948,333.840 350.639 C 333.959 350.331,334.403 349.988,334.828 349.877 C 335.252 349.766,335.600 349.409,335.600 349.084 C 335.600 348.759,335.960 348.399,336.400 348.284 C 336.840 348.169,337.200 347.809,337.200 347.484 C 337.200 347.159,337.560 346.799,338.000 346.684 C 338.440 346.569,338.800 346.209,338.800 345.884 C 338.800 345.559,339.160 345.199,339.600 345.084 C 340.040 344.969,340.400 344.609,340.400 344.284 C 340.400 343.959,340.760 343.599,341.200 343.484 C 341.640 343.369,342.000 343.009,342.000 342.684 C 342.000 342.359,342.360 341.999,342.800 341.884 C 343.240 341.769,343.600 341.409,343.600 341.084 C 343.600 340.759,343.960 340.399,344.400 340.284 C 344.840 340.169,345.200 339.809,345.200 339.484 C 345.200 339.159,345.560 338.799,346.000 338.684 C 346.440 338.569,346.800 338.209,346.800 337.884 C 346.800 337.559,347.160 337.199,347.600 337.084 C 348.040 336.969,348.400 336.609,348.400 336.284 C 348.400 335.959,348.760 335.599,349.200 335.484 C 349.640 335.369,350.000 335.007,350.000 334.680 C 350.000 334.353,350.270 333.982,350.600 333.855 C 350.930 333.729,351.200 333.362,351.200 333.040 C 351.200 332.717,351.560 332.340,352.000 332.200 C 352.440 332.060,352.800 331.598,352.800 331.173 C 352.800 330.667,353.076 330.400,353.600 330.400 C 354.248 330.400,354.400 330.133,354.400 329.000 C 354.400 327.867,354.552 327.600,355.200 327.600 C 355.733 327.600,356.000 327.333,356.000 326.800 C 356.000 326.267,356.267 326.000,356.800 326.000 C 357.333 326.000,357.600 325.733,357.600 325.200 C 357.600 324.667,357.867 324.400,358.400 324.400 C 359.067 324.400,359.200 324.133,359.200 322.800 C 359.200 321.467,359.333 321.200,360.000 321.200 C 360.533 321.200,360.800 320.933,360.800 320.400 C 360.800 319.867,361.067 319.600,361.600 319.600 C 362.133 319.600,362.400 319.333,362.400 318.800 C 362.400 318.267,362.667 318.000,363.200 318.000 C 363.867 318.000,364.000 317.733,364.000 316.400 C 364.000 315.067,364.133 314.800,364.800 314.800 C 365.333 314.800,365.600 314.533,365.600 314.000 C 365.600 313.467,365.867 313.200,366.400 313.200 C 366.964 313.200,367.200 312.933,367.200 312.296 C 367.200 311.799,367.560 311.168,368.000 310.893 C 368.452 310.610,368.800 309.960,368.800 309.397 C 368.800 308.667,369.014 308.400,369.600 308.400 C 370.267 308.400,370.400 308.133,370.400 306.800 C 370.400 305.467,370.533 305.200,371.200 305.200 C 371.717 305.200,372.000 304.933,372.000 304.447 C 372.000 304.030,372.357 303.600,372.800 303.484 C 373.413 303.324,373.600 302.938,373.600 301.837 C 373.600 300.667,373.748 300.400,374.400 300.400 C 375.067 300.400,375.200 300.133,375.200 298.800 C 375.200 297.467,375.333 297.200,376.000 297.200 C 376.667 297.200,376.800 296.933,376.800 295.600 C 376.800 294.267,376.933 294.000,377.600 294.000 C 378.133 294.000,378.400 293.733,378.400 293.200 C 378.400 292.760,378.760 292.040,379.200 291.600 C 379.733 291.067,380.000 290.267,380.000 289.200 C 380.000 287.867,380.133 287.600,380.800 287.600 C 381.467 287.600,381.600 287.333,381.600 286.000 C 381.600 284.667,381.733 284.400,382.400 284.400 C 383.067 284.400,383.200 284.133,383.200 282.800 C 383.200 281.467,383.333 281.200,384.000 281.200 C 384.663 281.200,384.800 280.933,384.800 279.647 C 384.800 278.430,384.973 278.048,385.600 277.884 C 386.280 277.706,386.400 277.338,386.400 275.437 C 386.400 273.467,386.495 273.200,387.200 273.200 C 387.863 273.200,388.000 272.933,388.000 271.647 C 388.000 270.430,388.173 270.048,388.800 269.884 C 389.480 269.706,389.600 269.338,389.600 267.437 C 389.600 265.467,389.695 265.200,390.400 265.200 C 391.109 265.200,391.200 264.933,391.200 262.847 C 391.200 260.830,391.314 260.463,392.000 260.284 C 392.698 260.102,392.800 259.738,392.800 257.441 C 392.800 255.240,392.932 254.725,393.600 254.307 C 394.243 253.906,394.400 253.374,394.400 251.600 C 394.400 249.826,394.557 249.294,395.200 248.893 C 395.899 248.456,396.000 247.960,396.000 244.959 C 396.000 241.862,396.078 241.505,396.800 241.316 C 397.531 241.125,397.600 240.770,397.600 237.200 C 397.600 233.630,397.669 233.275,398.400 233.084 C 399.155 232.887,399.200 232.538,399.200 226.837 C 399.200 223.079,399.351 220.800,399.600 220.800 C 399.861 220.800,400.000 213.667,400.000 200.200 C 400.000 186.733,399.861 179.600,399.600 179.600 C 399.352 179.600,399.200 177.400,399.200 173.800 C 399.200 168.533,399.126 167.926,398.400 167.200 C 397.717 166.517,397.600 165.867,397.600 162.763 C 397.600 159.462,397.526 159.106,396.800 158.916 C 396.085 158.729,396.000 158.370,396.000 155.553 C 396.000 152.667,395.932 152.400,395.200 152.400 C 394.467 152.400,394.400 152.133,394.400 149.200 C 394.400 146.267,394.333 146.000,393.600 146.000 C 392.882 146.000,392.800 145.733,392.800 143.400 C 392.800 141.333,392.636 140.636,392.000 140.000 C 391.409 139.409,391.200 138.667,391.200 137.163 C 391.200 135.462,391.068 135.091,390.400 134.916 C 389.773 134.752,389.600 134.370,389.600 133.153 C 389.600 132.133,389.325 131.325,388.800 130.800 C 388.267 130.267,388.000 129.467,388.000 128.400 C 388.000 127.067,387.867 126.800,387.200 126.800 C 386.495 126.800,386.400 126.533,386.400 124.563 C 386.400 122.662,386.280 122.294,385.600 122.116 C 384.973 121.952,384.800 121.570,384.800 120.353 C 384.800 119.067,384.663 118.800,384.000 118.800 C 383.333 118.800,383.200 118.533,383.200 117.200 C 383.200 115.867,383.067 115.600,382.400 115.600 C 381.733 115.600,381.600 115.333,381.600 114.000 C 381.600 112.667,381.467 112.400,380.800 112.400 C 380.133 112.400,380.000 112.133,380.000 110.800 C 380.000 109.467,379.867 109.200,379.200 109.200 C 378.533 109.200,378.400 108.933,378.400 107.600 C 378.400 106.267,378.267 106.000,377.600 106.000 C 376.933 106.000,376.800 105.733,376.800 104.400 C 376.800 103.067,376.667 102.800,376.000 102.800 C 375.348 102.800,375.200 102.533,375.200 101.363 C 375.200 100.262,375.013 99.876,374.400 99.716 C 373.960 99.601,373.600 99.211,373.600 98.850 C 373.600 98.488,373.240 97.968,372.800 97.693 C 372.290 97.374,372.000 96.760,372.000 95.997 C 372.000 95.067,371.822 94.800,371.200 94.800 C 370.548 94.800,370.400 94.533,370.400 93.363 C 370.400 92.262,370.213 91.876,369.600 91.716 C 369.157 91.600,368.800 91.170,368.800 90.753 C 368.800 90.267,368.517 90.000,368.000 90.000 C 367.333 90.000,367.200 89.733,367.200 88.400 C 367.200 87.067,367.067 86.800,366.400 86.800 C 365.867 86.800,365.600 86.533,365.600 86.000 C 365.600 85.467,365.333 85.200,364.800 85.200 C 364.148 85.200,364.000 84.933,364.000 83.763 C 364.000 82.662,363.813 82.276,363.200 82.116 C 362.757 82.000,362.400 81.570,362.400 81.153 C 362.400 80.667,362.117 80.400,361.600 80.400 C 361.067 80.400,360.800 80.133,360.800 79.600 C 360.800 79.067,360.533 78.800,360.000 78.800 C 359.355 78.800,359.200 78.533,359.200 77.427 C 359.200 76.405,358.995 75.989,358.400 75.800 C 357.960 75.660,357.600 75.198,357.600 74.773 C 357.600 74.267,357.324 74.000,356.800 74.000 C 356.267 74.000,356.000 73.733,356.000 73.200 C 356.000 72.667,355.733 72.400,355.200 72.400 C 354.667 72.400,354.400 72.133,354.400 71.600 C 354.400 71.067,354.133 70.800,353.600 70.800 C 353.067 70.800,352.800 70.533,352.800 70.000 C 352.800 69.467,352.533 69.200,352.000 69.200 C 351.352 69.200,351.200 68.933,351.200 67.800 C 351.200 66.822,351.019 66.400,350.600 66.400 C 350.270 66.400,349.999 66.175,349.998 65.900 C 349.997 65.625,348.917 64.362,347.598 63.093 C 346.279 61.823,345.200 60.621,345.200 60.419 C 345.200 60.218,344.840 59.940,344.400 59.800 C 343.960 59.660,343.600 59.300,343.600 59.000 C 343.600 58.700,343.240 58.340,342.800 58.200 C 342.360 58.060,342.000 57.700,342.000 57.400 C 342.000 57.100,341.640 56.740,341.200 56.600 C 340.760 56.460,340.400 56.088,340.400 55.773 C 340.400 55.458,340.136 55.200,339.814 55.200 C 339.492 55.200,339.035 54.840,338.800 54.400 C 338.565 53.960,338.129 53.600,337.833 53.600 C 337.536 53.600,337.199 53.240,337.084 52.800 C 336.969 52.360,336.588 52.000,336.237 52.000 C 335.887 52.000,335.600 51.726,335.600 51.390 C 335.600 51.055,335.150 50.609,334.600 50.400 C 334.050 50.191,333.600 49.745,333.600 49.410 C 333.600 49.067,333.250 48.800,332.800 48.800 C 332.267 48.800,332.000 48.533,332.000 48.000 C 332.000 47.352,331.733 47.200,330.600 47.200 C 329.467 47.200,329.200 47.048,329.200 46.400 C 329.200 45.867,328.933 45.600,328.400 45.600 C 327.867 45.600,327.600 45.333,327.600 44.800 C 327.600 44.267,327.333 44.000,326.800 44.000 C 326.267 44.000,326.000 43.733,326.000 43.200 C 326.000 42.683,325.733 42.400,325.247 42.400 C 324.830 42.400,324.400 42.043,324.284 41.600 C 324.124 40.987,323.738 40.800,322.637 40.800 C 321.467 40.800,321.200 40.652,321.200 40.000 C 321.200 39.467,320.933 39.200,320.400 39.200 C 319.867 39.200,319.600 38.933,319.600 38.400 C 319.600 37.883,319.333 37.600,318.847 37.600 C 318.430 37.600,318.000 37.243,317.884 36.800 C 317.724 36.187,317.338 36.000,316.237 36.000 C 315.067 36.000,314.800 35.852,314.800 35.200 C 314.800 34.667,314.533 34.400,314.000 34.400 C 313.467 34.400,313.200 34.133,313.200 33.600 C 313.200 32.933,312.933 32.800,311.600 32.800 C 310.267 32.800,310.000 32.667,310.000 32.000 C 310.000 31.483,309.733 31.200,309.247 31.200 C 308.830 31.200,308.400 30.843,308.284 30.400 C 308.124 29.787,307.738 29.600,306.637 29.600 C 305.467 29.600,305.200 29.452,305.200 28.800 C 305.200 28.271,304.933 28.000,304.414 28.000 C 303.982 28.000,303.435 27.640,303.200 27.200 C 302.920 26.676,302.362 26.400,301.586 26.400 C 300.667 26.400,300.400 26.220,300.400 25.600 C 300.400 24.933,300.133 24.800,298.800 24.800 C 297.467 24.800,297.200 24.667,297.200 24.000 C 297.200 23.333,296.933 23.200,295.600 23.200 C 294.267 23.200,294.000 23.067,294.000 22.400 C 294.000 21.733,293.733 21.600,292.400 21.600 C 291.067 21.600,290.800 21.467,290.800 20.800 C 290.800 20.133,290.533 20.000,289.200 20.000 C 287.867 20.000,287.600 19.867,287.600 19.200 C 287.600 18.533,287.333 18.400,286.000 18.400 C 284.667 18.400,284.400 18.267,284.400 17.600 C 284.400 16.933,284.133 16.800,282.800 16.800 C 281.467 16.800,281.200 16.667,281.200 16.000 C 281.200 15.337,280.933 15.200,279.647 15.200 C 278.430 15.200,278.048 15.027,277.884 14.400 C 277.706 13.720,277.338 13.600,275.437 13.600 C 273.467 13.600,273.200 13.505,273.200 12.800 C 273.200 12.137,272.933 12.000,271.647 12.000 C 270.430 12.000,270.048 11.827,269.884 11.200 C 269.707 10.523,269.338 10.400,267.484 10.400 C 265.630 10.400,265.261 10.277,265.084 9.600 C 264.907 8.923,264.538 8.800,262.684 8.800 C 260.830 8.800,260.461 8.677,260.284 8.000 C 260.098 7.289,259.738 7.200,257.037 7.200 C 254.267 7.200,254.000 7.130,254.000 6.400 C 254.000 5.672,253.733 5.600,251.047 5.600 C 248.430 5.600,248.069 5.509,247.884 4.800 C 247.698 4.088,247.338 4.000,244.600 4.000 C 241.862 4.000,241.502 3.912,241.316 3.200 C 241.125 2.469,240.770 2.400,237.200 2.400 C 233.630 2.400,233.275 2.331,233.084 1.600 C 232.887 0.845,232.538 0.800,226.837 0.800 C 223.079 0.800,220.800 0.649,220.800 0.400 C 220.800 0.138,213.600 0.000,200.000 0.000 C 186.400 0.000,179.200 0.138,179.200 0.400 M362.369 179.273 C 363.246 179.952,363.846 180.764,364.647 182.353 C 365.187 183.422,363.129 186.453,361.309 187.270 C 357.614 188.929,354.086 185.007,355.745 181.087 C 357.009 178.101,359.852 177.322,362.369 179.273 M259.920 178.880 C 260.819 179.779,260.403 181.337,258.524 184.112 C 256.172 187.586,258.123 187.227,240.955 187.344 C 229.183 187.423,225.814 187.565,224.292 188.043 C 214.915 190.987,213.979 207.625,222.933 212.210 L 224.866 213.200 241.659 213.200 C 259.260 213.200,260.278 213.294,259.775 214.880 C 259.378 216.128,256.552 220.374,255.523 221.266 C 254.259 222.363,224.366 222.252,222.000 221.142 C 221.230 220.780,220.150 220.277,219.600 220.023 C 217.284 218.953,216.302 218.249,214.226 216.174 C 213.021 214.969,211.767 213.492,211.440 212.892 C 205.267 201.588,207.596 188.780,217.000 182.315 C 217.880 181.710,218.766 181.211,218.969 181.207 C 219.171 181.203,219.635 180.930,219.999 180.601 C 221.402 179.331,224.564 179.068,241.400 178.821 C 250.640 178.686,258.479 178.536,258.820 178.488 C 259.161 178.439,259.656 178.616,259.920 178.880 M352.026 178.814 C 353.039 179.356,353.046 181.354,352.039 182.361 C 351.621 182.779,351.167 183.454,351.031 183.861 C 350.895 184.267,350.283 185.201,349.673 185.935 L 348.563 187.271 334.181 187.242 C 315.562 187.205,313.623 187.718,310.482 193.523 C 309.088 196.101,308.337 196.000,328.944 196.000 C 342.165 196.000,347.972 196.132,348.280 196.440 C 348.836 196.996,348.302 199.004,347.289 200.164 C 346.888 200.624,346.049 201.765,345.426 202.700 L 344.291 204.400 326.946 204.400 C 307.416 204.400,308.729 204.147,310.679 207.529 C 312.188 210.145,313.109 211.072,315.333 212.210 L 317.266 213.200 334.059 213.200 C 351.664 213.200,352.678 213.294,352.174 214.882 C 351.716 216.325,348.404 221.170,347.570 221.616 C 346.142 222.380,316.123 221.952,314.400 221.142 C 313.630 220.780,312.550 220.277,312.000 220.023 C 309.684 218.953,308.702 218.249,306.626 216.174 C 304.553 214.101,303.859 213.132,302.774 210.800 C 302.518 210.250,301.931 208.990,301.469 208.000 C 300.205 205.290,300.241 195.479,301.525 192.722 C 302.006 191.689,302.400 190.684,302.400 190.488 C 302.400 188.723,309.620 181.200,311.314 181.200 C 311.638 181.200,312.116 180.942,312.378 180.627 C 313.456 179.328,316.479 179.071,333.600 178.820 C 342.950 178.684,350.747 178.533,350.926 178.486 C 351.106 178.439,351.601 178.586,352.026 178.814 M87.947 179.415 C 90.893 180.030,93.917 181.357,94.520 182.300 C 94.696 182.575,95.042 182.800,95.288 182.800 C 97.126 182.800,101.440 189.354,102.806 194.222 C 106.018 205.670,100.685 216.521,89.612 221.066 C 87.446 221.956,51.046 222.218,49.961 221.352 C 49.653 221.106,48.685 220.674,47.811 220.392 C 46.937 220.110,45.979 219.636,45.682 219.340 C 45.386 219.043,44.927 218.800,44.662 218.800 C 42.509 218.800,37.218 211.477,36.136 207.000 C 34.854 201.697,34.748 200.773,35.160 198.471 C 35.902 194.328,36.745 191.081,37.143 190.835 C 37.360 190.701,37.657 190.112,37.804 189.525 C 37.951 188.939,38.416 188.148,38.836 187.767 C 39.256 187.387,39.600 186.931,39.600 186.753 C 39.600 186.263,42.903 182.988,43.700 182.688 C 44.085 182.544,44.400 182.252,44.400 182.040 C 44.400 181.827,44.805 181.530,45.300 181.380 C 45.795 181.229,46.470 180.871,46.800 180.585 C 48.815 178.837,80.814 177.927,87.947 179.415 M144.426 179.471 C 146.807 180.133,152.000 184.132,152.000 185.304 C 152.000 185.542,152.288 186.056,152.641 186.445 C 154.218 188.188,153.992 196.139,152.299 198.476 C 150.882 200.433,148.703 202.800,148.318 202.800 C 148.125 202.800,147.480 203.143,146.884 203.563 C 145.501 204.536,141.904 205.361,140.377 205.055 C 139.328 204.846,139.200 204.928,139.200 205.810 C 139.200 206.355,139.346 206.800,139.525 206.800 C 139.704 206.800,141.369 208.253,143.225 210.029 C 145.081 211.805,148.098 214.673,149.929 216.403 C 152.772 219.088,153.239 219.712,153.129 220.674 L 153.000 221.800 149.000 221.917 C 143.650 222.073,144.049 222.263,138.600 216.991 C 135.960 214.437,131.190 209.857,128.000 206.813 C 124.810 203.770,121.604 200.710,120.876 200.013 C 119.910 199.089,119.585 198.461,119.676 197.690 L 119.800 196.634 130.800 196.719 C 140.798 196.797,141.922 196.738,143.136 196.074 C 146.494 194.236,146.311 189.527,142.821 187.965 C 140.429 186.894,115.849 186.775,115.443 187.833 C 115.309 188.181,115.200 195.824,115.200 204.819 C 115.200 223.760,115.686 222.000,110.455 222.000 C 108.081 222.000,107.095 221.838,106.629 221.371 C 105.674 220.417,105.674 180.383,106.629 179.429 C 107.605 178.453,140.897 178.490,144.426 179.471 M185.481 179.276 C 186.881 179.872,188.400 181.190,188.400 181.808 C 188.400 182.065,188.760 182.602,189.200 183.000 C 189.640 183.398,190.000 183.868,190.000 184.044 C 190.000 184.220,190.453 185.047,191.007 185.882 C 191.561 186.717,192.188 187.670,192.400 188.000 C 192.612 188.330,193.239 189.283,193.793 190.118 C 194.347 190.953,194.800 191.710,194.800 191.800 C 194.800 191.890,195.253 192.647,195.807 193.482 C 197.358 195.818,197.509 196.048,199.030 198.400 C 199.813 199.610,200.847 201.299,201.327 202.154 C 202.506 204.253,202.660 204.497,205.300 208.447 C 206.565 210.340,207.600 212.066,207.600 212.283 C 207.600 212.499,207.960 213.002,208.400 213.400 C 208.840 213.798,209.200 214.283,209.200 214.478 C 209.200 214.866,210.561 216.906,211.721 218.256 C 212.201 218.815,212.412 219.580,212.329 220.456 L 212.200 221.800 208.454 221.916 C 204.166 222.048,203.308 221.700,201.994 219.294 C 201.545 218.472,200.828 217.260,200.400 216.600 C 199.972 215.940,199.212 214.701,198.711 213.846 C 197.449 211.693,197.205 211.306,195.500 208.759 C 194.675 207.526,194.000 206.311,194.000 206.059 C 194.000 205.806,193.832 205.600,193.626 205.600 C 193.420 205.600,193.024 204.970,192.746 204.200 C 192.198 202.687,191.819 202.453,191.453 203.405 C 189.242 209.168,186.983 210.460,179.229 210.397 C 170.674 210.328,171.233 210.261,170.800 211.400 C 170.591 211.950,170.235 212.400,170.010 212.400 C 169.784 212.400,169.600 212.625,169.599 212.900 C 169.599 213.175,168.900 214.406,168.047 215.636 C 167.193 216.866,166.384 218.216,166.248 218.636 C 165.339 221.457,159.882 223.158,156.233 221.757 C 155.306 221.402,155.414 218.986,156.400 218.000 C 156.840 217.560,157.201 217.065,157.202 216.900 C 157.204 216.735,158.013 215.430,159.000 214.000 C 159.987 212.570,160.796 211.169,160.798 210.887 C 160.799 210.606,161.070 210.271,161.400 210.145 C 161.730 210.018,162.004 209.709,162.009 209.457 C 162.018 209.046,165.384 203.720,166.401 202.511 C 166.627 202.241,166.985 201.566,167.196 201.011 C 167.407 200.455,167.765 200.000,167.990 200.000 C 168.216 200.000,168.403 199.775,168.407 199.500 C 168.414 199.033,170.030 196.395,171.398 194.619 C 171.729 194.189,172.000 193.613,172.000 193.339 C 172.000 193.064,172.229 192.696,172.508 192.520 C 172.788 192.344,173.250 191.750,173.535 191.200 C 176.673 185.146,180.257 180.262,182.107 179.522 C 184.186 178.689,184.114 178.694,185.481 179.276 M272.347 179.336 C 272.653 179.705,272.824 185.053,272.896 196.566 L 273.000 213.261 286.657 213.216 C 302.519 213.164,303.195 213.353,300.436 217.054 C 300.086 217.523,299.530 218.326,299.200 218.838 C 298.870 219.350,298.119 220.271,297.531 220.884 L 296.462 222.000 281.457 222.000 C 272.676 222.000,266.027 221.838,265.426 221.610 L 264.400 221.220 264.400 200.430 C 264.400 181.052,264.448 179.612,265.100 179.232 C 266.170 178.609,271.810 178.689,272.347 179.336 M52.000 187.994 C 42.419 190.710,41.125 207.430,50.125 212.221 L 51.963 213.200 69.438 213.200 C 89.120 213.200,88.683 213.263,91.866 209.983 C 96.876 204.821,96.219 193.948,90.631 189.553 C 87.511 187.099,59.189 185.956,52.000 187.994 M182.780 192.413 C 182.241 193.300,181.490 194.402,181.112 194.861 C 180.733 195.320,180.316 196.034,180.185 196.448 C 180.054 196.861,179.790 197.200,179.600 197.200 C 179.410 197.200,179.146 197.539,179.015 197.952 C 178.884 198.366,178.415 199.121,177.974 199.630 C 176.361 201.490,176.849 201.658,184.100 201.732 C 187.785 201.769,190.800 201.746,190.800 201.679 C 190.800 201.328,188.930 198.162,188.515 197.811 C 188.249 197.585,187.889 197.040,187.715 196.600 C 187.295 195.534,184.259 190.830,183.980 190.813 C 183.860 190.806,183.320 191.526,182.780 192.413 " stroke="none" fill="#941b30" fill-rule="evenodd"></path><path id="path1" d="M51.400 180.672 C 49.211 181.162,46.535 182.202,45.242 183.064 C 41.774 185.376,40.467 187.137,37.451 193.561 C 36.499 195.587,36.876 205.902,38.000 208.600 C 40.697 215.075,45.388 218.964,51.745 219.996 C 55.002 220.524,84.274 220.512,87.548 219.980 C 96.667 218.501,101.800 211.448,101.800 200.400 C 101.800 190.031,98.150 184.360,89.539 181.352 C 86.960 180.451,54.935 179.880,51.400 180.672 M107.389 180.885 C 107.281 181.168,107.239 190.130,107.296 200.800 L 107.400 220.200 109.901 220.319 C 113.998 220.514,113.660 222.004,113.734 203.433 C 113.797 187.803,113.832 187.113,114.576 186.568 C 115.394 185.970,139.571 185.694,142.354 186.251 C 146.873 187.155,148.345 192.630,145.027 196.193 L 143.344 198.000 132.539 198.000 C 126.596 198.000,121.613 198.120,121.467 198.267 C 121.320 198.414,123.563 200.799,126.452 203.567 C 129.341 206.335,133.976 210.825,136.752 213.544 C 144.008 220.650,143.607 220.400,147.738 220.400 C 151.952 220.400,152.118 220.035,149.149 217.294 C 148.021 216.252,145.606 213.960,143.781 212.200 C 141.957 210.440,139.631 208.204,138.613 207.231 C 135.706 204.454,136.070 203.849,140.800 203.599 C 150.872 203.066,156.315 192.302,150.250 184.911 C 146.664 180.541,147.089 180.618,125.893 180.485 C 111.244 180.392,107.547 180.472,107.389 180.885 M181.574 181.314 C 181.010 181.801,179.919 183.190,179.149 184.400 C 176.525 188.524,175.401 190.327,173.800 192.982 C 172.920 194.441,171.237 197.112,170.061 198.918 C 168.884 200.723,167.624 202.719,167.261 203.352 C 166.205 205.194,163.563 209.335,161.946 211.684 C 161.536 212.280,161.200 212.858,161.200 212.968 C 161.200 213.079,160.207 214.628,158.993 216.411 C 157.779 218.194,156.889 219.821,157.016 220.026 C 157.299 220.483,163.600 220.530,163.600 220.075 C 163.600 219.897,163.936 219.391,164.346 218.950 C 164.756 218.510,165.324 217.711,165.609 217.175 C 170.180 208.552,170.635 208.279,180.121 208.454 C 186.490 208.572,186.494 208.571,187.230 207.586 C 187.634 207.044,188.333 206.122,188.783 205.537 C 190.757 202.968,190.380 202.800,182.643 202.800 C 174.648 202.800,174.345 202.661,176.288 199.888 C 176.900 199.015,177.753 197.738,178.184 197.050 C 178.615 196.363,179.110 195.740,179.284 195.667 C 179.458 195.593,179.600 195.379,179.600 195.190 C 179.600 194.544,182.846 189.668,183.424 189.446 C 184.194 189.150,185.085 189.524,185.369 190.262 C 185.602 190.870,186.725 192.645,190.767 198.797 C 193.256 202.584,193.422 202.846,194.711 205.046 C 195.212 205.901,195.972 207.140,196.399 207.800 C 196.826 208.460,197.476 209.540,197.844 210.200 C 198.211 210.860,198.630 211.490,198.775 211.600 C 198.920 211.710,199.546 212.678,200.166 213.752 C 201.331 215.767,202.694 217.920,203.817 219.516 C 204.517 220.511,210.360 220.733,210.675 219.777 C 210.752 219.545,209.507 217.350,207.908 214.900 C 206.308 212.450,203.948 208.770,202.663 206.723 C 201.378 204.675,199.263 201.334,197.963 199.297 C 196.663 197.260,195.600 195.497,195.600 195.380 C 195.600 195.262,195.414 194.949,195.186 194.683 C 194.641 194.046,190.800 188.049,190.800 187.834 C 190.800 187.331,186.615 181.516,185.885 181.005 C 184.658 180.145,182.771 180.281,181.574 181.314 M224.200 180.676 C 209.898 183.951,204.432 202.208,214.150 214.244 C 218.568 219.717,221.488 220.400,240.474 220.400 L 254.283 220.400 255.242 219.431 C 259.949 214.670,260.326 214.800,241.788 214.800 C 222.997 214.800,223.211 214.836,219.421 211.017 C 212.589 204.135,214.233 191.669,222.551 187.281 L 224.600 186.200 240.158 186.109 C 248.715 186.059,255.741 185.969,255.772 185.909 C 255.803 185.849,256.573 184.690,257.482 183.334 C 258.391 181.978,259.030 180.763,258.901 180.634 C 258.629 180.362,225.396 180.402,224.200 180.676 M266.284 180.650 C 265.939 180.994,265.900 218.873,266.243 219.767 C 266.807 221.238,297.600 220.557,297.600 219.074 C 297.600 218.855,298.066 218.065,298.635 217.318 C 300.576 214.774,300.706 214.800,285.827 214.800 C 272.686 214.800,272.420 214.784,271.985 213.972 C 271.685 213.412,271.519 207.882,271.471 196.872 L 271.400 180.600 268.984 180.483 C 267.655 180.419,266.440 180.494,266.284 180.650 M316.600 180.680 C 296.739 185.335,296.718 216.544,316.573 219.988 C 317.894 220.217,325.135 220.400,332.892 220.400 L 346.836 220.400 347.718 219.431 C 352.133 214.578,352.773 214.800,334.374 214.800 C 315.557 214.800,315.590 214.806,311.843 211.057 C 310.302 209.516,309.192 208.003,308.867 207.000 C 308.582 206.120,308.262 205.196,308.156 204.946 C 307.458 203.297,308.466 203.200,326.352 203.200 L 343.447 203.200 344.623 201.568 C 345.270 200.670,346.106 199.631,346.479 199.258 C 348.061 197.678,347.357 197.612,327.579 197.504 L 308.600 197.400 308.477 196.129 C 308.224 193.522,311.443 189.133,314.975 187.269 L 317.000 186.200 332.000 186.101 C 340.250 186.046,347.302 186.001,347.671 186.001 C 348.069 186.000,348.872 185.065,349.647 183.700 C 350.365 182.435,351.100 181.340,351.279 181.266 C 353.125 180.506,319.748 179.943,316.600 180.680 M89.200 187.172 C 99.763 192.874,98.784 210.971,87.738 214.198 C 84.617 215.110,54.492 215.082,51.335 214.164 C 48.872 213.448,44.713 209.806,44.296 208.000 C 44.169 207.450,43.764 206.190,43.395 205.200 C 41.915 201.227,43.216 193.601,45.886 190.597 C 49.926 186.052,49.888 186.059,70.400 186.136 L 87.400 186.200 89.200 187.172 " stroke="none" fill="#e3e2e2" fill-rule="evenodd"></path><path id="path2" d="M107.921 180.018 L 107.000 180.236 106.896 200.172 C 106.778 222.801,106.521 221.200,110.275 221.200 C 114.784 221.200,114.400 222.782,114.400 204.219 C 114.400 195.334,114.509 187.781,114.643 187.433 C 115.048 186.376,142.127 186.494,143.743 187.559 C 146.498 189.375,147.214 192.657,145.379 195.063 C 143.494 197.534,143.136 197.600,131.607 197.600 C 120.264 197.600,119.279 197.808,121.633 199.702 C 122.165 200.130,125.579 203.387,129.219 206.940 C 132.860 210.493,137.680 215.155,139.930 217.300 L 144.020 221.200 148.210 221.200 C 154.194 221.200,154.487 221.700,140.866 208.678 C 137.782 205.730,136.959 204.446,138.100 204.364 C 138.375 204.344,139.891 204.265,141.468 204.188 C 154.109 203.574,157.504 186.757,146.137 181.058 L 144.075 180.024 126.458 179.912 C 116.769 179.850,108.427 179.898,107.921 180.018 M239.600 179.975 L 222.600 180.200 219.800 181.568 C 203.211 189.673,205.935 216.442,223.769 220.578 C 228.574 221.693,253.872 221.457,255.215 220.286 C 256.837 218.870,258.477 216.158,258.332 215.132 L 258.200 214.200 241.200 214.000 C 231.850 213.890,223.840 213.632,223.400 213.427 C 215.292 209.647,213.169 197.350,219.428 190.422 C 222.566 186.949,222.126 187.026,239.938 186.800 L 255.677 186.600 256.647 185.400 C 261.511 179.386,262.412 179.672,239.600 179.975 M266.100 180.108 L 265.200 180.522 265.200 200.233 C 265.200 217.618,265.274 220.017,265.829 220.571 C 266.572 221.314,295.024 221.536,296.382 220.810 C 297.707 220.100,300.057 216.422,299.923 215.267 L 299.800 214.200 286.495 214.145 C 276.324 214.103,273.045 213.969,272.572 213.577 C 272.031 213.127,271.963 211.052,272.027 196.902 C 272.076 186.169,271.962 180.602,271.686 180.326 C 271.114 179.754,267.201 179.602,266.100 180.108 M332.000 179.975 L 315.000 180.200 312.372 181.486 C 295.720 189.635,298.023 215.818,315.800 220.456 C 319.034 221.300,345.727 221.589,347.208 220.796 C 348.392 220.162,350.877 216.153,350.730 215.114 L 350.600 214.200 333.600 214.000 C 313.204 213.760,312.859 213.663,309.714 207.254 C 307.928 203.613,307.028 203.814,325.644 203.711 C 334.530 203.662,342.271 203.617,342.846 203.611 C 343.625 203.603,344.180 203.168,345.026 201.900 C 345.649 200.965,346.523 199.787,346.967 199.282 C 348.895 197.087,348.770 197.073,328.286 197.168 L 309.608 197.254 309.151 196.252 C 308.270 194.318,311.866 189.429,315.400 187.755 C 317.390 186.812,317.473 186.808,332.200 186.798 C 349.671 186.787,348.216 187.048,350.377 183.546 C 352.942 179.390,354.424 179.677,332.000 179.975 M48.965 180.722 C 30.477 187.182,32.257 216.354,51.398 220.613 C 55.630 221.554,85.895 221.291,89.319 220.283 C 105.821 215.425,107.647 189.317,92.020 181.676 L 89.000 180.200 70.000 180.105 C 52.673 180.019,50.821 180.073,48.965 180.722 M180.426 181.866 C 178.953 183.539,178.145 184.751,175.400 189.402 C 174.042 191.704,170.400 197.510,168.249 200.802 C 167.122 202.527,165.120 205.678,163.800 207.806 C 162.480 209.934,160.266 213.397,158.881 215.503 C 155.502 220.638,155.570 220.966,160.059 221.115 L 163.519 221.230 165.289 218.515 C 166.262 217.022,167.748 214.720,168.590 213.400 C 171.460 208.900,170.727 209.200,178.837 209.200 C 187.262 209.200,186.837 209.325,188.822 206.269 C 191.355 202.371,191.401 202.402,183.067 202.394 C 176.061 202.387,175.540 202.229,176.640 200.451 C 184.017 188.527,183.786 188.698,186.497 193.112 C 187.540 194.810,189.700 198.220,191.297 200.689 C 192.894 203.158,194.781 206.128,195.490 207.289 C 196.200 208.450,197.550 210.612,198.490 212.094 C 199.431 213.575,200.740 215.708,201.400 216.832 C 203.934 221.152,204.008 221.200,208.036 221.200 C 212.578 221.200,212.582 221.143,208.500 214.820 C 206.795 212.178,204.320 208.295,203.000 206.189 C 201.680 204.084,199.520 200.661,198.200 198.584 C 196.880 196.507,194.720 193.086,193.400 190.983 C 186.516 180.016,186.503 180.000,183.745 180.000 C 182.250 180.000,181.890 180.203,180.426 181.866 M89.539 181.352 C 98.150 184.360,101.800 190.031,101.800 200.400 C 101.800 211.448,96.667 218.501,87.548 219.980 C 84.274 220.512,55.002 220.524,51.745 219.996 C 45.388 218.964,40.697 215.075,38.000 208.600 C 36.876 205.902,36.499 195.587,37.451 193.561 C 40.467 187.137,41.774 185.376,45.242 183.064 C 46.535 182.202,49.211 181.162,51.400 180.672 C 54.935 179.880,86.960 180.451,89.539 181.352 M146.000 181.483 C 157.283 187.018,153.542 202.925,140.800 203.599 C 136.070 203.849,135.706 204.454,138.613 207.231 C 139.631 208.204,141.957 210.440,143.781 212.200 C 145.606 213.960,148.021 216.252,149.149 217.294 C 152.118 220.035,151.952 220.400,147.738 220.400 C 143.607 220.400,144.008 220.650,136.752 213.544 C 133.976 210.825,129.341 206.335,126.452 203.567 C 123.563 200.799,121.320 198.414,121.467 198.267 C 121.613 198.120,126.596 198.000,132.539 198.000 L 143.344 198.000 145.027 196.193 C 148.345 192.630,146.873 187.155,142.354 186.251 C 139.571 185.694,115.394 185.970,114.576 186.568 C 113.832 187.113,113.797 187.803,113.734 203.433 C 113.660 222.004,113.998 220.514,109.901 220.319 L 107.400 220.200 107.296 200.800 C 107.239 190.130,107.281 181.168,107.389 180.885 C 107.790 179.838,143.784 180.396,146.000 181.483 M185.885 181.005 C 186.615 181.516,190.800 187.331,190.800 187.834 C 190.800 188.049,194.641 194.046,195.186 194.683 C 195.414 194.949,195.600 195.262,195.600 195.380 C 195.600 195.497,196.663 197.260,197.963 199.297 C 199.263 201.334,201.378 204.675,202.663 206.723 C 203.948 208.770,206.308 212.450,207.908 214.900 C 209.507 217.350,210.752 219.545,210.675 219.777 C 210.360 220.733,204.517 220.511,203.817 219.516 C 202.694 217.920,201.331 215.767,200.166 213.752 C 199.546 212.678,198.920 211.710,198.775 211.600 C 198.630 211.490,198.211 210.860,197.844 210.200 C 197.476 209.540,196.826 208.460,196.399 207.800 C 195.972 207.140,195.212 205.901,194.711 205.046 C 193.422 202.846,193.256 202.584,190.767 198.797 C 186.725 192.645,185.602 190.870,185.369 190.262 C 185.085 189.524,184.194 189.150,183.424 189.446 C 182.846 189.668,179.600 194.544,179.600 195.190 C 179.600 195.379,179.458 195.593,179.284 195.667 C 179.110 195.740,178.615 196.363,178.184 197.050 C 177.753 197.738,176.900 199.015,176.288 199.888 C 174.345 202.661,174.648 202.800,182.643 202.800 C 190.380 202.800,190.757 202.968,188.783 205.537 C 188.333 206.122,187.634 207.044,187.230 207.586 C 186.494 208.571,186.490 208.572,180.121 208.454 C 170.635 208.279,170.180 208.552,165.609 217.175 C 165.324 217.711,164.756 218.510,164.346 218.950 C 163.936 219.391,163.600 219.897,163.600 220.075 C 163.600 220.530,157.299 220.483,157.016 220.026 C 156.889 219.821,157.779 218.194,158.993 216.411 C 160.207 214.628,161.200 213.079,161.200 212.968 C 161.200 212.858,161.536 212.280,161.946 211.684 C 163.563 209.335,166.205 205.194,167.261 203.352 C 167.624 202.719,168.884 200.723,170.061 198.918 C 171.237 197.112,172.920 194.441,173.800 192.982 C 175.401 190.327,176.525 188.524,179.149 184.400 C 181.568 180.598,183.741 179.503,185.885 181.005 M258.901 180.634 C 259.030 180.763,258.391 181.978,257.482 183.334 C 256.573 184.690,255.803 185.849,255.772 185.909 C 255.741 185.969,248.715 186.059,240.158 186.109 L 224.600 186.200 222.551 187.281 C 214.233 191.669,212.589 204.135,219.421 211.017 C 223.211 214.836,222.997 214.800,241.788 214.800 C 260.326 214.800,259.949 214.670,255.242 219.431 L 254.283 220.400 240.474 220.400 C 221.488 220.400,218.568 219.717,214.150 214.244 C 204.432 202.208,209.898 183.951,224.200 180.676 C 225.396 180.402,258.629 180.362,258.901 180.634 M271.471 196.872 C 271.519 207.882,271.685 213.412,271.985 213.972 C 272.420 214.784,272.686 214.800,285.827 214.800 C 300.706 214.800,300.576 214.774,298.635 217.318 C 298.066 218.065,297.600 218.855,297.600 219.074 C 297.600 220.557,266.807 221.238,266.243 219.767 C 265.900 218.873,265.939 180.994,266.284 180.650 C 266.440 180.494,267.655 180.419,268.984 180.483 L 271.400 180.600 271.471 196.872 M351.379 180.766 C 351.503 180.967,351.458 181.192,351.279 181.266 C 351.100 181.340,350.365 182.435,349.647 183.700 C 348.872 185.065,348.069 186.000,347.671 186.001 C 347.302 186.001,340.250 186.046,332.000 186.101 L 317.000 186.200 314.975 187.269 C 311.443 189.133,308.224 193.522,308.477 196.129 L 308.600 197.400 327.579 197.504 C 347.357 197.612,348.061 197.678,346.479 199.258 C 346.106 199.631,345.270 200.670,344.623 201.568 L 343.447 203.200 326.352 203.200 C 308.466 203.200,307.458 203.297,308.156 204.946 C 308.262 205.196,308.582 206.120,308.867 207.000 C 309.192 208.003,310.302 209.516,311.843 211.057 C 315.590 214.806,315.557 214.800,334.374 214.800 C 352.773 214.800,352.133 214.578,347.718 219.431 L 346.836 220.400 332.892 220.400 C 325.135 220.400,317.894 220.217,316.573 219.988 C 296.718 216.544,296.739 185.335,316.600 180.680 C 318.149 180.317,351.152 180.398,351.379 180.766 M357.495 180.638 C 357.364 180.770,357.559 181.485,357.928 182.229 C 358.683 183.748,359.813 184.020,360.207 182.777 C 360.351 182.324,360.948 181.765,361.534 181.534 L 362.600 181.113 361.667 180.681 C 360.986 180.365,360.533 180.374,359.986 180.716 C 359.511 181.012,359.148 181.040,358.995 180.792 C 358.726 180.357,357.864 180.269,357.495 180.638 M51.923 186.369 C 50.541 186.647,47.510 188.770,45.886 190.597 C 43.216 193.601,41.915 201.227,43.395 205.200 C 43.764 206.190,44.169 207.450,44.296 208.000 C 44.713 209.806,48.872 213.448,51.335 214.164 C 54.492 215.082,84.617 215.110,87.738 214.198 C 98.784 210.971,99.763 192.874,89.200 187.172 L 87.400 186.200 70.400 186.136 C 61.050 186.101,52.735 186.206,51.923 186.369 M88.850 187.754 C 98.521 192.047,98.392 208.809,88.655 213.231 C 86.685 214.125,54.093 214.410,51.030 213.560 C 43.084 211.353,40.645 197.019,47.042 190.120 C 50.138 186.781,49.881 186.819,69.450 186.809 L 86.700 186.800 88.850 187.754 " stroke="none" fill="#bc8790" fill-rule="evenodd"></path><path id="path3" d="M357.169 180.369 C 354.903 182.635,356.003 186.419,358.904 186.340 C 359.617 186.320,360.380 186.361,360.600 186.431 C 363.250 187.274,364.444 181.741,361.990 179.993 C 360.353 178.827,358.572 178.966,357.169 180.369 M60.327 179.900 C 65.458 179.963,73.738 179.963,78.727 179.900 C 83.717 179.836,79.520 179.784,69.400 179.784 C 59.280 179.784,55.197 179.836,60.327 179.900 M106.880 180.080 C 106.027 180.933,106.207 220.150,107.068 221.011 C 107.956 221.899,113.822 221.727,114.411 220.796 C 114.630 220.449,114.790 213.433,114.794 203.980 C 114.798 191.905,114.923 187.637,115.280 187.280 C 115.601 186.959,115.615 186.800,115.323 186.800 C 114.475 186.800,114.400 188.216,114.400 204.219 C 114.400 222.782,114.784 221.200,110.275 221.200 C 106.521 221.200,106.778 222.801,106.896 200.172 L 107.000 180.236 108.000 179.958 C 108.838 179.725,108.867 179.673,108.180 179.640 C 107.729 179.618,107.144 179.816,106.880 180.080 M118.100 179.900 C 122.885 179.963,130.715 179.963,135.500 179.900 C 140.285 179.836,136.370 179.784,126.800 179.784 C 117.230 179.784,113.315 179.836,118.100 179.900 M184.155 179.978 C 185.656 180.186,186.375 180.546,187.255 181.531 C 187.885 182.236,188.400 182.648,188.400 182.448 C 188.400 181.378,185.531 179.601,183.886 179.653 L 182.200 179.707 184.155 179.978 M232.127 179.900 C 236.707 179.964,244.087 179.964,248.527 179.899 C 252.967 179.835,249.220 179.783,240.200 179.783 C 231.180 179.783,227.547 179.835,232.127 179.900 M258.700 180.012 C 259.804 180.456,259.807 180.570,258.767 182.253 C 258.309 182.994,258.025 183.600,258.135 183.600 C 258.245 183.600,258.712 182.990,259.172 182.245 C 260.129 180.698,259.911 179.588,258.657 179.625 C 257.809 179.650,257.810 179.655,258.700 180.012 M265.280 180.080 C 264.679 180.681,264.594 219.854,265.191 220.800 C 265.515 221.313,267.782 221.417,280.798 221.514 C 297.899 221.642,296.837 221.816,298.820 218.550 C 299.471 217.477,299.598 217.135,299.102 217.788 C 298.606 218.442,297.719 219.477,297.131 220.088 L 296.062 221.200 281.259 221.200 C 268.336 221.200,266.377 221.120,265.829 220.571 C 265.274 220.017,265.200 217.618,265.200 200.233 L 265.200 180.522 266.100 180.088 C 266.694 179.802,266.789 179.645,266.380 179.627 C 266.039 179.612,265.544 179.816,265.280 180.080 M271.200 180.139 C 272.298 180.717,272.621 180.682,272.216 180.027 C 272.071 179.792,271.558 179.603,271.076 179.606 C 270.236 179.612,270.241 179.633,271.200 180.139 M324.527 179.900 C 329.107 179.964,336.487 179.964,340.927 179.899 C 345.367 179.835,341.620 179.783,332.600 179.783 C 323.580 179.783,319.947 179.835,324.527 179.900 M351.100 180.012 C 352.204 180.456,352.207 180.570,351.167 182.253 C 350.709 182.994,350.425 183.600,350.535 183.600 C 350.645 183.600,351.112 182.990,351.572 182.245 C 352.529 180.698,352.311 179.588,351.057 179.625 C 350.209 179.650,350.210 179.655,351.100 180.012 M48.500 180.412 C 47.227 180.924,47.380 181.228,48.700 180.811 C 50.957 180.097,51.024 180.063,50.200 180.057 C 49.760 180.054,48.995 180.213,48.500 180.412 M89.385 180.600 C 90.256 180.910,91.046 181.087,91.140 180.993 C 91.377 180.757,89.298 179.996,88.474 180.018 C 88.103 180.027,88.513 180.289,89.385 180.600 M146.200 181.036 C 147.300 181.618,148.991 182.928,149.957 183.947 L 151.714 185.800 150.398 184.068 C 149.027 182.263,146.913 180.709,145.200 180.247 C 144.650 180.098,145.100 180.453,146.200 181.036 M181.105 180.429 C 180.723 180.652,180.204 181.232,179.953 181.717 C 179.577 182.444,179.717 182.393,180.748 181.425 C 182.327 179.944,182.429 179.658,181.105 180.429 M221.242 180.434 C 219.663 181.066,220.504 181.209,222.215 180.600 C 223.087 180.289,223.440 180.039,223.000 180.043 C 222.560 180.047,221.769 180.223,221.242 180.434 M313.642 180.434 C 312.063 181.066,312.904 181.209,314.615 180.600 C 315.487 180.289,315.840 180.039,315.400 180.043 C 314.960 180.047,314.169 180.223,313.642 180.434 M358.995 180.792 C 359.148 181.040,359.511 181.012,359.986 180.716 C 360.533 180.374,360.986 180.365,361.667 180.681 L 362.600 181.113 361.534 181.534 C 360.948 181.765,360.351 182.324,360.207 182.777 C 359.813 184.020,358.683 183.748,357.928 182.229 C 357.559 181.485,357.364 180.770,357.495 180.638 C 357.864 180.269,358.726 180.357,358.995 180.792 M45.544 182.024 L 44.600 182.847 45.800 182.145 C 47.379 181.220,47.403 181.200,46.911 181.200 C 46.679 181.200,46.064 181.571,45.544 182.024 M91.633 181.328 C 92.269 181.815,94.800 183.136,94.800 182.981 C 94.800 182.713,92.282 181.203,91.833 181.201 C 91.632 181.201,91.542 181.257,91.633 181.328 M217.395 182.556 C 216.298 183.301,214.861 184.516,214.203 185.256 C 213.021 186.582,213.027 186.580,214.603 185.139 C 215.481 184.335,217.090 183.120,218.178 182.439 C 219.266 181.757,219.984 181.200,219.773 181.200 C 219.562 181.200,218.492 181.810,217.395 182.556 M309.748 182.575 C 307.815 183.877,304.000 187.815,304.000 188.508 C 304.000 188.685,304.770 187.878,305.711 186.715 C 306.653 185.552,308.559 183.835,309.948 182.900 C 311.336 181.965,312.319 181.200,312.131 181.200 C 311.943 181.200,310.871 181.819,309.748 182.575 M272.095 197.851 C 272.013 210.944,272.084 213.172,272.595 213.596 C 273.038 213.963,276.596 214.104,286.495 214.145 L 299.800 214.200 299.927 215.307 C 300.077 216.612,300.800 216.375,300.800 215.020 C 300.800 213.622,299.981 213.545,285.908 213.628 C 278.586 213.672,272.987 213.547,272.777 213.337 C 272.571 213.131,272.362 206.298,272.300 197.785 L 272.190 182.600 272.095 197.851 M97.122 185.285 C 98.274 186.542,99.843 188.877,100.608 190.474 C 101.374 192.071,102.000 193.139,102.000 192.847 C 102.000 191.592,99.016 186.794,97.104 184.975 L 95.027 183.000 97.122 185.285 M256.937 185.039 C 256.563 185.611,255.884 186.230,255.428 186.414 C 254.917 186.621,254.829 186.757,255.200 186.769 C 255.530 186.779,255.984 186.656,256.209 186.494 C 256.718 186.128,258.092 184.000,257.818 184.000 C 257.708 184.000,257.312 184.468,256.937 185.039 M349.345 185.186 C 348.960 185.838,348.364 186.457,348.022 186.563 C 347.583 186.698,347.611 186.731,348.119 186.677 C 348.744 186.610,350.834 184.000,350.262 184.000 C 350.143 184.000,349.730 184.534,349.345 185.186 M176.933 186.300 C 176.556 186.905,176.057 187.660,175.824 187.977 C 175.516 188.396,175.525 188.479,175.860 188.278 C 176.346 187.987,178.099 185.200,177.796 185.200 C 177.698 185.200,177.310 185.695,176.933 186.300 M191.617 188.200 C 192.558 189.740,193.590 191.270,193.911 191.600 C 194.231 191.930,193.723 190.940,192.783 189.400 C 191.842 187.860,190.810 186.330,190.489 186.000 C 190.169 185.670,190.677 186.660,191.617 188.200 M151.600 186.231 C 151.600 186.456,151.766 186.811,151.969 187.020 C 152.171 187.229,152.531 188.030,152.767 188.800 L 153.197 190.200 153.004 188.875 C 152.823 187.636,151.600 185.333,151.600 186.231 M50.400 187.628 C 47.465 188.951,43.110 194.731,43.705 196.516 C 43.782 196.745,44.233 195.867,44.708 194.564 C 46.109 190.723,48.953 188.190,53.000 187.181 C 54.097 186.908,54.114 186.879,53.200 186.850 C 52.650 186.832,51.390 187.182,50.400 187.628 M86.200 187.191 C 86.860 187.362,87.760 187.626,88.200 187.778 C 88.731 187.962,88.664 187.849,88.000 187.442 C 87.450 187.104,86.550 186.840,86.000 186.855 C 85.085 186.880,85.102 186.908,86.200 187.191 M142.546 187.402 C 143.996 188.159,144.434 188.151,143.424 187.387 C 142.996 187.064,142.366 186.801,142.024 186.802 C 141.681 186.804,141.916 187.074,142.546 187.402 M223.000 187.755 C 221.900 188.276,220.370 189.399,219.601 190.251 L 218.201 191.800 219.801 190.320 C 221.383 188.855,223.473 187.761,225.800 187.181 C 226.901 186.907,226.917 186.879,226.000 186.845 C 225.450 186.824,224.100 187.234,223.000 187.755 M315.400 187.755 C 314.300 188.276,312.770 189.399,312.001 190.251 L 310.601 191.800 312.201 190.320 C 313.783 188.855,315.873 187.761,318.200 187.181 C 319.301 186.907,319.317 186.879,318.400 186.845 C 317.850 186.824,316.500 187.234,315.400 187.755 M38.555 189.012 C 38.190 189.569,37.964 190.098,38.053 190.187 C 38.142 190.276,38.518 189.820,38.889 189.174 C 39.714 187.736,39.469 187.617,38.555 189.012 M90.382 188.987 C 91.118 189.530,92.226 190.565,92.844 191.287 C 93.462 192.009,93.975 192.460,93.984 192.288 C 94.011 191.757,90.159 188.000,89.586 188.000 C 89.288 188.000,89.647 188.444,90.382 188.987 M145.213 189.254 C 145.206 189.394,145.469 190.024,145.798 190.654 C 146.126 191.284,146.396 191.519,146.398 191.176 C 146.400 190.590,145.240 188.708,145.213 189.254 M210.902 189.700 C 209.713 191.202,208.689 195.563,208.579 199.600 L 208.464 203.800 208.794 199.600 C 209.094 195.779,209.955 192.326,211.179 190.039 C 211.675 189.112,211.519 188.921,210.902 189.700 M303.317 189.700 C 302.742 190.453,301.197 194.975,301.219 195.841 C 301.229 196.258,301.698 195.160,302.261 193.400 C 302.825 191.640,303.468 189.975,303.692 189.700 C 303.915 189.425,304.008 189.200,303.898 189.200 C 303.788 189.200,303.526 189.425,303.317 189.700 M174.300 190.614 C 173.301 191.950,173.431 192.323,174.446 191.033 C 174.911 190.442,175.226 189.895,175.146 189.818 C 175.066 189.741,174.685 190.100,174.300 190.614 M182.948 190.900 C 182.512 191.395,181.702 192.520,181.146 193.400 C 180.590 194.280,179.790 195.533,179.368 196.185 C 178.945 196.836,178.794 197.249,179.032 197.103 C 179.269 196.957,180.151 195.704,180.992 194.319 C 181.832 192.933,182.884 191.395,183.330 190.900 C 183.775 190.405,184.049 190.000,183.939 190.000 C 183.829 190.000,183.383 190.405,182.948 190.900 M184.412 190.140 C 184.393 190.669,186.961 194.776,187.319 194.789 C 187.495 194.795,187.118 194.035,186.483 193.100 C 185.847 192.165,185.124 191.040,184.876 190.600 C 184.627 190.160,184.419 189.953,184.412 190.140 M153.309 192.000 C 153.309 192.990,153.387 193.395,153.482 192.900 C 153.578 192.405,153.578 191.595,153.482 191.100 C 153.387 190.605,153.309 191.010,153.309 192.000 M37.265 191.817 C 36.595 193.288,36.723 193.602,37.447 192.265 C 37.786 191.640,37.988 191.054,37.896 190.963 C 37.805 190.871,37.521 191.256,37.265 191.817 M146.046 193.100 C 146.021 193.595,145.266 194.734,144.370 195.630 C 143.473 196.527,143.106 197.065,143.553 196.825 C 144.793 196.162,146.490 193.730,146.279 192.919 C 146.133 192.355,146.083 192.394,146.046 193.100 M195.246 193.900 C 195.748 194.725,197.079 196.840,198.206 198.600 C 199.332 200.360,200.667 202.484,201.172 203.321 C 201.678 204.158,202.177 204.757,202.281 204.652 C 202.385 204.548,202.115 203.954,201.680 203.331 C 201.245 202.709,200.266 201.210,199.504 200.000 C 195.725 194.001,194.674 192.400,194.512 192.400 C 194.414 192.400,194.745 193.075,195.246 193.900 M94.229 193.400 C 95.172 196.107,95.565 196.930,95.566 196.200 C 95.566 195.760,95.203 194.770,94.759 194.000 C 94.314 193.230,94.076 192.960,94.229 193.400 M309.005 194.785 C 308.201 197.319,307.746 197.263,328.311 197.168 C 348.767 197.073,348.895 197.088,346.967 199.282 C 346.523 199.787,345.657 200.955,345.041 201.877 C 344.313 202.969,343.552 203.617,342.861 203.735 C 341.861 203.905,341.866 203.912,342.954 203.858 C 343.875 203.812,344.461 203.315,345.854 201.400 C 349.603 196.246,350.906 196.616,328.649 196.519 C 308.897 196.433,309.002 196.442,309.375 194.956 C 309.663 193.809,309.359 193.669,309.005 194.785 M152.846 194.913 C 152.754 196.333,150.832 199.468,149.045 201.116 C 148.040 202.042,147.361 202.800,147.535 202.800 C 148.943 202.800,153.458 196.361,153.075 194.898 C 152.905 194.247,152.890 194.248,152.846 194.913 M170.945 195.900 C 169.866 197.663,168.267 200.158,167.869 200.700 C 167.667 200.975,167.608 201.200,167.737 201.200 C 167.929 201.200,170.591 197.291,171.755 195.300 C 172.352 194.279,171.593 194.841,170.945 195.900 M102.600 200.400 C 102.600 203.345,102.714 205.225,102.853 204.577 C 102.992 203.930,103.105 202.050,103.105 200.400 C 103.105 198.750,102.992 196.870,102.853 196.223 C 102.714 195.575,102.600 197.455,102.600 200.400 M187.601 195.313 C 187.601 195.485,188.410 196.855,189.400 198.358 C 190.390 199.861,191.200 201.286,191.200 201.525 C 191.200 201.765,191.444 202.104,191.742 202.280 C 192.039 202.456,192.516 203.050,192.802 203.600 C 193.598 205.136,196.803 210.000,197.020 210.000 C 197.125 210.000,196.761 209.325,196.210 208.500 C 195.659 207.675,194.860 206.370,194.434 205.600 C 193.248 203.458,187.603 194.958,187.601 195.313 M216.003 197.782 C 215.611 199.859,215.611 200.941,216.003 203.018 C 216.622 206.296,216.972 206.161,216.439 202.850 C 216.180 201.239,216.180 199.561,216.439 197.950 C 216.972 194.639,216.622 194.504,216.003 197.782 M36.101 197.000 C 36.105 197.880,36.187 198.193,36.283 197.695 C 36.379 197.198,36.375 196.478,36.275 196.095 C 36.175 195.713,36.096 196.120,36.101 197.000 M95.740 200.400 C 95.740 202.270,95.809 203.035,95.893 202.100 C 95.977 201.165,95.977 199.635,95.893 198.700 C 95.809 197.765,95.740 198.530,95.740 200.400 M120.382 197.822 C 119.952 198.340,119.994 198.561,120.633 199.146 C 121.055 199.532,123.988 202.357,127.151 205.424 C 130.315 208.491,132.665 210.640,132.375 210.200 C 132.084 209.760,129.375 207.060,126.354 204.200 C 123.332 201.340,120.894 198.730,120.935 198.400 C 120.999 197.889,122.616 197.769,131.805 197.590 L 142.600 197.380 131.749 197.290 C 122.349 197.212,120.829 197.283,120.382 197.822 M300.940 200.400 C 300.940 202.270,301.009 203.035,301.093 202.100 C 301.177 201.165,301.177 199.635,301.093 198.700 C 301.009 197.765,300.940 198.530,300.940 200.400 M43.334 200.400 C 43.334 202.050,43.405 202.725,43.491 201.900 C 43.578 201.075,43.578 199.725,43.491 198.900 C 43.405 198.075,43.334 198.750,43.334 200.400 M177.740 198.700 C 175.105 202.278,175.260 202.386,183.067 202.394 C 191.401 202.402,191.355 202.371,188.822 206.269 C 186.837 209.325,187.262 209.200,178.837 209.200 C 171.163 209.200,171.293 209.165,169.781 211.618 C 169.571 211.958,169.912 211.643,170.539 210.918 L 171.678 209.600 178.939 209.572 C 187.237 209.540,187.312 209.523,188.608 207.387 C 191.878 202.001,191.876 202.000,183.147 202.000 C 176.240 202.000,175.993 201.913,177.323 199.947 C 179.060 197.380,179.349 196.516,177.740 198.700 M35.709 200.400 C 35.709 201.390,35.787 201.795,35.882 201.300 C 35.978 200.805,35.978 199.995,35.882 199.500 C 35.787 199.005,35.709 199.410,35.709 200.400 M166.708 202.500 C 165.833 203.849,165.048 205.456,165.487 205.000 C 166.048 204.417,167.698 201.600,167.479 201.600 C 167.376 201.600,167.029 202.005,166.708 202.500 M36.101 203.800 C 36.105 204.680,36.187 204.993,36.283 204.495 C 36.379 203.998,36.375 203.278,36.275 202.895 C 36.175 202.513,36.096 202.920,36.101 203.800 M309.196 204.204 C 308.522 205.017,309.501 207.571,311.401 209.956 C 313.201 212.216,313.231 211.771,311.437 209.421 C 309.894 207.400,308.927 204.913,309.472 204.368 C 309.669 204.171,316.934 203.960,325.615 203.900 L 341.400 203.790 325.549 203.695 C 311.817 203.613,309.631 203.681,309.196 204.204 M43.612 204.400 C 43.612 204.730,43.787 205.270,44.000 205.600 C 44.345 206.133,44.388 206.133,44.388 205.600 C 44.388 205.270,44.213 204.730,44.000 204.400 C 43.655 203.867,43.612 203.867,43.612 204.400 M95.246 204.449 C 95.088 206.671,92.316 210.636,89.600 212.527 C 88.675 213.171,88.670 213.190,89.535 212.779 C 92.201 211.512,95.947 206.250,95.466 204.448 C 95.307 203.851,95.289 203.852,95.246 204.449 M142.500 204.276 C 142.885 204.376,143.515 204.376,143.900 204.276 C 144.285 204.175,143.970 204.093,143.200 204.093 C 142.430 204.093,142.115 204.175,142.500 204.276 M208.854 204.851 C 208.790 206.088,210.294 210.239,211.309 211.629 C 212.011 212.591,212.012 212.588,211.416 211.333 C 210.543 209.497,209.279 205.961,209.080 204.800 L 208.909 203.800 208.854 204.851 M137.609 204.900 C 137.614 205.175,137.985 205.850,138.433 206.400 L 139.248 207.400 138.640 206.151 C 138.306 205.464,138.145 204.789,138.283 204.651 C 138.421 204.513,138.323 204.400,138.067 204.400 C 137.810 204.400,137.604 204.625,137.609 204.900 M301.247 205.000 C 301.221 205.440,301.552 206.700,301.982 207.800 C 302.411 208.900,302.771 209.579,302.781 209.308 C 302.792 209.038,302.541 208.138,302.224 207.308 C 301.907 206.479,301.568 205.440,301.470 205.000 L 301.293 204.200 301.247 205.000 M164.005 206.787 C 163.735 207.439,163.263 208.181,162.957 208.436 C 162.651 208.690,162.400 209.080,162.400 209.303 C 162.400 209.729,163.363 208.551,164.527 206.700 C 164.907 206.095,165.056 205.600,164.858 205.600 C 164.659 205.600,164.276 206.134,164.005 206.787 M141.787 209.516 C 143.101 210.882,144.227 212.000,144.291 212.000 C 144.659 212.000,143.183 210.357,141.429 208.816 C 139.456 207.082,139.466 207.101,141.787 209.516 M217.508 207.800 C 218.028 208.799,220.400 211.800,220.400 211.458 C 220.400 211.235,217.833 207.706,217.302 207.200 C 217.186 207.090,217.279 207.360,217.508 207.800 M36.827 208.000 C 36.826 208.330,37.090 208.949,37.413 209.376 C 38.160 210.364,38.152 209.715,37.400 208.400 C 37.068 207.820,36.828 207.652,36.827 208.000 M44.800 207.884 C 44.800 209.116,49.853 213.600,51.241 213.600 C 51.542 213.600,51.071 213.220,50.194 212.756 C 48.168 211.684,47.359 210.977,45.941 209.040 C 45.314 208.182,44.800 207.662,44.800 207.884 M101.193 209.072 C 100.293 211.407,100.295 211.529,101.207 209.872 C 101.670 209.031,101.988 208.164,101.915 207.944 C 101.841 207.724,101.516 208.231,101.193 209.072 M206.058 211.100 C 207.586 213.570,209.468 216.025,208.588 214.400 C 207.831 213.003,204.756 208.400,204.580 208.400 C 204.474 208.400,205.139 209.615,206.058 211.100 M161.346 211.100 C 160.977 211.705,159.972 213.255,159.115 214.545 C 158.258 215.834,157.619 216.952,157.695 217.028 C 157.844 217.177,160.035 213.977,161.477 211.504 C 162.479 209.784,162.366 209.432,161.346 211.100 M302.815 210.200 C 302.817 210.420,303.186 211.050,303.636 211.600 C 304.179 212.264,304.315 212.331,304.040 211.800 C 303.366 210.495,302.812 209.772,302.815 210.200 M133.200 211.044 C 133.200 211.321,134.073 212.182,140.556 218.300 L 144.053 221.600 148.203 221.600 C 150.696 221.600,152.457 221.431,152.615 221.176 C 152.972 220.598,152.066 218.511,151.336 218.231 C 150.934 218.076,151.009 218.340,151.573 219.056 C 153.098 220.996,152.793 221.200,148.363 221.200 C 143.633 221.200,144.301 221.579,137.700 215.151 C 135.225 212.741,133.200 210.893,133.200 211.044 M198.181 212.165 C 198.579 212.806,199.259 213.931,199.692 214.665 C 200.125 215.399,200.568 216.000,200.678 216.000 C 200.980 216.000,198.784 212.283,198.078 211.600 C 197.634 211.170,197.663 211.331,198.181 212.165 M99.089 213.100 C 97.092 216.045,93.773 218.719,90.600 219.942 C 89.567 220.340,89.544 220.378,90.433 220.212 C 93.096 219.713,97.918 215.878,99.723 212.823 C 100.734 211.111,100.313 211.295,99.089 213.100 M314.000 212.367 C 314.963 213.152,315.600 213.408,315.600 213.010 C 315.600 212.906,315.015 212.535,314.300 212.186 L 313.000 211.552 314.000 212.367 M146.204 213.834 C 148.020 215.603,149.161 216.348,147.800 214.876 C 147.140 214.162,146.242 213.373,145.804 213.123 C 145.356 212.868,145.531 213.179,146.204 213.834 M168.137 214.124 C 166.699 216.296,165.800 217.954,166.578 217.000 C 167.598 215.750,169.253 213.120,169.111 212.977 C 169.040 212.907,168.602 213.423,168.137 214.124 M69.600 213.600 L 51.800 213.813 69.400 213.878 C 79.080 213.914,87.360 213.789,87.800 213.600 C 88.240 213.411,88.330 213.286,88.000 213.322 C 87.670 213.358,79.390 213.483,69.600 213.600 M223.733 213.441 C 223.916 213.638,231.746 213.890,241.133 214.000 L 258.200 214.200 258.335 215.154 C 258.409 215.679,258.128 216.579,257.709 217.154 C 256.447 218.889,256.245 219.478,257.350 218.200 C 261.200 213.747,260.700 213.601,241.624 213.595 C 232.701 213.592,224.950 213.475,224.400 213.335 C 223.817 213.188,223.539 213.232,223.733 213.441 M316.266 213.600 C 316.376 213.710,324.146 213.890,333.533 214.000 L 350.600 214.200 350.730 215.114 C 350.877 216.153,348.392 220.162,347.208 220.796 C 345.728 221.588,319.035 221.300,315.800 220.457 C 312.889 219.699,310.763 218.766,309.407 217.652 C 308.657 217.035,308.644 217.039,309.182 217.731 C 310.003 218.788,312.999 220.197,316.026 220.948 C 319.795 221.884,346.161 221.923,347.486 220.995 C 349.796 219.377,352.051 214.670,350.829 214.016 C 350.108 213.630,315.884 213.218,316.266 213.600 M41.863 215.898 C 44.186 218.131,46.881 219.836,48.627 220.178 L 49.800 220.407 48.600 219.901 C 46.076 218.837,44.081 217.598,41.979 215.790 L 39.800 213.915 41.863 215.898 M214.400 215.800 C 215.146 216.570,215.847 217.200,215.957 217.200 C 216.067 217.200,215.546 216.570,214.800 215.800 C 214.054 215.030,213.353 214.400,213.243 214.400 C 213.133 214.400,213.654 215.030,214.400 215.800 M306.800 215.800 C 307.546 216.570,308.247 217.200,308.357 217.200 C 308.467 217.200,307.946 216.570,307.200 215.800 C 306.454 215.030,305.753 214.400,305.643 214.400 C 305.533 214.400,306.054 215.030,306.800 215.800 M210.360 217.672 C 212.462 220.845,212.231 221.200,208.070 221.200 C 204.192 221.200,203.661 220.920,202.250 218.125 C 201.895 217.424,201.435 216.745,201.226 216.616 C 200.550 216.198,202.749 219.813,203.733 220.737 C 204.596 221.548,205.023 221.622,208.243 221.516 L 211.800 221.400 211.896 220.200 C 211.968 219.306,211.626 218.592,210.556 217.400 L 209.120 215.800 210.360 217.672 M216.780 217.729 C 217.335 218.444,220.061 220.017,220.684 219.982 C 220.858 219.973,220.280 219.591,219.400 219.135 C 218.520 218.678,217.443 218.011,217.007 217.652 C 216.257 217.035,216.245 217.040,216.780 217.729 M156.632 218.365 C 156.223 218.817,155.993 219.593,156.070 220.265 L 156.200 221.400 159.842 221.514 L 163.483 221.628 164.470 220.314 C 165.663 218.725,166.104 218.000,165.878 218.000 C 165.785 218.000,165.205 218.727,164.590 219.615 L 163.471 221.229 160.035 221.115 C 156.271 220.989,155.388 220.182,157.030 218.367 C 157.412 217.945,157.634 217.600,157.524 217.600 C 157.414 217.600,157.013 217.944,156.632 218.365 M255.067 220.418 C 254.006 221.253,226.918 221.456,223.400 220.656 C 222.217 220.387,222.214 220.390,223.200 220.884 C 223.934 221.252,228.207 221.420,239.252 221.515 L 254.305 221.644 255.452 220.634 C 256.829 219.424,256.539 219.261,255.067 220.418 M50.800 220.907 C 52.250 221.622,86.972 221.615,88.400 220.898 C 89.290 220.452,89.202 220.430,87.600 220.698 C 85.283 221.087,53.511 221.094,51.400 220.707 C 49.955 220.441,49.897 220.461,50.800 220.907 " stroke="none" fill="#b26e7a" fill-rule="evenodd"></path><path id="path4" d="M358.600 178.298 C 354.392 179.270,354.199 185.286,358.309 187.367 C 360.768 188.612,365.797 184.633,364.647 182.353 C 363.056 179.197,360.917 177.763,358.600 178.298 M241.400 178.821 C 225.069 179.061,221.482 179.336,220.133 180.456 C 219.211 181.221,219.789 181.245,221.235 180.502 C 223.283 179.449,259.357 179.190,259.755 180.226 C 260.152 181.261,256.836 186.364,255.600 186.620 C 255.050 186.734,248.030 186.867,240.000 186.916 C 227.173 186.994,225.230 187.087,224.000 187.687 C 222.246 188.541,223.316 188.606,225.641 187.785 C 227.094 187.273,229.751 187.179,241.673 187.220 C 249.533 187.248,256.127 187.169,256.327 187.045 C 257.202 186.504,260.400 181.249,260.400 180.351 C 260.400 179.191,259.698 178.364,258.820 178.488 C 258.479 178.536,250.640 178.686,241.400 178.821 M333.600 178.820 C 316.479 179.071,313.456 179.328,312.378 180.627 C 311.759 181.372,311.986 181.350,313.639 180.500 C 315.703 179.438,351.758 179.193,352.159 180.238 C 352.302 180.609,352.140 181.337,351.800 181.856 C 351.460 182.375,351.359 182.800,351.577 182.800 C 352.143 182.800,352.800 181.425,352.800 180.240 C 352.800 179.297,351.713 178.279,350.926 178.486 C 350.747 178.533,342.950 178.684,333.600 178.820 M50.400 179.480 C 48.750 179.801,47.130 180.298,46.800 180.585 C 46.470 180.871,45.795 181.229,45.300 181.380 C 44.805 181.530,44.400 181.827,44.400 182.040 C 44.400 182.252,44.085 182.544,43.700 182.688 C 42.903 182.988,39.600 186.263,39.600 186.753 C 39.600 186.931,39.256 187.387,38.836 187.767 C 38.416 188.148,37.957 188.917,37.816 189.478 C 37.676 190.038,37.299 190.758,36.980 191.077 C 36.661 191.396,36.407 192.139,36.416 192.729 C 36.429 193.569,36.651 193.292,37.446 191.444 C 39.547 186.557,42.918 183.097,47.909 180.706 C 49.794 179.803,49.860 179.800,69.400 179.800 L 89.000 179.800 91.627 181.053 C 106.369 188.087,107.094 211.679,92.800 219.237 C 91.590 219.876,90.838 220.400,91.129 220.400 C 92.185 220.400,95.450 218.180,97.600 216.000 C 104.678 208.823,105.635 196.289,99.785 187.408 C 98.675 185.723,95.823 182.800,95.288 182.800 C 95.042 182.800,94.696 182.575,94.520 182.300 C 93.917 181.357,90.893 180.030,87.947 179.415 C 83.817 178.554,54.899 178.603,50.400 179.480 M106.629 179.429 C 105.674 180.383,105.674 220.417,106.629 221.371 C 107.095 221.838,108.081 222.000,110.455 222.000 C 115.686 222.000,115.200 223.760,115.200 204.819 C 115.200 195.824,115.309 188.181,115.443 187.833 C 115.849 186.775,140.429 186.894,142.821 187.965 C 146.311 189.527,146.494 194.236,143.136 196.074 C 141.922 196.738,140.798 196.797,130.800 196.719 L 119.800 196.634 119.676 197.690 C 119.585 198.461,119.910 199.089,120.876 200.013 C 121.604 200.710,124.810 203.770,128.000 206.813 C 131.190 209.857,135.960 214.437,138.600 216.991 C 144.049 222.263,143.650 222.073,149.000 221.917 L 153.000 221.800 153.129 220.674 C 153.239 219.712,152.772 219.088,149.929 216.403 C 148.098 214.673,145.081 211.805,143.225 210.029 C 141.369 208.253,139.704 206.800,139.525 206.800 C 139.346 206.800,139.200 206.355,139.200 205.810 C 139.200 204.928,139.328 204.846,140.377 205.055 C 141.752 205.330,145.389 204.568,146.735 203.723 C 148.213 202.795,147.523 202.740,145.702 203.641 C 144.538 204.218,143.243 204.463,141.324 204.472 C 137.325 204.491,137.239 205.075,140.773 208.252 C 141.785 209.161,144.578 211.817,146.980 214.153 C 149.382 216.489,151.472 218.400,151.625 218.400 C 152.076 218.400,152.901 220.713,152.615 221.176 C 152.457 221.431,150.696 221.600,148.203 221.600 L 144.053 221.600 140.540 218.300 C 138.607 216.485,133.870 211.925,130.013 208.166 C 126.156 204.407,122.287 200.692,121.414 199.910 C 118.551 197.342,119.099 197.200,131.849 197.200 L 142.800 197.200 144.342 195.658 C 147.124 192.876,146.518 189.203,143.015 187.607 C 140.864 186.627,116.224 186.336,115.280 187.280 C 114.923 187.637,114.798 191.905,114.794 203.980 C 114.790 213.433,114.630 220.449,114.411 220.796 C 113.822 221.727,107.956 221.899,107.068 221.011 C 106.141 220.084,106.033 180.802,106.955 180.037 C 107.360 179.701,112.508 179.607,126.055 179.688 L 144.600 179.800 146.400 180.737 C 149.498 182.350,152.429 185.962,153.159 189.067 C 153.496 190.498,153.522 190.520,153.554 189.400 C 153.573 188.740,153.329 187.750,153.011 187.200 C 152.694 186.650,152.262 185.824,152.052 185.365 C 151.184 183.470,146.892 180.157,144.412 179.467 C 140.896 178.490,107.602 178.456,106.629 179.429 M182.107 179.522 C 180.257 180.262,176.673 185.146,173.535 191.200 C 173.250 191.750,172.788 192.344,172.508 192.520 C 172.229 192.696,172.000 193.064,172.000 193.339 C 172.000 193.613,171.728 194.189,171.395 194.619 C 170.184 196.184,168.306 199.239,168.460 199.393 C 168.547 199.480,168.991 198.977,169.447 198.276 C 169.904 197.574,170.980 195.920,171.838 194.600 C 173.778 191.618,174.018 191.230,174.955 189.552 C 180.263 180.046,183.451 177.738,186.986 180.841 C 187.764 181.524,188.400 181.916,188.400 181.711 C 188.400 180.923,185.137 178.740,184.081 178.822 C 183.927 178.834,183.038 179.149,182.107 179.522 M265.100 179.232 C 264.448 179.612,264.400 181.052,264.400 200.430 L 264.400 221.220 265.426 221.610 C 266.027 221.838,272.676 222.000,281.457 222.000 L 296.462 222.000 297.531 220.884 C 298.119 220.271,298.870 219.350,299.200 218.838 C 299.530 218.326,300.086 217.523,300.436 217.054 C 303.195 213.353,302.519 213.164,286.657 213.216 L 273.000 213.261 272.896 196.566 C 272.824 185.053,272.653 179.705,272.347 179.336 C 271.810 178.689,266.170 178.609,265.100 179.232 M361.990 179.993 C 364.444 181.741,363.250 187.274,360.600 186.431 C 360.380 186.361,359.617 186.320,358.904 186.340 C 356.003 186.419,354.903 182.635,357.169 180.369 C 358.572 178.966,360.353 178.827,361.990 179.993 M272.305 196.385 C 272.364 205.768,272.569 213.129,272.776 213.336 C 272.987 213.547,278.577 213.672,285.908 213.628 C 299.525 213.548,300.800 213.651,300.800 214.830 C 300.800 215.754,297.879 220.329,296.812 221.076 C 295.599 221.926,265.738 221.665,265.191 220.800 C 264.581 219.834,264.680 180.680,265.295 180.065 C 265.626 179.734,266.844 179.608,268.995 179.685 L 272.200 179.800 272.305 196.385 M216.931 182.346 C 215.060 183.614,212.529 186.173,211.936 187.395 C 211.721 187.838,212.396 187.240,213.436 186.068 C 214.477 184.895,216.242 183.320,217.359 182.568 C 218.476 181.815,219.212 181.203,218.995 181.207 C 218.778 181.211,217.849 181.724,216.931 182.346 M309.499 182.114 C 306.893 184.210,305.610 185.542,304.055 187.766 C 303.145 189.068,302.394 190.328,302.386 190.566 C 302.379 190.805,302.025 191.720,301.600 192.600 C 301.175 193.480,300.848 194.920,300.874 195.800 C 300.912 197.121,300.949 197.191,301.086 196.200 C 301.318 194.525,302.825 190.328,303.466 189.569 C 303.760 189.221,304.000 188.768,304.000 188.562 C 304.000 187.824,307.743 183.925,309.748 182.575 C 310.871 181.819,311.522 181.206,311.195 181.214 C 310.868 181.222,310.104 181.627,309.499 182.114 M188.400 182.489 C 188.400 182.606,189.525 184.427,190.900 186.535 C 193.275 190.177,196.463 195.164,199.506 200.000 C 200.267 201.210,201.229 202.688,201.645 203.284 C 202.060 203.880,202.400 204.471,202.400 204.598 C 202.400 205.019,207.361 212.372,207.531 212.203 C 207.623 212.111,206.641 210.454,205.349 208.521 C 202.657 204.492,202.508 204.256,201.327 202.154 C 200.847 201.299,199.813 199.610,199.030 198.400 C 197.509 196.048,197.358 195.818,195.807 193.482 C 195.253 192.647,194.800 191.890,194.800 191.800 C 194.800 191.710,194.347 190.953,193.793 190.118 C 193.239 189.283,192.612 188.330,192.400 188.000 C 192.188 187.670,191.561 186.717,191.007 185.882 C 190.453 185.047,190.000 184.220,190.000 184.044 C 190.000 183.868,189.640 183.398,189.200 183.000 C 188.760 182.602,188.400 182.372,188.400 182.489 M349.832 184.982 C 348.983 186.430,348.546 186.800,347.683 186.799 C 327.087 186.784,317.706 187.050,316.400 187.687 C 314.651 188.539,315.267 188.586,317.836 187.797 C 319.442 187.304,322.406 187.200,334.082 187.232 C 341.936 187.253,348.521 187.172,348.715 187.053 C 349.325 186.676,351.329 183.595,351.108 183.375 C 350.992 183.259,350.418 183.982,349.832 184.982 M53.000 187.171 C 49.718 188.018,46.726 190.189,45.525 192.595 C 45.304 193.038,46.085 192.350,47.261 191.068 C 50.663 187.358,51.571 187.200,69.496 187.200 C 89.351 187.200,91.698 187.902,94.194 194.594 C 94.603 195.690,95.001 196.397,95.078 196.166 C 95.655 194.436,91.583 189.324,88.477 187.878 C 86.506 186.960,56.160 186.355,53.000 187.171 M210.908 188.890 C 210.039 189.981,208.749 193.484,208.585 195.199 L 208.412 197.000 208.816 195.400 C 209.449 192.892,210.480 190.266,211.132 189.498 C 211.460 189.111,211.635 188.702,211.521 188.588 C 211.407 188.474,211.131 188.610,210.908 188.890 M220.566 189.683 C 214.907 194.652,214.690 204.280,220.090 210.817 C 220.855 211.742,223.536 213.288,224.068 213.111 C 224.325 213.025,223.829 212.627,222.967 212.226 C 215.715 208.854,214.467 196.121,220.799 190.108 C 222.893 188.120,222.716 187.796,220.566 189.683 M312.800 189.847 C 310.604 191.831,308.874 194.985,309.469 195.922 C 309.732 196.337,313.637 196.459,328.556 196.522 C 350.920 196.615,349.607 196.245,345.851 201.400 L 344.102 203.800 326.756 204.000 C 311.720 204.173,309.405 204.280,309.367 204.800 C 309.342 205.145,309.394 205.188,309.491 204.900 C 309.622 204.510,313.478 204.400,326.975 204.400 L 344.291 204.400 345.426 202.700 C 346.049 201.765,346.888 200.624,347.289 200.164 C 348.302 199.004,348.836 196.996,348.280 196.440 C 347.972 196.132,342.165 196.000,328.944 196.000 C 317.093 196.000,309.957 195.854,309.806 195.610 C 309.411 194.971,311.270 191.965,313.199 190.120 C 315.378 188.037,315.051 187.814,312.800 189.847 M183.206 191.083 C 181.332 193.452,176.436 201.335,176.636 201.659 C 177.020 202.280,177.528 202.012,177.339 201.288 C 177.237 200.897,177.518 200.156,177.965 199.641 C 178.411 199.126,178.884 198.366,179.015 197.952 C 179.146 197.539,179.410 197.200,179.600 197.200 C 179.790 197.200,180.054 196.861,180.185 196.448 C 180.316 196.034,180.733 195.320,181.112 194.861 C 181.490 194.402,182.241 193.300,182.780 192.413 C 184.010 190.389,183.905 190.360,185.730 193.250 C 186.571 194.583,187.376 195.557,187.518 195.415 C 187.660 195.273,187.592 195.031,187.366 194.878 C 187.141 194.725,186.311 193.557,185.522 192.283 L 184.089 189.967 183.206 191.083 M44.297 195.545 C 43.344 198.227,43.395 202.766,44.410 205.600 C 45.247 207.939,45.212 206.726,44.343 203.339 C 43.881 201.536,44.040 198.816,44.768 196.044 C 45.425 193.542,45.122 193.221,44.297 195.545 M153.200 194.706 C 153.200 196.248,151.672 198.942,149.611 201.033 C 148.654 202.005,148.050 202.800,148.270 202.800 C 148.696 202.800,150.815 200.525,152.307 198.466 C 153.151 197.301,154.024 193.600,153.454 193.600 C 153.314 193.600,153.200 194.098,153.200 194.706 M35.696 195.716 C 34.921 198.495,34.740 200.896,35.160 202.800 C 36.558 209.127,36.937 210.173,38.996 213.400 C 39.975 214.934,44.031 218.800,44.662 218.800 C 44.927 218.800,45.386 219.043,45.682 219.340 C 45.979 219.636,46.937 220.110,47.811 220.392 C 48.685 220.674,49.653 221.106,49.961 221.352 C 50.863 222.072,87.391 221.973,89.113 221.246 C 91.067 220.422,90.426 220.299,87.773 220.990 C 83.741 222.041,54.797 221.874,50.606 220.776 C 40.366 218.094,34.393 208.474,35.992 197.240 C 36.477 193.840,36.371 193.295,35.696 195.716 M187.609 196.224 C 187.597 196.802,188.685 198.248,188.940 197.993 C 189.053 197.880,188.802 197.341,188.382 196.794 C 187.961 196.247,187.614 195.991,187.609 196.224 M95.344 200.400 C 95.344 202.490,95.412 203.345,95.494 202.300 C 95.576 201.255,95.576 199.545,95.494 198.500 C 95.412 197.455,95.344 198.310,95.344 200.400 M208.061 199.800 C 207.962 204.849,208.780 208.014,211.448 212.909 C 212.200 214.289,216.733 218.805,217.347 218.786 C 217.596 218.778,216.934 218.031,215.876 217.124 C 211.277 213.185,208.917 208.186,208.427 201.348 C 208.155 197.550,208.109 197.354,208.061 199.800 M300.534 200.400 C 300.534 202.050,300.605 202.725,300.691 201.900 C 300.778 201.075,300.778 199.725,300.691 198.900 C 300.605 198.075,300.534 198.750,300.534 200.400 M189.203 198.622 C 189.204 198.830,189.563 199.540,190.000 200.200 C 190.437 200.860,190.796 201.490,190.798 201.600 C 190.800 201.710,187.966 201.784,184.501 201.764 L 178.200 201.728 184.082 201.964 C 191.829 202.275,191.761 202.193,188.608 207.387 C 187.312 209.523,187.237 209.540,178.934 209.572 L 171.667 209.600 170.534 211.102 C 169.295 212.742,168.813 213.485,167.616 215.600 C 167.180 216.370,166.125 217.990,165.272 219.200 L 163.721 221.400 159.961 221.400 L 156.200 221.400 156.081 220.180 C 155.999 219.348,156.222 218.723,156.781 218.218 C 157.231 217.810,157.600 217.322,157.600 217.134 C 157.600 216.946,158.209 215.926,158.953 214.867 C 159.697 213.808,160.603 212.415,160.965 211.771 C 161.328 211.127,161.973 210.060,162.400 209.400 C 162.827 208.740,163.476 207.660,163.844 207.000 C 164.211 206.340,164.630 205.710,164.774 205.600 C 165.357 205.154,166.746 202.400,166.387 202.400 C 166.174 202.400,166.000 202.555,166.000 202.745 C 166.000 202.935,165.104 204.420,164.009 206.045 C 162.915 207.670,162.015 209.206,162.009 209.457 C 162.004 209.709,161.730 210.018,161.400 210.145 C 161.070 210.271,160.799 210.606,160.798 210.887 C 160.796 211.169,159.987 212.570,159.000 214.000 C 158.013 215.430,157.204 216.735,157.202 216.900 C 157.201 217.065,156.840 217.560,156.400 218.000 C 155.414 218.986,155.306 221.402,156.233 221.757 C 159.882 223.158,165.339 221.457,166.248 218.636 C 166.384 218.216,167.193 216.866,168.047 215.636 C 168.900 214.406,169.599 213.175,169.599 212.900 C 169.600 212.625,169.784 212.400,170.010 212.400 C 170.235 212.400,170.591 211.950,170.800 211.400 C 171.233 210.260,170.667 210.327,179.273 210.398 C 186.886 210.460,187.186 210.344,189.630 206.386 C 190.604 204.810,191.620 203.286,191.890 202.999 C 192.278 202.586,192.257 202.431,191.790 202.251 C 191.465 202.127,191.200 201.784,191.200 201.490 C 191.200 201.196,190.750 200.345,190.200 199.600 C 189.650 198.855,189.201 198.415,189.203 198.622 M167.326 200.700 C 167.189 201.085,167.004 201.535,166.915 201.700 C 166.513 202.444,167.175 201.898,167.763 201.000 C 168.126 200.447,168.230 200.000,167.997 200.000 C 167.765 200.000,167.463 200.315,167.326 200.700 M192.400 203.315 C 192.400 203.885,193.355 205.600,193.673 205.600 C 193.863 205.600,193.709 205.105,193.330 204.500 C 192.432 203.064,192.400 203.023,192.400 203.315 M300.850 204.940 C 300.823 205.786,301.094 207.098,301.452 207.854 C 302.229 209.490,302.626 209.411,301.952 207.755 C 301.694 207.120,301.351 205.880,301.191 205.000 L 300.900 203.400 300.850 204.940 M94.130 206.390 C 93.302 208.732,91.329 210.891,88.763 212.264 L 87.012 213.200 69.488 213.200 L 51.963 213.200 50.125 212.221 C 49.114 211.683,47.565 210.468,46.683 209.521 C 45.636 208.398,45.365 208.217,45.900 209.000 C 49.101 213.676,48.959 213.650,70.052 213.516 L 88.200 213.400 90.031 212.128 C 92.579 210.358,95.910 205.377,95.092 204.559 C 94.964 204.431,94.531 205.255,94.130 206.390 M194.000 206.205 C 194.000 206.377,194.675 207.526,195.500 208.759 C 197.205 211.306,197.449 211.693,198.711 213.846 C 199.212 214.701,199.972 215.940,200.400 216.600 C 200.828 217.260,201.545 218.472,201.994 219.294 C 203.308 221.700,204.166 222.048,208.454 221.916 L 212.200 221.800 212.329 220.456 C 212.412 219.580,212.201 218.815,211.721 218.256 C 210.561 216.906,209.200 214.866,209.200 214.478 C 209.200 214.283,208.820 213.781,208.356 213.362 C 207.187 212.307,208.734 215.042,210.696 217.500 C 211.652 218.697,212.016 219.525,211.927 220.300 L 211.800 221.400 208.152 221.514 L 204.504 221.629 203.415 220.314 C 202.817 219.591,201.239 217.200,199.909 215.000 C 196.051 208.619,194.000 205.565,194.000 206.205 M309.612 206.222 C 309.600 206.632,311.429 209.571,312.478 210.825 C 313.163 211.645,316.329 213.405,316.611 213.122 C 316.732 213.002,316.059 212.536,315.115 212.088 C 313.311 211.232,312.166 210.047,310.582 207.400 C 310.056 206.520,309.619 205.990,309.612 206.222 M302.432 210.046 C 302.414 210.401,302.760 211.150,303.200 211.709 C 303.640 212.269,304.000 212.906,304.000 213.126 C 304.000 213.694,309.179 218.803,309.737 218.786 C 309.992 218.778,309.334 218.031,308.276 217.124 C 306.500 215.603,303.206 211.405,302.685 210.000 C 302.498 209.495,302.458 209.503,302.432 210.046 M241.400 213.591 C 250.640 213.706,258.412 213.937,258.671 214.105 C 259.662 214.749,256.682 220.193,254.782 221.210 C 254.348 221.442,248.408 221.600,240.110 221.600 C 225.366 221.600,223.910 221.456,219.625 219.567 C 218.358 219.008,217.983 218.943,218.400 219.355 C 219.078 220.025,221.812 221.090,224.200 221.614 C 227.762 222.396,254.589 222.077,255.552 221.242 C 256.558 220.369,259.384 216.112,259.775 214.880 C 260.282 213.281,259.299 213.195,241.526 213.291 L 224.600 213.383 241.400 213.591 M333.800 213.591 C 343.040 213.706,350.812 213.937,351.071 214.105 C 352.034 214.731,349.514 219.575,347.486 220.995 C 346.216 221.884,319.676 221.889,316.265 221.000 C 313.366 220.245,313.104 220.263,314.600 221.116 C 316.062 221.950,346.096 222.405,347.570 221.616 C 348.404 221.170,351.716 216.325,352.174 214.882 C 352.682 213.281,351.704 213.195,333.926 213.291 L 317.000 213.383 333.800 213.591 M311.144 219.580 C 311.664 220.031,312.369 220.400,312.711 220.400 C 313.494 220.400,313.338 220.264,311.600 219.431 L 310.200 218.760 311.144 219.580 " stroke="none" fill="#a53d52" fill-rule="evenodd"></path></g></svg>