<svg id="svg" version="1.1" xmlns="http://www.w3.org/2000/svg" xmlns:xlink="http://www.w3.org/1999/xlink" width="400" height="400" viewBox="0, 0, 400,400"><g id="svgg"><path id="path0" d="M263.198 155.063 C 263.197 169.570,262.846 173.152,260.884 178.696 C 257.689 187.725,248.936 196.672,240.000 200.044 C 234.467 202.132,234.867 202.109,199.800 202.366 L 167.000 202.606 164.400 203.552 C 154.587 207.122,147.253 215.397,145.390 225.000 C 144.856 227.755,144.786 232.404,144.890 258.400 L 145.010 288.600 145.932 291.152 C 157.910 324.325,244.566 324.166,254.826 290.952 C 255.771 287.895,255.800 287.419,255.800 275.200 L 255.800 262.600 228.100 262.497 L 200.400 262.395 200.400 258.809 L 200.400 255.223 244.900 255.112 L 289.400 255.000 292.000 254.114 C 302.492 250.540,310.134 237.522,314.658 215.515 C 318.441 197.110,313.111 165.072,304.190 152.600 C 297.908 143.818,293.915 142.324,276.100 142.093 L 263.200 141.925 263.198 155.063 M16.381 243.896 C 16.127 244.591,11.200 245.089,11.200 244.419 C 11.200 244.020,7.428 244.135,6.930 244.549 C 6.470 244.931,11.518 262.229,14.122 269.200 C 58.367 387.604,199.896 435.269,307.157 367.888 C 340.539 346.917,370.927 311.067,384.197 277.000 C 384.796 275.460,385.694 273.300,386.192 272.200 C 386.689 271.100,387.752 268.130,388.553 265.600 C 389.354 263.070,390.174 260.708,390.376 260.351 C 390.670 259.831,392.744 251.904,394.156 245.900 C 394.386 244.923,394.303 244.800,393.408 244.800 C 392.773 244.800,392.400 244.575,392.400 244.192 C 392.400 243.541,390.336 243.780,390.067 244.462 C 389.786 245.173,386.800 244.843,386.794 244.100 C 386.789 243.588,386.701 243.537,386.464 243.911 C 385.996 244.647,382.009 245.062,381.610 244.416 C 381.386 244.054,380.725 243.990,379.276 244.189 C 376.920 244.514,377.193 244.023,374.590 252.600 C 368.903 271.337,360.444 288.174,347.575 306.371 C 306.718 364.142,231.019 392.361,159.855 376.348 C 96.308 362.050,43.763 312.356,25.834 249.600 C 24.536 245.057,24.504 244.998,23.260 244.875 C 22.567 244.806,22.000 244.522,22.000 244.244 C 22.000 243.910,21.593 243.798,20.800 243.915 C 20.140 244.012,19.600 244.250,19.600 244.445 C 19.600 245.162,16.866 244.835,16.710 244.100 C 16.618 243.664,16.494 243.587,16.381 243.896 M235.336 277.250 C 242.343 279.077,244.309 289.895,238.593 295.164 C 229.549 303.500,216.290 291.467,223.179 281.176 C 225.873 277.151,229.933 275.840,235.336 277.250 " stroke="none" fill="#ecd357" fill-rule="evenodd"></path><path id="path1" d="M184.578 0.434 C 178.777 0.853,167.781 2.220,164.000 2.992 C 159.975 3.814,160.247 3.753,153.200 5.388 C 149.790 6.179,146.505 6.932,145.900 7.063 C 145.295 7.193,144.800 7.477,144.800 7.693 C 144.800 7.909,144.499 7.970,144.132 7.829 C 143.765 7.688,143.360 7.717,143.232 7.893 C 143.104 8.068,141.020 8.807,138.600 9.535 C 136.180 10.262,133.683 11.112,133.051 11.422 C 132.420 11.733,131.760 11.899,131.586 11.791 C 131.411 11.683,131.208 11.740,131.134 11.917 C 131.060 12.094,129.560 12.756,127.800 13.389 C 126.040 14.021,123.430 15.110,122.000 15.808 C 120.570 16.506,118.320 17.499,117.000 18.014 C 115.680 18.529,114.506 19.086,114.391 19.252 C 114.276 19.417,112.656 20.264,110.791 21.133 C 108.926 22.003,105.870 23.599,104.000 24.680 C 102.130 25.762,99.995 26.996,99.256 27.423 C 96.887 28.792,89.447 33.526,88.000 34.586 C 81.815 39.113,76.669 42.999,74.921 44.461 C 73.777 45.417,71.527 47.278,69.921 48.596 C 65.868 51.920,55.433 62.404,50.209 68.400 C 43.545 76.049,43.603 76.252,50.351 68.900 L 53.380 65.600 56.264 65.600 C 57.850 65.600,59.610 65.424,60.174 65.210 C 60.894 64.936,61.200 64.952,61.200 65.264 C 61.200 65.580,62.408 65.628,65.361 65.430 C 68.152 65.244,69.609 65.291,69.785 65.576 C 70.112 66.104,72.173 66.124,73.947 65.615 C 77.142 64.699,76.658 65.967,71.949 70.845 C 69.531 73.350,66.618 76.480,65.476 77.800 C 64.335 79.120,66.370 77.159,70.000 73.442 C 142.125 -0.410,256.896 -0.965,330.200 72.184 C 333.720 75.696,335.612 77.497,334.404 76.185 C 333.196 74.873,330.319 71.865,328.011 69.500 C 324.222 65.618,323.918 65.200,324.883 65.200 C 325.471 65.200,326.073 65.394,326.219 65.631 C 326.478 66.050,330.437 65.871,331.190 65.406 C 331.378 65.290,331.623 65.421,331.735 65.698 C 331.890 66.078,332.042 66.054,332.363 65.600 C 332.651 65.193,332.790 65.161,332.794 65.500 C 332.797 65.790,333.315 66.000,334.024 66.000 C 334.794 66.000,335.149 65.841,334.982 65.570 C 334.795 65.268,335.945 65.223,338.858 65.418 C 341.389 65.587,343.584 65.533,344.500 65.279 C 345.378 65.037,346.000 65.017,346.000 65.232 C 346.000 65.816,347.092 65.659,347.329 65.041 C 347.582 64.383,342.951 59.139,338.948 55.550 C 337.437 54.196,335.480 52.397,334.600 51.554 C 332.426 49.471,328.108 45.730,326.400 44.450 C 323.636 42.377,320.585 39.968,319.800 39.238 C 319.360 38.829,318.190 37.995,317.200 37.385 C 316.210 36.775,315.040 35.941,314.600 35.531 C 313.167 34.198,302.614 27.655,296.600 24.372 C 294.691 23.329,290.531 21.258,288.400 20.289 C 287.850 20.039,287.130 19.638,286.800 19.398 C 286.246 18.994,284.728 18.297,280.600 16.550 C 279.720 16.177,278.910 15.848,278.800 15.819 C 278.690 15.790,278.060 15.482,277.400 15.135 C 276.740 14.788,275.030 14.097,273.600 13.599 C 272.170 13.100,270.280 12.360,269.400 11.953 C 267.430 11.042,259.237 8.400,258.383 8.400 C 258.040 8.400,257.589 8.233,257.380 8.028 C 256.942 7.599,250.570 5.967,245.600 5.011 C 243.730 4.652,241.750 4.187,241.200 3.978 C 233.688 1.131,202.205 -0.840,184.578 0.434 M352.400 70.400 C 352.635 70.840,353.030 71.200,353.276 71.200 C 353.522 71.200,353.398 70.840,353.000 70.400 C 352.602 69.960,352.208 69.600,352.124 69.600 C 352.040 69.600,352.165 69.960,352.400 70.400 M337.600 80.200 C 338.346 80.970,339.047 81.600,339.157 81.600 C 339.267 81.600,338.746 80.970,338.000 80.200 C 337.254 79.430,336.553 78.800,336.443 78.800 C 336.333 78.800,336.854 79.430,337.600 80.200 M188.800 82.650 C 165.818 84.292,152.769 88.957,147.897 97.270 C 145.321 101.666,145.073 103.537,144.899 119.900 L 144.740 134.800 172.570 134.800 L 200.400 134.800 200.400 138.400 L 200.400 142.000 160.700 142.002 C 119.042 142.003,117.265 142.069,112.247 143.796 C 101.762 147.404,94.089 155.095,90.388 165.704 C 80.494 194.075,85.741 235.617,100.869 248.690 C 107.215 254.173,110.335 254.967,125.600 254.986 L 137.400 255.000 137.623 239.800 C 137.954 217.231,140.698 210.210,152.549 201.607 C 161.442 195.152,161.914 195.086,200.800 194.823 L 233.800 194.599 236.400 193.665 C 245.793 190.292,253.218 182.184,254.958 173.400 C 255.828 169.009,256.263 113.814,255.463 109.400 C 252.624 93.745,240.970 85.719,217.400 83.186 C 213.330 82.749,192.805 82.364,188.800 82.650 M173.026 100.356 C 181.701 104.296,181.390 116.677,172.533 119.991 C 164.714 122.916,156.643 115.448,158.971 107.441 C 160.777 101.227,167.491 97.842,173.026 100.356 " stroke="none" fill="#447fab" fill-rule="evenodd"></path><path id="path2" d="M104.524 23.734 C 103.823 24.210,101.826 25.376,100.087 26.324 C 95.364 28.900,81.300 38.160,80.200 39.418 C 79.980 39.670,79.170 40.304,78.400 40.826 C 67.140 48.468,45.308 70.873,37.048 83.262 C 36.264 84.438,34.816 86.570,33.831 88.000 C 32.845 89.430,32.030 90.810,32.020 91.067 C 32.009 91.323,31.837 91.593,31.637 91.667 C 31.225 91.818,26.628 99.245,24.687 102.894 C 20.767 110.267,19.036 113.746,17.770 116.800 C 16.995 118.670,16.125 120.560,15.837 121.000 C 15.549 121.440,14.537 123.960,13.589 126.600 C 12.640 129.240,11.731 131.580,11.568 131.800 C 11.404 132.020,10.548 134.540,9.664 137.400 C 8.781 140.260,7.784 143.360,7.451 144.289 C 7.117 145.218,6.290 148.548,5.614 151.689 C 4.937 154.830,4.130 158.210,3.819 159.200 C 0.476 169.858,-1.072 204.448,0.972 222.800 C 1.763 229.898,3.466 240.554,3.961 241.503 C 4.161 241.886,4.898 244.900,5.599 248.200 C 6.300 251.500,7.136 254.920,7.456 255.800 C 7.777 256.680,8.735 259.674,9.585 262.454 C 10.436 265.233,11.391 268.023,11.707 268.654 C 12.024 269.284,12.779 271.240,13.385 273.000 C 13.992 274.760,14.982 277.190,15.586 278.400 C 16.190 279.610,16.822 281.050,16.991 281.600 C 17.417 282.988,23.230 294.954,23.598 295.200 C 23.762 295.310,24.482 296.570,25.197 298.000 C 26.970 301.546,31.678 308.961,37.400 317.220 C 41.295 322.842,47.170 329.972,53.510 336.771 C 58.570 342.197,58.407 342.035,62.814 346.047 C 70.896 353.406,73.300 355.457,78.944 359.809 C 84.952 364.442,97.249 372.405,102.400 374.997 C 103.610 375.607,104.690 376.244,104.800 376.415 C 105.023 376.758,117.337 382.800,117.815 382.800 C 117.981 382.800,119.395 383.408,120.958 384.152 C 122.521 384.896,125.240 386.002,127.000 386.610 C 128.760 387.219,130.410 387.880,130.666 388.079 C 131.108 388.423,138.938 390.977,145.722 392.989 C 147.440 393.499,150.860 394.310,153.322 394.792 C 155.785 395.274,158.108 395.831,158.485 396.028 C 159.458 396.539,170.213 398.218,178.000 399.074 C 187.446 400.113,212.554 400.113,222.000 399.074 C 229.787 398.218,240.542 396.539,241.515 396.028 C 241.892 395.831,244.215 395.274,246.678 394.792 C 249.140 394.310,252.560 393.498,254.278 392.987 C 261.422 390.861,267.512 388.871,269.200 388.109 C 270.190 387.663,272.170 386.894,273.600 386.401 C 275.030 385.908,277.479 384.896,279.042 384.152 C 280.605 383.408,282.019 382.800,282.185 382.800 C 282.663 382.800,294.977 376.758,295.200 376.415 C 295.310 376.244,296.390 375.607,297.600 374.997 C 301.175 373.198,311.004 367.149,313.600 365.151 C 314.150 364.728,315.590 363.724,316.800 362.921 C 318.010 362.118,319.630 360.958,320.400 360.343 C 321.170 359.728,323.420 357.931,325.400 356.351 C 327.380 354.771,329.921 352.650,331.046 351.639 C 337.375 345.951,341.250 342.291,343.580 339.800 C 345.021 338.260,347.010 336.168,348.000 335.151 C 351.717 331.335,359.359 321.941,362.604 317.200 C 363.583 315.770,364.730 314.150,365.152 313.600 C 365.887 312.643,368.884 308.041,371.535 303.800 C 372.222 302.700,373.531 300.360,374.443 298.600 C 375.355 296.840,376.237 295.310,376.404 295.200 C 376.788 294.947,382.611 282.943,383.001 281.600 C 383.160 281.050,383.651 280.006,384.091 279.279 C 384.531 278.552,384.794 277.861,384.675 277.742 C 384.396 277.462,383.602 279.032,382.040 282.949 C 381.350 284.680,380.458 286.570,380.058 287.149 C 379.658 287.727,379.200 288.560,379.041 289.000 C 378.582 290.274,372.958 300.274,370.607 304.000 C 369.427 305.870,367.797 308.480,366.987 309.800 C 366.176 311.120,365.383 312.290,365.226 312.400 C 365.069 312.510,364.209 313.680,363.316 315.000 C 361.633 317.489,355.990 324.741,353.073 328.164 C 322.496 364.053,281.391 387.702,235.492 395.812 C 197.970 402.442,158.399 398.063,123.400 383.407 C 90.871 369.786,59.326 344.854,39.614 317.184 C 27.391 300.027,18.976 284.189,12.784 266.689 C 11.711 263.658,10.749 261.041,10.645 260.873 C 10.443 260.546,7.598 250.172,6.346 245.200 C 5.931 243.550,5.148 239.680,4.606 236.600 C 4.064 233.520,3.363 229.560,3.050 227.800 C 0.452 213.236,0.747 183.043,3.643 167.200 C 5.318 158.039,6.792 150.851,7.346 149.143 C 7.658 148.185,8.591 144.970,9.421 142.000 C 10.250 139.030,11.082 136.330,11.270 136.000 C 11.457 135.670,12.393 133.150,13.350 130.400 C 14.994 125.672,17.544 119.442,19.652 115.006 C 21.674 110.750,26.530 101.370,27.006 100.800 C 27.281 100.470,27.893 99.433,28.364 98.495 C 30.249 94.747,40.085 80.228,43.369 76.346 C 44.046 75.546,45.590 73.675,46.800 72.188 C 58.070 58.342,74.474 43.405,89.145 33.631 C 93.964 30.420,97.295 28.344,98.147 28.020 C 98.683 27.816,99.243 27.453,99.391 27.214 C 99.539 26.974,101.073 26.068,102.800 25.200 C 104.527 24.332,106.054 23.437,106.193 23.211 C 106.586 22.576,105.927 22.782,104.524 23.734 M90.279 55.738 C 90.165 56.034,89.218 56.843,88.174 57.534 C 82.814 61.085,66.410 77.170,60.141 85.023 C 56.402 89.707,55.182 91.303,52.973 94.400 C -19.564 196.094,30.621 339.215,150.952 373.825 C 270.947 408.339,389.742 312.525,381.596 187.800 C 379.695 158.705,370.169 128.362,355.788 105.600 C 350.106 96.606,343.279 87.157,338.882 82.200 C 330.420 72.662,322.275 64.730,315.200 59.138 C 313.550 57.834,311.772 56.407,311.249 55.968 C 310.726 55.529,310.245 55.222,310.181 55.286 C 309.941 55.525,312.682 58.221,313.721 58.768 C 314.315 59.080,314.800 59.568,314.800 59.854 C 314.800 60.139,315.205 60.580,315.700 60.835 C 316.676 61.337,324.530 69.251,327.047 72.270 C 327.901 73.294,328.915 74.462,329.300 74.866 C 329.685 75.270,330.000 75.707,330.000 75.838 C 330.000 75.969,330.372 76.599,330.827 77.238 C 331.282 77.877,331.545 78.400,331.411 78.400 C 331.278 78.400,331.401 78.650,331.684 78.956 C 332.058 79.358,332.281 79.386,332.494 79.056 C 332.699 78.738,332.790 78.764,332.794 79.142 C 332.797 79.441,333.316 80.341,333.947 81.142 C 334.577 81.944,335.214 82.989,335.362 83.464 C 335.510 83.940,336.059 84.608,336.581 84.951 C 337.103 85.293,337.648 86.107,337.791 86.759 C 337.934 87.411,338.310 88.159,338.626 88.421 C 338.942 88.683,339.200 89.134,339.200 89.422 C 339.200 89.710,339.560 90.060,340.000 90.200 C 340.440 90.340,340.800 90.766,340.800 91.147 C 340.800 91.528,341.025 92.065,341.300 92.340 C 341.575 92.615,341.816 92.966,341.836 93.120 C 341.947 93.979,343.273 96.366,344.111 97.216 C 345.396 98.518,345.850 99.454,346.188 101.498 C 346.343 102.432,346.634 103.297,346.835 103.422 C 347.036 103.546,347.200 103.999,347.200 104.429 C 347.200 105.228,347.945 106.812,348.520 107.236 C 348.696 107.365,349.188 108.985,349.615 110.836 C 350.041 112.686,350.583 114.740,350.818 115.400 C 351.054 116.060,351.321 117.120,351.411 117.755 C 351.502 118.390,351.672 119.005,351.789 119.122 C 351.906 119.239,351.717 119.650,351.369 120.034 C 350.880 120.575,350.834 120.917,351.168 121.540 C 351.779 122.681,351.725 122.800,350.600 122.800 C 350.050 122.800,349.600 122.949,349.600 123.131 C 349.600 123.313,349.060 123.382,348.400 123.285 C 346.872 123.061,346.871 123.650,348.396 124.855 C 350.867 126.806,350.137 127.783,346.115 127.908 C 343.906 127.977,342.523 128.196,342.325 128.508 C 342.106 128.852,342.010 128.790,342.006 128.300 C 342.001 127.751,341.655 127.600,340.400 127.600 C 339.520 127.600,338.800 127.735,338.801 127.900 C 338.801 128.065,337.697 128.138,336.348 128.062 C 334.605 127.964,333.796 128.079,333.553 128.462 C 333.286 128.883,333.211 128.855,333.206 128.332 C 333.199 127.522,325.227 127.310,324.734 128.107 C 324.535 128.429,323.761 128.421,321.886 128.075 C 319.080 127.558,314.386 127.844,313.906 128.561 C 313.725 128.831,313.610 128.731,313.606 128.300 C 313.601 127.751,313.255 127.600,312.000 127.600 C 311.120 127.600,310.400 127.735,310.401 127.900 C 310.401 128.065,309.231 128.140,307.801 128.066 C 306.115 127.979,305.200 128.084,305.200 128.366 C 305.200 128.605,305.020 128.800,304.800 128.800 C 304.580 128.800,304.400 128.542,304.400 128.227 C 304.400 127.774,303.649 127.651,300.800 127.638 C 298.221 127.626,297.198 127.760,297.194 128.110 C 297.190 128.424,297.046 128.384,296.794 128.000 C 296.476 127.515,296.335 127.501,296.061 127.925 C 295.814 128.307,295.242 128.370,293.961 128.154 C 291.577 127.754,285.832 127.933,285.667 128.413 C 285.456 129.025,284.800 128.863,284.800 128.200 C 284.800 127.781,284.378 127.600,283.400 127.600 C 282.630 127.600,282.000 127.735,282.001 127.900 C 282.001 128.065,280.807 128.139,279.347 128.063 C 277.441 127.965,276.596 128.078,276.352 128.463 C 276.088 128.881,276.011 128.850,276.006 128.324 C 275.999 127.500,268.057 127.261,267.557 128.070 C 267.351 128.402,266.658 128.397,264.899 128.051 C 261.360 127.355,256.847 127.848,256.596 128.958 C 256.492 129.421,256.347 139.250,256.276 150.800 C 256.129 174.473,256.215 173.716,252.952 180.045 C 249.141 187.436,243.346 192.059,234.848 194.487 C 231.862 195.340,231.129 195.363,199.000 195.591 L 166.200 195.824 162.780 196.887 C 153.876 199.654,145.615 206.721,141.604 215.000 C 138.136 222.157,138.238 221.466,138.007 239.400 L 137.800 255.400 125.600 255.376 L 113.400 255.351 109.908 254.129 C 95.869 249.217,88.984 236.606,85.379 209.200 C 83.737 196.722,86.401 173.372,90.488 164.408 C 90.942 163.413,91.658 161.796,92.080 160.812 C 95.687 152.406,104.342 145.565,114.874 142.795 L 119.400 141.605 159.700 141.603 L 200.000 141.600 200.000 138.603 L 200.000 135.605 172.300 135.503 L 144.600 135.400 144.485 131.700 C 144.376 128.181,143.757 126.786,143.065 128.500 C 142.944 128.799,142.850 128.718,142.832 128.300 C 142.800 127.592,139.599 127.195,139.601 127.900 C 139.601 128.065,138.407 128.139,136.947 128.063 C 135.041 127.965,134.196 128.078,133.952 128.463 C 133.686 128.884,133.611 128.857,133.606 128.340 C 133.599 127.530,125.647 127.277,125.156 128.071 C 124.952 128.402,124.245 128.395,122.469 128.046 C 119.809 127.522,114.787 127.838,114.306 128.560 C 114.125 128.831,114.010 128.732,114.006 128.300 C 114.001 127.768,113.664 127.600,112.600 127.600 C 111.830 127.600,111.200 127.744,111.200 127.919 C 111.200 128.094,110.009 128.162,108.554 128.069 C 106.601 127.945,105.817 128.045,105.560 128.450 C 105.283 128.888,105.211 128.862,105.206 128.324 C 105.199 127.484,97.256 127.262,96.745 128.089 C 96.524 128.446,95.851 128.438,93.917 128.053 C 91.164 127.506,87.204 127.800,87.194 128.552 C 87.191 128.798,87.011 128.730,86.794 128.400 C 86.444 127.867,86.356 127.867,86.006 128.400 C 85.669 128.914,85.611 128.899,85.606 128.300 C 85.601 127.751,85.255 127.600,84.000 127.600 C 83.120 127.600,82.400 127.735,82.401 127.900 C 82.401 128.065,81.297 128.138,79.948 128.062 C 78.205 127.964,77.396 128.079,77.153 128.462 C 76.887 128.882,76.811 128.852,76.806 128.324 C 76.798 127.478,68.855 127.263,68.341 128.095 C 68.115 128.461,67.494 128.456,65.639 128.072 C 62.986 127.524,57.997 127.823,57.506 128.560 C 57.325 128.831,57.210 128.732,57.206 128.300 C 57.201 127.751,56.855 127.600,55.600 127.600 C 54.720 127.600,54.000 127.755,54.000 127.945 C 54.000 128.134,53.595 128.211,53.100 128.116 C 52.182 127.940,51.556 125.600,52.426 125.600 C 52.643 125.600,52.991 125.150,53.200 124.600 C 53.409 124.050,53.765 123.600,53.990 123.600 C 54.216 123.600,54.400 123.411,54.400 123.180 C 54.400 122.904,53.589 122.852,52.031 123.028 L 49.663 123.296 49.731 121.348 C 49.769 120.277,49.980 119.268,50.200 119.106 C 50.455 118.919,50.434 118.810,50.143 118.806 C 49.284 118.795,49.219 117.588,50.008 116.293 C 50.442 115.582,50.798 114.608,50.799 114.129 C 50.799 113.649,51.113 112.944,51.496 112.561 C 51.997 112.060,52.053 111.818,51.696 111.699 C 51.125 111.508,51.016 110.400,51.568 110.400 C 51.771 110.400,52.055 109.860,52.200 109.200 C 52.345 108.539,52.908 107.163,53.452 106.141 C 53.996 105.118,54.347 104.038,54.233 103.741 C 54.119 103.443,54.185 103.200,54.381 103.200 C 54.576 103.200,54.855 102.660,55.000 102.000 C 55.145 101.340,55.407 100.800,55.582 100.800 C 55.757 100.800,56.012 100.242,56.148 99.560 C 56.284 98.878,56.937 97.637,57.598 96.803 C 58.259 95.968,58.800 94.919,58.800 94.471 C 58.800 94.023,59.077 93.380,59.417 93.040 C 59.756 92.701,60.223 91.878,60.456 91.212 C 60.688 90.545,61.131 90.000,61.439 90.000 C 61.748 90.000,62.000 89.640,62.000 89.200 C 62.000 88.740,62.267 88.400,62.627 88.400 C 63.072 88.400,63.180 88.168,63.000 87.600 C 62.820 87.032,62.928 86.800,63.373 86.800 C 63.718 86.800,64.000 86.544,64.000 86.231 C 64.000 85.918,64.450 85.127,65.000 84.473 C 65.550 83.819,66.000 83.090,66.000 82.851 C 66.000 82.613,66.450 82.124,67.000 81.763 C 67.550 81.403,68.000 80.865,68.000 80.568 C 68.000 80.271,68.360 79.835,68.800 79.600 C 69.240 79.365,69.600 78.903,69.600 78.573 C 69.600 78.244,69.870 77.871,70.200 77.745 C 70.530 77.618,70.800 77.264,70.800 76.957 C 70.800 76.651,70.980 76.400,71.200 76.400 C 71.420 76.400,71.600 76.210,71.600 75.978 C 71.600 75.746,72.139 74.981,72.798 74.278 C 73.457 73.575,73.997 72.787,73.998 72.527 C 73.999 72.267,74.360 71.940,74.800 71.800 C 75.240 71.660,75.600 71.413,75.600 71.250 C 75.600 70.418,82.091 63.572,84.900 61.442 C 85.725 60.817,86.400 60.056,86.400 59.753 C 86.400 59.449,86.656 59.200,86.969 59.200 C 87.570 59.200,90.800 56.111,90.800 55.536 C 90.800 55.023,90.510 55.135,90.279 55.738 M292.206 142.874 C 302.404 146.539,308.106 154.590,312.267 171.200 C 318.496 196.068,317.481 214.822,308.781 235.646 C 304.241 246.511,299.767 251.464,291.891 254.343 L 289.000 255.400 244.900 255.512 L 200.800 255.623 200.800 259.012 L 200.800 262.400 228.645 262.400 L 256.490 262.400 256.290 275.100 C 256.074 288.898,255.974 289.626,253.616 294.567 C 243.659 315.429,194.550 323.216,163.777 308.811 C 154.166 304.312,148.819 299.159,145.903 291.585 L 144.600 288.200 144.600 256.600 L 144.600 225.000 145.750 222.000 C 148.816 213.997,152.933 209.002,159.477 205.342 C 165.271 202.102,163.334 202.260,200.400 201.998 L 233.400 201.764 236.400 200.835 C 247.162 197.504,254.652 191.120,259.260 181.352 C 262.368 174.763,262.472 174.013,262.690 156.676 L 262.880 141.552 276.140 141.708 C 289.108 141.862,289.462 141.887,292.206 142.874 M227.760 277.563 C 219.685 281.229,219.335 292.530,227.172 296.500 C 233.993 299.955,241.909 294.981,241.974 287.200 C 242.034 280.027,234.132 274.669,227.760 277.563 " stroke="none" fill="#212821" fill-rule="evenodd"></path><path id="path3" d="M60.200 65.226 C 59.760 65.401,58.046 65.556,56.390 65.572 L 53.380 65.600 50.253 68.981 C 12.521 109.769,-5.477 171.958,3.619 230.108 C 4.940 238.551,6.127 244.531,7.013 247.200 L 7.610 249.000 7.384 247.400 C 7.259 246.520,7.072 245.509,6.969 245.153 C 6.726 244.322,10.735 243.648,11.223 244.438 C 11.604 245.054,16.032 244.589,16.479 243.887 C 16.692 243.551,16.790 243.617,16.794 244.100 C 16.799 244.632,17.136 244.800,18.200 244.800 C 18.970 244.800,19.600 244.640,19.600 244.445 C 19.600 244.250,20.140 244.012,20.800 243.915 C 21.573 243.801,22.000 243.912,22.000 244.226 C 22.000 244.493,22.642 244.787,23.426 244.879 C 24.706 245.028,24.830 244.961,24.629 244.223 C 8.516 185.020,26.913 117.407,71.748 71.045 C 76.661 65.965,77.178 64.689,73.947 65.615 C 72.167 66.126,70.111 66.104,69.782 65.571 C 69.603 65.280,68.224 65.233,65.516 65.425 C 62.970 65.606,61.421 65.564,61.257 65.309 C 61.109 65.079,60.661 65.044,60.200 65.226 M344.600 65.287 C 343.940 65.484,341.448 65.534,339.062 65.398 C 336.050 65.227,334.803 65.282,334.985 65.576 C 335.148 65.839,334.784 66.000,334.024 66.000 C 333.315 66.000,332.797 65.790,332.794 65.500 C 332.790 65.161,332.651 65.193,332.363 65.600 C 332.042 66.054,331.890 66.078,331.735 65.698 C 331.623 65.421,331.378 65.290,331.190 65.406 C 330.437 65.871,326.478 66.050,326.219 65.631 C 326.073 65.394,325.484 65.200,324.911 65.200 C 323.988 65.200,324.394 65.740,328.443 69.900 C 333.656 75.255,338.484 80.640,341.400 84.353 C 342.500 85.754,343.868 87.462,344.441 88.150 C 347.640 91.993,353.702 101.113,357.901 108.400 C 380.974 148.441,388.047 196.455,377.419 240.892 C 376.136 246.257,375.865 248.455,376.826 245.699 C 377.312 244.304,380.939 243.331,381.610 244.416 C 382.009 245.062,385.996 244.647,386.464 243.911 C 386.701 243.537,386.789 243.588,386.794 244.100 C 386.800 244.843,389.786 245.173,390.067 244.462 C 390.336 243.780,392.400 243.541,392.400 244.192 C 392.400 244.578,392.775 244.800,393.427 244.800 C 394.215 244.800,394.407 244.963,394.254 245.500 C 393.388 248.527,391.627 256.561,391.793 256.726 C 391.907 256.840,392.023 256.813,392.050 256.667 C 392.140 256.189,392.264 255.811,392.534 255.200 C 392.940 254.280,395.600 242.463,395.600 241.579 C 395.600 241.151,395.791 240.800,396.025 240.800 C 396.259 240.800,396.411 240.485,396.364 240.100 C 396.316 239.715,396.391 239.130,396.531 238.800 C 396.872 237.992,398.637 225.409,399.280 219.200 C 400.098 211.310,399.972 186.233,399.074 178.000 C 398.214 170.113,396.516 159.233,396.051 158.631 C 395.868 158.394,395.411 156.580,395.036 154.600 C 394.277 150.589,392.568 143.831,392.002 142.600 C 391.799 142.160,391.163 140.180,390.586 138.200 C 389.382 134.060,388.390 131.176,387.972 130.600 C 387.813 130.380,387.192 128.760,386.592 127.000 C 385.992 125.240,384.975 122.729,384.332 121.420 C 383.688 120.112,382.708 117.906,382.153 116.519 C 381.163 114.044,377.088 105.795,376.460 104.992 C 376.284 104.768,375.434 103.238,374.572 101.592 C 373.037 98.665,371.541 96.214,369.327 93.000 C 368.721 92.120,367.523 90.230,366.665 88.800 C 365.807 87.370,364.901 86.020,364.653 85.800 C 364.404 85.580,363.665 84.590,363.012 83.600 C 362.358 82.610,361.368 81.237,360.812 80.548 C 360.255 79.859,358.810 77.980,357.600 76.372 C 356.390 74.764,354.770 72.807,354.000 72.024 C 353.230 71.241,352.277 70.099,351.882 69.487 C 351.479 68.862,350.970 68.495,350.721 68.649 C 350.456 68.812,350.389 68.742,350.554 68.475 C 350.706 68.228,350.464 67.797,350.016 67.517 C 349.567 67.237,349.200 66.781,349.200 66.504 C 349.200 66.227,349.020 66.000,348.800 66.000 C 348.580 66.000,348.397 66.225,348.394 66.500 C 348.390 66.833,348.258 66.800,348.000 66.400 C 347.787 66.070,347.612 65.620,347.612 65.400 C 347.612 65.180,347.787 65.270,348.000 65.600 C 348.233 65.961,348.390 66.010,348.394 65.724 C 348.402 65.055,347.481 64.558,347.290 65.129 C 347.110 65.669,346.133 65.766,345.933 65.264 C 345.860 65.080,345.260 65.090,344.600 65.287 M262.980 155.600 C 262.980 163.190,263.034 166.295,263.099 162.500 C 263.165 158.705,263.165 152.495,263.099 148.700 C 263.034 144.905,262.980 148.010,262.980 155.600 M301.000 148.800 C 302.083 149.900,303.060 150.800,303.170 150.800 C 303.280 150.800,302.483 149.900,301.400 148.800 C 300.317 147.700,299.340 146.800,299.230 146.800 C 299.120 146.800,299.917 147.700,301.000 148.800 M259.281 181.809 C 258.802 182.794,258.494 183.600,258.597 183.600 C 258.868 183.600,260.484 180.351,260.303 180.170 C 260.219 180.086,259.759 180.824,259.281 181.809 M184.500 202.300 C 192.585 202.360,205.815 202.360,213.900 202.300 C 221.985 202.239,215.370 202.190,199.200 202.190 C 183.030 202.190,176.415 202.239,184.500 202.300 M152.786 210.700 L 150.600 213.000 152.900 210.814 C 155.037 208.782,155.383 208.400,155.086 208.400 C 155.024 208.400,153.989 209.435,152.786 210.700 M144.589 256.800 C 144.589 271.870,144.639 278.035,144.700 270.500 C 144.761 262.965,144.761 250.635,144.700 243.100 C 144.639 235.565,144.589 241.730,144.589 256.800 M24.800 245.779 C 24.800 246.619,26.963 253.925,27.471 254.800 C 27.790 255.350,27.975 255.530,27.883 255.200 C 26.113 248.887,24.800 244.874,24.800 245.779 M375.029 249.829 C 374.881 250.415,374.838 250.972,374.932 251.066 C 375.027 251.160,375.224 250.758,375.371 250.171 C 375.519 249.585,375.562 249.028,375.468 248.934 C 375.373 248.840,375.176 249.242,375.029 249.829 M7.600 249.441 C 7.600 249.851,8.778 254.225,10.049 258.538 C 10.493 260.044,10.940 261.194,11.041 261.092 C 11.142 260.991,10.507 258.341,9.629 255.203 C 8.184 250.042,7.600 248.383,7.600 249.441 M373.424 255.112 C 371.767 260.214,371.847 259.905,372.366 259.200 C 372.887 258.490,374.939 252.005,374.713 251.779 C 374.627 251.694,374.047 253.193,373.424 255.112 M221.300 255.500 C 232.905 255.559,251.895 255.559,263.500 255.500 C 275.105 255.441,265.610 255.393,242.400 255.393 C 219.190 255.393,209.695 255.441,221.300 255.500 M28.416 257.430 C 28.392 258.081,30.226 263.321,30.940 264.640 C 31.897 266.408,31.726 265.776,30.009 261.200 C 29.142 258.890,28.425 257.193,28.416 257.430 M390.296 260.273 C 390.194 260.453,389.723 261.899,389.248 263.487 C 388.773 265.075,388.272 266.695,388.134 267.087 C 387.961 267.577,388.013 267.675,388.302 267.400 C 388.789 266.936,390.906 260.373,390.651 260.118 C 390.557 260.024,390.397 260.094,390.296 260.273 M369.432 266.232 C 368.845 267.698,368.441 268.975,368.536 269.069 C 368.630 269.163,369.175 268.028,369.747 266.547 C 370.320 265.066,370.723 263.790,370.643 263.710 C 370.564 263.631,370.019 264.765,369.432 266.232 M12.400 265.312 C 12.400 265.865,14.904 272.430,15.056 272.277 C 15.147 272.186,14.666 270.607,13.988 268.766 C 12.845 265.667,12.400 264.699,12.400 265.312 M32.800 269.342 C 32.800 269.812,35.138 274.800,35.358 274.800 C 35.473 274.800,35.023 273.589,34.359 272.109 C 33.169 269.456,32.800 268.802,32.800 269.342 M385.471 273.692 C 384.516 275.977,384.276 276.924,384.720 276.650 C 385.184 276.363,386.487 272.754,386.222 272.489 C 386.126 272.392,385.788 272.934,385.471 273.692 M365.478 275.420 C 364.009 278.414,364.145 278.769,365.646 275.860 C 366.310 274.573,366.786 273.453,366.704 273.371 C 366.623 273.289,366.071 274.211,365.478 275.420 M17.234 277.800 C 17.234 278.020,17.578 278.830,18.000 279.600 C 18.422 280.370,18.766 280.820,18.766 280.600 C 18.766 280.380,18.422 279.570,18.000 278.800 C 17.578 278.030,17.234 277.580,17.234 277.800 M36.800 278.147 C 36.800 278.580,38.788 282.400,39.013 282.400 C 39.123 282.400,38.739 281.455,38.159 280.300 C 37.043 278.079,36.800 277.694,36.800 278.147 M382.015 281.898 C 380.885 284.318,380.400 285.600,380.617 285.600 C 380.908 285.600,382.884 281.151,382.682 280.949 C 382.598 280.865,382.298 281.292,382.015 281.898 M361.200 284.000 C 360.751 284.880,360.474 285.600,360.584 285.600 C 360.694 285.600,361.151 284.880,361.600 284.000 C 362.049 283.120,362.326 282.400,362.216 282.400 C 362.106 282.400,361.649 283.120,361.200 284.000 M20.800 285.753 C 20.800 286.182,21.990 288.400,22.221 288.400 C 22.331 288.400,22.123 287.815,21.759 287.100 C 21.017 285.640,20.800 285.336,20.800 285.753 M41.324 287.000 C 41.662 287.660,42.238 288.560,42.604 289.000 C 42.970 289.440,42.865 289.080,42.370 288.200 C 41.280 286.258,40.464 285.322,41.324 287.000 M377.198 291.603 C 376.727 292.527,376.536 293.163,376.773 293.016 C 377.344 292.664,378.515 290.382,378.257 290.124 C 378.147 290.013,377.670 290.679,377.198 291.603 M354.093 296.300 C 353.057 297.796,352.721 298.400,352.923 298.400 C 353.017 298.400,353.570 297.680,354.153 296.800 C 355.336 295.012,355.284 294.579,354.093 296.300 M373.952 297.700 C 373.690 298.195,373.215 299.050,372.896 299.600 C 372.339 300.559,372.343 300.567,372.988 299.800 C 373.786 298.852,374.905 296.800,374.624 296.800 C 374.516 296.800,374.214 297.205,373.952 297.700 M230.700 297.882 C 231.195 297.978,232.005 297.978,232.500 297.882 C 232.995 297.787,232.590 297.709,231.600 297.709 C 230.610 297.709,230.205 297.787,230.700 297.882 M151.800 300.800 C 152.659 301.680,153.452 302.400,153.562 302.400 C 153.672 302.400,153.059 301.680,152.200 300.800 C 151.341 299.920,150.548 299.200,150.438 299.200 C 150.328 299.200,150.941 299.920,151.800 300.800 M349.200 303.600 C 348.730 304.260,348.436 304.800,348.546 304.800 C 348.656 304.800,349.130 304.260,349.600 303.600 C 350.070 302.940,350.364 302.400,350.254 302.400 C 350.144 302.400,349.670 302.940,349.200 303.600 M370.153 304.100 C 368.776 306.436,368.686 306.635,369.387 305.800 C 370.200 304.832,370.900 303.600,370.638 303.600 C 370.533 303.600,370.315 303.825,370.153 304.100 M54.000 306.800 C 54.470 307.460,54.944 308.000,55.054 308.000 C 55.164 308.000,54.870 307.460,54.400 306.800 C 53.930 306.140,53.456 305.600,53.346 305.600 C 53.236 305.600,53.530 306.140,54.000 306.800 M365.600 311.200 C 365.130 311.860,364.836 312.400,364.946 312.400 C 365.056 312.400,365.530 311.860,366.000 311.200 C 366.470 310.540,366.764 310.000,366.654 310.000 C 366.544 310.000,366.070 310.540,365.600 311.200 M195.300 316.276 C 195.685 316.376,196.315 316.376,196.700 316.276 C 197.085 316.175,196.770 316.093,196.000 316.093 C 195.230 316.093,194.915 316.175,195.300 316.276 M203.700 316.276 C 204.085 316.376,204.715 316.376,205.100 316.276 C 205.485 316.175,205.170 316.093,204.400 316.093 C 203.630 316.093,203.315 316.175,203.700 316.276 M66.000 321.400 C 66.746 322.170,67.447 322.800,67.557 322.800 C 67.667 322.800,67.146 322.170,66.400 321.400 C 65.654 320.630,64.953 320.000,64.843 320.000 C 64.733 320.000,65.254 320.630,66.000 321.400 M328.592 328.100 L 325.000 331.800 328.700 328.208 C 332.136 324.872,332.582 324.400,332.292 324.400 C 332.232 324.400,330.567 326.065,328.592 328.100 M72.000 327.800 C 72.746 328.570,73.447 329.200,73.557 329.200 C 73.667 329.200,73.146 328.570,72.400 327.800 C 71.654 327.030,70.953 326.400,70.843 326.400 C 70.733 326.400,71.254 327.030,72.000 327.800 M348.975 332.500 L 347.800 333.800 349.100 332.625 C 349.815 331.979,350.400 331.394,350.400 331.325 C 350.400 331.016,350.070 331.288,348.975 332.500 M78.200 333.600 C 79.059 334.480,79.852 335.200,79.962 335.200 C 80.072 335.200,79.459 334.480,78.600 333.600 C 77.741 332.720,76.948 332.000,76.838 332.000 C 76.728 332.000,77.341 332.720,78.200 333.600 M53.600 334.200 C 54.346 334.970,55.047 335.600,55.157 335.600 C 55.267 335.600,54.746 334.970,54.000 334.200 C 53.254 333.430,52.553 332.800,52.443 332.800 C 52.333 332.800,52.854 333.430,53.600 334.200 M341.191 340.700 L 337.800 344.200 341.300 340.809 C 344.551 337.659,344.982 337.200,344.691 337.200 C 344.631 337.200,343.056 338.775,341.191 340.700 M65.600 346.200 C 66.346 346.970,67.047 347.600,67.157 347.600 C 67.267 347.600,66.746 346.970,66.000 346.200 C 65.254 345.430,64.553 344.800,64.443 344.800 C 64.333 344.800,64.854 345.430,65.600 346.200 " stroke="none" fill="#83a08f" fill-rule="evenodd"></path><path id="path4" d="M192.600 18.023 C 160.012 19.603,130.503 28.932,103.105 46.315 C 100.463 47.992,98.523 49.475,98.667 49.709 C 98.812 49.942,98.731 50.004,98.482 49.851 C 97.881 49.480,91.236 54.252,90.817 55.356 C 90.378 56.510,87.679 59.200,86.960 59.200 C 86.652 59.200,86.400 59.449,86.400 59.753 C 86.400 60.056,85.725 60.817,84.900 61.442 C 82.091 63.572,75.600 70.418,75.600 71.250 C 75.600 71.413,75.240 71.660,74.800 71.800 C 74.360 71.940,73.999 72.267,73.998 72.527 C 73.997 72.787,73.457 73.575,72.798 74.278 C 72.139 74.981,71.600 75.746,71.600 75.978 C 71.600 76.210,71.420 76.400,71.200 76.400 C 70.980 76.400,70.800 76.651,70.800 76.957 C 70.800 77.264,70.530 77.618,70.200 77.745 C 69.870 77.871,69.600 78.244,69.600 78.573 C 69.600 78.903,69.240 79.365,68.800 79.600 C 68.360 79.835,68.000 80.271,68.000 80.568 C 68.000 80.865,67.550 81.403,67.000 81.763 C 66.450 82.124,66.000 82.613,66.000 82.851 C 66.000 83.090,65.550 83.819,65.000 84.473 C 64.450 85.127,64.000 85.918,64.000 86.231 C 64.000 86.544,63.718 86.800,63.373 86.800 C 62.928 86.800,62.820 87.032,63.000 87.600 C 63.180 88.168,63.072 88.400,62.627 88.400 C 62.267 88.400,62.000 88.740,62.000 89.200 C 62.000 89.640,61.748 90.000,61.439 90.000 C 61.131 90.000,60.688 90.545,60.456 91.212 C 60.223 91.878,59.756 92.701,59.417 93.040 C 59.077 93.380,58.800 94.023,58.800 94.471 C 58.800 94.919,58.259 95.968,57.598 96.803 C 56.937 97.637,56.284 98.878,56.148 99.560 C 56.012 100.242,55.757 100.800,55.582 100.800 C 55.407 100.800,55.145 101.340,55.000 102.000 C 54.855 102.660,54.576 103.200,54.381 103.200 C 54.185 103.200,54.119 103.443,54.233 103.741 C 54.347 104.038,53.996 105.118,53.452 106.141 C 52.908 107.163,52.345 108.539,52.200 109.200 C 52.055 109.860,51.771 110.400,51.568 110.400 C 51.016 110.400,51.125 111.508,51.696 111.699 C 52.053 111.818,51.997 112.060,51.496 112.561 C 51.113 112.944,50.799 113.649,50.799 114.129 C 50.798 114.608,50.442 115.582,50.008 116.293 C 49.219 117.588,49.284 118.795,50.143 118.806 C 50.434 118.810,50.455 118.919,50.200 119.106 C 49.980 119.268,49.769 120.277,49.731 121.348 L 49.663 123.296 52.031 123.028 C 53.589 122.852,54.400 122.904,54.400 123.180 C 54.400 123.411,54.216 123.600,53.990 123.600 C 53.765 123.600,53.409 124.050,53.200 124.600 C 52.991 125.150,52.643 125.600,52.426 125.600 C 51.556 125.600,52.182 127.940,53.100 128.116 C 53.595 128.211,54.000 128.134,54.000 127.945 C 54.000 127.755,54.720 127.600,55.600 127.600 C 56.855 127.600,57.201 127.751,57.206 128.300 C 57.210 128.732,57.325 128.831,57.506 128.560 C 57.997 127.823,62.986 127.524,65.639 128.072 C 67.494 128.456,68.115 128.461,68.341 128.095 C 68.855 127.263,76.798 127.478,76.806 128.324 C 76.811 128.852,76.887 128.882,77.153 128.462 C 77.396 128.079,78.205 127.964,79.948 128.062 C 81.297 128.138,82.401 128.065,82.401 127.900 C 82.400 127.735,83.120 127.600,84.000 127.600 C 85.255 127.600,85.601 127.751,85.606 128.300 C 85.611 128.899,85.669 128.914,86.006 128.400 C 86.356 127.867,86.444 127.867,86.794 128.400 C 87.011 128.730,87.191 128.798,87.194 128.552 C 87.204 127.800,91.164 127.506,93.917 128.053 C 95.851 128.438,96.524 128.446,96.745 128.089 C 97.256 127.262,105.199 127.484,105.206 128.324 C 105.211 128.862,105.283 128.888,105.560 128.450 C 105.817 128.045,106.601 127.945,108.554 128.069 C 110.009 128.162,111.200 128.094,111.200 127.919 C 111.200 127.744,111.830 127.600,112.600 127.600 C 113.664 127.600,114.001 127.768,114.006 128.300 C 114.010 128.732,114.125 128.831,114.306 128.560 C 114.787 127.838,119.809 127.522,122.469 128.046 C 124.245 128.395,124.952 128.402,125.156 128.071 C 125.647 127.277,133.599 127.530,133.606 128.340 C 133.611 128.857,133.686 128.884,133.952 128.463 C 134.196 128.078,135.041 127.965,136.947 128.063 C 138.407 128.139,139.601 128.065,139.601 127.900 C 139.599 127.195,142.800 127.592,142.832 128.300 C 142.850 128.718,142.944 128.799,143.065 128.500 C 143.757 126.786,144.376 128.181,144.485 131.700 L 144.600 135.400 172.300 135.503 L 200.000 135.605 200.000 138.603 L 200.000 141.600 159.700 141.608 C 125.395 141.614,119.102 141.703,117.400 142.205 C 116.300 142.529,115.940 142.673,116.600 142.526 C 117.260 142.379,136.385 142.194,159.100 142.117 L 200.400 141.975 200.400 138.388 L 200.400 134.800 172.570 134.800 L 144.740 134.800 144.899 119.900 C 145.122 98.982,146.585 94.951,155.794 89.890 C 168.434 82.943,200.157 80.381,225.600 84.251 C 242.045 86.753,253.034 96.007,255.463 109.400 C 256.263 113.814,255.828 169.009,254.958 173.400 C 253.375 181.392,246.872 189.156,238.811 192.675 C 235.320 194.200,235.654 194.472,239.231 193.019 C 244.715 190.790,249.977 185.815,252.952 180.045 C 256.215 173.716,256.129 174.473,256.276 150.800 C 256.347 139.250,256.492 129.421,256.596 128.958 C 256.847 127.848,261.360 127.355,264.899 128.051 C 266.658 128.397,267.351 128.402,267.557 128.070 C 268.057 127.261,275.999 127.500,276.006 128.324 C 276.011 128.850,276.088 128.881,276.352 128.463 C 276.596 128.078,277.441 127.965,279.347 128.063 C 280.807 128.139,282.001 128.065,282.001 127.900 C 282.000 127.735,282.630 127.600,283.400 127.600 C 284.378 127.600,284.800 127.781,284.800 128.200 C 284.800 128.863,285.456 129.025,285.667 128.413 C 285.832 127.933,291.577 127.754,293.961 128.154 C 295.242 128.370,295.814 128.307,296.061 127.925 C 296.335 127.501,296.476 127.515,296.794 128.000 C 297.046 128.384,297.190 128.424,297.194 128.110 C 297.198 127.760,298.221 127.626,300.800 127.638 C 303.649 127.651,304.400 127.774,304.400 128.227 C 304.400 128.542,304.580 128.800,304.800 128.800 C 305.020 128.800,305.200 128.605,305.200 128.366 C 305.200 128.084,306.115 127.979,307.801 128.066 C 309.231 128.140,310.401 128.065,310.401 127.900 C 310.400 127.735,311.120 127.600,312.000 127.600 C 313.255 127.600,313.601 127.751,313.606 128.300 C 313.610 128.731,313.725 128.831,313.906 128.561 C 314.386 127.844,319.080 127.558,321.886 128.075 C 323.761 128.421,324.535 128.429,324.734 128.107 C 325.227 127.310,333.199 127.522,333.206 128.332 C 333.211 128.855,333.286 128.883,333.553 128.462 C 333.796 128.079,334.605 127.964,336.348 128.062 C 337.697 128.138,338.801 128.065,338.801 127.900 C 338.800 127.735,339.520 127.600,340.400 127.600 C 341.655 127.600,342.001 127.751,342.006 128.300 C 342.010 128.790,342.106 128.852,342.325 128.508 C 342.523 128.196,343.906 127.977,346.115 127.908 C 350.137 127.783,350.867 126.806,348.396 124.855 C 346.871 123.650,346.872 123.061,348.400 123.285 C 349.060 123.382,349.600 123.313,349.600 123.131 C 349.600 122.949,350.050 122.800,350.600 122.800 C 351.725 122.800,351.779 122.681,351.168 121.540 C 350.834 120.917,350.880 120.575,351.369 120.034 C 351.717 119.650,351.906 119.239,351.789 119.122 C 351.672 119.005,351.502 118.390,351.411 117.755 C 351.321 117.120,351.054 116.060,350.818 115.400 C 350.583 114.740,350.041 112.686,349.615 110.836 C 349.188 108.985,348.696 107.365,348.520 107.236 C 347.945 106.812,347.200 105.228,347.200 104.429 C 347.200 103.999,347.036 103.546,346.835 103.422 C 346.634 103.297,346.343 102.432,346.188 101.498 C 345.850 99.454,345.396 98.518,344.111 97.216 C 343.198 96.290,341.818 93.715,341.925 93.138 C 341.952 92.994,341.710 92.657,341.387 92.389 C 341.064 92.121,340.800 91.576,340.800 91.178 C 340.800 90.780,340.440 90.340,340.000 90.200 C 339.560 90.060,339.200 89.710,339.200 89.422 C 339.200 89.134,338.942 88.683,338.626 88.421 C 338.310 88.159,337.934 87.411,337.791 86.759 C 337.648 86.107,337.103 85.293,336.581 84.951 C 336.059 84.608,335.510 83.940,335.362 83.464 C 335.214 82.989,334.577 81.944,333.947 81.142 C 333.316 80.341,332.797 79.441,332.794 79.142 C 332.790 78.764,332.699 78.738,332.494 79.056 C 332.281 79.386,332.058 79.358,331.684 78.956 C 331.401 78.650,331.278 78.400,331.411 78.400 C 331.545 78.400,331.282 77.877,330.827 77.238 C 330.372 76.599,330.000 75.969,330.000 75.838 C 330.000 75.707,329.685 75.270,329.300 74.866 C 328.915 74.462,327.901 73.294,327.047 72.270 C 324.530 69.251,316.676 61.337,315.700 60.835 C 315.205 60.580,314.800 60.139,314.800 59.854 C 314.800 59.568,314.315 59.080,313.721 58.768 C 312.682 58.221,309.941 55.525,310.181 55.286 C 310.245 55.222,310.726 55.529,311.249 55.968 C 311.772 56.407,313.550 57.834,315.200 59.138 C 319.773 62.752,328.209 70.556,332.132 74.800 C 334.064 76.890,335.854 78.673,336.109 78.762 C 336.365 78.852,334.814 77.031,332.662 74.717 C 325.018 66.497,310.284 53.805,308.902 54.249 C 308.400 54.411,308.346 54.370,308.713 54.106 C 309.215 53.745,304.555 50.239,298.200 46.198 C 266.856 26.265,229.295 16.243,192.600 18.023 M71.978 46.700 L 70.600 48.200 72.100 46.822 C 73.496 45.538,73.784 45.200,73.478 45.200 C 73.412 45.200,72.737 45.875,71.978 46.700 M87.524 57.395 C 78.298 64.661,58.449 84.582,59.444 85.577 C 59.566 85.699,60.054 85.259,60.529 84.599 C 64.596 78.955,82.899 61.028,88.137 57.559 C 89.161 56.880,90.107 56.150,90.240 55.936 C 90.818 55.000,90.020 55.428,87.524 57.395 M53.785 64.100 L 51.800 66.200 53.900 64.215 C 55.851 62.371,56.183 62.000,55.885 62.000 C 55.822 62.000,54.877 62.945,53.785 64.100 M50.175 68.100 L 49.000 69.400 50.300 68.225 C 51.512 67.130,51.784 66.800,51.475 66.800 C 51.406 66.800,50.821 67.385,50.175 68.100 M336.997 80.000 C 337.435 80.550,338.515 81.816,339.397 82.814 C 340.278 83.812,342.260 86.297,343.800 88.336 C 345.340 90.376,347.112 92.619,347.739 93.322 L 348.877 94.600 347.963 93.200 C 346.521 90.993,338.205 80.686,337.151 79.800 L 336.200 79.000 336.997 80.000 M56.919 88.500 C 54.240 91.926,51.083 96.400,51.345 96.400 C 51.463 96.400,52.410 95.185,53.449 93.700 C 54.488 92.215,55.729 90.550,56.206 90.000 C 57.564 88.437,59.317 86.000,59.084 86.000 C 58.968 86.000,57.994 87.125,56.919 88.500 M348.940 95.100 C 351.693 99.517,356.890 107.085,356.150 105.600 C 355.483 104.262,349.210 94.800,348.990 94.800 C 348.859 94.800,348.837 94.935,348.940 95.100 M50.084 97.900 C 48.570 100.060,47.141 102.484,47.519 102.250 C 47.941 101.989,51.268 96.800,51.013 96.800 C 50.926 96.800,50.508 97.295,50.084 97.900 M164.353 100.717 C 157.974 104.050,156.662 111.997,161.607 117.361 C 167.953 124.246,179.351 119.641,179.335 110.200 C 179.321 102.217,171.255 97.111,164.353 100.717 M45.914 104.300 C 44.572 106.329,43.233 109.077,44.291 107.631 C 45.216 106.366,47.261 102.800,47.061 102.800 C 46.976 102.800,46.460 103.475,45.914 104.300 M358.172 109.700 C 358.966 111.075,360.604 114.135,361.812 116.500 C 363.019 118.865,364.097 120.800,364.207 120.800 C 364.480 120.800,361.111 114.116,358.914 110.300 C 357.933 108.595,357.039 107.200,356.929 107.200 C 356.818 107.200,357.377 108.325,358.172 109.700 M42.600 110.000 C 42.259 110.660,42.069 111.200,42.179 111.200 C 42.289 111.200,42.659 110.660,43.000 110.000 C 43.341 109.340,43.531 108.800,43.421 108.800 C 43.311 108.800,42.941 109.340,42.600 110.000 M40.600 113.600 C 40.043 114.700,39.677 115.600,39.787 115.600 C 39.897 115.600,40.443 114.700,41.000 113.600 C 41.557 112.500,41.923 111.600,41.813 111.600 C 41.703 111.600,41.157 112.500,40.600 113.600 M36.653 121.397 C 35.219 124.426,35.354 124.750,36.846 121.860 C 37.510 120.573,37.975 119.442,37.880 119.347 C 37.784 119.251,37.232 120.174,36.653 121.397 M365.638 124.200 C 365.638 124.420,366.161 125.590,366.800 126.800 C 367.439 128.010,367.962 128.820,367.962 128.600 C 367.962 128.380,367.439 127.210,366.800 126.000 C 366.161 124.790,365.638 123.980,365.638 124.200 M33.218 129.018 C 32.518 130.701,32.012 132.146,32.095 132.228 C 32.178 132.311,32.814 130.997,33.509 129.309 C 34.204 127.621,34.710 126.176,34.632 126.099 C 34.555 126.022,33.919 127.335,33.218 129.018 M369.393 133.100 C 369.546 133.485,370.129 135.022,370.688 136.515 C 371.246 138.008,371.780 139.153,371.874 139.059 C 372.086 138.847,369.622 132.400,369.328 132.400 C 369.211 132.400,369.240 132.715,369.393 133.100 M28.847 140.447 C 28.384 141.818,28.074 143.008,28.158 143.092 C 28.243 143.176,28.690 142.123,29.153 140.753 C 29.616 139.382,29.926 138.192,29.842 138.108 C 29.757 138.024,29.310 139.077,28.847 140.447 M264.600 141.866 C 268.831 142.116,290.111 142.187,288.986 141.947 C 288.334 141.808,282.130 141.707,275.200 141.721 C 268.270 141.736,263.500 141.801,264.600 141.866 M373.237 143.400 C 373.225 143.620,373.659 145.150,374.202 146.800 C 374.744 148.450,375.080 149.187,374.949 148.438 C 374.683 146.925,373.271 142.770,373.237 143.400 M109.200 144.525 C 106.617 145.588,101.744 148.686,100.600 149.992 C 100.160 150.494,100.970 150.023,102.400 148.945 C 104.896 147.064,105.756 146.580,110.200 144.557 C 112.797 143.375,112.051 143.351,109.200 144.525 M295.200 144.115 C 295.200 144.206,296.133 144.860,297.273 145.569 C 298.413 146.278,299.143 146.613,298.896 146.315 C 298.424 145.747,295.200 143.827,295.200 144.115 M301.600 149.000 C 302.346 149.770,303.047 150.400,303.157 150.400 C 303.267 150.400,302.746 149.770,302.000 149.000 C 301.254 148.230,300.553 147.600,300.443 147.600 C 300.333 147.600,300.854 148.230,301.600 149.000 M25.233 152.233 C 24.975 153.259,24.839 154.172,24.931 154.264 C 25.022 154.356,25.309 153.592,25.567 152.567 C 25.825 151.541,25.961 150.628,25.869 150.536 C 25.778 150.444,25.491 151.208,25.233 152.233 M98.166 152.100 C 97.511 152.815,96.621 153.850,96.188 154.400 L 95.400 155.400 96.344 154.600 C 97.306 153.785,99.794 150.800,99.512 150.800 C 99.427 150.800,98.821 151.385,98.166 152.100 M93.591 158.062 C 92.716 159.416,92.005 160.721,92.012 160.962 C 92.019 161.203,92.228 161.040,92.476 160.600 C 92.725 160.160,93.527 158.855,94.259 157.700 C 94.991 156.545,95.498 155.600,95.386 155.600 C 95.274 155.600,94.466 156.708,93.591 158.062 M377.680 159.800 C 377.680 160.240,377.824 161.050,378.000 161.600 C 378.254 162.392,378.320 162.433,378.320 161.800 C 378.320 161.360,378.176 160.550,378.000 160.000 C 377.746 159.208,377.680 159.167,377.680 159.800 M378.487 163.600 C 378.483 164.150,378.624 165.050,378.800 165.600 C 379.231 166.944,379.231 165.492,378.800 163.800 C 378.526 162.722,378.494 162.702,378.487 163.600 M90.282 164.673 C 89.972 165.186,88.797 169.297,88.825 169.773 C 88.839 170.008,89.273 168.940,89.788 167.400 C 90.628 164.891,90.832 163.766,90.282 164.673 M262.493 169.600 C 262.493 170.370,262.575 170.685,262.676 170.300 C 262.776 169.915,262.776 169.285,262.676 168.900 C 262.575 168.515,262.493 168.830,262.493 169.600 M20.893 174.000 C 20.893 174.770,20.975 175.085,21.076 174.700 C 21.176 174.315,21.176 173.685,21.076 173.300 C 20.975 172.915,20.893 173.230,20.893 174.000 M20.493 176.800 C 20.493 177.570,20.575 177.885,20.676 177.500 C 20.776 177.115,20.776 176.485,20.676 176.100 C 20.575 175.715,20.493 176.030,20.493 176.800 M86.023 182.200 C 86.001 182.420,85.723 184.760,85.404 187.400 C 84.425 195.519,84.973 213.181,86.241 214.355 C 86.387 214.490,86.396 213.970,86.262 213.200 C 85.084 206.439,84.956 191.914,86.017 185.496 C 86.263 184.009,86.374 182.569,86.264 182.296 C 86.153 182.023,86.045 181.980,86.023 182.200 M381.301 183.400 C 381.305 184.280,381.387 184.593,381.483 184.095 C 381.579 183.598,381.575 182.878,381.475 182.495 C 381.375 182.113,381.296 182.520,381.301 183.400 M381.728 189.200 C 381.728 190.630,381.801 191.215,381.889 190.500 C 381.978 189.785,381.978 188.615,381.889 187.900 C 381.801 187.185,381.728 187.770,381.728 189.200 M19.320 191.200 C 19.320 192.410,19.395 192.905,19.487 192.300 C 19.578 191.695,19.578 190.705,19.487 190.100 C 19.395 189.495,19.320 189.990,19.320 191.200 M252.175 191.700 L 251.000 193.000 252.300 191.825 C 253.015 191.179,253.600 190.594,253.600 190.525 C 253.600 190.216,253.270 190.488,252.175 191.700 M382.159 199.200 C 382.159 202.390,382.221 203.695,382.297 202.100 C 382.373 200.505,382.373 197.895,382.297 196.300 C 382.221 194.705,382.159 196.010,382.159 199.200 M233.400 194.400 C 232.740 194.568,218.880 194.730,202.600 194.760 C 186.320 194.789,171.371 194.986,169.379 195.195 C 166.138 195.537,160.098 197.031,160.467 197.400 C 160.547 197.480,161.869 197.161,163.406 196.691 C 166.129 195.860,167.038 195.831,199.000 195.581 C 229.970 195.338,235.600 195.121,235.600 194.168 C 235.600 193.948,234.878 194.024,233.400 194.400 M316.144 200.800 C 316.144 202.890,316.212 203.745,316.294 202.700 C 316.376 201.655,316.376 199.945,316.294 198.900 C 316.212 197.855,316.144 198.710,316.144 200.800 M156.329 199.211 C 155.079 199.856,153.937 200.579,153.789 200.818 C 153.531 201.235,157.800 199.022,158.580 198.335 C 159.199 197.789,158.728 197.972,156.329 199.211 M150.594 203.106 C 147.994 205.201,143.851 209.915,142.953 211.800 L 142.382 213.000 143.091 212.014 C 145.594 208.534,148.354 205.452,150.603 203.627 C 152.917 201.750,153.478 201.200,153.080 201.200 C 153.014 201.200,151.896 202.058,150.594 203.106 M19.314 207.400 C 19.317 208.500,19.395 208.903,19.487 208.295 C 19.579 207.686,19.577 206.786,19.482 206.295 C 19.387 205.803,19.311 206.300,19.314 207.400 M381.724 209.400 C 381.726 210.720,381.801 211.212,381.890 210.493 C 381.979 209.774,381.977 208.694,381.886 208.093 C 381.795 207.492,381.722 208.080,381.724 209.400 M140.814 215.700 C 140.185 217.075,139.564 218.650,139.433 219.200 L 139.196 220.200 139.672 219.200 C 141.001 216.405,142.327 213.200,142.154 213.200 C 142.046 213.200,141.443 214.325,140.814 215.700 M381.293 215.200 C 381.293 215.970,381.375 216.285,381.476 215.900 C 381.576 215.515,381.576 214.885,381.476 214.500 C 381.375 214.115,381.293 214.430,381.293 215.200 M88.593 226.313 C 88.847 228.047,90.032 232.101,90.228 231.906 C 90.312 231.821,89.935 230.233,89.391 228.376 C 88.846 226.519,88.487 225.591,88.593 226.313 M137.597 240.600 L 137.400 255.000 126.600 255.000 C 120.660 255.000,114.810 254.878,113.600 254.729 C 111.813 254.509,111.588 254.542,112.400 254.900 C 114.009 255.612,137.537 255.831,137.803 255.137 C 137.917 254.839,137.962 248.207,137.903 240.398 L 137.795 226.200 137.597 240.600 M144.493 228.400 C 144.493 229.170,144.575 229.485,144.676 229.100 C 144.776 228.715,144.776 228.085,144.676 227.700 C 144.575 227.315,144.493 227.630,144.493 228.400 M91.600 235.743 C 91.600 236.178,94.387 241.600,94.610 241.600 C 94.720 241.600,94.157 240.295,93.358 238.700 C 91.860 235.707,91.600 235.270,91.600 235.743 M96.330 244.300 C 96.761 244.905,97.528 245.760,98.034 246.200 C 98.540 246.640,98.251 246.145,97.392 245.100 C 95.673 243.008,95.103 242.579,96.330 244.300 M98.981 247.570 C 99.315 248.110,103.979 251.569,105.283 252.243 C 107.054 253.159,106.580 252.581,104.615 251.430 C 103.633 250.855,102.002 249.667,100.991 248.792 C 99.192 247.235,98.523 246.828,98.981 247.570 M300.575 248.900 L 299.400 250.200 300.700 249.025 C 301.912 247.930,302.184 247.600,301.875 247.600 C 301.806 247.600,301.221 248.185,300.575 248.900 M284.900 255.476 C 285.285 255.576,285.915 255.576,286.300 255.476 C 286.685 255.375,286.370 255.293,285.600 255.293 C 284.830 255.293,284.515 255.375,284.900 255.476 M200.542 259.000 C 200.541 260.980,200.608 261.840,200.692 260.912 C 200.776 259.984,200.777 258.364,200.695 257.312 C 200.612 256.260,200.543 257.020,200.542 259.000 M256.176 273.400 C 256.176 279.560,256.232 282.024,256.299 278.876 C 256.367 275.727,256.367 270.687,256.299 267.676 C 256.231 264.664,256.176 267.240,256.176 273.400 M144.493 285.200 C 144.493 285.970,144.575 286.285,144.676 285.900 C 144.776 285.515,144.776 284.885,144.676 284.500 C 144.575 284.115,144.493 284.430,144.493 285.200 M334.378 321.900 L 333.000 323.400 334.500 322.022 C 335.896 320.738,336.184 320.400,335.878 320.400 C 335.812 320.400,335.137 321.075,334.378 321.900 M69.183 324.500 C 70.164 325.545,71.019 326.400,71.083 326.400 C 71.384 326.400,71.066 326.041,69.300 324.383 L 67.400 322.600 69.183 324.500 M75.000 330.400 C 75.859 331.280,76.652 332.000,76.762 332.000 C 76.872 332.000,76.259 331.280,75.400 330.400 C 74.541 329.520,73.748 328.800,73.638 328.800 C 73.528 328.800,74.141 329.520,75.000 330.400 M56.400 337.310 C 56.400 337.371,57.795 338.766,59.500 340.410 L 62.600 343.400 59.610 340.300 C 56.833 337.421,56.400 337.017,56.400 337.310 " stroke="none" fill="#2b4454" fill-rule="evenodd"></path></g></svg>