<svg id="svg" version="1.1" xmlns="http://www.w3.org/2000/svg" xmlns:xlink="http://www.w3.org/1999/xlink" width="400" height="400" viewBox="0, 0, 400,400"><g id="svgg"><path id="path0" d="M93.600 121.217 C 88.604 122.472,87.477 123.073,84.088 126.287 C 77.994 132.064,78.354 127.201,78.488 202.000 L 78.600 265.000 79.500 266.951 C 79.995 268.024,80.400 269.131,80.400 269.410 C 80.400 271.634,87.930 277.413,92.469 278.672 C 96.168 279.698,260.186 279.750,264.400 278.727 C 270.573 277.228,275.099 273.248,277.538 267.175 C 278.888 263.816,278.670 263.600,273.931 263.600 C 269.879 263.600,268.400 263.974,268.400 265.000 C 268.400 265.696,266.086 268.400,265.490 268.400 C 265.255 268.400,264.715 268.715,264.289 269.100 C 263.558 269.762,258.914 269.800,178.658 269.800 L 93.800 269.800 91.878 268.457 C 90.820 267.718,89.470 266.368,88.878 265.457 L 87.800 263.800 87.693 208.344 C 87.624 172.363,87.726 152.521,87.983 151.844 L 88.380 150.800 178.541 150.800 C 251.139 150.800,268.785 150.899,269.125 151.310 C 269.358 151.591,269.605 152.716,269.674 153.810 L 269.800 155.800 274.200 155.800 L 278.600 155.800 278.708 147.410 C 278.933 130.023,275.490 124.077,263.545 121.225 C 258.362 119.987,98.525 119.980,93.600 121.217 M248.041 132.915 C 251.074 134.956,250.851 138.922,247.606 140.647 C 245.026 142.018,225.923 142.132,222.985 140.793 C 219.214 139.075,219.007 134.926,222.583 132.745 C 224.659 131.479,246.120 131.622,248.041 132.915 M261.209 132.807 C 263.741 134.609,263.751 138.380,261.229 140.377 C 256.319 144.265,250.876 136.800,255.692 132.784 C 256.939 131.744,259.733 131.755,261.209 132.807 M269.380 165.300 C 269.022 166.455,268.635 168.660,268.521 170.200 C 268.268 173.594,267.692 174.619,265.840 174.966 C 265.066 175.111,263.931 175.492,263.317 175.812 C 262.703 176.133,261.806 176.396,261.324 176.398 C 260.842 176.399,260.350 176.557,260.232 176.748 C 258.836 179.006,254.519 179.489,252.475 177.615 C 251.747 176.947,251.057 176.400,250.943 176.400 C 250.828 176.400,249.966 175.770,249.026 175.000 C 246.552 172.973,246.081 173.115,242.202 177.056 C 238.108 181.215,238.136 180.836,241.600 185.227 C 244.501 188.906,245.129 190.774,243.899 192.071 C 243.623 192.362,242.971 193.590,242.451 194.800 C 241.931 196.010,241.256 197.478,240.952 198.062 C 240.649 198.646,240.400 199.551,240.400 200.073 C 240.400 201.803,239.385 202.701,237.104 202.990 C 235.947 203.136,233.585 203.513,231.856 203.828 C 230.127 204.142,228.642 204.400,228.556 204.400 C 228.261 204.400,228.412 214.600,228.714 215.074 C 228.879 215.335,230.002 215.655,231.208 215.787 C 239.087 216.646,240.400 217.180,240.400 219.527 C 240.400 220.049,240.654 220.954,240.964 221.538 C 241.274 222.122,241.923 223.590,242.408 224.800 C 242.892 226.010,243.538 227.284,243.844 227.631 C 245.097 229.055,242.930 234.320,240.756 235.133 C 240.560 235.207,240.400 235.448,240.400 235.670 C 240.400 235.892,240.040 236.531,239.600 237.091 C 238.362 238.665,238.550 239.045,242.438 242.816 C 246.621 246.873,246.140 246.839,250.600 243.401 C 255.346 239.743,254.812 239.847,258.761 241.806 C 260.652 242.744,263.190 243.815,264.400 244.187 C 268.108 245.326,268.399 245.640,268.405 248.509 C 268.408 249.879,268.734 252.080,269.129 253.400 L 269.848 255.800 275.424 255.800 L 281.000 255.800 281.117 254.200 C 281.663 246.744,282.366 245.278,285.903 244.221 C 288.074 243.572,290.259 242.699,291.600 241.946 C 291.930 241.760,292.875 241.243,293.700 240.796 L 295.199 239.984 297.200 241.477 C 298.300 242.299,299.200 243.112,299.200 243.285 C 299.200 243.458,299.406 243.600,299.659 243.600 C 299.911 243.600,300.857 244.205,301.760 244.946 C 302.973 245.939,303.610 246.213,304.201 245.993 C 305.364 245.559,311.600 239.278,311.600 238.540 C 311.600 237.994,308.224 233.311,307.030 232.200 C 305.608 230.877,305.478 229.734,306.524 227.739 C 307.931 225.055,308.622 223.423,309.629 220.400 C 310.755 217.017,310.844 216.946,314.600 216.410 C 316.360 216.159,318.610 215.829,319.600 215.677 L 321.400 215.400 321.511 209.910 C 321.621 204.480,321.613 204.419,320.711 204.226 C 318.800 203.818,315.318 203.234,313.320 202.987 C 310.870 202.685,310.767 202.579,309.634 199.200 C 308.687 196.375,307.777 194.144,307.187 193.200 C 305.591 190.646,305.604 187.600,307.210 187.600 C 307.425 187.600,307.600 187.406,307.600 187.170 C 307.600 186.633,310.879 182.400,311.295 182.400 C 311.463 182.400,311.600 181.970,311.600 181.443 C 311.600 180.284,305.039 173.600,303.901 173.600 C 303.121 173.600,300.814 175.065,300.280 175.900 C 300.104 176.175,299.800 176.400,299.605 176.400 C 299.409 176.400,298.653 176.947,297.925 177.615 C 295.886 179.484,295.079 179.517,291.949 177.857 C 290.439 177.055,288.977 176.399,288.702 176.398 C 288.426 176.396,287.697 176.133,287.083 175.812 C 286.469 175.492,285.350 175.114,284.597 174.973 C 282.568 174.592,281.200 170.951,281.200 165.929 C 281.200 163.457,280.615 163.200,274.987 163.200 L 270.031 163.200 269.380 165.300 M280.705 183.555 C 283.208 183.990,289.600 186.629,289.600 187.229 C 289.600 187.403,289.970 187.663,290.421 187.807 C 291.514 188.153,296.400 192.746,296.400 193.426 C 296.400 193.720,296.625 194.104,296.900 194.280 C 298.257 195.148,300.877 201.018,301.685 205.000 C 302.273 207.899,301.841 216.173,301.037 217.400 C 300.687 217.934,300.398 218.693,300.395 219.086 C 300.388 220.011,297.292 225.600,296.786 225.600 C 296.574 225.600,296.400 225.841,296.400 226.135 C 296.400 226.809,291.403 231.475,289.800 232.296 C 289.140 232.635,288.510 233.022,288.400 233.156 C 288.064 233.565,285.566 234.800,285.068 234.802 C 284.810 234.804,284.060 235.115,283.400 235.495 C 281.610 236.524,268.768 236.530,267.000 235.502 C 266.340 235.119,265.613 234.804,265.385 234.802 C 264.696 234.798,261.878 233.245,259.218 231.403 C 251.642 226.158,246.845 214.599,248.562 205.730 C 249.268 202.083,250.701 198.000,251.274 198.000 C 251.453 198.000,251.600 197.653,251.600 197.229 C 251.600 196.804,251.870 196.187,252.200 195.857 C 252.530 195.527,252.800 195.109,252.800 194.929 C 252.802 193.412,261.899 185.890,264.800 185.007 C 265.350 184.839,265.992 184.550,266.226 184.363 C 266.461 184.177,267.721 183.905,269.026 183.759 C 270.332 183.613,271.670 183.335,272.000 183.143 C 272.708 182.730,277.163 182.941,280.705 183.555 " stroke="none" fill="#23b9a1" fill-rule="evenodd"></path><path id="path1" d="M174.000 0.400 C 174.000 0.645,172.062 0.800,168.987 0.800 C 164.901 0.800,163.932 0.911,163.745 1.400 C 163.583 1.821,162.927 2.000,161.545 2.000 C 160.163 2.000,159.506 2.179,159.345 2.600 C 159.169 3.057,158.423 3.200,156.211 3.200 C 153.914 3.200,153.096 3.367,152.291 4.000 C 151.525 4.602,150.668 4.800,148.824 4.800 C 147.016 4.800,146.315 4.957,146.145 5.400 C 146.013 5.744,145.415 6.000,144.745 6.000 C 144.074 6.000,143.477 6.256,143.345 6.600 C 143.176 7.039,142.484 7.200,140.757 7.200 C 138.933 7.200,138.219 7.381,137.600 8.000 C 137.035 8.565,136.267 8.800,134.987 8.800 C 133.745 8.800,133.102 8.989,132.945 9.400 C 132.818 9.730,132.396 10.000,132.006 10.000 C 131.617 10.000,131.093 10.247,130.843 10.549 C 130.592 10.850,129.553 11.191,128.533 11.306 C 127.419 11.432,126.536 11.772,126.320 12.158 C 126.102 12.547,125.435 12.800,124.629 12.800 C 123.897 12.800,123.074 13.070,122.800 13.400 C 122.526 13.730,121.964 14.000,121.551 14.000 C 121.138 14.000,120.800 14.270,120.800 14.600 C 120.800 15.016,120.381 15.200,119.433 15.200 C 117.671 15.200,116.800 15.545,116.800 16.243 C 116.800 16.611,116.334 16.800,115.429 16.800 C 114.674 16.800,113.787 17.070,113.457 17.400 C 113.127 17.730,112.594 18.000,112.271 18.000 C 111.949 18.000,111.582 18.270,111.455 18.600 C 111.329 18.930,110.753 19.200,110.175 19.200 C 109.462 19.200,109.058 19.456,108.916 20.000 C 108.760 20.597,108.370 20.800,107.382 20.800 C 106.653 20.800,105.787 21.070,105.457 21.400 C 105.127 21.730,104.574 22.000,104.229 22.000 C 103.883 22.000,103.600 22.270,103.600 22.600 C 103.600 22.930,103.255 23.200,102.833 23.200 C 101.641 23.200,100.800 23.631,100.800 24.243 C 100.800 24.591,100.365 24.800,99.643 24.800 C 98.983 24.800,98.387 25.058,98.255 25.400 C 98.129 25.730,97.749 26.000,97.413 26.000 C 97.076 26.000,96.800 26.270,96.800 26.600 C 96.800 26.930,96.455 27.200,96.033 27.200 C 94.841 27.200,94.000 27.631,94.000 28.243 C 94.000 28.595,93.559 28.800,92.800 28.800 C 92.000 28.800,91.600 29.000,91.600 29.400 C 91.600 29.730,91.324 30.000,90.987 30.000 C 90.651 30.000,90.276 30.259,90.154 30.576 C 90.033 30.892,89.408 31.266,88.767 31.407 C 88.125 31.548,87.600 31.897,87.600 32.182 C 87.600 32.467,87.065 32.807,86.411 32.938 C 85.572 33.106,85.146 33.474,84.967 34.188 C 84.813 34.804,84.430 35.200,83.989 35.200 C 82.895 35.200,82.000 35.630,82.000 36.155 C 82.000 36.413,81.446 36.834,80.769 37.089 C 80.091 37.345,79.440 37.925,79.322 38.377 C 79.178 38.928,78.779 39.200,78.116 39.200 C 77.462 39.200,77.054 39.472,76.916 40.000 C 76.800 40.443,76.370 40.800,75.953 40.800 C 75.539 40.800,75.200 41.070,75.200 41.400 C 75.200 41.730,75.013 42.000,74.784 42.000 C 74.256 42.000,71.904 43.638,71.480 44.300 C 71.304 44.575,70.899 44.800,70.580 44.800 C 70.261 44.800,70.000 45.070,70.000 45.400 C 70.000 45.730,69.730 46.000,69.400 46.000 C 69.070 46.000,68.800 46.249,68.800 46.553 C 68.800 46.858,68.440 47.201,68.000 47.316 C 67.560 47.431,67.200 47.800,67.200 48.136 C 67.200 48.505,66.765 48.797,66.100 48.873 C 65.236 48.973,64.973 49.236,64.873 50.100 C 64.801 50.730,64.502 51.200,64.173 51.200 C 63.858 51.200,63.240 51.560,62.800 52.000 C 62.360 52.440,61.730 52.800,61.400 52.800 C 61.070 52.800,60.800 53.008,60.800 53.262 C 60.800 53.807,57.740 56.800,57.183 56.800 C 56.972 56.800,56.800 56.972,56.800 57.183 C 56.800 57.740,53.807 60.800,53.262 60.800 C 53.008 60.800,52.800 61.070,52.800 61.400 C 52.800 61.730,52.440 62.360,52.000 62.800 C 51.560 63.240,51.200 63.858,51.200 64.173 C 51.200 64.502,50.730 64.801,50.100 64.873 C 49.248 64.971,48.972 65.239,48.877 66.059 C 48.802 66.707,48.452 67.198,47.977 67.322 C 47.550 67.434,47.200 67.812,47.200 68.163 C 47.200 68.513,46.930 68.800,46.600 68.800 C 46.270 68.800,46.000 69.070,46.000 69.400 C 46.000 69.730,45.730 70.000,45.400 70.000 C 45.070 70.000,44.800 70.261,44.800 70.580 C 44.800 70.899,44.575 71.304,44.300 71.480 C 43.638 71.904,42.000 74.256,42.000 74.784 C 42.000 75.013,41.730 75.200,41.400 75.200 C 41.070 75.200,40.800 75.539,40.800 75.953 C 40.800 76.370,40.443 76.800,40.000 76.916 C 39.472 77.054,39.200 77.462,39.200 78.116 C 39.200 78.779,38.928 79.178,38.377 79.322 C 37.925 79.440,37.345 80.091,37.089 80.769 C 36.834 81.446,36.413 82.000,36.155 82.000 C 35.630 82.000,35.200 82.895,35.200 83.989 C 35.200 84.430,34.804 84.813,34.188 84.967 C 33.474 85.146,33.106 85.572,32.938 86.411 C 32.807 87.065,32.467 87.600,32.182 87.600 C 31.897 87.600,31.548 88.125,31.407 88.767 C 31.266 89.408,30.892 90.033,30.576 90.154 C 30.259 90.276,30.000 90.651,30.000 90.987 C 30.000 91.324,29.730 91.600,29.400 91.600 C 29.000 91.600,28.800 92.000,28.800 92.800 C 28.800 93.559,28.595 94.000,28.243 94.000 C 27.631 94.000,27.200 94.841,27.200 96.033 C 27.200 96.455,26.930 96.800,26.600 96.800 C 26.270 96.800,26.000 97.076,26.000 97.413 C 26.000 97.749,25.730 98.129,25.400 98.255 C 25.058 98.387,24.800 98.983,24.800 99.643 C 24.800 100.365,24.591 100.800,24.243 100.800 C 23.631 100.800,23.200 101.641,23.200 102.833 C 23.200 103.255,22.930 103.600,22.600 103.600 C 22.270 103.600,22.000 103.883,22.000 104.229 C 22.000 104.574,21.730 105.127,21.400 105.457 C 21.070 105.787,20.800 106.653,20.800 107.382 C 20.800 108.370,20.597 108.760,20.000 108.916 C 19.456 109.058,19.200 109.462,19.200 110.175 C 19.200 110.753,18.930 111.329,18.600 111.455 C 18.270 111.582,18.000 111.949,18.000 112.271 C 18.000 112.594,17.730 113.127,17.400 113.457 C 17.070 113.787,16.800 114.674,16.800 115.429 C 16.800 116.334,16.611 116.800,16.243 116.800 C 15.545 116.800,15.200 117.671,15.200 119.433 C 15.200 120.381,15.016 120.800,14.600 120.800 C 14.270 120.800,14.000 121.138,14.000 121.551 C 14.000 121.964,13.730 122.526,13.400 122.800 C 13.070 123.074,12.800 123.897,12.800 124.629 C 12.800 125.435,12.547 126.102,12.158 126.320 C 11.772 126.536,11.432 127.419,11.306 128.533 C 11.191 129.553,10.850 130.592,10.549 130.843 C 10.247 131.093,10.000 131.617,10.000 132.006 C 10.000 132.396,9.730 132.818,9.400 132.945 C 8.989 133.102,8.800 133.745,8.800 134.987 C 8.800 136.267,8.565 137.035,8.000 137.600 C 7.381 138.219,7.200 138.933,7.200 140.757 C 7.200 142.484,7.039 143.176,6.600 143.345 C 6.256 143.477,6.000 144.074,6.000 144.745 C 6.000 145.415,5.744 146.013,5.400 146.145 C 4.957 146.315,4.800 147.016,4.800 148.824 C 4.800 150.668,4.602 151.525,4.000 152.291 C 3.367 153.096,3.200 153.914,3.200 156.211 C 3.200 158.423,3.057 159.169,2.600 159.345 C 2.179 159.506,2.000 160.163,2.000 161.545 C 2.000 162.927,1.821 163.583,1.400 163.745 C 0.911 163.932,0.800 164.901,0.800 168.987 C 0.800 172.062,0.645 174.000,0.400 174.000 C 0.137 174.000,0.000 182.933,0.000 200.000 C 0.000 217.067,0.137 226.000,0.400 226.000 C 0.645 226.000,0.800 227.938,0.800 231.013 C 0.800 235.099,0.911 236.068,1.400 236.255 C 1.821 236.417,2.000 237.073,2.000 238.455 C 2.000 239.837,2.179 240.494,2.600 240.655 C 3.057 240.831,3.200 241.577,3.200 243.789 C 3.200 246.086,3.367 246.904,4.000 247.709 C 4.602 248.475,4.800 249.332,4.800 251.176 C 4.800 252.984,4.957 253.685,5.400 253.855 C 5.744 253.987,6.000 254.585,6.000 255.255 C 6.000 255.926,6.256 256.523,6.600 256.655 C 7.039 256.824,7.200 257.516,7.200 259.243 C 7.200 261.067,7.381 261.781,8.000 262.400 C 8.565 262.965,8.800 263.733,8.800 265.013 C 8.800 266.255,8.989 266.898,9.400 267.055 C 9.730 267.182,10.000 267.604,10.000 267.994 C 10.000 268.383,10.247 268.907,10.549 269.157 C 10.850 269.408,11.191 270.447,11.306 271.467 C 11.432 272.581,11.772 273.464,12.158 273.680 C 12.547 273.898,12.800 274.565,12.800 275.371 C 12.800 276.103,13.070 276.926,13.400 277.200 C 13.730 277.474,14.000 278.036,14.000 278.449 C 14.000 278.862,14.270 279.200,14.600 279.200 C 15.016 279.200,15.200 279.619,15.200 280.567 C 15.200 282.329,15.545 283.200,16.243 283.200 C 16.611 283.200,16.800 283.666,16.800 284.571 C 16.800 285.326,17.070 286.213,17.400 286.543 C 17.730 286.873,18.000 287.406,18.000 287.729 C 18.000 288.051,18.270 288.418,18.600 288.545 C 18.930 288.671,19.200 289.247,19.200 289.825 C 19.200 290.538,19.456 290.942,20.000 291.084 C 20.597 291.240,20.800 291.630,20.800 292.618 C 20.800 293.347,21.070 294.213,21.400 294.543 C 21.730 294.873,22.000 295.426,22.000 295.771 C 22.000 296.117,22.270 296.400,22.600 296.400 C 22.930 296.400,23.200 296.745,23.200 297.167 C 23.200 298.359,23.631 299.200,24.243 299.200 C 24.591 299.200,24.800 299.635,24.800 300.357 C 24.800 301.017,25.058 301.613,25.400 301.745 C 25.730 301.871,26.000 302.251,26.000 302.587 C 26.000 302.924,26.270 303.200,26.600 303.200 C 26.930 303.200,27.200 303.545,27.200 303.967 C 27.200 305.159,27.631 306.000,28.243 306.000 C 28.595 306.000,28.800 306.441,28.800 307.200 C 28.800 308.000,29.000 308.400,29.400 308.400 C 29.730 308.400,30.000 308.676,30.000 309.013 C 30.000 309.349,30.259 309.724,30.576 309.846 C 30.892 309.967,31.266 310.592,31.407 311.233 C 31.548 311.875,31.897 312.400,32.182 312.400 C 32.467 312.400,32.807 312.935,32.938 313.589 C 33.106 314.428,33.474 314.854,34.188 315.033 C 34.804 315.187,35.200 315.570,35.200 316.011 C 35.200 317.105,35.630 318.000,36.155 318.000 C 36.413 318.000,36.834 318.554,37.089 319.231 C 37.345 319.909,37.925 320.560,38.377 320.678 C 38.928 320.822,39.200 321.221,39.200 321.884 C 39.200 322.538,39.472 322.946,40.000 323.084 C 40.443 323.200,40.800 323.630,40.800 324.047 C 40.800 324.461,41.070 324.800,41.400 324.800 C 41.730 324.800,42.000 324.987,42.000 325.216 C 42.000 325.744,43.638 328.096,44.300 328.520 C 44.575 328.696,44.800 329.101,44.800 329.420 C 44.800 329.739,45.070 330.000,45.400 330.000 C 45.730 330.000,46.000 330.270,46.000 330.600 C 46.000 330.930,46.249 331.200,46.553 331.200 C 46.858 331.200,47.201 331.560,47.316 332.000 C 47.431 332.440,47.800 332.800,48.136 332.800 C 48.505 332.800,48.797 333.235,48.873 333.900 C 48.973 334.764,49.236 335.027,50.100 335.127 C 50.730 335.199,51.200 335.498,51.200 335.827 C 51.200 336.142,51.560 336.760,52.000 337.200 C 52.440 337.640,52.800 338.270,52.800 338.600 C 52.800 338.930,53.008 339.200,53.262 339.200 C 53.807 339.200,56.800 342.260,56.800 342.817 C 56.800 343.028,56.972 343.200,57.183 343.200 C 57.740 343.200,60.800 346.193,60.800 346.738 C 60.800 346.992,61.070 347.200,61.400 347.200 C 61.730 347.200,62.360 347.560,62.800 348.000 C 63.240 348.440,63.858 348.800,64.173 348.800 C 64.502 348.800,64.801 349.270,64.873 349.900 C 64.973 350.764,65.236 351.027,66.100 351.127 C 66.765 351.203,67.200 351.495,67.200 351.864 C 67.200 352.200,67.560 352.569,68.000 352.684 C 68.440 352.799,68.800 353.142,68.800 353.447 C 68.800 353.751,69.070 354.000,69.400 354.000 C 69.730 354.000,70.000 354.270,70.000 354.600 C 70.000 354.930,70.261 355.200,70.580 355.200 C 70.899 355.200,71.304 355.425,71.480 355.700 C 71.904 356.362,74.256 358.000,74.784 358.000 C 75.013 358.000,75.200 358.270,75.200 358.600 C 75.200 358.930,75.539 359.200,75.953 359.200 C 76.370 359.200,76.800 359.557,76.916 360.000 C 77.054 360.528,77.462 360.800,78.116 360.800 C 78.779 360.800,79.178 361.072,79.322 361.623 C 79.440 362.075,80.091 362.655,80.769 362.911 C 81.446 363.166,82.000 363.587,82.000 363.845 C 82.000 364.370,82.895 364.800,83.989 364.800 C 84.430 364.800,84.813 365.196,84.967 365.812 C 85.146 366.526,85.572 366.894,86.411 367.062 C 87.065 367.193,87.600 367.533,87.600 367.818 C 87.600 368.103,88.125 368.452,88.767 368.593 C 89.408 368.734,90.033 369.108,90.154 369.424 C 90.276 369.741,90.651 370.000,90.987 370.000 C 91.324 370.000,91.600 370.270,91.600 370.600 C 91.600 371.000,92.000 371.200,92.800 371.200 C 93.559 371.200,94.000 371.405,94.000 371.757 C 94.000 372.369,94.841 372.800,96.033 372.800 C 96.455 372.800,96.800 373.070,96.800 373.400 C 96.800 373.730,97.076 374.000,97.413 374.000 C 97.749 374.000,98.129 374.270,98.255 374.600 C 98.387 374.942,98.983 375.200,99.643 375.200 C 100.365 375.200,100.800 375.409,100.800 375.757 C 100.800 376.369,101.641 376.800,102.833 376.800 C 103.255 376.800,103.600 377.070,103.600 377.400 C 103.600 377.730,103.883 378.000,104.229 378.000 C 104.574 378.000,105.127 378.270,105.457 378.600 C 105.787 378.930,106.653 379.200,107.382 379.200 C 108.370 379.200,108.760 379.403,108.916 380.000 C 109.058 380.544,109.462 380.800,110.175 380.800 C 110.753 380.800,111.329 381.070,111.455 381.400 C 111.582 381.730,111.949 382.000,112.271 382.000 C 112.594 382.000,113.127 382.270,113.457 382.600 C 113.787 382.930,114.674 383.200,115.429 383.200 C 116.334 383.200,116.800 383.389,116.800 383.757 C 116.800 384.455,117.671 384.800,119.433 384.800 C 120.381 384.800,120.800 384.984,120.800 385.400 C 120.800 385.730,121.138 386.000,121.551 386.000 C 121.964 386.000,122.526 386.270,122.800 386.600 C 123.074 386.930,123.897 387.200,124.629 387.200 C 125.435 387.200,126.102 387.453,126.320 387.842 C 126.536 388.228,127.419 388.568,128.533 388.694 C 129.553 388.809,130.592 389.150,130.843 389.451 C 131.093 389.753,131.617 390.000,132.006 390.000 C 132.396 390.000,132.818 390.270,132.945 390.600 C 133.102 391.011,133.745 391.200,134.987 391.200 C 136.267 391.200,137.035 391.435,137.600 392.000 C 138.219 392.619,138.933 392.800,140.757 392.800 C 142.484 392.800,143.176 392.961,143.345 393.400 C 143.477 393.744,144.074 394.000,144.745 394.000 C 145.415 394.000,146.013 394.256,146.145 394.600 C 146.315 395.043,147.016 395.200,148.824 395.200 C 150.668 395.200,151.525 395.398,152.291 396.000 C 153.096 396.633,153.914 396.800,156.211 396.800 C 158.423 396.800,159.169 396.943,159.345 397.400 C 159.506 397.821,160.163 398.000,161.545 398.000 C 162.927 398.000,163.583 398.179,163.745 398.600 C 163.932 399.089,164.901 399.200,168.987 399.200 C 172.062 399.200,174.000 399.355,174.000 399.600 C 174.000 399.863,182.933 400.000,200.000 400.000 C 217.067 400.000,226.000 399.863,226.000 399.600 C 226.000 399.355,227.938 399.200,231.013 399.200 C 235.099 399.200,236.068 399.089,236.255 398.600 C 236.417 398.179,237.073 398.000,238.455 398.000 C 239.837 398.000,240.494 397.821,240.655 397.400 C 240.831 396.943,241.577 396.800,243.789 396.800 C 246.086 396.800,246.904 396.633,247.709 396.000 C 248.475 395.398,249.332 395.200,251.176 395.200 C 252.984 395.200,253.685 395.043,253.855 394.600 C 253.987 394.256,254.585 394.000,255.255 394.000 C 255.926 394.000,256.523 393.744,256.655 393.400 C 256.824 392.961,257.516 392.800,259.243 392.800 C 261.067 392.800,261.781 392.619,262.400 392.000 C 262.965 391.435,263.733 391.200,265.013 391.200 C 266.255 391.200,266.898 391.011,267.055 390.600 C 267.182 390.270,267.604 390.000,267.994 390.000 C 268.383 390.000,268.907 389.753,269.157 389.451 C 269.408 389.150,270.447 388.809,271.467 388.694 C 272.581 388.568,273.464 388.228,273.680 387.842 C 273.898 387.453,274.565 387.200,275.371 387.200 C 276.103 387.200,276.926 386.930,277.200 386.600 C 277.474 386.270,278.036 386.000,278.449 386.000 C 278.862 386.000,279.200 385.730,279.200 385.400 C 279.200 384.984,279.619 384.800,280.567 384.800 C 282.329 384.800,283.200 384.455,283.200 383.757 C 283.200 383.389,283.666 383.200,284.571 383.200 C 285.326 383.200,286.213 382.930,286.543 382.600 C 286.873 382.270,287.406 382.000,287.729 382.000 C 288.051 382.000,288.418 381.730,288.545 381.400 C 288.671 381.070,289.247 380.800,289.825 380.800 C 290.538 380.800,290.942 380.544,291.084 380.000 C 291.240 379.403,291.630 379.200,292.618 379.200 C 293.347 379.200,294.213 378.930,294.543 378.600 C 294.873 378.270,295.426 378.000,295.771 378.000 C 296.117 378.000,296.400 377.730,296.400 377.400 C 296.400 377.070,296.745 376.800,297.167 376.800 C 298.359 376.800,299.200 376.369,299.200 375.757 C 299.200 375.409,299.635 375.200,300.357 375.200 C 301.017 375.200,301.613 374.942,301.745 374.600 C 301.871 374.270,302.251 374.000,302.587 374.000 C 302.924 374.000,303.200 373.730,303.200 373.400 C 303.200 373.070,303.545 372.800,303.967 372.800 C 305.159 372.800,306.000 372.369,306.000 371.757 C 306.000 371.405,306.441 371.200,307.200 371.200 C 308.000 371.200,308.400 371.000,308.400 370.600 C 308.400 370.270,308.676 370.000,309.013 370.000 C 309.349 370.000,309.724 369.741,309.846 369.424 C 309.967 369.108,310.592 368.734,311.233 368.593 C 311.875 368.452,312.400 368.103,312.400 367.818 C 312.400 367.533,312.935 367.193,313.589 367.062 C 314.428 366.894,314.854 366.526,315.033 365.812 C 315.187 365.196,315.570 364.800,316.011 364.800 C 317.105 364.800,318.000 364.370,318.000 363.845 C 318.000 363.587,318.554 363.166,319.231 362.911 C 319.909 362.655,320.560 362.075,320.678 361.623 C 320.822 361.072,321.221 360.800,321.884 360.800 C 322.538 360.800,322.946 360.528,323.084 360.000 C 323.200 359.557,323.630 359.200,324.047 359.200 C 324.461 359.200,324.800 358.930,324.800 358.600 C 324.800 358.270,324.987 358.000,325.216 358.000 C 325.744 358.000,328.096 356.362,328.520 355.700 C 328.696 355.425,329.101 355.200,329.420 355.200 C 329.739 355.200,330.000 354.930,330.000 354.600 C 330.000 354.270,330.270 354.000,330.600 354.000 C 330.930 354.000,331.200 353.751,331.200 353.447 C 331.200 353.142,331.560 352.799,332.000 352.684 C 332.440 352.569,332.800 352.200,332.800 351.864 C 332.800 351.495,333.235 351.203,333.900 351.127 C 334.764 351.027,335.027 350.764,335.127 349.900 C 335.199 349.270,335.498 348.800,335.827 348.800 C 336.142 348.800,336.760 348.440,337.200 348.000 C 337.640 347.560,338.270 347.200,338.600 347.200 C 338.930 347.200,339.200 346.992,339.200 346.738 C 339.200 346.193,342.260 343.200,342.817 343.200 C 343.028 343.200,343.200 343.028,343.200 342.817 C 343.200 342.260,346.193 339.200,346.738 339.200 C 346.992 339.200,347.200 338.930,347.200 338.600 C 347.200 338.270,347.560 337.640,348.000 337.200 C 348.440 336.760,348.800 336.142,348.800 335.827 C 348.800 335.498,349.270 335.199,349.900 335.127 C 350.752 335.029,351.028 334.761,351.123 333.941 C 351.198 333.293,351.548 332.802,352.023 332.678 C 352.450 332.566,352.800 332.188,352.800 331.837 C 352.800 331.487,353.070 331.200,353.400 331.200 C 353.730 331.200,354.000 330.930,354.000 330.600 C 354.000 330.270,354.270 330.000,354.600 330.000 C 354.930 330.000,355.200 329.739,355.200 329.420 C 355.200 329.101,355.425 328.696,355.700 328.520 C 356.362 328.096,358.000 325.744,358.000 325.216 C 358.000 324.987,358.270 324.800,358.600 324.800 C 358.930 324.800,359.200 324.461,359.200 324.047 C 359.200 323.630,359.557 323.200,360.000 323.084 C 360.528 322.946,360.800 322.538,360.800 321.884 C 360.800 321.221,361.072 320.822,361.623 320.678 C 362.075 320.560,362.655 319.909,362.911 319.231 C 363.166 318.554,363.587 318.000,363.845 318.000 C 364.370 318.000,364.800 317.105,364.800 316.011 C 364.800 315.570,365.196 315.187,365.812 315.033 C 366.526 314.854,366.894 314.428,367.062 313.589 C 367.193 312.935,367.533 312.400,367.818 312.400 C 368.103 312.400,368.452 311.875,368.593 311.233 C 368.734 310.592,369.108 309.967,369.424 309.846 C 369.741 309.724,370.000 309.349,370.000 309.013 C 370.000 308.676,370.270 308.400,370.600 308.400 C 371.000 308.400,371.200 308.000,371.200 307.200 C 371.200 306.441,371.405 306.000,371.757 306.000 C 372.369 306.000,372.800 305.159,372.800 303.967 C 372.800 303.545,373.070 303.200,373.400 303.200 C 373.730 303.200,374.000 302.924,374.000 302.587 C 374.000 302.251,374.270 301.871,374.600 301.745 C 374.942 301.613,375.200 301.017,375.200 300.357 C 375.200 299.635,375.409 299.200,375.757 299.200 C 376.369 299.200,376.800 298.359,376.800 297.167 C 376.800 296.745,377.070 296.400,377.400 296.400 C 377.730 296.400,378.000 296.117,378.000 295.771 C 378.000 295.426,378.270 294.873,378.600 294.543 C 378.930 294.213,379.200 293.347,379.200 292.618 C 379.200 291.630,379.403 291.240,380.000 291.084 C 380.544 290.942,380.800 290.538,380.800 289.825 C 380.800 289.247,381.070 288.671,381.400 288.545 C 381.730 288.418,382.000 288.051,382.000 287.729 C 382.000 287.406,382.270 286.873,382.600 286.543 C 382.930 286.213,383.200 285.326,383.200 284.571 C 383.200 283.666,383.389 283.200,383.757 283.200 C 384.455 283.200,384.800 282.329,384.800 280.567 C 384.800 279.619,384.984 279.200,385.400 279.200 C 385.730 279.200,386.000 278.862,386.000 278.449 C 386.000 278.036,386.270 277.474,386.600 277.200 C 386.930 276.926,387.200 276.103,387.200 275.371 C 387.200 274.565,387.453 273.898,387.842 273.680 C 388.228 273.464,388.568 272.581,388.694 271.467 C 388.809 270.447,389.150 269.408,389.451 269.157 C 389.753 268.907,390.000 268.383,390.000 267.994 C 390.000 267.604,390.270 267.182,390.600 267.055 C 391.011 266.898,391.200 266.255,391.200 265.013 C 391.200 263.733,391.435 262.965,392.000 262.400 C 392.619 261.781,392.800 261.067,392.800 259.243 C 392.800 257.516,392.961 256.824,393.400 256.655 C 393.744 256.523,394.000 255.926,394.000 255.255 C 394.000 254.585,394.256 253.987,394.600 253.855 C 395.043 253.685,395.200 252.984,395.200 251.176 C 395.200 249.332,395.398 248.475,396.000 247.709 C 396.633 246.904,396.800 246.086,396.800 243.789 C 396.800 241.577,396.943 240.831,397.400 240.655 C 397.821 240.494,398.000 239.837,398.000 238.455 C 398.000 237.073,398.179 236.417,398.600 236.255 C 399.089 236.068,399.200 235.099,399.200 231.013 C 399.200 227.938,399.355 226.000,399.600 226.000 C 399.863 226.000,400.000 217.067,400.000 200.000 C 400.000 182.933,399.863 174.000,399.600 174.000 C 399.355 174.000,399.200 172.062,399.200 168.987 C 399.200 164.901,399.089 163.932,398.600 163.745 C 398.179 163.583,398.000 162.927,398.000 161.545 C 398.000 160.163,397.821 159.506,397.400 159.345 C 396.943 159.169,396.800 158.423,396.800 156.211 C 396.800 153.914,396.633 153.096,396.000 152.291 C 395.398 151.525,395.200 150.668,395.200 148.824 C 395.200 147.016,395.043 146.315,394.600 146.145 C 394.256 146.013,394.000 145.415,394.000 144.745 C 394.000 144.074,393.744 143.477,393.400 143.345 C 392.961 143.176,392.800 142.484,392.800 140.757 C 392.800 138.933,392.619 138.219,392.000 137.600 C 391.435 137.035,391.200 136.267,391.200 134.987 C 391.200 133.745,391.011 133.102,390.600 132.945 C 390.270 132.818,390.000 132.396,390.000 132.006 C 390.000 131.617,389.753 131.093,389.451 130.843 C 389.150 130.592,388.809 129.553,388.694 128.533 C 388.568 127.419,388.228 126.536,387.842 126.320 C 387.453 126.102,387.200 125.435,387.200 124.629 C 387.200 123.897,386.930 123.074,386.600 122.800 C 386.270 122.526,386.000 121.964,386.000 121.551 C 386.000 121.138,385.730 120.800,385.400 120.800 C 384.984 120.800,384.800 120.381,384.800 119.433 C 384.800 117.671,384.455 116.800,383.757 116.800 C 383.389 116.800,383.200 116.334,383.200 115.429 C 383.200 114.674,382.930 113.787,382.600 113.457 C 382.270 113.127,382.000 112.594,382.000 112.271 C 382.000 111.949,381.730 111.582,381.400 111.455 C 381.070 111.329,380.800 110.753,380.800 110.175 C 380.800 109.462,380.544 109.058,380.000 108.916 C 379.403 108.760,379.200 108.370,379.200 107.382 C 379.200 106.653,378.930 105.787,378.600 105.457 C 378.270 105.127,378.000 104.574,378.000 104.229 C 378.000 103.883,377.730 103.600,377.400 103.600 C 377.070 103.600,376.800 103.255,376.800 102.833 C 376.800 101.641,376.369 100.800,375.757 100.800 C 375.409 100.800,375.200 100.365,375.200 99.643 C 375.200 98.983,374.942 98.387,374.600 98.255 C 374.270 98.129,374.000 97.749,374.000 97.413 C 374.000 97.076,373.730 96.800,373.400 96.800 C 373.070 96.800,372.800 96.455,372.800 96.033 C 372.800 94.841,372.369 94.000,371.757 94.000 C 371.405 94.000,371.200 93.559,371.200 92.800 C 371.200 92.000,371.000 91.600,370.600 91.600 C 370.270 91.600,370.000 91.324,370.000 90.987 C 370.000 90.651,369.741 90.276,369.424 90.154 C 369.108 90.033,368.734 89.408,368.593 88.767 C 368.452 88.125,368.103 87.600,367.818 87.600 C 367.533 87.600,367.193 87.065,367.062 86.411 C 366.894 85.572,366.526 85.146,365.812 84.967 C 365.196 84.813,364.800 84.430,364.800 83.989 C 364.800 82.895,364.370 82.000,363.845 82.000 C 363.587 82.000,363.166 81.446,362.911 80.769 C 362.655 80.091,362.075 79.440,361.623 79.322 C 361.072 79.178,360.800 78.779,360.800 78.116 C 360.800 77.462,360.528 77.054,360.000 76.916 C 359.557 76.800,359.200 76.370,359.200 75.953 C 359.200 75.539,358.930 75.200,358.600 75.200 C 358.270 75.200,358.000 75.013,358.000 74.784 C 358.000 74.256,356.362 71.904,355.700 71.480 C 355.425 71.304,355.200 70.899,355.200 70.580 C 355.200 70.261,354.930 70.000,354.600 70.000 C 354.270 70.000,354.000 69.730,354.000 69.400 C 354.000 69.070,353.751 68.800,353.447 68.800 C 353.142 68.800,352.799 68.440,352.684 68.000 C 352.569 67.560,352.200 67.200,351.864 67.200 C 351.495 67.200,351.203 66.765,351.127 66.100 C 351.027 65.236,350.764 64.973,349.900 64.873 C 349.270 64.801,348.800 64.502,348.800 64.173 C 348.800 63.858,348.440 63.240,348.000 62.800 C 347.560 62.360,347.200 61.730,347.200 61.400 C 347.200 61.070,346.992 60.800,346.738 60.800 C 346.193 60.800,343.200 57.740,343.200 57.183 C 343.200 56.972,343.028 56.800,342.817 56.800 C 342.260 56.800,339.200 53.807,339.200 53.262 C 339.200 53.008,338.930 52.800,338.600 52.800 C 338.270 52.800,337.640 52.440,337.200 52.000 C 336.760 51.560,336.142 51.200,335.827 51.200 C 335.498 51.200,335.199 50.730,335.127 50.100 C 335.029 49.248,334.761 48.972,333.941 48.877 C 333.293 48.802,332.802 48.452,332.678 47.977 C 332.566 47.550,332.188 47.200,331.837 47.200 C 331.487 47.200,331.200 46.930,331.200 46.600 C 331.200 46.270,330.930 46.000,330.600 46.000 C 330.270 46.000,330.000 45.730,330.000 45.400 C 330.000 45.070,329.739 44.800,329.420 44.800 C 329.101 44.800,328.696 44.575,328.520 44.300 C 328.096 43.638,325.744 42.000,325.216 42.000 C 324.987 42.000,324.800 41.730,324.800 41.400 C 324.800 41.070,324.461 40.800,324.047 40.800 C 323.630 40.800,323.200 40.443,323.084 40.000 C 322.946 39.472,322.538 39.200,321.884 39.200 C 321.221 39.200,320.822 38.928,320.678 38.377 C 320.560 37.925,319.909 37.345,319.231 37.089 C 318.554 36.834,318.000 36.413,318.000 36.155 C 318.000 35.630,317.105 35.200,316.011 35.200 C 315.570 35.200,315.187 34.804,315.033 34.188 C 314.854 33.474,314.428 33.106,313.589 32.938 C 312.935 32.807,312.400 32.467,312.400 32.182 C 312.400 31.897,311.875 31.548,311.233 31.407 C 310.592 31.266,309.967 30.892,309.846 30.576 C 309.724 30.259,309.349 30.000,309.013 30.000 C 308.676 30.000,308.400 29.730,308.400 29.400 C 308.400 29.000,308.000 28.800,307.200 28.800 C 306.441 28.800,306.000 28.595,306.000 28.243 C 306.000 27.631,305.159 27.200,303.967 27.200 C 303.545 27.200,303.200 26.930,303.200 26.600 C 303.200 26.270,302.924 26.000,302.587 26.000 C 302.251 26.000,301.871 25.730,301.745 25.400 C 301.613 25.058,301.017 24.800,300.357 24.800 C 299.635 24.800,299.200 24.591,299.200 24.243 C 299.200 23.631,298.359 23.200,297.167 23.200 C 296.745 23.200,296.400 22.930,296.400 22.600 C 296.400 22.270,296.117 22.000,295.771 22.000 C 295.426 22.000,294.873 21.730,294.543 21.400 C 294.213 21.070,293.347 20.800,292.618 20.800 C 291.630 20.800,291.240 20.597,291.084 20.000 C 290.942 19.456,290.538 19.200,289.825 19.200 C 289.247 19.200,288.671 18.930,288.545 18.600 C 288.418 18.270,288.051 18.000,287.729 18.000 C 287.406 18.000,286.873 17.730,286.543 17.400 C 286.213 17.070,285.326 16.800,284.571 16.800 C 283.666 16.800,283.200 16.611,283.200 16.243 C 283.200 15.545,282.329 15.200,280.567 15.200 C 279.619 15.200,279.200 15.016,279.200 14.600 C 279.200 14.270,278.862 14.000,278.449 14.000 C 278.036 14.000,277.474 13.730,277.200 13.400 C 276.926 13.070,276.103 12.800,275.371 12.800 C 274.565 12.800,273.898 12.547,273.680 12.158 C 273.464 11.772,272.581 11.432,271.467 11.306 C 270.447 11.191,269.408 10.850,269.157 10.549 C 268.907 10.247,268.383 10.000,267.994 10.000 C 267.604 10.000,267.182 9.730,267.055 9.400 C 266.898 8.989,266.255 8.800,265.013 8.800 C 263.733 8.800,262.965 8.565,262.400 8.000 C 261.781 7.381,261.067 7.200,259.243 7.200 C 257.516 7.200,256.824 7.039,256.655 6.600 C 256.523 6.256,255.926 6.000,255.255 6.000 C 254.585 6.000,253.987 5.744,253.855 5.400 C 253.685 4.957,252.984 4.800,251.176 4.800 C 249.332 4.800,248.475 4.602,247.709 4.000 C 246.904 3.367,246.086 3.200,243.789 3.200 C 241.577 3.200,240.831 3.057,240.655 2.600 C 240.494 2.179,239.837 2.000,238.455 2.000 C 237.073 2.000,236.417 1.821,236.255 1.400 C 236.068 0.911,235.099 0.800,231.013 0.800 C 227.938 0.800,226.000 0.645,226.000 0.400 C 226.000 0.137,217.067 0.000,200.000 0.000 C 182.933 0.000,174.000 0.137,174.000 0.400 M266.363 120.823 C 268.761 121.734,270.893 122.771,271.200 123.175 C 271.310 123.320,271.983 123.845,272.695 124.343 C 278.134 128.141,280.000 133.861,280.000 146.733 C 280.000 157.992,280.435 157.200,274.251 157.200 C 269.073 157.200,268.800 157.056,268.800 154.328 C 268.800 152.675,268.678 152.386,267.900 152.198 C 267.405 152.079,226.860 152.031,177.800 152.091 L 88.600 152.200 88.499 207.110 L 88.397 262.021 89.361 263.910 C 90.494 266.131,92.054 267.653,94.000 268.436 C 96.390 269.399,261.147 269.268,263.504 268.302 C 265.375 267.535,267.458 265.513,267.845 264.089 C 268.229 262.675,269.215 262.400,273.874 262.406 C 279.174 262.414,279.392 262.525,279.089 265.061 C 278.382 270.961,272.635 277.167,265.800 279.412 C 261.976 280.668,94.620 280.648,91.200 279.392 C 84.030 276.757,79.660 271.958,77.847 264.728 C 76.765 260.414,76.889 139.014,77.979 135.000 C 80.044 127.398,83.063 124.182,91.600 120.487 C 93.795 119.537,263.839 119.863,266.363 120.823 M256.900 133.415 C 255.423 134.036,254.795 135.076,254.813 136.874 C 254.847 140.445,259.703 141.670,261.608 138.587 C 263.537 135.465,260.350 131.964,256.900 133.415 M223.330 133.631 C 220.933 134.341,220.610 139.134,222.917 139.752 C 223.403 139.883,229.142 139.992,235.671 139.995 L 247.542 140.000 248.371 138.946 C 249.532 137.470,249.448 135.573,248.168 134.370 L 247.137 133.400 235.868 133.327 C 229.671 133.287,224.028 133.424,223.330 133.631 M281.088 162.722 C 281.711 163.118,282.800 168.256,282.800 170.797 C 282.800 173.012,284.024 174.400,285.977 174.400 C 286.566 174.400,287.396 174.664,287.824 174.987 C 288.251 175.310,288.858 175.580,289.174 175.587 C 289.490 175.594,290.977 176.236,292.480 177.014 L 295.212 178.428 297.106 177.004 C 298.148 176.221,299.599 175.090,300.331 174.490 C 303.888 171.578,304.358 171.679,308.914 176.335 C 313.233 180.749,313.302 181.175,310.300 184.914 C 306.226 189.988,306.291 189.823,307.600 191.800 C 308.037 192.460,308.396 193.279,308.397 193.620 C 308.399 193.961,308.610 194.450,308.867 194.707 C 309.379 195.219,310.260 197.432,310.798 199.556 C 311.364 201.792,311.953 202.093,316.454 202.442 C 322.645 202.921,322.600 202.865,322.600 210.041 L 322.600 215.797 321.060 216.301 C 320.213 216.579,318.233 216.996,316.660 217.228 C 315.087 217.460,313.228 217.734,312.529 217.838 C 311.476 217.993,311.213 218.246,310.998 219.313 C 310.606 221.259,309.571 223.918,308.113 226.729 C 306.460 229.914,306.459 229.908,308.500 232.422 C 313.667 238.785,313.664 238.541,308.630 243.500 C 306.097 245.996,304.577 247.200,303.959 247.200 C 303.022 247.200,300.000 245.347,300.000 244.773 C 300.000 244.597,299.685 244.350,299.300 244.223 C 298.915 244.096,297.991 243.454,297.246 242.796 C 295.607 241.349,294.642 241.302,292.350 242.562 C 290.435 243.614,286.013 245.378,284.348 245.754 C 283.166 246.020,282.821 246.873,282.791 249.600 C 282.718 256.287,281.470 257.600,275.186 257.600 C 268.573 257.600,268.228 257.306,267.842 251.326 C 267.541 246.683,267.174 245.845,265.276 245.472 C 263.540 245.132,260.349 243.869,258.250 242.693 C 255.480 241.141,254.526 241.275,251.950 243.576 C 251.565 243.919,250.780 244.560,250.205 245.000 C 249.630 245.440,248.781 246.115,248.319 246.500 C 246.673 247.869,245.705 247.430,241.769 243.528 C 237.373 239.169,237.065 238.299,239.097 235.970 C 239.370 235.656,240.349 234.410,241.273 233.200 C 242.196 231.990,243.098 230.940,243.276 230.867 C 243.710 230.688,243.693 228.400,243.257 228.400 C 242.777 228.400,240.097 222.339,239.770 220.511 C 239.370 218.284,238.594 217.602,236.438 217.588 C 228.902 217.536,227.700 216.455,227.640 209.674 C 227.583 203.188,227.785 202.959,234.038 202.416 C 238.621 202.018,239.371 201.596,239.754 199.200 C 240.038 197.423,242.477 191.847,243.153 191.429 C 243.764 191.051,243.719 188.914,243.091 188.520 C 242.283 188.012,238.414 182.890,237.984 181.758 C 237.488 180.454,238.052 179.639,242.315 175.500 C 246.278 171.653,246.945 171.628,250.881 175.185 C 251.801 176.016,252.368 176.458,253.910 177.545 L 255.220 178.468 258.310 176.967 C 260.009 176.141,261.850 175.248,262.400 174.984 C 262.950 174.720,264.050 174.387,264.845 174.244 C 267.115 173.836,267.504 173.099,267.822 168.600 C 268.097 164.702,268.461 163.306,269.360 162.706 C 269.948 162.313,280.467 162.328,281.088 162.722 M270.600 184.285 C 269.720 184.367,268.433 184.697,267.740 185.017 C 267.046 185.338,266.274 185.600,266.022 185.600 C 265.465 185.600,260.281 188.364,259.997 188.812 C 259.885 188.989,259.098 189.687,258.247 190.363 C 256.713 191.581,252.402 196.814,252.398 197.463 C 252.396 197.648,252.109 198.340,251.758 199.000 C 246.844 208.263,249.770 221.981,258.200 229.200 C 259.300 230.142,260.290 231.024,260.400 231.159 C 260.841 231.700,266.690 234.363,268.000 234.619 C 268.770 234.769,269.616 235.066,269.881 235.279 C 270.501 235.779,279.906 235.772,280.527 235.272 C 280.787 235.063,281.605 234.763,282.344 234.605 C 284.147 234.219,287.454 232.718,289.318 231.441 C 290.153 230.868,290.894 230.400,290.965 230.400 C 291.987 230.400,297.196 223.826,298.891 220.397 C 300.501 217.138,301.466 210.663,300.870 207.110 C 300.177 202.978,299.545 200.215,299.245 200.001 C 299.090 199.891,298.444 198.720,297.811 197.400 C 296.628 194.933,291.241 189.092,289.200 188.064 C 288.650 187.787,287.660 187.268,287.000 186.910 C 282.369 184.398,277.572 183.630,270.600 184.285 M147.238 191.627 C 147.996 192.167,148.400 192.806,148.400 193.466 C 148.400 194.022,148.655 194.954,148.966 195.538 C 149.762 197.033,152.034 203.921,152.283 205.600 C 152.398 206.370,152.726 207.270,153.012 207.600 C 153.298 207.930,153.661 208.920,153.818 209.800 C 153.976 210.680,154.240 211.580,154.406 211.800 C 154.572 212.020,154.841 212.830,155.005 213.600 C 155.168 214.370,155.549 215.355,155.851 215.789 C 156.153 216.223,156.400 217.236,156.400 218.040 C 156.400 218.844,156.656 219.714,156.969 219.974 C 157.282 220.234,157.657 221.155,157.804 222.021 C 157.950 222.887,158.218 223.688,158.400 223.800 C 158.582 223.912,158.858 224.761,159.015 225.687 C 159.171 226.612,159.502 227.702,159.749 228.109 C 160.114 228.708,160.050 228.960,159.409 229.435 C 158.263 230.284,148.420 230.081,148.000 229.200 C 147.842 228.870,147.418 228.032,147.057 227.338 C 146.696 226.644,146.400 225.714,146.400 225.271 C 146.400 223.244,146.273 223.200,140.438 223.200 L 134.961 223.200 134.505 224.500 C 134.254 225.215,133.927 226.479,133.778 227.310 C 133.349 229.703,132.570 230.000,126.725 230.000 C 120.549 230.000,120.326 229.832,121.558 226.117 C 121.981 224.842,122.436 223.305,122.571 222.700 C 122.705 222.095,122.992 221.600,123.208 221.600 C 123.423 221.600,123.600 221.092,123.600 220.470 C 123.600 219.849,124.230 217.554,125.000 215.372 C 125.770 213.189,126.400 211.109,126.400 210.750 C 126.400 210.392,126.670 209.874,127.000 209.600 C 127.330 209.326,127.600 208.566,127.600 207.911 C 127.600 207.257,127.844 206.154,128.141 205.460 C 128.439 204.767,129.175 202.670,129.777 200.800 C 130.379 198.930,131.013 197.220,131.186 197.000 C 131.358 196.780,131.620 195.761,131.769 194.735 C 132.283 191.180,133.086 190.800,140.093 190.800 C 145.501 190.800,146.188 190.880,147.238 191.627 M186.957 192.563 C 189.266 193.619,192.400 196.453,192.400 197.484 C 192.400 197.843,192.713 198.483,193.095 198.905 C 194.065 199.977,194.115 207.348,193.163 208.817 C 192.813 209.358,192.407 210.250,192.260 210.800 C 191.732 212.782,187.441 216.400,185.619 216.400 C 185.033 216.400,184.204 216.664,183.776 216.987 C 183.302 217.346,182.065 217.582,180.600 217.593 C 176.169 217.626,176.437 217.230,176.310 223.944 L 176.200 229.800 171.341 229.912 C 167.314 230.005,166.371 229.914,165.841 229.383 C 165.174 228.717,164.813 192.520,165.467 191.867 C 166.327 191.006,184.866 191.607,186.957 192.563 M212.304 210.691 L 212.408 229.583 211.504 229.808 C 208.724 230.499,201.831 229.818,201.317 228.800 C 200.596 227.373,200.572 192.788,201.291 192.069 C 201.641 191.719,203.279 191.610,206.991 191.689 L 212.200 191.800 212.304 210.691 M176.667 200.667 C 176.520 200.813,176.400 202.433,176.400 204.267 L 176.400 207.600 178.600 207.600 C 180.202 207.600,180.800 207.450,180.800 207.049 C 180.800 206.746,181.070 206.274,181.400 206.000 C 182.585 205.017,182.167 202.317,180.673 201.300 C 179.412 200.442,177.236 200.098,176.667 200.667 M140.004 203.607 C 139.708 204.373,139.241 205.990,138.967 207.200 C 138.692 208.410,138.283 210.110,138.058 210.978 C 137.507 213.103,137.628 213.200,140.824 213.200 C 143.606 213.200,144.243 212.803,143.173 211.733 C 142.939 211.499,142.501 210.248,142.200 208.953 C 141.900 207.659,141.404 205.613,141.098 204.407 L 140.543 202.215 140.004 203.607 " stroke="none" fill="#14242c" fill-rule="evenodd"></path><path id="path2" d="M134.400 192.257 C 133.777 192.427,132.619 194.913,132.189 197.000 C 132.053 197.660,131.708 198.830,131.423 199.600 C 131.137 200.370,130.596 201.990,130.220 203.200 C 129.844 204.410,129.296 206.030,129.002 206.800 C 128.707 207.570,127.805 210.360,126.996 213.000 C 126.186 215.640,125.285 218.430,124.993 219.200 C 123.989 221.841,122.400 227.250,122.400 228.025 C 122.400 228.748,122.717 228.800,127.151 228.800 L 131.903 228.800 132.333 227.700 C 132.569 227.095,132.964 225.790,133.210 224.800 C 133.879 222.108,134.168 222.000,140.691 222.000 L 146.428 222.000 147.165 223.719 C 147.571 224.665,148.030 226.195,148.186 227.119 L 148.470 228.800 153.435 228.800 C 157.848 228.800,158.400 228.724,158.400 228.118 C 158.400 227.454,156.657 221.828,155.204 217.800 C 154.807 216.700,153.812 213.640,152.992 211.000 C 152.173 208.360,151.350 205.840,151.164 205.400 C 150.484 203.798,147.600 194.698,147.600 194.157 C 147.600 192.310,138.828 191.047,134.400 192.257 M166.681 192.652 C 166.339 192.994,166.312 226.630,166.652 227.900 C 166.862 228.683,175.220 229.425,175.661 228.700 C 175.694 228.645,175.829 226.009,175.961 222.842 C 176.240 216.114,175.821 216.631,181.440 216.081 C 186.411 215.594,188.254 214.580,191.130 210.748 C 192.699 208.656,193.130 202.891,192.002 199.083 C 191.418 197.108,188.499 194.287,186.086 193.364 C 184.127 192.615,167.334 191.999,166.681 192.652 M202.267 192.667 C 201.811 193.122,201.953 227.166,202.414 228.026 C 202.785 228.719,203.287 228.800,207.214 228.800 L 211.600 228.800 211.600 210.600 L 211.600 192.400 207.067 192.400 C 204.573 192.400,202.413 192.520,202.267 192.667 M141.422 200.714 C 141.689 202.275,142.480 205.369,143.387 208.400 C 145.015 213.836,144.737 214.400,140.435 214.400 C 136.178 214.400,136.046 214.208,137.189 209.700 C 137.678 207.775,138.237 205.390,138.432 204.400 C 139.308 199.964,140.949 197.940,141.422 200.714 M181.881 200.644 C 185.240 202.741,182.573 208.557,178.239 208.586 L 176.200 208.600 176.087 204.330 C 175.976 200.153,175.994 200.056,176.887 199.910 C 178.356 199.671,180.928 200.049,181.881 200.644 " stroke="none" fill="#f6f6f7" fill-rule="evenodd"></path><path id="path3" d="M91.600 120.487 C 83.063 124.182,80.044 127.398,77.979 135.000 C 76.889 139.014,76.765 260.414,77.847 264.728 C 79.660 271.958,84.030 276.757,91.200 279.392 C 94.620 280.648,261.976 280.668,265.800 279.412 C 272.635 277.167,278.382 270.961,279.089 265.061 C 279.392 262.525,279.174 262.414,273.874 262.406 C 269.215 262.400,268.229 262.675,267.845 264.089 C 267.458 265.513,265.375 267.535,263.504 268.302 C 261.147 269.268,96.390 269.399,94.000 268.436 C 92.054 267.653,90.494 266.131,89.361 263.910 L 88.397 262.021 88.499 207.110 L 88.600 152.200 177.800 152.091 C 226.860 152.031,267.405 152.079,267.900 152.198 C 268.678 152.386,268.800 152.675,268.800 154.328 C 268.800 157.056,269.073 157.200,274.251 157.200 C 280.435 157.200,280.000 157.992,280.000 146.733 C 280.000 133.861,278.134 128.141,272.695 124.343 C 271.983 123.845,271.310 123.320,271.200 123.175 C 270.893 122.771,268.761 121.734,266.363 120.823 C 263.839 119.863,93.795 119.537,91.600 120.487 M263.545 121.225 C 275.490 124.077,278.933 130.023,278.708 147.410 L 278.600 155.800 274.200 155.800 L 269.800 155.800 269.674 153.810 C 269.605 152.716,269.358 151.591,269.125 151.310 C 268.785 150.899,251.139 150.800,178.541 150.800 L 88.380 150.800 87.983 151.844 C 87.726 152.521,87.624 172.363,87.693 208.344 L 87.800 263.800 88.878 265.457 C 89.470 266.368,90.820 267.718,91.878 268.457 L 93.800 269.800 178.658 269.800 C 258.914 269.800,263.558 269.762,264.289 269.100 C 264.715 268.715,265.255 268.400,265.490 268.400 C 266.086 268.400,268.400 265.696,268.400 265.000 C 268.400 263.974,269.879 263.600,273.931 263.600 C 278.670 263.600,278.888 263.816,277.538 267.175 C 275.099 273.248,270.573 277.228,264.400 278.727 C 260.186 279.750,96.168 279.698,92.469 278.672 C 87.930 277.413,80.400 271.634,80.400 269.410 C 80.400 269.131,79.995 268.024,79.500 266.951 L 78.600 265.000 78.488 202.000 C 78.371 136.838,78.403 135.385,80.024 131.966 C 81.451 128.953,81.822 128.435,84.088 126.287 C 87.477 123.073,88.604 122.472,93.600 121.217 C 98.525 119.980,258.362 119.987,263.545 121.225 M222.583 132.745 C 219.007 134.926,219.214 139.075,222.985 140.793 C 225.923 142.132,245.026 142.018,247.606 140.647 C 250.851 138.922,251.074 134.956,248.041 132.915 C 246.120 131.622,224.659 131.479,222.583 132.745 M255.692 132.784 C 250.876 136.800,256.319 144.265,261.229 140.377 C 264.882 137.484,262.980 131.978,258.338 132.013 C 257.235 132.022,256.268 132.303,255.692 132.784 M261.232 134.229 C 263.161 135.974,262.056 139.728,259.472 140.213 C 256.900 140.695,254.835 139.215,254.813 136.874 C 254.779 133.388,258.575 131.825,261.232 134.229 M248.168 134.370 C 249.448 135.573,249.532 137.470,248.371 138.946 L 247.542 140.000 235.671 139.995 C 222.106 139.988,222.194 140.000,221.586 138.158 C 220.122 133.721,221.560 133.235,235.868 133.327 L 247.137 133.400 248.168 134.370 M269.360 162.706 C 268.461 163.306,268.097 164.702,267.822 168.600 C 267.504 173.099,267.115 173.836,264.845 174.244 C 264.050 174.387,262.950 174.720,262.400 174.984 C 261.850 175.248,260.009 176.141,258.310 176.967 L 255.220 178.468 253.910 177.545 C 252.368 176.458,251.801 176.016,250.881 175.185 C 246.945 171.628,246.278 171.653,242.315 175.500 C 238.052 179.639,237.488 180.454,237.984 181.758 C 238.414 182.890,242.283 188.012,243.091 188.520 C 243.719 188.914,243.764 191.051,243.153 191.429 C 242.477 191.847,240.038 197.423,239.754 199.200 C 239.371 201.596,238.621 202.018,234.038 202.416 C 227.785 202.959,227.583 203.188,227.640 209.674 C 227.700 216.455,228.902 217.536,236.438 217.588 C 238.594 217.602,239.370 218.284,239.770 220.511 C 240.097 222.339,242.777 228.400,243.257 228.400 C 243.693 228.400,243.710 230.688,243.276 230.867 C 243.098 230.940,242.196 231.990,241.273 233.200 C 240.349 234.410,239.370 235.656,239.097 235.970 C 237.065 238.299,237.373 239.169,241.769 243.528 C 245.705 247.430,246.673 247.869,248.319 246.500 C 248.781 246.115,249.630 245.440,250.205 245.000 C 250.780 244.560,251.565 243.919,251.950 243.576 C 254.526 241.275,255.480 241.141,258.250 242.693 C 260.349 243.869,263.540 245.132,265.276 245.472 C 267.174 245.845,267.541 246.683,267.842 251.326 C 268.228 257.306,268.573 257.600,275.186 257.600 C 281.470 257.600,282.718 256.287,282.791 249.600 C 282.821 246.873,283.166 246.020,284.348 245.754 C 286.013 245.378,290.435 243.614,292.350 242.562 C 294.642 241.302,295.607 241.349,297.246 242.796 C 297.991 243.454,298.915 244.096,299.300 244.223 C 299.685 244.350,300.000 244.597,300.000 244.773 C 300.000 245.347,303.022 247.200,303.959 247.200 C 304.577 247.200,306.097 245.996,308.630 243.500 C 313.664 238.541,313.667 238.785,308.500 232.422 C 306.459 229.908,306.460 229.914,308.113 226.729 C 309.571 223.918,310.606 221.259,310.998 219.313 C 311.213 218.246,311.476 217.993,312.529 217.838 C 313.228 217.734,315.087 217.460,316.660 217.228 C 318.233 216.996,320.213 216.579,321.060 216.301 L 322.600 215.797 322.600 210.041 C 322.600 202.865,322.645 202.921,316.454 202.442 C 311.953 202.093,311.364 201.792,310.798 199.556 C 310.260 197.432,309.379 195.219,308.867 194.707 C 308.610 194.450,308.399 193.961,308.397 193.620 C 308.396 193.279,308.037 192.460,307.600 191.800 C 306.291 189.823,306.226 189.988,310.300 184.914 C 313.302 181.175,313.233 180.749,308.914 176.335 C 304.358 171.679,303.888 171.578,300.331 174.490 C 299.599 175.090,298.148 176.221,297.106 177.004 L 295.212 178.428 292.480 177.014 C 290.977 176.236,289.490 175.594,289.174 175.587 C 288.858 175.580,288.251 175.310,287.824 174.987 C 287.396 174.664,286.566 174.400,285.977 174.400 C 284.024 174.400,282.800 173.012,282.800 170.797 C 282.800 168.256,281.711 163.118,281.088 162.722 C 280.467 162.328,269.948 162.313,269.360 162.706 M280.571 163.829 C 280.917 164.174,281.200 165.119,281.200 165.929 C 281.200 170.951,282.568 174.592,284.597 174.973 C 285.350 175.114,286.469 175.492,287.083 175.812 C 287.697 176.133,288.426 176.396,288.702 176.398 C 288.977 176.399,290.439 177.055,291.949 177.857 C 295.079 179.517,295.886 179.484,297.925 177.615 C 298.653 176.947,299.409 176.400,299.605 176.400 C 299.800 176.400,300.104 176.175,300.280 175.900 C 300.814 175.065,303.121 173.600,303.901 173.600 C 305.039 173.600,311.600 180.284,311.600 181.443 C 311.600 181.970,311.463 182.400,311.295 182.400 C 310.879 182.400,307.600 186.633,307.600 187.170 C 307.600 187.406,307.425 187.600,307.210 187.600 C 305.604 187.600,305.591 190.646,307.187 193.200 C 307.777 194.144,308.687 196.375,309.634 199.200 C 310.767 202.579,310.870 202.685,313.320 202.987 C 315.318 203.234,318.800 203.818,320.711 204.226 C 321.613 204.419,321.621 204.480,321.511 209.910 L 321.400 215.400 319.600 215.677 C 318.610 215.829,316.360 216.159,314.600 216.410 C 310.844 216.946,310.755 217.017,309.629 220.400 C 308.622 223.423,307.931 225.055,306.524 227.739 C 305.478 229.734,305.608 230.877,307.030 232.200 C 308.224 233.311,311.600 237.994,311.600 238.540 C 311.600 239.278,305.364 245.559,304.201 245.993 C 303.610 246.213,302.973 245.939,301.760 244.946 C 300.857 244.205,299.911 243.600,299.659 243.600 C 299.406 243.600,299.200 243.458,299.200 243.285 C 299.200 243.112,298.300 242.299,297.200 241.477 L 295.199 239.984 293.700 240.796 C 292.875 241.243,291.930 241.760,291.600 241.946 C 290.259 242.699,288.074 243.572,285.903 244.221 C 282.366 245.278,281.663 246.744,281.117 254.200 L 281.000 255.800 275.424 255.800 L 269.848 255.800 269.129 253.400 C 268.734 252.080,268.408 249.879,268.405 248.509 C 268.399 245.640,268.108 245.326,264.400 244.187 C 263.190 243.815,260.652 242.744,258.761 241.806 C 254.812 239.847,255.346 239.743,250.600 243.401 C 246.140 246.839,246.621 246.873,242.438 242.816 C 238.550 239.045,238.362 238.665,239.600 237.091 C 240.040 236.531,240.400 235.892,240.400 235.670 C 240.400 235.448,240.560 235.207,240.756 235.133 C 242.930 234.320,245.097 229.055,243.844 227.631 C 243.538 227.284,242.892 226.010,242.408 224.800 C 241.923 223.590,241.274 222.122,240.964 221.538 C 240.654 220.954,240.400 220.049,240.400 219.527 C 240.400 217.180,239.087 216.646,231.208 215.787 C 230.002 215.655,228.879 215.335,228.714 215.074 C 228.412 214.600,228.261 204.400,228.556 204.400 C 228.642 204.400,230.127 204.142,231.856 203.828 C 233.585 203.513,235.947 203.136,237.104 202.990 C 239.385 202.701,240.400 201.803,240.400 200.073 C 240.400 199.551,240.649 198.646,240.952 198.062 C 241.256 197.478,241.931 196.010,242.451 194.800 C 242.971 193.590,243.623 192.362,243.899 192.071 C 245.129 190.774,244.501 188.906,241.600 185.227 C 238.136 180.836,238.108 181.215,242.202 177.056 C 246.081 173.115,246.552 172.973,249.026 175.000 C 249.966 175.770,250.828 176.400,250.943 176.400 C 251.057 176.400,251.747 176.947,252.475 177.615 C 254.519 179.489,258.836 179.006,260.232 176.748 C 260.350 176.557,260.842 176.399,261.324 176.398 C 261.806 176.396,262.703 176.133,263.317 175.812 C 263.931 175.492,265.066 175.111,265.840 174.966 C 267.692 174.619,268.268 173.594,268.521 170.200 C 268.635 168.660,269.022 166.455,269.380 165.300 L 270.031 163.200 274.987 163.200 C 278.959 163.200,280.068 163.325,280.571 163.829 M272.000 183.143 C 271.670 183.335,270.332 183.613,269.026 183.759 C 267.721 183.905,266.461 184.177,266.226 184.363 C 265.992 184.550,265.350 184.839,264.800 185.007 C 261.899 185.890,252.802 193.412,252.800 194.929 C 252.800 195.109,252.530 195.527,252.200 195.857 C 251.870 196.187,251.600 196.804,251.600 197.229 C 251.600 197.653,251.453 198.000,251.274 198.000 C 250.701 198.000,249.268 202.083,248.562 205.730 C 246.845 214.599,251.642 226.158,259.218 231.403 C 261.878 233.245,264.696 234.798,265.385 234.802 C 265.613 234.804,266.340 235.119,267.000 235.502 C 268.768 236.530,281.610 236.524,283.400 235.495 C 284.060 235.115,284.810 234.804,285.068 234.802 C 285.566 234.800,288.064 233.565,288.400 233.156 C 288.510 233.022,289.140 232.635,289.800 232.296 C 291.403 231.475,296.400 226.809,296.400 226.135 C 296.400 225.841,296.574 225.600,296.786 225.600 C 297.292 225.600,300.388 220.011,300.395 219.086 C 300.398 218.693,300.687 217.934,301.037 217.400 C 301.841 216.173,302.273 207.899,301.685 205.000 C 300.877 201.018,298.257 195.148,296.900 194.280 C 296.625 194.104,296.400 193.720,296.400 193.426 C 296.400 192.746,291.514 188.153,290.421 187.807 C 289.970 187.663,289.600 187.403,289.600 187.229 C 289.600 185.352,274.300 181.800,272.000 183.143 M280.000 184.382 C 281.958 184.745,285.100 185.880,287.000 186.910 C 287.660 187.268,288.650 187.787,289.200 188.064 C 291.241 189.092,296.628 194.933,297.811 197.400 C 298.444 198.720,299.090 199.891,299.245 200.001 C 299.545 200.215,300.177 202.978,300.870 207.110 C 301.466 210.663,300.501 217.138,298.891 220.397 C 297.196 223.826,291.987 230.400,290.965 230.400 C 290.894 230.400,290.153 230.868,289.318 231.441 C 287.454 232.718,284.147 234.219,282.344 234.605 C 281.605 234.763,280.787 235.063,280.527 235.272 C 279.906 235.772,270.501 235.779,269.881 235.279 C 269.616 235.066,268.770 234.769,268.000 234.619 C 266.690 234.363,260.841 231.700,260.400 231.159 C 260.290 231.024,259.300 230.142,258.200 229.200 C 249.770 221.981,246.844 208.263,251.758 199.000 C 252.109 198.340,252.396 197.648,252.398 197.463 C 252.402 196.814,256.713 191.581,258.247 190.363 C 259.098 189.687,259.885 188.989,259.997 188.812 C 260.281 188.364,265.465 185.600,266.022 185.600 C 266.274 185.600,267.046 185.338,267.740 185.017 C 269.730 184.098,276.559 183.743,280.000 184.382 M133.862 191.100 C 133.760 191.265,136.612 191.400,140.200 191.400 C 143.788 191.400,146.640 191.265,146.538 191.100 C 146.436 190.935,143.584 190.800,140.200 190.800 C 136.816 190.800,133.964 190.935,133.862 191.100 M165.383 192.100 C 165.278 192.375,165.240 200.790,165.300 210.800 L 165.408 229.000 165.504 210.533 C 165.579 196.207,165.712 192.021,166.100 191.865 C 166.492 191.707,166.489 191.656,166.087 191.632 C 165.806 191.614,165.489 191.825,165.383 192.100 M201.245 192.146 C 200.919 192.539,200.822 197.665,200.900 210.446 L 201.009 228.200 201.104 210.380 C 201.175 197.163,201.324 192.436,201.680 192.080 C 201.944 191.816,202.056 191.600,201.929 191.600 C 201.802 191.600,201.494 191.846,201.245 192.146 M193.728 204.000 C 193.728 205.430,193.801 206.015,193.889 205.300 C 193.978 204.585,193.978 203.415,193.889 202.700 C 193.801 201.985,193.728 202.570,193.728 204.000 M182.101 203.800 C 182.105 204.680,182.187 204.993,182.283 204.495 C 182.379 203.998,182.375 203.278,182.275 202.895 C 182.175 202.513,182.096 202.920,182.101 203.800 M177.505 207.883 C 178.002 207.979,178.722 207.975,179.105 207.875 C 179.487 207.775,179.080 207.696,178.200 207.701 C 177.320 207.705,177.007 207.787,177.505 207.883 M142.432 210.024 C 142.414 210.366,142.680 210.996,143.022 211.424 C 143.634 212.188,143.638 212.187,143.276 211.400 C 143.074 210.960,142.808 210.330,142.686 210.000 C 142.493 209.482,142.459 209.485,142.432 210.024 M155.524 215.800 C 155.726 216.240,155.992 216.870,156.114 217.200 C 156.307 217.718,156.341 217.715,156.368 217.176 C 156.386 216.834,156.120 216.204,155.778 215.776 C 155.166 215.012,155.162 215.013,155.524 215.800 M182.000 217.200 L 181.000 217.520 182.076 217.560 C 182.668 217.582,183.264 217.420,183.400 217.200 C 183.681 216.745,183.420 216.745,182.000 217.200 M137.700 223.097 C 139.185 223.174,141.615 223.174,143.100 223.097 C 144.585 223.020,143.370 222.957,140.400 222.957 C 137.430 222.957,136.215 223.020,137.700 223.097 M146.402 225.624 C 146.401 225.966,146.664 226.596,146.987 227.024 C 147.751 228.034,147.759 227.596,147.002 226.146 C 146.674 225.516,146.404 225.281,146.402 225.624 M159.301 228.086 C 159.770 229.309,158.706 229.599,153.420 229.687 L 148.200 229.774 153.304 229.899 C 159.122 230.041,161.760 229.135,159.532 227.758 C 159.225 227.568,159.145 227.681,159.301 228.086 M121.551 229.712 C 121.724 229.884,124.190 229.974,127.032 229.911 L 132.200 229.797 126.719 229.598 C 123.704 229.489,121.379 229.541,121.551 229.712 M171.200 229.600 L 166.200 229.838 171.076 229.919 C 173.987 229.967,176.052 229.839,176.200 229.600 C 176.336 229.380,176.392 229.236,176.324 229.281 C 176.256 229.326,173.950 229.469,171.200 229.600 M204.300 229.896 C 205.675 229.974,207.925 229.974,209.300 229.896 C 210.675 229.818,209.550 229.754,206.800 229.754 C 204.050 229.754,202.925 229.818,204.300 229.896 " stroke="none" fill="#1c7168" fill-rule="evenodd"></path><path id="path4" d="M134.296 191.463 C 133.061 191.677,132.265 192.929,131.826 195.349 C 131.672 196.201,131.380 197.191,131.177 197.549 C 130.680 198.428,127.600 207.952,127.600 208.611 C 127.600 208.899,127.345 209.645,127.034 210.268 C 126.335 211.668,123.600 220.188,123.600 220.967 C 123.600 221.279,123.348 222.045,123.041 222.668 C 120.001 228.823,120.442 229.600,126.978 229.600 C 133.076 229.600,133.213 229.532,133.785 226.200 C 134.347 222.923,134.578 222.800,140.177 222.800 C 145.720 222.800,146.400 222.940,146.400 224.082 C 146.400 224.521,146.653 225.446,146.962 226.140 C 147.272 226.833,147.635 227.895,147.770 228.500 L 148.015 229.600 153.328 229.600 C 159.389 229.600,159.668 229.480,159.136 227.114 C 158.610 224.770,157.199 220.664,156.768 220.220 C 156.566 220.011,156.400 219.488,156.400 219.058 C 156.400 218.200,153.780 209.999,152.994 208.400 C 152.724 207.850,152.383 206.733,152.237 205.917 C 152.090 205.101,151.708 203.931,151.388 203.317 C 151.067 202.703,150.804 201.806,150.802 201.324 C 150.801 200.842,150.636 200.346,150.435 200.222 C 150.234 200.097,149.951 199.293,149.806 198.435 C 149.661 197.576,149.291 196.542,148.984 196.137 C 148.677 195.732,148.420 194.925,148.413 194.344 C 148.381 191.716,141.253 190.261,134.296 191.463 M166.096 191.912 C 165.700 192.179,165.614 196.241,165.696 210.826 L 165.800 229.400 171.000 229.400 L 176.200 229.400 176.400 223.600 L 176.600 217.800 179.200 217.548 C 186.284 216.860,191.262 213.983,192.405 209.917 C 192.634 209.101,192.997 208.326,193.211 208.193 C 193.863 207.790,193.694 200.278,193.013 199.376 C 192.690 198.949,192.420 198.254,192.413 197.831 C 192.396 196.843,189.308 193.881,187.105 192.741 C 185.287 191.800,167.311 191.090,166.096 191.912 M201.680 192.080 C 201.172 192.588,200.946 227.673,201.443 228.967 C 201.805 229.911,211.795 229.911,212.157 228.967 C 212.291 228.619,212.400 220.354,212.400 210.600 C 212.400 200.846,212.291 192.581,212.157 192.233 C 211.846 191.423,202.474 191.286,201.680 192.080 M146.800 192.800 C 147.240 193.240,147.600 193.851,147.600 194.157 C 147.600 194.698,150.484 203.798,151.164 205.400 C 151.350 205.840,152.173 208.360,152.992 211.000 C 153.812 213.640,154.807 216.700,155.204 217.800 C 156.657 221.828,158.400 227.454,158.400 228.118 C 158.400 228.724,157.848 228.800,153.435 228.800 L 148.470 228.800 148.186 227.119 C 148.030 226.195,147.571 224.665,147.165 223.719 L 146.428 222.000 140.691 222.000 C 134.168 222.000,133.879 222.108,133.210 224.800 C 132.964 225.790,132.569 227.095,132.333 227.700 L 131.903 228.800 127.151 228.800 C 122.717 228.800,122.400 228.748,122.400 228.025 C 122.400 227.250,123.989 221.841,124.993 219.200 C 125.285 218.430,126.186 215.640,126.996 213.000 C 127.805 210.360,128.707 207.570,129.002 206.800 C 129.296 206.030,129.844 204.410,130.220 203.200 C 130.596 201.990,131.137 200.370,131.423 199.600 C 131.708 198.830,132.053 197.660,132.189 197.000 C 132.619 194.913,133.777 192.427,134.400 192.257 C 136.696 191.630,146.039 192.039,146.800 192.800 M186.086 193.364 C 188.499 194.287,191.418 197.108,192.002 199.083 C 193.130 202.891,192.699 208.656,191.130 210.748 C 188.254 214.580,186.411 215.594,181.440 216.081 C 175.821 216.631,176.240 216.114,175.961 222.842 C 175.829 226.009,175.694 228.645,175.661 228.700 C 175.220 229.425,166.862 228.683,166.652 227.900 C 166.312 226.630,166.339 192.994,166.681 192.652 C 167.334 191.999,184.127 192.615,186.086 193.364 M211.600 210.600 L 211.600 228.800 207.214 228.800 C 203.287 228.800,202.785 228.719,202.414 228.026 C 201.953 227.166,201.811 193.122,202.267 192.667 C 202.413 192.520,204.573 192.400,207.067 192.400 L 211.600 192.400 211.600 210.600 M139.655 200.714 C 139.178 201.752,138.628 203.410,138.432 204.400 C 138.237 205.390,137.678 207.775,137.189 209.700 C 136.046 214.208,136.178 214.400,140.435 214.400 C 144.737 214.400,145.015 213.836,143.387 208.400 C 142.480 205.369,141.689 202.275,141.422 200.714 C 141.058 198.576,140.639 198.576,139.655 200.714 M176.887 199.910 C 175.994 200.056,175.976 200.153,176.087 204.330 L 176.200 208.600 178.239 208.586 C 180.832 208.569,182.225 207.676,182.835 205.640 C 184.045 201.603,181.505 199.157,176.887 199.910 M181.278 201.475 C 184.013 204.095,181.220 208.675,177.340 207.932 C 176.694 207.809,176.585 207.322,176.485 204.095 L 176.370 200.400 178.263 200.400 C 179.773 200.400,180.384 200.618,181.278 201.475 M143.009 210.454 C 143.895 213.234,143.925 213.200,140.600 213.200 C 137.854 213.200,137.600 213.131,137.600 212.389 C 137.600 211.272,139.113 205.361,139.917 203.339 L 140.577 201.679 141.498 205.139 C 142.004 207.043,142.684 209.434,143.009 210.454 " stroke="none" fill="#747c84" fill-rule="evenodd"></path></g></svg>