<svg id="svg" version="1.1" xmlns="http://www.w3.org/2000/svg" xmlns:xlink="http://www.w3.org/1999/xlink" width="400" height="400" viewBox="0, 0, 400,400"><g id="svgg"><path id="path0" d="M106.974 104.900 C 107.129 106.495,107.396 109.690,107.569 112.000 C 108.129 119.513,108.819 126.942,109.214 129.707 C 109.426 131.197,109.601 133.537,109.603 134.907 C 109.605 136.278,109.788 138.523,110.011 139.897 C 110.393 142.249,110.773 146.582,111.583 157.800 C 111.774 160.440,112.040 163.050,112.175 163.600 C 112.403 164.533,112.732 168.403,113.583 180.200 C 113.774 182.840,114.040 185.450,114.175 186.000 C 114.419 186.996,114.945 193.294,115.577 202.800 C 115.761 205.550,116.018 208.070,116.150 208.400 C 116.371 208.951,116.769 213.467,117.615 225.000 C 117.793 227.420,118.235 232.460,118.598 236.200 C 118.962 239.940,119.409 244.980,119.593 247.400 C 119.778 249.820,120.223 254.860,120.583 258.600 C 120.943 262.340,121.402 267.470,121.604 270.000 C 121.805 272.530,122.255 277.570,122.605 281.200 C 122.954 284.830,123.342 289.252,123.466 291.026 L 123.693 294.253 125.546 294.762 C 126.566 295.042,128.210 295.513,129.200 295.808 C 130.190 296.103,131.810 296.556,132.800 296.814 C 133.790 297.072,135.326 297.534,136.213 297.841 C 137.101 298.149,138.138 298.400,138.519 298.400 C 138.899 298.400,139.523 298.560,139.905 298.757 C 140.530 299.077,141.796 299.451,147.000 300.852 C 147.880 301.089,149.326 301.534,150.213 301.841 C 151.101 302.149,152.138 302.400,152.519 302.400 C 152.899 302.400,153.523 302.559,153.905 302.753 C 154.287 302.947,155.410 303.315,156.400 303.571 C 158.342 304.073,159.396 304.372,162.800 305.388 C 164.010 305.748,165.450 306.137,166.000 306.252 C 166.550 306.366,167.360 306.603,167.800 306.777 C 168.956 307.234,171.989 308.032,173.504 308.277 C 174.221 308.393,174.906 308.649,175.027 308.844 C 175.148 309.040,175.636 309.200,176.110 309.200 C 176.585 309.200,177.699 309.451,178.587 309.759 C 179.474 310.066,181.010 310.528,182.000 310.786 C 182.990 311.044,184.610 311.492,185.600 311.781 C 186.590 312.070,188.210 312.528,189.200 312.800 C 190.190 313.071,191.450 313.438,192.000 313.614 C 192.550 313.791,194.080 314.233,195.400 314.596 C 196.720 314.959,198.430 315.435,199.200 315.654 C 200.609 316.054,201.629 315.868,207.400 314.153 C 208.500 313.826,210.030 313.409,210.800 313.226 C 211.570 313.043,213.370 312.515,214.800 312.052 C 216.230 311.589,217.717 311.208,218.105 311.205 C 218.493 311.202,219.123 311.042,219.505 310.850 C 220.155 310.522,222.457 309.832,226.200 308.844 C 229.662 307.930,232.638 307.086,233.400 306.803 C 234.320 306.462,237.332 305.649,238.800 305.346 C 239.350 305.233,240.160 304.987,240.600 304.800 C 241.040 304.613,241.850 304.366,242.400 304.252 C 242.950 304.137,244.300 303.776,245.400 303.448 C 247.373 302.861,251.060 301.821,253.400 301.191 C 254.060 301.014,255.590 300.569,256.800 300.203 C 258.010 299.837,259.587 299.442,260.304 299.325 C 261.021 299.207,261.706 298.951,261.827 298.756 C 261.948 298.560,262.436 298.400,262.910 298.400 C 263.385 298.400,264.499 298.149,265.387 297.841 C 266.274 297.534,267.810 297.069,268.800 296.808 C 278.660 294.208,278.287 294.505,278.363 289.200 C 278.387 287.550,278.591 285.060,278.817 283.666 C 279.223 281.165,279.698 275.756,280.367 266.000 C 280.556 263.250,280.819 260.730,280.952 260.400 C 281.084 260.070,281.390 257.280,281.630 254.200 C 281.870 251.120,282.221 246.620,282.409 244.200 C 282.597 241.780,283.048 236.830,283.413 233.200 C 283.777 229.570,284.219 224.710,284.394 222.400 C 285.003 214.397,285.603 207.794,285.831 206.600 C 285.957 205.940,286.219 203.240,286.413 200.600 C 286.607 197.960,287.051 192.920,287.398 189.400 C 287.746 185.880,288.195 180.930,288.397 178.400 C 288.598 175.870,289.048 170.920,289.397 167.400 C 289.745 163.880,290.197 158.930,290.400 156.400 C 290.603 153.870,291.059 148.830,291.414 145.200 C 291.769 141.570,292.212 136.620,292.400 134.200 C 292.588 131.780,293.038 126.830,293.400 123.200 C 293.762 119.570,294.214 114.620,294.405 112.200 C 294.595 109.780,294.876 106.495,295.029 104.900 L 295.307 102.000 201.000 102.000 L 106.693 102.000 106.974 104.900 M260.206 141.063 C 260.655 141.512,260.787 142.061,260.614 142.763 C 260.474 143.333,260.208 146.050,260.023 148.800 C 259.351 158.794,258.723 163.773,258.068 164.300 C 257.580 164.693,247.936 164.800,212.883 164.800 L 168.320 164.800 168.540 169.900 C 168.718 174.007,169.779 187.496,169.956 187.900 C 169.980 187.955,189.134 188.000,212.520 188.000 C 245.058 188.000,255.153 188.113,255.520 188.480 C 256.110 189.070,256.134 193.188,255.569 197.000 C 255.175 199.660,254.906 202.620,254.031 213.934 C 253.820 216.648,253.537 219.378,253.400 220.000 C 253.152 221.127,252.701 226.424,252.028 236.078 C 251.834 238.870,251.575 241.316,251.454 241.513 C 251.221 241.890,250.473 250.172,250.050 257.060 C 249.770 261.602,249.281 262.567,247.075 262.926 C 245.581 263.169,242.543 263.971,241.400 264.423 C 240.960 264.597,240.150 264.830,239.600 264.941 C 237.834 265.295,235.024 266.058,234.200 266.407 C 233.760 266.593,232.860 266.836,232.200 266.946 C 231.540 267.056,230.010 267.445,228.800 267.811 C 227.590 268.177,225.970 268.629,225.200 268.816 C 222.706 269.420,220.219 270.100,219.400 270.400 C 218.626 270.684,216.499 271.269,213.600 271.996 C 211.945 272.411,210.267 272.868,207.000 273.795 C 200.721 275.576,200.672 275.576,194.800 273.818 C 193.590 273.455,191.970 273.005,191.200 272.818 C 190.430 272.630,188.810 272.179,187.600 271.816 C 186.390 271.453,184.950 271.063,184.400 270.948 C 183.850 270.834,183.040 270.597,182.600 270.423 C 182.160 270.249,180.990 269.894,180.000 269.635 C 179.010 269.376,177.660 269.003,177.000 268.808 C 174.972 268.206,171.054 267.165,170.000 266.947 C 169.450 266.833,168.640 266.596,168.200 266.420 C 166.592 265.776,162.907 264.800,162.088 264.800 C 161.626 264.800,161.136 264.620,161.000 264.400 C 160.864 264.180,160.364 264.000,159.890 264.000 C 159.415 264.000,158.301 263.749,157.413 263.441 C 156.526 263.134,155.024 262.652,154.075 262.369 C 151.728 261.670,151.559 261.190,151.156 254.041 C 150.962 250.608,150.697 247.350,150.567 246.800 C 150.232 245.386,149.502 233.406,149.447 228.400 L 149.400 224.200 160.846 224.094 C 169.704 224.012,172.381 224.102,172.685 224.494 C 173.107 225.037,173.973 232.667,174.296 238.690 C 174.515 242.761,174.721 243.123,177.107 243.623 C 177.928 243.795,179.590 244.235,180.800 244.600 C 182.010 244.965,183.630 245.416,184.400 245.602 C 185.170 245.788,186.880 246.233,188.200 246.592 C 189.520 246.950,191.230 247.400,192.000 247.590 C 192.770 247.781,194.390 248.237,195.600 248.604 C 200.508 250.093,201.129 250.047,209.400 247.592 C 211.054 247.101,215.109 246.010,216.800 245.602 C 217.570 245.416,219.190 244.965,220.400 244.600 C 221.610 244.235,223.272 243.795,224.093 243.623 C 226.428 243.133,226.720 242.686,226.930 239.276 C 227.293 233.389,227.934 226.182,228.342 223.400 C 228.568 221.860,228.831 218.935,228.926 216.900 L 229.100 213.200 189.050 213.194 C 167.022 213.191,148.772 213.043,148.493 212.866 C 147.688 212.355,147.200 210.055,147.200 206.776 C 147.200 205.110,147.022 202.769,146.804 201.573 C 146.443 199.590,146.040 195.156,145.223 184.200 C 144.687 177.012,143.981 169.454,143.586 166.693 C 143.374 165.203,143.200 162.852,143.200 161.466 C 143.200 160.081,143.023 157.969,142.806 156.773 C 142.589 155.578,142.236 152.080,142.022 149.000 C 141.807 145.920,141.521 143.022,141.385 142.560 C 141.231 142.037,141.387 141.470,141.798 141.060 C 142.817 140.040,259.187 140.044,260.206 141.063 " stroke="none" fill="#fcfafa" fill-rule="evenodd"></path><path id="path1" d="M180.600 2.000 C 180.464 2.220,178.731 2.400,176.748 2.400 C 174.077 2.400,172.987 2.555,172.543 3.000 C 172.117 3.426,171.079 3.600,168.971 3.600 C 167.257 3.600,166.000 3.769,166.000 4.000 C 166.000 4.226,164.867 4.400,163.400 4.400 C 161.356 4.400,160.800 4.528,160.800 5.000 C 160.800 5.467,160.267 5.600,158.400 5.600 C 157.067 5.600,156.000 5.778,156.000 6.000 C 156.000 6.220,155.094 6.400,153.987 6.400 C 152.568 6.400,151.907 6.577,151.745 7.000 C 151.588 7.407,150.950 7.600,149.757 7.600 C 148.791 7.600,148.000 7.780,148.000 8.000 C 148.000 8.220,147.299 8.400,146.443 8.400 C 145.428 8.400,144.805 8.609,144.655 9.000 C 144.498 9.411,143.855 9.600,142.613 9.600 C 141.616 9.600,140.800 9.780,140.800 10.000 C 140.800 10.220,140.170 10.400,139.400 10.400 C 138.422 10.400,138.000 10.581,138.000 11.000 C 138.000 11.435,137.553 11.600,136.376 11.600 C 135.396 11.600,134.851 11.758,135.000 12.000 C 135.147 12.238,134.667 12.400,133.811 12.400 C 132.903 12.400,132.290 12.621,132.145 13.000 C 132.018 13.330,131.484 13.600,130.957 13.600 C 130.431 13.600,130.000 13.780,130.000 14.000 C 130.000 14.220,129.473 14.400,128.829 14.400 C 128.184 14.400,127.387 14.670,127.057 15.000 C 126.727 15.330,126.095 15.600,125.652 15.600 C 125.209 15.600,124.736 15.780,124.600 16.000 C 124.464 16.220,123.823 16.400,123.176 16.400 C 122.397 16.400,122.000 16.603,122.000 17.000 C 122.000 17.373,121.622 17.600,121.000 17.600 C 120.450 17.600,120.000 17.780,120.000 18.000 C 120.000 18.220,119.550 18.400,119.000 18.400 C 118.378 18.400,118.000 18.627,118.000 19.000 C 118.000 19.397,117.603 19.600,116.824 19.600 C 116.177 19.600,115.536 19.780,115.400 20.000 C 115.264 20.220,114.713 20.400,114.176 20.400 C 113.639 20.400,113.200 20.577,113.200 20.792 C 113.200 21.008,112.750 21.298,112.200 21.436 C 111.650 21.574,111.200 21.847,111.200 22.043 C 111.200 22.240,110.926 22.400,110.592 22.400 C 110.258 22.400,109.313 22.815,108.492 23.323 C 107.671 23.831,106.325 24.560,105.500 24.942 C 104.675 25.325,104.000 25.809,104.000 26.019 C 104.000 26.228,103.745 26.400,103.432 26.400 C 102.727 26.400,100.514 27.566,99.448 28.500 C 99.009 28.885,98.323 29.200,97.925 29.200 C 97.526 29.200,97.200 29.470,97.200 29.800 C 97.200 30.173,96.822 30.400,96.200 30.400 C 95.650 30.400,95.200 30.580,95.200 30.800 C 95.200 31.020,94.930 31.200,94.600 31.200 C 94.270 31.200,94.000 31.470,94.000 31.800 C 94.000 32.157,93.633 32.400,93.095 32.400 C 92.596 32.400,91.853 32.849,91.439 33.400 C 91.026 33.950,90.353 34.400,89.944 34.400 C 89.535 34.400,89.200 34.580,89.200 34.800 C 89.200 35.020,88.949 35.200,88.643 35.200 C 88.336 35.200,87.982 35.470,87.855 35.800 C 87.729 36.130,87.337 36.400,86.984 36.400 C 86.255 36.400,85.200 37.329,85.200 37.971 C 85.200 38.207,84.831 38.400,84.380 38.400 C 83.929 38.400,82.912 39.030,82.119 39.800 C 81.326 40.570,80.429 41.200,80.126 41.200 C 79.823 41.200,79.471 41.470,79.345 41.800 C 79.218 42.130,78.941 42.400,78.729 42.400 C 78.245 42.400,77.200 43.423,77.200 43.897 C 77.200 44.091,76.570 44.498,75.800 44.800 C 75.030 45.102,74.087 45.766,73.705 46.275 C 73.323 46.784,72.783 47.200,72.505 47.200 C 72.227 47.200,72.000 47.393,72.000 47.629 C 72.000 48.162,70.990 49.200,70.471 49.200 C 70.259 49.200,69.982 49.470,69.855 49.800 C 69.729 50.130,69.349 50.400,69.013 50.400 C 68.676 50.400,68.400 50.580,68.400 50.800 C 68.400 51.020,68.130 51.200,67.800 51.200 C 67.470 51.200,67.200 51.440,67.200 51.732 C 67.200 52.025,66.750 52.506,66.200 52.800 C 65.650 53.094,65.200 53.544,65.200 53.800 C 65.200 54.056,64.750 54.506,64.200 54.800 C 63.650 55.094,63.200 55.544,63.200 55.800 C 63.200 56.056,62.750 56.506,62.200 56.800 C 61.650 57.094,61.200 57.498,61.200 57.696 C 61.200 58.195,60.150 59.200,59.629 59.200 C 59.393 59.200,59.200 59.393,59.200 59.629 C 59.200 60.150,58.195 61.200,57.696 61.200 C 57.498 61.200,57.094 61.650,56.800 62.200 C 56.506 62.750,56.056 63.200,55.800 63.200 C 55.544 63.200,55.094 63.650,54.800 64.200 C 54.506 64.750,54.056 65.200,53.800 65.200 C 53.544 65.200,53.094 65.650,52.800 66.200 C 52.506 66.750,52.025 67.200,51.732 67.200 C 51.440 67.200,51.200 67.470,51.200 67.800 C 51.200 68.130,51.020 68.400,50.800 68.400 C 50.580 68.400,50.400 68.676,50.400 69.013 C 50.400 69.349,50.130 69.729,49.800 69.855 C 49.470 69.982,49.200 70.259,49.200 70.471 C 49.200 70.990,48.162 72.000,47.629 72.000 C 47.393 72.000,47.200 72.227,47.200 72.505 C 47.200 72.783,46.784 73.323,46.275 73.705 C 45.766 74.087,45.102 75.030,44.800 75.800 C 44.498 76.570,44.091 77.200,43.897 77.200 C 43.423 77.200,42.400 78.245,42.400 78.729 C 42.400 78.941,42.130 79.218,41.800 79.345 C 41.470 79.471,41.200 79.823,41.200 80.126 C 41.200 80.429,40.570 81.326,39.800 82.119 C 39.030 82.912,38.400 83.929,38.400 84.380 C 38.400 84.831,38.207 85.200,37.971 85.200 C 37.329 85.200,36.400 86.255,36.400 86.984 C 36.400 87.337,36.130 87.729,35.800 87.855 C 35.470 87.982,35.200 88.336,35.200 88.643 C 35.200 88.949,35.020 89.200,34.800 89.200 C 34.580 89.200,34.400 89.535,34.400 89.944 C 34.400 90.353,33.950 91.026,33.400 91.439 C 32.849 91.853,32.400 92.596,32.400 93.095 C 32.400 93.633,32.157 94.000,31.800 94.000 C 31.470 94.000,31.200 94.270,31.200 94.600 C 31.200 94.930,31.020 95.200,30.800 95.200 C 30.580 95.200,30.400 95.650,30.400 96.200 C 30.400 96.822,30.173 97.200,29.800 97.200 C 29.470 97.200,29.200 97.526,29.200 97.925 C 29.200 98.323,28.885 99.009,28.500 99.448 C 27.566 100.514,26.400 102.727,26.400 103.432 C 26.400 103.745,26.228 104.000,26.019 104.000 C 25.809 104.000,25.325 104.675,24.942 105.500 C 24.560 106.325,23.831 107.671,23.323 108.492 C 22.815 109.313,22.400 110.258,22.400 110.592 C 22.400 110.926,22.240 111.200,22.043 111.200 C 21.847 111.200,21.574 111.650,21.436 112.200 C 21.298 112.750,21.008 113.200,20.792 113.200 C 20.577 113.200,20.400 113.639,20.400 114.176 C 20.400 114.713,20.220 115.264,20.000 115.400 C 19.780 115.536,19.600 116.177,19.600 116.824 C 19.600 117.603,19.397 118.000,19.000 118.000 C 18.627 118.000,18.400 118.378,18.400 119.000 C 18.400 119.550,18.220 120.000,18.000 120.000 C 17.780 120.000,17.600 120.450,17.600 121.000 C 17.600 121.622,17.373 122.000,17.000 122.000 C 16.603 122.000,16.400 122.397,16.400 123.176 C 16.400 123.823,16.220 124.464,16.000 124.600 C 15.780 124.736,15.600 125.209,15.600 125.652 C 15.600 126.095,15.330 126.727,15.000 127.057 C 14.670 127.387,14.400 128.184,14.400 128.829 C 14.400 129.473,14.220 130.000,14.000 130.000 C 13.780 130.000,13.600 130.431,13.600 130.957 C 13.600 131.484,13.330 132.018,13.000 132.145 C 12.621 132.290,12.400 132.903,12.400 133.811 C 12.400 134.667,12.238 135.147,12.000 135.000 C 11.758 134.851,11.600 135.396,11.600 136.376 C 11.600 137.553,11.435 138.000,11.000 138.000 C 10.581 138.000,10.400 138.422,10.400 139.400 C 10.400 140.170,10.220 140.800,10.000 140.800 C 9.780 140.800,9.600 141.616,9.600 142.613 C 9.600 143.855,9.411 144.498,9.000 144.655 C 8.609 144.805,8.400 145.428,8.400 146.443 C 8.400 147.299,8.220 148.000,8.000 148.000 C 7.780 148.000,7.600 148.791,7.600 149.757 C 7.600 150.950,7.407 151.588,7.000 151.745 C 6.577 151.907,6.400 152.568,6.400 153.987 C 6.400 155.094,6.220 156.000,6.000 156.000 C 5.778 156.000,5.600 157.067,5.600 158.400 C 5.600 160.267,5.467 160.800,5.000 160.800 C 4.528 160.800,4.400 161.356,4.400 163.400 C 4.400 164.867,4.226 166.000,4.000 166.000 C 3.769 166.000,3.600 167.257,3.600 168.971 C 3.600 171.079,3.426 172.117,3.000 172.543 C 2.555 172.987,2.400 174.077,2.400 176.748 C 2.400 178.731,2.220 180.464,2.000 180.600 C 1.451 180.940,1.451 221.060,2.000 221.400 C 2.220 221.536,2.400 223.269,2.400 225.252 C 2.400 227.923,2.555 229.013,3.000 229.457 C 3.426 229.883,3.600 230.921,3.600 233.029 C 3.600 234.743,3.769 236.000,4.000 236.000 C 4.226 236.000,4.400 237.133,4.400 238.600 C 4.400 240.644,4.528 241.200,5.000 241.200 C 5.467 241.200,5.600 241.733,5.600 243.600 C 5.600 244.933,5.778 246.000,6.000 246.000 C 6.220 246.000,6.400 246.881,6.400 247.957 C 6.400 249.328,6.580 249.983,7.000 250.145 C 7.411 250.302,7.600 250.945,7.600 252.187 C 7.600 253.184,7.780 254.000,8.000 254.000 C 8.220 254.000,8.400 254.720,8.400 255.600 C 8.400 256.756,8.567 257.200,9.000 257.200 C 9.453 257.200,9.600 257.689,9.600 259.200 C 9.600 260.300,9.780 261.200,10.000 261.200 C 10.220 261.200,10.400 261.830,10.400 262.600 C 10.400 263.578,10.581 264.000,11.000 264.000 C 11.417 264.000,11.600 264.420,11.600 265.376 C 11.600 266.133,11.780 266.864,12.000 267.000 C 12.220 267.136,12.400 267.782,12.400 268.436 C 12.400 269.124,12.653 269.722,13.000 269.855 C 13.330 269.982,13.600 270.516,13.600 271.043 C 13.600 271.569,13.780 272.000,14.000 272.000 C 14.220 272.000,14.400 272.636,14.400 273.413 C 14.400 274.299,14.623 274.911,15.000 275.055 C 15.330 275.182,15.600 275.706,15.600 276.219 C 15.600 276.733,15.780 277.264,16.000 277.400 C 16.220 277.536,16.400 278.177,16.400 278.824 C 16.400 279.603,16.603 280.000,17.000 280.000 C 17.373 280.000,17.600 280.378,17.600 281.000 C 17.600 281.550,17.780 282.000,18.000 282.000 C 18.220 282.000,18.400 282.450,18.400 283.000 C 18.400 283.622,18.627 284.000,19.000 284.000 C 19.369 284.000,19.600 284.375,19.600 284.976 C 19.600 285.513,19.780 286.064,20.000 286.200 C 20.220 286.336,20.400 286.865,20.400 287.375 C 20.400 287.885,20.670 288.526,21.000 288.800 C 21.330 289.074,21.600 289.636,21.600 290.049 C 21.600 290.462,21.780 290.800,22.000 290.800 C 22.220 290.800,22.400 291.070,22.400 291.400 C 22.400 291.730,22.591 292.000,22.824 292.000 C 23.057 292.000,23.136 292.180,23.000 292.400 C 22.864 292.620,22.954 292.800,23.200 292.800 C 23.446 292.800,23.549 292.960,23.428 293.155 C 23.307 293.350,23.477 293.732,23.804 294.004 C 24.132 294.276,24.400 294.718,24.400 294.988 C 24.400 295.751,25.616 298.000,26.029 298.000 C 26.233 298.000,26.400 298.450,26.400 299.000 C 26.400 299.550,26.568 300.000,26.773 300.000 C 26.978 300.000,27.270 300.391,27.422 300.869 C 27.574 301.347,28.036 302.101,28.449 302.545 C 28.862 302.988,29.200 303.677,29.200 304.075 C 29.200 304.474,29.470 304.800,29.800 304.800 C 30.173 304.800,30.400 305.178,30.400 305.800 C 30.400 306.350,30.580 306.800,30.800 306.800 C 31.020 306.800,31.200 307.070,31.200 307.400 C 31.200 307.730,31.470 308.000,31.800 308.000 C 32.157 308.000,32.400 308.367,32.400 308.905 C 32.400 309.404,32.849 310.147,33.400 310.561 C 33.950 310.974,34.400 311.647,34.400 312.056 C 34.400 312.465,34.580 312.800,34.800 312.800 C 35.020 312.800,35.200 313.051,35.200 313.357 C 35.200 313.664,35.470 314.018,35.800 314.145 C 36.130 314.271,36.400 314.663,36.400 315.016 C 36.400 315.745,37.329 316.800,37.971 316.800 C 38.207 316.800,38.400 317.169,38.400 317.620 C 38.400 318.071,39.030 319.088,39.800 319.881 C 40.570 320.674,41.200 321.571,41.200 321.874 C 41.200 322.177,41.470 322.529,41.800 322.655 C 42.130 322.782,42.400 323.059,42.400 323.271 C 42.400 323.790,43.438 324.800,43.971 324.800 C 44.207 324.800,44.400 325.070,44.400 325.400 C 44.400 325.730,44.580 326.000,44.800 326.000 C 45.020 326.000,45.200 326.272,45.200 326.605 C 45.200 326.938,46.100 328.106,47.200 329.200 C 48.300 330.294,49.200 331.353,49.200 331.552 C 49.200 331.751,49.470 332.018,49.800 332.145 C 50.130 332.271,50.400 332.651,50.400 332.987 C 50.400 333.324,50.580 333.600,50.800 333.600 C 51.020 333.600,51.200 333.870,51.200 334.200 C 51.200 334.530,51.440 334.800,51.732 334.800 C 52.025 334.800,52.506 335.250,52.800 335.800 C 53.094 336.350,53.544 336.800,53.800 336.800 C 54.056 336.800,54.506 337.250,54.800 337.800 C 55.094 338.350,55.575 338.800,55.868 338.800 C 56.160 338.800,56.400 338.993,56.400 339.229 C 56.400 339.695,57.385 340.800,57.800 340.800 C 58.215 340.800,59.200 341.905,59.200 342.371 C 59.200 342.607,59.393 342.800,59.629 342.800 C 60.150 342.800,61.200 343.805,61.200 344.304 C 61.200 344.502,61.650 344.906,62.200 345.200 C 62.750 345.494,63.200 345.944,63.200 346.200 C 63.200 346.456,63.650 346.906,64.200 347.200 C 64.750 347.494,65.200 347.944,65.200 348.200 C 65.200 348.456,65.650 348.906,66.200 349.200 C 66.750 349.494,67.200 349.975,67.200 350.268 C 67.200 350.560,67.470 350.800,67.800 350.800 C 68.130 350.800,68.400 350.980,68.400 351.200 C 68.400 351.420,68.676 351.600,69.013 351.600 C 69.349 351.600,69.729 351.870,69.855 352.200 C 69.982 352.530,70.259 352.800,70.471 352.800 C 70.990 352.800,72.000 353.838,72.000 354.371 C 72.000 354.607,72.204 354.800,72.454 354.800 C 72.704 354.800,73.325 355.250,73.835 355.800 C 74.345 356.350,75.040 356.800,75.381 356.800 C 75.721 356.800,76.000 356.980,76.000 357.200 C 76.000 357.420,76.270 357.600,76.600 357.600 C 76.930 357.600,77.200 357.793,77.200 358.029 C 77.200 358.582,78.218 359.600,78.771 359.600 C 79.007 359.600,79.200 359.768,79.200 359.973 C 79.200 360.178,79.574 360.465,80.030 360.610 C 80.487 360.755,81.493 361.487,82.265 362.237 C 83.037 362.986,84.013 363.600,84.434 363.600 C 84.855 363.600,85.200 363.793,85.200 364.029 C 85.200 364.671,86.255 365.600,86.984 365.600 C 87.337 365.600,87.729 365.870,87.855 366.200 C 87.982 366.530,88.336 366.800,88.643 366.800 C 88.949 366.800,89.200 366.980,89.200 367.200 C 89.200 367.420,89.535 367.600,89.944 367.600 C 90.353 367.600,91.026 368.050,91.439 368.600 C 91.853 369.151,92.596 369.600,93.095 369.600 C 93.633 369.600,94.000 369.843,94.000 370.200 C 94.000 370.530,94.270 370.800,94.600 370.800 C 94.930 370.800,95.200 370.980,95.200 371.200 C 95.200 371.420,95.650 371.600,96.200 371.600 C 96.822 371.600,97.200 371.827,97.200 372.200 C 97.200 372.530,97.474 372.800,97.809 372.800 C 98.442 372.800,101.700 374.775,101.933 375.300 C 102.007 375.465,102.482 375.600,102.991 375.600 C 103.499 375.600,104.018 375.870,104.145 376.200 C 104.271 376.530,104.741 376.800,105.187 376.800 C 105.634 376.800,106.000 376.980,106.000 377.200 C 106.000 377.420,106.431 377.600,106.957 377.600 C 107.484 377.600,108.018 377.870,108.145 378.200 C 108.271 378.530,108.741 378.800,109.187 378.800 C 109.634 378.800,110.001 378.935,110.003 379.100 C 110.006 379.414,111.906 380.400,112.508 380.400 C 112.700 380.400,113.127 380.670,113.457 381.000 C 113.787 381.330,114.494 381.600,115.029 381.600 C 115.563 381.600,116.000 381.780,116.000 382.000 C 116.000 382.220,116.450 382.400,117.000 382.400 C 117.622 382.400,118.000 382.627,118.000 383.000 C 118.000 383.373,118.378 383.600,119.000 383.600 C 119.550 383.600,120.000 383.780,120.000 384.000 C 120.000 384.220,120.431 384.400,120.957 384.400 C 121.484 384.400,122.018 384.670,122.145 385.000 C 122.279 385.351,122.879 385.600,123.587 385.600 C 124.254 385.600,124.800 385.780,124.800 386.000 C 124.800 386.220,125.256 386.400,125.813 386.400 C 126.369 386.400,126.929 386.670,127.055 387.000 C 127.197 387.370,127.805 387.600,128.643 387.600 C 129.389 387.600,130.000 387.780,130.000 388.000 C 130.000 388.220,130.428 388.400,130.951 388.400 C 131.474 388.400,132.126 388.670,132.400 389.000 C 132.674 389.330,133.416 389.600,134.049 389.600 C 134.682 389.600,135.200 389.780,135.200 390.000 C 135.200 390.220,135.753 390.400,136.429 390.400 C 137.104 390.400,137.927 390.670,138.257 391.000 C 138.587 391.330,139.384 391.600,140.029 391.600 C 140.673 391.600,141.200 391.780,141.200 392.000 C 141.200 392.220,141.991 392.400,142.957 392.400 C 144.150 392.400,144.788 392.593,144.945 393.000 C 145.088 393.374,145.698 393.600,146.564 393.600 C 147.328 393.600,148.064 393.780,148.200 394.000 C 148.336 394.220,149.227 394.400,150.181 394.400 C 151.353 394.400,151.989 394.594,152.145 395.000 C 152.311 395.433,152.990 395.600,154.587 395.600 C 155.804 395.600,156.800 395.780,156.800 396.000 C 156.800 396.220,157.681 396.400,158.757 396.400 C 160.128 396.400,160.783 396.580,160.945 397.000 C 161.116 397.448,161.832 397.600,163.764 397.600 C 165.188 397.600,166.464 397.780,166.600 398.000 C 166.736 398.220,168.109 398.400,169.652 398.400 C 171.514 398.400,172.644 398.587,173.013 398.956 C 174.379 400.322,226.471 400.432,228.545 399.073 C 229.240 398.617,230.409 398.400,232.162 398.400 C 233.587 398.400,234.864 398.220,235.000 398.000 C 235.136 397.780,236.322 397.600,237.636 397.600 C 239.391 397.600,240.086 397.441,240.255 397.000 C 240.416 396.581,241.069 396.400,242.419 396.400 C 243.483 396.400,244.464 396.220,244.600 396.000 C 244.736 395.780,245.634 395.600,246.595 395.600 C 247.615 395.600,248.593 395.350,248.943 395.000 C 249.273 394.670,250.175 394.400,250.948 394.400 C 251.721 394.400,252.464 394.220,252.600 394.000 C 252.736 393.780,253.557 393.600,254.424 393.600 C 255.558 393.600,256.000 393.432,256.000 393.000 C 256.000 392.557,256.464 392.400,257.776 392.400 C 258.753 392.400,259.664 392.220,259.800 392.000 C 259.936 391.780,260.452 391.600,260.947 391.600 C 261.442 391.600,262.196 391.336,262.624 391.013 C 263.051 390.690,263.884 390.420,264.476 390.413 C 265.068 390.406,265.664 390.220,265.800 390.000 C 265.936 389.780,266.474 389.600,266.995 389.600 C 267.516 389.600,268.213 389.330,268.543 389.000 C 268.873 388.670,269.606 388.400,270.171 388.400 C 270.737 388.400,271.200 388.220,271.200 388.000 C 271.200 387.780,271.746 387.600,272.413 387.600 C 273.121 387.600,273.721 387.351,273.855 387.000 C 273.982 386.670,274.506 386.400,275.019 386.400 C 275.533 386.400,276.064 386.220,276.200 386.000 C 276.336 385.780,276.957 385.600,277.581 385.600 C 278.219 385.600,278.815 385.338,278.945 385.000 C 279.071 384.670,279.631 384.400,280.187 384.400 C 280.744 384.400,281.200 384.220,281.200 384.000 C 281.200 383.780,281.631 383.600,282.157 383.600 C 282.684 383.600,283.218 383.330,283.345 383.000 C 283.479 382.649,284.079 382.400,284.787 382.400 C 285.454 382.400,286.000 382.220,286.000 382.000 C 286.000 381.780,286.366 381.600,286.813 381.600 C 287.259 381.600,287.729 381.330,287.855 381.000 C 287.982 380.670,288.516 380.400,289.043 380.400 C 289.569 380.400,290.000 380.220,290.000 380.000 C 290.000 379.780,290.260 379.600,290.577 379.600 C 290.895 379.600,291.837 379.195,292.671 378.700 C 294.641 377.531,296.978 376.265,299.100 375.219 C 300.035 374.757,300.800 374.205,300.800 373.990 C 300.800 373.776,301.184 373.600,301.654 373.600 C 302.124 373.600,302.925 373.150,303.435 372.600 C 303.945 372.050,304.653 371.600,305.009 371.600 C 305.366 371.600,305.908 371.375,306.215 371.100 C 307.538 369.913,307.991 369.600,308.383 369.600 C 308.612 369.600,308.800 369.440,308.800 369.243 C 308.800 369.047,309.250 368.774,309.800 368.636 C 310.350 368.498,310.800 368.208,310.800 367.992 C 310.800 367.777,311.070 367.600,311.400 367.600 C 311.730 367.600,312.000 367.461,312.000 367.291 C 312.000 367.121,312.630 366.643,313.400 366.228 C 314.170 365.813,314.800 365.343,314.800 365.184 C 314.800 365.024,315.115 364.788,315.500 364.658 C 316.968 364.165,318.800 362.706,318.800 362.029 C 318.800 361.793,319.184 361.600,319.653 361.600 C 320.122 361.600,321.074 360.998,321.768 360.262 C 322.462 359.526,323.203 358.851,323.415 358.762 C 324.576 358.274,326.791 356.530,326.795 356.100 C 326.798 355.825,326.993 355.600,327.229 355.600 C 327.782 355.600,328.800 354.582,328.800 354.029 C 328.800 353.793,329.137 353.600,329.550 353.600 C 329.962 353.600,331.410 352.520,332.768 351.200 C 334.125 349.880,335.408 348.800,335.618 348.800 C 335.828 348.800,336.000 348.607,336.000 348.371 C 336.000 347.933,336.975 346.800,337.353 346.800 C 337.468 346.800,338.500 345.945,339.647 344.900 C 340.793 343.855,342.152 342.619,342.666 342.154 C 343.180 341.689,343.600 341.104,343.600 340.854 C 343.600 340.604,343.770 340.400,343.977 340.400 C 344.185 340.400,344.674 339.860,345.064 339.200 C 345.454 338.540,346.004 338.000,346.286 338.000 C 346.569 338.000,346.800 337.807,346.800 337.571 C 346.800 337.018,347.818 336.000,348.371 336.000 C 348.607 336.000,348.800 335.828,348.800 335.618 C 348.800 335.408,349.880 334.125,351.200 332.768 C 352.520 331.410,353.600 330.077,353.600 329.806 C 353.600 329.534,354.050 328.974,354.600 328.561 C 355.150 328.148,355.600 327.583,355.600 327.305 C 355.600 327.027,355.805 326.800,356.056 326.800 C 356.671 326.800,357.572 325.565,357.587 324.700 C 357.594 324.315,357.870 324.000,358.200 324.000 C 358.530 324.000,358.800 323.823,358.800 323.607 C 358.800 323.391,359.430 322.566,360.200 321.773 C 360.970 320.980,361.600 319.987,361.600 319.566 C 361.600 319.145,361.793 318.800,362.029 318.800 C 362.734 318.800,363.600 317.714,363.600 316.829 C 363.600 316.359,363.860 316.000,364.200 316.000 C 364.530 316.000,364.800 315.730,364.800 315.400 C 364.800 315.070,364.980 314.800,365.200 314.800 C 365.420 314.800,365.600 314.607,365.600 314.371 C 365.600 314.136,365.825 313.692,366.100 313.385 C 367.287 312.062,367.600 311.609,367.600 311.217 C 367.600 310.988,367.777 310.800,367.992 310.800 C 368.208 310.800,368.498 310.350,368.636 309.800 C 368.774 309.250,369.047 308.800,369.243 308.800 C 369.440 308.800,369.600 308.465,369.600 308.056 C 369.600 307.647,370.050 306.974,370.600 306.561 C 371.151 306.147,371.600 305.404,371.600 304.905 C 371.600 304.407,371.772 304.000,371.981 304.000 C 372.191 304.000,372.677 303.325,373.060 302.500 C 373.444 301.675,373.862 300.910,373.988 300.800 C 374.555 300.308,375.600 298.371,375.600 297.814 C 375.600 297.476,375.767 297.200,375.971 297.200 C 376.398 297.200,377.600 294.941,377.600 294.139 C 377.600 293.842,377.735 293.600,377.901 293.600 C 378.066 293.600,378.708 292.475,379.328 291.100 C 379.947 289.725,380.623 288.330,380.830 288.000 C 381.036 287.670,381.307 287.130,381.432 286.800 C 381.556 286.470,381.825 285.887,382.029 285.505 C 382.233 285.123,382.400 284.448,382.400 284.005 C 382.400 283.556,382.665 283.200,383.000 283.200 C 383.373 283.200,383.600 282.822,383.600 282.200 C 383.600 281.650,383.780 281.200,384.000 281.200 C 384.220 281.200,384.400 280.744,384.400 280.187 C 384.400 279.631,384.670 279.071,385.000 278.945 C 385.370 278.803,385.600 278.195,385.600 277.357 C 385.600 276.611,385.780 276.000,386.000 276.000 C 386.220 276.000,386.400 275.569,386.400 275.043 C 386.400 274.516,386.670 273.982,387.000 273.855 C 387.351 273.721,387.600 273.121,387.600 272.413 C 387.600 271.746,387.780 271.200,388.000 271.200 C 388.220 271.200,388.400 270.737,388.400 270.171 C 388.400 269.606,388.670 268.873,389.000 268.543 C 389.330 268.213,389.600 267.516,389.600 266.995 C 389.600 266.474,389.780 265.936,390.000 265.800 C 390.220 265.664,390.400 265.011,390.400 264.348 C 390.400 263.685,390.670 262.873,391.000 262.543 C 391.330 262.213,391.600 261.326,391.600 260.571 C 391.600 259.817,391.780 259.200,392.000 259.200 C 392.220 259.200,392.400 258.480,392.400 257.600 C 392.400 256.444,392.567 256.000,393.000 256.000 C 393.432 256.000,393.600 255.558,393.600 254.424 C 393.600 253.557,393.780 252.736,394.000 252.600 C 394.220 252.464,394.400 251.721,394.400 250.948 C 394.400 250.175,394.670 249.273,395.000 248.943 C 395.371 248.572,395.600 247.590,395.600 246.371 C 395.600 245.287,395.780 244.400,396.000 244.400 C 396.220 244.400,396.400 243.522,396.400 242.449 C 396.400 241.203,396.617 240.318,397.000 240.000 C 397.417 239.654,397.600 238.733,397.600 236.975 C 397.600 235.585,397.780 234.336,398.000 234.200 C 398.220 234.064,398.400 232.628,398.400 231.010 C 398.400 229.011,398.560 228.013,398.900 227.900 C 400.382 227.407,400.382 173.393,398.900 172.900 C 398.560 172.787,398.400 171.785,398.400 169.767 C 398.400 168.056,398.231 166.800,398.000 166.800 C 397.775 166.800,397.600 165.676,397.600 164.229 C 397.600 162.476,397.409 161.466,397.000 161.057 C 396.644 160.701,396.400 159.723,396.400 158.652 C 396.400 157.659,396.220 156.736,396.000 156.600 C 395.780 156.464,395.600 155.566,395.600 154.605 C 395.600 153.585,395.350 152.607,395.000 152.257 C 394.666 151.923,394.400 150.945,394.400 150.052 C 394.400 149.169,394.220 148.336,394.000 148.200 C 393.780 148.064,393.600 147.328,393.600 146.564 C 393.600 145.698,393.374 145.088,393.000 144.945 C 392.593 144.788,392.400 144.150,392.400 142.957 C 392.400 141.991,392.220 141.200,392.000 141.200 C 391.780 141.200,391.600 140.673,391.600 140.029 C 391.600 139.384,391.330 138.587,391.000 138.257 C 390.670 137.927,390.400 137.104,390.400 136.429 C 390.400 135.753,390.220 135.200,390.000 135.200 C 389.780 135.200,389.600 134.682,389.600 134.049 C 389.600 133.416,389.330 132.674,389.000 132.400 C 388.670 132.126,388.400 131.474,388.400 130.951 C 388.400 130.428,388.220 130.000,388.000 130.000 C 387.780 130.000,387.600 129.389,387.600 128.643 C 387.600 127.805,387.370 127.197,387.000 127.055 C 386.670 126.929,386.400 126.369,386.400 125.813 C 386.400 125.256,386.220 124.800,386.000 124.800 C 385.780 124.800,385.600 124.254,385.600 123.587 C 385.600 122.879,385.351 122.279,385.000 122.145 C 384.670 122.018,384.400 121.484,384.400 120.957 C 384.400 120.431,384.220 120.000,384.000 120.000 C 383.780 120.000,383.600 119.550,383.600 119.000 C 383.600 118.378,383.373 118.000,383.000 118.000 C 382.627 118.000,382.400 117.622,382.400 117.000 C 382.400 116.450,382.220 116.000,382.000 116.000 C 381.780 116.000,381.600 115.563,381.600 115.029 C 381.600 114.494,381.375 113.819,381.100 113.529 C 380.607 113.007,380.318 112.448,379.022 109.500 C 378.659 108.675,378.191 108.000,377.981 108.000 C 377.772 108.000,377.600 107.550,377.600 107.000 C 377.600 106.450,377.420 106.000,377.200 106.000 C 376.980 106.000,376.800 105.634,376.800 105.187 C 376.800 104.741,376.530 104.271,376.200 104.145 C 375.870 104.018,375.600 103.499,375.600 102.991 C 375.600 102.482,375.465 102.007,375.300 101.933 C 374.775 101.700,372.800 98.442,372.800 97.809 C 372.800 97.474,372.530 97.200,372.200 97.200 C 371.827 97.200,371.600 96.822,371.600 96.200 C 371.600 95.650,371.420 95.200,371.200 95.200 C 370.980 95.200,370.800 94.930,370.800 94.600 C 370.800 94.270,370.530 94.000,370.200 94.000 C 369.843 94.000,369.600 93.633,369.600 93.095 C 369.600 92.596,369.151 91.853,368.600 91.439 C 368.050 91.026,367.600 90.353,367.600 89.944 C 367.600 89.535,367.420 89.200,367.200 89.200 C 366.980 89.200,366.800 88.949,366.800 88.643 C 366.800 88.336,366.530 87.982,366.200 87.855 C 365.870 87.729,365.600 87.337,365.600 86.984 C 365.600 86.255,364.671 85.200,364.029 85.200 C 363.793 85.200,363.600 84.855,363.600 84.434 C 363.600 84.013,362.986 83.037,362.237 82.265 C 361.487 81.493,360.755 80.487,360.610 80.030 C 360.465 79.574,360.178 79.200,359.973 79.200 C 359.768 79.200,359.600 79.007,359.600 78.771 C 359.600 78.218,358.582 77.200,358.029 77.200 C 357.793 77.200,357.600 76.930,357.600 76.600 C 357.600 76.270,357.420 76.000,357.200 76.000 C 356.980 76.000,356.800 75.721,356.800 75.381 C 356.800 75.040,356.350 74.345,355.800 73.835 C 355.250 73.325,354.800 72.704,354.800 72.454 C 354.800 72.204,354.607 72.000,354.371 72.000 C 353.838 72.000,352.800 70.990,352.800 70.471 C 352.800 70.259,352.530 69.982,352.200 69.855 C 351.870 69.729,351.600 69.349,351.600 69.013 C 351.600 68.676,351.420 68.400,351.200 68.400 C 350.980 68.400,350.800 68.130,350.800 67.800 C 350.800 67.470,350.560 67.200,350.268 67.200 C 349.975 67.200,349.494 66.750,349.200 66.200 C 348.906 65.650,348.456 65.200,348.200 65.200 C 347.944 65.200,347.494 64.750,347.200 64.200 C 346.906 63.650,346.456 63.200,346.200 63.200 C 345.944 63.200,345.494 62.750,345.200 62.200 C 344.906 61.650,344.502 61.200,344.304 61.200 C 343.805 61.200,342.800 60.150,342.800 59.629 C 342.800 59.393,342.607 59.200,342.371 59.200 C 341.905 59.200,340.800 58.215,340.800 57.800 C 340.800 57.385,339.695 56.400,339.229 56.400 C 338.993 56.400,338.800 56.160,338.800 55.868 C 338.800 55.575,338.350 55.094,337.800 54.800 C 337.250 54.506,336.800 54.056,336.800 53.800 C 336.800 53.544,336.350 53.094,335.800 52.800 C 335.250 52.506,334.800 52.025,334.800 51.732 C 334.800 51.440,334.530 51.200,334.200 51.200 C 333.870 51.200,333.600 51.020,333.600 50.800 C 333.600 50.580,333.324 50.400,332.987 50.400 C 332.651 50.400,332.271 50.130,332.145 49.800 C 332.018 49.470,331.751 49.200,331.552 49.200 C 331.353 49.200,330.294 48.300,329.200 47.200 C 328.106 46.100,326.938 45.200,326.605 45.200 C 326.272 45.200,326.000 45.020,326.000 44.800 C 326.000 44.580,325.730 44.400,325.400 44.400 C 325.070 44.400,324.800 44.207,324.800 43.971 C 324.800 43.438,323.790 42.400,323.271 42.400 C 323.059 42.400,322.782 42.130,322.655 41.800 C 322.529 41.470,322.194 41.200,321.913 41.200 C 321.631 41.200,320.692 40.570,319.827 39.800 C 318.962 39.030,317.927 38.400,317.527 38.400 C 317.127 38.400,316.800 38.207,316.800 37.971 C 316.800 37.329,315.745 36.400,315.016 36.400 C 314.663 36.400,314.271 36.130,314.145 35.800 C 314.018 35.470,313.664 35.200,313.357 35.200 C 313.051 35.200,312.800 35.020,312.800 34.800 C 312.800 34.580,312.465 34.400,312.056 34.400 C 311.647 34.400,310.974 33.950,310.561 33.400 C 310.147 32.849,309.404 32.400,308.905 32.400 C 308.367 32.400,308.000 32.157,308.000 31.800 C 308.000 31.470,307.730 31.200,307.400 31.200 C 307.070 31.200,306.800 31.020,306.800 30.800 C 306.800 30.580,306.350 30.400,305.800 30.400 C 305.178 30.400,304.800 30.173,304.800 29.800 C 304.800 29.470,304.474 29.200,304.075 29.200 C 303.677 29.200,302.988 28.862,302.545 28.449 C 302.101 28.036,301.347 27.574,300.869 27.422 C 300.391 27.270,300.000 26.978,300.000 26.773 C 300.000 26.568,299.569 26.400,299.043 26.400 C 298.516 26.400,297.978 26.119,297.846 25.775 C 297.714 25.431,297.445 25.249,297.248 25.370 C 297.052 25.492,296.668 25.323,296.396 24.996 C 296.124 24.668,295.586 24.400,295.200 24.400 C 294.814 24.400,294.276 24.132,294.004 23.804 C 293.732 23.477,293.350 23.307,293.155 23.428 C 292.960 23.549,292.800 23.446,292.800 23.200 C 292.800 22.954,292.620 22.864,292.400 23.000 C 292.180 23.136,292.000 23.057,292.000 22.824 C 292.000 22.591,291.730 22.400,291.400 22.400 C 291.070 22.400,290.800 22.220,290.800 22.000 C 290.800 21.780,290.462 21.600,290.049 21.600 C 289.636 21.600,289.074 21.330,288.800 21.000 C 288.526 20.670,287.885 20.400,287.375 20.400 C 286.865 20.400,286.336 20.220,286.200 20.000 C 286.064 19.780,285.513 19.600,284.976 19.600 C 284.375 19.600,284.000 19.369,284.000 19.000 C 284.000 18.627,283.622 18.400,283.000 18.400 C 282.450 18.400,282.000 18.220,282.000 18.000 C 282.000 17.780,281.550 17.600,281.000 17.600 C 280.378 17.600,280.000 17.373,280.000 17.000 C 280.000 16.603,279.603 16.400,278.824 16.400 C 278.177 16.400,277.536 16.220,277.400 16.000 C 277.264 15.780,276.733 15.600,276.219 15.600 C 275.706 15.600,275.182 15.330,275.055 15.000 C 274.911 14.623,274.299 14.400,273.413 14.400 C 272.636 14.400,272.000 14.220,272.000 14.000 C 272.000 13.780,271.569 13.600,271.043 13.600 C 270.516 13.600,269.982 13.330,269.855 13.000 C 269.722 12.653,269.124 12.400,268.436 12.400 C 267.782 12.400,267.136 12.220,267.000 12.000 C 266.864 11.780,266.133 11.600,265.376 11.600 C 264.420 11.600,264.000 11.417,264.000 11.000 C 264.000 10.581,263.578 10.400,262.600 10.400 C 261.830 10.400,261.200 10.220,261.200 10.000 C 261.200 9.780,260.300 9.600,259.200 9.600 C 257.689 9.600,257.200 9.453,257.200 9.000 C 257.200 8.567,256.756 8.400,255.600 8.400 C 254.720 8.400,254.000 8.220,254.000 8.000 C 254.000 7.780,253.184 7.600,252.187 7.600 C 250.945 7.600,250.302 7.411,250.145 7.000 C 249.983 6.580,249.328 6.400,247.957 6.400 C 246.881 6.400,246.000 6.220,246.000 6.000 C 246.000 5.778,244.933 5.600,243.600 5.600 C 241.733 5.600,241.200 5.467,241.200 5.000 C 241.200 4.528,240.644 4.400,238.600 4.400 C 237.133 4.400,236.000 4.226,236.000 4.000 C 236.000 3.769,234.743 3.600,233.029 3.600 C 230.921 3.600,229.883 3.426,229.457 3.000 C 229.013 2.555,227.923 2.400,225.252 2.400 C 223.269 2.400,221.536 2.220,221.400 2.000 C 221.060 1.451,180.940 1.451,180.600 2.000 M295.859 101.809 C 295.987 102.144,295.875 104.709,295.608 107.509 C 295.342 110.309,294.975 114.580,294.794 117.000 C 294.612 119.420,294.160 124.370,293.790 128.000 C 293.419 131.630,292.965 136.580,292.780 139.000 C 292.595 141.420,292.143 146.370,291.776 150.000 C 291.408 153.630,290.967 158.580,290.795 161.000 C 290.066 171.280,289.556 176.687,289.193 178.000 C 288.979 178.770,288.803 180.919,288.802 182.776 C 288.801 184.633,288.627 187.153,288.416 188.376 C 288.028 190.626,287.341 197.676,286.798 205.000 C 286.033 215.308,285.561 220.355,285.196 222.120 C 284.978 223.176,284.800 225.287,284.800 226.812 C 284.800 228.337,284.625 230.803,284.411 232.293 C 283.977 235.308,283.242 242.904,282.795 249.000 C 282.057 259.041,281.562 264.347,281.196 266.120 C 280.978 267.176,280.800 269.287,280.800 270.812 C 280.800 272.337,280.625 274.803,280.411 276.293 C 280.065 278.691,279.778 281.531,278.849 291.728 C 278.564 294.854,278.318 295.090,274.200 296.198 C 272.880 296.553,271.260 296.996,270.600 297.182 C 268.129 297.879,264.726 298.820,262.500 299.423 C 261.235 299.766,259.887 300.216,259.505 300.423 C 259.123 300.631,258.356 300.800,257.800 300.800 C 257.244 300.800,256.477 300.967,256.095 301.171 C 255.020 301.745,251.346 302.800,250.419 302.800 C 249.963 302.800,249.277 302.955,248.895 303.144 C 247.770 303.700,244.148 304.800,243.441 304.800 C 243.082 304.800,242.477 304.959,242.095 305.153 C 241.414 305.499,238.784 306.244,236.800 306.654 C 236.250 306.767,235.440 307.013,235.000 307.200 C 234.560 307.387,233.750 307.633,233.200 307.746 C 231.216 308.156,228.586 308.901,227.905 309.247 C 227.523 309.441,226.837 309.600,226.379 309.600 C 225.922 309.600,225.154 309.812,224.674 310.070 C 224.193 310.329,223.170 310.671,222.400 310.832 C 221.630 310.992,220.010 311.421,218.800 311.784 C 217.590 312.147,216.150 312.537,215.600 312.652 C 215.050 312.766,214.240 313.013,213.800 313.200 C 213.360 313.387,212.550 313.633,212.000 313.746 C 210.016 314.156,207.386 314.901,206.705 315.247 C 206.323 315.441,205.603 315.606,205.105 315.614 C 204.607 315.622,203.750 315.886,203.200 316.200 C 202.650 316.514,201.480 316.772,200.600 316.772 C 199.720 316.772,198.550 316.514,198.000 316.200 C 197.450 315.886,196.516 315.622,195.924 315.614 C 195.332 315.606,194.736 315.420,194.600 315.200 C 194.464 314.980,193.964 314.800,193.490 314.800 C 193.015 314.800,191.901 314.549,191.013 314.241 C 190.126 313.934,188.590 313.469,187.600 313.208 C 184.776 312.464,181.476 311.516,180.600 311.197 C 179.660 310.856,176.628 310.041,175.200 309.746 C 174.650 309.633,173.840 309.387,173.400 309.200 C 172.960 309.013,172.150 308.766,171.600 308.652 C 170.651 308.454,169.091 308.009,164.300 306.569 C 163.145 306.222,161.613 305.842,160.896 305.725 C 160.179 305.607,159.494 305.351,159.373 305.156 C 159.252 304.960,158.544 304.800,157.800 304.800 C 157.056 304.800,156.345 304.634,156.219 304.431 C 156.094 304.228,155.408 303.943,154.695 303.798 C 153.983 303.653,152.860 303.379,152.200 303.189 C 151.540 302.999,149.920 302.553,148.600 302.198 C 147.280 301.844,145.887 301.384,145.505 301.177 C 145.123 300.969,144.437 300.800,143.981 300.800 C 143.054 300.800,139.380 299.745,138.305 299.171 C 137.923 298.967,137.257 298.800,136.824 298.800 C 136.392 298.800,135.624 298.632,135.119 298.427 C 134.613 298.222,133.165 297.772,131.900 297.427 C 121.967 294.719,123.203 296.196,122.171 285.800 C 121.822 282.280,121.391 277.330,121.215 274.800 C 121.038 272.270,120.584 267.140,120.206 263.400 C 119.828 259.660,119.378 254.620,119.205 252.200 C 119.032 249.780,118.589 244.740,118.220 241.000 C 117.850 237.260,117.394 232.130,117.204 229.600 C 117.015 227.070,116.567 222.120,116.209 218.600 C 115.851 215.080,115.400 210.040,115.208 207.400 C 115.015 204.760,114.566 199.630,114.209 196.000 C 113.853 192.370,113.402 187.330,113.208 184.800 C 113.013 182.270,112.560 177.230,112.202 173.600 C 111.843 169.970,111.394 164.840,111.204 162.200 C 111.015 159.560,110.565 154.520,110.206 151.000 C 109.590 144.974,109.413 142.820,108.460 129.735 C 108.249 126.840,107.960 124.103,107.817 123.654 C 107.415 122.386,105.979 101.958,106.260 101.503 C 106.669 100.841,295.604 101.146,295.859 101.809 M142.402 144.100 C 142.404 145.475,142.599 147.680,142.836 149.000 C 143.073 150.320,143.423 153.650,143.614 156.400 C 144.476 168.818,144.741 171.983,144.983 172.746 C 145.222 173.500,145.448 176.209,146.373 189.445 C 146.559 192.110,146.829 194.660,146.972 195.112 C 147.115 195.564,147.410 198.424,147.627 201.467 C 147.844 204.510,148.152 208.080,148.311 209.400 L 148.600 211.800 189.200 212.000 L 229.800 212.200 229.746 215.000 C 229.670 218.924,228.940 227.701,228.432 230.800 C 228.198 232.230,228.005 234.535,228.003 235.923 C 228.001 237.310,227.830 239.200,227.623 240.123 C 227.416 241.045,227.147 242.275,227.027 242.856 C 226.857 243.672,226.512 243.960,225.503 244.125 C 224.787 244.242,223.210 244.639,222.000 245.007 C 220.790 245.375,219.170 245.829,218.400 246.016 C 215.125 246.810,213.357 247.316,212.705 247.647 C 212.323 247.841,211.504 248.000,210.885 248.000 C 210.266 248.000,209.589 248.161,209.380 248.358 C 209.171 248.555,208.100 248.925,207.000 249.181 C 205.900 249.436,204.280 249.835,203.400 250.066 C 200.683 250.781,199.363 250.633,194.000 249.011 C 192.790 248.645,191.260 248.256,190.600 248.146 C 189.940 248.036,189.040 247.802,188.600 247.626 C 187.456 247.169,184.423 246.370,182.896 246.123 C 182.179 246.007,181.494 245.751,181.373 245.556 C 181.252 245.360,180.717 245.200,180.184 245.200 C 179.652 245.200,178.538 244.945,177.708 244.634 C 176.879 244.323,175.722 243.964,175.139 243.836 C 173.942 243.575,174.042 244.075,173.212 234.200 C 172.954 231.120,172.654 227.835,172.546 226.900 L 172.351 225.200 160.930 225.200 L 149.509 225.200 149.755 226.500 C 149.890 227.215,150.176 230.660,150.391 234.155 C 150.605 237.650,150.882 240.828,151.005 241.216 C 151.128 241.604,151.419 244.955,151.651 248.661 C 152.440 261.267,152.458 261.383,153.600 261.517 C 154.150 261.581,154.960 261.782,155.400 261.963 C 156.249 262.314,159.133 263.110,160.800 263.454 C 161.350 263.567,162.160 263.803,162.600 263.977 C 163.473 264.322,166.410 265.126,168.000 265.454 C 168.550 265.567,169.360 265.813,169.800 266.000 C 170.240 266.187,171.050 266.433,171.600 266.546 C 173.190 266.874,176.127 267.678,177.000 268.023 C 177.440 268.197,178.250 268.433,178.800 268.546 C 180.390 268.874,183.327 269.678,184.200 270.023 C 184.640 270.197,185.450 270.428,186.000 270.537 C 186.550 270.645,187.990 271.033,189.200 271.399 C 190.410 271.764,192.030 272.215,192.800 272.400 C 193.570 272.585,195.190 273.053,196.400 273.439 C 199.207 274.336,202.405 274.334,205.200 273.433 C 206.410 273.043,207.940 272.639,208.600 272.535 C 209.260 272.431,210.160 272.181,210.600 271.980 C 211.352 271.636,213.746 270.999,216.000 270.542 C 216.550 270.431,217.360 270.197,217.800 270.023 C 218.594 269.709,220.908 269.068,223.600 268.416 C 224.370 268.230,226.080 267.768,227.400 267.390 C 228.720 267.013,230.250 266.622,230.800 266.522 C 231.350 266.422,232.160 266.187,232.600 266.000 C 233.040 265.813,233.850 265.567,234.400 265.454 C 235.847 265.155,238.869 264.341,239.800 264.000 C 240.749 263.652,243.639 262.878,245.600 262.448 C 248.871 261.729,248.968 261.495,249.601 252.800 C 250.385 242.039,250.869 236.888,251.217 235.600 C 251.425 234.830,251.597 232.898,251.598 231.307 C 251.599 229.717,251.777 227.197,251.993 225.707 C 252.479 222.358,253.224 214.776,253.615 209.200 C 254.164 201.389,254.782 195.011,255.232 192.527 C 255.479 191.167,255.562 189.862,255.417 189.627 C 255.232 189.329,242.265 189.200,212.400 189.200 C 178.637 189.200,169.579 189.095,169.324 188.700 C 169.146 188.425,168.871 186.490,168.712 184.400 C 168.554 182.310,168.217 177.900,167.962 174.600 C 167.708 171.300,167.478 167.610,167.450 166.400 L 167.400 164.200 212.582 164.000 L 257.764 163.800 258.042 162.800 C 258.195 162.250,258.342 160.270,258.368 158.400 C 258.394 156.530,258.676 153.200,258.995 151.000 C 259.314 148.800,259.580 145.785,259.587 144.300 L 259.600 141.600 201.000 141.600 L 142.400 141.600 142.402 144.100 " stroke="none" fill="#f3642c" fill-rule="evenodd"></path><path id="path2" d="M106.156 101.770 C 106.035 102.085,106.016 102.760,106.114 103.271 C 106.249 103.978,106.304 103.890,106.346 102.900 L 106.400 101.600 200.980 101.600 L 295.560 101.600 295.713 103.802 L 295.866 106.004 295.833 103.702 L 295.800 101.400 201.088 101.299 C 119.283 101.212,106.346 101.276,106.156 101.770 M295.067 109.539 C 294.889 111.155,294.833 112.566,294.942 112.675 C 295.250 112.983,295.680 109.540,295.527 107.989 C 295.431 107.011,295.294 107.470,295.067 109.539 M106.478 109.200 C 106.466 110.410,106.611 111.760,106.800 112.200 C 107.262 113.275,107.273 111.345,106.820 108.800 L 106.500 107.000 106.478 109.200 M107.295 116.600 C 107.276 118.360,107.508 121.330,107.811 123.200 L 108.361 126.600 108.125 123.600 C 107.995 121.950,107.763 118.980,107.609 117.000 L 107.329 113.400 107.295 116.600 M294.245 117.900 C 294.104 119.825,293.918 122.930,293.830 124.800 L 293.671 128.200 294.000 125.400 C 294.515 121.013,294.942 114.400,294.710 114.400 C 294.595 114.400,294.385 115.975,294.245 117.900 M293.054 131.731 C 292.875 133.234,292.822 134.555,292.935 134.668 C 293.240 134.973,293.690 131.534,293.523 130.176 C 293.430 129.425,293.261 129.986,293.054 131.731 M108.478 131.600 C 108.466 132.810,108.611 134.160,108.800 134.600 C 109.262 135.675,109.273 133.745,108.820 131.200 L 108.500 129.400 108.478 131.600 M292.245 139.900 C 292.104 141.825,291.919 144.930,291.832 146.800 L 291.674 150.200 292.006 147.200 C 292.548 142.311,292.932 136.400,292.708 136.400 C 292.594 136.400,292.385 137.975,292.245 139.900 M109.462 141.200 C 109.569 143.510,109.804 146.660,109.985 148.200 C 110.253 150.477,110.274 150.216,110.098 146.800 C 109.979 144.490,109.744 141.340,109.574 139.800 C 109.331 137.581,109.307 137.871,109.462 141.200 M142.158 141.765 C 142.038 142.077,142.017 142.843,142.110 143.466 C 142.253 144.420,142.290 144.361,142.340 143.100 L 142.400 141.600 200.979 141.600 L 259.558 141.600 259.714 143.602 L 259.870 145.605 259.835 143.502 L 259.800 141.400 201.088 141.299 C 150.695 141.212,142.345 141.278,142.158 141.765 M142.659 150.400 C 142.791 152.050,143.029 154.750,143.189 156.400 L 143.479 159.400 143.509 156.400 C 143.526 154.750,143.287 152.050,142.979 150.400 L 142.419 147.400 142.659 150.400 M258.864 151.774 C 258.609 153.853,258.430 156.869,258.467 158.477 C 258.504 160.084,258.588 160.680,258.653 159.800 C 258.718 158.920,258.982 155.990,259.241 153.289 C 259.799 147.460,259.528 146.372,258.864 151.774 M291.054 153.731 C 290.875 155.234,290.822 156.555,290.935 156.668 C 291.240 156.973,291.690 153.534,291.523 152.176 C 291.430 151.425,291.261 151.986,291.054 153.731 M110.478 154.000 C 110.466 155.210,110.611 156.560,110.800 157.000 C 111.262 158.075,111.273 156.145,110.820 153.600 L 110.500 151.800 110.478 154.000 M111.457 163.600 C 111.567 165.910,111.804 169.060,111.985 170.600 C 112.266 173.000,112.284 172.829,112.109 169.400 C 111.997 167.200,111.759 164.050,111.582 162.400 C 111.301 159.793,111.284 159.950,111.457 163.600 M290.474 161.000 C 290.429 161.880,290.305 163.590,290.198 164.800 C 290.025 166.757,290.049 166.854,290.420 165.673 C 290.649 164.943,290.773 163.233,290.695 161.873 C 290.604 160.274,290.526 159.965,290.474 161.000 M143.658 162.200 C 143.659 162.860,143.803 164.210,143.980 165.200 L 144.300 167.000 144.322 164.800 C 144.334 163.590,144.189 162.240,144.000 161.800 C 143.707 161.118,143.656 161.177,143.658 162.200 M257.975 162.800 L 257.800 163.800 212.600 164.000 L 167.400 164.200 167.293 165.800 C 167.234 166.680,167.359 168.210,167.571 169.200 C 167.924 170.850,167.950 170.734,167.878 167.800 L 167.800 164.600 212.867 164.400 C 237.653 164.290,258.053 164.080,258.199 163.934 C 258.345 163.788,258.394 163.248,258.308 162.734 L 258.151 161.800 257.975 162.800 M289.461 171.100 C 289.321 173.245,289.115 175.900,289.005 177.000 C 288.833 178.710,288.862 178.826,289.203 177.800 C 289.630 176.515,290.260 167.200,289.920 167.200 C 289.808 167.200,289.601 168.955,289.461 171.100 M144.673 172.800 C 144.802 174.450,145.035 177.330,145.190 179.200 L 145.473 182.600 145.506 179.600 C 145.525 177.950,145.292 175.070,144.989 173.200 L 144.439 169.800 144.673 172.800 M168.238 176.800 C 168.587 184.130,169.004 188.365,169.416 188.777 C 169.904 189.264,255.600 189.585,255.600 189.100 C 255.600 188.935,236.346 188.800,212.814 188.800 C 172.469 188.800,170.008 188.760,169.669 188.100 C 169.471 187.715,169.182 185.510,169.026 183.200 C 168.571 176.450,168.002 171.830,168.238 176.800 M112.501 176.400 C 112.497 177.610,112.632 179.140,112.800 179.800 L 113.105 181.000 113.118 179.600 C 113.124 178.830,112.990 177.300,112.818 176.200 L 112.507 174.200 112.501 176.400 M288.276 184.942 C 288.097 186.891,288.039 188.572,288.146 188.679 C 288.477 189.010,288.863 185.506,288.728 183.400 C 288.619 181.698,288.552 181.928,288.276 184.942 M113.459 186.000 C 113.568 188.310,113.804 191.460,113.985 193.000 C 114.279 195.508,114.292 195.403,114.113 192.000 C 114.003 189.910,113.766 186.760,113.587 185.000 C 113.286 182.041,113.276 182.116,113.459 186.000 M145.658 184.600 C 145.659 185.260,145.803 186.610,145.980 187.600 L 146.300 189.400 146.322 187.200 C 146.334 185.990,146.189 184.640,146.000 184.200 C 145.707 183.518,145.656 183.577,145.658 184.600 M287.456 193.300 C 287.310 195.555,287.107 198.300,287.004 199.400 C 286.837 201.203,286.855 201.262,287.192 200.000 C 287.609 198.434,288.232 189.200,287.920 189.200 C 287.810 189.200,287.601 191.045,287.456 193.300 M254.993 193.714 C 254.844 194.913,254.795 196.233,254.885 196.647 C 254.975 197.061,255.189 196.171,255.360 194.669 C 255.531 193.166,255.579 191.846,255.468 191.735 C 255.357 191.624,255.143 192.514,254.993 193.714 M146.673 195.200 C 146.802 196.850,147.035 199.730,147.190 201.600 L 147.473 205.000 147.506 202.000 C 147.525 200.350,147.292 197.470,146.989 195.600 L 146.439 192.200 146.673 195.200 M114.501 198.800 C 114.497 200.010,114.632 201.540,114.800 202.200 L 115.105 203.400 115.118 202.000 C 115.124 201.230,114.990 199.700,114.818 198.600 L 114.507 196.600 114.501 198.800 M254.312 200.800 C 253.603 209.184,253.579 210.561,254.217 206.200 C 254.539 204.000,254.757 201.120,254.701 199.800 C 254.602 197.459,254.592 197.484,254.312 200.800 M286.275 206.942 C 286.097 208.891,286.037 210.571,286.143 210.676 C 286.443 210.976,286.878 206.775,286.731 205.000 C 286.640 203.903,286.496 204.513,286.275 206.942 M115.471 209.000 C 115.570 211.200,115.801 214.170,115.983 215.600 C 116.397 218.843,116.065 212.300,115.588 207.800 C 115.344 205.505,115.323 205.721,115.471 209.000 M147.790 208.570 C 147.949 210.093,148.170 211.578,148.282 211.870 C 148.449 212.305,155.650 212.401,188.543 212.406 C 210.656 212.410,228.847 212.569,229.151 212.761 C 229.578 213.032,229.649 213.820,229.465 216.255 C 229.280 218.714,229.316 219.110,229.633 218.070 C 229.856 217.339,229.985 215.719,229.919 214.470 L 229.800 212.200 189.200 212.000 L 148.600 211.800 148.329 209.063 C 148.181 207.557,147.933 206.207,147.780 206.063 C 147.627 205.918,147.631 207.046,147.790 208.570 M285.456 215.300 C 285.310 217.555,285.107 220.300,285.004 221.400 C 284.837 223.203,284.855 223.262,285.192 222.000 C 285.609 220.434,286.232 211.200,285.920 211.200 C 285.810 211.200,285.601 213.045,285.456 215.300 M252.993 215.314 C 252.844 216.513,252.798 217.833,252.892 218.247 C 252.987 218.661,253.206 217.777,253.380 216.282 C 253.555 214.787,253.600 213.467,253.482 213.348 C 253.363 213.230,253.143 214.114,252.993 215.314 M116.447 221.233 C 116.473 222.425,116.642 223.940,116.822 224.600 C 117.022 225.336,117.063 224.562,116.926 222.600 C 116.667 218.894,116.378 218.067,116.447 221.233 M252.234 222.900 C 252.089 224.935,251.905 228.040,251.825 229.800 L 251.679 233.000 252.004 230.200 C 252.520 225.746,252.940 219.200,252.709 219.200 C 252.593 219.200,252.379 220.865,252.234 222.900 M228.692 223.800 C 228.028 232.432,228.025 232.713,228.630 228.800 C 228.954 226.710,229.169 223.830,229.109 222.400 C 229.006 219.952,228.982 220.034,228.692 223.800 M149.384 225.227 C 149.239 225.461,149.228 225.761,149.360 225.893 C 149.492 226.025,149.600 225.923,149.600 225.667 C 149.600 225.322,152.575 225.200,160.975 225.200 L 172.351 225.200 172.580 226.900 C 172.705 227.835,172.870 229.680,172.946 231.000 C 173.021 232.320,173.059 231.690,173.030 229.600 C 173.000 227.510,172.836 225.575,172.664 225.300 C 172.253 224.640,149.790 224.570,149.384 225.227 M284.472 227.000 C 284.429 227.880,284.307 229.590,284.203 230.800 C 284.019 232.928,284.026 232.947,284.422 231.400 C 284.647 230.520,284.768 228.810,284.691 227.600 C 284.581 225.873,284.534 225.744,284.472 227.000 M117.480 231.400 C 117.585 233.600,117.816 236.570,117.993 238.000 C 118.253 240.101,118.274 239.871,118.100 236.800 C 117.982 234.710,117.751 231.740,117.586 230.200 C 117.347 227.952,117.326 228.189,117.480 231.400 M149.884 231.000 C 150.006 233.200,150.171 235.075,150.253 235.167 C 150.537 235.488,150.302 229.387,149.984 228.200 C 149.800 227.510,149.757 228.701,149.884 231.000 M283.455 237.100 C 283.312 239.245,283.110 241.990,283.008 243.200 C 282.847 245.095,282.872 245.206,283.193 244.000 C 283.611 242.425,284.231 233.200,283.918 233.200 C 283.807 233.200,283.599 234.955,283.455 237.100 M173.297 235.800 C 173.296 236.900,173.432 238.340,173.600 239.000 L 173.905 240.200 173.923 238.800 C 173.933 238.030,173.797 236.590,173.620 235.600 L 173.300 233.800 173.297 235.800 M227.674 235.644 C 227.633 236.438,227.511 237.968,227.402 239.044 C 227.218 240.857,227.234 240.903,227.621 239.668 C 227.851 238.935,227.974 237.405,227.894 236.268 C 227.790 234.790,227.727 234.612,227.674 235.644 M251.096 235.950 C 250.933 236.693,250.820 237.953,250.844 238.750 C 250.888 240.200,250.888 240.200,251.250 238.400 C 251.450 237.410,251.563 236.150,251.502 235.600 C 251.404 234.720,251.356 234.761,251.096 235.950 M150.666 241.000 C 150.792 242.980,151.025 246.490,151.183 248.800 L 151.472 253.000 151.498 249.200 C 151.512 247.110,151.280 243.600,150.981 241.400 L 150.438 237.400 150.666 241.000 M250.247 244.100 C 250.111 246.135,249.926 249.240,249.836 251.000 L 249.673 254.200 250.006 251.600 C 250.491 247.819,250.955 240.400,250.708 240.400 C 250.591 240.400,250.384 242.065,250.247 244.100 M226.800 242.546 C 226.800 242.920,226.395 243.389,225.900 243.588 L 225.000 243.949 225.873 243.975 C 226.718 243.999,227.567 242.634,227.037 242.103 C 226.906 241.973,226.800 242.172,226.800 242.546 M118.490 244.200 C 118.484 245.300,118.624 246.650,118.800 247.200 C 119.256 248.623,119.269 246.522,118.820 244.000 L 118.500 242.200 118.490 244.200 M174.012 242.873 C 174.000 243.545,175.448 244.285,175.897 243.837 C 176.027 243.706,175.842 243.600,175.487 243.600 C 175.131 243.600,174.656 243.285,174.432 242.900 C 174.060 242.261,174.023 242.259,174.012 242.873 M177.800 244.578 C 178.460 244.900,179.450 245.154,180.000 245.141 C 180.920 245.120,180.904 245.092,179.800 244.789 C 176.896 243.994,176.525 243.955,177.800 244.578 M222.400 244.442 C 221.850 244.639,220.500 245.071,219.400 245.402 C 217.203 246.065,218.755 245.931,221.565 245.216 C 223.547 244.712,225.034 244.002,224.000 244.055 C 223.670 244.071,222.950 244.246,222.400 244.442 M181.390 245.584 C 181.532 245.813,182.117 246.000,182.690 246.000 C 183.944 246.000,183.799 245.808,182.266 245.440 C 181.523 245.262,181.221 245.311,181.390 245.584 M185.000 246.614 C 185.660 246.917,186.684 247.172,187.276 247.182 C 187.868 247.192,188.464 247.380,188.600 247.600 C 188.736 247.820,189.332 247.985,189.924 247.966 L 191.000 247.931 189.800 247.546 C 185.575 246.188,182.960 245.680,185.000 246.614 M214.400 246.626 C 213.410 246.915,212.060 247.327,211.400 247.542 L 210.200 247.931 211.276 247.966 C 211.868 247.985,212.464 247.820,212.600 247.600 C 212.736 247.380,213.332 247.192,213.924 247.182 C 214.516 247.172,215.540 246.917,216.200 246.614 C 217.703 245.926,216.773 245.932,214.400 246.626 M282.247 250.300 C 282.104 252.005,281.923 255.110,281.843 257.200 L 281.698 261.000 282.008 257.800 C 282.628 251.415,282.907 247.200,282.708 247.200 C 282.597 247.200,282.389 248.595,282.247 250.300 M192.035 248.356 C 192.905 248.919,198.388 250.316,197.983 249.871 C 197.790 249.659,195.192 248.877,192.400 248.191 C 191.622 247.999,191.541 248.036,192.035 248.356 M207.600 248.439 C 207.050 248.634,205.790 249.071,204.800 249.411 C 202.940 250.050,203.547 249.987,207.000 249.182 C 208.100 248.925,209.171 248.555,209.380 248.358 C 209.852 247.913,208.973 247.953,207.600 248.439 M119.471 253.800 C 119.570 256.000,119.801 258.970,119.983 260.400 C 120.397 263.643,120.065 257.100,119.588 252.600 C 119.344 250.305,119.323 250.521,119.471 253.800 M199.284 250.461 C 199.568 250.641,200.160 250.788,200.600 250.788 C 201.040 250.788,201.632 250.641,201.916 250.461 C 202.226 250.263,201.703 250.133,200.600 250.133 C 199.497 250.133,198.974 250.263,199.284 250.461 M151.873 257.000 C 151.996 258.980,152.165 260.675,152.248 260.767 C 152.536 261.083,152.305 255.797,151.978 254.600 C 151.781 253.879,151.739 254.838,151.873 257.000 M248.971 258.775 C 248.679 261.354,247.726 262.400,245.666 262.400 C 245.240 262.400,244.286 262.680,243.546 263.022 C 242.660 263.431,242.542 263.558,243.200 263.392 C 243.750 263.253,244.996 262.973,245.970 262.769 C 246.943 262.565,248.057 262.110,248.446 261.759 C 249.133 261.136,249.945 257.012,249.473 256.540 C 249.350 256.417,249.124 257.423,248.971 258.775 M154.200 262.000 C 155.301 262.473,155.692 262.473,155.400 262.000 C 155.264 261.780,154.758 261.613,154.276 261.628 C 153.431 261.655,153.429 261.669,154.200 262.000 M281.020 264.118 C 280.845 265.613,280.800 266.933,280.918 267.052 C 281.211 267.344,281.722 263.095,281.508 262.153 C 281.413 261.739,281.194 262.623,281.020 264.118 M157.000 262.811 C 159.904 263.606,160.275 263.645,159.000 263.022 C 158.340 262.700,157.350 262.446,156.800 262.459 C 155.880 262.480,155.896 262.508,157.000 262.811 M161.400 264.000 C 162.501 264.473,162.892 264.473,162.600 264.000 C 162.464 263.780,161.958 263.613,161.476 263.628 C 160.631 263.655,160.629 263.669,161.400 264.000 M239.800 264.000 C 239.508 264.473,239.899 264.473,241.000 264.000 C 241.771 263.669,241.769 263.655,240.924 263.628 C 240.442 263.613,239.936 263.780,239.800 264.000 M164.200 264.811 C 167.104 265.606,167.475 265.645,166.200 265.022 C 165.540 264.700,164.550 264.446,164.000 264.459 C 163.080 264.480,163.096 264.508,164.200 264.811 M236.200 265.022 C 234.925 265.645,235.296 265.606,238.200 264.811 C 239.304 264.508,239.320 264.480,238.400 264.459 C 237.850 264.446,236.860 264.700,236.200 265.022 M120.490 266.600 C 120.484 267.700,120.624 269.050,120.800 269.600 C 121.256 271.023,121.269 268.922,120.820 266.400 L 120.500 264.600 120.490 266.600 M168.600 266.000 C 169.701 266.473,170.092 266.473,169.800 266.000 C 169.664 265.780,169.158 265.613,168.676 265.628 C 167.831 265.655,167.829 265.669,168.600 266.000 M232.600 266.000 C 232.308 266.473,232.699 266.473,233.800 266.000 C 234.571 265.669,234.569 265.655,233.724 265.628 C 233.242 265.613,232.736 265.780,232.600 266.000 M171.400 266.811 C 174.297 267.604,174.585 267.637,173.254 267.022 C 172.514 266.680,171.524 266.418,171.054 266.441 C 170.409 266.472,170.494 266.562,171.400 266.811 M228.800 267.033 C 227.306 267.645,228.217 267.567,230.800 266.863 C 231.920 266.558,232.000 266.480,231.200 266.471 C 230.650 266.466,229.570 266.719,228.800 267.033 M175.600 268.000 C 176.388 268.509,177.315 268.509,177.000 268.000 C 176.864 267.780,176.358 267.603,175.876 267.606 C 175.164 267.611,175.112 267.685,175.600 268.000 M225.200 268.000 C 224.667 268.345,224.667 268.388,225.200 268.388 C 225.530 268.388,226.070 268.213,226.400 268.000 C 226.933 267.655,226.933 267.612,226.400 267.612 C 226.070 267.612,225.530 267.787,225.200 268.000 M178.600 268.811 C 181.497 269.604,181.785 269.637,180.454 269.022 C 179.714 268.680,178.724 268.418,178.254 268.441 C 177.609 268.472,177.694 268.562,178.600 268.811 M221.400 269.014 C 219.807 269.744,220.973 269.742,223.000 269.012 C 224.236 268.566,224.373 268.439,223.600 268.450 C 223.050 268.458,222.060 268.712,221.400 269.014 M280.247 272.300 C 280.104 274.005,279.923 277.110,279.843 279.200 L 279.698 283.000 280.008 279.800 C 280.628 273.415,280.907 269.200,280.708 269.200 C 280.597 269.200,280.389 270.595,280.247 272.300 M182.800 270.000 C 183.588 270.509,184.515 270.509,184.200 270.000 C 184.064 269.780,183.558 269.603,183.076 269.606 C 182.364 269.611,182.312 269.685,182.800 270.000 M217.800 270.000 C 217.485 270.509,218.412 270.509,219.200 270.000 C 219.688 269.685,219.636 269.611,218.924 269.606 C 218.442 269.603,217.936 269.780,217.800 270.000 M186.400 271.021 C 188.749 271.761,189.872 271.735,187.800 270.988 C 186.920 270.671,185.840 270.421,185.400 270.433 C 184.960 270.444,185.410 270.709,186.400 271.021 M214.800 270.767 C 214.470 270.956,213.436 271.236,212.502 271.390 C 211.568 271.544,210.691 271.853,210.552 272.078 C 210.389 272.341,210.636 272.378,211.250 272.181 C 211.772 272.014,212.830 271.713,213.600 271.512 C 217.335 270.541,217.484 270.484,216.400 270.453 C 215.850 270.437,215.130 270.579,214.800 270.767 M190.000 272.000 C 190.330 272.213,190.870 272.388,191.200 272.388 C 191.733 272.388,191.733 272.345,191.200 272.000 C 190.870 271.787,190.330 271.612,190.000 271.612 C 189.467 271.612,189.467 271.655,190.000 272.000 M193.600 273.021 C 195.949 273.761,197.072 273.735,195.000 272.988 C 194.120 272.671,193.040 272.421,192.600 272.433 C 192.160 272.444,192.610 272.709,193.600 273.021 M207.000 272.813 C 206.560 273.010,205.417 273.369,204.460 273.612 C 203.502 273.854,202.802 274.135,202.903 274.236 C 203.075 274.408,205.892 273.725,208.600 272.854 C 209.719 272.495,209.732 272.468,208.800 272.461 C 208.250 272.457,207.440 272.615,207.000 272.813 M121.452 276.600 C 121.557 278.580,121.795 281.370,121.979 282.800 C 122.281 285.137,122.295 285.036,122.119 281.800 C 122.012 279.820,121.774 277.030,121.592 275.600 C 121.295 273.270,121.281 273.374,121.452 276.600 M197.200 274.000 C 197.530 274.213,198.070 274.388,198.400 274.388 C 198.933 274.388,198.933 274.345,198.400 274.000 C 198.070 273.787,197.530 273.612,197.200 273.612 C 196.667 273.612,196.667 273.655,197.200 274.000 M199.900 274.682 C 200.395 274.778,201.205 274.778,201.700 274.682 C 202.195 274.587,201.790 274.509,200.800 274.509 C 199.810 274.509,199.405 274.587,199.900 274.682 M279.020 286.118 C 278.845 287.613,278.800 288.933,278.918 289.052 C 279.211 289.344,279.722 285.095,279.508 284.153 C 279.413 283.739,279.194 284.623,279.020 286.118 M122.490 289.000 C 122.484 290.100,122.624 291.450,122.800 292.000 C 123.256 293.423,123.269 291.322,122.820 288.800 L 122.500 287.000 122.490 289.000 M278.454 293.267 C 278.397 294.390,278.208 294.491,273.000 296.168 C 270.818 296.871,272.291 296.743,275.241 295.973 C 277.785 295.309,278.920 294.387,278.692 293.170 C 278.514 292.225,278.508 292.228,278.454 293.267 M124.200 295.086 C 124.625 295.515,127.406 296.350,129.400 296.648 C 130.894 296.871,128.400 295.861,126.520 295.482 C 125.904 295.358,125.040 295.127,124.600 294.969 C 124.063 294.777,123.931 294.815,124.200 295.086 M131.200 297.200 C 131.530 297.413,132.070 297.588,132.400 297.588 C 132.933 297.588,132.933 297.545,132.400 297.200 C 132.070 296.987,131.530 296.812,131.200 296.812 C 130.667 296.812,130.667 296.855,131.200 297.200 M269.200 297.200 C 268.667 297.545,268.667 297.588,269.200 297.588 C 269.530 297.588,270.070 297.413,270.400 297.200 C 270.933 296.855,270.933 296.812,270.400 296.812 C 270.070 296.812,269.530 296.987,269.200 297.200 M134.600 298.212 C 135.480 298.529,136.560 298.779,137.000 298.767 C 137.440 298.756,136.990 298.491,136.000 298.179 C 133.651 297.439,132.528 297.465,134.600 298.212 M265.400 298.211 C 264.517 298.502,264.158 298.750,264.600 298.763 C 265.040 298.777,266.120 298.529,267.000 298.212 C 268.997 297.492,267.582 297.492,265.400 298.211 M138.200 299.086 C 138.625 299.515,141.406 300.350,143.400 300.648 C 144.894 300.871,142.400 299.861,140.520 299.482 C 139.904 299.358,139.040 299.127,138.600 298.969 C 138.063 298.777,137.931 298.815,138.200 299.086 M258.400 300.225 C 257.142 300.701,257.103 300.757,258.020 300.777 C 258.581 300.790,259.211 300.637,259.420 300.439 C 259.629 300.240,260.160 299.991,260.600 299.885 L 261.400 299.693 260.600 299.694 C 260.160 299.695,259.170 299.934,258.400 300.225 M145.420 301.145 C 145.850 301.535,148.795 302.384,150.600 302.638 C 151.260 302.731,150.360 302.360,148.600 301.813 C 144.978 300.688,144.898 300.671,145.420 301.145 M252.800 301.843 C 251.150 302.370,250.340 302.727,251.000 302.635 C 252.795 302.386,255.748 301.536,256.180 301.145 C 256.730 300.646,256.207 300.754,252.800 301.843 M152.400 303.200 C 152.730 303.413,153.270 303.588,153.600 303.588 C 154.133 303.588,154.133 303.545,153.600 303.200 C 153.270 302.987,152.730 302.812,152.400 302.812 C 151.867 302.812,151.867 302.855,152.400 303.200 M155.746 304.202 C 156.376 304.531,157.276 304.792,157.746 304.782 C 158.298 304.771,158.035 304.561,157.000 304.188 C 154.919 303.439,154.295 303.446,155.746 304.202 M244.000 304.225 C 242.980 304.611,242.832 304.761,243.454 304.777 C 243.924 304.790,244.914 304.537,245.654 304.216 C 247.365 303.473,245.968 303.481,244.000 304.225 M159.400 305.200 C 159.536 305.420,160.042 305.587,160.524 305.572 C 161.369 305.545,161.371 305.531,160.600 305.200 C 159.499 304.727,159.108 304.727,159.400 305.200 M240.800 305.200 C 240.312 305.515,240.364 305.589,241.076 305.594 C 241.558 305.597,242.064 305.420,242.200 305.200 C 242.515 304.691,241.588 304.691,240.800 305.200 M162.435 305.956 C 162.784 306.182,163.774 306.542,164.635 306.756 C 165.496 306.970,166.650 307.260,167.200 307.400 C 167.975 307.598,168.057 307.563,167.565 307.244 C 167.216 307.018,166.226 306.658,165.365 306.444 C 164.504 306.230,163.350 305.940,162.800 305.800 C 162.025 305.602,161.943 305.637,162.435 305.956 M238.000 306.000 C 237.670 306.213,236.950 306.415,236.400 306.448 C 235.581 306.498,235.548 306.538,236.215 306.671 C 236.663 306.760,237.653 306.563,238.415 306.232 C 239.177 305.902,239.530 305.627,239.200 305.622 C 238.870 305.617,238.330 305.787,238.000 306.000 M233.800 307.200 C 233.029 307.531,233.031 307.545,233.876 307.572 C 234.358 307.587,234.864 307.420,235.000 307.200 C 235.292 306.727,234.901 306.727,233.800 307.200 M169.946 308.178 C 170.686 308.520,171.676 308.782,172.146 308.759 C 172.791 308.728,172.706 308.638,171.800 308.389 C 168.903 307.596,168.615 307.563,169.946 308.178 M231.087 307.846 C 230.951 307.982,230.246 308.233,229.520 308.405 C 228.433 308.663,228.377 308.722,229.200 308.741 C 230.295 308.766,232.993 307.685,231.967 307.632 C 231.618 307.615,231.222 307.711,231.087 307.846 M173.400 309.200 C 173.536 309.420,174.042 309.587,174.524 309.572 C 175.369 309.545,175.371 309.531,174.600 309.200 C 173.499 308.727,173.108 308.727,173.400 309.200 M226.600 309.200 C 225.829 309.531,225.831 309.545,226.676 309.572 C 227.158 309.587,227.664 309.420,227.800 309.200 C 228.092 308.727,227.701 308.727,226.600 309.200 M177.000 310.178 C 177.660 310.500,178.650 310.754,179.200 310.741 C 180.120 310.720,180.104 310.692,179.000 310.389 C 176.096 309.594,175.725 309.555,177.000 310.178 M223.200 310.039 C 222.650 310.234,221.390 310.671,220.400 311.011 C 218.692 311.597,219.235 311.555,222.410 310.852 C 223.994 310.502,225.784 309.605,224.800 309.655 C 224.470 309.671,223.750 309.844,223.200 310.039 M180.600 311.200 C 180.736 311.420,181.242 311.587,181.724 311.572 C 182.569 311.545,182.571 311.531,181.800 311.200 C 180.699 310.727,180.308 310.727,180.600 311.200 M183.600 312.041 C 184.150 312.292,185.230 312.642,186.000 312.818 C 186.770 312.994,187.850 313.254,188.400 313.396 C 189.174 313.597,189.256 313.562,188.765 313.244 C 188.155 312.849,185.686 312.141,183.600 311.764 L 182.600 311.583 183.600 312.041 M215.800 312.211 C 214.780 312.547,214.510 312.750,215.054 312.769 C 215.524 312.786,216.514 312.537,217.254 312.216 C 218.910 311.497,217.977 311.494,215.800 312.211 M212.600 313.200 C 211.829 313.531,211.831 313.545,212.676 313.572 C 213.158 313.587,213.664 313.420,213.800 313.200 C 214.092 312.727,213.701 312.727,212.600 313.200 M191.146 314.178 C 191.886 314.520,192.876 314.782,193.346 314.759 C 193.991 314.728,193.906 314.638,193.000 314.389 C 190.103 313.596,189.815 313.563,191.146 314.178 M209.887 313.846 C 209.751 313.982,209.046 314.233,208.320 314.405 C 207.233 314.663,207.177 314.722,208.000 314.741 C 209.095 314.766,211.793 313.685,210.767 313.632 C 210.418 313.615,210.022 313.711,209.887 313.846 M194.600 315.200 C 194.736 315.420,195.242 315.587,195.724 315.572 C 196.569 315.545,196.571 315.531,195.800 315.200 C 194.699 314.727,194.308 314.727,194.600 315.200 M205.400 315.200 C 204.629 315.531,204.631 315.545,205.476 315.572 C 205.958 315.587,206.464 315.420,206.600 315.200 C 206.892 314.727,206.501 314.727,205.400 315.200 M198.000 316.161 C 198.550 316.497,199.720 316.772,200.600 316.772 C 201.480 316.772,202.650 316.497,203.200 316.161 L 204.200 315.550 203.200 315.838 C 202.650 315.997,201.480 316.127,200.600 316.127 C 199.720 316.127,198.550 315.997,198.000 315.838 L 197.000 315.550 198.000 316.161 " stroke="none" fill="#f4a07d" fill-rule="evenodd"></path><path id="path3" d="M142.080 141.280 C 141.816 141.544,141.600 141.938,141.600 142.156 C 141.600 142.375,141.825 142.248,142.100 141.876 C 142.565 141.245,146.658 141.191,201.000 141.098 L 259.400 140.997 200.980 140.899 C 155.965 140.823,142.450 140.910,142.080 141.280 M168.093 172.000 C 168.093 172.770,168.175 173.085,168.276 172.700 C 168.376 172.315,168.376 171.685,168.276 171.300 C 168.175 170.915,168.093 171.230,168.093 172.000 M168.700 212.700 C 179.755 212.759,197.845 212.759,208.900 212.700 C 219.955 212.641,210.910 212.592,188.800 212.592 C 166.690 212.592,157.645 212.641,168.700 212.700 M155.100 224.699 C 158.235 224.767,163.365 224.767,166.500 224.699 C 169.635 224.632,167.070 224.576,160.800 224.576 C 154.530 224.576,151.965 224.632,155.100 224.699 " stroke="none" fill="#f7b494" fill-rule="evenodd"></path><path id="path4" d="M106.561 102.157 C 106.443 102.464,106.418 103.410,106.506 104.258 C 106.658 105.723,106.669 105.705,106.733 103.900 L 106.800 102.000 200.977 102.000 L 295.154 102.000 295.311 103.500 L 295.468 105.000 295.434 103.400 L 295.400 101.800 201.088 101.699 C 120.650 101.613,106.744 101.681,106.561 102.157 M106.877 107.400 C 106.867 108.060,107.003 109.410,107.180 110.400 L 107.500 112.200 107.503 110.400 C 107.504 109.410,107.368 108.060,107.200 107.400 L 106.895 106.200 106.877 107.400 M294.686 107.800 C 294.533 108.680,294.430 110.210,294.455 111.200 C 294.494 112.730,294.555 112.581,294.860 110.200 C 295.257 107.105,295.124 105.271,294.686 107.800 M107.676 117.000 C 107.667 117.660,107.803 119.010,107.980 120.000 C 108.278 121.678,108.302 121.705,108.327 120.400 C 108.342 119.630,108.205 118.280,108.023 117.400 C 107.737 116.020,107.690 115.965,107.676 117.000 M293.790 118.138 C 293.639 119.352,293.598 120.582,293.699 120.872 C 293.800 121.162,294.018 120.264,294.184 118.875 C 294.349 117.487,294.390 116.257,294.275 116.142 C 294.160 116.027,293.942 116.925,293.790 118.138 M108.534 125.200 C 108.534 126.850,108.605 127.525,108.691 126.700 C 108.778 125.875,108.778 124.525,108.691 123.700 C 108.605 122.875,108.534 123.550,108.534 125.200 M293.328 125.600 C 293.328 127.030,293.401 127.615,293.489 126.900 C 293.578 126.185,293.578 125.015,293.489 124.300 C 293.401 123.585,293.328 124.170,293.328 125.600 M292.694 129.800 C 292.537 130.680,292.429 132.120,292.453 133.000 C 292.491 134.378,292.547 134.267,292.855 132.200 C 293.266 129.446,293.126 127.372,292.694 129.800 M109.088 132.200 C 109.209 133.960,109.374 135.475,109.454 135.567 C 109.729 135.880,109.506 131.403,109.187 130.200 C 108.999 129.490,108.959 130.306,109.088 132.200 M291.790 140.138 C 291.639 141.352,291.598 142.582,291.699 142.872 C 291.800 143.162,292.018 142.264,292.184 140.875 C 292.349 139.487,292.390 138.257,292.275 138.142 C 292.160 138.027,291.942 138.925,291.790 140.138 M109.680 139.600 C 109.668 140.370,109.803 141.810,109.980 142.800 C 110.276 144.467,110.301 144.497,110.320 143.200 C 110.332 142.430,110.197 140.990,110.020 140.000 C 109.724 138.333,109.699 138.303,109.680 139.600 M141.818 141.039 C 141.348 141.509,141.249 142.066,141.442 143.139 C 141.813 145.193,142.154 145.341,141.898 143.337 C 141.776 142.378,141.871 141.489,142.123 141.237 C 142.704 140.656,258.505 140.614,259.589 141.194 C 260.172 141.506,260.293 141.945,260.169 143.294 C 260.045 144.649,260.086 144.794,260.367 144.000 C 260.908 142.468,260.859 141.716,260.171 141.029 C 259.201 140.058,142.789 140.068,141.818 141.039 M110.534 147.600 C 110.534 149.250,110.605 149.925,110.691 149.100 C 110.778 148.275,110.778 146.925,110.691 146.100 C 110.605 145.275,110.534 145.950,110.534 147.600 M291.328 147.600 C 291.328 149.030,291.401 149.615,291.489 148.900 C 291.578 148.185,291.578 147.015,291.489 146.300 C 291.401 145.585,291.328 146.170,291.328 147.600 M142.134 148.800 C 142.134 150.450,142.205 151.125,142.291 150.300 C 142.378 149.475,142.378 148.125,142.291 147.300 C 142.205 146.475,142.134 147.150,142.134 148.800 M259.676 149.041 C 259.634 150.164,259.517 152.234,259.415 153.641 L 259.230 156.200 259.623 153.800 C 259.839 152.480,259.956 150.410,259.883 149.200 L 259.751 147.000 259.676 149.041 M290.656 152.245 C 290.515 153.272,290.424 154.942,290.454 155.956 C 290.489 157.151,290.629 156.543,290.851 154.230 C 291.216 150.440,291.085 149.113,290.656 152.245 M111.094 154.800 C 111.213 156.670,111.375 158.275,111.455 158.367 C 111.729 158.681,111.505 153.800,111.191 152.600 C 111.010 151.910,110.969 152.844,111.094 154.800 M142.473 153.600 C 142.458 154.370,142.595 155.720,142.777 156.600 C 143.236 158.821,143.274 156.550,142.820 154.000 C 142.522 152.322,142.498 152.295,142.473 153.600 M258.914 158.200 C 258.917 159.300,258.995 159.703,259.087 159.095 C 259.179 158.486,259.177 157.586,259.082 157.095 C 258.987 156.603,258.911 157.100,258.914 158.200 M289.792 162.538 C 289.639 163.969,289.594 165.378,289.693 165.670 C 289.791 165.961,290.003 164.878,290.164 163.261 C 290.325 161.645,290.369 160.236,290.263 160.130 C 290.157 160.024,289.945 161.108,289.792 162.538 M111.882 163.600 C 112.473 170.888,112.726 172.764,112.529 168.400 C 112.425 166.090,112.182 163.390,111.989 162.400 C 111.721 161.023,111.696 161.305,111.882 163.600 M143.247 162.833 C 143.273 164.025,143.438 165.540,143.613 166.200 C 143.801 166.910,143.841 166.094,143.712 164.200 C 143.457 160.492,143.178 159.670,143.247 162.833 M167.857 164.708 C 167.752 164.878,167.807 166.363,167.979 168.008 L 168.291 171.000 168.346 167.902 L 168.400 164.803 213.100 164.700 L 257.800 164.597 212.924 164.498 C 188.242 164.444,167.961 164.539,167.857 164.708 M289.328 169.600 C 289.328 171.030,289.401 171.615,289.489 170.900 C 289.578 170.185,289.578 169.015,289.489 168.300 C 289.401 167.585,289.328 168.170,289.328 169.600 M144.134 171.200 C 144.134 172.850,144.205 173.525,144.291 172.700 C 144.378 171.875,144.378 170.525,144.291 169.700 C 144.205 168.875,144.134 169.550,144.134 171.200 M288.656 174.245 C 288.515 175.272,288.424 176.942,288.454 177.956 C 288.489 179.151,288.629 178.543,288.851 176.230 C 289.216 172.440,289.085 171.113,288.656 174.245 M113.074 177.000 C 113.197 178.760,113.365 180.275,113.449 180.367 C 113.732 180.679,113.507 176.205,113.178 175.000 C 112.978 174.264,112.937 175.038,113.074 177.000 M168.477 175.200 C 168.467 175.970,168.603 177.410,168.780 178.400 L 169.100 180.200 169.103 178.200 C 169.104 177.100,168.968 175.660,168.800 175.000 L 168.495 173.800 168.477 175.200 M144.473 176.000 C 144.458 176.770,144.595 178.120,144.777 179.000 C 145.236 181.221,145.274 178.950,144.820 176.400 C 144.522 174.722,144.498 174.695,144.473 176.000 M169.331 184.200 C 169.333 185.740,169.405 186.321,169.492 185.491 C 169.579 184.661,169.577 183.401,169.489 182.691 C 169.400 181.981,169.329 182.660,169.331 184.200 M287.792 184.538 C 287.639 185.969,287.594 187.378,287.693 187.670 C 287.791 187.961,288.003 186.878,288.164 185.261 C 288.325 183.645,288.369 182.236,288.263 182.130 C 288.157 182.024,287.945 183.108,287.792 184.538 M113.685 184.200 C 113.677 184.860,113.810 186.300,113.982 187.400 C 114.236 189.035,114.297 189.145,114.317 188.000 C 114.330 187.230,114.197 185.790,114.020 184.800 C 113.788 183.491,113.696 183.328,113.685 184.200 M145.290 186.000 C 145.284 186.990,145.424 188.250,145.600 188.800 L 145.920 189.800 145.930 188.800 C 145.936 188.250,145.797 186.990,145.620 186.000 L 145.300 184.200 145.290 186.000 M169.632 187.657 C 169.577 188.790,169.940 188.800,213.233 188.800 C 245.246 188.800,255.600 188.914,255.600 189.267 C 255.600 189.523,255.716 189.618,255.857 189.476 C 257.306 188.027,256.516 188.000,212.584 188.000 C 178.944 188.000,170.025 187.896,169.865 187.500 C 169.738 187.184,169.652 187.242,169.632 187.657 M287.328 191.600 C 287.328 193.030,287.401 193.615,287.489 192.900 C 287.578 192.185,287.578 191.015,287.489 190.300 C 287.401 189.585,287.328 190.170,287.328 191.600 M114.534 192.400 C 114.534 194.050,114.605 194.725,114.691 193.900 C 114.778 193.075,114.778 191.725,114.691 190.900 C 114.605 190.075,114.534 190.750,114.534 192.400 M255.731 192.600 C 255.733 194.140,255.805 194.721,255.892 193.891 C 255.979 193.061,255.977 191.801,255.889 191.091 C 255.800 190.381,255.729 191.060,255.731 192.600 M146.134 193.600 C 146.134 195.250,146.205 195.925,146.291 195.100 C 146.378 194.275,146.378 192.925,146.291 192.100 C 146.205 191.275,146.134 191.950,146.134 193.600 M286.681 196.156 C 286.527 197.232,286.424 198.942,286.453 199.956 C 286.493 201.348,286.591 201.016,286.853 198.600 C 287.243 194.996,287.114 193.149,286.681 196.156 M254.992 198.138 C 254.839 199.569,254.794 200.978,254.893 201.270 C 254.991 201.561,255.203 200.478,255.364 198.861 C 255.525 197.245,255.569 195.836,255.463 195.730 C 255.357 195.624,255.145 196.708,254.992 198.138 M115.074 199.400 C 115.197 201.160,115.365 202.675,115.449 202.767 C 115.732 203.079,115.507 198.605,115.178 197.400 C 114.978 196.664,114.937 197.438,115.074 199.400 M146.473 198.400 C 146.458 199.170,146.595 200.520,146.777 201.400 C 147.236 203.621,147.274 201.350,146.820 198.800 C 146.522 197.122,146.498 197.095,146.473 198.400 M285.787 206.587 C 285.631 208.044,285.589 209.323,285.695 209.428 C 285.801 209.534,286.010 208.423,286.160 206.960 C 286.310 205.497,286.351 204.218,286.252 204.118 C 286.152 204.019,285.943 205.129,285.787 206.587 M254.262 207.142 C 254.091 208.540,254.038 209.772,254.145 209.879 C 254.432 210.165,254.897 206.685,254.722 205.563 C 254.640 205.033,254.433 205.744,254.262 207.142 M115.871 208.800 C 116.714 217.505,116.726 217.581,116.544 213.200 C 116.448 210.890,116.200 208.370,115.994 207.600 C 115.706 206.526,115.677 206.805,115.871 208.800 M147.251 208.003 C 147.191 210.121,147.775 212.411,148.493 212.866 C 148.772 213.043,167.035 213.191,189.077 213.194 L 229.153 213.200 228.997 216.100 C 228.855 218.741,228.871 218.821,229.185 217.000 C 229.375 215.900,229.546 214.505,229.565 213.900 L 229.600 212.800 189.249 212.800 C 157.455 212.800,148.810 212.694,148.485 212.300 C 148.258 212.025,147.899 210.540,147.687 209.000 C 147.350 206.546,147.296 206.423,147.251 208.003 M285.328 213.200 C 285.328 214.630,285.401 215.215,285.489 214.500 C 285.578 213.785,285.578 212.615,285.489 211.900 C 285.401 211.185,285.328 211.770,285.328 213.200 M253.731 214.200 C 253.733 215.740,253.805 216.321,253.892 215.491 C 253.979 214.661,253.977 213.401,253.889 212.691 C 253.800 211.981,253.729 212.660,253.731 214.200 M284.681 218.156 C 284.527 219.232,284.424 220.942,284.453 221.956 C 284.493 223.348,284.591 223.016,284.853 220.600 C 285.243 216.996,285.114 215.149,284.681 218.156 M253.000 220.000 C 252.843 221.566,252.800 222.933,252.904 223.037 C 253.008 223.142,253.220 221.944,253.375 220.375 C 253.530 218.806,253.573 217.439,253.471 217.338 C 253.369 217.236,253.157 218.434,253.000 220.000 M117.074 221.800 C 117.197 223.560,117.365 225.075,117.449 225.167 C 117.732 225.479,117.507 221.005,117.178 219.800 C 116.978 219.064,116.937 219.838,117.074 221.800 M228.043 226.000 C 227.756 228.310,227.600 230.830,227.696 231.600 C 227.833 232.690,227.886 232.529,227.936 230.877 C 227.971 229.709,228.194 227.506,228.430 225.981 C 228.667 224.456,228.794 222.892,228.713 222.504 C 228.632 222.117,228.331 223.690,228.043 226.000 M149.384 224.427 C 149.239 224.661,149.228 224.961,149.360 225.093 C 149.492 225.225,149.600 225.123,149.600 224.867 C 149.600 224.062,171.761 224.218,172.571 225.029 C 172.917 225.374,173.200 225.500,173.200 225.309 C 173.200 224.120,172.072 224.000,160.944 224.000 C 153.374 224.000,149.560 224.141,149.384 224.427 M252.262 228.742 C 252.091 230.140,252.038 231.372,252.145 231.479 C 252.432 231.765,252.897 228.285,252.722 227.163 C 252.640 226.633,252.433 227.344,252.262 228.742 M283.882 227.550 C 283.727 228.293,283.621 229.553,283.647 230.350 C 283.686 231.573,283.750 231.456,284.057 229.603 C 284.465 227.141,284.321 225.451,283.882 227.550 M149.247 230.033 C 149.273 231.225,149.442 232.740,149.622 233.400 C 149.822 234.136,149.863 233.362,149.726 231.400 C 149.467 227.694,149.178 226.867,149.247 230.033 M117.677 229.800 C 117.667 230.460,117.803 231.810,117.980 232.800 L 118.300 234.600 118.303 232.800 C 118.304 231.810,118.168 230.460,118.000 229.800 L 117.695 228.600 117.677 229.800 M173.230 230.433 C 173.246 231.405,173.412 233.010,173.598 234.000 C 173.843 235.308,173.876 234.870,173.717 232.400 C 173.481 228.748,173.181 227.536,173.230 230.433 M283.328 235.200 C 283.328 236.630,283.401 237.215,283.489 236.500 C 283.578 235.785,283.578 234.615,283.489 233.900 C 283.401 233.185,283.328 233.770,283.328 235.200 M251.516 237.000 C 250.805 244.010,250.777 245.215,251.414 241.400 C 251.745 239.420,251.967 236.990,251.908 236.000 C 251.813 234.421,251.765 234.544,251.516 237.000 M227.082 235.950 C 226.927 236.693,226.822 238.043,226.849 238.950 C 226.892 240.428,226.935 240.350,227.253 238.200 C 227.649 235.523,227.522 233.847,227.082 235.950 M118.528 238.400 C 118.528 239.830,118.601 240.415,118.689 239.700 C 118.778 238.985,118.778 237.815,118.689 237.100 C 118.601 236.385,118.528 236.970,118.528 238.400 M174.134 238.800 C 174.134 240.450,174.205 241.125,174.291 240.300 C 174.378 239.475,174.378 238.125,174.291 237.300 C 174.205 236.475,174.134 237.150,174.134 238.800 M150.035 239.833 C 150.054 241.575,150.211 243.900,150.383 245.000 C 150.575 246.232,150.617 245.080,150.492 242.000 C 150.263 236.359,149.982 235.027,150.035 239.833 M282.681 240.156 C 282.527 241.232,282.423 242.852,282.452 243.756 C 282.488 244.899,282.611 244.485,282.856 242.400 C 283.256 239.002,283.112 237.160,282.681 240.156 M119.082 244.400 C 119.204 246.050,119.371 247.475,119.452 247.567 C 119.728 247.877,119.507 243.808,119.183 242.600 C 118.986 241.868,118.947 242.569,119.082 244.400 M225.823 243.033 C 225.174 243.507,225.154 243.600,225.700 243.600 C 226.059 243.600,226.471 243.408,226.616 243.173 C 227.040 242.487,226.661 242.420,225.823 243.033 M178.200 244.212 C 179.080 244.529,180.070 244.783,180.400 244.776 C 180.730 244.770,180.280 244.505,179.400 244.188 C 178.520 243.871,177.530 243.617,177.200 243.624 C 176.870 243.630,177.320 243.895,178.200 244.212 M221.600 244.225 C 220.830 244.516,220.470 244.762,220.800 244.771 C 221.130 244.781,222.120 244.529,223.000 244.212 C 223.880 243.895,224.240 243.649,223.800 243.665 C 223.360 243.682,222.370 243.934,221.600 244.225 M184.033 245.744 C 184.125 245.823,184.740 246.008,185.400 246.156 C 186.276 246.352,186.438 246.315,186.000 246.018 C 185.460 245.653,183.632 245.398,184.033 245.744 M215.200 246.018 C 214.762 246.315,214.924 246.352,215.800 246.156 C 217.271 245.827,217.590 245.598,216.567 245.606 C 216.145 245.609,215.530 245.795,215.200 246.018 M189.200 247.200 C 189.530 247.413,190.070 247.588,190.400 247.588 C 190.933 247.588,190.933 247.545,190.400 247.200 C 190.070 246.987,189.530 246.812,189.200 246.812 C 188.667 246.812,188.667 246.855,189.200 247.200 M210.800 247.200 C 210.267 247.545,210.267 247.588,210.800 247.588 C 211.130 247.588,211.670 247.413,212.000 247.200 C 212.533 246.855,212.533 246.812,212.000 246.812 C 211.670 246.812,211.130 246.987,210.800 247.200 M150.920 249.200 C 150.920 250.410,150.995 250.905,151.087 250.300 C 151.178 249.695,151.178 248.705,151.087 248.100 C 150.995 247.495,150.920 247.990,150.920 249.200 M192.800 248.221 C 195.149 248.961,196.272 248.935,194.200 248.188 C 193.320 247.871,192.240 247.621,191.800 247.633 C 191.360 247.644,191.810 247.909,192.800 248.221 M208.000 248.018 C 207.562 248.315,207.724 248.352,208.600 248.156 C 210.071 247.827,210.390 247.598,209.367 247.606 C 208.945 247.609,208.330 247.795,208.000 248.018 M250.240 250.342 C 250.081 251.740,250.037 252.970,250.142 253.076 C 250.408 253.341,250.927 248.979,250.707 248.328 C 250.610 248.038,250.399 248.944,250.240 250.342 M281.882 249.550 C 281.727 250.293,281.621 251.553,281.647 252.350 C 281.686 253.573,281.750 253.456,282.057 251.603 C 282.465 249.141,282.321 247.451,281.882 249.550 M203.600 249.200 C 203.067 249.545,203.067 249.588,203.600 249.588 C 203.930 249.588,204.470 249.413,204.800 249.200 C 205.333 248.855,205.333 248.812,204.800 248.812 C 204.470 248.812,203.930 248.987,203.600 249.200 M198.940 249.873 C 199.054 249.987,199.801 250.080,200.600 250.080 C 201.399 250.080,202.146 249.987,202.260 249.873 C 202.374 249.760,201.627 249.667,200.600 249.667 C 199.573 249.667,198.826 249.760,198.940 249.873 M119.676 252.200 C 119.667 252.860,119.803 254.210,119.980 255.200 C 120.278 256.878,120.302 256.905,120.327 255.600 C 120.342 254.830,120.205 253.480,120.023 252.600 C 119.737 251.220,119.690 251.165,119.676 252.200 M151.247 256.233 C 151.273 257.535,151.440 259.140,151.618 259.800 C 151.811 260.516,151.852 259.629,151.719 257.600 C 151.460 253.629,151.179 252.816,151.247 256.233 M249.648 258.000 C 249.517 260.758,249.211 261.540,247.980 262.256 C 247.226 262.694,247.175 262.799,247.758 262.712 C 249.243 262.492,250.058 260.766,249.898 258.175 L 249.751 255.800 249.648 258.000 M281.047 259.084 C 280.685 262.376,280.372 267.475,280.561 267.000 C 280.867 266.232,281.728 257.195,281.516 256.983 C 281.398 256.865,281.187 257.810,281.047 259.084 M120.531 261.000 C 120.533 262.540,120.605 263.121,120.692 262.291 C 120.779 261.461,120.777 260.201,120.689 259.491 C 120.600 258.781,120.529 259.460,120.531 261.000 M157.546 263.416 C 158.286 263.737,159.186 263.992,159.546 263.982 C 159.906 263.973,159.480 263.705,158.600 263.388 C 156.527 262.642,155.806 262.660,157.546 263.416 M243.600 263.425 C 242.718 263.759,242.496 263.957,243.000 263.959 C 243.440 263.962,244.340 263.717,245.000 263.414 C 246.527 262.715,245.455 262.723,243.600 263.425 M121.085 267.400 C 121.207 269.380,121.372 271.075,121.453 271.167 C 121.740 271.492,121.548 266.974,121.208 265.400 C 120.968 264.286,120.930 264.894,121.085 267.400 M161.000 264.400 C 161.136 264.620,161.642 264.787,162.124 264.772 C 162.969 264.745,162.971 264.731,162.200 264.400 C 161.099 263.927,160.708 263.927,161.000 264.400 M237.200 265.200 C 236.667 265.545,236.667 265.588,237.200 265.588 C 237.530 265.588,238.070 265.413,238.400 265.200 C 238.933 264.855,238.933 264.812,238.400 264.812 C 238.070 264.812,237.530 264.987,237.200 265.200 M233.000 266.400 C 232.229 266.731,232.231 266.745,233.076 266.772 C 233.558 266.787,234.064 266.620,234.200 266.400 C 234.492 265.927,234.101 265.927,233.000 266.400 M171.200 267.200 C 171.530 267.413,172.070 267.588,172.400 267.588 C 172.933 267.588,172.933 267.545,172.400 267.200 C 172.070 266.987,171.530 266.812,171.200 266.812 C 170.667 266.812,170.667 266.855,171.200 267.200 M226.000 268.259 C 224.523 268.853,225.426 268.765,228.000 268.063 C 229.089 267.767,229.178 267.683,228.400 267.689 C 227.850 267.692,226.770 267.949,226.000 268.259 M179.000 269.378 C 179.660 269.700,180.650 269.954,181.200 269.941 C 182.120 269.920,182.104 269.892,181.000 269.589 C 178.096 268.794,177.725 268.755,179.000 269.378 M182.600 270.400 C 182.736 270.620,183.242 270.787,183.724 270.772 C 184.569 270.745,184.571 270.731,183.800 270.400 C 182.699 269.927,182.308 269.927,182.600 270.400 M218.200 270.400 C 217.429 270.731,217.431 270.745,218.276 270.772 C 218.758 270.787,219.264 270.620,219.400 270.400 C 219.692 269.927,219.301 269.927,218.200 270.400 M279.882 271.550 C 279.727 272.293,279.621 273.553,279.647 274.350 C 279.686 275.573,279.750 275.456,280.057 273.603 C 280.465 271.141,280.321 269.451,279.882 271.550 M186.200 271.414 C 186.860 271.717,187.760 271.960,188.200 271.955 C 188.640 271.950,188.190 271.691,187.200 271.379 C 184.979 270.680,184.622 270.692,186.200 271.414 M215.200 271.200 C 214.870 271.413,214.150 271.615,213.600 271.648 C 212.781 271.698,212.748 271.738,213.415 271.871 C 213.863 271.960,214.853 271.763,215.615 271.432 C 216.377 271.102,216.730 270.827,216.400 270.822 C 216.070 270.817,215.530 270.987,215.200 271.200 M189.600 272.382 C 189.930 272.605,190.545 272.791,190.967 272.794 C 191.990 272.802,191.671 272.573,190.200 272.244 C 189.324 272.048,189.162 272.085,189.600 272.382 M193.400 273.414 C 194.060 273.717,194.960 273.960,195.400 273.955 C 195.840 273.950,195.390 273.691,194.400 273.379 C 192.179 272.680,191.822 272.692,193.400 273.414 M121.676 274.600 C 121.667 275.260,121.803 276.610,121.980 277.600 C 122.278 279.278,122.302 279.305,122.327 278.000 C 122.342 277.230,122.205 275.880,122.023 275.000 C 121.737 273.620,121.690 273.565,121.676 274.600 M196.800 274.400 C 197.130 274.613,197.760 274.778,198.200 274.766 L 199.000 274.744 198.200 274.400 C 197.004 273.886,196.005 273.886,196.800 274.400 M199.944 275.157 C 200.441 275.472,202.000 275.317,202.000 274.953 C 202.000 274.869,201.415 274.803,200.700 274.806 C 199.816 274.810,199.574 274.923,199.944 275.157 M278.860 283.400 C 278.563 286.040,278.399 288.830,278.496 289.600 C 278.621 290.596,278.690 290.329,278.736 288.677 C 278.771 287.399,278.993 285.111,279.228 283.593 C 279.464 282.076,279.599 280.331,279.528 279.717 C 279.458 279.103,279.157 280.760,278.860 283.400 M122.528 283.600 C 122.528 285.030,122.601 285.615,122.689 284.900 C 122.778 284.185,122.778 283.015,122.689 282.300 C 122.601 281.585,122.528 282.170,122.528 283.600 M123.100 290.000 C 123.217 292.090,123.376 293.875,123.456 293.967 C 123.736 294.290,123.549 289.378,123.222 287.800 C 123.001 286.738,122.960 287.477,123.100 290.000 M278.000 293.221 C 278.000 293.776,277.605 294.179,276.780 294.467 C 276.108 294.701,275.629 294.962,275.715 295.048 C 276.250 295.583,278.400 294.232,278.400 293.361 C 278.400 292.832,278.310 292.400,278.200 292.400 C 278.090 292.400,278.000 292.769,278.000 293.221 M268.600 296.786 C 268.160 296.969,267.017 297.329,266.061 297.587 C 265.105 297.845,264.388 298.121,264.468 298.202 C 264.656 298.389,269.963 296.970,270.288 296.645 C 270.634 296.300,269.555 296.390,268.600 296.786 M135.184 297.809 C 136.165 298.115,137.029 298.304,137.104 298.229 C 137.309 298.024,134.777 297.196,134.040 297.227 C 133.688 297.241,134.203 297.504,135.184 297.809 M138.600 298.800 C 139.701 299.273,140.092 299.273,139.800 298.800 C 139.664 298.580,139.158 298.413,138.676 298.428 C 137.831 298.455,137.829 298.469,138.600 298.800 M261.800 298.800 C 261.508 299.273,261.899 299.273,263.000 298.800 C 263.771 298.469,263.769 298.455,262.924 298.428 C 262.442 298.413,261.936 298.580,261.800 298.800 M258.200 299.852 C 256.935 300.470,257.160 300.443,260.200 299.611 C 261.293 299.311,261.311 299.281,260.400 299.273 C 259.850 299.269,258.860 299.529,258.200 299.852 M149.184 301.809 C 150.165 302.115,151.029 302.304,151.104 302.229 C 151.309 302.024,148.777 301.196,148.040 301.227 C 147.688 301.241,148.203 301.504,149.184 301.809 M152.600 302.800 C 153.701 303.273,154.092 303.273,153.800 302.800 C 153.664 302.580,153.158 302.413,152.676 302.428 C 151.831 302.455,151.829 302.469,152.600 302.800 M247.600 302.800 C 247.270 303.013,246.550 303.215,246.000 303.248 C 245.181 303.298,245.148 303.338,245.815 303.471 C 246.263 303.560,247.253 303.363,248.015 303.032 C 248.777 302.702,249.130 302.427,248.800 302.422 C 248.470 302.417,247.930 302.587,247.600 302.800 M155.400 303.611 C 158.304 304.406,158.675 304.445,157.400 303.822 C 156.740 303.500,155.750 303.246,155.200 303.259 C 154.280 303.280,154.296 303.308,155.400 303.611 M240.600 304.800 C 240.308 305.273,240.699 305.273,241.800 304.800 C 242.571 304.469,242.569 304.455,241.724 304.428 C 241.242 304.413,240.736 304.580,240.600 304.800 M237.000 305.852 C 235.735 306.470,235.960 306.443,239.000 305.611 C 240.093 305.311,240.111 305.281,239.200 305.273 C 238.650 305.269,237.660 305.529,237.000 305.852 M233.400 306.800 C 233.108 307.273,233.499 307.273,234.600 306.800 C 235.371 306.469,235.369 306.455,234.524 306.428 C 234.042 306.413,233.536 306.580,233.400 306.800 M169.400 307.611 C 172.304 308.406,172.675 308.445,171.400 307.822 C 170.740 307.500,169.750 307.246,169.200 307.259 C 168.280 307.280,168.296 307.308,169.400 307.611 M173.800 308.800 C 174.901 309.273,175.292 309.273,175.000 308.800 C 174.864 308.580,174.358 308.413,173.876 308.428 C 173.031 308.455,173.029 308.469,173.800 308.800 M177.400 309.812 C 179.473 310.558,180.194 310.540,178.454 309.784 C 177.714 309.463,176.814 309.208,176.454 309.218 C 176.094 309.227,176.520 309.495,177.400 309.812 M222.600 309.814 C 221.032 310.533,221.731 310.536,224.000 309.821 C 225.226 309.434,225.481 309.255,224.800 309.259 C 224.250 309.262,223.260 309.512,222.600 309.814 M184.400 311.821 C 186.720 312.552,187.378 312.533,185.654 311.784 C 184.914 311.463,183.924 311.212,183.454 311.227 C 182.974 311.242,183.388 311.502,184.400 311.821 M215.600 311.800 C 213.733 312.519,214.539 312.533,216.800 311.821 C 217.790 311.509,218.240 311.255,217.800 311.257 C 217.360 311.259,216.370 311.503,215.600 311.800 M188.000 312.800 C 188.330 313.013,188.870 313.188,189.200 313.188 C 189.733 313.188,189.733 313.145,189.200 312.800 C 188.870 312.587,188.330 312.412,188.000 312.412 C 187.467 312.412,187.467 312.455,188.000 312.800 M191.400 313.812 C 192.280 314.129,193.270 314.383,193.600 314.376 C 193.930 314.370,193.480 314.105,192.600 313.788 C 191.720 313.471,190.730 313.217,190.400 313.224 C 190.070 313.230,190.520 313.495,191.400 313.812 M208.600 313.814 C 207.013 314.541,207.780 314.539,209.800 313.812 C 210.680 313.495,211.040 313.242,210.600 313.250 C 210.160 313.258,209.260 313.512,208.600 313.814 M198.000 315.633 C 200.671 316.418,201.132 316.478,201.771 316.120 C 202.246 315.854,202.021 315.750,200.907 315.720 C 200.078 315.698,198.770 315.577,198.000 315.451 L 196.600 315.222 198.000 315.633 " stroke="none" fill="#fcb49c" fill-rule="evenodd"></path></g></svg>