<svg id="svg" version="1.1" xmlns="http://www.w3.org/2000/svg" xmlns:xlink="http://www.w3.org/1999/xlink" width="400" height="402.4096385542169" viewBox="0, 0, 400,402.4096385542169"><g id="svgg"><path id="path0" d="M254.600 114.607 C 249.173 115.214,242.578 116.763,240.526 117.911 C 240.046 118.180,239.398 118.400,239.087 118.400 C 238.486 118.400,234.076 120.651,231.400 122.323 C 227.436 124.800,223.339 128.403,220.569 131.849 C 219.706 132.922,218.865 133.860,218.700 133.933 C 218.535 134.007,218.400 134.239,218.400 134.450 C 218.400 134.898,216.738 137.339,216.300 137.533 C 216.135 137.607,216.000 137.990,216.000 138.384 C 216.000 138.779,215.730 139.326,215.400 139.600 C 215.070 139.874,214.800 140.363,214.800 140.687 C 214.800 141.011,214.549 141.754,214.243 142.338 C 210.450 149.570,208.988 167.298,211.600 174.400 C 211.802 174.950,212.090 176.103,212.240 176.963 C 212.390 177.822,212.756 178.992,213.054 179.563 C 213.352 180.133,213.596 180.842,213.598 181.138 C 213.599 181.434,213.856 182.154,214.169 182.738 C 214.482 183.322,215.124 184.610,215.595 185.600 C 216.067 186.590,216.803 187.940,217.231 188.600 C 217.659 189.260,218.118 190.115,218.251 190.500 C 218.384 190.885,218.628 191.200,218.793 191.200 C 218.959 191.200,219.551 191.875,220.109 192.700 C 222.262 195.879,227.629 200.911,232.418 204.239 C 234.819 205.907,242.568 210.450,244.800 211.497 C 249.139 213.533,253.344 215.412,258.192 217.481 C 261.057 218.704,264.390 220.144,265.600 220.682 C 266.810 221.220,268.430 221.938,269.200 222.278 C 283.284 228.503,289.207 234.849,289.201 243.706 C 289.200 245.189,288.055 250.010,287.611 250.400 C 287.486 250.510,287.181 251.050,286.934 251.600 C 282.271 261.959,260.072 265.362,246.000 257.876 C 240.304 254.846,236.206 251.150,231.501 244.800 C 229.952 242.710,228.543 240.840,228.368 240.645 C 228.112 240.359,223.782 242.670,217.801 246.284 C 217.361 246.551,216.730 246.902,216.400 247.064 C 216.070 247.227,214.090 248.368,212.000 249.600 C 209.910 250.832,207.930 251.968,207.600 252.125 C 207.270 252.281,206.460 252.757,205.800 253.182 C 205.140 253.607,203.655 254.452,202.501 255.061 C 201.346 255.669,200.299 256.489,200.174 256.883 C 199.986 257.476,203.432 263.970,204.375 264.800 C 204.500 264.910,205.142 265.795,205.801 266.768 C 207.408 269.136,215.349 277.100,217.600 278.599 C 218.590 279.258,219.490 279.899,219.600 280.023 C 219.710 280.147,220.970 280.947,222.400 281.800 C 223.830 282.653,225.090 283.452,225.200 283.576 C 225.310 283.699,226.660 284.398,228.200 285.128 C 229.740 285.859,231.510 286.714,232.132 287.028 C 232.755 287.343,233.448 287.600,233.672 287.600 C 233.896 287.600,234.646 287.845,235.340 288.144 C 236.487 288.638,240.445 289.864,244.000 290.825 C 245.647 291.271,249.549 291.948,253.200 292.422 C 256.590 292.861,272.655 292.857,276.000 292.416 C 280.811 291.780,284.597 291.098,285.000 290.793 C 285.220 290.627,286.180 290.362,287.133 290.205 C 288.086 290.047,289.346 289.668,289.933 289.362 C 290.520 289.056,291.219 288.804,291.486 288.802 C 291.995 288.800,294.248 287.887,296.062 286.949 C 296.646 286.647,297.411 286.400,297.762 286.400 C 298.113 286.400,298.400 286.232,298.400 286.027 C 298.400 285.822,298.795 285.529,299.278 285.375 C 305.492 283.403,316.312 272.542,319.578 265.000 C 320.054 263.900,320.610 262.640,320.813 262.200 C 321.425 260.872,322.313 257.972,323.077 254.800 C 324.003 250.957,324.125 235.238,323.258 231.400 C 320.411 218.791,315.037 210.276,305.000 202.471 C 303.240 201.102,301.583 199.807,301.317 199.591 C 301.051 199.376,300.745 199.200,300.637 199.200 C 300.529 199.200,299.666 198.684,298.720 198.054 C 295.492 195.903,286.041 190.967,280.800 188.695 C 280.030 188.361,278.410 187.630,277.200 187.070 C 275.990 186.510,274.021 185.670,272.825 185.203 C 271.629 184.735,269.739 183.930,268.625 183.413 C 267.511 182.897,265.700 182.085,264.600 181.609 C 260.190 179.701,254.556 176.724,252.871 175.412 C 251.393 174.260,248.000 170.782,248.000 170.417 C 248.000 170.188,247.862 170.000,247.694 170.000 C 246.171 170.000,244.647 161.943,245.384 157.785 C 247.627 145.121,265.745 139.965,276.966 148.797 C 279.365 150.686,282.193 153.795,284.103 156.643 L 286.277 159.885 287.953 158.743 C 288.874 158.114,289.802 157.600,290.014 157.600 C 290.226 157.600,290.400 157.465,290.400 157.300 C 290.401 157.135,291.319 156.460,292.441 155.800 C 295.362 154.081,295.535 153.973,298.328 152.097 C 299.719 151.164,300.922 150.400,301.003 150.400 C 301.084 150.400,302.296 149.635,303.698 148.700 C 307.317 146.286,307.728 146.027,308.400 145.731 C 308.730 145.586,309.630 144.987,310.400 144.400 C 311.170 143.813,312.115 143.219,312.500 143.079 C 313.358 142.768,313.412 141.469,312.600 140.657 C 312.270 140.327,312.000 139.960,312.000 139.840 C 312.000 136.394,298.208 123.326,290.829 119.781 C 286.517 117.710,282.979 116.451,280.037 115.943 C 278.847 115.737,277.695 115.459,277.476 115.323 C 275.799 114.287,261.466 113.838,254.600 114.607 M143.590 180.100 C 143.580 240.562,143.538 244.382,142.853 247.400 C 140.593 257.362,135.090 261.593,124.400 261.590 C 114.174 261.586,108.381 257.457,101.553 245.303 C 100.666 243.724,99.543 243.121,99.032 243.949 C 98.827 244.279,82.359 254.368,80.075 255.562 C 79.484 255.871,78.940 256.276,78.867 256.462 C 78.793 256.648,78.556 256.800,78.339 256.800 C 78.122 256.800,77.159 257.340,76.200 258.000 C 75.241 258.660,74.308 259.206,74.128 259.213 C 72.366 259.285,71.484 263.600,73.231 263.600 C 73.434 263.600,73.600 263.829,73.600 264.109 C 73.600 264.389,74.230 265.575,75.000 266.744 C 75.770 267.913,76.400 268.957,76.400 269.063 C 76.400 269.170,76.625 269.508,76.900 269.815 C 77.175 270.121,77.583 270.603,77.806 270.886 C 84.153 278.921,89.322 283.190,97.638 287.266 C 99.359 288.110,100.909 288.801,101.083 288.802 C 101.258 288.804,101.883 289.057,102.473 289.365 C 103.063 289.673,104.143 290.042,104.873 290.186 C 105.603 290.329,106.560 290.605,107.000 290.798 C 107.815 291.156,110.847 291.775,114.800 292.390 C 117.797 292.857,132.789 292.862,136.000 292.398 C 140.457 291.754,146.831 290.247,148.600 289.420 C 149.260 289.112,150.520 288.566,151.400 288.208 C 152.280 287.850,153.450 287.313,154.000 287.016 C 154.550 286.719,155.619 286.143,156.376 285.738 C 158.117 284.805,158.027 284.868,161.600 282.055 C 164.476 279.791,166.983 277.182,169.020 274.331 C 169.543 273.599,170.113 272.810,170.286 272.578 C 172.032 270.233,175.051 263.547,176.144 259.600 C 178.810 249.983,178.800 250.272,178.800 179.531 L 178.800 116.000 161.200 116.000 L 143.600 116.000 143.590 180.100 " stroke="none" fill="#353533" fill-rule="evenodd"></path><path id="path1" d="M178.733 0.382 C 178.660 0.592,176.485 0.792,173.900 0.827 C 170.189 0.877,169.200 1.007,169.200 1.445 C 169.200 1.939,165.104 2.318,162.895 2.029 C 162.617 1.992,162.282 2.241,162.152 2.581 C 161.970 3.055,161.280 3.200,159.200 3.200 C 157.156 3.200,156.429 3.348,156.255 3.800 C 156.086 4.242,155.388 4.400,153.613 4.400 C 151.735 4.400,151.200 4.533,151.200 5.000 C 151.200 5.467,150.667 5.600,148.800 5.600 C 146.933 5.600,146.400 5.733,146.400 6.200 C 146.400 6.644,145.933 6.800,144.600 6.800 C 143.373 6.800,142.832 6.959,142.900 7.300 C 142.970 7.648,142.238 7.836,140.500 7.919 C 138.636 8.008,138.000 8.186,138.000 8.619 C 138.000 9.041,137.507 9.200,136.200 9.200 C 134.867 9.200,134.400 9.356,134.400 9.800 C 134.400 10.244,133.933 10.400,132.600 10.400 C 131.267 10.400,130.800 10.556,130.800 11.000 C 130.800 11.405,130.395 11.600,129.557 11.600 C 128.617 11.600,128.370 11.746,128.545 12.200 C 128.730 12.684,128.390 12.800,126.787 12.800 C 125.287 12.800,124.800 12.947,124.800 13.400 C 124.800 13.800,124.400 14.000,123.600 14.000 C 122.800 14.000,122.400 14.200,122.400 14.600 C 122.400 15.044,121.933 15.200,120.600 15.200 C 119.267 15.200,118.800 15.356,118.800 15.800 C 118.800 16.200,118.400 16.400,117.600 16.400 C 116.800 16.400,116.400 16.600,116.400 17.000 C 116.400 17.400,116.000 17.600,115.200 17.600 C 114.400 17.600,114.000 17.800,114.000 18.200 C 114.000 18.600,113.600 18.800,112.800 18.800 C 112.000 18.800,111.600 19.000,111.600 19.400 C 111.600 19.800,111.200 20.000,110.400 20.000 C 109.600 20.000,109.200 20.200,109.200 20.600 C 109.200 21.000,108.800 21.200,108.000 21.200 C 107.200 21.200,106.800 21.400,106.800 21.800 C 106.800 22.200,106.400 22.400,105.600 22.400 C 104.800 22.400,104.400 22.600,104.400 23.000 C 104.400 23.403,103.997 23.600,103.176 23.600 C 102.411 23.600,102.052 23.760,102.217 24.027 C 102.362 24.262,102.103 24.553,101.640 24.674 C 101.178 24.794,100.800 25.142,100.800 25.447 C 100.800 25.790,100.361 26.000,99.643 26.000 C 98.983 26.000,98.387 26.258,98.255 26.600 C 98.129 26.930,97.569 27.200,97.013 27.200 C 96.379 27.200,96.000 27.425,96.000 27.800 C 96.000 28.130,95.646 28.400,95.213 28.400 C 94.677 28.400,94.499 28.592,94.655 29.000 C 94.876 29.574,94.232 29.804,92.895 29.629 C 92.617 29.592,92.282 29.841,92.152 30.181 C 92.021 30.522,91.503 30.800,91.000 30.800 C 90.497 30.800,89.982 31.070,89.855 31.400 C 89.729 31.730,89.355 32.000,89.025 32.000 C 88.656 32.000,88.514 32.231,88.655 32.600 C 88.830 33.055,88.582 33.200,87.630 33.200 C 86.883 33.200,86.282 33.443,86.145 33.800 C 86.018 34.130,85.653 34.400,85.334 34.400 C 85.014 34.400,84.844 34.548,84.956 34.729 C 85.249 35.203,83.572 36.565,82.400 36.804 C 81.850 36.916,81.458 37.177,81.530 37.384 C 81.601 37.591,81.286 37.899,80.830 38.067 C 80.373 38.236,80.000 38.644,80.000 38.975 C 80.000 39.344,79.769 39.486,79.400 39.345 C 79.020 39.199,78.800 39.350,78.800 39.757 C 78.800 40.182,78.449 40.400,77.763 40.400 C 77.074 40.400,76.657 40.660,76.523 41.172 C 76.412 41.597,76.093 41.857,75.813 41.750 C 75.529 41.641,75.206 41.936,75.079 42.418 C 74.955 42.895,74.663 43.163,74.427 43.017 C 74.192 42.872,74.000 43.033,74.000 43.376 C 74.000 43.745,73.653 44.000,73.153 44.000 C 72.276 44.000,69.200 46.765,69.200 47.553 C 69.200 47.799,69.042 47.955,68.848 47.900 C 68.655 47.845,68.033 48.295,67.467 48.900 C 66.901 49.505,66.250 50.000,66.019 50.000 C 65.789 50.000,65.600 50.270,65.600 50.600 C 65.600 50.930,65.330 51.200,65.000 51.200 C 64.670 51.200,64.400 51.470,64.400 51.800 C 64.400 52.130,64.130 52.400,63.800 52.400 C 63.470 52.400,63.200 52.658,63.200 52.973 C 63.200 53.302,62.730 53.601,62.100 53.673 C 61.380 53.756,61.016 54.024,61.047 54.447 C 61.073 54.811,60.811 55.073,60.447 55.047 C 60.082 55.020,59.820 55.282,59.847 55.647 C 59.873 56.011,59.611 56.273,59.247 56.247 C 58.882 56.220,58.620 56.482,58.647 56.847 C 58.673 57.211,58.411 57.473,58.047 57.447 C 57.682 57.420,57.420 57.682,57.447 58.047 C 57.473 58.411,57.211 58.673,56.847 58.647 C 56.482 58.620,56.220 58.882,56.247 59.247 C 56.273 59.611,56.011 59.873,55.647 59.847 C 55.224 59.816,54.956 60.180,54.873 60.900 C 54.801 61.530,54.502 62.000,54.173 62.000 C 53.858 62.000,53.600 62.270,53.600 62.600 C 53.600 62.930,53.330 63.200,53.000 63.200 C 52.670 63.200,52.400 63.470,52.400 63.800 C 52.400 64.130,52.151 64.400,51.847 64.400 C 51.542 64.400,51.194 64.778,51.074 65.240 C 50.953 65.703,50.662 65.962,50.427 65.817 C 50.192 65.672,50.000 65.833,50.000 66.176 C 50.000 66.519,49.730 66.800,49.400 66.800 C 49.070 66.800,48.800 67.051,48.800 67.357 C 48.800 67.664,48.519 68.022,48.175 68.154 C 47.831 68.286,47.661 68.576,47.798 68.797 C 47.935 69.019,47.837 69.200,47.580 69.200 C 46.765 69.200,45.214 70.965,45.207 71.900 C 45.203 72.430,44.954 72.800,44.600 72.800 C 44.270 72.800,44.000 73.070,44.000 73.400 C 44.000 73.730,43.730 74.000,43.400 74.000 C 43.070 74.000,42.800 74.270,42.800 74.600 C 42.800 74.930,42.485 75.203,42.100 75.206 C 41.588 75.211,41.537 75.299,41.911 75.537 C 42.282 75.772,42.145 75.988,41.411 76.322 C 40.719 76.638,40.400 77.101,40.400 77.791 C 40.400 78.451,40.178 78.800,39.757 78.800 C 39.350 78.800,39.199 79.020,39.345 79.400 C 39.501 79.808,39.323 80.000,38.787 80.000 C 38.267 80.000,38.000 80.271,38.000 80.800 C 38.000 81.240,37.775 81.555,37.500 81.500 C 37.199 81.440,36.949 81.929,36.872 82.732 C 36.780 83.694,36.585 84.003,36.172 83.845 C 35.849 83.720,35.600 83.862,35.600 84.170 C 35.600 84.469,35.330 84.818,35.000 84.945 C 34.643 85.082,34.400 85.683,34.400 86.430 C 34.400 87.382,34.255 87.630,33.800 87.455 C 33.392 87.299,33.200 87.477,33.200 88.013 C 33.200 88.446,32.975 88.755,32.700 88.700 C 32.399 88.640,32.149 89.129,32.072 89.932 C 31.980 90.894,31.785 91.203,31.372 91.045 C 31.033 90.914,30.800 91.069,30.800 91.425 C 30.800 91.755,30.530 92.129,30.200 92.255 C 29.854 92.388,29.600 92.986,29.600 93.666 C 29.600 94.401,29.439 94.748,29.173 94.583 C 28.938 94.438,28.647 94.697,28.526 95.160 C 28.406 95.622,28.058 96.000,27.753 96.000 C 27.405 96.000,27.200 96.445,27.200 97.200 C 27.200 98.000,27.000 98.400,26.600 98.400 C 26.200 98.400,26.000 98.800,26.000 99.600 C 26.000 100.400,25.800 100.800,25.400 100.800 C 25.000 100.800,24.800 101.200,24.800 102.000 C 24.800 102.755,24.595 103.200,24.247 103.200 C 23.942 103.200,23.594 103.578,23.474 104.040 C 23.353 104.503,23.062 104.762,22.827 104.617 C 22.560 104.452,22.400 104.811,22.400 105.576 C 22.400 106.397,22.203 106.800,21.800 106.800 C 21.400 106.800,21.200 107.200,21.200 108.000 C 21.200 108.800,21.000 109.200,20.600 109.200 C 20.200 109.200,20.000 109.600,20.000 110.400 C 20.000 111.200,19.800 111.600,19.400 111.600 C 19.000 111.600,18.800 112.000,18.800 112.800 C 18.800 113.600,18.600 114.000,18.200 114.000 C 17.756 114.000,17.600 114.467,17.600 115.800 C 17.600 117.133,17.444 117.600,17.000 117.600 C 16.600 117.600,16.400 118.000,16.400 118.800 C 16.400 119.600,16.200 120.000,15.800 120.000 C 15.400 120.000,15.200 120.400,15.200 121.200 C 15.200 122.000,15.000 122.400,14.600 122.400 C 14.156 122.400,14.000 122.867,14.000 124.200 C 14.000 125.533,13.844 126.000,13.400 126.000 C 12.982 126.000,12.800 126.421,12.800 127.387 C 12.800 128.431,12.657 128.720,12.223 128.554 C 11.779 128.383,11.618 128.777,11.523 130.266 C 11.441 131.551,11.232 132.166,10.900 132.100 C 10.559 132.032,10.400 132.573,10.400 133.800 C 10.400 135.133,10.244 135.600,9.800 135.600 C 9.356 135.600,9.200 136.067,9.200 137.400 C 9.200 138.733,9.044 139.200,8.600 139.200 C 8.156 139.200,8.000 139.667,8.000 141.000 C 8.000 142.333,7.844 142.800,7.400 142.800 C 6.933 142.800,6.800 143.333,6.800 145.200 C 6.800 147.067,6.667 147.600,6.200 147.600 C 5.733 147.600,5.600 148.133,5.600 150.000 C 5.600 151.867,5.467 152.400,5.000 152.400 C 4.528 152.400,4.400 152.956,4.400 155.000 C 4.400 156.867,4.259 157.572,3.900 157.500 C 3.545 157.429,3.366 158.241,3.282 160.300 C 3.193 162.519,3.028 163.200,2.582 163.200 C 2.116 163.200,2.000 163.915,2.000 166.800 C 2.000 169.603,1.877 170.400,1.445 170.400 C 1.007 170.400,0.877 171.389,0.827 175.100 C 0.792 177.685,0.592 179.860,0.382 179.933 C -0.153 180.120,-0.135 222.400,0.400 222.400 C 0.644 222.400,0.800 224.267,0.800 227.200 C 0.800 231.200,0.900 232.000,1.400 232.000 C 1.889 232.000,2.000 232.667,2.000 235.600 C 2.000 238.533,2.111 239.200,2.600 239.200 C 3.075 239.200,3.200 239.773,3.200 241.957 C 3.200 244.039,3.347 244.771,3.800 244.945 C 4.242 245.114,4.400 245.812,4.400 247.587 C 4.400 249.465,4.533 250.000,5.000 250.000 C 5.467 250.000,5.600 250.533,5.600 252.400 C 5.600 254.267,5.733 254.800,6.200 254.800 C 6.667 254.800,6.800 255.333,6.800 257.200 C 6.800 259.067,6.933 259.600,7.400 259.600 C 7.844 259.600,8.000 260.067,8.000 261.400 C 8.000 262.733,8.156 263.200,8.600 263.200 C 9.044 263.200,9.200 263.667,9.200 265.000 C 9.200 266.333,9.356 266.800,9.800 266.800 C 10.244 266.800,10.400 267.267,10.400 268.600 C 10.400 269.933,10.556 270.400,11.000 270.400 C 11.447 270.400,11.600 270.871,11.600 272.243 C 11.600 273.716,11.720 274.039,12.200 273.855 C 12.662 273.678,12.800 273.944,12.800 275.013 C 12.800 275.979,12.982 276.400,13.400 276.400 C 13.844 276.400,14.000 276.867,14.000 278.200 C 14.000 279.533,14.156 280.000,14.600 280.000 C 15.000 280.000,15.200 280.400,15.200 281.200 C 15.200 282.000,15.400 282.400,15.800 282.400 C 16.200 282.400,16.400 282.800,16.400 283.600 C 16.400 284.400,16.600 284.800,17.000 284.800 C 17.444 284.800,17.600 285.267,17.600 286.600 C 17.600 287.933,17.756 288.400,18.200 288.400 C 18.600 288.400,18.800 288.800,18.800 289.600 C 18.800 290.400,19.000 290.800,19.400 290.800 C 19.800 290.800,20.000 291.200,20.000 292.000 C 20.000 292.800,20.200 293.200,20.600 293.200 C 21.000 293.200,21.200 293.600,21.200 294.400 C 21.200 295.200,21.400 295.600,21.800 295.600 C 22.203 295.600,22.400 296.003,22.400 296.824 C 22.400 297.589,22.560 297.948,22.827 297.783 C 23.062 297.638,23.353 297.897,23.474 298.360 C 23.594 298.822,23.942 299.200,24.247 299.200 C 24.595 299.200,24.800 299.645,24.800 300.400 C 24.800 301.200,25.000 301.600,25.400 301.600 C 25.800 301.600,26.000 302.000,26.000 302.800 C 26.000 303.600,26.200 304.000,26.600 304.000 C 26.995 304.000,27.200 304.395,27.200 305.157 C 27.200 305.817,27.458 306.413,27.800 306.545 C 28.130 306.671,28.400 307.051,28.400 307.387 C 28.400 307.724,28.621 307.955,28.891 307.900 C 29.160 307.845,29.448 308.250,29.529 308.800 C 29.610 309.350,29.930 309.944,30.238 310.120 C 30.547 310.296,30.800 310.701,30.800 311.020 C 30.800 311.339,31.015 311.555,31.278 311.500 C 31.541 311.445,31.866 311.940,32.000 312.600 C 32.134 313.260,32.459 313.755,32.722 313.700 C 32.985 313.645,33.200 313.979,33.200 314.443 C 33.200 315.028,33.384 315.215,33.800 315.055 C 34.251 314.882,34.400 315.123,34.400 316.025 C 34.400 316.723,34.651 317.321,35.000 317.455 C 35.330 317.582,35.600 317.936,35.600 318.243 C 35.600 318.549,35.858 318.800,36.173 318.800 C 36.502 318.800,36.801 319.270,36.873 319.900 C 36.945 320.519,37.219 320.956,37.500 320.900 C 37.775 320.845,38.000 321.160,38.000 321.600 C 38.000 322.040,38.180 322.400,38.400 322.400 C 39.099 322.400,40.400 323.969,40.400 324.813 C 40.400 325.259,40.670 325.729,41.000 325.855 C 41.330 325.982,41.600 326.347,41.600 326.666 C 41.600 326.986,41.792 327.128,42.027 326.983 C 42.262 326.838,42.553 327.097,42.674 327.560 C 42.794 328.022,43.142 328.400,43.447 328.400 C 43.751 328.400,44.000 328.670,44.000 329.000 C 44.000 329.330,44.270 329.600,44.600 329.600 C 44.954 329.600,45.203 329.970,45.207 330.500 C 45.214 331.435,46.765 333.200,47.580 333.200 C 47.837 333.200,47.935 333.381,47.798 333.603 C 47.661 333.824,47.831 334.114,48.175 334.246 C 48.519 334.378,48.800 334.736,48.800 335.043 C 48.800 335.349,49.070 335.600,49.400 335.600 C 49.730 335.600,50.000 335.849,50.000 336.153 C 50.000 336.458,50.378 336.806,50.840 336.926 C 51.303 337.047,51.562 337.338,51.417 337.573 C 51.272 337.808,51.433 338.000,51.776 338.000 C 52.119 338.000,52.400 338.270,52.400 338.600 C 52.400 338.930,52.670 339.200,53.000 339.200 C 53.330 339.200,53.600 339.449,53.600 339.753 C 53.600 340.058,53.961 340.401,54.402 340.516 C 54.935 340.656,55.122 340.938,54.960 341.361 C 54.631 342.217,61.180 348.800,62.360 348.800 C 62.854 348.800,63.200 349.057,63.200 349.424 C 63.200 349.767,63.392 349.928,63.627 349.783 C 63.862 349.638,64.153 349.897,64.274 350.360 C 64.394 350.822,64.742 351.200,65.047 351.200 C 65.351 351.200,65.600 351.470,65.600 351.800 C 65.600 352.130,65.870 352.400,66.200 352.400 C 66.530 352.400,66.800 352.670,66.800 353.000 C 66.800 353.330,67.051 353.600,67.357 353.600 C 67.664 353.600,68.022 353.881,68.154 354.225 C 68.286 354.569,68.576 354.739,68.797 354.602 C 69.019 354.465,69.200 354.565,69.200 354.823 C 69.200 355.630,72.262 358.400,73.153 358.400 C 73.639 358.400,74.000 358.656,74.000 359.000 C 74.000 359.330,74.270 359.600,74.600 359.600 C 74.930 359.600,75.200 359.870,75.200 360.200 C 75.200 360.530,75.451 360.800,75.757 360.800 C 76.064 360.800,76.418 361.070,76.545 361.400 C 76.671 361.730,77.231 362.000,77.787 362.000 C 78.421 362.000,78.800 362.225,78.800 362.600 C 78.800 362.930,79.051 363.200,79.357 363.200 C 79.664 363.200,80.018 363.470,80.145 363.800 C 80.271 364.130,80.651 364.400,80.987 364.400 C 81.324 364.400,81.555 364.615,81.500 364.878 C 81.445 365.141,81.850 365.456,82.400 365.578 C 83.583 365.841,85.246 367.202,84.956 367.671 C 84.844 367.852,85.014 368.000,85.334 368.000 C 85.653 368.000,86.018 368.270,86.145 368.600 C 86.282 368.957,86.883 369.200,87.630 369.200 C 88.582 369.200,88.830 369.345,88.655 369.800 C 88.514 370.169,88.656 370.400,89.025 370.400 C 89.355 370.400,89.729 370.670,89.855 371.000 C 89.982 371.330,90.497 371.600,91.000 371.600 C 91.503 371.600,92.033 371.910,92.179 372.289 C 92.405 372.879,92.496 372.893,92.815 372.389 C 93.067 371.990,93.190 371.962,93.194 372.300 C 93.197 372.575,93.579 372.800,94.043 372.800 C 94.628 372.800,94.815 372.984,94.655 373.400 C 94.499 373.808,94.677 374.000,95.213 374.000 C 95.646 374.000,96.000 374.270,96.000 374.600 C 96.000 374.975,96.379 375.200,97.013 375.200 C 97.569 375.200,98.129 375.470,98.255 375.800 C 98.387 376.142,98.983 376.400,99.643 376.400 C 100.405 376.400,100.800 376.605,100.800 377.000 C 100.800 377.330,101.070 377.600,101.400 377.600 C 101.730 377.600,102.000 377.870,102.000 378.200 C 102.000 378.600,102.400 378.800,103.200 378.800 C 104.000 378.800,104.400 379.000,104.400 379.400 C 104.400 379.800,104.800 380.000,105.600 380.000 C 106.400 380.000,106.800 380.200,106.800 380.600 C 106.800 381.000,107.200 381.200,108.000 381.200 C 108.800 381.200,109.200 381.400,109.200 381.800 C 109.200 382.200,109.600 382.400,110.400 382.400 C 111.200 382.400,111.600 382.600,111.600 383.000 C 111.600 383.400,112.000 383.600,112.800 383.600 C 113.600 383.600,114.000 383.800,114.000 384.200 C 114.000 384.600,114.400 384.800,115.200 384.800 C 116.000 384.800,116.400 385.000,116.400 385.400 C 116.400 385.800,116.800 386.000,117.600 386.000 C 118.400 386.000,118.800 386.200,118.800 386.600 C 118.800 387.044,119.267 387.200,120.600 387.200 C 121.933 387.200,122.400 387.356,122.400 387.800 C 122.400 388.200,122.800 388.400,123.600 388.400 C 124.400 388.400,124.800 388.600,124.800 389.000 C 124.800 389.444,125.267 389.600,126.600 389.600 C 127.933 389.600,128.400 389.756,128.400 390.200 C 128.400 390.600,128.800 390.800,129.600 390.800 C 130.400 390.800,130.800 391.000,130.800 391.400 C 130.800 391.844,131.267 392.000,132.600 392.000 C 133.933 392.000,134.400 392.156,134.400 392.600 C 134.400 393.044,134.867 393.200,136.200 393.200 C 137.533 393.200,138.000 393.356,138.000 393.800 C 138.000 394.267,138.533 394.400,140.400 394.400 C 142.267 394.400,142.800 394.533,142.800 395.000 C 142.800 395.444,143.267 395.600,144.600 395.600 C 145.933 395.600,146.400 395.756,146.400 396.200 C 146.400 396.530,146.535 396.779,146.700 396.753 C 148.384 396.487,151.200 396.880,151.200 397.381 C 151.200 397.814,151.836 397.992,153.700 398.081 C 155.438 398.164,156.170 398.352,156.100 398.700 C 156.027 399.064,156.813 399.200,159.000 399.200 C 161.454 399.200,162.000 399.314,162.000 399.825 C 162.000 400.181,162.302 400.420,162.700 400.379 C 165.512 400.093,169.200 400.445,169.200 401.000 C 169.200 401.500,170.000 401.600,174.000 401.600 C 176.933 401.600,178.800 401.756,178.800 402.000 C 178.800 402.262,186.133 402.400,200.000 402.400 C 213.867 402.400,221.200 402.262,221.200 402.000 C 221.200 401.756,223.067 401.600,226.000 401.600 C 230.000 401.600,230.800 401.500,230.800 401.000 C 230.800 400.511,231.467 400.400,234.400 400.400 C 237.067 400.400,237.974 400.270,237.900 399.900 C 237.828 399.542,238.681 399.367,240.900 399.283 C 243.296 399.193,244.000 399.034,244.000 398.583 C 244.000 398.137,244.564 398.000,246.400 398.000 C 248.267 398.000,248.800 397.867,248.800 397.400 C 248.800 396.933,249.333 396.800,251.200 396.800 C 253.067 396.800,253.600 396.667,253.600 396.200 C 253.600 395.756,254.067 395.600,255.400 395.600 C 256.733 395.600,257.200 395.444,257.200 395.000 C 257.200 394.533,257.733 394.400,259.600 394.400 C 261.467 394.400,262.000 394.267,262.000 393.800 C 262.000 393.356,262.467 393.200,263.800 393.200 C 265.133 393.200,265.600 393.044,265.600 392.600 C 265.600 392.156,266.067 392.000,267.400 392.000 C 268.733 392.000,269.200 391.844,269.200 391.400 C 269.200 390.843,269.894 390.613,271.100 390.770 C 271.375 390.806,271.600 390.557,271.600 390.218 C 271.600 389.752,272.044 389.600,273.400 389.600 C 274.733 389.600,275.200 389.444,275.200 389.000 C 275.200 388.443,275.894 388.213,277.100 388.370 C 277.375 388.406,277.600 388.157,277.600 387.818 C 277.600 387.352,278.044 387.200,279.400 387.200 C 280.733 387.200,281.200 387.044,281.200 386.600 C 281.200 386.200,281.600 386.000,282.400 386.000 C 283.200 386.000,283.600 385.800,283.600 385.400 C 283.600 385.000,284.000 384.800,284.800 384.800 C 285.600 384.800,286.000 384.600,286.000 384.200 C 286.000 383.800,286.400 383.600,287.200 383.600 C 288.000 383.600,288.400 383.400,288.400 383.000 C 288.400 382.600,288.800 382.400,289.600 382.400 C 290.400 382.400,290.800 382.200,290.800 381.800 C 290.800 381.400,291.200 381.200,292.000 381.200 C 292.800 381.200,293.200 381.000,293.200 380.600 C 293.200 380.200,293.600 380.000,294.400 380.000 C 295.200 380.000,295.600 379.800,295.600 379.400 C 295.600 379.001,295.999 378.800,296.787 378.800 C 297.679 378.800,297.917 378.650,297.745 378.200 C 297.585 377.784,297.772 377.600,298.357 377.600 C 298.840 377.600,299.200 377.343,299.200 377.000 C 299.200 376.578,299.627 376.400,300.643 376.400 C 301.761 376.400,302.034 376.265,301.855 375.800 C 301.684 375.353,301.917 375.200,302.770 375.200 C 303.418 375.200,304.014 374.940,304.145 374.600 C 304.271 374.270,304.651 374.000,304.987 374.000 C 305.324 374.000,305.600 373.749,305.600 373.443 C 305.600 372.816,306.678 372.277,307.239 372.624 C 307.441 372.749,307.714 372.569,307.846 372.225 C 307.978 371.881,308.536 371.600,309.086 371.600 C 309.807 371.600,310.022 371.434,309.857 371.005 C 309.732 370.677,309.757 370.429,309.914 370.452 C 310.882 370.596,311.600 370.319,311.600 369.800 C 311.600 369.470,311.947 369.200,312.371 369.200 C 312.796 369.200,313.413 368.930,313.743 368.600 C 314.073 368.270,314.536 368.000,314.771 368.000 C 315.007 368.000,315.200 367.730,315.200 367.400 C 315.200 367.070,315.470 366.800,315.800 366.800 C 316.130 366.800,316.400 366.553,316.400 366.250 C 316.400 365.947,316.952 365.590,317.627 365.455 C 318.301 365.320,318.753 365.048,318.631 364.850 C 318.509 364.653,318.767 364.397,319.204 364.283 C 319.642 364.169,320.000 363.794,320.000 363.450 C 320.000 363.059,320.224 362.911,320.600 363.055 C 320.967 363.196,321.200 363.055,321.200 362.693 C 321.200 362.351,321.720 361.996,322.427 361.855 C 323.108 361.718,323.542 361.430,323.403 361.205 C 323.265 360.982,323.523 360.800,323.976 360.800 C 324.442 360.800,324.800 360.539,324.800 360.200 C 324.800 359.870,325.070 359.600,325.400 359.600 C 325.730 359.600,326.000 359.342,326.000 359.027 C 326.000 358.698,326.470 358.399,327.100 358.327 C 327.705 358.257,328.142 358.029,328.070 357.820 C 327.999 357.611,328.326 357.297,328.796 357.123 C 329.266 356.949,329.552 356.646,329.430 356.449 C 329.309 356.252,329.567 355.997,330.004 355.883 C 330.442 355.769,330.800 355.377,330.800 355.014 C 330.800 354.650,330.981 354.465,331.203 354.602 C 331.424 354.739,331.714 354.569,331.846 354.225 C 331.978 353.881,332.336 353.600,332.643 353.600 C 332.949 353.600,333.200 353.330,333.200 353.000 C 333.200 352.670,333.470 352.400,333.800 352.400 C 334.130 352.400,334.400 352.130,334.400 351.800 C 334.400 351.470,334.670 351.200,335.000 351.200 C 335.330 351.200,335.600 350.846,335.600 350.413 C 335.600 349.877,335.792 349.699,336.200 349.855 C 336.580 350.001,336.800 349.850,336.800 349.443 C 336.800 349.056,337.135 348.800,337.640 348.800 C 338.773 348.800,345.200 342.373,345.200 341.240 C 345.200 340.760,345.457 340.400,345.800 340.400 C 346.130 340.400,346.400 340.130,346.400 339.800 C 346.400 339.470,346.689 339.200,347.043 339.200 C 347.450 339.200,347.601 338.980,347.455 338.600 C 347.296 338.185,347.482 338.000,348.055 338.000 C 348.629 338.000,348.814 337.815,348.655 337.400 C 348.499 336.992,348.677 336.800,349.213 336.800 C 349.646 336.800,350.000 336.530,350.000 336.200 C 350.000 335.870,350.270 335.600,350.600 335.600 C 350.930 335.600,351.200 335.349,351.200 335.043 C 351.200 334.736,351.472 334.381,351.804 334.254 C 352.136 334.127,352.361 333.800,352.304 333.529 C 352.247 333.258,352.452 333.028,352.760 333.018 C 353.068 333.008,353.435 332.672,353.575 332.270 C 353.716 331.869,354.004 331.599,354.216 331.670 C 354.427 331.742,354.657 331.305,354.727 330.700 C 354.799 330.070,355.098 329.600,355.427 329.600 C 355.742 329.600,355.955 329.465,355.900 329.300 C 355.768 328.903,357.484 327.200,358.018 327.200 C 358.247 327.200,358.382 326.885,358.318 326.500 C 358.251 326.102,358.420 325.845,358.709 325.903 C 358.994 325.961,359.325 325.476,359.459 324.803 C 359.597 324.115,359.954 323.600,360.293 323.600 C 360.655 323.600,360.796 323.367,360.655 323.000 C 360.499 322.592,360.677 322.400,361.213 322.400 C 361.741 322.400,362.000 322.129,362.000 321.576 C 362.000 321.123,362.161 320.852,362.358 320.974 C 362.766 321.226,363.200 320.300,363.200 319.180 C 363.200 318.673,363.397 318.501,363.800 318.655 C 364.130 318.782,364.400 318.673,364.400 318.414 C 364.400 318.155,364.670 317.673,365.000 317.343 C 365.330 317.013,365.600 316.396,365.600 315.971 C 365.600 315.547,365.870 315.200,366.200 315.200 C 366.530 315.200,366.800 314.939,366.800 314.620 C 366.800 314.301,367.115 313.856,367.500 313.632 C 367.885 313.408,368.074 313.219,367.921 313.212 C 367.767 313.205,367.836 312.643,368.073 311.961 C 368.390 311.053,368.596 310.866,368.846 311.261 C 369.109 311.676,369.189 311.636,369.194 311.087 C 369.197 310.696,369.470 310.271,369.800 310.145 C 370.130 310.018,370.400 309.484,370.400 308.957 C 370.400 308.373,370.634 308.000,371.000 308.000 C 371.330 308.000,371.600 307.724,371.600 307.387 C 371.600 307.051,371.870 306.671,372.200 306.545 C 372.530 306.418,372.800 305.903,372.800 305.400 C 372.800 304.897,373.110 304.367,373.489 304.221 C 374.079 303.995,374.093 303.904,373.589 303.585 C 373.190 303.333,373.162 303.210,373.500 303.206 C 373.775 303.203,374.000 302.840,374.000 302.400 C 374.000 301.956,374.267 301.600,374.600 301.600 C 375.000 301.600,375.200 301.200,375.200 300.400 C 375.200 299.600,375.400 299.200,375.800 299.200 C 376.143 299.200,376.400 298.840,376.400 298.357 C 376.400 297.772,376.584 297.585,377.000 297.745 C 377.450 297.917,377.600 297.679,377.600 296.787 C 377.600 295.999,377.801 295.600,378.200 295.600 C 378.600 295.600,378.800 295.200,378.800 294.400 C 378.800 293.600,379.000 293.200,379.400 293.200 C 379.800 293.200,380.000 292.800,380.000 292.000 C 380.000 291.200,380.200 290.800,380.600 290.800 C 381.000 290.800,381.200 290.400,381.200 289.600 C 381.200 288.800,381.400 288.400,381.800 288.400 C 382.244 288.400,382.400 287.933,382.400 286.600 C 382.400 285.267,382.556 284.800,383.000 284.800 C 383.400 284.800,383.600 284.400,383.600 283.600 C 383.600 282.800,383.800 282.400,384.200 282.400 C 384.600 282.400,384.800 282.000,384.800 281.200 C 384.800 280.400,385.000 280.000,385.400 280.000 C 385.844 280.000,386.000 279.533,386.000 278.200 C 386.000 276.844,386.152 276.400,386.618 276.400 C 386.957 276.400,387.206 276.175,387.170 275.900 C 387.015 274.705,387.241 274.000,387.778 274.000 C 388.184 274.000,388.392 273.434,388.478 272.100 C 388.559 270.842,388.769 270.234,389.100 270.300 C 389.441 270.368,389.600 269.827,389.600 268.600 C 389.600 267.267,389.756 266.800,390.200 266.800 C 390.644 266.800,390.800 266.333,390.800 265.000 C 390.800 263.667,390.956 263.200,391.400 263.200 C 391.844 263.200,392.000 262.733,392.000 261.400 C 392.000 260.067,392.156 259.600,392.600 259.600 C 393.067 259.600,393.200 259.067,393.200 257.200 C 393.200 255.333,393.333 254.800,393.800 254.800 C 394.267 254.800,394.400 254.267,394.400 252.400 C 394.400 250.533,394.533 250.000,395.000 250.000 C 395.472 250.000,395.600 249.444,395.600 247.400 C 395.600 245.533,395.741 244.828,396.100 244.900 C 396.455 244.971,396.634 244.159,396.718 242.100 C 396.807 239.881,396.972 239.200,397.418 239.200 C 397.738 239.200,397.979 239.065,397.953 238.900 C 397.649 236.975,398.084 232.000,398.557 232.000 C 398.998 232.000,399.126 231.022,399.172 227.300 C 399.205 224.709,399.404 222.540,399.616 222.467 C 400.153 222.280,400.137 180.000,399.600 180.000 C 399.356 180.000,399.200 178.133,399.200 175.200 C 399.200 171.200,399.100 170.400,398.600 170.400 C 398.111 170.400,398.000 169.733,398.000 166.800 C 398.000 163.867,397.889 163.200,397.400 163.200 C 396.925 163.200,396.800 162.627,396.800 160.443 C 396.800 158.361,396.653 157.629,396.200 157.455 C 395.758 157.286,395.600 156.588,395.600 154.813 C 395.600 152.935,395.467 152.400,395.000 152.400 C 394.533 152.400,394.400 151.867,394.400 150.000 C 394.400 148.133,394.267 147.600,393.800 147.600 C 393.333 147.600,393.200 147.067,393.200 145.200 C 393.200 143.333,393.067 142.800,392.600 142.800 C 392.153 142.800,392.000 142.329,392.000 140.957 C 392.000 139.484,391.880 139.161,391.400 139.345 C 390.916 139.530,390.800 139.190,390.800 137.587 C 390.800 136.087,390.653 135.600,390.200 135.600 C 389.756 135.600,389.600 135.133,389.600 133.800 C 389.600 132.467,389.444 132.000,389.000 132.000 C 388.556 132.000,388.400 131.533,388.400 130.200 C 388.400 128.867,388.244 128.400,387.800 128.400 C 387.400 128.400,387.200 128.000,387.200 127.200 C 387.200 126.400,387.000 126.000,386.600 126.000 C 386.156 126.000,386.000 125.533,386.000 124.200 C 386.000 122.867,385.844 122.400,385.400 122.400 C 385.000 122.400,384.800 122.000,384.800 121.200 C 384.800 120.400,384.600 120.000,384.200 120.000 C 383.800 120.000,383.600 119.600,383.600 118.800 C 383.600 118.000,383.400 117.600,383.000 117.600 C 382.556 117.600,382.400 117.133,382.400 115.800 C 382.400 114.467,382.244 114.000,381.800 114.000 C 381.400 114.000,381.200 113.600,381.200 112.800 C 381.200 112.000,381.000 111.600,380.600 111.600 C 380.200 111.600,380.000 111.200,380.000 110.400 C 380.000 109.600,379.800 109.200,379.400 109.200 C 378.995 109.200,378.800 108.795,378.800 107.957 C 378.800 107.017,378.654 106.770,378.200 106.945 C 377.738 107.122,377.600 106.856,377.600 105.787 C 377.600 104.821,377.418 104.400,377.000 104.400 C 376.670 104.400,376.400 104.130,376.400 103.800 C 376.400 103.470,376.130 103.200,375.800 103.200 C 375.400 103.200,375.200 102.800,375.200 102.000 C 375.200 101.200,375.000 100.800,374.600 100.800 C 374.200 100.800,374.000 100.400,374.000 99.600 C 374.000 98.800,373.800 98.400,373.400 98.400 C 373.000 98.400,372.800 98.000,372.800 97.200 C 372.800 96.445,372.595 96.000,372.247 96.000 C 371.942 96.000,371.594 95.622,371.474 95.160 C 371.353 94.697,371.062 94.438,370.827 94.583 C 370.561 94.748,370.400 94.401,370.400 93.666 C 370.400 92.986,370.146 92.388,369.800 92.255 C 369.470 92.129,369.200 91.755,369.200 91.425 C 369.200 91.056,368.969 90.914,368.600 91.055 C 368.191 91.212,367.984 91.018,367.950 90.443 C 367.855 88.843,367.762 88.600,367.282 88.700 C 367.017 88.755,366.800 88.446,366.800 88.013 C 366.800 87.477,366.608 87.299,366.200 87.455 C 365.745 87.630,365.600 87.382,365.600 86.430 C 365.600 85.683,365.357 85.082,365.000 84.945 C 364.670 84.818,364.400 84.469,364.400 84.170 C 364.400 83.862,364.151 83.720,363.828 83.845 C 363.415 84.003,363.220 83.694,363.128 82.732 C 363.051 81.929,362.801 81.440,362.500 81.500 C 362.225 81.555,362.000 81.240,362.000 80.800 C 362.000 80.356,361.733 80.000,361.400 80.000 C 361.070 80.000,360.800 79.730,360.800 79.400 C 360.800 79.070,360.530 78.800,360.200 78.800 C 359.615 78.800,359.431 78.347,359.577 77.269 C 359.617 76.977,359.291 76.644,358.852 76.530 C 358.328 76.393,358.138 76.107,358.296 75.695 C 358.460 75.266,358.380 75.165,358.041 75.375 C 357.725 75.570,357.470 75.391,357.336 74.877 C 357.221 74.435,356.765 73.979,356.323 73.864 C 355.881 73.748,355.638 73.462,355.783 73.227 C 355.928 72.992,355.767 72.800,355.424 72.800 C 355.046 72.800,354.797 72.446,354.793 71.900 C 354.786 70.965,353.235 69.200,352.420 69.200 C 352.163 69.200,352.043 69.054,352.153 68.876 C 352.263 68.698,351.824 68.115,351.177 67.581 C 350.529 67.046,350.000 66.403,350.000 66.151 C 350.000 65.899,349.622 65.594,349.160 65.474 C 348.697 65.353,348.438 65.062,348.583 64.827 C 348.728 64.592,348.567 64.400,348.224 64.400 C 347.881 64.400,347.600 64.130,347.600 63.800 C 347.600 63.470,347.330 63.200,347.000 63.200 C 346.670 63.200,346.400 62.930,346.400 62.600 C 346.400 62.270,346.130 62.000,345.800 62.000 C 345.457 62.000,345.200 61.640,345.200 61.160 C 345.200 60.027,338.773 53.600,337.640 53.600 C 337.146 53.600,336.800 53.343,336.800 52.976 C 336.800 52.633,336.608 52.472,336.373 52.617 C 336.138 52.762,335.847 52.503,335.726 52.040 C 335.606 51.578,335.258 51.200,334.953 51.200 C 334.649 51.200,334.400 50.930,334.400 50.600 C 334.400 50.270,334.130 50.000,333.800 50.000 C 333.470 50.000,333.200 49.730,333.200 49.400 C 333.200 49.070,332.949 48.800,332.643 48.800 C 332.336 48.800,331.978 48.519,331.846 48.175 C 331.714 47.831,331.424 47.661,331.203 47.798 C 330.981 47.935,330.800 47.835,330.800 47.577 C 330.800 46.770,327.738 44.000,326.847 44.000 C 326.361 44.000,326.000 43.744,326.000 43.400 C 326.000 43.070,325.730 42.800,325.400 42.800 C 325.070 42.800,324.800 42.511,324.800 42.157 C 324.800 41.770,324.577 41.600,324.239 41.730 C 323.906 41.857,323.597 41.632,323.477 41.172 C 323.352 40.694,322.918 40.394,322.337 40.383 C 321.801 40.373,320.980 39.860,320.419 39.183 C 319.879 38.532,319.204 38.000,318.919 38.000 C 318.633 38.000,318.445 37.775,318.500 37.500 C 318.556 37.219,318.119 36.945,317.500 36.873 C 316.870 36.801,316.400 36.502,316.400 36.173 C 316.400 35.858,316.130 35.600,315.800 35.600 C 315.470 35.600,315.200 35.330,315.200 35.000 C 315.200 34.670,314.949 34.400,314.643 34.400 C 314.336 34.400,313.982 34.130,313.855 33.800 C 313.729 33.470,313.169 33.200,312.613 33.200 C 311.979 33.200,311.600 32.975,311.600 32.600 C 311.600 32.270,311.324 32.000,310.987 32.000 C 310.651 32.000,310.271 31.730,310.145 31.400 C 310.013 31.058,309.417 30.800,308.757 30.800 C 307.995 30.800,307.600 30.595,307.600 30.200 C 307.600 29.827,307.222 29.600,306.600 29.600 C 305.978 29.600,305.600 29.373,305.600 29.000 C 305.600 28.670,305.324 28.400,304.987 28.400 C 304.651 28.400,304.271 28.130,304.145 27.800 C 304.018 27.470,303.503 27.200,303.000 27.200 C 302.497 27.200,301.982 26.930,301.855 26.600 C 301.721 26.249,301.121 26.000,300.413 26.000 C 299.647 26.000,299.200 25.796,299.200 25.447 C 299.200 25.142,298.822 24.794,298.360 24.674 C 297.897 24.553,297.638 24.262,297.783 24.027 C 297.948 23.760,297.589 23.600,296.824 23.600 C 296.003 23.600,295.600 23.403,295.600 23.000 C 295.600 22.600,295.200 22.400,294.400 22.400 C 293.600 22.400,293.200 22.200,293.200 21.800 C 293.200 21.400,292.800 21.200,292.000 21.200 C 291.200 21.200,290.800 21.000,290.800 20.600 C 290.800 20.200,290.400 20.000,289.600 20.000 C 288.800 20.000,288.400 19.800,288.400 19.400 C 288.400 19.000,288.000 18.800,287.200 18.800 C 286.400 18.800,286.000 18.600,286.000 18.200 C 286.000 17.800,285.600 17.600,284.800 17.600 C 284.000 17.600,283.600 17.400,283.600 17.000 C 283.600 16.600,283.200 16.400,282.400 16.400 C 281.600 16.400,281.200 16.200,281.200 15.800 C 281.200 15.356,280.733 15.200,279.400 15.200 C 278.067 15.200,277.600 15.044,277.600 14.600 C 277.600 14.200,277.200 14.000,276.400 14.000 C 275.600 14.000,275.200 13.800,275.200 13.400 C 275.200 12.956,274.733 12.800,273.400 12.800 C 272.067 12.800,271.600 12.644,271.600 12.200 C 271.600 11.800,271.200 11.600,270.400 11.600 C 269.600 11.600,269.200 11.400,269.200 11.000 C 269.200 10.556,268.733 10.400,267.400 10.400 C 266.067 10.400,265.600 10.244,265.600 9.800 C 265.600 9.356,265.133 9.200,263.800 9.200 C 262.467 9.200,262.000 9.044,262.000 8.600 C 262.000 8.133,261.467 8.000,259.600 8.000 C 257.733 8.000,257.200 7.867,257.200 7.400 C 257.200 6.956,256.733 6.800,255.400 6.800 C 254.067 6.800,253.600 6.644,253.600 6.200 C 253.600 5.733,253.067 5.600,251.200 5.600 C 249.368 5.600,248.800 5.462,248.800 5.019 C 248.800 4.586,248.164 4.408,246.300 4.319 C 244.562 4.236,243.830 4.048,243.900 3.700 C 243.973 3.336,243.187 3.200,241.000 3.200 C 238.546 3.200,238.000 3.086,238.000 2.575 C 238.000 2.219,237.698 1.980,237.300 2.021 C 234.488 2.307,230.800 1.955,230.800 1.400 C 230.800 0.900,230.000 0.800,226.000 0.800 C 223.067 0.800,221.200 0.644,221.200 0.400 C 221.200 -0.135,178.920 -0.153,178.733 0.382 M258.200 112.400 C 258.729 112.627,257.850 112.744,255.600 112.744 C 253.350 112.744,252.471 112.627,253.000 112.400 C 253.440 112.211,254.610 112.056,255.600 112.056 C 256.590 112.056,257.760 112.211,258.200 112.400 M273.600 112.400 C 274.012 112.666,273.134 112.781,270.800 112.766 C 268.533 112.751,267.667 112.629,268.200 112.400 C 269.301 111.927,272.868 111.927,273.600 112.400 M249.200 113.847 C 249.200 113.931,248.525 113.987,247.700 113.972 C 246.557 113.950,246.389 113.870,246.994 113.634 C 247.725 113.348,249.200 113.490,249.200 113.847 M274.274 113.818 C 278.676 114.511,279.594 114.727,284.345 116.186 C 288.404 117.432,292.481 119.362,296.125 121.761 C 297.624 122.748,299.064 123.505,299.325 123.443 C 299.586 123.382,299.664 123.407,299.498 123.500 C 299.332 123.592,300.978 125.408,303.156 127.534 C 307.840 132.108,311.877 137.252,313.988 141.338 C 314.553 142.431,312.876 144.742,311.484 144.789 C 311.310 144.795,310.680 145.145,310.084 145.566 C 308.672 146.563,300.719 151.741,300.200 152.000 C 299.980 152.110,298.720 152.914,297.400 153.788 C 294.485 155.716,293.582 156.280,292.800 156.661 C 292.470 156.822,291.113 157.695,289.785 158.601 C 285.940 161.225,285.971 161.226,284.177 158.400 C 283.332 157.070,282.995 156.784,282.886 157.305 C 282.806 157.693,282.577 157.909,282.378 157.786 C 282.172 157.659,282.211 157.251,282.469 156.838 C 283.120 155.796,279.254 151.436,275.436 148.907 C 268.792 144.506,257.641 144.565,251.554 149.033 C 244.538 154.184,244.025 165.725,250.528 172.126 C 253.899 175.444,257.130 177.281,268.600 182.399 C 269.608 182.849,274.185 184.783,276.600 185.779 C 280.403 187.349,294.162 194.115,294.333 194.500 C 294.407 194.665,294.666 194.800,294.910 194.800 C 295.391 194.800,300.530 198.058,303.878 200.486 C 305.020 201.314,306.190 201.933,306.478 201.862 C 306.765 201.790,306.864 201.807,306.697 201.900 C 306.530 201.993,308.248 203.898,310.515 206.134 C 315.234 210.789,317.852 214.339,320.380 219.508 C 327.455 233.976,326.703 255.456,318.663 268.600 C 316.479 272.170,315.479 273.600,315.166 273.600 C 314.965 273.600,314.800 273.789,314.800 274.019 C 314.800 274.530,309.982 279.369,307.879 280.969 C 306.727 281.846,306.484 282.218,306.879 282.501 C 307.264 282.778,307.224 282.819,306.725 282.660 C 306.326 282.532,304.969 283.155,303.397 284.188 C 301.916 285.160,300.977 286.009,301.272 286.108 C 301.562 286.205,301.442 286.227,301.005 286.155 C 300.568 286.084,299.128 286.535,297.805 287.158 C 293.724 289.080,292.496 289.600,292.034 289.600 C 291.789 289.600,291.277 289.769,290.895 289.977 C 289.340 290.820,283.847 292.158,279.200 292.826 C 277.770 293.032,275.599 293.380,274.376 293.600 C 271.512 294.115,258.120 294.119,255.224 293.606 C 254.001 293.389,251.740 293.040,250.200 292.830 C 246.242 292.290,242.736 291.609,241.800 291.198 C 241.360 291.005,240.376 290.723,239.613 290.572 C 238.850 290.422,237.950 290.157,237.613 289.985 C 237.276 289.812,236.100 289.361,235.000 288.982 C 231.368 287.730,226.690 285.602,226.467 285.100 C 226.393 284.935,226.143 284.800,225.911 284.800 C 225.679 284.800,224.604 284.256,223.522 283.590 C 222.441 282.925,221.341 282.503,221.078 282.654 C 220.815 282.805,220.729 282.785,220.887 282.611 C 221.044 282.436,220.436 281.760,219.535 281.107 C 218.358 280.255,217.813 280.056,217.598 280.403 C 217.405 280.716,217.212 280.742,217.048 280.477 C 216.909 280.252,216.996 280.001,217.242 279.919 C 217.489 279.837,216.815 279.057,215.745 278.185 C 213.141 276.063,208.116 271.053,206.212 268.680 C 205.228 267.454,204.568 266.928,204.386 267.223 C 204.198 267.527,204.013 267.545,203.848 267.277 C 203.709 267.052,203.803 266.799,204.058 266.714 C 204.344 266.619,204.061 265.925,203.314 264.893 C 202.650 263.977,201.964 263.356,201.789 263.513 C 201.615 263.671,201.595 263.585,201.745 263.323 C 201.896 263.060,201.295 261.662,200.410 260.216 C 198.172 256.560,198.315 256.124,202.400 254.140 C 202.730 253.980,204.612 252.874,206.581 251.683 C 208.551 250.493,210.531 249.354,210.981 249.153 C 211.432 248.952,212.340 248.433,213.000 248.000 C 213.660 247.567,214.560 247.030,215.000 246.807 C 215.440 246.584,216.070 246.227,216.400 246.013 C 218.248 244.813,225.322 240.800,225.588 240.800 C 225.761 240.800,226.126 240.530,226.400 240.200 C 227.133 239.316,228.671 239.470,229.397 240.500 C 241.183 257.229,253.464 263.299,270.030 260.582 C 277.432 259.367,285.449 254.850,285.028 252.131 C 284.966 251.729,284.992 251.625,285.087 251.899 C 285.270 252.433,286.397 251.601,286.402 250.929 C 286.404 250.748,286.712 250.060,287.087 249.400 C 287.625 248.453,287.769 247.187,287.769 243.400 C 287.769 239.613,287.625 238.347,287.087 237.400 C 286.712 236.740,286.404 236.057,286.402 235.883 C 286.401 235.709,286.175 235.287,285.900 234.945 C 282.280 230.447,279.083 228.090,272.000 224.700 C 267.836 222.706,266.180 221.952,262.094 220.186 C 261.376 219.876,260.116 219.329,259.294 218.971 C 258.472 218.613,257.212 218.073,256.494 217.771 C 253.534 216.526,252.451 216.044,249.400 214.616 C 244.387 212.269,241.018 210.618,240.799 210.400 C 240.688 210.290,239.788 209.771,238.799 209.247 C 236.456 208.005,231.438 204.720,231.267 204.315 C 231.193 204.142,230.937 204.000,230.698 204.000 C 230.090 204.000,225.913 200.375,222.742 197.095 C 221.280 195.584,220.005 194.494,219.908 194.673 C 219.811 194.853,219.781 194.788,219.842 194.528 C 219.903 194.268,219.418 193.316,218.763 192.412 C 216.790 189.688,214.614 185.932,213.658 183.600 C 213.163 182.390,212.603 181.040,212.414 180.600 C 211.741 179.027,210.860 175.766,210.578 173.800 C 210.420 172.700,210.128 171.363,209.928 170.829 C 209.268 169.060,209.463 155.173,210.194 151.921 C 216.392 124.352,242.514 108.819,274.274 113.818 M280.400 113.847 C 280.400 113.931,279.725 113.987,278.900 113.972 C 277.757 113.950,277.589 113.870,278.194 113.634 C 278.925 113.348,280.400 113.490,280.400 113.847 M284.800 115.043 C 284.800 115.129,284.215 115.187,283.500 115.172 C 282.441 115.149,282.349 115.085,283.000 114.827 C 283.733 114.537,284.800 114.665,284.800 115.043 M243.900 115.076 C 243.515 115.176,242.885 115.176,242.500 115.076 C 242.115 114.975,242.430 114.893,243.200 114.893 C 243.970 114.893,244.285 114.975,243.900 115.076 M179.520 115.680 C 180.097 116.257,180.175 237.864,179.603 244.800 C 179.177 249.971,178.557 254.546,178.031 256.400 C 176.765 260.863,175.839 263.873,175.569 264.400 C 175.400 264.730,174.603 266.350,173.797 268.000 C 172.316 271.033,170.004 274.663,167.956 277.168 C 167.341 277.921,166.948 278.731,167.083 278.968 C 167.218 279.206,167.181 279.267,167.001 279.103 C 166.540 278.686,165.554 279.594,165.869 280.145 C 166.011 280.395,165.996 280.482,165.835 280.337 C 165.673 280.193,164.030 281.287,162.183 282.769 C 160.336 284.250,157.117 286.349,155.030 287.431 C 151.812 289.101,151.369 289.444,152.118 289.691 C 152.629 289.860,152.356 289.892,151.470 289.768 C 150.628 289.649,149.728 289.718,149.470 289.921 C 148.817 290.434,143.651 292.000,142.613 292.000 C 142.144 292.000,141.589 292.160,141.380 292.356 C 138.769 294.800,111.466 293.945,105.000 291.216 C 104.560 291.030,103.030 290.466,101.600 289.963 C 100.170 289.460,98.212 288.635,97.250 288.129 C 96.287 287.624,95.117 287.271,94.650 287.347 C 94.182 287.422,94.028 287.406,94.308 287.311 C 94.587 287.216,93.107 285.988,91.019 284.582 C 86.785 281.732,85.638 280.796,82.422 277.574 C 79.061 274.206,74.400 268.177,74.400 267.196 C 74.400 266.978,74.258 266.800,74.083 266.800 C 73.909 266.800,73.491 266.215,73.154 265.500 C 72.817 264.785,72.128 263.428,71.622 262.485 C 70.617 260.609,70.971 259.651,73.000 258.755 C 73.440 258.561,74.153 258.176,74.585 257.901 C 75.017 257.625,76.097 256.954,76.985 256.408 C 77.873 255.863,78.960 255.195,79.400 254.924 C 79.840 254.653,80.470 254.304,80.800 254.148 C 81.130 253.992,82.605 253.085,84.079 252.132 C 85.552 251.179,86.849 250.400,86.961 250.400 C 87.073 250.400,87.847 249.932,88.682 249.360 C 89.517 248.788,90.560 248.155,91.000 247.954 C 91.440 247.753,92.282 247.276,92.871 246.894 C 95.216 245.375,99.440 242.912,100.113 242.670 C 100.659 242.475,101.102 242.861,101.994 244.307 C 107.093 252.577,108.740 254.653,112.200 257.172 C 120.610 263.293,134.586 261.625,139.451 253.919 C 142.811 248.597,142.773 249.455,142.787 178.133 C 142.797 128.544,142.903 115.625,143.300 115.465 C 144.468 114.993,179.039 115.199,179.520 115.680 M265.516 146.695 C 264.259 146.774,262.099 146.775,260.716 146.697 C 259.332 146.618,260.360 146.553,263.000 146.553 C 265.640 146.552,266.772 146.616,265.516 146.695 M210.230 149.103 C 209.747 149.586,209.518 148.791,209.830 147.719 L 210.155 146.600 210.308 147.737 C 210.392 148.362,210.357 148.977,210.230 149.103 M209.166 154.500 C 209.136 156.669,209.082 156.841,208.756 155.800 C 208.411 154.695,208.597 152.000,209.018 152.000 C 209.118 152.000,209.185 153.125,209.166 154.500 M246.676 161.500 C 246.575 161.885,246.493 161.570,246.493 160.800 C 246.493 160.030,246.575 159.715,246.676 160.100 C 246.776 160.485,246.776 161.115,246.676 161.500 M209.109 170.700 C 208.973 172.167,208.963 172.176,208.641 171.095 C 208.459 170.487,208.460 169.137,208.643 168.095 L 208.975 166.200 209.112 167.700 C 209.187 168.525,209.186 169.875,209.109 170.700 M210.373 176.300 C 210.349 177.650,210.303 177.712,209.922 176.922 C 209.688 176.439,209.605 175.764,209.736 175.422 C 210.140 174.369,210.401 174.729,210.373 176.300 M211.600 180.280 C 211.600 181.023,211.471 181.231,211.187 180.947 C 210.960 180.720,210.889 180.234,211.030 179.867 C 211.400 178.901,211.600 179.046,211.600 180.280 M271.400 182.400 C 271.536 182.620,271.266 182.800,270.800 182.800 C 270.334 182.800,270.064 182.620,270.200 182.400 C 270.336 182.180,270.606 182.000,270.800 182.000 C 270.994 182.000,271.264 182.180,271.400 182.400 M212.800 183.424 C 212.800 183.987,212.637 184.346,212.438 184.223 C 212.238 184.100,212.169 183.639,212.284 183.200 C 212.572 182.099,212.800 182.198,212.800 183.424 M282.400 187.200 C 282.885 187.514,282.828 187.589,282.100 187.594 C 281.605 187.597,281.200 187.420,281.200 187.200 C 281.200 186.699,281.624 186.699,282.400 187.200 M325.083 230.895 C 324.987 231.393,324.905 231.080,324.901 230.200 C 324.896 229.320,324.975 228.913,325.075 229.295 C 325.175 229.678,325.179 230.398,325.083 230.895 M286.388 237.500 C 286.377 238.444,286.317 238.500,285.966 237.897 C 285.741 237.510,285.667 237.015,285.802 236.797 C 286.216 236.128,286.401 236.350,286.388 237.500 M326.297 246.520 C 326.223 248.324,326.163 246.740,326.164 243.000 C 326.164 239.260,326.225 237.784,326.298 239.720 C 326.372 241.655,326.371 244.715,326.297 246.520 M287.600 243.624 C 287.600 245.671,287.454 246.757,287.200 246.600 C 286.475 246.152,286.723 240.400,287.467 240.400 C 287.540 240.400,287.600 241.851,287.600 243.624 M141.492 244.691 C 141.405 245.521,141.333 244.940,141.331 243.400 C 141.329 241.860,141.400 241.181,141.489 241.891 C 141.577 242.601,141.579 243.861,141.492 244.691 M180.732 247.000 C 180.738 248.100,180.589 249.360,180.400 249.800 C 180.177 250.319,180.060 249.263,180.068 246.800 C 180.076 244.316,180.191 243.346,180.400 244.000 C 180.576 244.550,180.726 245.900,180.732 247.000 M286.400 249.280 C 286.400 250.210,286.280 250.440,285.960 250.120 C 285.718 249.878,285.641 249.302,285.787 248.840 C 286.169 247.637,286.400 247.803,286.400 249.280 M179.277 256.264 C 178.895 257.312,178.863 257.245,178.859 255.400 C 178.855 253.726,178.922 253.541,179.272 254.264 C 179.561 254.862,179.563 255.479,179.277 256.264 M325.076 255.900 C 324.975 256.285,324.893 255.970,324.893 255.200 C 324.893 254.430,324.975 254.115,325.076 254.500 C 325.176 254.885,325.176 255.515,325.076 255.900 M121.305 259.482 C 120.814 259.577,119.914 259.579,119.305 259.487 C 118.697 259.395,119.100 259.317,120.200 259.314 C 121.300 259.311,121.797 259.387,121.305 259.482 M129.305 259.482 C 128.814 259.577,127.914 259.579,127.305 259.487 C 126.697 259.395,127.100 259.317,128.200 259.314 C 129.300 259.311,129.797 259.387,129.305 259.482 M178.116 260.400 C 177.828 261.501,177.600 261.402,177.600 260.176 C 177.600 259.613,177.763 259.254,177.962 259.377 C 178.162 259.500,178.231 259.961,178.116 260.400 M257.505 259.475 C 257.122 259.575,256.402 259.579,255.905 259.483 C 255.407 259.387,255.720 259.305,256.600 259.301 C 257.480 259.296,257.887 259.375,257.505 259.475 M271.905 259.475 C 271.522 259.575,270.802 259.579,270.305 259.483 C 269.807 259.387,270.120 259.305,271.000 259.301 C 271.880 259.296,272.287 259.375,271.905 259.475 M176.916 264.000 C 176.628 265.101,176.400 265.002,176.400 263.776 C 176.400 263.213,176.563 262.854,176.762 262.977 C 176.962 263.100,177.031 263.561,176.916 264.000 M297.423 288.762 C 297.300 288.962,296.839 289.031,296.400 288.916 C 295.299 288.628,295.398 288.400,296.624 288.400 C 297.187 288.400,297.546 288.563,297.423 288.762 M99.600 290.000 C 99.600 290.501,99.176 290.501,98.400 290.000 C 97.915 289.686,97.972 289.611,98.700 289.606 C 99.195 289.603,99.600 289.780,99.600 290.000 M235.400 290.000 C 235.264 290.220,234.904 290.400,234.600 290.400 C 234.296 290.400,233.936 290.220,233.800 290.000 C 233.659 289.772,234.004 289.600,234.600 289.600 C 235.196 289.600,235.541 289.772,235.400 290.000 M294.261 290.054 C 293.732 290.361,293.398 290.358,293.081 290.041 C 292.760 289.720,292.959 289.603,293.820 289.612 C 294.854 289.623,294.909 289.677,294.261 290.054 M102.661 291.254 C 102.132 291.561,101.798 291.558,101.481 291.241 C 101.160 290.920,101.359 290.803,102.220 290.812 C 103.254 290.823,103.309 290.877,102.661 291.254 M149.800 291.200 C 149.664 291.420,149.304 291.600,149.000 291.600 C 148.696 291.600,148.336 291.420,148.200 291.200 C 148.059 290.972,148.404 290.800,149.000 290.800 C 149.596 290.800,149.941 290.972,149.800 291.200 M239.000 291.200 C 238.864 291.420,238.504 291.600,238.200 291.600 C 237.896 291.600,237.536 291.420,237.400 291.200 C 237.259 290.972,237.604 290.800,238.200 290.800 C 238.796 290.800,239.141 290.972,239.000 291.200 M291.400 291.200 C 291.264 291.420,290.803 291.600,290.376 291.600 C 289.949 291.600,289.600 291.420,289.600 291.200 C 289.600 290.980,290.061 290.800,290.624 290.800 C 291.204 290.800,291.540 290.973,291.400 291.200 M107.000 292.400 C 106.864 292.620,106.324 292.800,105.800 292.800 C 105.276 292.800,104.736 292.620,104.600 292.400 C 104.453 292.161,104.937 292.000,105.800 292.000 C 106.663 292.000,107.147 292.161,107.000 292.400 M146.200 292.400 C 146.064 292.620,145.614 292.800,145.200 292.800 C 144.786 292.800,144.336 292.620,144.200 292.400 C 144.055 292.166,144.470 292.000,145.200 292.000 C 145.930 292.000,146.345 292.166,146.200 292.400 M243.800 292.400 C 243.488 292.906,242.382 292.906,241.600 292.400 C 241.155 292.112,241.393 292.011,242.524 292.006 C 243.439 292.002,243.948 292.160,243.800 292.400 M286.941 292.470 C 286.341 292.760,285.858 292.756,285.341 292.455 C 284.725 292.097,284.869 292.027,286.200 292.039 C 287.596 292.052,287.690 292.107,286.941 292.470 M112.200 293.600 C 112.064 293.820,111.434 294.000,110.800 294.000 C 110.166 294.000,109.536 293.820,109.400 293.600 C 109.250 293.358,109.804 293.200,110.800 293.200 C 111.796 293.200,112.350 293.358,112.200 293.600 M141.464 293.677 C 140.679 293.963,140.062 293.961,139.464 293.672 C 138.741 293.322,138.926 293.255,140.600 293.259 C 142.445 293.263,142.512 293.295,141.464 293.677 M249.800 293.600 C 249.504 294.079,247.715 294.079,246.600 293.600 C 246.014 293.348,246.368 293.249,247.924 293.228 C 249.244 293.211,249.954 293.351,249.800 293.600 M282.600 293.600 C 281.509 294.069,279.926 294.069,279.200 293.600 C 278.778 293.327,279.311 293.219,281.000 293.234 C 282.707 293.250,283.169 293.355,282.600 293.600 M134.776 294.779 C 133.429 295.188,117.233 295.178,116.200 294.768 C 115.760 294.594,119.990 294.455,125.600 294.460 C 131.210 294.465,135.339 294.609,134.776 294.779 M274.466 294.797 C 273.732 294.971,269.292 295.113,264.600 295.113 C 259.908 295.113,255.468 294.971,254.734 294.797 C 253.980 294.619,258.270 294.482,264.600 294.482 C 270.930 294.482,275.220 294.619,274.466 294.797 M340.400 323.600 C 340.400 323.866,290.360 324.000,191.080 324.000 C 75.476 324.000,41.652 324.108,41.280 324.480 C 40.907 324.853,40.800 324.824,40.800 324.347 C 40.800 324.009,40.920 323.613,41.067 323.467 C 41.518 323.015,340.400 323.148,340.400 323.600 " stroke="none" fill="#f3db4c" fill-rule="evenodd"></path><path id="path2" d="M251.200 114.036 C 236.617 116.813,226.123 122.897,218.422 133.040 C 215.307 137.142,210.738 147.035,210.825 149.487 C 210.839 149.879,211.447 148.436,212.175 146.279 C 219.144 125.648,237.955 113.600,263.201 113.600 C 285.244 113.600,300.252 121.320,311.751 138.574 C 314.536 142.754,315.494 141.596,302.112 150.222 C 300.083 151.530,298.103 152.782,297.712 153.004 C 297.320 153.226,294.889 154.792,292.309 156.485 C 289.728 158.178,287.273 159.747,286.851 159.972 C 286.179 160.332,285.810 159.973,283.830 157.028 C 271.630 138.880,245.800 141.578,245.800 161.000 C 245.800 170.448,250.315 175.042,266.400 181.961 C 267.610 182.481,269.140 183.142,269.800 183.428 C 270.460 183.715,272.131 184.416,273.513 184.986 C 278.322 186.967,288.303 191.625,291.877 193.555 C 313.493 205.229,322.770 217.879,324.454 237.975 C 327.016 268.550,307.706 289.617,274.000 293.021 C 243.215 296.131,216.531 284.731,202.328 262.400 C 198.543 256.450,198.480 256.971,203.326 254.118 C 205.118 253.063,206.947 251.983,207.392 251.717 C 207.836 251.452,208.568 251.065,209.019 250.858 C 209.469 250.651,211.449 249.511,213.419 248.326 C 219.363 244.746,227.801 240.000,228.213 240.003 C 228.426 240.004,229.045 240.679,229.588 241.503 C 238.964 255.709,250.565 262.182,265.400 261.483 C 280.927 260.752,290.076 252.553,288.349 240.920 C 287.207 233.222,281.860 228.309,268.000 222.223 C 266.570 221.595,264.410 220.645,263.200 220.111 C 261.990 219.577,260.370 218.872,259.600 218.543 C 258.830 218.215,257.840 217.788,257.400 217.595 C 256.960 217.402,255.700 216.864,254.600 216.400 C 253.500 215.936,252.240 215.403,251.800 215.216 C 250.429 214.633,239.442 209.184,238.618 208.679 C 228.989 202.775,223.361 197.973,218.743 191.722 C 216.943 189.287,213.223 182.200,213.209 181.180 C 213.204 180.839,213.039 180.389,212.841 180.180 C 212.042 179.333,210.369 170.880,209.837 165.000 C 209.758 164.120,209.745 165.110,209.810 167.200 C 209.947 171.604,211.147 177.818,212.397 180.600 C 212.595 181.040,213.163 182.390,213.658 183.600 C 215.453 187.981,219.245 193.564,223.074 197.465 C 226.055 200.502,230.136 204.000,230.698 204.000 C 230.937 204.000,231.193 204.142,231.267 204.315 C 231.438 204.720,236.456 208.005,238.799 209.247 C 239.788 209.771,240.688 210.290,240.799 210.400 C 241.018 210.618,244.387 212.269,249.400 214.616 C 252.451 216.044,253.534 216.526,256.494 217.771 C 257.212 218.073,258.472 218.613,259.294 218.971 C 260.116 219.329,261.376 219.876,262.094 220.186 C 275.013 225.769,280.563 228.910,283.687 232.406 C 285.983 234.976,286.400 235.510,286.402 235.883 C 286.404 236.057,286.712 236.740,287.087 237.400 C 287.625 238.347,287.769 239.613,287.769 243.400 C 287.769 247.187,287.625 248.453,287.087 249.400 C 286.712 250.060,286.404 250.748,286.402 250.929 C 286.401 251.109,286.175 251.494,285.900 251.784 C 285.625 252.074,285.040 252.808,284.600 253.416 C 281.488 257.713,272.171 261.200,263.800 261.200 C 249.707 261.200,239.767 255.219,229.397 240.500 C 228.671 239.470,227.133 239.316,226.400 240.200 C 226.126 240.530,225.761 240.800,225.588 240.800 C 225.322 240.800,218.248 244.813,216.400 246.013 C 216.070 246.227,215.440 246.584,215.000 246.807 C 214.560 247.030,213.660 247.567,213.000 248.000 C 212.340 248.433,211.432 248.952,210.981 249.153 C 210.531 249.354,208.551 250.493,206.581 251.683 C 204.612 252.874,202.730 253.980,202.400 254.140 C 198.143 256.207,198.103 256.418,201.045 261.286 C 206.724 270.683,221.656 284.800,225.917 284.800 C 226.146 284.800,226.393 284.935,226.467 285.100 C 226.690 285.602,231.368 287.730,235.000 288.982 C 236.100 289.361,237.276 289.812,237.613 289.985 C 237.950 290.157,238.850 290.422,239.613 290.572 C 240.376 290.723,241.360 291.005,241.800 291.198 C 242.736 291.609,246.242 292.290,250.200 292.830 C 251.740 293.040,254.001 293.389,255.224 293.606 C 258.120 294.119,271.512 294.115,274.376 293.600 C 275.599 293.380,277.770 293.032,279.200 292.826 C 283.847 292.158,289.340 290.820,290.895 289.977 C 291.277 289.769,291.789 289.600,292.034 289.600 C 296.018 289.600,314.800 276.746,314.800 274.019 C 314.800 273.789,314.965 273.600,315.166 273.600 C 315.479 273.600,316.479 272.170,318.663 268.600 C 325.773 256.978,327.266 239.117,322.365 224.308 C 319.572 215.869,312.885 207.062,304.778 201.149 C 300.730 198.196,295.452 194.800,294.910 194.800 C 294.666 194.800,294.407 194.665,294.333 194.500 C 294.162 194.115,280.403 187.349,276.600 185.779 C 274.185 184.783,269.608 182.849,268.600 182.399 C 257.130 177.281,253.899 175.444,250.528 172.126 C 244.025 165.725,244.538 154.184,251.554 149.033 C 257.641 144.565,268.792 144.506,275.436 148.907 C 277.762 150.448,282.800 155.416,282.800 156.169 C 282.800 156.488,285.332 160.182,285.743 160.463 C 286.280 160.830,287.011 160.494,289.785 158.601 C 291.113 157.695,292.470 156.822,292.800 156.661 C 293.582 156.280,294.485 155.716,297.400 153.788 C 298.720 152.914,299.980 152.110,300.200 152.000 C 300.719 151.741,308.672 146.563,310.084 145.566 C 310.680 145.145,311.310 144.795,311.484 144.789 C 312.876 144.742,314.553 142.431,313.988 141.338 C 307.309 128.410,294.784 118.744,279.600 114.800 C 272.885 113.055,258.395 112.665,251.200 114.036 M143.300 115.465 C 142.903 115.625,142.797 128.544,142.787 178.133 C 142.773 249.455,142.811 248.597,139.451 253.919 C 134.586 261.625,120.610 263.293,112.200 257.172 C 108.740 254.653,107.093 252.577,101.994 244.307 C 101.102 242.861,100.659 242.475,100.113 242.670 C 99.440 242.912,95.216 245.375,92.871 246.894 C 92.282 247.276,91.440 247.753,91.000 247.954 C 90.560 248.155,89.517 248.788,88.682 249.360 C 87.847 249.932,87.073 250.400,86.961 250.400 C 86.849 250.400,85.552 251.179,84.079 252.132 C 82.605 253.085,81.130 253.992,80.800 254.148 C 80.470 254.304,79.840 254.653,79.400 254.924 C 78.960 255.195,77.873 255.863,76.985 256.408 C 76.097 256.954,75.017 257.625,74.585 257.901 C 74.153 258.176,73.440 258.561,73.000 258.755 C 70.971 259.651,70.617 260.609,71.622 262.485 C 72.128 263.428,72.817 264.785,73.154 265.500 C 73.491 266.215,73.909 266.800,74.083 266.800 C 74.258 266.800,74.400 266.978,74.400 267.196 C 74.400 267.657,76.781 271.134,78.800 273.623 C 84.637 280.816,93.348 287.060,101.600 289.963 C 103.030 290.466,104.560 291.030,105.000 291.216 C 111.466 293.945,138.769 294.800,141.380 292.356 C 141.589 292.160,142.151 292.000,142.628 292.000 C 145.898 292.000,156.239 287.290,161.237 283.524 C 166.435 279.607,170.717 274.308,173.818 267.956 C 174.612 266.330,175.400 264.730,175.569 264.400 C 175.839 263.873,176.765 260.863,178.031 256.400 C 178.557 254.546,179.177 249.971,179.603 244.800 C 180.175 237.864,180.097 116.257,179.520 115.680 C 179.039 115.199,144.468 114.993,143.300 115.465 M179.127 179.600 C 179.221 226.626,179.130 244.609,178.782 248.000 C 175.785 277.160,156.646 293.467,125.277 293.587 C 101.801 293.677,82.717 282.727,72.559 263.337 L 71.269 260.875 72.135 260.095 C 72.611 259.667,78.220 256.200,84.600 252.391 C 90.980 248.583,96.952 244.957,97.872 244.333 C 100.301 242.687,100.526 242.803,103.025 246.991 C 109.031 257.054,114.200 260.680,123.137 261.099 C 134.625 261.638,140.681 256.984,142.574 246.163 C 143.121 243.038,143.198 234.824,143.199 179.367 C 143.199 144.588,143.322 116.011,143.471 115.863 C 143.620 115.714,151.675 115.639,161.371 115.696 L 179.000 115.800 179.127 179.600 M210.095 152.496 C 209.823 153.666,209.630 155.788,209.667 157.212 C 209.708 158.780,209.784 159.170,209.860 158.200 C 209.929 157.320,210.193 155.412,210.446 153.959 C 211.018 150.674,210.764 149.616,210.095 152.496 " stroke="none" fill="#988e40" fill-rule="evenodd"></path><path id="path3" d="M253.600 114.240 L 250.600 114.762 254.600 114.481 C 259.699 114.123,266.195 114.123,271.800 114.481 L 276.200 114.762 272.800 114.216 C 268.535 113.531,257.599 113.545,253.600 114.240 M246.000 115.603 C 242.736 116.484,241.115 117.139,242.113 117.175 C 242.505 117.189,243.472 116.930,244.262 116.600 C 245.051 116.270,246.081 115.986,246.549 115.969 C 247.017 115.952,248.120 115.701,249.000 115.411 C 251.449 114.604,249.159 114.750,246.000 115.603 M277.800 115.411 C 278.680 115.701,279.940 115.940,280.600 115.942 C 281.544 115.945,281.373 115.827,279.800 115.391 C 277.272 114.689,275.658 114.705,277.800 115.411 M143.471 115.863 C 143.322 116.011,143.199 144.588,143.199 179.367 C 143.198 234.824,143.121 243.038,142.574 246.163 C 140.681 256.984,134.625 261.638,123.137 261.099 C 114.200 260.680,109.031 257.054,103.025 246.991 C 100.526 242.803,100.301 242.687,97.872 244.333 C 96.952 244.957,90.980 248.580,84.600 252.386 C 71.477 260.214,70.885 260.651,71.815 261.815 C 72.426 262.581,72.435 262.578,72.190 261.689 C 71.952 260.825,73.183 259.252,74.128 259.213 C 74.308 259.206,75.241 258.660,76.200 258.000 C 77.159 257.340,78.122 256.800,78.339 256.800 C 78.556 256.800,78.793 256.648,78.867 256.462 C 78.940 256.276,79.484 255.871,80.075 255.562 C 82.359 254.368,98.827 244.279,99.032 243.949 C 99.543 243.121,100.666 243.724,101.553 245.303 C 108.381 257.457,114.174 261.586,124.400 261.590 C 135.090 261.593,140.593 257.362,142.853 247.400 C 143.538 244.382,143.580 240.562,143.590 180.100 L 143.600 116.000 161.200 116.000 L 178.800 116.000 178.800 179.531 C 178.800 250.272,178.810 249.983,176.144 259.600 C 175.093 263.393,171.575 271.230,170.399 272.400 C 170.288 272.510,169.658 273.408,168.999 274.396 C 167.439 276.733,161.774 282.321,159.668 283.600 C 158.762 284.150,158.017 284.729,158.011 284.887 C 157.969 285.995,166.088 278.873,168.618 275.582 C 174.319 268.166,177.634 259.171,178.782 248.000 C 179.130 244.609,179.221 226.626,179.127 179.600 L 179.000 115.800 161.371 115.696 C 151.675 115.639,143.620 115.714,143.471 115.863 M283.000 116.573 C 284.452 117.204,286.709 117.998,287.800 118.262 C 289.376 118.642,287.322 117.600,284.897 116.788 C 282.288 115.915,281.204 115.792,283.000 116.573 M239.400 117.814 C 238.437 118.255,238.363 118.367,239.024 118.382 C 239.476 118.392,240.196 118.136,240.624 117.813 C 241.587 117.084,240.993 117.085,239.400 117.814 M236.800 118.799 C 236.470 118.992,234.490 120.134,232.400 121.335 C 227.817 123.969,223.218 127.823,220.278 131.491 C 217.753 134.641,215.841 137.600,216.331 137.600 C 216.518 137.600,216.879 137.195,217.133 136.700 C 217.670 135.652,218.513 134.287,218.800 134.000 C 218.910 133.890,219.706 132.922,220.569 131.849 C 224.175 127.363,234.168 119.600,236.335 119.600 C 236.507 119.600,236.996 119.336,237.424 119.013 C 238.259 118.381,237.789 118.219,236.800 118.799 M288.800 118.579 C 288.800 118.839,292.883 120.850,293.057 120.676 C 293.211 120.522,289.471 118.400,289.046 118.400 C 288.911 118.400,288.800 118.481,288.800 118.579 M293.600 120.955 C 293.600 121.056,294.905 122.001,296.500 123.055 C 301.290 126.221,312.000 137.819,312.000 139.840 C 312.000 139.960,312.270 140.327,312.600 140.657 C 313.480 141.537,313.334 142.765,312.300 143.184 C 311.805 143.384,310.860 144.016,310.200 144.588 C 309.134 145.512,309.239 145.486,311.134 144.359 C 314.474 142.372,314.383 141.943,309.140 134.936 C 304.731 129.044,293.600 119.030,293.600 120.955 M215.271 138.835 C 214.981 139.299,214.821 139.755,214.915 139.849 C 215.193 140.126,216.088 138.864,215.937 138.410 C 215.860 138.180,215.560 138.371,215.271 138.835 M213.881 141.686 C 211.219 147.295,209.309 157.845,209.805 164.200 C 210.283 170.334,211.981 179.280,212.838 180.180 C 213.037 180.389,213.200 180.794,213.200 181.079 C 213.200 181.815,215.641 186.892,215.880 186.653 C 216.066 186.467,215.885 186.050,214.259 182.938 C 213.897 182.244,213.599 181.434,213.598 181.138 C 213.596 180.842,213.352 180.133,213.054 179.563 C 212.756 178.992,212.390 177.822,212.240 176.963 C 212.090 176.103,211.802 174.950,211.600 174.400 C 208.948 167.187,210.392 150.122,214.333 142.116 C 214.680 141.409,214.861 140.728,214.735 140.601 C 214.608 140.475,214.224 140.963,213.881 141.686 M258.600 144.982 L 257.000 145.558 259.400 145.294 C 262.409 144.963,263.138 144.965,266.600 145.313 C 268.750 145.529,269.168 145.495,268.400 145.166 C 266.722 144.447,260.417 144.329,258.600 144.982 M254.576 146.187 C 253.579 146.942,253.958 146.952,255.654 146.216 C 256.647 145.785,256.784 145.627,256.176 145.616 C 255.724 145.607,255.004 145.864,254.576 146.187 M271.000 146.212 C 272.997 146.931,273.201 146.927,272.224 146.187 C 271.796 145.864,270.986 145.608,270.424 145.618 C 269.576 145.632,269.675 145.734,271.000 146.212 M307.600 146.200 C 307.326 146.530,306.946 146.800,306.755 146.800 C 306.564 146.800,305.225 147.610,303.779 148.600 C 302.333 149.590,301.084 150.400,301.003 150.400 C 300.922 150.400,299.719 151.164,298.328 152.097 C 295.535 153.973,295.362 154.081,292.441 155.800 C 291.319 156.460,290.401 157.135,290.400 157.300 C 290.400 157.465,290.226 157.600,290.014 157.600 C 289.802 157.600,288.874 158.114,287.953 158.743 L 286.277 159.885 284.103 156.643 C 281.438 152.668,277.986 149.232,274.917 147.500 C 272.641 146.215,272.968 146.787,275.400 148.343 C 278.357 150.236,281.648 153.673,284.162 157.496 C 286.373 160.857,285.474 160.969,292.309 156.485 C 294.889 154.792,297.315 153.226,297.701 153.004 C 302.581 150.193,309.273 145.635,308.549 145.613 C 308.301 145.606,307.874 145.870,307.600 146.200 M251.959 147.503 C 249.917 148.871,246.810 152.395,246.803 153.351 C 246.801 153.543,247.451 152.822,248.246 151.747 C 249.545 149.991,250.233 149.361,253.000 147.394 C 254.155 146.573,253.198 146.673,251.959 147.503 M246.032 154.739 C 245.795 155.184,245.608 155.964,245.618 156.474 C 245.630 157.152,245.786 156.976,246.200 155.815 C 246.817 154.083,246.719 153.456,246.032 154.739 M245.108 159.100 C 245.000 159.925,245.044 161.410,245.206 162.400 C 245.462 163.966,245.506 163.771,245.550 160.900 C 245.603 157.373,245.429 156.661,245.108 159.100 M245.618 165.624 C 245.608 166.186,245.864 166.996,246.187 167.424 C 246.927 168.401,246.931 168.197,246.212 166.200 C 245.734 164.875,245.632 164.776,245.618 165.624 M248.000 170.544 C 248.000 170.812,251.654 174.464,252.871 175.412 C 254.556 176.724,260.190 179.701,264.600 181.609 C 265.700 182.085,267.511 182.897,268.625 183.413 C 269.739 183.930,271.629 184.735,272.825 185.203 C 274.021 185.670,275.900 186.470,277.000 186.981 C 278.100 187.491,279.900 188.296,281.000 188.768 C 282.100 189.241,283.333 189.814,283.739 190.042 C 284.145 190.269,284.576 190.357,284.696 190.238 C 284.815 190.118,284.123 189.678,283.157 189.259 C 282.190 188.841,280.191 187.941,278.713 187.260 C 277.235 186.579,274.895 185.555,273.513 184.986 C 272.131 184.416,270.460 183.715,269.800 183.428 C 269.140 183.142,267.610 182.481,266.400 181.961 C 258.369 178.506,253.065 175.358,249.900 172.168 C 248.855 171.115,248.000 170.384,248.000 170.544 M216.000 187.359 C 216.000 187.902,218.070 190.864,218.293 190.640 C 218.423 190.511,218.230 190.075,217.864 189.671 C 217.499 189.267,217.200 188.748,217.200 188.517 C 217.200 188.287,216.930 187.874,216.600 187.600 C 216.270 187.326,216.000 187.218,216.000 187.359 M285.238 190.572 C 285.664 190.997,291.766 193.967,291.913 193.820 C 292.080 193.653,289.845 192.408,287.056 191.115 C 285.557 190.421,284.887 190.220,285.238 190.572 M219.141 192.317 C 222.621 197.205,233.218 206.126,238.400 208.532 C 238.730 208.685,239.794 209.259,240.765 209.806 C 241.736 210.354,242.595 210.738,242.673 210.660 C 242.752 210.581,241.327 209.658,239.508 208.609 C 235.759 206.446,231.071 203.406,229.634 202.206 C 224.713 198.099,221.790 195.182,220.109 192.700 C 219.551 191.875,218.925 191.200,218.720 191.200 C 218.514 191.200,218.703 191.702,219.141 192.317 M293.246 194.700 C 293.771 195.085,294.830 195.743,295.600 196.161 C 296.370 196.580,297.774 197.435,298.720 198.061 C 299.666 198.688,300.532 199.200,300.644 199.200 C 301.277 199.200,299.997 198.258,296.642 196.256 C 292.921 194.035,291.375 193.327,293.246 194.700 M301.200 199.490 C 301.200 199.703,301.551 200.040,301.981 200.239 C 307.505 202.793,317.347 214.282,320.280 221.600 C 323.248 229.008,323.800 232.330,323.800 242.800 C 323.800 252.580,323.073 257.300,320.813 262.200 C 320.610 262.640,320.054 263.900,319.578 265.000 C 316.312 272.542,305.492 283.403,299.278 285.375 C 298.795 285.529,298.400 285.839,298.400 286.065 C 298.400 286.580,302.185 284.479,305.529 282.110 C 319.298 272.354,326.021 256.675,324.454 237.975 C 323.009 220.729,317.427 211.286,301.700 199.477 C 301.386 199.241,301.200 199.246,301.200 199.490 M243.776 211.413 C 244.204 211.736,244.733 212.000,244.953 212.000 C 245.173 212.000,245.004 211.736,244.576 211.413 C 244.149 211.090,243.620 210.825,243.400 210.825 C 243.180 210.825,243.349 211.090,243.776 211.413 M245.600 212.188 C 245.600 212.381,248.227 213.651,251.800 215.185 C 252.900 215.657,254.160 216.204,254.600 216.400 C 255.040 216.596,256.300 217.136,257.400 217.600 C 258.500 218.064,259.760 218.604,260.200 218.799 C 260.640 218.994,261.990 219.588,263.200 220.118 C 264.410 220.648,266.570 221.595,268.000 222.223 C 278.766 226.950,284.568 231.171,286.821 235.913 C 287.313 236.951,287.792 237.585,287.884 237.322 C 288.919 234.373,279.615 226.881,269.200 222.278 C 268.430 221.938,266.810 221.220,265.600 220.682 C 264.390 220.144,261.024 218.690,258.119 217.450 C 255.215 216.210,251.289 214.477,249.396 213.598 C 245.873 211.963,245.600 211.862,245.600 212.188 M288.291 240.200 C 288.637 243.174,288.636 244.031,288.282 246.800 L 288.001 249.000 288.594 247.200 C 289.336 244.950,289.334 242.388,288.588 239.800 L 288.012 237.800 288.291 240.200 M221.800 243.440 C 218.500 245.330,214.335 247.760,212.544 248.838 C 210.754 249.917,209.111 250.800,208.893 250.800 C 208.676 250.800,208.274 251.070,208.000 251.400 C 207.204 252.359,207.701 252.138,211.867 249.680 C 214.030 248.404,216.070 247.227,216.400 247.064 C 216.730 246.902,217.361 246.551,217.801 246.284 C 223.782 242.670,228.112 240.359,228.368 240.645 C 228.543 240.840,229.952 242.710,231.501 244.800 C 236.206 251.150,240.304 254.846,246.000 257.876 C 260.072 265.362,282.271 261.959,286.934 251.600 C 287.181 251.050,287.544 250.486,287.741 250.346 C 287.937 250.207,288.009 249.847,287.901 249.546 C 287.777 249.201,287.510 249.441,287.175 250.200 C 282.215 261.423,261.492 265.174,246.359 257.588 C 240.205 254.503,234.655 249.180,229.588 241.503 C 228.312 239.569,228.747 239.461,221.800 243.440 M203.443 254.004 C 198.966 256.753,198.969 256.750,200.041 258.638 C 205.530 268.301,212.797 276.101,221.761 281.950 C 223.499 283.084,225.014 283.919,225.127 283.806 C 225.386 283.547,225.493 283.626,222.400 281.791 C 220.970 280.943,219.710 280.147,219.600 280.023 C 219.490 279.899,218.590 279.258,217.600 278.599 C 215.349 277.100,207.408 269.136,205.801 266.768 C 205.142 265.795,204.500 264.910,204.375 264.800 C 203.432 263.970,199.986 257.476,200.174 256.883 C 200.299 256.489,201.405 255.634,202.632 254.983 C 205.877 253.263,206.418 252.942,206.914 252.446 C 207.831 251.529,206.503 252.125,203.443 254.004 M72.400 262.887 C 72.400 263.167,73.851 265.823,74.974 267.600 C 80.524 276.379,88.798 283.699,97.800 287.795 C 102.859 290.096,103.924 290.493,104.465 290.277 C 104.768 290.156,104.620 290.049,104.124 290.032 C 103.642 290.014,103.148 289.840,103.027 289.644 C 102.906 289.449,102.326 289.168,101.738 289.020 C 95.725 287.511,85.095 279.926,79.808 273.373 C 78.933 272.288,78.033 271.181,77.808 270.914 C 77.584 270.647,77.175 270.159,76.900 269.831 C 76.625 269.502,76.400 269.152,76.400 269.052 C 76.400 268.952,75.770 267.913,75.000 266.744 C 74.230 265.575,73.600 264.466,73.600 264.281 C 73.600 264.095,73.330 263.673,73.000 263.343 C 72.670 263.013,72.400 262.808,72.400 262.887 M226.211 284.549 C 227.197 285.234,232.257 287.608,233.600 288.014 C 234.150 288.180,234.945 288.456,235.366 288.626 C 235.868 288.829,236.041 288.790,235.869 288.512 C 235.725 288.279,235.111 287.972,234.504 287.831 C 233.296 287.548,232.276 287.108,228.494 285.239 C 225.833 283.923,224.911 283.645,226.211 284.549 M155.101 286.408 C 154.057 287.063,153.094 287.600,152.962 287.600 C 152.726 287.600,151.393 288.148,149.000 289.230 C 148.340 289.528,147.440 289.896,147.000 290.046 C 146.439 290.238,146.388 290.332,146.830 290.360 C 147.942 290.431,157.600 285.952,157.600 285.366 C 157.600 284.987,156.895 285.281,155.101 286.408 M296.000 286.962 C 294.396 287.828,292.014 288.800,291.486 288.802 C 291.219 288.804,290.506 289.063,289.902 289.378 C 289.298 289.693,287.991 290.072,286.997 290.221 C 286.003 290.370,285.092 290.652,284.971 290.846 C 284.851 291.041,284.178 291.221,283.476 291.246 C 282.667 291.276,282.481 291.365,282.969 291.489 C 283.391 291.597,284.831 291.372,286.169 290.990 C 291.800 289.379,299.149 286.446,297.600 286.428 C 297.270 286.424,296.550 286.664,296.000 286.962 M237.800 289.459 C 241.642 290.907,250.781 292.832,253.400 292.744 C 254.766 292.698,254.648 292.642,252.600 292.359 C 247.405 291.642,241.587 290.363,239.092 289.389 C 238.262 289.065,237.272 288.813,236.892 288.828 C 236.511 288.844,236.920 289.128,237.800 289.459 M105.628 290.792 C 106.586 291.352,111.926 292.459,114.400 292.610 L 116.600 292.745 114.600 292.401 C 109.685 291.554,107.752 291.137,107.105 290.782 C 106.146 290.254,104.726 290.264,105.628 290.792 M144.000 290.762 C 143.414 291.092,140.222 291.771,136.200 292.420 L 134.200 292.742 136.600 292.613 C 140.385 292.408,148.361 290.424,145.400 290.424 C 144.960 290.424,144.330 290.576,144.000 290.762 M279.473 291.860 C 279.330 292.003,278.085 292.249,276.706 292.406 L 274.200 292.691 276.200 292.738 C 277.300 292.763,279.100 292.534,280.200 292.228 C 281.910 291.752,282.021 291.666,280.967 291.636 C 280.288 291.616,279.616 291.717,279.473 291.860 M119.000 293.218 C 121.513 293.610,128.634 293.608,131.800 293.215 C 133.383 293.019,131.272 292.916,125.600 292.912 C 120.069 292.909,117.714 293.018,119.000 293.218 M257.800 293.215 C 259.120 293.379,262.270 293.513,264.800 293.513 C 267.330 293.513,270.480 293.379,271.800 293.215 C 273.331 293.025,270.798 292.918,264.800 292.918 C 258.802 292.918,256.269 293.025,257.800 293.215 " stroke="none" fill="#847c3c" fill-rule="evenodd"></path><path id="path4" d="M253.000 112.400 C 252.471 112.627,253.350 112.744,255.600 112.744 C 257.850 112.744,258.729 112.627,258.200 112.400 C 257.760 112.211,256.590 112.056,255.600 112.056 C 254.610 112.056,253.440 112.211,253.000 112.400 M268.200 112.400 C 267.667 112.629,268.533 112.751,270.800 112.766 C 273.134 112.781,274.012 112.666,273.600 112.400 C 272.868 111.927,269.301 111.927,268.200 112.400 M246.994 113.634 C 246.389 113.870,246.557 113.950,247.700 113.972 C 248.525 113.987,249.200 113.931,249.200 113.847 C 249.200 113.490,247.725 113.348,246.994 113.634 M278.194 113.634 C 277.589 113.870,277.757 113.950,278.900 113.972 C 279.725 113.987,280.400 113.931,280.400 113.847 C 280.400 113.490,278.925 113.348,278.194 113.634 M283.000 114.827 C 282.349 115.085,282.441 115.149,283.500 115.172 C 284.852 115.201,285.158 115.020,284.300 114.698 C 284.025 114.595,283.440 114.653,283.000 114.827 M242.500 115.076 C 242.885 115.176,243.515 115.176,243.900 115.076 C 244.285 114.975,243.970 114.893,243.200 114.893 C 242.430 114.893,242.115 114.975,242.500 115.076 M260.716 146.697 C 262.099 146.775,264.259 146.774,265.516 146.695 C 266.772 146.616,265.640 146.552,263.000 146.553 C 260.360 146.553,259.332 146.618,260.716 146.697 M209.830 147.719 C 209.651 148.334,209.616 148.949,209.752 149.085 C 210.200 149.533,210.463 148.894,210.308 147.737 L 210.155 146.600 209.830 147.719 M208.609 153.300 C 208.484 154.015,208.550 155.140,208.756 155.800 C 209.082 156.841,209.136 156.669,209.166 154.500 C 209.203 151.770,208.966 151.259,208.609 153.300 M246.493 160.800 C 246.493 161.570,246.575 161.885,246.676 161.500 C 246.776 161.115,246.776 160.485,246.676 160.100 C 246.575 159.715,246.493 160.030,246.493 160.800 M208.643 168.095 C 208.460 169.137,208.459 170.487,208.641 171.095 C 209.049 172.463,209.349 170.303,209.112 167.700 L 208.975 166.200 208.643 168.095 M209.736 175.422 C 209.605 175.764,209.688 176.439,209.922 176.922 C 210.303 177.712,210.349 177.650,210.373 176.300 C 210.401 174.729,210.140 174.369,209.736 175.422 M211.030 179.867 C 210.889 180.234,210.960 180.720,211.187 180.947 C 211.471 181.231,211.600 181.023,211.600 180.280 C 211.600 179.046,211.400 178.901,211.030 179.867 M270.200 182.400 C 270.064 182.620,270.334 182.800,270.800 182.800 C 271.266 182.800,271.536 182.620,271.400 182.400 C 271.264 182.180,270.994 182.000,270.800 182.000 C 270.606 182.000,270.336 182.180,270.200 182.400 M212.284 183.200 C 212.169 183.639,212.238 184.100,212.438 184.223 C 212.637 184.346,212.800 183.987,212.800 183.424 C 212.800 182.198,212.572 182.099,212.284 183.200 M281.200 187.200 C 281.200 187.420,281.605 187.597,282.100 187.594 C 282.828 187.589,282.885 187.514,282.400 187.200 C 281.624 186.699,281.200 186.699,281.200 187.200 M324.901 230.200 C 324.905 231.080,324.987 231.393,325.083 230.895 C 325.179 230.398,325.175 229.678,325.075 229.295 C 324.975 228.913,324.896 229.320,324.901 230.200 M285.802 236.797 C 285.667 237.015,285.741 237.510,285.966 237.897 C 286.317 238.500,286.377 238.444,286.388 237.500 C 286.401 236.350,286.216 236.128,285.802 236.797 M326.164 243.000 C 326.163 246.740,326.223 248.324,326.297 246.520 C 326.371 244.715,326.372 241.655,326.298 239.720 C 326.225 237.784,326.164 239.260,326.164 243.000 M287.067 240.667 C 286.641 241.092,286.759 246.327,287.200 246.600 C 287.454 246.757,287.600 245.671,287.600 243.624 C 287.600 240.391,287.561 240.173,287.067 240.667 M141.331 243.400 C 141.333 244.940,141.405 245.521,141.492 244.691 C 141.579 243.861,141.577 242.601,141.489 241.891 C 141.400 241.181,141.329 241.860,141.331 243.400 M180.068 246.800 C 180.060 249.263,180.177 250.319,180.400 249.800 C 180.828 248.804,180.828 245.337,180.400 244.000 C 180.191 243.346,180.076 244.316,180.068 246.800 M285.787 248.840 C 285.641 249.302,285.718 249.878,285.960 250.120 C 286.280 250.440,286.400 250.210,286.400 249.280 C 286.400 247.803,286.169 247.637,285.787 248.840 M178.859 255.400 C 178.863 257.245,178.895 257.312,179.277 256.264 C 179.563 255.479,179.561 254.862,179.272 254.264 C 178.922 253.541,178.855 253.726,178.859 255.400 M324.893 255.200 C 324.893 255.970,324.975 256.285,325.076 255.900 C 325.176 255.515,325.176 254.885,325.076 254.500 C 324.975 254.115,324.893 254.430,324.893 255.200 M119.305 259.487 C 119.914 259.579,120.814 259.577,121.305 259.482 C 121.797 259.387,121.300 259.311,120.200 259.314 C 119.100 259.317,118.697 259.395,119.305 259.487 M127.305 259.487 C 127.914 259.579,128.814 259.577,129.305 259.482 C 129.797 259.387,129.300 259.311,128.200 259.314 C 127.100 259.317,126.697 259.395,127.305 259.487 M177.600 260.176 C 177.600 261.402,177.828 261.501,178.116 260.400 C 178.231 259.961,178.162 259.500,177.962 259.377 C 177.763 259.254,177.600 259.613,177.600 260.176 M255.905 259.483 C 256.402 259.579,257.122 259.575,257.505 259.475 C 257.887 259.375,257.480 259.296,256.600 259.301 C 255.720 259.305,255.407 259.387,255.905 259.483 M270.305 259.483 C 270.802 259.579,271.522 259.575,271.905 259.475 C 272.287 259.375,271.880 259.296,271.000 259.301 C 270.120 259.305,269.807 259.387,270.305 259.483 M176.400 263.776 C 176.400 265.002,176.628 265.101,176.916 264.000 C 177.031 263.561,176.962 263.100,176.762 262.977 C 176.563 262.854,176.400 263.213,176.400 263.776 M295.600 288.553 C 295.600 288.908,297.218 289.094,297.423 288.762 C 297.546 288.563,297.187 288.400,296.624 288.400 C 296.061 288.400,295.600 288.469,295.600 288.553 M98.400 290.000 C 99.176 290.501,99.600 290.501,99.600 290.000 C 99.600 289.780,99.195 289.603,98.700 289.606 C 97.972 289.611,97.915 289.686,98.400 290.000 M233.800 290.000 C 233.936 290.220,234.296 290.400,234.600 290.400 C 234.904 290.400,235.264 290.220,235.400 290.000 C 235.541 289.772,235.196 289.600,234.600 289.600 C 234.004 289.600,233.659 289.772,233.800 290.000 M293.081 290.041 C 293.398 290.358,293.732 290.361,294.261 290.054 C 294.909 289.677,294.854 289.623,293.820 289.612 C 292.959 289.603,292.760 289.720,293.081 290.041 M101.481 291.241 C 101.798 291.558,102.132 291.561,102.661 291.254 C 103.309 290.877,103.254 290.823,102.220 290.812 C 101.359 290.803,101.160 290.920,101.481 291.241 M148.200 291.200 C 148.336 291.420,148.696 291.600,149.000 291.600 C 149.304 291.600,149.664 291.420,149.800 291.200 C 149.941 290.972,149.596 290.800,149.000 290.800 C 148.404 290.800,148.059 290.972,148.200 291.200 M237.400 291.200 C 237.536 291.420,237.896 291.600,238.200 291.600 C 238.504 291.600,238.864 291.420,239.000 291.200 C 239.141 290.972,238.796 290.800,238.200 290.800 C 237.604 290.800,237.259 290.972,237.400 291.200 M289.600 291.200 C 289.600 291.420,289.949 291.600,290.376 291.600 C 290.803 291.600,291.264 291.420,291.400 291.200 C 291.540 290.973,291.204 290.800,290.624 290.800 C 290.061 290.800,289.600 290.980,289.600 291.200 M104.600 292.400 C 104.736 292.620,105.276 292.800,105.800 292.800 C 106.324 292.800,106.864 292.620,107.000 292.400 C 107.147 292.161,106.663 292.000,105.800 292.000 C 104.937 292.000,104.453 292.161,104.600 292.400 M144.200 292.400 C 144.336 292.620,144.786 292.800,145.200 292.800 C 145.614 292.800,146.064 292.620,146.200 292.400 C 146.345 292.166,145.930 292.000,145.200 292.000 C 144.470 292.000,144.055 292.166,144.200 292.400 M241.600 292.400 C 242.382 292.906,243.488 292.906,243.800 292.400 C 243.948 292.160,243.439 292.002,242.524 292.006 C 241.393 292.011,241.155 292.112,241.600 292.400 M285.341 292.455 C 285.858 292.756,286.341 292.760,286.941 292.470 C 287.690 292.107,287.596 292.052,286.200 292.039 C 284.869 292.027,284.725 292.097,285.341 292.455 M109.400 293.600 C 109.536 293.820,110.166 294.000,110.800 294.000 C 111.434 294.000,112.064 293.820,112.200 293.600 C 112.350 293.358,111.796 293.200,110.800 293.200 C 109.804 293.200,109.250 293.358,109.400 293.600 M139.464 293.672 C 140.062 293.961,140.679 293.963,141.464 293.677 C 142.512 293.295,142.445 293.263,140.600 293.259 C 138.926 293.255,138.741 293.322,139.464 293.672 M246.600 293.600 C 247.715 294.079,249.504 294.079,249.800 293.600 C 249.954 293.351,249.244 293.211,247.924 293.228 C 246.368 293.249,246.014 293.348,246.600 293.600 M279.200 293.600 C 279.926 294.069,281.509 294.069,282.600 293.600 C 283.169 293.355,282.707 293.250,281.000 293.234 C 279.311 293.219,278.778 293.327,279.200 293.600 M116.200 294.768 C 117.233 295.178,133.429 295.188,134.776 294.779 C 135.339 294.609,131.210 294.465,125.600 294.460 C 119.990 294.455,115.760 294.594,116.200 294.768 M254.734 294.797 C 255.468 294.971,259.908 295.113,264.600 295.113 C 269.292 295.113,273.732 294.971,274.466 294.797 C 275.220 294.619,270.930 294.482,264.600 294.482 C 258.270 294.482,253.980 294.619,254.734 294.797 M41.067 323.467 C 40.920 323.613,40.800 324.009,40.800 324.347 C 40.800 324.824,40.907 324.853,41.280 324.480 C 41.652 324.108,75.476 324.000,191.080 324.000 C 290.360 324.000,340.400 323.866,340.400 323.600 C 340.400 323.148,41.518 323.015,41.067 323.467 " stroke="none" fill="#f8e156" fill-rule="evenodd"></path></g></svg>